<?xml-stylesheet type="text/css" href="/CMS_Themes/Default/Css/pest-icons.css" ?>
<svg version="1.1" id="Layer_1" xmlns="http://www.w3.org/2000/svg" viewBox="0 0 82.4 82.4" width="100%" height="100%">
<g>
	<path fill="#102e52" class="pest-search__item-icon" d="M44.9,39c-0.5,0-1,0-1.5,0c-0.3,0-0.6,0.1-0.9,0.2c-0.1,0-0.2,0.1-0.2,0.2c0,0.4,0,0.7,0.1,1.1
		c0,0.2,0.2,0.3,0.4,0.2c0.7-0.2,1.4-0.4,2.1-0.6c0.2-0.1,0.3-0.2,0.2-0.4C45,39.5,44.9,39.3,44.9,39z"/>
	<path fill="#102e52" class="pest-search__item-icon" d="M37.7,38.8c0,0.1-0.1,0.1-0.1,0.2c0.2,0.5,0.1,0.9,0,1.4c0,0.1,0,0.2,0.1,0.2c0.4,0.1,0.7,0.2,1,0.2
		c-0.3-0.6-0.6-1.3-1-1.9C37.9,38.9,37.8,38.9,37.7,38.8z"/>
	<path fill="#102e52" class="pest-search__item-icon" d="M21.5,42c0.3-0.6,0.7-1.1,0.7-1.9C21.6,40.4,21.3,41.3,21.5,42z"/>
	<path fill="#102e52" class="pest-search__item-icon" d="M41.2,0C18.5,0,0,18.4,0,41.2s18.4,41.2,41.2,41.2S82.4,64,82.4,41.2S63.9,0,41.2,0z M78,49.2
		c-0.2-0.1-0.5-0.3-0.8-0.1c-0.1,0-0.2,0-0.3,0c-0.3-0.1-0.6-0.3-0.8-0.4c-0.2-0.1-0.3-0.2-0.5,0c0,0-0.2,0.1-0.2,0
		c-0.1,0-0.3,0-0.4-0.1c-0.3-0.2-0.6-0.5-1-0.6s-0.7-0.3-1-0.5c-0.2-0.1-0.4-0.3-0.6,0c-0.7-0.2-1.3-0.6-1.8-1.2
		c-0.4-0.5-1-0.9-1.5-1.3c-0.7-0.6-1.5-1.2-2.2-1.8c-0.1-0.1-0.1-0.1-0.2-0.2c-0.2-0.2-0.5-0.1-0.6,0.2c-0.1,0.1-0.1,0.3-0.2,0.4
		c0-0.1,0-0.3-0.1-0.4c0-0.9-0.2-1.7-0.4-2.5c-0.3-1.2-0.5-2.5-0.8-3.7c-0.6-2.2-1.6-4.3-2.7-6.4c-0.2-0.4-0.5-0.8-0.7-1.2
		c-0.1-0.2-0.3-0.3-0.5-0.1c-1,0.6-1.9,1.1-2.9,1.7l-0.1,0.1c0.7,0.6,1.5,1.2,2.2,1.8c0.4,0.3,0.6,0.8,0.9,1.2s0.5,0.8,0.8,1.2
		c0.8,1.4,1.3,2.8,1.3,4.4c0,0.8,0,1.6,0,2.4c0,0.6-0.3,1-0.5,1.5c-0.2,0.6-0.5,1.2-0.7,1.8c0.3,0.3,1,0.1,0.8,0.8
		c0.3,0,0.6,0.1,0.9,0.1c0,0,0,0.1,0.1,0.2c0.1,0,0.2,0,0.3,0C63.7,47,64,47,64.3,47.1c0.4,0.1,0.9,0.2,1.2,0.5
		c0.1,0.1,0.1,0.2,0.2,0.3c-0.3-0.1-0.5-0.3-0.8-0.4l-0.1,0.1c0.1,0.2,0.3,0.3,0.4,0.5c0,0,0,0,0,0.1c-0.1-0.1-0.3-0.2-0.4-0.4
		s-0.3-0.3-0.5-0.2c-0.1,0-0.3-0.1-0.4-0.2c-0.1-0.1-0.2-0.1-0.3-0.2c-0.1,0.1-0.1,0.1-0.2,0.2h-0.1c-0.4-0.2-0.8-0.5-1.2-0.8
		c-0.1-0.1-0.2-0.2-0.4-0.3c-0.1,0-0.2-0.1-0.3,0c-0.3,0.2-0.6,0.4-0.9,0.6c-0.1,0.1-0.3,0-0.4,0c-0.2,0-0.4-0.1-0.6-0.2
		c0.1,0.2,0.1,0.3,0.1,0.4c0.3,0.6,0.4,1.3,0.8,1.8c0.1,0.1,0.2,0.3,0.1,0.4c-0.1,0.7,0.3,1.3,0.7,1.8c0.6,0.8,1.3,1.7,1.9,2.6
		c0.3,0.4,0.7,0.8,1,1.3c0.2,0.4,0.5,0.7,0.8,1c0.2,0.2,0.3,0.4,0.5,0.6c0.2,0.2,0.4,0.5,0.7,0.6c0.4,0.3,0.9,0.5,1.2,0.9
		c0.2,0.2,0.5,0.3,0.8,0.5c0.1,0.1,0.3,0.1,0.4,0.2c0.1,0.1,0.2,0.3,0.2,0.4c0,0.3,0.1,0.3,0.3,0.3c0.8,0.2,1.4,0.5,1.9,1.1
		c0.1,0.1,0.2,0.3,0.3,0.5c-0.3-0.2-0.5-0.4-0.8-0.6c0.1,0.3,0.2,0.6,0.2,0.9c-0.6-0.8-1.4-1.3-2.3-1.7c-0.4-0.2-0.8-0.3-1.1-0.8
		c-0.1-0.2-0.3-0.4-0.6-0.2c-0.1,0-0.2-0.1-0.3-0.1c-0.3-0.2-0.5-0.5-0.8-0.7c-0.1-0.1-0.3-0.1-0.5-0.2c-0.1-0.1-0.3-0.1-0.4-0.3
		c-0.2-0.3-0.4-0.6-0.6-0.9c-0.2-0.2-0.5-0.4-0.8-0.6c-0.2-0.2-0.4-0.4-0.5-0.6c-0.6-1-1.2-1.9-1.8-2.9c-0.6-0.9-1.1-1.7-1.7-2.6
		c0,0,0,0-0.1-0.1c-0.2,0.4-0.4,0.8-0.6,1.2l0,0c0-0.3,0-0.6,0-1c-0.1,0.1-0.2,0.1-0.2,0.2c0-0.4,0.1-0.8,0.1-1.2
		c-0.1,0.1-0.2,0.1-0.2,0.2V49c0.2-0.9-0.2-1.7-0.6-2.5c-0.1-0.1-0.2-0.2-0.4-0.2c-1.4-0.3-2.7-0.6-4.1-1c-1.9-0.5-3.7-1.4-5.1-2.7
		c-0.5-0.5-1-0.6-1.7-0.4c-1.2,0.3-2.5,0.2-3.8,0.1c-0.1,0-0.2,0-0.3,0c0.4,0.2,0.8,0.5,1.2,0.7c0.6,0.4,1.2,0.8,1.7,1.2
		c0.2,0.2,0.3,0.6,0.4,0.9c0.5,2,0.9,3.9,1.3,5.9c0.2,0.9,0.6,1.7,0.8,2.5c0.1,0.5,0.3,0.8,0.7,1.1c0.4,0.4,0.8,0.7,1.2,1
		c0.8,0.6,1.6,1.2,2.3,1.7c0.3,0.2,0.5,0.5,0.5,0.9c0,0.1,0.2,0.2,0.3,0.2c0.2,0.1,0.6,0.2,0.6,0.6c0,0.1,0.1,0.1,0.2,0.2
		c0.2,0.1,0.4,0.2,0.4,0.5c0,0.1,0.2,0.2,0.3,0.2c0.3,0,0.6,0.2,0.8,0.4c0.3,0.4,0.6,0.8,0.9,1.2c0,0,0,0.1,0.1,0.2
		c-0.2-0.2-0.4-0.3-0.6-0.4c-0.1,0.3-0.1,0.6-0.2,0.8H55c-0.1-0.2-0.2-0.5-0.3-0.7c-0.1-0.1-0.2-0.2-0.3-0.4
		c-0.1-0.1-0.2-0.2-0.2-0.2c-0.1-0.1-0.1-0.3-0.2-0.4c-0.1-0.1-0.2-0.1-0.3-0.1c-0.2,0.1-0.3,0-0.4-0.2s-0.2-0.5-0.4-0.7
		c-0.1,0-0.2,0.1-0.3,0.1c-0.2-0.3-0.3-0.5-0.5-0.9C52,58.8,52,58.9,51.9,59c-0.3-0.3-0.5-0.7-0.8-1c-0.7-0.8-1.6-1.3-2.4-1.9
		c-0.4-0.3-0.8-0.6-1.2-0.9c-0.1-0.1-0.3-0.1-0.4-0.2c0,0.1-0.1,0.3-0.1,0.4c-0.1,0.4-0.2,0.9-0.3,1.3h-0.1c0-0.5,0-1,0-1.5
		c0-0.1,0-0.3-0.2-0.3c0,0-0.1-0.1-0.1-0.2c0-0.2,0-0.3,0-0.5c0-0.1-0.1-0.2-0.2-0.2c0.1-0.6-0.2-1.2-0.3-1.7
		c-0.5-2.2-1.2-4.3-1.4-6.5c0-0.6-0.4-0.8-0.8-1c-2-0.8-3.9-1.6-5.7-2.6c-0.2-0.1-0.5-0.2-0.7-0.2c-0.4,0-0.6-0.1-0.8-0.3
		c-0.6-0.7-0.6-0.6-1,0.1c-0.4,0.8-0.6,1.6-0.7,2.4c-0.1,0.2-0.1,0.5-0.2,0.7c-0.2,0.6-0.4,1.3-0.6,1.9c0,0-0.1,0-0.1-0.1
		c-0.3-0.2-0.4-0.2-0.5,0.1c-0.4,0.9-1.1,1.4-1.8,2c-0.1,0.1-0.2,0.2-0.3,0.2c-0.1,0-0.1,0.1-0.2,0.1c-0.3-0.1-0.5,0.1-0.6,0.4
		c-0.1-0.1-0.1-0.2-0.2-0.3c-0.1,0.1-0.2,0.2-0.4,0.4c0-0.1,0-0.2,0-0.3c-0.2,0.1-0.3,0.2-0.4,0.2c0.2-0.3,0.5-0.6,0.9-0.7
		c0.1,0,0.1,0,0.2,0c0.5-0.5,1.1-0.9,1.6-1.4c0.4-0.5,0.7-1.2,1.1-1.7c0.6-0.9,0.8-1.9,1.1-2.9c0.3-0.8,0.5-1.5,0.8-2.3
		c0-0.1,0-0.2,0-0.2c-0.2-0.3-0.4-0.6-0.7-1c-0.1,0.5-0.2,1-0.2,1.4c0,0.6-0.3,1.1-0.9,1.3c-0.2,0.1-0.3,0.2-0.4,0.3
		c-0.7,0.6-1.5,1-2.4,1.2c-0.5,0.1-1,0.1-1.6,0.2c-0.6,0.1-1.1,0.3-1.5,0.9c-0.4,0.7-0.9,1.5-1.3,2.2c-0.6,1.3-1.5,2.5-2.3,3.6
		c-0.3,0.4-0.4,0.8-0.6,1.2c-0.1,0.1-0.1,0.2-0.2,0.4c0-0.3,0-0.7,0-1.1c-0.4,0.2-0.8,0.3-1.1,0.6c-0.5,0.4-1,0.9-1.5,1.3
		c-0.4,0.4-0.9,0.7-1.4,1.1c-0.2,0.2-0.4,0.5-0.6,0.7c-0.1-0.1-0.2-0.2-0.4-0.4c-0.1,0.2-0.2,0.3-0.3,0.5c-0.1,0.2-0.2,0.5-0.3,0.7
		h-0.1c0-0.1-0.1-0.3-0.1-0.5c-0.3,0.3-0.6,0.5-0.9,0.8c-0.1-0.3-0.3-0.3-0.4-0.1c-0.2,0.2-0.4,0.4-0.5,0.6
		c-0.7-0.3-1.1,0.3-1.7,0.5c0.1-0.3,0.2-0.5,0.3-0.7c-0.2,0-0.3,0.1-0.5,0.1c0.1-0.2,0.2-0.4,0.3-0.5c0.1-0.1,0.3-0.2,0.4-0.2
		c0.6,0,1-0.2,1.5-0.4c0.4-0.1,0.8-0.3,1-0.7c0.1-0.2,0.3-0.3,0.5-0.4c0.2-0.1,0.4-0.1,0.6-0.2c-0.1-0.1-0.2-0.1-0.3-0.1
		c0.9-0.7,1.8-1.4,2.7-2.1c0.6-0.5,1.2-0.9,1.8-1.3c0.1-0.1,0.2-0.3,0.3-0.4c0.8-0.8,1.4-1.8,2-2.8c0.7-1.2,1.4-2.5,2.3-3.5
		c0.1-0.1,0.1-0.3,0.1-0.5s0.1-0.4,0.3-0.4c0.5,0,0.9-0.3,1.3-0.5c0.7-0.4,1.5-0.7,2.3-1c0.4-0.1,0.7-0.2,1.1-0.3
		c0.2-0.1,0.2-0.2,0.1-0.4c-0.4-0.7-0.7-1.5-1.1-2.2c-0.2-0.5-0.2-0.9-0.1-1.4c0.1-0.3,0-0.4-0.2-0.5c-0.4-0.3-0.8-0.5-1.2-0.8
		c-0.5-0.3-1-0.7-1.5-1c-0.1,0.2-0.2,0.3-0.2,0.5c-0.1,0.2-0.2,0.5-0.4,0.7c-0.7,0.9-1.5,1.6-2.4,2.3c-0.6,0.4-1.1,0.9-1.6,1.3
		c-0.3,0.2-0.3,0.5-0.1,0.8c0.4,0.7,0.1,1.4-0.2,2c-0.1,0.3-0.4,0.4-0.6,0.4c-0.6,0.1-1.1-0.1-1.7-0.4c0.3-0.1,0.6-0.2,0.9-0.4
		c-0.5-0.1-0.8-0.4-1.1-0.8c-0.8-1.3-1-2.7-0.8-4.2c0-0.1,0-0.1,0-0.2l0,0c-0.7-0.1-1.4-0.2-2.1-0.3c-1.3-0.2-2.6-0.6-3.8-1.2
		c-0.1,0-0.2,0-0.3,0.1c-0.4,0.3-0.8,0.6-1.2,0.9c-0.4,0.3-0.7,0.7-1.1,1.1c-1.1,1.1-1.8,2.5-2.6,3.8c-0.2,0.3-0.4,0.5-0.6,0.7
		c-0.1,0.1-0.2,0.1-0.5,0.2c0.1-0.3,0.1-0.5,0.1-0.6c0.7-1.8,1.9-3.4,3.2-4.8c0.2-0.2,0.3-0.4,0.5-0.6c0.3-0.4,0.7-0.6,1.2-0.8
		c0.3-0.1,0.6-0.4,0.9-0.5l0,0c0.4-0.5,0.4-0.5,1-0.3c0.4,0.1,0.7,0.3,1,0.5c1.2,0.7,2.5,1,3.8,1.2c0.6,0.1,0.6,0.1,0.8-0.6
		c0.1-0.3,0-0.4-0.2-0.6c-1.2-0.8-2.3-1.8-3.3-2.9c-0.1-0.1-0.2-0.1-0.3-0.1c-0.7,0.1-1.5,0.2-2.2,0.5c-1,0.5-2.1,0.8-3,1.6
		c-0.4,0.3-0.9,0.6-1.3,0.9c-0.3,0.2-0.6,0.2-0.9,0.3c-0.1,0-0.2-0.1-0.3-0.1c0-0.1,0-0.2,0.1-0.3c0.4-0.4,0.8-0.8,1.3-1.1
		c1.4-0.9,2.9-1.7,4.5-2.2c0.2-0.1,0.4-0.1,0.7-0.1c0.4,0,0.8-0.1,1.3-0.1c0,0,0.1,0,0.1-0.1c0.3-0.3,0.4-0.3,0.7,0
		c0.3,0.3,0.5,0.6,0.7,0.9c0.6,0.9,1.4,1.6,2.3,2.3c0.1-0.3,0.2-0.7,0.4-1c0.7-1.4,1.7-2.5,3.1-3c1.5-0.6,3.1-0.2,4.2,1
		c0.1,0.1,0.2,0.2,0.3,0.3c0.5-0.8,1.3-1.1,2.1-1.4c0.2-0.1,0.5-0.1,0.7-0.1c0.5,0,0.9-0.4,1.3-0.5c1.5-0.6,3.1-0.9,4.7-0.7
		c1.4,0.2,2.8,0.5,4.1,1c0.5,0.2,0.9,0.4,1.4,0.7c0.3,0.2,0.5,0.5,0.6,0.9c0.1,0.6,0.3,1.1,0.4,1.7c0,0.2,0.1,0.3,0.2,0.6
		c0.2-0.3,0.3-0.5,0.5-0.7c0.1-0.1,0.2-0.2,0.2-0.2c0.1,0,0.2,0.1,0.3,0.2c0.1,0.2,0.2,0.4,0.3,0.7c0.1-0.2,0.2-0.4,0.3-0.6
		c0.3-0.6,0.4-1.3,0.9-1.8c1.1-1.2,2.4-1.9,3.9-2.3c1.6-0.5,3.2-0.3,4.7,0.3c0.5,0.2,1,0.4,1.5,0.6c0.1,0,0.3,0,0.4-0.1
		c1.1-0.9,2.3-1.5,3.7-1.9c0.5-0.2,1.1-0.2,1.7-0.2c0.2,0,0.4,0.2,0.5,0.3c0.5,0.9,0.9,1.8,1.4,2.6c1.3,2.4,2.2,5,2.8,7.7
		c0.2,0.6,0.4,1.2,0.6,1.9c0.1,0.6,0.4,1.1,0.8,1.5c0.1,0.1,0,0.2,0.1,0.3c1.1,0.5,1.8,1.4,2.7,2.1c0.7,0.5,1.3,1.1,1.9,1.7
		c0.2,0.2,0.4,0.4,0.5,0.6c0.1,0.2,0.2,0.3,0.5,0.2c0.3,0,0.5,0,0.7,0.2c0.3,0.3,0.7,0.3,1.1,0.3c0.3,0,0.4,0.1,0.6,0.3
		c0,0.1,0.2,0.2,0.3,0.2c0.3,0.1,0.6,0.1,0.9,0.1c0.2,0,0.4,0.1,0.3,0.4c0.5,0.1,1.1,0,1.5,0.5c-0.2,0-0.4,0-0.6-0.1
		c0.1,0.2,0.2,0.4,0.4,0.6C78.3,49.4,78.2,49.3,78,49.2z"/>
</g>
</svg>
