<?xml-stylesheet type="text/css" href="/CMS_Themes/Default/Css/pest-icons.css" ?>
<svg version="1.1" id="Layer_1" xmlns="http://www.w3.org/2000/svg" viewBox="0 0 82.4 82.4" width="100%" height="100%">
<path fill="#102e52" class="pest-search__item-icon" d="M41.2,0C18.5,0,0,18.4,0,41.2s18.4,41.2,41.2,41.2S82.4,64,82.4,41.2S63.9,0,41.2,0z M71.5,44.8
	c-0.3-0.3-0.7-0.6-1-0.8c-0.1-0.1-0.3-0.2-0.4,0c-0.2,0.2-0.4,0.3-0.6,0.5c0,0,0,0.1-0.1,0.2h0.1c-0.3,0.2-0.6,0.3-0.8,0.5v0.1
	c0.2,0,0.5,0,0.7,0c0,0,0,0,0,0.1c-0.3,0-0.5,0-0.8,0s-0.6,0-0.8,0.4c0,0,0,0.1,0,0.2c-0.1,0-0.1,0-0.3,0c0.1,0.1,0.2,0.1,0.3,0.2
	c-0.1,0.2-0.1,0.3-0.2,0.4c-0.1,0-0.1-0.1-0.2-0.1c0,0.1,0.1,0.1,0.2,0.2c-0.2,0-0.3,0-0.4-0.1c0,0.1,0.1,0.2,0.1,0.3
	c-0.1,0-0.2,0-0.2,0c-0.4,0.5-0.7,1.1-1.2,1.6c-0.4,0.4-0.8,0.8-1.4,0.8c-0.3,0-0.7,0-1.1-0.1c0,0,0,0.1-0.1,0.2
	c-0.1-0.1-0.1-0.2-0.2-0.3c-0.1,0-0.1,0.2-0.3,0.1c-0.1,0-0.2,0.3-0.1,0.4c0.2,0.1,0.3,0.3,0.5,0.4c0.4,0.3,0.9,0.5,1.1,1
	c-0.2,0-0.3,0-0.2,0.3c0.2,0.3,0.1,0.5-0.3,0.5c0.5,0.4,0.9,0.8,1.4,1.3c0.1,0.1,0.2,0.1,0.2,0.2c0.1,0.6,0.6,1,0.9,1.5
	c0.2,0.5,0.6,0.9,0.7,1.4c0.1,0.4,0.3,0.7,0.4,1.1c0.1,0.1,0,0.3-0.2,0.3c0.2,0.3,0.3,0.5,0.5,0.8c-0.1,0-0.1,0-0.2,0.1
	c0.2,0.2,0.4,0.4,0.6,0.6l0,0c-0.2-0.1-0.3-0.3-0.5-0.4c0,0,0,0-0.1,0.1c0.1,0.1,0.2,0.3,0.4,0.4c-0.2,0-0.4-0.1-0.5,0
	c-0.1,0-0.1,0.2-0.2,0.3c0-0.1-0.1-0.3-0.2-0.3c-0.2,0-0.3,0.1-0.5,0.2c0,0,0-0.1,0-0.2c-0.1,0-0.2,0-0.2,0.1v-0.1
	c0.1-0.4,0.2-0.8,0.2-1.2v-0.1c-0.4-0.2-0.2-0.6-0.2-0.8c-0.1-0.2-0.1-0.3-0.2-0.3c-0.1-0.5-0.3-0.9-0.4-1.4
	c-0.1,0.1-0.1,0.1-0.1,0.2c-0.2-0.5-0.4-1-0.6-1.6c0,0.1-0.1,0.1-0.1,0.2c-0.3-0.7-0.8-1-1.3-1.4c-0.3-0.3-0.6-0.6-1-0.9
	c0,0,0,0.1,0,0.2c-0.1-0.1-0.1-0.2-0.2-0.2c0,0.2,0,0.3,0.1,0.6c-0.1-0.1-0.2-0.2-0.2-0.3c-0.3-0.4-0.3-0.4-0.7-0.1
	c-0.1,0.1-0.2,0.1-0.4,0.2v-0.1c0.3-0.2,0.3-0.4,0.1-0.7c-0.1-0.2-0.2-0.4-0.3-0.7h-0.1c0.1,0.3,0.2,0.5,0.3,0.8c0,0,0,0-0.1,0
	c-0.1-0.2-0.2-0.3-0.3-0.5c0,0.3,0,0.5,0.1,0.7c0,0,0,0-0.1,0c0-0.4-0.1-0.8-0.1-1.2c-0.1,0-0.1,0-0.2,0c0,0.2,0.1,0.4,0.2,0.7
	c-0.2-0.1-0.3-0.3-0.5-0.4c-0.1,0.3-0.3,0.5-0.4,0.8c0,0-0.1,0-0.1-0.1c-0.2,0.5-0.7,0.6-1,1c-0.3-0.2,0.1-0.7-0.5-0.8
	c0,0.1,0,0.2,0,0.2c-0.3,0.4-0.6,0.8-1,1.2h-0.1c0.7-0.7,0.9-1.5,0.3-2.4c0,0.2,0,0.5-0.1,0.7c-0.1,0-0.2,0-0.3-0.1v-0.1
	c-0.4,0.9-0.9,1.7-1.6,2.3l-0.1,0.1c-0.2-0.2-0.4,0.1-0.6,0.2c0.6-0.6,1.4-1.1,1.5-2.1c-0.1,0.1-0.1,0.2-0.2,0.3
	c0-0.1-0.1-0.2-0.1-0.3h-0.1c-0.1,0.2-0.2,0.4-0.2,0.6c0,0.1,0,0.1,0,0.2c-0.4,0.5-0.7,1-1.1,1.4c-0.3,0.3-0.7,0.6-1.1,0.8
	c0.7-0.6,1.5-1.1,1.8-2c-0.5,0.5-1,1-1.6,1.3c-0.6,0.2-1.3,0.3-2,0.5v-0.1c0.4-0.1,0.8-0.2,1.2-0.3c-0.5,0-1,0-1.5,0l0,0
	c0.4-0.1,0.8-0.1,1.3-0.2c0.2,0,0.4-0.1,0.6-0.2c0.1,0,0.3,0,0.2-0.2l0.1-0.1c0.2-0.2,0.4-0.3,0.6-0.5c0.1-0.1,0.1-0.3,0.1-0.4
	c-0.1,0-0.3,0-0.4,0.1c-0.2,0.1-0.4,0.3-0.6,0.4l0,0c0.3-0.3,0.6-0.6,0.8-0.9c0.1-0.1,0-0.2,0.1-0.3c0,0-0.1,0-0.1-0.1
	c0.2-0.1,0.3-0.2,0.5-0.3l0,0c-0.2,0.1-0.5,0.2-0.7,0.3v-0.1c0.2-0.1,0.3-0.2,0.5-0.3l0,0c-0.2,0-0.4,0.1-0.6,0.1c0,0,0,0,0-0.1
	c0.2-0.1,0.4-0.2,0.6-0.3l0,0c-0.1,0-0.2,0-0.3,0c0,0,0,0,0-0.1c0.2-0.1,0.3-0.2,0.5-0.3v-0.1c-0.2,0-0.3,0.1-0.5,0.1
	c-0.1,0-0.3,0.1-0.4,0.1c-0.6-0.1-1,0.3-1.4,0.7c-0.8,0.9-1,2-1.4,3.1c-0.1,0.2-0.2,0.5-0.3,0.7c-0.1,0.1-0.3,0.2-0.4,0.4
	c-0.1,0.2-0.1,0.3,0,0.5c0.2,0.3,0.3,0.6,0.5,1c0,0.1,0,0.2,0,0.3c-0.1-0.1-0.1-0.3-0.2-0.4c-0.2-0.3-0.4-0.5-0.6-0.9
	c0,0.3,0,0.5,0,0.7h-0.1c0-0.2-0.1-0.3-0.1-0.5c0-0.1-0.1-0.2-0.2-0.3c-0.1,0.1-0.2,0.2-0.2,0.3c-0.3,1.1-0.6,2.3-1,3.3
	c-0.2,0.7-0.1,1.3-0.1,1.9c0,0.2,0,0.3-0.1,0.5c-0.1,0.6-0.3,1.2-0.5,1.8l-0.1-0.1c-0.1,0-0.1,0.1-0.2,0.1c-0.1,0.1-0.1,0.2-0.1,0.3
	c-0.1,0.2-0.2,0.4-0.5,0.5s-0.4,0.4-0.4,0.7c0,0.1,0,0.2,0,0.2s0,0-0.1,0c0-0.1,0-0.2,0-0.3c-0.1,0.2-0.2,0.3-0.3,0.5c0,0,0,0-0.1,0
	c0-0.1,0.1-0.3,0.1-0.4c-0.2,0.1-0.3,0.1-0.5,0.1c0-0.2,0-0.3,0-0.6c-0.1,0.1-0.2,0.2-0.4,0.3c-0.1-0.2-0.1-0.4-0.2-0.6
	c0,0-0.1,0-0.2,0.1c0,0,0,0,0-0.1c0.1-0.1,0.2-0.1,0.3-0.2c0.3-0.1,0.6-0.3,0.9-0.4c0.1,0,0.1-0.1,0.2-0.2c0-0.1,0.1-0.1,0.1-0.1
	c0.5-0.3,0.8-0.7,0.9-1.3c0.2-0.6,0.1-1.1,0.2-1.7c0-0.2,0.1-0.4,0.2-0.7c-0.3,0.1-0.5,0.1-0.7,0.2l0,0c0.2-0.2,0.4-0.4,0.7-0.6
	c-0.1,0-0.1,0-0.2-0.1c0.4-0.7,0.6-1.4,0.8-2.1c0,0,0,0-0.1,0c0.1-0.1,0.2-0.2,0.3-0.3c-0.1,0-0.2,0-0.4-0.1
	c0.1-0.1,0.2-0.1,0.3-0.2c-0.1-0.4,0.3-0.6,0.3-0.9c-0.1,0-0.3,0-0.4,0c0,0,0,0,0-0.1c0.1-0.1,0.2-0.1,0.3-0.2l0,0
	c-0.2,0-0.4,0-0.6,0.1v-0.1c0.2-0.1,0.4-0.2,0.6-0.2c0,0,0,0,0-0.1c-0.3,0-0.5,0-0.8-0.1c0.3-0.2,0.8,0.1,0.9-0.4
	c-0.2-0.1-0.3-0.2-0.5-0.3v-0.1c0.2,0.1,0.4,0.1,0.5,0.2c0.1-0.1,0.1-0.2,0.2-0.3c-0.1-0.3-0.3-0.3-0.6-0.2
	c-0.2,0.1-0.4,0.2-0.6,0.3c0,0,0,0-0.1-0.1c0.2-0.1,0.3-0.3,0.5-0.4c0,0,0,0,0-0.1c-0.1,0-0.2,0-0.3,0.1v-0.1
	c0.3-0.1,0.6-0.2,0.9-0.3c0.2-0.1,0.4-0.1,0.4-0.4c0-0.2,0.2-0.5,0.3-0.7c0.1-0.2,0-0.3-0.2-0.3c-0.5,0-1,0-1.5,0.3
	c-0.5,0.2-1,0.3-1.5,0.4c-0.6,0.2-1.2,0.4-1.8,0.6l0,0c-0.6,0.1-1,0.3-1,1c0,0-0.1,0-0.1-0.1s0-0.2,0-0.3c0-0.1-0.1-0.2-0.1-0.2
	c-0.1,0-0.2,0.1-0.2,0.1c-0.1,0.2-0.1,0.4-0.2,0.6c0,0,0,0.1-0.1,0.1c0-0.1,0-0.2,0-0.4c-0.2,0.3-0.4,0.5-0.5,0.8c0,0,0,0-0.1,0
	c0-0.1,0-0.1,0-0.2c-0.1,0.1-0.1,0.1-0.2,0.1c-0.2,0.1-0.3,0.4-0.7,0.3c-0.1,0-0.2,0.1-0.3,0.1c-0.4,0.3-0.8,0.6-1.2,0.9
	c-0.2,0.1-0.3,0.3-0.4,0.5c0-0.1,0.1-0.2,0.1-0.4l0,0c-0.4,0.4-0.7,0.8-1.1,1.2c0-0.1,0-0.2,0-0.3c-0.1,0.1-0.1,0.1-0.3,0.2
	c0.1-0.2,0.1-0.3,0.2-0.5c0,0,0,0-0.1,0c-0.3,0.4-0.6,0.9-0.8,1.3h-0.1c0.1-0.2,0.2-0.5,0.4-0.7c0,0,0,0-0.1,0
	c-0.1,0.1-0.2,0.2-0.3,0.3c0-0.2,0.1-0.4,0.1-0.5c-0.4,0.3-0.8,0.6-1,1.1c0,0-0.1,0.1-0.2,0.1c0.1-0.2,0.2-0.5,0.4-0.8
	c-0.4-0.1-0.4,0.3-0.7,0.4c0,0,0-0.1-0.1-0.2c-0.4,0.5-0.6,1.1-1.2,1.5c0.3-0.5,0.6-0.9,0.9-1.4c0,0-0.1,0-0.1-0.1
	c-0.1,0.2-0.3,0.3-0.4,0.5l0,0c0-0.1,0.1-0.2,0.1-0.3c0,0,0,0-0.1-0.1c-0.2,0.2-0.4,0.3-0.6,0.5l0,0c0.1-0.1,0.1-0.2,0.2-0.3
	c0,0,0,0-0.1-0.1c-0.2,0.2-0.4,0.4-0.6,0.5l0,0c0.1-0.1,0.1-0.2,0.2-0.3c-0.2-0.2-0.3-0.1-0.4,0l0,0c-0.6,0.1-0.6,0.7-0.8,1
	c-0.1,0.2-0.2,0.4-0.4,0.5c0.1-0.4,0.3-0.8,0.4-1.1c0,0-0.1,0-0.1-0.1c-0.3,0.3-0.5,0.7-0.8,1c0,0,0,0-0.1,0
	c0.3-0.5,0.5-0.9,0.8-1.4c0,0,0-0.1-0.1-0.1c-0.1,0.1-0.2,0.1-0.3,0.2c-0.6,0.7-1.2,1.5-1.7,2.3c-0.3,0.5-0.6,1-0.8,1.5
	c-0.1,0.2-0.1,0.5-0.1,0.7h-0.1c0-0.2-0.1-0.4-0.1-0.5h-0.1c-0.4,0.8-0.8,1.6-1.2,2.4c0-0.1,0-0.2-0.1-0.4c-0.3,0.6-0.3,1.2-1,1.5
	c0-0.1,0-0.2,0-0.3c0-0.1,0-0.2,0-0.2s-0.1,0-0.2,0s-0.2,0.1-0.4,0.1c0.1-0.3,0.1-0.5,0.3-0.7c0.4-0.6,0.7-1.3,1.1-1.9
	c0.1-0.2,0.3-0.4,0.4-0.6c0.2-0.4,0.4-0.8,0.6-1.1c0.5-0.7,1-1.4,1.5-2.1c0.4-0.5,0.7-1.1,1-1.6c0.2-0.3,0.4-0.4,0.7-0.5
	c0.3-0.1,0.6-0.1,0.9-0.1c1.6,0,3.2-0.5,4.6-1.1c0.6-0.3,1.1-0.5,1.7-0.7c0.1-0.1,0.2-0.1,0.4-0.2c-0.1,0-0.2-0.1-0.2-0.1
	c-0.8,0.2-1.6,0.3-2.3,0.5c-1.1,0.3-2.1,0.6-3.2,0.9c-0.9,0.2-1.8,0.5-2.7,0.7c-0.6,0.1-1.2,0.2-1.9,0.4c-0.3,0.1-0.7,0.2-1,0.2
	c-0.8,0.1-1.5,0.2-2.3,0.4c-1.8,0.3-3.5,0.3-5.3,0.1c-1.1-0.1-2.1-0.3-3.2-0.6c-0.6-0.2-1.3-0.5-1.8-0.9c-0.7-0.5-0.9-1.8-0.4-2.5
	c0.4-0.6,0.8-1.2,1.2-1.7c0.3-0.4,0.8-0.7,1.1-1c0.3-0.3,0.6-0.6,0.9-0.8c0.8-0.6,1.5-1.2,2.3-1.7c0.4-0.3,1-0.5,1.4-0.8
	c0.6-0.5,1.2-0.8,1.9-1.2c0.9-0.5,1.8-0.9,2.7-1.3c0.1-0.1,0.3-0.2,0.4-0.2v-0.1c-0.7,0-1.3,0-2,0V45c1.1-0.1,2.2,0.2,3.1-0.5v-0.1
	c-0.8,0-1.5,0-2.3,0v-0.1c0.9,0,1.8,0,2.7-0.2V44c-0.9-0.1-1.7-0.2-2.6-0.2v-0.1c1-0.1,2,0.3,3,0v-0.1c-0.9-0.1-1.8-0.2-2.7-0.3
	v-0.1c0.1,0,0.3,0,0.4,0c0.2,0,0.3,0,0.5,0c0.5,0,1,0,1.6,0c0.1,0,0.3-0.1,0.4-0.2v-0.1c-1-0.1-2-0.2-2.9-0.3v-0.1
	c0.5,0,1,0.1,1.4,0.1c0.5,0,1,0,1.5,0c-0.1-0.3-0.3-0.4-0.6-0.4c-0.8-0.1-1.7-0.2-2.5-0.3c-0.1,0-0.2,0-0.3-0.1
	c0.7,0.1,1.3,0.1,2,0.2l0,0c-0.3-0.1-0.6-0.2-0.8-0.3l0,0c0.7,0,1.4,0,2.1,0c-0.1-0.1-0.2-0.1-0.2-0.2c0,0,0,0,0.1-0.1
	c-0.3,0-0.6,0-0.8-0.1l0,0c0.3,0,0.6-0.1,1-0.1c-0.9-0.5-1.9-0.3-2.8-0.5v-0.1c0.4,0,0.9,0,1.3,0c0,0,0,0,0-0.1
	c-0.5-0.1-0.9-0.3-1.4-0.4c1,0,1.8,0.7,2.8,0.6v-0.1c-0.2,0-0.5,0-0.8-0.1c0.3-0.2,0.8,0.1,1-0.4c-0.1,0-0.2-0.1-0.3-0.1
	c0-0.1,0-0.2,0.1-0.3c-0.7-0.2-1.4-0.4-2.1-0.5v-0.1c0.1,0,0.2,0,0.3,0c0.5,0.1,0.9,0.2,1.4,0.3c0.2,0,0.4,0,0.5-0.3
	c-0.3-0.2-0.6-0.4-0.9-0.6c-0.4-0.3-0.8-0.6-1.2-0.8c-0.1-0.1-0.2-0.1-0.3-0.1c-0.3,0-0.5,0-0.8,0c0,0,0,0,0-0.1
	c0.2,0,0.4-0.1,0.6-0.1c-0.4-0.2-0.7-0.5-1-0.7c-0.6-0.4-1.3-0.7-1.9-1.1c-0.4-0.2-0.8-0.5-1.2-0.7c-0.7-0.3-1.3-0.7-1.8-1.2
	c-0.4-0.3-0.8-0.5-1.1-0.9c-0.4-0.4-0.7-0.8-1.1-1.1c-0.1-0.1-0.2-0.3-0.2-0.4c-0.1-0.2-0.2-0.4-0.4-0.4c-0.3,0-0.5-0.2-0.7-0.4
	c-0.6-0.7-1-1.5-1.3-2.3c-0.2-0.5-0.1-0.9,0.3-1.3c0.6-0.6,1.4-0.7,2.2-0.9c1.3-0.3,2.7-0.3,4.1-0.3c0.6,0,1.1,0.1,1.7,0.1
	c0.8,0.1,1.7,0.2,2.5,0.3s1.7,0.4,2.5,0.5c0.4,0.1,0.7,0.1,1.1,0.2c0,0,0,0,0-0.1c-0.1-0.2-0.3-0.4-0.4-0.6c-0.5-0.6-1-1.2-1.5-1.7
	c-0.1-0.2-0.2-0.4-0.3-0.6c0-0.1-0.1-0.1-0.1-0.2c-0.4-0.6-0.8-1.2-1.3-1.7c-0.3-0.4-0.5-0.8-0.8-1.2c-0.1-0.2-0.2-0.4-0.3-0.6
	c0.3,0,0.5-0.2,0.5-0.4c0.6,0.3,0.7,0.9,1,1.4c0-0.1,0-0.2,0-0.3c0.5,0.8,0.9,1.7,1.4,2.5c0,0,0,0,0.1,0c0-0.2,0-0.4,0-0.6h0.1
	c0,0.1,0.1,0.2,0.1,0.4c0,0.4,0.3,0.7,0.5,1c0.5,0.7,1,1.3,1.5,2c0.3,0.4,0.6,0.7,0.9,1c0.1,0.1,0.2,0.1,0.2,0.1s0,0,0.1-0.1
	c-0.3-0.4-0.6-0.9-0.9-1.3c0,0,0,0,0.1,0c0.3,0.4,0.6,0.7,0.9,1.1c0,0,0,0,0.1,0c-0.2-0.4-0.4-0.8-0.5-1.2c0,0,0,0,0.1,0
	c0.1,0.1,0.1,0.1,0.2,0.2c0.1,0.2,0.2,0.4,0.3,0.6c0.2,0.4,0.5,0.7,0.9,0.9c0.1,0,0.2,0,0.4,0c-0.1-0.1-0.2-0.2-0.3-0.3
	c0,0,0,0,0-0.1c0.2,0.2,0.4,0.3,0.6,0.5l0,0c0-0.1-0.1-0.2-0.1-0.3c0,0,0,0,0-0.1c0.2,0.2,0.4,0.4,0.6,0.5c0,0,0,0,0.1,0
	c-0.1-0.1-0.1-0.3-0.2-0.4l0,0c0.1,0.1,0.3,0.3,0.4,0.5c-0.1-0.5-0.6-1.2-1-1.3H34c-0.2,0.2-0.2,0.3,0,0.4c0.2,0.2,0.4,0.5,0.5,0.7
	s0.3,0.2,0.4,0.2c0.2,0,0.4,0.2,0.6,0.3c-0.2-0.3-0.3-0.5-0.5-0.8l0,0c0.4,0.4,0.7,0.7,1.1,1.1c0,0,0,0,0.1-0.1
	c0-0.1-0.1-0.3-0.1-0.4c0,0,0,0,0.1,0c0.1,0.1,0.1,0.2,0.2,0.3c0.1-0.3-0.3-0.4-0.2-0.8c0.3,0.4,0.6,0.7,0.8,1.1c0-0.1,0-0.2,0-0.3
	c0.1,0,0.1,0.1,0.2,0.1c-0.1-0.1-0.1-0.2-0.1-0.3l0,0c0.4,0.4,0.8,0.8,1.2,1.2c-0.1-0.2-0.1-0.3-0.2-0.5c0.5,0.6,1.1,0.9,1.7,1.3
	c0.1,0.1,0.3,0.1,0.5,0.1c0.2,0.1,0.4,0.2,0.6,0.3c0.1,0,0.1,0.1,0.3,0.2c-0.1-0.2-0.1-0.2-0.2-0.4c0.7,0.7,1.6,0.8,2.4,1
	c0.6,0.2,1.1,0.4,1.7,0.6c0.8,0.3,1.6,0.6,2.5,0.8c0.2,0.1,0.4,0.1,0.6,0.2c0.1,0,0.2,0,0.3,0c-0.1-0.2-0.2-0.4-0.3-0.6h0.1
	c-0.1-0.2-0.1-0.4-0.2-0.5s-0.2-0.2-0.4-0.2c-0.3-0.1-0.6-0.2-0.9-0.3V31c0.1,0,0.3,0.1,0.5,0.1c-0.3-0.2-0.5-0.3-0.7-0.5v-0.1
	c0.3,0.2,0.7,0.3,1.1,0.5c0.1-0.2,0.2-0.3,0.2-0.5c-0.1-0.1-0.2-0.2-0.3-0.2c-0.1,0-0.3,0.1-0.5,0.2v-0.1c0.1-0.1,0.3-0.2,0.5-0.4
	c-0.4-0.1-0.7-0.1-1-0.2c0,0,0,0,0-0.1c0.2,0,0.5-0.1,0.7-0.1c0,0,0,0,0-0.1c-0.2-0.1-0.4-0.2-0.6-0.3c0,0,0,0,0-0.1
	c0.2,0,0.3,0,0.5,0c0,0,0,0,0-0.1c-0.1,0-0.1-0.1-0.2-0.2c0.1,0,0.2,0,0.3-0.1c-0.1-0.2-0.2-0.3-0.4-0.5c0,0,0.1,0,0.1-0.1
	c-0.1-0.2-0.2-0.3-0.4-0.5l0.1-0.1c-0.1-0.2-0.3-0.4-0.3-0.6c0-0.3-0.2-0.6-0.3-0.8c-0.1-0.3-0.3-0.6-0.5-0.9c0,0,0.1,0,0.2-0.1
	c-0.3-0.2-0.5-0.4-0.8-0.7c0.3,0.1,0.5,0.1,0.7,0.1c0-0.1,0-0.2,0-0.3c-0.2-0.5-0.2-1.1-0.3-1.6c-0.1-0.4-0.2-0.9-0.5-1.2
	c-0.2-0.2-0.5-0.4-0.7-0.6c-0.3-0.4-0.8-0.5-1.3-0.7c-0.1,0-0.1-0.1-0.2-0.1c0,0,0,0-0.1-0.1c0.1,0,0.3,0,0.4,0
	c-0.3-0.3-0.1-0.4,0-0.7c0.1,0.1,0.2,0.1,0.3,0.2c0-0.2,0.1-0.3,0.1-0.5c0.1,0,0.3,0.1,0.5,0.2c-0.1-0.1-0.1-0.3-0.2-0.4
	c0,0,0,0,0.1,0c0.1,0.2,0.2,0.3,0.3,0.5c0-0.1,0-0.2,0-0.3h0.1c0,0.2,0,0.4,0,0.7c0-0.1,0.1-0.2,0.1-0.2c0.2,0.2,0.3,0.4,0.5,0.6
	c0.1-0.1,0.1-0.2,0.2-0.2c0,0,0,0,0.1,0.1c0.1,0.2,0.2,0.4,0.3,0.6c0.1,0.1,0.2,0.1,0.3,0.2c0.1,0,0.1,0.1,0.1,0.1
	c0.5,1,0.8,2.1,0.7,3.3c0,0.1,0,0.3,0.1,0.4c0.4,1.2,0.9,2.4,1.3,3.7c0,0.1,0.2,0.2,0.2,0.3c0.1-0.1,0.1-0.2,0.2-0.3
	c0.1-0.2,0.1-0.4,0.1-0.5h0.1c0,0.2,0,0.5,0,0.7h0.1c0-0.1,0.1-0.3,0.1-0.4c0,0,0.1,0,0.1,0.1c0.1-0.3,0.3-0.6,0.4-0.9
	c0,0,0,0,0.1,0c0,0.1,0,0.2,0,0.2c-0.1,0.3-0.2,0.6-0.4,0.9c-0.1,0.3-0.1,0.5,0,0.7c0.1,0.1,0.1,0.2,0.1,0.3s0,0.1,0,0.2
	c0.2,0.8,0.5,1.6,0.7,2.3c0.1,0.4,0.2,0.8,0.7,0.9c0.1-0.2-0.8-2.3-1.4-3.5c0.1,0,0.2,0.1,0.2,0.1c0.3,0.7,0.7,1.4,1,2.1
	c0.3,0.8,0.8,1.4,1.5,1.9c0.2,0.2,0.5,0.3,0.8,0.2c0.2,0,0.3,0.1,0.5,0.1s0.4,0.1,0.6,0.1v-0.1c-0.1-0.1-0.2-0.1-0.4-0.2
	c0-0.4-0.4-0.3-0.6-0.5c0.2,0,0.3,0,0.5,0c0,0,0,0,0-0.1c-0.1-0.1-0.3-0.1-0.4-0.2c0,0,0,0,0-0.1c0.2,0.1,0.4,0.1,0.5,0.2
	c0,0,0,0,0-0.1c-0.2-0.1-0.4-0.3-0.5-0.4c0,0,0,0,0-0.1c0.2,0.1,0.3,0.2,0.6,0.3c-0.5-0.8-1.3-1.2-1.8-1.8c0,0,0,0,0.1-0.1
	c0.5,0.4,0.9,0.7,1.4,1.1c0.2-0.4,0.1-0.4-0.2-0.7c-0.7-0.6-1.5-0.7-2.3-0.7c-0.1,0-0.2,0-0.3-0.1c0.5,0,1,0,1.4,0l0,0
	c-0.4-0.1-0.7-0.2-1.1-0.3c1.3-0.1,2.5,0.3,3.5,1.3c0-0.4-0.1-0.5-1.8-1.6c0.5,0.1,1.3,0.7,1.8,1.2c0.5,0.6,0.8,1.2,1.1,1.9
	c0-0.2,0-0.3,0-0.5c0,0,0.1,0,0.2-0.1c-0.2-0.9-0.9-1.3-1.5-1.8c0,0,0,0,0.1-0.1c0.2,0.1,0.4,0.3,0.6,0.5c0-0.1,0.1-0.1,0.1-0.2
	c0.7,0.7,1.3,1.3,1.6,2.2c0,0,0,0,0-0.1c0,0,0-0.1,0.1-0.1c0,0.1,0,0.1,0,0.3c0-0.1,0.1-0.2,0.1-0.3c0.1,0.2,0.1,0.4,0.2,0.7
	c0.3-0.4,0.4-0.8,0.3-1.2s-0.5-0.8-0.7-1.2c0.1,0.2,0.3,0.3,0.4,0.5c0.2,0.2,0.3,0.3,0.5,0.5c0.1,0.1,0.1,0.3,0.3,0.5
	c0.1-0.2,0.2-0.5,0.3-0.8c0.4,0.3,0.7,0.5,1,0.8s0.5,0.6,0.7,0.8l0.1,0.1l0.1-0.1c0.1-0.1,0.1-0.2,0.1-0.4h0.1c0,0.2,0,0.4,0,0.6
	h0.1c0-0.4,0-0.7,0-1.1H60c0,0.2,0,0.4,0,0.6c0.1-0.2,0.2-0.3,0.3-0.5c0,0,0,0,0.1,0c-0.1,0.3-0.2,0.6-0.2,0.9h0.1
	c0.1-0.4,0.3-0.8,0.4-1.2c0,0,0,0,0.1,0c0,0.1,0,0.3,0,0.5l0,0c0.1-0.2,0.1-0.3,0.2-0.5c0.4,0.1,0.4-0.4,0.6-0.6c0,0.1,0,0.2,0,0.4
	c0.6,0.1,0.8-0.4,1.1-0.7c0.2-0.2,0.5-0.5,0.7-0.7s0.4-0.5,0.6-0.8c0,0,0.1,0.1,0.1,0.2c0.2-0.6,0.3-1.1,0.5-1.6
	c0.2,0.1,0.3-0.1,0.3-0.2c0-0.3,0.1-0.5,0.1-0.8c0-0.1,0-0.3,0.2-0.3c0,0,0.1-0.1,0.1-0.2c0-0.2,0-0.4,0-0.6c0-0.1,0.1-0.2,0.1-0.3
	c-0.1-0.4,0.2-1-0.3-1.3c0.1-0.1,0.2-0.1,0.3-0.2c0.2,0.1,0.4,0.2,0.6,0.3c0-0.2,0-0.3,0-0.6c0.1,0.4,0.1,0.4,0.7,0.4
	c-0.1,0.1-0.1,0.2-0.1,0.3l0,0c0.1-0.1,0.2-0.2,0.3-0.3c0,0,0,0,0.1,0c-0.2,0.2-0.4,0.4-0.6,0.7c0.1,0,0.2-0.1,0.3-0.1
	c-0.2,0.3-0.3,0.6-0.5,0.9c0.2,0,0.3,0.1,0.2,0.3c-0.1,0.1-0.1,0.3-0.2,0.4c-0.1,0.2-0.2,0.4-0.2,0.6c0,0.2-0.2,0.5-0.3,0.7
	c0,0,0,0,0,0.1c-0.3,0.7-0.6,1.4-0.9,2.1c-0.1,0.2-0.3,0.4-0.4,0.6c-0.4,0.4-0.7,0.7-1.1,1c0.3,0.1,0.4,0.3,0.3,0.6
	c-0.1,0.2,0,0.3,0.2,0.2c-0.2,0.5-0.6,0.6-0.9,0.9c-0.3,0.3-0.7,0.5-1,0.7s-0.5,0.5-0.5,0.9c0.1-0.1,0.2-0.1,0.3-0.2
	c0,0.2,0.1,0.4,0.1,0.7c0.1,0,0.2-0.1,0.3-0.1c0,0,0-0.1,0-0.2c0.1,0,0.1,0,0.1,0c0.1-0.2,0.1-0.4,0.2-0.6c0.1,0.1,0.2,0.2,0.3,0.4
	V35c0.2-0.1,0.4-0.1,0.5-0.2c0.4-0.2,0.9-0.2,1.3,0c0.7,0.3,1.1,0.9,1.5,1.6c0.4,0.7,0.6,1.4,0.7,2.1c0.1,0.4,0.1,0.4,0.5,0.4
	c0.3,0,0.7,0,1,0c0.2,0,0.3,0.1,0.5,0.2c-0.5,0-0.9,0-1.4,0c0,0.1,0.1,0.2,0.1,0.2c-0.1,0.1-0.3,0.1-0.4,0.2c0,0,0,0,0,0.1
	c0.1,0,0.1,0,0.2,0c0.3-0.1,0.5,0.1,0.6,0.4c0.2,0.3,0.5,0.5,0.7,0.7s0.5,0.1,0.7,0c0.4-0.3,0.8-0.5,1.1-0.8
	c0.1-0.1,0.2-0.2,0.2-0.4c0.1-0.2,0.2-0.4,0.3-0.6c-0.3,0.5-0.2,1.1-0.8,1.5c-0.3,0.2-0.6,0.4-0.9,0.6c-0.1,0.1-0.1,0.2-0.2,0.3
	c0.1,0.1,0.2,0.2,0.3,0.2c0.3-0.1,0.6-0.2,0.9-0.3c-0.1,0.1-0.2,0.2-0.4,0.3c-0.3,0.1-0.4,0.2-0.5,0.5c-0.3,0-0.6,0.1-0.7,0.4
	c0,0.1,0,0.2,0,0.2c0.1,0,0.2,0,0.2-0.1c0.1-0.1,0.2-0.2,0.3-0.3c0,0,0,0,0.1,0.1c-0.1,0.2-0.3,0.4-0.4,0.6c0.1,0.3,0.4,0.5,0.7,0.5
	c0.2,0,0.4-0.2,0.5-0.3s0.2-0.2,0.3-0.3l0.1,0.1c-0.2,0.2-0.3,0.5-0.5,0.7c0.4,0.3,0.8,0.5,1.2,0.8c0,0,0,0,0,0.1
	c-0.1,0-0.2,0-0.3,0c0.2,0.2,0.3,0.3,0.4,0.5c0,0,0,0,0,0.1C71.7,44.9,71.6,44.8,71.5,44.8z"/>
</svg>
