<?xml-stylesheet type="text/css" href="/CMS_Themes/Default/Css/pest-icons.css" ?>
<svg version="1.1" id="Layer_1" xmlns="http://www.w3.org/2000/svg" viewBox="0 0 82.3 82.3" width="100%" height="100%">
<g>
	<path fill="#102e52" class="pest-search__item-icon" d="M28.7,34.2c-1.8-2.5-3.4-4.8-4.9-7c0.2-0.2,0.4-0.3,0.6-0.5c1.6,2,3.2,4,4.7,5.8c0.3-1,0.3-2.3,0.9-3
		c0.6-0.7,1.9-0.7,3.3-1.1c-1.9-1.5-3.8-3-5.9-4.7c1.6-0.2,5.2,2.2,7.4,4.8c0.3-9.5,0.6-19,0.9-28.4C17.8,2.8,3.5,16.7,0.6,34.4
		C9.9,34.4,19.3,34.3,28.7,34.2z"/>
	<path fill="#102e52" class="pest-search__item-icon" d="M41.2,0c-1.6,0-3.2,0.1-4.8,0.3c-0.1,5.8-0.2,11.7-0.4,17.5c-0.1,2.9-0.3,5.8-0.4,8.8c0,1.7,0.5,3.1,2.3,4
		c2.3,1.1,3.1,3.1,2.6,5.7c-0.1,0.3,0.2,0.7,0.4,1c0.3-0.2,0.9-0.4,1-0.7c0.7-1.7,1.3-3.4,1.8-5.1c0.2-0.5,0.1-1.1-0.1-1.6
		c-0.2-0.5-0.6-1-1-1.5c-2-2.2-2.9-4.6-2.2-7.6c0.2-0.8-0.1-1.7-0.1-2.6c0.2,0,0.4,0,0.5,0c0.1,1.7,0.1,3.3,0.3,5
		c0.1,0.8,0.3,1.7,0.7,2.4c0.5,0.9,1.1,1.8,1.7,2.6c2.6,3.1,1.7,6.1,0,9.1c-0.3,0.5-0.6,1.1-1,1.8c1.6,0.3,2.7,0.1,3.7-1
		c1-1.1,2.1-2.2,3.3-3.1c0.4-0.3,1.1-0.4,1.6-0.2c0.9,0.3,1.7,0.8,2.5,1.3c2.4,1.3,4.8,2.5,7.2,3.8c-3.8,0.1-6.7-2.2-9.7-4
		c-1.1,1.6-2.1,3-3,4.5c-0.2,0.3-0.1,1.2,0.1,1.3c0.7,0.4,1.9,1.1,2.2,0.8c3.1-2.6,5.7-0.8,8.2,1c1.4,1,2.4,2.4,3.5,3.7
		c2.4,2.9,4.3,6.3,7.9,8c0.9,0.4,1.7,0.9,2.5,1.4c-0.1,0.2-0.3,0.5-0.4,0.7c-1.7-0.9-3.5-1.6-4.9-2.9c-1.9-1.7-3.7-3.7-5.3-5.8
		c-1.1-1.4-2.1-2.1-3.8-1.6c-0.5,0.2-1.2,0.1-2.2,0.1c1.4,1.1,2.5,2.1,3.7,2.9c4.7,3.2,7.1,7.5,6.6,13.2c-0.2,2.5-1,3.1-3.6,3.3
		c-5.3,0.3-9.2-2.2-12.4-6.1c-1-1.2-2-2.5-3-3.8c-1.2,3.1,0.3,4.8,2.7,6.3c3.3,2.1,5.1,5.4,6.4,9c0.1,0.2,0,0.5,0,1.2
		c-0.5-0.6-0.8-0.9-0.9-1.3c-1.4-4.7-5.3-7.3-8.8-10.2c-2.1-1.7-3.7-3.4-5-5.7c-1.2-2-0.8-3.7,0.4-5.3c0.7-0.9,0.7-1.6,0-2.5
		c-0.8-0.9-1.5-0.5-2.3-0.1c-0.8,0.4-1.5,0.8-2.3,1.2c-2.1,1-2.2,1.1-0.8,3.1c1.9,2.7,3,5.6,2.8,8.9c-0.3-1.2-0.5-2.5-1-3.7
		c-0.9-1.9-2-3.8-3.1-5.7c-0.8-1.3-0.9-2.5,0.5-3.5c0.7-0.5,1.2-1.3,1.9-1.8c1.4-1,2-2.3,1.8-4.3c-0.5,0.1-1,0.2-1.4,0.4
		c-1,0.4-1.9,1-2.9,1.3c-2.1,0.8-4.2,0.9-6.1-0.7c-0.3-0.2-0.6-0.4-0.9-0.6c-2-1.7-4.1-3-7-2.5c-0.6,0.1-1.3-0.2-2-0.4
		c3.7-0.9,7.1-0.6,9.9,2.3c0.9,1,1.8,1,3,0.5c1.5-0.6,3.2-0.8,4.7-1.3c0.3-0.1,0.5-0.6,0.8-0.9c-0.4-0.1-0.7-0.3-1-0.2
		c-2.3,0.6-4.8-0.5-5.6-2.8c-0.7-1.9-1.8-2.4-3.7-2.4c-6.8,0.1-13.7,0-20.5,0c-2.1,0-4.2-0.1-6.3-0.1c-0.3,2-0.4,4-0.4,6.1
		c0,22.7,18.4,41.2,41.2,41.2s41.2-18.4,41.2-41.2S63.9,0,41.2,0z"/>
</g>
</svg>
