<?xml-stylesheet type="text/css" href="/CMS_Themes/Default/Css/pest-icons.css" ?>
<svg version="1.1" id="Layer_1" xmlns="http://www.w3.org/2000/svg" viewBox="0 0 82.3 82.3" width="100%" height="100%">
<g>
	<path fill="#102e52" class="pest-search__item-icon" d="M37.9,22.9c-0.4-0.2-0.6-0.3-0.9-0.3c-1.1-0.1-2.9-0.5-3.2-0.1c-0.8,1.2-1,2.8-0.1,4.2
		c0.6,1.1,1.1,2.3,1.7,3.4c0.8-0.2,1.5-0.4,2.2-0.6c-1.6-0.3-2.6-1.5-2.7-3.3C34.8,24.8,36,23.4,37.9,22.9z"/>
	<path fill="#102e52" class="pest-search__item-icon" d="M41.2,0C18.4,0,0,18.4,0,41.2c0,22.7,18.4,41.2,41.2,41.2s41.2-18.4,41.2-41.2C82.3,18.4,63.9,0,41.2,0z
		 M67.7,43.3c-2.7-0.9-5.4-1.8-8.1-2.6c0,0,0.1-0.1,0.1-0.1c0,0-0.1,0.1-0.1,0.1c-1.6-0.2-3.1-0.7-4.4-1.9c-0.9-0.8-1.8-1.5-2.7-2.2
		l-0.2,0.2l-1.8-0.9c-1.1,0.4-2.2,0.7-3.3,1.1c4.2,5.3,8.4,10.4,12.5,15.6c0,0-0.1,0.1-0.1,0.1l0.7,0.9l1,2.2v1.6l-0.3,1.4l-0.5,1.4
		l-0.1,0c-0.1,0.3-0.4,0.5-1.1,0.6c-2.5,0.4-4.3-1.1-6.2-2.3c-1.6-1-3-2.2-4.7-3.5c-0.7,2.7-2.7,4.7-1.7,7.7c0.9,2.6,1.3,5.4,2,8
		c0.2,0.7,0.5,1.3,0.9,2c-0.4,0.2-0.9,0.4-1.2,0.5c-0.3-1.6-0.6-3.3-1-4.9c-0.4-1.8-0.9-3.6-1.4-5.4c-0.8-2.6,0-4.8,1.3-7
		c0.7-1.2,0.5-2.1-0.5-3c-0.7-0.6-1.3-1.3-1.9-2c-0.6,1.8-1.3,3.5-1.8,5.2c-0.3,1-1,1.5-2,1.5c-0.1,0-0.2,0-0.3,0
		c-0.1,0-0.2,0-0.3,0c-1,0-1.7-0.4-2-1.5c-0.5-1.7-1.1-3.3-1.8-5.2c-0.7,0.7-1.3,1.4-1.9,2c-1,0.9-1.2,1.8-0.5,3
		c1.3,2.1,2.1,4.4,1.3,7c-0.5,1.8-1,3.6-1.4,5.4c-0.4,1.6-0.7,3.3-1,4.9c-0.3-0.1-0.8-0.4-1.2-0.5c0.3-0.7,0.7-1.3,0.9-2
		c0.7-2.7,1.1-5.4,2-8c1-3-1-5-1.7-7.7c-1.7,1.3-3.1,2.5-4.7,3.5c-1.9,1.2-3.7,2.7-6.2,2.3c-0.7-0.1-1-0.3-1.1-0.6l-0.1,0l-0.5-1.4
		L20,57.2v-1.6l1-2.2l0.7-0.9c0,0-0.1-0.1-0.1-0.1c4.1-5.2,8.2-10.3,12.5-15.6c-1.1-0.4-2.2-0.7-3.3-1.1l-1.8,0.9l-0.2-0.2
		c-0.9,0.7-1.9,1.4-2.7,2.2c-1.2,1.2-2.7,1.7-4.4,1.9c0,0-0.1-0.1-0.1-0.1c0,0,0.1,0.1,0.1,0.1c-2.7,0.9-5.3,1.7-8.1,2.6
		c0-0.5,0-1-0.1-1.4c0.4,0.1,0.9,0.3,1.2,0.3c1.1-0.2,2.1-0.5,3.2-0.7c1.2-0.3,2.4-0.6,3.6-0.9c1.6-0.7,3-1.6,4.2-2.8
		c0.7-0.7,1.6-1.1,2.5-1.6l0,0l2.1-1.1c0.2-0.1,0.4-0.3,0.6-0.3l0.5-0.3l0.3,0.2c1.1,0,2.2,0.7,3.3,0.9c-0.2-0.9-0.4-1.8-0.6-2.8
		c0,0,0.3-0.3,0.4-0.3c-0.6-1-1.4-1.9-1.6-2.9c-0.4-1.9-0.6-3.9-0.6-5.9c0-1.2,0-1.9-1.2-1.8c0.4-0.3,1.2-0.5,1.4-1
		c0.7-2,0.4-3.9-1.3-5.4c-1.2-1-2.4-2-3.8-3.1c0.1-0.2,0.3-0.5,0.5-0.9c0.3,0.5,0.5,1,0.8,1.2c1,0.9,2,1.6,3,2.5
		c1.5,1.3,2.2,2.9,1.6,5c-0.1,0.4,0,1,0,1.2c1.7,0.4,3.3,1,4.9,1.2c0.7,0.1,1.4,0.1,2.1,0v-0.1c0.1,0,0.2,0,0.3,0c0.1,0,0.2,0,0.3,0
		v0.1c0.7,0.1,1.4,0.1,2.1,0c1.6-0.2,3.1-0.8,4.9-1.2c0-0.3,0.1-0.8,0-1.2c-0.6-2,0.1-3.6,1.6-5c1-0.8,2-1.6,3-2.5
		c0.3-0.3,0.5-0.8,0.8-1.2c0.2,0.4,0.4,0.7,0.5,0.9c-1.3,1.1-2.6,2-3.8,3.1c-1.7,1.5-2.1,3.4-1.3,5.4c0.2,0.5,1,0.7,1.4,1
		c-1.2-0.1-1.2,0.7-1.2,1.8c0,2-0.2,4-0.6,5.9c-0.2,1-1,1.8-1.6,2.9c0.1,0.1,0.4,0.3,0.4,0.3c-0.2,1-0.4,1.9-0.6,2.8
		c1.2-0.2,2.3-0.8,3.3-0.9l0.3-0.2l0.5,0.3c0.2,0.1,0.4,0.2,0.6,0.3l2.1,1.1l0,0c0.9,0.5,1.8,0.9,2.4,1.6c1.2,1.2,2.6,2.1,4.2,2.8
		c1.2,0.3,2.4,0.6,3.6,0.9c1.1,0.3,2.1,0.5,3.2,0.7c0.4,0.1,0.8-0.2,1.2-0.3C67.8,42.2,67.8,42.7,67.7,43.3z"/>
	<path class="pest-search__item-icon" d="M47.4,22.5c-0.3-0.5-2.1,0-3.2,0.1c-0.2,0-0.4,0.2-0.9,0.3c1.9,0.6,3,2,3,3.4c-0.1,1.8-1,3-2.7,3.3
		c0.7,0.2,1.4,0.4,2.2,0.6c0.6-1.2,1.1-2.3,1.7-3.4C48.4,25.3,48.2,23.7,47.4,22.5z"/>
</g>
</svg>
