<?xml-stylesheet type="text/css" href="/CMS_Themes/Default/Css/pest-icons.css" ?>
<svg version="1.1" id="Layer_1" xmlns="http://www.w3.org/2000/svg" viewBox="0 0 82.3 82.3" width="100%" height="100%">
<g>
	<path fill="#102e52" class="pest-search__item-icon" d="M19.7,56.2c0.4-0.2,0.8-0.5,1.3-0.7C19.9,55.6,19.6,55.8,19.7,56.2z"/>
	<path fill="#102e52" class="pest-search__item-icon" d="M15.4,47.6c-0.1-0.1-0.1-0.3-0.2-0.5c-0.7,0.8-1.4,1.4-1.9,2.3c-0.2,0.4-0.2,0.4,0.2,0.8
		c0.3-0.5,0.7-0.8,1.2-1c0.2,0,0.5,0,0.7,0c0.4,0,0.6-0.3,0.4-0.7C15.6,48.3,15.5,47.9,15.4,47.6z"/>
	<path fill="#102e52" class="pest-search__item-icon" d="M20.9,42c0.1-0.3,0.3-0.6,0.5-0.9c0,0,0,0-0.1,0c-1.5,1.4-3,2.8-4.5,4.2c-0.3,0.2-0.5,0.5-0.7,0.7
		c-0.1,0.1-0.2,0.2,0,0.4c0.1,0.1,0.2,0.3,0.2,0.5c0.1,0.4,0.1,0.7,0.1,1.1c0,0,0.1,0,0.1,0c0-0.1,0.1-0.1,0.1-0.2
		c0.4-0.8,1-1.5,1.7-2.1c0.3-0.2,0.5-0.5,0.8-0.8c0.3-0.3,0.5-0.6,0.8-0.9c0.4-0.4,0.9-0.9,1.4-1.3C21.1,42.6,20.8,42.4,20.9,42z"/>
	<path fill="#102e52" class="pest-search__item-icon" d="M41.2,0C18.4,0,0,18.4,0,41.2s18.4,41.2,41.2,41.2s41.2-18.4,41.2-41.2S63.9,0,41.2,0z M72,37.1
		c-2.2,1.7-4.8,2.7-7.3,3.8c-2.8,1.3-5.6,2.7-8.2,4.2c-2.5,1.5-5.1,2.8-7.7,3.9c-2.2,0.9-4.5,1.7-6.8,2.3c-1.4,0.3-2.9,0.6-4.3,1
		c-0.5,0.1-1,0.3-1.6,0.5c1.6,0.3,3.1,0.6,4.7,0.9c0,0,0,0.1,0,0.1c-0.2,0-0.4-0.1-0.6-0.1c-1.4,0-2.8-0.3-4.2-0.4
		c-0.4,0-0.7,0.1-1.1,0.2c-0.2,0-0.4,0.1-0.6,0.1c-0.7,0-1.3,0.3-1.8,0.6c-0.2,0.1-0.4,0.2-0.6,0.4c-0.1,0.1-0.2,0.3-0.4,0.4
		c0,0-0.1,0.1-0.1,0.1c-0.6,0.2-1.1,0.5-1.7,0.7c-0.7,0.2-1.4-0.2-1.9-0.6c-0.5-0.4-0.9-0.9-1.3-1.3c-0.2-0.3-0.4-0.3-0.6-0.1
		c-0.3,0.2-0.5,0.4-0.8,0.6c-0.1,0.1-0.1,0.2-0.1,0.3c0.3,1.1,0.6,2.1,0.9,3.2c0,0.1,0.1,0.2,0.2,0.3c0.2,0.2,0.3,0.4,0.2,0.7
		c0,0.1,0,0.3,0.1,0.3c0.3,0.1,0.6,0.2,0.9,0.1c1.3-0.1,2.6-0.4,3.9-0.9c0.8-0.3,1.7-0.4,2.6-0.3c0.5,0.1,1-0.1,1.5-0.1
		c0.8,0,1.6,0,2.4,0c1.4,0.1,2.8,0.3,4.2,0.5c1,0.2,2,0.2,2.8,0.9c0.6,0.5,1,1.1,1.4,1.7c0.5,0.6,1,1.2,1.5,1.9
		c0.4,0.4,0.7,0.9,1.1,1.3c0.1,0.1,0.1,0.2,0.1,0.4c-0.1,0-0.1,0-0.2-0.1c-0.9-1-1.8-2-2.7-3c-0.4-0.4-0.7-1-1.1-1.4
		c-0.2-0.3-0.5-0.5-0.8-0.7c-0.5-0.4-1-0.4-1.6-0.5c-0.8-0.1-1.7-0.1-2.5-0.2c-0.7-0.1-1.3-0.2-2-0.2c-0.4,0-0.9-0.1-1.3,0
		c-0.7,0.1-1.4,0-2.1,0.2c-1.4,0.3-2.8,0.8-4.2,1.2c-1.3,0.3-2.6,0.3-4,0c-0.4-0.1-0.8-0.3-1.2-0.5c-0.1,0-0.2-0.2-0.2-0.3
		c-0.3-1-0.6-2-0.9-3c-0.1-0.3-0.2-0.6-0.2-0.8c0-0.2-0.2-0.3-0.4-0.2c-0.2,0-0.4,0-0.4,0.3c0,2.6,1,4.6,3.2,6
		c0.2,0.1,0.3,0.2,0.3,0.5c0,0.1,0,0.2,0.1,0.2c0.4,0.5,0.9,1,1.3,1.5c0.5,0.7,1,1.4,1.3,2.3c0.2,0.5,0.5,1.1,0.6,1.6
		c0.2,1.2,0.3,2.3,0.5,3.5c0,0.3,0.1,0.7,0.2,1c0,0.1,0,0.3,0,0.4c0,0-0.1,0-0.1,0c-0.2-0.8-0.4-1.6-0.6-2.5
		c-0.1-0.6-0.3-1.3-0.4-1.9c-0.1-0.7-0.4-1.3-0.8-1.9c-0.1-0.2-0.2-0.5-0.3-0.7c-0.1-0.2-0.1-0.3-0.2-0.5c-0.5-0.8-1.1-1.6-1.9-2.3
		c-0.1,0-0.1-0.1-0.2-0.1c-0.3,0.1-0.4-0.2-0.5-0.3c-0.1-0.2-0.3-0.4-0.5-0.5c-1.6-1.5-2.6-3.4-3.1-5.5c0-0.1-0.1-0.2-0.1-0.4
		c-0.1,0.1-0.3,0.2-0.4,0.2c-0.9,0.5-1.7,1-2.6,1.4c-0.4,0.2-0.9,0.1-1.3,0.2c-0.3,0-0.5-0.1-0.8,0.1c0,0-0.2,0-0.3-0.1
		c-0.2-0.2-0.4-0.4-0.6-0.6c-0.2,0.2-0.3,0.4-0.5,0.6c-0.4,0.5-1.2,0.6-1.7,0.1c0.1,0,0.2,0,0.3,0c0.5,0,0.9-0.3,1-0.8
		c0.1-0.3,0-0.6-0.2-0.7c-0.7-0.4-1-1.1-1.3-1.8c-0.1-0.3-0.2-0.3-0.5-0.3c-0.4,0.1-0.9,0.2-1.4,0.3c0.1-0.2,0.1-0.4,0.2-0.5
		c0.2-0.2,0.5-0.3,0.7-0.4c0.6-0.2,0.8-0.8,0.5-1.3c-0.3-0.5-0.6-1-0.9-1.4c-0.1-0.2-0.2-0.5,0-0.7c0,0,0.1-0.1,0.1-0.2
		c0.2-1,0.7-1.7,1.4-2.4c0.5-0.5,1-1,1.5-1.4c0.2-0.2,0.2-0.4,0.1-0.6c-0.3-0.4-0.4-0.9-0.9-1.2c-0.2-0.1-0.3-0.4-0.5-0.5
		c-0.2-0.2-0.4-0.4-0.6-0.5c-1-0.6-2.1-1.1-3-1.9c-0.2-0.2-0.4-0.2-0.5-0.4c0.1,0,0.2,0.1,0.3,0.1c1,0.6,2,1.2,3.1,1.7
		c0.6,0.3,1.1,0.7,1.6,1.1c0.4,0.3,0.6,0.8,0.9,1.1c0.1,0.1,0.1,0.2,0.2,0.3c0.1,0,0.1,0.1,0.2,0.1c0.1-0.2,0.2-0.4,0.3-0.5
		c2.5-2.4,5-4.7,7.7-6.9c0.7-0.6,1.4-1.2,2.1-1.8c0.2-0.1,0.3-0.4,0.3-0.6c0.1-1-0.1-1.8-0.7-2.7c-0.5-0.7-0.8-1.6-1.2-2.3
		c-0.1-0.2-0.2-0.4-0.3-0.6c0,0,0.1,0,0.1-0.1c0.1,0.1,0.2,0.1,0.2,0.2c0.4,0.7,0.8,1.4,1.2,2.1c0.2,0.3,0.4,0.6,0.6,0.9
		c0.4,0.6,0.5,1.3,0.5,2.1c0,0.1,0,0.2,0,0.3c0.1-0.1,0.2-0.2,0.3-0.3c2-1.7,4.1-3.5,6.1-5.2c2-1.8,4.3-3.2,6.6-4.5
		c2.7-1.5,5.5-3.1,7.9-5.2c1.3-1.2,2.5-2.5,3.8-3.8c0.3-0.3,0.6-0.6,0.9-0.9c0,0,0.1,0.1,0.1,0.1c-0.1,0.1-0.1,0.2-0.2,0.3
		c-1.5,1.5-2.9,3-4.4,4.5c-1.3,1.3-2.9,2.3-4.5,3.2c-1.8,1.1-3.5,2.1-5.3,3.2c-1.6,1-3.2,2.2-4.6,3.4c-2.1,1.8-4.2,3.6-6.3,5.5
		c-0.1,0.1-0.2,0.1-0.2,0.3c0.1-0.1,0.2-0.1,0.3-0.2c3-1.9,6-3.7,9.2-5.2c3.2-1.5,6.4-2.9,9.6-4.3c3.2-1.4,6.2-3,9.2-4.8
		c1.4-0.8,2.7-1.6,4.2-2.1c1.6-0.6,3.5-0.1,4.7,1.2c0.8,0.8,1.4,1.7,1.8,2.8c0.1,0.4,0.2,0.8,0.3,1.3c0,0,0.1,0,0.1,0
		c1.3,0,2.2,0.7,2.5,1.9c0.1,0.3,0.3,0.6,0.5,0.8c1.3,1.1,2.4,2.3,3.2,3.8c0.6,1.1,0.9,2.3,0.7,3.5C73,36,72.6,36.6,72,37.1z"/>
	<path class="pest-search__item-icon" d="M28.9,53.5c-0.4,0-0.8,0-1.2,0c0.1,0.3,0.2,0.5,0.3,0.6c0.6,1,1.1,1.1,2.1,0.5c0.3-0.2,0.5-0.7,1-0.4
		c0,0,0,0,0,0c0.4-0.2,0.9-0.5,1.3-0.7c-0.6,0-1.1,0-1.7,0C30.2,53.5,29.6,53.5,28.9,53.5z"/>
</g>
</svg>
