<?xml-stylesheet type="text/css" href="/CMS_Themes/Default/Css/pest-icons.css" ?>
<svg version="1.1" id="Layer_1" xmlns="http://www.w3.org/2000/svg" viewBox="0 0 82.3 82.3" width="100%" height="100%">
<g>
	<path fill="#102e52" class="pest-search__item-icon" d="M81.6,33.5c-0.1,0.1-0.2,0.3-0.4,0.3c-1.1,0.3-2.3,0.4-3.5,0.7c0.2,0.2,0.3,0.3,0.5,0.4
		c-0.3,0-0.6-0.1-0.9-0.1c0.1,0.3,0.1,0.6,0.1,0.8c-0.4-0.3-0.9-0.6-1.5-1c0,0.4,0.1,0.5,0.1,0.9c-0.3-0.3-0.4-0.5-0.7-0.8
		c-0.1,0.2-0.2,0.3-0.3,0.4c-0.2-0.1-0.4-0.9-0.7-0.2c-0.6-0.1-1.1-0.2-1.6-0.3c-1.2-0.1-2.3-0.1-3.5-0.2c-1.7-0.1-3.3-0.4-4.9-0.7
		c0,0-0.1,0-0.2,0.1c0,0.3,0,0.6,0,0.9c-0.3,0.1-0.6,0-0.7,0.2c-0.1,0.2-0.1,0.6-0.2,1c-0.1-0.2-0.1-0.4-0.2-0.5
		c-0.8,0.6-0.7,0.9,0.1,1.2c1.5,0.6,3.1,1.2,4.6,1.9c0.4,0.2,0.7,0.2,1-0.2c0.3-0.3,0.7-0.5,1-0.8c0.1,0,0.1,0.1,0.2,0.1
		c-0.1,0.3-0.3,0.6-0.4,0.9c-0.3,0.5-0.1,0.7,0.3,1c1.4,1,2.8,2,4,3.2c0.7,0.6,1.1,1.5,1.6,2.3c0.7,1.3,0.6,2-0.5,3.1
		c-1,1-2.3,1.4-3.7,1.5c-1.4,0.1-2.8,0.2-4.2,0.3c-0.2,0-0.4,0.1-0.7,0.1c0.4,0.8,0.7,1.6,1.2,2.5c-0.9-0.3-1.5-0.8-1.8-1.5
		c-0.4-0.9-1-1.1-2-1.1c-3.3,0-6.6-0.2-9.8-0.2c-0.3,0-0.7,0.1-1,0.1c-0.1,0-0.3,0.2-0.3,0.2c0,0.1,0.1,0.2,0.2,0.3
		c-1,0.2-0.7,1.5-1.5,2c0.3,0.2,0.5,0.5,0.7,0.6c1.3,0.2,2.6,0.7,4.1,0.5c0.2,0.6,0.7,0.4,1.1,0.1c0.2,0.7,0.9,0.8,1.4,0.4
		c0.3,0.2,0.4,0.4,0.6,0.5c0.5,0.1,1,0.3,1.4,0.3c0.5,0,0.9-0.3,1.3-0.4c0,0.1-0.1,0.3-0.2,0.5c0.9,0.4,1,0.4,1.9-0.4
		c-0.1,0.3-0.2,0.5-0.3,1c0.6-0.2,1-0.3,1.4-0.4c0,0.1-0.1,0.2-0.2,0.6c0.6-0.3,1.1-0.6,1.5-0.8c0,0,0.1,0.1,0.1,0.1
		c-0.1,0.1-0.2,0.3-0.4,0.5c3,2.6,5.8,5.5,9.6,7.2c-0.2,0.3-0.5,0.6-0.6,0.8c-1-0.8-1.9-1.5-2.8-2.1c-1.5-1.1-3.1-2.2-4.6-3.3
		c-0.6-0.4-1.2-0.9-1.9-1.4c0.1,0.7,0.1,1.2,0.2,1.7c0,0-0.1,0-0.1,0c-0.1-0.3-0.2-0.5-0.3-0.8c-0.3-0.9-1-1.2-2-1
		c-0.3,0.1-0.6-0.1-0.9-0.2c-0.5-0.1-0.9-0.3-1.4-0.5c0,0.4-0.1,0.6-0.1,0.9c-0.4-0.8-1.5-1.4-3-1.4c-0.1,0.3-0.1,0.7-0.2,1.1
		C57,55,57,55,56.2,54.7c0,0.2,0,0.3,0,0.4c-0.4-0.2-0.8-0.5-1.3-0.9c-0.1,0.5-0.1,0.7-0.2,1c0-1.3-1.2-0.9-1.9-1.2
		c-0.1,0-0.3,0.2-0.5,0.3c-0.3-0.7-1-0.7-1.7-0.9c-0.2-0.1-0.6-0.1-0.7-0.3c-0.3-0.8-0.8-0.7-1.4-0.3c1.2-0.9,0.4-2.2,0.9-3.2
		c0.1-0.2,0.1-0.4,0.1-0.7c-1.3-0.3-2.7-0.6-4-0.9c-1.3-0.3-2.5-0.6-3.8-0.9c-0.4-0.1-0.9-0.1-1.4,0c-0.7,0.1-1.5,0.3-2.2,0.4
		c0.8,2.1,1.9,3.9,2.9,6c-0.2,0.4,0.1,1.2,1.2,1.8c-0.3,0-0.5,0-0.7,0.1c-0.1,1.3-0.1,2.5-0.3,3.7c-0.1,0.6-0.3,1.1-0.5,1.7
		c-0.3,1-0.6,2-1,3.1c-0.1,0-0.5-0.1-0.8-0.3c0.2-0.4,0.4-0.6,0.5-0.8c0.9-2,1.3-4.1,1.3-6.3c0-0.6-0.2-1.2-0.7-1.5
		c-0.1-0.5-0.2-0.9-0.3-1.5c-0.3,0.2-0.5,0.3-0.7,0.4c0-0.3,0-0.6,0.1-1c-0.5,0.1,0-1-0.7-0.5c0-0.4,0.1-0.8,0.1-1.2
		c-0.3,0.1-0.5,0.2-0.5,0.2c0-0.3,0-0.6-0.1-0.9c-0.4-1.2-0.9-2.5-1.4-3.8c-0.1,0-0.3,0-0.8,0c0.4-0.2,0.7-0.3,0.9-0.4
		c0.1-0.7-0.2-1.1-0.8-1.5c-0.6-0.4-1.4-0.7-1.3-1.6c-1.1,0-2.2,0-3.3,0c-0.1,0-0.3,0.2-0.4,0.3c-0.5,0.8-0.8,1.7-1.3,2.5
		c-0.2,0.4-0.7,0.6-1,1c-1.3,1.3-3,1.4-4.6,1.8c-0.8,0.2-0.4-0.5-0.4-0.9c1.7,0.3,3-0.2,4.1-1.2c0.4-0.4,1.2-0.8,0.7-1.6
		c0,0,0.1-0.1,0.1-0.2c0.4-0.8,0.8-1.6,1.1-2.5c0.1-0.1-0.1-0.4-0.2-0.5c-0.4-0.4-0.8-0.7-1.2-1.1c-0.6,0.4-1.1,0.8-1.7,1.1
		c-0.6,0.2-1.2,0.3-1.9,0.3c1.1-0.7,2.6-0.4,3.2-1.8c-0.5-0.1-1-0.2-1.6-0.4c-0.2,0.9-1,1.3-1.9,1.4c0.4-0.6,1.5-0.6,1.5-1.7
		c-3.8,0.7-7.2,2.4-10.6,4.3c-4.5,2.6-9,5.3-13.5,8c4.9,17.3,20.8,30,39.6,30c22.7,0,41.2-18.4,41.2-41.2
		C82.3,38.6,82.1,36,81.6,33.5z"/>
	<path fill="#102e52" class="pest-search__item-icon" d="M1.1,34.1c2.8,0.2,5.7,0.5,8.5,0.7c3,0.3,6.1,0.6,9.1,0.8c1.9,0.1,3.8,0.2,5.7,0.2c0.3,0,0.6-0.3,0.9-0.5
		c0.4-0.3,0.7-0.7,1.1-1c0.2-0.1,0.6-0.1,0.8,0c0.2,0,0.5,0.3,0.6,0.2c0.4-0.2,0.7-0.6,0.9-0.9c0.1-0.2,0.2-0.4,0.2-0.5
		c-1.3-0.9-2.6-1.9-4.1-2.9c0.3-0.2,0.6-0.5,0.9-0.8c0.4,1.4,1.5,2,2.5,2.6c0.4,0.2,0.8,0.3,0.9-0.4c0.2,0.4,0.3,0.6,0.6,1.1
		c0.2-0.4,0.3-0.5,0.4-0.8c0.1,0.3,0.2,0.5,0.3,0.7c0.8-0.2,1.5-0.5,2.3-0.6c1.4-0.2,2.7-0.3,4,0.4c0.4,0.2,1,0,1.5-0.1
		c0.3,0,0.6-0.1,1-0.2c1-0.1,1-0.1,1.2-1.2c0.1,0.3,0.1,0.5,0.3,0.8c0.1-0.3,0.1-0.5,0.1-0.6c0,0,0.1-0.1,0.1-0.1
		c0.1,0.2,0.2,0.4,0.3,0.7c0.1,0,0.2-0.1,0.3-0.1c0.2-0.4,0.4-0.7,0.7-1.2c0,0.4,0,0.6,0,0.9c0.9,0.1,1,0,1.1-1.2
		c0.1,0.3,0.2,0.6,0.4,1c0.4-0.5,0.8-0.8,1.1-1.2c0,0,0.1,0,0.1,0c-0.1,0.3-0.2,0.5-0.3,0.8c0,0.1,0.1,0.1,0.1,0.2
		c0.4-0.2,0.7-0.4,1.1-0.7c0,0,0.3,0.2,0.4,0.1c0.9-0.6,2.2-0.8,2.7-2c0.3-0.6,0.3-1.3-0.1-1.7c0.6-0.5,1-0.3,1.4,0.1
		c-0.3,0.4-0.5,0.6-0.7,1c-0.3,0.7-0.5,1.5-0.9,2.1c-0.2,0.4-0.6,0.6-1.1,1c0.2,0.1,0.4,0.2,0.5,0.3c0,0-0.1,0.1-0.1,0.1
		c-0.3,0-0.6,0-1-0.1c0.1,0.7,0.4,0.9,1,1c3.1,0.2,6.1,0.9,9,2.1c0.2,0.1,0.4,0.1,0.6,0.2c0.8,0.4,1.5,0.3,2.3-0.3
		c0.5-0.5,1.2-0.7,1.8-1.1c0.5-0.4,0.9-0.9,1.3-1.2c0,0.2,0.1,0.8,0.2,0.8c0.5,0.1,1-0.1,1.7-0.1c0.3,0.4,0.6,0.4,1.8-0.4
		c-0.1,0.2-0.2,0.4-0.3,0.6c0.5,0.1,1,0.2,1.3,0.1c0.4-0.1,0.6-0.6,1-1c-0.1,0.4-0.1,0.7-0.3,1.2c0.7-0.4,1.3-0.7,1.8-0.9
		c0,0,0,0.1,0.1,0.1c-0.3,0.3-0.6,0.5-1,0.9c1.1,0.2,1.8,0,2.3-0.9c-0.1,0.2-0.1,0.5-0.2,0.7c0,0.1,0.1,0.1,0.1,0.2
		c0.5-0.2,1-0.4,1.6-0.7c-0.2,0.3-0.4,0.5-0.6,0.7c1.1,0.6,1.5-0.4,2.2-0.9c-0.1,0.4-0.3,0.7-0.5,1.3c0.7-0.3,1.2-0.5,1.9-0.8
		c-0.3,0.3-0.5,0.5-0.7,0.7c0.9,0.4,1.1-0.4,1.6-1c-0.1,0.5-0.2,0.7-0.3,1.1c0.7-0.2,1.4-0.3,2-0.4c0.7-0.1,1.4-0.2,2.1-0.3
		c0.1,0,0.3,0.1,0.4,0.3C77.9,14.3,61.2,0,41.2,0C20.9,0,4,14.7,0.6,34.1C0.8,34.1,1,34.1,1.1,34.1z"/>
	<path fill="#102e52" class="pest-search__item-icon" d="M2.9,51.2c4.5-2.7,8.9-5.4,13.5-8c2.5-1.4,5.1-2.6,7.9-3.4c1.1-0.3,1.2-0.4,1-1.6c-0.1-0.6,0-1.2,0-1.9
		C17,36.3,8.8,35,0.6,34.3C0.2,36.5,0,38.8,0,41.2c0,3.8,0.5,7.4,1.5,10.9C1.9,51.8,2.4,51.5,2.9,51.2z"/>
</g>
</svg>
