<?xml-stylesheet type="text/css" href="/CMS_Themes/Default/Css/pest-icons.css" ?>
<svg version="1.1" id="Layer_1" xmlns="http://www.w3.org/2000/svg" viewBox="0 0 82.3 82.3" width="100%" height="100%">
<g>
	<path fill="#102e52" class="pest-search__item-icon" d="M41.2,0C26.7,0,14,7.5,6.6,18.8c2,1.9,3.6,4.2,5.3,6.4c2.4,3.2,5,6.2,7.6,9.2c0.6,0.7,1.3,0.9,2.2,0.9
		c1.8,0,3.6,0.3,5.3,0.5c0.6,0.1,1.2,0.1,1.8,0.2c0.5,0.1,0.8-0.1,1-0.6c0.3-0.5-0.1-0.8-0.4-1c-0.2-0.1-0.3-0.2-0.5-0.4
		c-0.3-0.5-1-1.2-0.8-1.4c0.4-0.6,1.1-1,1.9-0.8c1.7,0.4,3.5,0.8,5.2,1.2c4.4,1.1,8.5,2.9,12.6,4.8c2.1,1,4.1,2,6.1,3
		c0.4,0.2,0.8,0.2,1.3,0.4c0.5,0.1,1,0.2,1.4,0.4c2,0.9,4.1,1.8,6.1,2.9c1.1,0.6,2.2,0.9,3.4,1c0.6,0.1,1.2,0.4,1.9,0.7
		c0.2-1.2,0-2.3-1-3.1c-1.4-1.1-3-2.2-4.5-3.2c-3.2-2.3-6.5-4.6-9.6-7c-2.6-2-4.9-4.2-6.7-6.9c-0.5-0.7-0.9-1.6-1.2-2.4
		c1.1,1.5,2.1,3,3.3,4.5c2.2,2.7,5,4.7,7.9,6.7c2.8,1.9,5.6,3.7,8.4,5.7c1.2,0.9,2.3,1.9,3.4,3c0.9,0.9,1.2,2.1,0.7,3.4
		c-0.1,0.4,0,0.8,0,1.4c1.1-1.2,1.2-3.4,0.4-4.9c-1-1.9-2.6-3.2-4.4-4.4c-4.2-2.6-8.4-5.3-11.9-8.8c-2.1-2.1-3.7-4.4-4.6-7.3
		c0-0.2-0.1-0.3-0.1-0.5c0-0.1,0-0.2,0-0.5c0.4,0.9,0.6,1.6,0.9,2.3c1.1,2.6,3.1,4.7,5.1,6.6c3.5,3.3,7.6,5.6,11.6,8.2
		c1,0.6,1.9,1.4,2.7,2.2c2.1,2.1,2.5,5.1,1.1,7.8c-0.2,0.4-0.3,0.9-0.3,1.4c0,1.3-0.7,2.3-1.7,3.1c-0.3,0.3-0.5,0.7-0.8,1.1
		c-0.1,0.1-0.2,0.3-0.3,0.3C66,55,65.6,55,65,55c0.5,1.3,1,2.6,1.6,3.9c0.2,0.5,0.6,1,0.7,1.7c0.3,1.3,1.2,2.3,2.7,2.6
		c1.3,0.2,2.5,0.6,3.5,1.7c-1.6-0.4-3.3-0.9-4.9-1.3c-1.2-0.3-1.8-1.2-2.1-2.4c-0.1-0.3-0.4-0.4-0.6-0.6c-0.1-0.3-0.2-0.6-0.3-0.8
		c-0.5-1.3-0.9-2.7-1.4-4c-0.1-0.2-0.4-0.4-0.6-0.6c-0.1,0.6-0.2,1-0.3,1.3c-0.1,0-0.1,0-0.2-0.1c-0.1-0.3-0.2-0.7-0.3-1
		c-0.5,1.1-0.5,1.1-1.1,1c0.8-1.3-0.5-2-0.8-3c0,1.2,0.1,2.3,0.3,3.4c0,0.2,0.1,0.4,0.1,0.5c-0.2,0.7,0.4,1.6,1,1.8
		c1.1,0.4,2.2,0.9,3.3,1.3c0.1,0.4,0.3,0.7,0.4,1.1c-0.7-0.3-1.4-0.6-2.1-0.9c-0.9-0.4-1.7-0.9-2.7-1.1c-0.6-0.1-0.6-0.5-0.7-0.9
		c-0.2-1.3-0.4-2.7-0.5-4c0-0.3-0.1-0.6-0.2-1c-0.7,0.2-1.4,0.3-2.1,0.4c-1.4,0.2-2.7,0.3-3.9-0.5c-0.2-0.1-0.4-0.1-0.6-0.1
		c-1.3,0.3-2.3-0.2-2.9-1.3c-0.4-0.7-1.3-1-2.1-0.7c-0.3,0.1-0.7,0.3-0.9,0.3c-0.9-0.2-1.3,0.3-1.6,0.9c-0.5,0.8-1.1,1.6-1.6,2.5
		c-0.5,0.8-0.9,1.7-1.3,2.6c-0.2-0.6-0.4-0.5-0.8,0c-0.5,0.8-1,1.7-1.6,2.5c-0.1,0.2-0.4,0.3-0.6,0.4c-1.4,0.3-2.8,0.5-4.2,0.9
		c-1.1,0.3-2.1,0.8-3.1,1.2c0.4-0.4,0.5-1.1,1.3-1.3c1.1-0.3,2.2-0.7,3.3-1.1c0.4-0.1,0.8-0.1,1.2-0.1c1.2-0.1,1.6-1.1,2.2-1.9
		c0.4-0.5,0.8-1.1,1.1-1.7c0.1-0.2,0-0.5,0.1-0.8c1.5-1,2-2.9,3.1-4.4c-0.6-0.2-1.1-0.3-1.6-0.4c-0.2,0-0.5,0.1-0.6,0.3
		c-0.7,1-1.3,2.1-2.1,3c-0.9,1-2,1.9-3.1,2.7c-0.2,0.2-0.7,0-1.1,0.1c-1.2,0-2.4,0-3.6,0.1c-0.8,0.1-1.5,0.6-2.2,0.8
		c0.1-0.1,0.2-0.3,0.4-0.7c-0.4,0.2-0.6,0.3-0.9,0.4c0,0-0.1-0.1-0.1-0.1c0.2-0.2,0.4-0.4,0.7-0.5c1.2-0.3,2.4-0.5,3.6-0.7
		c1-0.2,2,0,2.8-0.4c0.9-0.4,1.7-1.2,2.1-2c0.6-1.3,1.7-2.1,2.4-3.3c0.1-0.1,0.1-0.2,0.2-0.4c-3-2.7-6.5-4.7-10-7
		c-2.6,5.8-4.6,11.8-8.9,16.4c-0.1,0-0.1-0.1-0.2-0.1c0.2-0.4,0.4-0.8,0.5-1c-1.5,0.2-3.1,0.4-4.7,0.5c-0.1,0-0.1,0-0.2,0
		c-1.2,0.2-2.5,0.3-3.7,0.5c-0.4,0.1-0.8,0.4-1.3,0.5c0.2-0.2,0.4-0.5,0.7-0.7c-0.3,0-0.6,0.1-1,0.1c0.3-0.2,0.4-0.3,0.6-0.4
		c1.1-0.1,2-0.6,3.1-0.5c1.6,0.1,3.2-0.2,4.8-0.8c0.4-0.1,0.9-0.1,1.3-0.2c0-0.1,0-0.1,0-0.2c-0.1-0.1-0.2-0.1-0.2-0.1l0,0
		c0,0,0,0,0,0c0.3-0.5,0.6-0.9,0.9-1.3c0.2-0.2,0.6-0.3,0.8-0.5c0.5-0.7,0.9-1.5,1.4-2.2c0-0.1-0.1-0.2-0.1-0.4
		c0.2-0.3,0.5-0.8,0.9-1.2C26.1,52,26,51.9,26,52c0.3-0.5,0.7-1,1.1-1.6c-0.2-0.1-0.4-0.1-0.6-0.2c1.1-0.7,1.4-1.2,0.9-1.7
		c1.6-1.5,1.7-3.7,2.6-5.5C30,43,29.9,43,29.9,43c-1.7-1-1.7-1-2.8,0.7C25,47,23,50.3,20.8,53.6c-0.4,0.6-0.9,1.1-1.3,1.6
		c-0.1,0-0.1-0.1-0.2-0.1c0.2-0.4,0.4-0.7,0.6-1.3c-0.6,0.3-1,0.5-1.6,0.8c0.2-0.4,0.3-0.5,0.5-0.7c-0.1,0-0.1-0.1-0.1-0.1
		c-1,0-2-0.1-3-0.1c-1.3,0-2.6,0-4,0c-0.5,0-1,0.4-1.5,0.6c0-0.2,0-0.5-0.1-0.8c3.1-1.4,6.2-0.3,9.4-0.2c0-0.1,0-0.2,0-0.3
		c-0.1-0.1-0.3-0.2-0.5-0.3c0.4-0.2,0.8-0.4,1.1-0.6c0.4-0.2,0.7-0.3,0.3-0.8c0.8-0.2,1.2-0.6,1.4-1.3c0.2-0.9,0.8-1.5,1.3-2.2
		c0.1-0.1,0-0.4,0-0.7c0.2-0.1,0.5-0.3,0.9-0.6c-0.2-0.1-0.3-0.1-0.4-0.2c0.2-0.4,1.1-0.4,0.8-1.2c0.4-0.5,1.3-1.1,1.2-1.5
		c-0.3-0.8,1.2-0.8,0.6-1.6c0.1-0.1,0.3-0.2,0.6-0.3c-0.1-0.2-0.2-0.3-0.3-0.3c-0.8-0.3-1.7-0.6-2.5-1c-1.4-0.8-2.8-1.6-4.2-2.4
		c-0.5-0.4-1-0.5-1.6-0.4c-2.8,0.2-5.6,0.3-8.4,0.5c-0.3,0-0.5,0-0.8-0.1c0-0.1,0-0.2,0-0.3c3.1-0.3,6.2-0.5,9.4-0.8
		c-0.2-0.6-0.6-0.9-1.3-0.9c-3.1-0.1-6.1-0.2-9.2-0.3c-0.2,0-0.3,0-0.5-0.2c3.1-0.5,6.2-0.3,9.4-0.5c-1.1-1.3-2.2-2.5-3.2-3.8
		c-1.5-1.8-2.9-3.7-4.3-5.6c-1.2-1.7-2.8-2.9-4.5-3.9C1.8,27.5,0,34.1,0,41.2c0,22.7,18.4,41.2,41.2,41.2s41.2-18.4,41.2-41.2
		S63.9,0,41.2,0z"/>
	<path fill="#102e52" class="pest-search__item-icon" d="M7.2,22.6c2.9,3.3,5.8,6.7,8.7,10c0.6,0.7,1.4,1.4,2.1,2.1c0.2,0.2,0.6,0.3,0.9,0.5c0-0.1,0.1-0.1,0.1-0.2
		c-0.4-0.5-0.9-1.1-1.3-1.6c-2.5-3.2-4.9-6.5-7.4-9.7c-1.2-1.5-2.7-2.8-4-4.2c-0.3,0.5-0.7,1.1-1,1.6C6,21.5,6.6,21.9,7.2,22.6z"/>
	<path fill="#102e52" class="pest-search__item-icon" d="M25.2,36.5c0-0.1,0-0.1,0-0.2c-1.3-0.1-2.6-0.2-3.9-0.3c0,0.1,0,0.2-0.1,0.3C22.5,36.9,23.9,36.3,25.2,36.5z"
		/>
	<path fill="#102e52" class="pest-search__item-icon" d="M20.4,37.5c0.9,0.7,1.7,1.2,2.5,1.8C22.4,38,21.4,37.2,20.4,37.5z"/>
	<path fill="#102e52" class="pest-search__item-icon" d="M19.2,36.2c0.4,0.2,0.7,0.3,1.1,0.5c0.1-0.1,0.1-0.2,0.2-0.4c-0.4-0.2-0.7-0.3-1.1-0.5
		C19.4,36,19.3,36.1,19.2,36.2z"/>
	<path fill="#102e52" class="pest-search__item-icon" d="M23.4,38.4c0.2-0.4,0.3-0.6,0.5-1c-0.6,0-0.9,0-1.4,0C22.8,37.7,23.1,38,23.4,38.4z"/>
</g>
</svg>
