<?xml-stylesheet type="text/css" href="/CMS_Themes/Default/Css/pest-icons.css" ?>
<svg version="1.1" id="Layer_1" xmlns="http://www.w3.org/2000/svg" viewBox="0 0 82.3 82.3" width="100%" height="100%">
<g>
	<path fill="#102e52" class="pest-search__item-icon" d="M28.1,38.4c-0.2,0-0.4,0-0.6,0.1c-0.2,0-0.4,0.1-0.6,0c0,0-0.1,0-0.1,0c0,0,0,0.1,0,0.1
		c0.3,0.4,0.3,0.9,0.3,1.4c0.1,0.7,0.2,1.5,0.5,2.2c0,0.1,0,0.1,0.1,0.2c0-0.1,0-0.1,0-0.2c0-0.2,0.1-0.4,0.1-0.5c0-0.1,0-0.2,0-0.3
		c-0.1-0.4,0-0.7,0.1-1.1c0-0.2,0.1-0.3,0.2-0.5c0.1-0.3,0.1-0.5,0.1-0.8c0-0.1,0-0.2,0-0.3C28.3,38.5,28.3,38.4,28.1,38.4z"/>
	<path fill="#102e52" class="pest-search__item-icon" d="M27.9,43.9C28,43.9,28,43.9,27.9,43.9C28,43.9,28,43.9,27.9,43.9C28,43.9,28,43.8,27.9,43.9
		C28,43.8,28,43.9,27.9,43.9z"/>
	<path fill="#102e52" class="pest-search__item-icon" d="M38.8,36.6c0,0,0.1,0,0.1,0c0,0,0,0,0,0C38.9,36.6,38.8,36.6,38.8,36.6C38.8,36.6,38.8,36.6,38.8,36.6z"/>
	<path fill="#102e52" class="pest-search__item-icon" d="M26.3,50.9C26.3,50.9,26.3,50.8,26.3,50.9C26.3,50.8,26.3,50.8,26.3,50.9C26.3,50.9,26.3,50.9,26.3,50.9
		C26.3,50.9,26.3,50.9,26.3,50.9z"/>
	<path fill="#102e52" class="pest-search__item-icon" d="M27.3,52.7c0-0.2-0.1-0.3-0.3-0.1c-0.1,0.1-0.2,0.1-0.3,0.2c-0.2,0.1-0.5,0.2-0.7,0.3c0,0,0,0.1,0,0.1
		c0.2,0.3,0.3,0.6,0.4,1c0.1,0.4,0.2,0.8,0.2,1.1c0.1,0.3,0.1,0.7,0.2,1c0,0.1,0,0.1,0,0.2c0.1-0.1,0.2-0.2,0.2-0.2
		c0-0.2,0.1-0.4,0-0.5c0-0.3,0-0.6,0.1-0.9c0,0,0-0.1,0-0.1c-0.1-0.3,0-0.5,0.1-0.7c0,0,0-0.1,0-0.1c-0.1-0.3,0-0.5,0-0.8
		C27.3,52.9,27.3,52.8,27.3,52.7z"/>
	<path fill="#102e52" class="pest-search__item-icon" d="M41.4,36.6C41.4,36.6,41.4,36.6,41.4,36.6c0.1,0,0.1,0,0.1,0c0,0,0,0,0,0C41.4,36.6,41.4,36.6,41.4,36.6z"/>
	<path fill="#102e52" class="pest-search__item-icon" d="M27.8,43C27.8,43,27.8,43,27.8,43c0.1-0.1,0.2-0.2,0.2-0.3C27.8,42.8,27.8,42.8,27.8,43z"/>
	<path fill="#102e52" class="pest-search__item-icon" d="M52.3,43.9C52.3,43.9,52.3,43.9,52.3,43.9C52.3,43.9,52.3,43.9,52.3,43.9C52.3,43.9,52.3,43.8,52.3,43.9
		C52.3,43.8,52.3,43.9,52.3,43.9z"/>
	<path fill="#102e52" class="pest-search__item-icon" d="M54,50.9C54,50.8,54,50.8,54,50.9C53.9,50.8,53.9,50.9,54,50.9C53.9,50.9,54,50.9,54,50.9
		C54,50.9,54,50.9,54,50.9z"/>
	<path fill="#102e52" class="pest-search__item-icon" d="M41.2,0C18.4,0,0,18.4,0,41.2s18.4,41.2,41.2,41.2s41.2-18.4,41.2-41.2S63.9,0,41.2,0z M59.9,62.7
		c-0.3,0.4-0.6,0.7-1.1,0.9c0,0-0.1,0-0.2,0c0-0.1-0.1-0.2-0.1-0.3c-0.1-0.3-0.2-0.4-0.5-0.6c-0.2-0.1-0.3-0.2-0.5-0.3c0,0,0,0,0,0
		c-0.6-0.2-1-0.7-1.5-1.2c-0.3-0.2-0.5-0.5-0.9-0.7c-0.1-0.1-0.2-0.1-0.3-0.2c-0.2-0.2-0.3-0.4-0.5-0.5c-0.1-0.2-0.3-0.3-0.5-0.3
		c-0.1,0-0.1-0.1-0.2-0.1c-0.1,0-0.1-0.1-0.2-0.1c0,0.1-0.1,0.1-0.1,0.2c0,0.1,0,0.1,0,0.2c0,0,0,0.1,0,0.1
		c-0.2,0.2-0.1,0.5-0.2,0.7c0,0,0,0.1,0,0.1c0.1,0.4,0,0.8-0.1,1.2c0,0.1,0,0.2,0,0.2c0,0.1,0,0.2,0,0.3c0,0.1-0.1,0.3-0.1,0.4
		c0,0.2-0.1,0.3-0.1,0.5c0,0.1,0,0.2-0.1,0.2c-0.1,0.3-0.1,0.6-0.2,0.9c0,0,0,0,0,0c-0.2,0.4-0.3,0.9-0.5,1.4
		c-0.2,0.6-0.5,1.1-0.7,1.7c-0.1,0.3-0.2,0.5-0.4,0.7c-0.1,0.3-0.3,0.5-0.4,0.8c-0.1,0.2-0.2,0.3-0.3,0.4c-0.1,0.2-0.2,0.5-0.4,0.7
		c-0.2,0.3-0.4,0.6-0.6,0.9c-0.2,0.3-0.4,0.6-0.6,0.8c-0.2,0.3-0.4,0.5-0.6,0.8c-0.4,0.5-0.9,0.9-1.4,1.4c-0.3,0.3-0.7,0.5-1,0.8
		c-0.5,0.5-1,0.7-1.6,0.9C44,76,43.8,76,43.6,76.1c0,0-0.1,0-0.1,0c-0.3,0-0.6,0.2-0.9,0.2c-0.2,0-0.4,0-0.6,0c-0.1,0-0.3,0-0.4,0
		c-0.3,0-0.5,0.1-0.8,0.1c-0.2,0-0.4,0-0.6,0c-0.2,0-0.4,0-0.6,0c-0.3,0-0.5-0.1-0.8-0.1c-0.1,0-0.3,0-0.4,0c-0.2,0-0.4,0-0.6,0
		c-0.3-0.1-0.6-0.2-0.9-0.2c0,0-0.1,0-0.1,0C36.5,76,36.2,76,36,75.9c-0.6-0.2-1.2-0.4-1.6-0.9c-0.3-0.3-0.7-0.5-1-0.8
		c-0.5-0.4-0.9-0.9-1.4-1.4c-0.2-0.2-0.4-0.5-0.6-0.8c-0.2-0.3-0.4-0.6-0.6-0.8s-0.4-0.6-0.6-0.9c-0.1-0.2-0.2-0.5-0.4-0.7
		c-0.1-0.2-0.2-0.3-0.3-0.4c-0.1-0.3-0.3-0.5-0.4-0.8c-0.1-0.2-0.3-0.5-0.4-0.7c-0.2-0.6-0.4-1.1-0.7-1.7c-0.2-0.5-0.2-1-0.5-1.4
		c0,0,0,0,0,0c-0.1-0.3-0.1-0.6-0.2-0.9c0-0.1,0-0.2-0.1-0.2c0-0.2-0.1-0.3-0.1-0.5c0-0.1-0.1-0.3-0.1-0.4c0-0.1,0-0.2,0-0.3
		c0-0.1,0-0.2,0-0.2c-0.1-0.4-0.1-0.8-0.1-1.2c0,0,0-0.1,0-0.1c-0.1-0.2,0-0.5-0.2-0.7c0,0,0-0.1,0-0.1c0-0.1,0-0.1,0-0.2
		c0-0.1-0.1-0.1-0.1-0.2c-0.1,0-0.1,0.1-0.2,0.1c-0.1,0-0.1,0.1-0.2,0.1c-0.2,0.1-0.4,0.2-0.5,0.3c-0.2,0.2-0.3,0.4-0.5,0.5
		c-0.1,0.1-0.2,0.2-0.3,0.2c-0.3,0.2-0.6,0.4-0.9,0.7c-0.5,0.4-0.9,0.9-1.5,1.2c0,0,0,0,0,0c-0.2,0.1-0.3,0.2-0.5,0.3
		c-0.2,0.1-0.4,0.3-0.5,0.6c0,0.1-0.1,0.2-0.1,0.3c-0.1,0-0.1,0-0.2,0c-0.4-0.2-0.8-0.5-1.1-0.9c-0.3-0.4-0.3-0.4,0.1-0.7
		c0,0,0.1-0.1,0.1-0.1c0.2-0.2,0.4-0.3,0.5-0.5c0.1-0.3,0.3-0.4,0.5-0.5c0.4-0.2,0.8-0.5,1.2-0.7c0,0,0,0,0.1-0.1
		c0.1-0.1,0.2-0.1,0.3-0.2c0.2-0.1,0.3-0.2,0.4-0.3c0.2-0.3,0.4-0.5,0.7-0.7c0.1-0.1,0.2-0.3,0.2-0.4c0-0.1,0-0.2,0-0.3
		c0.1-0.4,0.1-0.7,0.2-1.1c0-0.3,0-0.6,0-1c0-0.3,0.1-0.6,0-0.9c0-0.1,0-0.2,0-0.2c0-0.5,0-1.1,0.1-1.6c0-0.4,0.2-0.8,0.4-1.1
		c0.1-0.2,0.2-0.4,0.2-0.6c0.1-0.6,0.3-1,0.9-1.2c0.4-0.2,0.7-0.4,1.1-0.6c0.3-0.2,0.5-0.4,0.6-0.8c0,0,0-0.1,0-0.1
		c0-0.1,0-0.2,0-0.3c0-0.3,0-0.6,0-0.9c0-0.3,0-0.5,0-0.8c0-0.1,0-0.2,0-0.2c0.1-0.2,0.1-0.4,0.1-0.7c0-0.1,0-0.3,0-0.4
		c0-0.2,0.1-0.4,0.1-0.6c0-0.2,0-0.2-0.2-0.3c0-0.1,0-0.1,0-0.2c0-0.1,0-0.2-0.1-0.2c-0.1-0.2-0.2-0.3-0.4-0.2
		c-0.2,0.1-0.5,0.3-0.7,0.5c-0.2,0.2-0.4,0.4-0.5,0.6c-0.3,0.5-0.7,1-1.3,1.2c-0.1,0-0.3,0.2-0.4,0.3c-0.2,0.1-0.3,0.3-0.5,0.5
		c0,0-0.1,0.1-0.2,0.1c-0.2,0-0.3,0.1-0.5,0.1c-0.3,0.1-0.5,0.1-0.8,0.3c-0.2,0.1-0.5,0.2-0.7,0.3c-0.3,0.1-0.5,0.2-0.6,0.4
		c-0.2,0.3-0.3,0.3-0.5,0.1c-0.1,0-0.1-0.1-0.2-0.1c-0.1-0.2-0.2-0.4,0-0.6c0.1-0.1,0.2-0.2,0.3-0.3c0.2-0.2,0.4-0.4,0.6-0.6
		c0.1-0.2,0.3-0.3,0.5-0.3c0.2,0,0.3-0.1,0.4-0.2c0.1-0.1,0.2-0.2,0.3-0.3c0.1,0,0.2-0.1,0.2-0.2c0.2-0.3,0.4-0.4,0.7-0.6
		c0.2-0.1,0.3-0.2,0.5-0.3c0.2-0.2,0.3-0.4,0.5-0.5c0.2-0.2,0.2-0.3,0.2-0.6c-0.1-0.3-0.1-0.6,0.1-0.9c0.1-0.1,0.1-0.2,0.1-0.3
		c0.1-0.7,0.1-1.4,0.2-2.1c0-0.1,0-0.2,0-0.3c0-0.1,0-0.1,0-0.2c0.1-0.5,0-1.1,0.2-1.6c0.1-0.3,0.2-0.5,0.4-0.7
		c0.3-0.3,0.6-0.6,0.7-1c0.1-0.4,0.5-0.7,1-0.7c0.4,0,0.9,0,1.3-0.1c0.3,0,0.3-0.1,0.4-0.3c0.1-0.2,0.2-0.3,0.3-0.4
		c0,0,0.1-0.1,0.1-0.1c0-0.2,0.1-0.4,0.2-0.5c-0.1-0.2-0.1-0.4-0.2-0.5c-0.2-0.2-0.3-0.4-0.1-0.7c-0.2-0.1-0.4-0.2-0.5-0.3
		c-0.5-0.2-0.7-0.7-0.9-1.1C28,31.6,28,31.3,27.9,31c0-0.1,0-0.2-0.1-0.2c-0.3-0.2-0.4-0.5-0.5-0.8c-0.1-0.3-0.1-0.6-0.1-0.9
		c0-0.1,0.1-0.3,0.1-0.4c0-0.1-0.1-0.3-0.1-0.4c0-0.3-0.1-0.6-0.2-0.9c-0.1-0.2-0.1-0.3-0.3-0.4c-0.2-0.2-0.3-0.4-0.4-0.6
		c-0.1-0.1-0.2-0.3-0.3-0.4c-0.1-0.2-0.4-0.3-0.4-0.6c-0.1-0.3-0.3-0.5-0.5-0.7c-0.2-0.2-0.4-0.4-0.5-0.6c-0.1-0.2-0.1-0.4,0.1-0.5
		c0,0,0.1,0,0.1-0.1c0.2-0.1,0.2-0.2,0-0.3c-0.1-0.1-0.2-0.2-0.4-0.3c-0.2-0.2-0.2-0.3-0.1-0.6c0.1-0.2,0.2-0.4,0.4-0.5
		c0,0,0.1-0.1,0.1-0.1c0.1,0.1,0.3,0.2,0.4,0.3c0.1,0.1,0.2,0.2,0.2,0.3c0.1,0.1,0.2,0.3,0.2,0.4c0.1,0.2,0.2,0.4,0.4,0.6
		c0.1,0.1,0.1,0.2,0.2,0.2c0.2,0.1,0.2,0.2,0.3,0.3c0,0.1,0.1,0.2,0.1,0.3c0,0.1,0.1,0.3,0.2,0.4c0.1,0.1,0.2,0.2,0.2,0.3
		c0.1,0.3,0.3,0.6,0.5,0.8c0.1,0.1,0.2,0.2,0.3,0.3c0.2,0.1,0.3,0.3,0.6,0.4c0.3,0.1,0.5,0.2,0.7,0.4c0.1,0.1,0.2,0.2,0.3,0.3
		c0.2,0.2,0.6,0.3,0.8,0.1c0.1-0.1,0.3-0.2,0.4-0.3c0.1,0,0.2-0.1,0.2-0.2c0-0.2,0.2-0.3,0.3-0.4c0.1-0.1,0.1-0.2,0.1-0.3
		c0.1-0.1,0.1-0.2,0.2-0.3c0.3-0.3,0.5-0.6,0.8-0.9c0.1-0.1,0.2-0.2,0-0.4c0.1,0,0.2,0.1,0.3,0.1c0.1-0.2,0.2-0.3,0.3-0.5
		c0.1-0.1,0.2-0.3,0.1-0.5c0-0.4,0.4-0.6,0.5-1c0,0,0,0,0.1,0c0.2-0.1,0.4-0.3,0.5-0.5c0.1-0.1,0.3-0.3,0.4-0.4
		c0.1-0.1,0.3-0.2,0.4-0.3c-0.1,0-0.1-0.1-0.2-0.1c-0.3-0.1-0.5-0.2-0.6-0.5c-0.1-0.1-0.2-0.2-0.4-0.3c-0.1-0.1-0.2-0.2-0.3-0.3
		c0-0.1-0.1-0.2-0.2-0.3c-0.2-0.1-0.3-0.2-0.5-0.3c-0.2-0.2-0.3-0.3-0.5-0.5c-0.1-0.1-0.2-0.3-0.3-0.4c-0.1-0.2-0.3-0.3-0.4-0.5
		c0,0-0.1-0.1-0.1-0.1c-0.2-0.3-0.5-0.5-0.7-0.8c-0.1-0.1-0.2-0.2-0.2-0.3c-0.1-0.2-0.2-0.3-0.4-0.4c-0.3-0.1-0.5-0.3-0.7-0.5
		c-0.1-0.1-0.2-0.2-0.3-0.2c-0.2-0.1-0.4-0.2-0.5-0.4c-0.1-0.2-0.3-0.3-0.5-0.4c-0.4-0.2-0.8-0.4-1-0.7c-0.1-0.1-0.2-0.3-0.1-0.5
		c0.1-0.3,0.1-0.3-0.2-0.4c-0.3-0.2-0.5-0.3-0.8-0.5c-0.4-0.3-0.7-0.6-0.5-1.1c0-0.1,0-0.2-0.1-0.2c-0.1-0.1-0.2-0.2-0.3-0.2
		c-0.2-0.1-0.4-0.3-0.5-0.4c-0.4-0.4-0.6-0.8-0.8-1.4c-0.1-0.3,0-0.4,0.4-0.4c0.4,0.1,0.7,0.3,0.9,0.6c0.3,0.4,0.5,0.7,0.7,1.2
		c0.1,0.2,0.2,0.4,0.5,0.6c0.1,0,0.1,0.1,0.2,0.2c0.3,0.3,0.5,0.7,0.7,1c0.1,0.2,0.3,0.4,0.5,0.6c0.2,0.1,0.4,0.3,0.6,0.5
		c0.3,0.3,0.5,0.6,0.8,0.8c0,0,0.1,0.1,0.1,0.1c0.2,0.1,0.4,0.3,0.5,0.5c0.1,0.2,0.3,0.3,0.5,0.4c0.2,0.1,0.4,0.2,0.5,0.5
		c0.1,0.2,0.3,0.3,0.5,0.4c0.2,0.1,0.3,0.2,0.4,0.3c0.1,0.1,0.2,0.3,0.3,0.4c0.1,0.1,0.1,0.1,0.2,0.2c0.3,0.1,0.4,0.2,0.5,0.5
		c0.1,0.2,0.2,0.4,0.4,0.5c0.1,0.1,0.2,0.2,0.3,0.4c0.1,0.1,0.1,0.2,0.3,0.3c0.1,0.1,0.2,0.2,0.3,0.3c0.1,0.1,0.2,0.2,0.3,0.3
		c0.1,0.1,0.2,0.1,0.3,0.3c0.1,0.1,0.2,0.2,0.4,0.2c0.4,0,0.7,0.1,1,0.2c0.2,0.1,0.3,0.2,0.5,0c0.1,0,0.2,0,0.2,0
		c0.4-0.1,0.8-0.2,1.1-0.4c0.1-0.1,0.3-0.2,0.5-0.1c0,0,0.1,0,0.1,0c0.3,0,0.6-0.1,0.9-0.1c0.1,0,0.2,0,0.4,0c0.2,0,0.4,0,0.5,0.1v0
		c0.1,0,0.1,0,0.2,0c0.1,0,0.1,0,0.2,0v0c0.2,0,0.4,0,0.5-0.1c0.1,0,0.2,0,0.4,0c0.3,0,0.6,0.1,0.9,0.1c0,0,0.1,0,0.1,0
		c0.2-0.1,0.3,0,0.5,0.1c0.3,0.2,0.7,0.4,1.1,0.4c0.1,0,0.2,0,0.2,0c0.2,0.1,0.4,0.1,0.5,0c0.3-0.2,0.6-0.3,1-0.2
		c0.2,0,0.3,0,0.4-0.2c0.1-0.1,0.2-0.2,0.3-0.3c0.1-0.1,0.3-0.2,0.3-0.3c0.1-0.1,0.2-0.2,0.3-0.3c0.1-0.1,0.2-0.2,0.3-0.3
		c0-0.1,0.1-0.3,0.3-0.4c0.2-0.1,0.3-0.3,0.4-0.5c0.1-0.3,0.2-0.4,0.5-0.5c0.1,0,0.2-0.1,0.2-0.2c0.1-0.1,0.2-0.3,0.3-0.4
		c0.1-0.2,0.2-0.3,0.4-0.3c0.2-0.1,0.3-0.2,0.5-0.4c0.1-0.2,0.3-0.4,0.5-0.5c0.2-0.1,0.3-0.2,0.5-0.4c0.1-0.2,0.3-0.4,0.5-0.5
		c0.1,0,0.1-0.1,0.1-0.1c0.3-0.3,0.5-0.6,0.8-0.8c0.2-0.2,0.4-0.4,0.6-0.5c0.2-0.1,0.4-0.3,0.5-0.6c0.2-0.4,0.4-0.7,0.7-1
		c0.1-0.1,0.1-0.1,0.2-0.2c0.2-0.1,0.4-0.3,0.5-0.6c0.2-0.4,0.4-0.8,0.7-1.2c0.2-0.3,0.5-0.5,0.9-0.6c0.3-0.1,0.4,0.1,0.4,0.4
		c-0.1,0.5-0.4,1-0.8,1.4c-0.2,0.2-0.3,0.3-0.5,0.4c-0.1,0.1-0.2,0.2-0.3,0.2c-0.1,0.1-0.1,0.1-0.1,0.2c0.2,0.5,0,0.8-0.5,1.1
		c-0.3,0.2-0.5,0.3-0.8,0.5c-0.2,0.1-0.3,0.2-0.2,0.4c0.1,0.2,0,0.3-0.1,0.5c-0.3,0.3-0.7,0.5-1,0.7c-0.2,0.1-0.4,0.2-0.5,0.4
		c-0.1,0.2-0.3,0.4-0.5,0.4c-0.1,0-0.3,0.1-0.3,0.2c-0.2,0.2-0.4,0.4-0.7,0.5c-0.2,0.1-0.3,0.2-0.4,0.4c-0.1,0.1-0.1,0.2-0.2,0.3
		c-0.3,0.2-0.5,0.5-0.7,0.8c0,0.1-0.1,0.1-0.1,0.1c-0.1,0.2-0.3,0.3-0.4,0.5c-0.1,0.1-0.2,0.3-0.3,0.4c-0.2,0.2-0.3,0.4-0.5,0.5
		c-0.1,0.1-0.3,0.2-0.5,0.3c-0.1,0.1-0.2,0.1-0.2,0.3c0,0.2-0.1,0.3-0.3,0.3c-0.1,0.1-0.3,0.2-0.4,0.3c-0.2,0.2-0.4,0.4-0.6,0.5
		c-0.1,0-0.1,0.1-0.2,0.1c0.2,0.1,0.3,0.2,0.4,0.3c0.2,0.1,0.3,0.2,0.4,0.4c0.2,0.2,0.3,0.4,0.5,0.5c0,0,0.1,0,0.1,0
		c0.1,0.3,0.5,0.6,0.5,1c0,0.2,0.1,0.3,0.1,0.5c0.1,0.2,0.2,0.3,0.3,0.5c0.1,0,0.1,0,0.3-0.1c-0.2,0.2-0.1,0.3,0,0.4
		c0.3,0.3,0.5,0.6,0.8,0.9c0.1,0.1,0.1,0.2,0.2,0.3c0,0.1,0.1,0.2,0.1,0.3c0.1,0.1,0.3,0.2,0.3,0.4c0,0.1,0.1,0.1,0.2,0.2
		c0.2,0.1,0.3,0.2,0.4,0.3c0.2,0.2,0.5,0.2,0.8-0.1c0.1-0.1,0.2-0.2,0.3-0.3c0.2-0.1,0.5-0.3,0.7-0.4c0.3-0.1,0.4-0.3,0.6-0.4
		c0.1-0.1,0.2-0.2,0.3-0.3c0.2-0.2,0.4-0.5,0.5-0.8c0-0.1,0.1-0.2,0.2-0.3c0.1-0.1,0.2-0.2,0.2-0.4c0-0.1,0.1-0.2,0.1-0.3
		c0-0.1,0.1-0.2,0.3-0.3c0.1,0,0.2-0.1,0.2-0.2c0.1-0.2,0.3-0.4,0.4-0.6c0.1-0.1,0.2-0.3,0.2-0.4c0.1-0.1,0.2-0.2,0.2-0.3
		c0.1-0.1,0.2-0.2,0.4-0.3c0,0,0.1,0,0.1,0.1c0.1,0.2,0.2,0.3,0.4,0.5c0.2,0.2,0.1,0.4-0.1,0.6c-0.1,0.1-0.2,0.2-0.4,0.3
		c-0.2,0.1-0.2,0.2,0,0.3c0,0,0.1,0,0.1,0.1c0.2,0.1,0.2,0.3,0.1,0.5c-0.2,0.2-0.3,0.4-0.5,0.6c-0.2,0.2-0.4,0.4-0.5,0.7
		c-0.1,0.2-0.3,0.4-0.4,0.6c-0.1,0.1-0.2,0.2-0.3,0.4c-0.1,0.2-0.3,0.4-0.4,0.6c-0.1,0.1-0.2,0.3-0.3,0.4C53.1,27.7,53,28,53,28.3
		c0,0.1-0.1,0.3-0.1,0.4c0,0.1,0.1,0.3,0.1,0.4c0,0.3,0,0.6-0.1,0.9c-0.1,0.3-0.2,0.6-0.5,0.8c-0.1,0-0.1,0.1-0.1,0.2
		c-0.1,0.3-0.1,0.6-0.2,0.8c-0.2,0.5-0.4,0.9-0.9,1.1c-0.2,0.1-0.3,0.2-0.5,0.3c0.2,0.2,0.1,0.4-0.1,0.7c-0.1,0.1-0.2,0.3-0.2,0.5
		c0.1,0.1,0.2,0.3,0.2,0.5c0,0,0.1,0.1,0.1,0.1c0.1,0.1,0.3,0.2,0.3,0.4c0.1,0.2,0.2,0.3,0.4,0.3c0.4,0,0.9,0,1.3,0.1
		c0.5,0,0.8,0.3,1,0.7c0.1,0.4,0.4,0.7,0.7,1c0.2,0.2,0.3,0.4,0.4,0.7c0.1,0.5,0.1,1.1,0.2,1.6c0,0.1,0,0.1,0,0.2c0,0.1,0,0.2,0,0.3
		c0.1,0.7,0.1,1.4,0.2,2.1c0,0.1,0,0.2,0.1,0.3c0.2,0.3,0.2,0.6,0.1,0.9c-0.1,0.3,0,0.4,0.2,0.6c0.2,0.2,0.3,0.4,0.5,0.5
		c0.1,0.1,0.3,0.2,0.5,0.3c0.3,0.1,0.5,0.3,0.7,0.6c0,0.1,0.1,0.1,0.2,0.2c0.2,0,0.3,0.1,0.3,0.3c0.1,0.1,0.2,0.2,0.4,0.2
		c0.2,0,0.4,0.1,0.5,0.3c0.2,0.2,0.4,0.4,0.6,0.6c0.1,0.1,0.2,0.2,0.3,0.3c0.2,0.2,0.2,0.4,0,0.6c0,0.1-0.1,0.1-0.2,0.1
		c-0.2,0.2-0.3,0.2-0.5-0.1c-0.1-0.2-0.3-0.4-0.6-0.4c-0.2-0.1-0.5-0.1-0.7-0.3c-0.2-0.1-0.5-0.2-0.8-0.3c-0.2,0-0.3-0.1-0.5-0.1
		c-0.1,0-0.1-0.1-0.2-0.1c-0.2-0.2-0.3-0.3-0.5-0.5c-0.1-0.1-0.2-0.2-0.4-0.3c-0.6-0.2-1-0.7-1.3-1.2c-0.1-0.2-0.3-0.4-0.5-0.6
		c-0.2-0.2-0.5-0.3-0.7-0.5c-0.2-0.1-0.4-0.1-0.4,0.2c0,0.1-0.1,0.2-0.1,0.2c0,0.1,0,0.1,0,0.2c-0.2,0.1-0.2,0.1-0.2,0.3
		c0,0.2,0,0.4,0.1,0.6c0,0.1,0,0.3,0,0.4c0,0.2,0,0.4,0.1,0.7c0,0.1,0,0.2,0,0.2c0,0.3,0,0.5,0,0.8c0,0.3,0,0.6,0,0.9
		c0,0.1,0,0.2,0,0.3c0,0,0,0.1,0,0.1c0,0.4,0.2,0.6,0.6,0.8c0.4,0.2,0.7,0.4,1.1,0.6c0.5,0.2,0.8,0.6,0.9,1.2c0,0.2,0.1,0.4,0.2,0.6
		c0.2,0.4,0.4,0.7,0.4,1.1c0.1,0.5,0,1.1,0.1,1.6c0,0.1,0,0.2,0,0.2c-0.1,0.3-0.1,0.6,0,0.9c0,0.3,0,0.6,0,1c0,0.4,0.1,0.7,0.2,1.1
		c0,0.1,0,0.2,0,0.3c0,0.2,0.1,0.3,0.2,0.4c0.2,0.2,0.5,0.5,0.7,0.7c0.1,0.1,0.3,0.2,0.4,0.3c0.1,0.1,0.2,0.1,0.3,0.2
		c0,0,0,0,0.1,0.1c0.4,0.2,0.8,0.5,1.2,0.7c0.2,0.1,0.4,0.3,0.5,0.5c0.1,0.3,0.3,0.4,0.5,0.5c0,0,0.1,0.1,0.1,0.1
		C60.1,62.3,60.2,62.3,59.9,62.7z"/>
	<path fill="#102e52" class="pest-search__item-icon" d="M53.3,52.5c-0.2-0.1-0.3-0.1-0.3,0.1c0,0.1,0,0.2,0,0.3c0,0.3,0.1,0.5,0,0.8c0,0,0,0.1,0,0.1
		c0,0.2,0.1,0.5,0.1,0.7c0,0,0,0.1,0,0.1c0.1,0.3,0.1,0.6,0.1,0.9c0,0.2,0,0.4,0,0.5c0,0.1,0.1,0.2,0.2,0.2c0-0.1,0-0.1,0-0.2
		c0.1-0.3,0.1-0.7,0.2-1c0.1-0.4,0.2-0.8,0.2-1.1c0.1-0.3,0.1-0.7,0.4-1c0,0,0-0.1,0-0.1c-0.3-0.1-0.5-0.2-0.7-0.3
		C53.4,52.7,53.3,52.6,53.3,52.5z"/>
	<path fill="#102e52" class="pest-search__item-icon" d="M52.3,41.3c0,0.1,0,0.2,0,0.3c0,0.2,0.1,0.4,0.1,0.5c0,0.1,0,0.1,0,0.2c0.1-0.1,0.1-0.1,0.1-0.2
		c0.3-0.7,0.4-1.4,0.5-2.2c0.1-0.5,0.1-0.9,0.3-1.4c0,0,0,0,0-0.1c0,0-0.1,0-0.1,0c-0.2,0.1-0.4,0.1-0.6,0c-0.2,0-0.4-0.1-0.6-0.1
		c-0.2,0-0.2,0.1-0.2,0.2c0,0.1,0,0.2,0,0.3c0,0.3,0,0.6,0.1,0.8c0.1,0.2,0.2,0.3,0.2,0.5C52.4,40.6,52.4,40.9,52.3,41.3z"/>
	<path fill="#102e52" class="pest-search__item-icon" d="M52.3,42.7c0.1,0.1,0.1,0.2,0.2,0.3c0,0,0,0,0.1,0C52.5,42.8,52.5,42.8,52.3,42.7z"/>
</g>
</svg>
