<?xml-stylesheet type="text/css" href="/CMS_Themes/Default/Css/pest-icons.css" ?>
<svg version="1.1" id="Layer_1" xmlns="http://www.w3.org/2000/svg" viewBox="0 0 82.3 82.3" width="100%" height="100%">
<g>
	<path fill="#102e52" class="pest-search__item-icon" d="M17,53.9c-0.3,0.7-0.9,1.7-0.7,1.9c0.6,0.7,1.6,1.1,2.7,1.7c-0.6-1.5-1-2.5-1.4-3.5C17.4,54.1,17.2,54,17,53.9
		z"/>
	<path fill="#102e52" class="pest-search__item-icon" d="M41.2,0C18.4,0,0,18.4,0,41.2c0,22.7,18.4,41.2,41.2,41.2s41.2-18.4,41.2-41.2C82.3,18.4,63.9,0,41.2,0z
		 M67.9,44.5c-2.2,0.5-4.5,0.9-6.7,1.2C59,46,57.4,47.3,57,49.4c-0.1,0.4-0.2,1.1,0,1.3c1.8,1.6,0.7,2.2-0.8,2.8
		c-0.3,0.1-0.6,0.5-0.7,0.8c-1,2.5,1.1,7,3.7,7.9c0.7,0.2,1.3,0.6,2.1,0.9c-1.2,1.4-4.3,1.7-5.4,0.7c-1-1-1.8-2.2-2.4-3.6
		c-1-2.3-2.9-4.2-4.6-6.2c-0.3-0.3-1.1-0.3-1.6-0.2c-3.3,0.7-5.7,2.5-7.6,5.8c1,0.2,1.7,0.4,2.5,0.5c3,0.2,6,0.2,8.9,0.4
		c0.5,0,1,0.5,1.5,0.8c-0.4,0.4-0.8,1.1-1.3,1.1c-1.5,0.2-3,0.1-4.5,0.1c-4.5-0.1-8.9,0-13.3-1.6c-2.8-1-6.1-1-9.4-1.5
		c0.9,4.3,5.1,2.2,7,4.1c-0.2,1.7-1.5,1.8-2.7,1.7c-2.2-0.1-4.4-0.5-6.7-0.7c-0.1-0.5-0.1-1-0.2-1.5c-0.2-1.5-0.8-2.5-2.5-2.5
		c-0.9,0-1.8-0.3-2.6-0.6c-3.3-1.3-4.2-4.8-1.2-6.8c3.4-2.3,4.9-5.2,5.2-9.1c0.4-5.2,3.1-9.4,6.5-13c3.8-4.1,8.5-5.9,14.1-4.4
		c0.2,0.1,0.5,0.1,0.7,0.1c0.1,0,0.2-0.1,0.4-0.2c-0.2-1.5-0.5-2.9-0.7-4.4c-0.2-2.9,2.3-5,5.2-4.3c2.2,0.5,3.7,1.8,4.6,3.9
		c1.1,2.5,2.5,2.6,4.1,0.3c0.9-1.2,1.5-2.6,2.5-4.3c0.4,0.8,0.7,1.2,0.8,1.6c0.3,2,0.5,4.1,0.9,6.1c0.1,0.7,0.6,1.5,1.2,2.1
		c3.3,3,6.3,6.3,8.2,10.3c0.5,1,0.9,2.1,1,3.2C70.2,42.7,69.6,44.1,67.9,44.5z"/>
</g>
</svg>
