<?xml version="1.0" encoding="utf-8"?>
<!-- Generator: Adobe Illustrator 21.0.2, SVG Export Plug-In . SVG Version: 6.00 Build 0)  -->
<svg version="1.1" id="Layer_1" xmlns="http://www.w3.org/2000/svg" xmlns:xlink="http://www.w3.org/1999/xlink" x="0px" y="0px"
	 viewBox="0 0 82.3 82.3" style="enable-background:new 0 0 82.3 82.3;" xml:space="preserve">
<style type="text/css">
	.st0{fill:#38AD56;}
</style>
<path fill="#102e52" class="st0" d="M41.2,0C18.4,0,0,18.4,0,41.2c0,22.7,18.4,41.2,41.2,41.2s41.2-18.4,41.2-41.2C82.3,18.4,63.9,0,41.2,0z
	 M70.5,40c-1.6,2.3-4.3,2.4-6.8,2.4c-2.6,0-5.2-0.3-7.8-0.4c-0.5,0-1,0-1.4,0.2c2.7,0.3,5.5,0.4,8.2,0.8c1.5,0.2,3,0.7,4.3,1.3
	c1.6,0.8,1.8,1.7,0.5,3c-1.4,1.4-3,2.7-4.6,4c-2.2,1.9-4.5,3.8-6.8,5.5c-0.7,0.6-1.7,0.8-2.6,1.1c-1.1,0.4-2.1,0.7-3.2,1
	c0.2,1,0.4,1.9,0.6,2.8c-0.1,0.1-0.3,0.1-0.4,0.2c-0.3-1.8-1-2.8-3-2.8c-0.9,0-1.8-1.4-2.8-2.2c0,1.9,0.1,4,0,6
	c-0.1,2-0.6,3.9-2.8,4.8c4-4.1,1.7-8.5,0.8-12.8c-0.1,1.2-0.2,2.4-0.4,3.6c-0.2,1.3-0.5,2.6-0.9,3.8c-0.1,0.2-0.2,0.4-0.4,0.6v0.4
	c-0.1-0.1-0.1-0.1-0.2-0.2c-0.1,0.1-0.1,0.1-0.2,0.2v-0.4c-0.2-0.2-0.3-0.4-0.4-0.6c-0.4-1.2-0.7-2.5-0.9-3.8
	c-0.2-1.2-0.3-2.5-0.4-3.6c-1,4.3-3.3,8.7,0.8,12.8c-2.1-0.9-2.7-2.7-2.8-4.8c-0.1-2,0-4.1,0-6c-1,0.8-1.9,2.2-2.8,2.2
	c-2,0-2.8,0.9-3,2.8c-0.1-0.1-0.3-0.1-0.4-0.2c0.2-0.9,0.4-1.8,0.6-2.8c-1-0.3-2.1-0.6-3.2-1c-0.9-0.3-1.9-0.5-2.6-1.1
	c-2.3-1.8-4.5-3.7-6.8-5.5c-1.6-1.3-3.1-2.6-4.6-4c-1.3-1.3-1.1-2.3,0.5-3c1.4-0.6,2.8-1.1,4.3-1.3c2.7-0.4,5.5-0.6,8.2-0.8
	c-0.5-0.2-1-0.3-1.4-0.2c-2.6,0.1-5.2,0.4-7.8,0.4c-2.5,0-5.1-0.1-6.8-2.4c-1.2-1.7-2.4-3.5-3.1-5.4c-1.2-2.8-0.3-3.9,2.8-4.2
	c0.6-0.1,1.3-0.1,1.9,0c2.8,0.5,5.7,0.8,8.2,1.8c5.5,2.2,11.7,3,16.7,6.8c-0.3-0.8-0.6-1.4-1.1-1.9c-1.1-1-2.2-1.9-3.3-2.8
	c0.1-0.1,0.3-0.3,0.4-0.4c1.9,1.6,3.8,3.3,5.5,4.7c0.5-2-1.3-2.9-2.9-4c-3.1-2.2-5.9-4.5-8-7.7c-1.3-2-2.5-4.2-2.1-6.8
	c0.4,3.7,2.4,6.6,4.9,9.1c2.5,2.4,5.3,4.5,7.9,6.7c0.1-0.1,0.2-0.3,0.3-0.4c-0.1-0.3-0.2-0.6-0.4-1.4c1,0.7,1.6,1.2,2.1,1.6
	c0.5-0.4,1.2-0.9,2.1-1.6c-0.2,0.8-0.3,1.1-0.4,1.4c0.1,0.1,0.2,0.3,0.3,0.4c2.7-2.2,5.5-4.3,7.9-6.7c2.5-2.5,4.4-5.4,4.9-9.1
	c0.3,2.6-0.8,4.7-2.1,6.8c-2.1,3.2-5,5.6-8,7.7c-1.6,1.1-3.4,2-2.9,4c1.7-1.5,3.6-3.1,5.5-4.7c0.1,0.1,0.3,0.3,0.4,0.4
	c-1.1,0.9-2.3,1.8-3.3,2.8c-0.5,0.5-0.9,1.2-1.1,1.9c5-3.8,11.2-4.6,16.7-6.8c2.6-1,5.5-1.3,8.2-1.8c0.6-0.1,1.2-0.1,1.9,0
	c3.1,0.3,3.9,1.3,2.8,4.2C72.9,36.5,71.7,38.3,70.5,40z"/>
</svg>
