<?xml-stylesheet type="text/css" href="/CMS_Themes/Default/Css/pest-icons.css" ?>
<svg version="1.1" id="Layer_1" xmlns="http://www.w3.org/2000/svg" viewBox="0 0 82.3 82.3" width="100%" height="100%">
<g>
	<path fill="#102e52" class="pest-search__item-icon" d="M61.7,51.1c0.5-1.4,1-2.9,1.5-4.4c-0.1-0.1-0.2-0.3-0.3-0.5c-0.2,0.2-0.5,0.3-0.6,0.6
		c-0.1,0.2-0.1,0.6-0.2,0.9c-0.2,1.1-0.5,2.1-0.7,3.2c0,0.2,0.1,0.4,0.1,0.5C61.6,51.2,61.7,51.2,61.7,51.1z"/>
	<path fill="#102e52" class="pest-search__item-icon" d="M43.2,46.2c0.1,0.3,0.2,0.5,0.3,0.7c0-0.1,0.1-0.2,0.1-0.2c-0.1-0.3-0.1-0.7-0.3-1.3
		C43.3,45.9,43.2,46.1,43.2,46.2z"/>
	<path fill="#102e52" class="pest-search__item-icon" d="M41.2,0C18.4,0,0,18.4,0,41.2s18.4,41.2,41.2,41.2s41.2-18.4,41.2-41.2S63.9,0,41.2,0z M73.5,36
		c0,0.8,0.5,1.8-1,1.5c0,0-0.2,0.5-0.3,0.8c0,0.2-0.1,0.5,0,0.7c0.6,0.8-1,0.7-0.6,1.4c0.1,0.2-0.7,0.6,0.2,0.7c0,0.1,0,0.2,0,0.2
		c-0.8,0.6-1.5,1.3-2.3,1.8l0,0l-0.1,0c-0.2,0.1-0.3,0.2-0.5,0.3c-0.4,0.2-0.7,0.2-1.1,0.2l0,0l0,0c-0.7-0.1-1.4-0.6-1.8-1.3
		c-0.8-1.4-1.6-2.8-2.5-4.2c-0.1-0.2-0.6-0.4-0.6-0.4c-0.3,0.3-0.5,0.6-0.7,0.9c-0.1,0.2-0.2,0.4-0.3,0.6c0-0.1-0.1-0.3-0.1-0.4
		c-0.1,0.1-0.2,0.1-0.2,0.2c-0.2,2.3-2.3,3.4-3.4,5.1c-0.1,0.1-0.1,0.2-0.2,0.3c0.1,0,0.2,0.1,0.4,0.1c0.3,0,0.5,0,0.8,0
		c0,0,0,0,0,0.1c0.9-0.1,1.8-0.2,2.6-0.4c0.2,0,0.4-0.3,0.5-0.4c0.1-0.1,0.3-0.1,0.3,0c2,1.5,1.4,3.6,1.1,5.6
		c-0.2,1.3-0.3,2.7-0.9,3.8c-0.8,1.5,0,2.5,0.5,3.7c0.1,0.3,0.9,1-0.2,1.2c0,0-0.1,0.2,0,0.3c0.3,1.5,0.5,3,0.8,4.6
		c0.1,0.3,0.2,0.5,0.3,0.8c0.3,0.8,0.6,1.5,0.8,2.3c0,0.1,0,0.1,0,0.2c-0.3,0-0.6,0.1-0.7-0.1c-0.3-0.3-0.7-0.8-0.8-1.2
		c-0.2-1.2-0.3-2.3-0.5-3.5c-0.1-0.7-0.3-1.3-0.4-2c-0.4-1.4-0.9-2.8-1.2-4.3c-0.4-1.8-0.8-3.6-1-5.5c-0.1-0.7,0.4-1.5,0.6-2.2
		c0.1-0.2,0.1-0.6,0-0.7c-0.1-0.1-0.5-0.2-0.7-0.1c-2.2,0.9-4.5,0.8-6.7,0.3c-0.4-0.1-0.7-0.6-1-1c-0.1-0.1-0.1-0.3-0.2-0.4
		c-0.1,0.1-0.3,0.2-0.3,0.4c0,0.5-0.1,1,0.1,1.4c0.3,0.8,1.2,1.5-0.2,2.1c-0.1,0,0,0.5,0.1,0.7c1,1,1.9,2.2,1.9,3.7
		c0,0.1,0.1,0.2,0.3,0.3c0.2,0.1,0.4,0.2,0.6,0.3c-0.2,0-0.4,0-0.6,0c0,0.2,0,0.4,0,0.5c1.5,2.4,3.1,4.8,4.7,7.2
		c0.9,1.4,1.9,2.7,2.9,4.1c0,0,0.1,0,0.1,0.1c0.3,0.3,0.6,0.5,0.8,0.8c-0.4-0.2-0.8-0.3-1.2-0.5c-0.5-0.4-0.9-1-1.5-1.3
		c-0.9-0.4-0.9-1.5-1.5-2c-0.8-0.7-1-1.6-1.6-2.4c-1.1-1.6-2.1-3.2-3.1-4.9c-1-1.8-1.9-3.6-2.8-5.4c-0.4-0.7-0.9-1.4-1.5-2.1
		c-0.1-0.1-0.5,0-0.7,0c0,0.1,0,0.3,0.1,0.4c0.2,0.3,0.3,0.5,0.5,0.8c-0.1,0-0.3,0-0.4,0c-0.3-0.4-0.5-0.8-0.7-1.2
		c-0.1-0.1,0-0.3-0.1-0.5c-0.1-0.8-0.2-1.6-0.3-2.5c0-0.1,0-0.2,0-0.4c-0.1,0.1-0.2,0.1-0.3,0.2c-0.5,0.7-1,1.4-1.6,2
		c-0.8,0.8-1.8,1.5-2.8,2c-1,0.5-1.5-0.2-1.8-1.1c-0.2-0.7-0.6-1.3-0.9-1.9c0-0.1-0.2-0.1-0.3-0.2c-0.1,0.1-0.2,0.2-0.2,0.3
		c-0.2,2-1.1,3.6-2.3,5.2c0,0,0,0,0,0.1c-0.1,0.3-0.2,0.5-0.3,0.8c0-0.4-0.1-0.9,0.1-1.2c0.5-1.1,1-2.1,1.6-3.1
		c0.1-0.2,0.1-0.4,0.1-0.6c-0.4,0-0.7,0-1.1,0c0.1,0.1,0.4,0.4,0.3,0.4c-0.5,0.6-1,1.3-1.5,1.9c-0.5,0.6-1.1,1.1-1.6,1.7
		c-0.5,0.6-1.1,1.2-1.4,2c-0.7,1.5-1.4,3-2,4.5c-1,2.8-2,5.6-4,7.8c-0.2,0.2-0.5,0.3-0.8,0.5c0.1-0.3,0.2-0.6,0.4-0.8
		c1.7-2,2.6-4.3,3.2-6.8c0.4-1.7,1-3.3,1.5-4.9c0-0.1-0.1-0.3-0.2-0.3c-0.2,0-0.4,0-0.5,0.1c-1,0.4-1.7,0.7-2.8-0.2
		c-0.9-0.7-1.2-1.5-1.5-2.4c-0.1-0.5-0.6-0.9-0.7-1.4c-0.1-0.5,0.1-1.1,0-1.7c-0.5-2.4,0.8-4.2,1.7-6.2c0.1-0.3,0.3-0.7,0.4-1
		c0,0-0.1-0.2-0.1-0.2c-0.2,0.1-0.3,0.1-0.5,0.2c0.2-0.1,0.4-0.3,0.5-0.4c0.8-0.8,1.5-1.5,2.3-2.3c0.1-0.1,0.1-0.2,0.1-0.3
		c-0.1,0-0.3,0-0.4,0c-2.1,0.5-4.1,1.1-6.2,1.6c-0.3,0.1-0.6-0.1-0.9-0.1c-0.1,0-0.3-0.1-0.4,0c-1.8,0.9-3.8,0.5-5.7,0.9
		c-1.7,0.3-3.4,0.5-5.2,0.6c-3,0.1-6.1,0.4-9.1-0.4c-0.4-0.1-0.8-0.4-1.1-0.7c0.3-0.3,0.6-0.8,1-0.9L7,36.3l9.2-3.8l11-3.4l6-1
		l2.6,0.2c0.1-0.2,0.3-0.1,0.5,0l4.7,0.3c0.6,0,1.2,0,1.8,0c0.1,0,0.1-0.2,0.2-0.3c0-0.1,0-0.2,0-0.2c1-0.2,2-0.4,2.9-0.6
		c0.2,0,0.9,0.2,0.4-0.5c0,0,0-0.1,0-0.1c0.1,0,0.2,0,0.2,0.1c1.5,0.9,3,0.1,4.5-0.1c0.1,0,0.2-0.2,0.3-0.3
		c-0.2-0.1-0.4-0.3-0.6-0.4c-0.3-0.1-0.6-0.3-0.8-0.4c0,0,0-0.1,0-0.1c0.3,0.1,0.7,0.1,1,0.4c0.9,0.8,2,0.5,2.8,0.3
		c2-0.5,3.5,0.6,5.1,1.3c1,0.4,1.9,1.1,2.8,1.8c0.3,0.2,0.4,0.8,0.7,1.1c0.1,0.1,0.2,0.2,0.3,0.3c0.1-0.1,0.2-0.3,0.3-0.4
		c0.2-0.4,0.3-0.9,0.5-1.3c0.1-0.1,0.5-0.1,0.8,0c1.4,0.2,2.9,0.4,4.3,0.8c0.5,0.2,0.9,0.9,1.3,1.4c0.2,0.2,0.4,0.3,0.6,0.3
		c0.6,0.1,1.4-0.1,1.6,0.1c0.5,0.7,1.2,1.7,1,2.3c-0.2,0.9,0.5,0.6,0.6,0.9c0,0.1,0,0.2,0,0.2C72.6,35.2,73.5,35.8,73.5,36z"/>
</g>
</svg>
