<?xml-stylesheet type="text/css" href="/CMS_Themes/Default/Css/pest-icons.css" ?>
<svg version="1.1" id="Layer_1" xmlns="http://www.w3.org/2000/svg" viewBox="0 0 82.3 82.3" width="100%" height="100%">
<path fill="#102e52" class="pest-search__item-icon" d="M41.2,0C18.4,0,0,18.4,0,41.2s18.4,41.2,41.2,41.2s41.2-18.4,41.2-41.2S63.9,0,41.2,0z M66.8,51.7
	c-1.9,0.9-4.1,1.5-6.2,1.9c-2.2,0.4-4.5,0.5-6.9,0.7c1.4,2.1,1.4,2.1,3.5,1.4c0.5-0.1,0.9-0.3,1.4-0.5c2-0.7,3.9-1.1,6,0.2
	c1.2,0.8,2.7,1.1,4.3,1.8c-0.3,0.1-0.6,0.3-0.8,0.3c-0.7-0.1-1.5-0.2-2.1-0.6c-2.3-1.3-4.7-0.9-7.1-0.6c-1.7,0.2-3.4,0.5-5.1,0.4
	c-0.9-0.1-1.9-0.9-2.7-1.6c-0.7-0.7-1.4-1-2.4-1c-2.7-0.1-5.3-0.3-8-0.4c-0.5,0-1.1,0.3-1.4,0.6c-0.2,0.2-0.4,0.9-0.2,1.2
	c0.1,0.2,0.7,0.3,1.1,0.3c0.6,0,1.2-0.1,1.9,0c1.8,0.2,3.6-0.2,5.2,1.3c1.2,1.1,3.1,1.6,4.9,2.5c-0.5,0.1-0.8,0.3-1,0.3
	c-0.5-0.1-0.9-0.3-1.3-0.5c-3.1-1.6-6.6-1.9-10-2.5c-0.8-0.2-1.6-0.5-2.4-0.8c-0.3-0.1-0.8-0.6-0.7-0.8c0.5-2.2-1.7-2.5-2.5-3.9
	c-1.1,0.5-2.3,0.8-2.8,2.3c-0.3,0.7-1.2,1.4-2,1.8c-1.7,0.9-3.4,2.1-5.2,2.5c-1.7,0.4-2.5,1.6-3.7,2.6c-0.3,0.2-0.6,0.3-0.9,0.4
	c-0.1-0.1-0.2-0.3-0.2-0.4c0.6-0.6,1.3-1.2,1.8-1.9c0.4-0.6,0.6-1.3,1.1-1.9c0.4-0.5,1.1-0.9,1.7-1.1c1.5-0.4,3-0.5,4.5-0.9
	c0.4-0.1,0.6-0.6,0.9-1c-0.4-0.2-0.8-0.7-1.2-0.6c-1.9,0.2-3.8,0.3-5.6-0.7c-1.1-0.6-2.1-1.2-2-2.7c-0.3,0-0.5-0.2-0.6-0.1
	c-1.5,1.1-2.7,0.4-3.9-0.5c-0.7-0.5-1.3-0.5-1.9,0.1c-1.1,1.1-2.1,2.1-3.2,3.1c-0.4,0.4-0.8,0.7-1.3,0.9c-0.3,0.1-1,0.1-1.1-0.1
	c-0.2-0.4-0.3-1-0.2-1.4c0.3-0.5,0.8-0.8,1.3-1c1.3-0.7,2.5-1.4,3.8-2.1c1-0.5,0.9-1.1,0.4-1.9c-1.7-2.5-1.3-4.9,0.3-7.2
	c0.4-0.6,0.4-1-0.3-1.4c-1.4-0.7-2.7-1.5-4.1-2.2c-0.4-0.3-1-0.5-1.2-0.9c-0.2-0.4-0.2-1,0-1.4c0.1-0.2,0.8-0.3,1.2-0.2
	c0.4,0.1,0.8,0.5,1.2,0.8c1.2,1.2,2.4,2.4,3.7,3.5c0.3,0.2,1,0.3,1.2,0.1c1.4-1.3,2.8-1.5,4.3-0.3c0.1,0.1,0.3,0,0.4,0.1
	c1.2-2.9,3.9-4,7.7-3.2c1.1,0.2,1.5,0,1.6-1.2c-1.7-0.5-3.5-0.9-5.2-1.5c-1.1-0.4-2.2-0.6-2.4-2.3c-0.1-1-1.4-1.8-2.1-2.8
	c-0.2-0.3-0.1-0.7-0.2-1.1c0.1,0,0.3,0,0.4-0.1c0.4,0.6,0.8,1.2,1.3,1.6c2,1.9,4.4,3.2,6.9,4.4c1.6,0.8,2.9,1.7,3.7,3.4
	c0.5,1.2,1.8,1.3,2.8,0.6c1-0.7,1.6-1.5,1.9-2.8c0.2-0.8,1.6-1.5,2.5-1.8c1.7-0.5,3.5-1,5.2-1c2.7,0,4.9-1,7.2-2.1
	c0.1,0.1,0.2,0.3,0.3,0.4c-0.2,0.2-0.4,0.6-0.6,0.7c-1.7,0.9-3.3,1.8-5,2.6c-0.5,0.2-1.2,0.2-1.8,0.3c-1.5,0.1-3,0-4.4,0.1
	c-0.4,0-1.1,0.5-1.1,0.8c0,0.8,0.5,1.2,1.4,1.2c2.1-0.1,4.3-0.1,6.4-0.2c0.7,0,1.4,0,2.1,0c0.9,0.1,1.5-0.2,2-1
	c0.7-1.1,1.7-1.8,3.1-1.6c3.1,0.3,6.1,0.6,9.2,0.9c0.4,0,0.8-0.2,1.2-0.3c1.4-0.5,2.7-1.1,4.1-1.6c0.1,0.2,0.2,0.4,0.3,0.6
	c-1.2,0.6-2.4,1.1-3.5,1.8c-2.4,1.4-4.7,1.3-7.2,0.2c-0.4-0.2-0.8-0.3-1.2-0.4c-2-0.6-2-0.6-3.1,1.6c1.9,0.2,3.7,0.4,5.5,0.7
	c2.7,0.4,5.5,0.8,7.8,2.5c2.6,1.9,4.7,4.3,4.2,7.8C71.1,47.9,69.5,50.4,66.8,51.7z"/>
</svg>
