<?xml-stylesheet type="text/css" href="/CMS_Themes/Default/Css/pest-icons.css" ?>
<svg version="1.1" id="Layer_1" xmlns="http://www.w3.org/2000/svg" viewBox="0 0 82.3 82.3" width="100%" height="100%">
<g>
	<path fill="#102e52" class="pest-search__item-icon" d="M66.4,66.1c-0.3-0.5-0.9-0.9-1.3-1.4c-1.6-1.9-3.2-3.8-4.8-5.8c-1.4-1.7-2.9-3.4-4.3-5.2
		c-0.5-0.6-0.8-1.3-1.3-1.9c-0.2-0.2-0.5-0.4-0.8-0.4c-0.9,0.1-1.9,0.2-2.8,0.4c-0.7,0.1-0.8,0.3-0.6,0.9c0.6,1.5,1.2,3,1.8,4.5
		c0.2,0.7,0.4,1.4,0.5,2.1c0.3,1.2,0.6,2.5,1,3.7c0.8,2.5,1.4,5.1,1.7,7.7c0.1,1.1,0.1,2.2,0,3.4c0,0.2-0.3,0.4-0.4,0.6
		c-0.1-0.2-0.3-0.4-0.3-0.7c-0.1-1,0.1-2-0.1-3c-0.4-2.2-1-4.5-1.5-6.7c-0.4-1.7-0.9-3.3-1.4-5c-0.2-0.6-0.6-1.1-0.9-1.7
		c-0.4-1-0.8-2-1.3-3c-0.1,0.5-0.1,1.1-0.2,1.6c-0.1,2.6-0.2,5.2-0.4,7.8c0,0.6-0.3,1.1-0.5,1.6c-0.7,2.2-1.3,4.4-2,6.6
		c-0.5,1.6-2.3,2.9-4.2,2.6c-0.2,0-0.4-0.3-0.6-0.4c0.2-0.1,0.4-0.3,0.6-0.3c1.7,0.1,2.8-0.8,3.4-2.3c0.7-2,1.2-4,1.9-6
		c0.3-1,0.2-2.1,0.4-3.2c0.1-0.4,0.1-0.8,0.1-1.3c0.1-2.9,0.3-5.7,0.4-8.6c0-0.8,0-0.8-0.8-0.7c-2,0.3-3.9,0.8-5.9,1
		c-1.2,0.1-2.5-0.1-3.8-0.2c0,1.1-0.8,1.8-1.8,2.2c-1.4,0.6-2.4,1.7-3.3,2.8c-0.1,0.1-0.1,0.5,0,0.6c1.4,3.4,3,6.7,4.3,10.1
		c0.6,1.4,1.7,2.1,2.8,2.8c0.7,0.5,1.4,0.9,2.3,1c1.4,0.1,2.3-0.4,2.8-1.6c0.1-0.2,0.3-0.2,0.4-0.4c0.1,0.2,0.2,0.4,0.2,0.6
		c-0.3,1.8-2.3,2.5-3.6,2.2c-0.8-0.2-1.5-0.6-2.2-1c-0.9-0.6-1.8-1.2-2.7-1.9c-0.2-0.2-0.4-0.4-0.5-0.7c-0.3-0.7-0.5-1.4-0.8-2.1
		c-0.1-0.3-0.3-0.5-0.7-0.4c-0.8,0.2-1.5-0.1-2.1-0.7c-1.1-1-2-2.2-2.4-3.7c-0.5-1.8-1.1-3.5-1.6-5.2c-0.1,0-0.1,0-0.2,0
		c0,0.1-0.1,0.2-0.1,0.2c-0.2,3,0.3,5.9,1.1,8.8c0.5,1.7,1.7,3.1,3.1,4.3c0.3,0.2,0.7,0.3,1,0.4c0.1,0.1,0.2,0.3,0.3,0.4
		c-0.2,0.1-0.4,0.2-0.5,0.2c-0.6-0.2-1.3-0.4-1.8-0.8c-1.3-1.2-2.3-2.6-2.9-4.2c-0.4-1.2-0.5-2.5-0.7-3.7c-0.2-1.1-0.5-2.2-0.7-3.4
		c0-0.3,0-0.5,0-0.8c0.1-2.1,0.3-4.2,0.4-6.3c0-0.2,0-0.4-0.1-0.8c-0.8,0.5-1.5,0.4-1.8-0.7c-0.4,0.7,0,1.1,0.3,1.4
		c0.3,0.3,0.7,0.6,1,0.9c-1-0.1-1.5-0.9-2-1.6c-0.6,0.8,0.1,1.4,0.3,2.1c-0.9-0.3-1.1-1.7-0.8-3.1c-0.2-0.1-0.5-0.3-0.8-0.4
		c-0.6-0.2-1.1-0.6-1.2-1.3c0-0.1-0.1-0.3-0.2-0.3c-1.3-0.6-1.7-2-2.6-2.9c-0.7-0.7-1.5-1.5-2.4-2c-1.3-0.8-2.5-1.7-2.9-3.3
		c-0.1-0.4-0.1-0.8-0.1-1.2c0-1.1-0.2-2.3,0-3.4c0.2-1.1,0.8-2.1,1.2-3.2c0.2-0.4,0.5-0.8,0.7-1.1c0.1-0.2,0.2-0.4,0.3-0.5
		c0.5,0.6,0.3,1,0.1,1.2c-1.2,1.6-1.6,3.5-1.5,5.4c0.1,1.5,0,3.2,1.4,4.3c0.5,0.4,1,0.9,1.5,1.1c1,0.4,1.8,1.1,2.4,1.9
		c0.1,0.1,0.3,0.2,0.6,0.4c-0.5-1.2-0.9-2.1-1.8-2.8c-0.8-0.7-1.7-1.4-2.3-2.2c-0.4-0.6-0.9-1.4-0.7-2.4c0.1-0.3-0.2-0.7-0.1-1.1
		c0.2-1,0.4-1.9,1-2.7c0.3-0.4,0.8-0.7,1.2-0.9c1-0.5,2-0.9,3-1.4c0.3-0.1,0.6-0.3,0.9-0.4c0.3-0.1,0.6-0.3,1-0.5
		c0.1,0.7-0.3,0.9-0.7,1.1c-0.8,0.4-1.7,0.8-2.5,1.2c-0.8,0.4-1.5,0.9-2.2,1.4c-0.1,0.1-0.2,0.2-0.2,0.3c-0.1,0.7-0.3,1.4-0.4,2.1
		c-0.1,1.3,0.3,2.4,1.3,3.3c0.8,0.7,1.7,1.3,2.3,2.1c0.7,0.9,1.1,2.1,1.6,3.2c0.1,0.2,0.1,0.4,0.2,0.6c0.1,0,0.1,0,0.2,0
		c0.1-0.3,0.1-0.6,0.2-0.8c0.2-0.3,0.3-0.8,0.6-0.9c0.8-0.3,1.6-0.4,2.4,0.2c0.1,0,0.2,0,0.3,0.1c-0.1-0.2-0.1-0.3-0.1-0.4
		c-0.4-0.6-0.4-1.3,0-1.9c1-1.6,2.3-2.7,4.2-3c0.4-0.1,0.6-0.2,0.7-0.6c0.5-1.7,1.1-3.5,1.5-5.2c0.5-2,0.9-4,1.3-6.1
		c0.4-2.2,0.8-4.4,1.3-6.6c0.6-2.8,1.5-5.5,2.9-8c1.1-2,2.4-3.9,4.7-4.9c2.4-1,3.9-0.6,5.4,1.6c0.4,0.5,0.7,0.9,1.4,1.1
		c1.4,0.4,2.3,1.4,2.8,2.7c0.9,2.1,0.9,4.4,0.8,6.6c-0.1,1.9-0.9,3.5-1.7,5.2c-1.3,2.9-3.1,5.5-5,8c-1.3,1.8-3.1,3-5.1,3.9
		c-0.9,0.4-1.8,0.4-2.7,0.2c-1-0.3-1.7,0-2.1,1c-0.2,0.5-0.5,1.1-0.7,1.7c-0.1,0.4-0.2,0.7,0.4,0.9c0.1-0.4,0.2-0.7,0.3-1.1
		c0.2-0.6,0.5-1.1,1.1-1.3c0.6-0.2,1,0.1,1,0.7c0,0.6-0.2,1.2-0.7,1.6c-0.3,0.3-0.6,0.5-1,0.8c0.2,0,0.4,0.1,0.5,0.1
		c1.4-0.5,2.8,0.2,4.1,0.4c0.8,0.1,1.4,0.1,1.9-0.5c0.3-0.3,0.6-0.6,1-0.9c0.5-0.4,0.9-0.3,1.3,0.2c0,0,0,0,0,0.1
		c0.3,1.2,1.2,1.4,2.3,1.4c0.7,0,1.4,0,2.1,0.2c1.1,0.2,2.1,0.4,3.1,0.8c0.8,0.3,1.6,0.9,2.4,1.3c0.7,0.4,1.4,0.7,2.2,1.1
		c0.7,0.3,1.6,0.7,1.7,1.4c0.2,0.9,1.1,1.8,0.5,2.8c-0.4,0.6-0.8,1.2-1.3,1.7c-0.4,0.5-1.3,0.6-2,0.3c-0.2-0.1-0.4-0.1-0.6-0.2
		c0,0-0.1,0.1-0.1,0.1c0.1,0.2,0.2,0.4,0.3,0.5c2,2.4,4,4.9,6.1,7.3c1.1,1.2,2.2,2.4,3.2,3.7c0.5,0.6,0.7,1.5,1.2,2.2
		c0.8,1.3,1.7,2.7,2.5,4c7.5-7.5,12.1-17.8,12.1-29.2C82.3,18.4,63.9,0,41.2,0S0,18.4,0,41.2c0,22.7,18.4,41.2,41.2,41.2
		c11,0,21-4.3,28.4-11.4C68.5,69.3,67.5,67.7,66.4,66.1z"/>
	<path fill="#102e52" class="pest-search__item-icon" d="M52,48.3c-0.6-0.1-1.2-0.5-1.8-0.6c-0.4-0.1-0.8,0-1.2,0.1c-0.1,0-0.1,0.6,0,0.8c0.1,0.4,0.3,0.7,0.4,1.1
		c0.2,0.5,0.5,0.6,0.9,0.5c1.2-0.1,2.5-0.1,3.7-0.2c-0.2-0.3-0.5-0.7-0.7-1C53,48.5,52.6,48.4,52,48.3z"/>
	<path fill="#102e52" class="pest-search__item-icon" d="M45.4,47.2c-0.6,0-1.5-0.3-1.8,0.4c-0.6,1.1-0.9,2.3-1.4,3.5c0.2,0,0.3,0.1,0.4,0.1c1.8-0.5,3.5-0.9,5.3-1.4
		c0.1,0,0.3-0.2,0.3-0.4c0-1-0.6-1.7-1.5-2C46.3,47.4,45.9,47.2,45.4,47.2z"/>
	<path fill="#102e52" class="pest-search__item-icon" d="M28.6,51.1c0-1,0-1.8,0-2.7C27.4,49,27.4,50,28.6,51.1z"/>
	<path fill="#102e52" class="pest-search__item-icon" d="M36,51.5c-0.2-0.4-0.3-0.8-0.5-1.3c-0.1,0-0.2,0-0.3-0.1c-0.1,0.2-0.4,0.5-0.4,0.6c0.2,0.3,0.5,0.6,0.8,0.9
		C35.9,51.6,35.9,51.6,36,51.5z"/>
	<path fill="#102e52" class="pest-search__item-icon" d="M33.6,55.3c0.7-0.8,1.8-1,2.7-1.2c0.7-0.2,0.7-0.3,0.4-0.9c-0.1-0.2-0.2-0.4-0.2-0.6c-1.3,1-1.3,1.2-2.8,0.1
		c-0.8-0.6-1.5-1.4-2.2-2.1c-0.2-0.2-0.5-0.4-0.9-0.7c0,0.4-0.1,0.5-0.1,0.7c0,2-0.1,4-0.1,6c0,0.7,0,1.4,0.2,2.1
		c0.3,1.3,0.8,2.6,1.2,3.9c0.5,1.4,1.2,2.8,2.3,3.8c0.5,0.5,1.1,0.9,1.9,0.6c-0.1-0.3-0.2-0.5-0.2-0.7c-0.4-0.9-0.8-1.7-1.1-2.5
		c-0.7-1.6-1.3-3.1-2.1-4.7c-0.3-0.6-0.6-1.2-0.2-1.9C32.6,56.4,33.1,55.8,33.6,55.3z"/>
	<path fill="#102e52" class="pest-search__item-icon" d="M39.3,47.5c-0.4,0.1-0.4,0.4-0.2,0.7c0.3,0.4,0.5,0.8,0.8,1.2c0.3,0.5,0.5,1.1,0.8,1.7
		c0.3-1.2,0.6-2.3,0.8-3.4c0.1-0.4,0-0.7-0.4-0.6C40.5,47.2,39.9,47.3,39.3,47.5z"/>
</g>
</svg>
