<?xml version="1.0" encoding="utf-8"?>
<!-- Generator: Adobe Illustrator 21.0.2, SVG Export Plug-In . SVG Version: 6.00 Build 0)  -->
<svg version="1.1" id="Layer_1" xmlns="http://www.w3.org/2000/svg" xmlns:xlink="http://www.w3.org/1999/xlink" x="0px" y="0px"
	 viewBox="0 0 82.3 82.3" style="enable-background:new 0 0 82.3 82.3;" xml:space="preserve">
<style type="text/css">
	.st0{fill:#38AD56;}
</style>
<g>
	<path fill="#102e52" class="st0" d="M47.2,31.8c1.1-1.9,2.4-3.7,3.8-5.4c0.6-0.7,1-1.6,2-2c0.3-0.1,0.3-0.3,0.1-0.5c-0.9-1.1-1.7-2.2-2.6-3.3
		c-0.2-0.2-0.3-0.2-0.5,0c-1.1,1.3-2.2,2.5-3.2,3.8c-0.5,0.5-1,1.1-1.2,1.8c-0.3,0.7-0.6,1.2-1,1.8c-0.1,0.1-0.1,0.3-0.2,0.4
		c-0.1,0.3-0.1,0.6-0.2,0.9c-0.6,2-0.9,4.1-1.1,6.2c-0.1,1.1-0.1,2.1-0.2,3.2c0,0.4-0.2,0.9,0.2,1.4c0.3-0.9,0.9-1.6,1-2.6
		c0-0.3,0.2-0.4,0.5-0.5c0.2,0,0.3-0.2,0.4-0.3c0.2-0.5,0.4-1,0.7-1.5C46.1,33.9,46.6,32.8,47.2,31.8z"/>
	<path fill="#102e52" class="st0" d="M46.2,43.7c0.2,0,0.4,0,0.6,0c-0.2-0.7-0.5-1.4-0.8-2.2c-1.1,0.4-1.2,0.6-1,1.2c0,0,0.1,0,0.1,0
		c0.2,0,0.5-0.1,0.7,0c0.3,0.1,0.1,0.4,0,0.5C45.7,43.6,45.9,43.8,46.2,43.7z"/>
	<path fill="#102e52" class="st0" d="M2.7,45.8c1.2-1.3,2.3-2.9,3-4.5c0.4-1,0.6-2.1,0.9-3.1c0.6-2,1.2-4,1.8-6c0.7-2.2,1.5-4.3,2.3-6.4
		c0.1-0.3,0.3-0.5,0.5-0.7c0.1-0.1,0.3-0.1,0.4-0.1c1.7,0.4,3.4,0.7,5.1,1.2c1.9,0.6,3.8,1.3,5.7,2c0.2,0.1,0.3,0,0.5,0.1
		c0.2,0,0.4,0,0.5,0.1c0.6,0.3,1.2,0.7,1.8,0.9c0.5,0.2,0.8,0.6,1.1,1c0.7,0.8,1.5,1.7,2.2,2.5c0.2,0.2,0.4,0.5,0.6,0.7
		c0.2,0.2,0.3,0.2,0.5,0.1c0.8-0.5,1.7-0.9,2.7-0.7c0.1,0,0.1,0,0.2,0c0.7-0.4,1.2,0.1,1.8,0.3c0.1,0.1,0.2,0.3,0.3,0.4
		c0.4,0.8,0.7,1.7,1.1,2.5c0.1,0.2,0.3,0.3,0.5,0.4c1.2,0.3,2.2,0.9,3.1,1.7c0.1,0.1,0.3,0.2,0.5,0.3c0,0,0.1,0,0.1-0.1
		c-0.1-0.3-0.1-0.5-0.2-0.8c-0.6-1.4-1.1-2.7-1.7-4.1c-0.2-0.4-0.5-0.8-0.6-1.3c-0.2-0.4-0.2-0.9-0.4-1.3c-0.5-1.5-1-3-1.6-4.4
		C35,25.2,34.6,24,34,22.9c-0.6-1.1-1-2.4-1.6-3.6c-0.9-1.8-1.9-3.6-2.9-5.4c-0.1-0.2-0.2-0.3-0.4-0.6c-0.2,0.6-0.4,1.2-0.6,1.8
		c-0.4,1.7-0.8,3.3-1.2,5c-0.3,1.1-0.5,2.2-1.2,3.2c-0.8,1-1.9,1.5-3.1,1.2c-1.1-0.2-1.9-0.8-2.8-1.3c-1-0.6-2.2-0.9-3.3-1.3
		c-0.1,0-0.3,0-0.4,0c0,0,0-0.1,0-0.1c0.1,0,0.3-0.1,0.4-0.1c1.2,0.4,2.6,0.6,3.7,1.4c0.7,0.5,1.5,0.9,2.4,1.1
		c1.3,0.3,2.3-0.3,3-1.3c0.6-0.8,0.7-1.7,1-2.7c0.5-2.1,1.1-4.2,1.6-6.4c0.1-0.4,0.2-0.7,0.3-1c0.1-0.2,0.2-0.5,0.5-0.4
		c0.2,0,0.4,0.2,0.5,0.3c1.5,2.6,2.9,5.2,4,8c0.2,0.6,0.5,1.1,0.9,1.6c0.4,0.5,0.7,1.2,0.8,1.8c1,3.9,2.4,7.6,3.9,11.3
		c0.4,1,0.7,2.1,1.2,3c0.2,0.4,0.6,0.8,0.9,1.1c0.2,0.2,0.6-0.2,0.7-0.6c0-0.4,0.1-0.9,0.1-1.3c0.1-1.6,0.2-3.3,0.4-4.9
		c0.2-1.4,0.5-2.7,0.7-4.1c0.2-1,0.8-1.9,1.2-2.8c0.1-0.2,0.4-0.3,0.6-0.5c0.8-1.1,1.6-2.2,2.4-3.3c0.6-0.8,1.3-1.5,1.9-2.3
		c0.2-0.3,0.7-0.2,1,0.1c0.8,0.9,1.5,1.9,2.3,2.8c0.3,0.3,0.5,0.7,0.8,1c0.1,0.2,0.3,0.2,0.5,0.1c0.2-0.1,0.5-0.3,0.7-0.4
		c0.3-0.1,0.6-0.2,0.9-0.3c0.2-0.1,0.4-0.1,0.5-0.2c2.5-1.1,5-2.1,7.7-2.8c2.2-0.6,4.5-1,6.7-1.5c0.7-0.2,1.1,0.1,1.4,0.6
		c2.1,2.9,4.3,5.7,6.4,8.6c0.9,1.3,1.8,2.5,2.8,3.7C76.8,13.4,60.6,0,41.2,0C18.4,0,0,18.4,0,41.2c0,2.2,0.2,4.4,0.5,6.5
		C1.3,47.1,2.1,46.5,2.7,45.8z"/>
	<path fill="#102e52" class="st0" d="M45.5,40.8c-0.2-0.3-0.3-0.5-0.5-0.8C45.1,40.8,45.1,40.8,45.5,40.8z"/>
	<path fill="#102e52" class="st0" d="M76.7,26.1c-1.7-2.2-3.4-4.4-5.1-6.6c-0.1-0.2-0.3-0.2-0.5-0.2c-0.9,0.2-1.9,0.3-2.8,0.5
		c-3.1,0.6-6.1,1.4-9.1,2.5c-1,0.4-1.9,0.8-2.9,1.2c-0.7,0.3-1.4,0.7-2.1,1.1c0.2,0.3,0.4,0.5,0.6,0.8c0.9,1.3,2.1,2.2,3.7,2.5
		c1.5,0.3,2.7-0.2,3.9-1c0.5-0.4,1.1-0.7,1.6-1.1c0.4-0.3,0.6-0.6,1-0.9c0.1-0.1,0.2-0.3,0.4-0.4c-0.2,0.7-0.6,1.2-1.2,1.6
		c-0.7,0.5-1.4,0.9-2.1,1.4c-1.6,1.1-3.9,1.2-5.6,0.1c-1-0.6-1.7-1.4-2.4-2.3c-0.4-0.6-0.7-0.6-1.2-0.1c-2.6,2.5-4.7,5.4-6.3,8.6
		c-0.5,1.1-1,2.2-1.4,3.4c-0.1,0.2-0.1,0.5,0,0.6c0.2,0.6,0.5,1.2,0.7,1.7c0.1,0.2,0.2,0.5,0.3,0.7c1-0.5,2.1-1.1,3.2-1.6
		c1-0.4,2.1-0.8,3.1-1.1c0.2-0.1,0.4,0,0.5,0c0.5,0.1,1.1,0.2,1.6,0.3c0.4,0.1,0.7,0.2,0.9,0.6c0,0.1,0.2,0.2,0.3,0.2
		c2,1,3.8,2.3,5.5,3.6c0.4,0.3,0.9,0.6,1.2,1c0.4,0.3,0.7,0.7,0.9,1.1c1.1,2,2.2,4,3.3,6c0.8,1.5,1.5,3.1,2.5,4.6
		c1.5,2.5,3.4,4.7,6,6.1c0.5,0.3,1,0.5,1.5,0.7c3.5-6.1,5.6-13.1,5.6-20.7c0-3.1-0.3-6-1-8.9c-0.5-0.6-1.1-1.3-1.6-1.9
		C78.7,29,77.8,27.5,76.7,26.1z"/>
	<path fill="#102e52" class="st0" d="M35.2,36.2c-0.4-0.7-0.7-1.3-1.1-1.9c-0.2-0.3-0.5-0.6-0.9-0.5c0,0-0.1,0-0.1,0c-1-0.4-1.9-0.1-2.8,0.5
		c-0.2,0.1-0.2,0.3-0.1,0.5c0.5,0.7,1,1.4,1.5,2.1c0.3,0.4,0.5,0.7,0.8,1.2C33.1,36.9,34,36.3,35.2,36.2z"/>
	<path fill="#102e52" class="st0" d="M73.8,60.8c-1-0.8-2-1.6-2.7-2.5c-0.8-1-1.6-2.1-2.4-3.1c-0.1-0.2-0.2-0.4-0.3-0.6c-0.6-1.2-1.3-2.4-1.9-3.5
		c-1.1-2-2.2-4-3.3-6c-0.1-0.1-0.2-0.3-0.3-0.3c-0.5-0.1-0.8-0.4-1.2-0.7c-1.2-0.9-2.3-1.9-3.5-2.8c-1-0.7-2-1.4-3.1-1.8
		c-0.7-0.3-1.4-0.6-2.1-0.8c-0.1,0-0.2,0-0.3,0c-0.9,0.2-1.7,0.4-2.6,0.8c-1.2,0.4-2.3,0.9-3.3,1.7c-0.1,0.1-0.3,0.2-0.4,0.3
		c0.3,0.7,0.6,1.4,0.9,2.1c0.1,0.4,0.5,0.4,0.8,0.5c0.4,0.1,0.8,0.2,1.3,0.3c-0.2,0.3-0.4,0.4-0.5,0.6c-0.1,0.3-0.2,0.5-0.2,0.8
		c-0.1,0.4-0.1,0.7-0.5,0.8c-0.5,0.2-0.6,0.7-0.1,1.1c0.2,0.1,0.4,0.2,0.6,0.4c-0.4,0.4-0.8,0.8-1.3,1.2C47.1,49,46.8,49,46.6,49
		c-0.2,0-0.5-0.2-0.7-0.2c-0.1,0-0.3,0-0.5,0.1c0.1,0.4,0.4,0.4,0.7,0.5c0.2,0,0.4,0,0.6,0.1c0.1,0,0.1,0.2,0.1,0.2
		c-0.1,0-0.2,0.1-0.2,0.1c-0.2,0-0.4,0-0.6-0.1c-1.4-0.5-2.8-0.9-4.2-1.4c-0.7-0.2-1.4-0.4-2.1-0.7c-0.8-0.3-1.5-0.7-2.2-1
		c-0.8-0.3-1.6-0.7-2.4-0.7c-0.3,0-0.7-0.1-1-0.2c0-0.1,0-0.1,0-0.2c0.2,0,0.5-0.1,0.7-0.1c0.2,0,0.3,0,0.5,0
		c0.7-0.1,0.9-0.4,0.5-1.1c-0.3-0.4-0.4-0.9-0.9-1.2c-0.2-0.1-0.2-0.4-0.3-0.6c-0.3-0.6-1-0.9-1.5-1.3c-0.6-0.4-1.1-0.8-1.7-1.1
		c-0.7-0.4-1.5-0.6-2.3-0.9c-0.1,0-0.2,0-0.2-0.1c-0.8-0.3-1.2,0-1.5,0.8c-0.4,1.4-0.8,2.8-1.2,4.1c-0.1,0.5-0.2,1-0.4,1.4
		c-0.5,2-1.1,3.9-1.6,5.9c-0.4,1.3-0.7,2.6-1.1,3.8c-0.4,1.3-0.8,2.5-1.2,3.7c-0.4,1.3-0.9,2.6-1.3,3.8C20,64,19.5,65.2,19,66.3
		c-0.5,1.2-1,2.4-1.5,3.6c-0.4,0.9-0.8,1.8-1.2,2.8c-0.1,0.4-0.3,0.7-0.4,1.1c7,5.4,15.7,8.6,25.2,8.6c15,0,28.2-8.1,35.4-20.1
		C75.6,61.8,74.7,61.4,73.8,60.8z"/>
	<path fill="#102e52" class="st0" d="M28.6,38c1.1,0.5,2.2,1.1,3.3,1.7c0.4,0.2,0.7,0.4,1,0.6c-0.2-0.5-0.4-1.1-0.7-1.5c-0.7-1.1-1.5-2.2-2.3-3.3
		c-0.4-0.5-0.4-0.5-0.8-0.1c0,0-0.1,0.1-0.1,0.1c-0.5,0.1-0.6,0.6-0.7,1c-0.1,0.4-0.2,0.8-0.3,1.2c0,0.1-0.1,0.2-0.1,0.3
		C28.2,38,28.4,38,28.6,38z"/>
	<path fill="#102e52" class="st0" d="M18.4,66.2c0.4-0.9,0.8-1.7,1.1-2.6c0.6-1.8,1.2-3.5,1.8-5.3c0.4-1.3,0.9-2.7,1.3-4c0.4-1.4,0.8-2.8,1.2-4.2
		c0.6-2.1,1.2-4.2,1.8-6.3c0.4-1.3,0.7-2.6,1.1-3.9c-0.2,0-0.3,0-0.4,0.1c-1.3,0.8-2.7,1.6-4,2.5c-0.8,0.5-1.5,1.2-2.2,1.8
		c-0.1,0.1-0.1,0.2-0.2,0.2c-0.6,0.1-0.6,0.6-0.6,1.1c-0.2,2.7-0.4,5.5-0.6,8.2c-0.2,2-0.4,4-0.7,6c-0.3,1.6-0.8,3.2-1.5,4.6
		c-0.4,0.9-0.9,1.8-1.4,2.5c-0.6,0.8-1.3,1.5-2.1,2.3c-0.3,0.3-0.7,0.6-1.1,0.9c1.2,1.2,2.4,2.3,3.8,3.4c0.1-0.4,0.3-0.8,0.4-1.1
		c0.3-0.8,0.7-1.5,1-2.3C17.4,68.6,17.9,67.4,18.4,66.2z"/>
	<path fill="#102e52" class="st0" d="M27.1,38.1c0.3-0.7,0.5-1.4,0.7-2.2c0-0.1,0.1-0.2,0.1-0.3c0-0.5,0.3-0.9,0.7-1.2c0.2-0.1,0.2-0.3,0-0.5
		c-1-1-1.9-1.9-2.8-3c-0.6-0.7-1.3-0.9-2-1.2c-1.1-0.4-2.2-1-3.3-1.4c-2.6-1-5.3-1.8-8-2.2c-0.2,0-0.4,0-0.6-0.1
		c-0.6-0.1-0.6-0.1-0.8,0.4c-0.9,2.6-1.9,5.2-2.7,7.9c-0.7,2.2-1.3,4.5-2,6.7c-0.2,0.6-0.5,1.1-0.8,1.6c-0.7,1-1.4,2-2.1,2.9
		c-0.8,1-1.8,1.8-2.9,2.6C2,56.4,5.9,63.8,11.4,69.6c0.1-0.1,0.2-0.2,0.3-0.3c2-1.4,3.3-3.2,4.2-5.4c0.8-1.8,1.3-3.7,1.6-5.6
		c0.2-1.4,0.3-2.8,0.4-4.2c0.2-1.7,0.3-3.5,0.4-5.2c0.1-1.1,0.1-2.2,0.2-3.3c0-0.2,0-0.3,0-0.5c0-0.8,0.2-1.4,0.9-1.9
		c1.8-1.4,3.6-2.7,5.7-3.8c0.2-0.1,0.4-0.2,0.5-0.2c0.1,0,0.2-0.1,0.2-0.2c0.1-0.5,0.5-0.5,0.8-0.7C26.9,38.4,27,38.2,27.1,38.1z"/>
</g>
</svg>
