<?xml-stylesheet type="text/css" href="/CMS_Themes/Default/Css/pest-icons.css" ?>
<svg version="1.1" id="Layer_1" xmlns="http://www.w3.org/2000/svg" viewBox="0 0 595.3 841.9" width="100%" height="100%">
<path fill="#102e52" class="pest-search__item-icon" d="M298,123.3c-164.9,0-298,133.1-298,298s133.1,298,298,298s298-133.1,298-298S462.2,123.3,298,123.3z M503.6,418.4l-8.5,0.8
	l-6.9-3.6l-3.2-12.5l-22.6,6.1l-19,7.3l-15.3,2l-2.8,2.8l0.4,5.2l10.9,3.2l10.9,6.5l6.9,3.6l21-2.8l6.9,0.8l16.1,13.7l1.2,8.5
	l-16.5,4.4l-19-6.9l-19.4,2.4l-20.2-8.9l-19.2-12.2l-0.2,0.5l-10.1,17.3l-21.8,14.9l-37.1,10.9l-37.1,1.2l-10.1-2.8l-0.4,2.8
	l-3.2,20.6l0.8,21.4l8.9,23l4.4,33.1l2.4,12.5l-3.6,0.4l-4-1.6l-2.4-8.1l-4.8-21.4l-9.7-24.2l-4.4-15.3l-2.4-30.3l0.4-9.3l-1.6,3.6
	l-12.9,8.1l-11.7,8.5l-4.4,5.2l-7.7,14.1l0.8,22.2l10.9,52.4l1.6,18.2l-5.2,5.6l-7.3-4.4l-6.1-15.7l-6.9-25.4l-7.3-50l-6.9-3.2
	l-3.2-3.2l-0.8-8.5l-5.2-2l-2-8.1l0.4-16.9l6.1-12.5l-8.9-1.2l-26.2,11.7l-30.3,11.3l-16.5,12.5L84.9,535L72.8,541l-8.1-2.4
	l-1.2-5.2L74,523.3l25.8-20.6l21.4-19L147,472l21.8-11.3l46.4-12.5l8.9-3.6l2-6.5l-6.1-10.5l-14.5-14.1l-7.7-14.9l-7.7-21.4l-4-29
	l8.1-2l3.2,14.9l11.3,30.3l11.7,20.2l14.1,10.9l2.8-14.9l2.8-33.9l4.8-17.8l8.9-19.8l9.3-15.7l14.5-14.1l21.8-12.5l22.6-9.7
	l14.5-6.9l21-10.5l21-8.9l17.3-4l23-0.4l24.2,2l19.4,5.2l19,9.3l13.7,13.7l9.3,21.4l-1.2,25.4l-6.1,19.4l-14.1,19.8l-18.2,17.3
	l-1.3,0.5l6.1,1.5l26.2-2.4l9.7,2l2.8,4.4l1.6,15.3L503.6,418.4z"/>
</svg>
