<?xml-stylesheet type="text/css" href="/CMS_Themes/Default/Css/pest-icons.css" ?>
<svg version="1.1" id="Layer_1" xmlns="http://www.w3.org/2000/svg" viewBox="0 0 82.3 82.3" width="100%" height="100%">
<path fill="#102e52" class="pest-search__item-icon" d="M41.2,0C18.4,0,0,18.4,0,41.2s18.4,41.2,41.2,41.2s41.2-18.4,41.2-41.2S63.9,0,41.2,0z M71.4,56.4
	c0-0.1-0.1-0.2-0.1-0.3c-0.1-0.6-0.3-1.1-0.7-1.5c-0.2-0.3-0.3-0.7-0.4-1c-0.1-0.2-0.2-0.5-0.4-0.7c-0.4-0.4-0.6-0.9-0.7-1.4
	c-0.1-0.6-0.2-1.3-0.4-1.9c-0.1-0.6-0.3-1.1-0.6-1.6c-0.3-0.7-0.6-1.4-0.9-2.1c-0.2-0.4-0.5-0.8-0.8-1.2c-0.2-0.3-0.4-0.6-0.4-1
	c-0.1-0.4-0.1-0.8-0.2-1.2c-0.1-0.3-0.3-0.6-0.6-0.7c0.3,1.2,0.4,2.5,1.3,3.5c0.2,0.2,0.3,0.5,0.5,0.8c0.3,0.5,0.4,1,0.3,1.6
	c-0.1,1,0,2.1,0,3.1c0,0.3,0,0.6-0.2,0.9C67,51.8,67,52,67,52.2c0,0.4,0.2,0.7,0.2,1.1c0,0.3-0.1,0.6-0.2,0.9
	c-0.1,0.2-0.3,0.2-0.5,0.4c0-0.2,0-0.2,0-0.3c0.1-0.9,0.1-1.8-0.4-2.7c-0.4-0.7-0.5-1.5-0.7-2.3c-0.1-0.3-0.1-0.6-0.2-0.9
	c0-0.1-0.2-0.2-0.3-0.2c-0.4,0-0.6-0.3-0.6-0.6c-0.1-0.5-0.2-1.1-0.6-1.5c-0.5-0.6-0.8-1.2-1.1-1.8c-0.4-0.8-1-1.4-2-1.6
	c-0.3-0.1-0.7-0.2-1-0.3c-0.3-0.1-0.5,0-0.7,0.3c-0.2,0.4-0.3,0.9-0.1,1.3c0.4,0.9,0.4,1.8,0,2.7c-0.2,0.5-0.4,1.1-0.7,1.6
	c-0.1,0.2-0.3,0.4-0.5,0.5c-0.5,0.3-0.8,0.8-0.9,1.3c-0.1,0.4-0.2,0.4-0.6,0.2c-0.2-0.1-0.4-0.2-0.6,0c-0.3,0.2-0.6,0.3-0.9,0.1
	c-0.2-0.1-0.4,0-0.6,0c-0.2-1-0.1-2.1-0.4-3.1c0,0-0.1,0-0.1,0c0,0.2,0,0.3,0,0.5c0.1,1.1,0.2,2.2,0.3,3.3c0,0.2,0,0.4-0.1,0.5
	c-0.6,1.2-1,2.4-1.3,3.6c-0.1,0.7-0.5,1.3-1,1.7c-0.1,0-0.1,0.1-0.2,0.1c-0.3,0-0.4,0.2-0.4,0.4c-0.1,0.6-0.3,1.1-0.6,1.6
	c-0.2,0.3-0.4,0.5-0.8,0.5c0.1-0.2,0.3-0.4,0.4-0.6c0.3-0.4,0.3-0.9,0.4-1.4c0.1-1.2,0.2-2.4,0.1-3.6c0-0.1,0-0.2,0.1-0.3
	c0.3-0.6,0.3-1.2,0.3-1.8c-0.1-0.9-0.3-1.8-0.1-2.7c0.1-0.5,0-0.6-0.5-0.7c-0.1-0.1-0.3-0.2-0.4-0.3c-0.2-0.4-0.5-0.7-0.7-1.1
	c-0.2-0.3-0.3-0.6-0.5-0.9c-0.2,0.2-0.3,0.5-0.5,0.6c-0.2,0.1-0.6,0.1-0.9,0.1c-1.2,0-2.5-0.1-3.7,0.1c-0.3,0.1-0.5,0.1-0.6,0.5
	c0,0.1-0.1,0.2-0.2,0.3c-0.8,0.6-1.3,1.4-1.9,2.1c-0.7,0.9-1.3,1.8-2,2.7c-1,1.3-2.1,2.3-3.6,3.1c-0.6,0.3-1.1,0.8-1.7,1.2
	c-0.1,0-0.1,0.1-0.2,0.1c-0.5,0.3-0.9,0.6-1.4,0.9c-0.3,0.2-0.7,0.5-1,0.7c-0.4,0.3-0.9,0.6-1.4,0.6c-0.1,0-0.1,0-0.2,0
	c0.1-0.1,0.1-0.1,0.1-0.1c0.8-0.4,1.4-1,2-1.6c0.1-0.1,0.1-0.1,0.2-0.2c0.4-0.5,0.8-1.1,1.2-1.6c0.3-0.4,0.5-0.9,0.8-1.3
	c0.2-0.4,0.4-0.8,0.8-1.1c0.4-0.4,0.8-0.9,1.3-1.3c0.2-0.2,0.3-0.4,0.3-0.6c0-0.1,0-0.2,0.1-0.2c0.5-0.7,0.9-1.4,1.4-2.1
	c0.1-0.2,0.2-0.4,0.2-0.6c0-0.5,0.1-1.1,0.1-1.6c0-0.1-0.1-0.3-0.2-0.3c-0.6-0.3-1.1-0.6-1.7-0.8c-0.4-0.2-0.8-0.3-1.1-0.6
	c-0.8-0.6-1.7-0.9-2.7-0.8c-1.2,0.2-2.5,0-3.7-0.3c-0.9-0.2-1.8-0.4-2.7-0.5c-0.9-0.1-1.9-0.2-2.8-0.2c-0.7,0-1.4,0.2-2,0.6
	c-0.3,0.2-0.6,0.5-1,0.6c-0.2,0.1-0.4,0.1-0.6,0.1c-0.4-0.1-0.6,0.1-0.7,0.4c-0.1,0.3-0.3,0.6-0.4,1c-0.1,0.3-0.2,0.5-0.6,0.6
	c-0.7,0.2-0.9,0.5-0.9,1.2c0.1,0.8-0.3,1.5-0.5,2.2c-0.5,1.5-1.1,3-1.6,4.5c-0.1,0.3-0.4,0.6-0.6,0.9c-0.2,0.3-0.5,0.4-0.9,0.4
	c0.2-0.3,0.5-0.5,0.7-0.7c0.4-0.4,0.3-0.9,0.4-1.4c0.1-0.9,0.2-1.9,0.4-2.8c0.2-1,0.5-2,0.8-3c0.1-0.5,0.2-1.1,0.4-1.6
	c0.2-0.6,0.4-1.2,0.8-1.6c0.1,0,0.1-0.1,0.1-0.2c-0.1,0-0.2-0.1-0.2,0c-0.5,0.2-0.9,0.4-1.1,0.9c-0.3,0.4-0.5,0.8-0.8,1.2
	c-0.1,0.1-0.1,0.2-0.2,0.2c-0.5,0.3-0.7,0.8-1,1.2c-0.6,0.8-0.8,1.8-1.2,2.7c-0.3,0.6-0.5,1.2-0.8,1.7c-0.1,0.4-0.2,0.8-0.3,1.1
	c-0.1,0.2-0.1,0.3-0.3,0.4c-0.1,0-0.2,0.2-0.3,0.4c-0.2,0.7-0.5,1.3-1.1,1.7c-0.2,0.1-0.4,0.3-0.8,0.2c0.2-0.2,0.3-0.3,0.4-0.4
	c0.4-0.4,0.6-0.9,0.7-1.5c0.1-0.5,0.2-1,0.3-1.5c0.3-0.9,0.6-1.8,0.9-2.7c0.1-0.3,0.2-0.7,0.3-1c0.3-0.8,0.7-1.6,0.7-2.6
	c0-0.2,0.1-0.4,0.2-0.5c0.7-1.3,1.6-2.4,2.6-3.5c0.6-0.6,1.3-0.8,2-1.1c0.9-0.3,1.8-0.7,2.7-1c0.1-0.1,0.3-0.1,0.4-0.2
	c-0.7-0.4-1.3-0.8-1.9-1.2c-1.1-0.7-2.2-1.6-3.1-2.6c-0.3-0.4-0.6-0.9-0.7-1.4c-0.5-1.7-0.5-3.4,0-5.1c0.5-1.7,1.5-3.1,2.8-4.2
	c1.5-1.3,3.1-2.4,4.8-3.4c1.2-0.7,2.3-1.5,3.5-2.2c1.2-0.7,2.5-1.4,3.9-1.7c2.9-0.7,5.8-0.7,8.8-0.6c2.1,0.1,4.1,0.3,6.2,0.8
	c3.2,0.7,6.1,2.1,8.7,4c1.8,1.3,3.4,2.7,4.8,4.4c1,1.1,1.4,2.5,1.8,3.9c0.2,0.9,0.4,1.7,0.9,2.5c0.2,0.3,0.4,0.6,0.6,0.9
	c0.3,0.5,0.4,1,0.2,1.6c-0.2,0.4,0,0.7,0.4,0.7c0.6,0,1,0.3,1.1,0.9c0.1,0.3,0.2,0.5,0.3,0.8c0.1,0.3,0.3,0.4,0.6,0.4
	c0.2,0,0.4,0.1,0.5,0c0.6-0.1,1.1,0.2,1.6,0.6c0.6,0.5,1.2,1.1,1.4,2c0.1,0.3,0.2,0.5,0.5,0.7c1.2,0.9,1.9,2.1,2.3,3.5
	c0.1,0.3,0.2,0.5,0.3,0.8c0.4,0.8,0.6,1.6,0.6,2.4c0,0.9,0.2,1.7,0.5,2.6c0.2,0.6,0.3,1.3,0.4,1.9c0.1,0.5,0.1,1,0.1,1.4
	c0,0.3,0.1,0.5,0.3,0.7C72,55,71.9,56,71.4,56.4z"/>
</svg>
