<?xml-stylesheet type="text/css" href="/CMS_Themes/Default/Css/pest-icons.css" ?>
<svg version="1.1" id="Layer_1" xmlns="http://www.w3.org/2000/svg" viewBox="0 0 82.3 82.3" width="100%" height="100%">
<g>
	<path fill="#102e52" class="pest-search__item-icon" d="M19.6,8.8c0.2,0.4,0.4,0.9,0.6,1.3c-0.3-0.7-0.5-1.4-0.6-1.9c-0.2-0.7-0.4-1.2-0.5-1.6
		c-0.1,0.1-0.2,0.1-0.3,0.2C19,7.4,19.3,8.1,19.6,8.8z"/>
	<path fill="#102e52" class="pest-search__item-icon" d="M6.4,20c1.5,0.5,3.8,1.3,6.7,2.5c3,1.3,6.8,3,10.7,5.3c1.5,0.7,2.9,1.6,4.2,2.4c0.5,0.3,1,0.6,1.5,0.9
		c0,0,0.1,0,0.1,0c0-0.1,0-0.3,0-0.4l0,0c0,0,0,0,0,0c0,0,0,0,0,0c0,0,0,0,0,0c0,0,0,0,0,0l0,0c0.2,0,0.3,0,0.4,0c0,0,0-0.1,0-0.1
		c-0.3-0.5-0.6-1-0.9-1.5c-1-1.5-1.9-3.1-2.7-4.7c-0.3-0.6-0.6-1.3-0.9-1.9c-1.5-2.8-2.7-5.6-3.6-7.8c-0.3-0.7-0.6-1.4-0.8-2.1
		c-0.3-0.7-0.6-1.4-0.9-2.1c-0.4-1-0.8-2-1.2-2.9c-0.1-0.3-0.3-0.6-0.4-1c-5.1,3.4-9.5,7.9-12.6,13.1C6.1,19.9,6.2,20,6.4,20z"/>
	<path fill="#102e52" class="pest-search__item-icon" d="M28.2,30.8c0.5,0.3,0.9,0.7,1.4,1c-0.1-0.1-0.2-0.2-0.4-0.3C28.9,31.2,28.6,31,28.2,30.8z"/>
	<path fill="#102e52" class="pest-search__item-icon" d="M41.2,0c-7.8,0-15,2.1-21.2,5.9c0.9,3.1,5,15.8,12.3,25.3c0.3-0.2,0.6-0.2,0.9,0c0.3,0.2,0.5,0.6,0.5,1
		c0,0.2-0.1,0.4-0.2,0.6c0.4,0,0.7,0.3,1,0.6c0.4,0.4,0.8,0.8,1.2,1.2c0.1-0.2,0.1-0.3,0.1-0.5c0.1-0.3,0.2-0.5,0.3-0.8
		c0-0.1,0.1-0.2,0.1-0.2c0.1-1.1,0.1-2.2,0.2-3.3c0-0.1,0-0.3-0.1-0.5c0.2-0.2,0.4-0.2,0.6,0c-0.3,2.1-0.2,4.1,0,6.1
		c0.7-0.1,1.2-0.1,1.7,0.1c0.3,0.1,0.7,0.2,1,0.2c0.1,0,0.2-0.1,0.2-0.1c0.1-0.7,0.6-1,1.1-1.3c0.9-0.4,1.7-0.9,2.6-1.3
		c0.4-0.2,0.8-0.3,1.2-0.5c0.5-0.2,0.9-0.5,1.1-1c0.2-0.5,0.4-1.1,0.4-1.7c0.2,0.1,0.4,0.1,0.6,0.2c-0.2,0.4-0.3,0.9-0.5,1.3
		c-0.2,0.4-0.4,0.9-0.7,1.3c-0.2,0.2-0.5,0.3-0.8,0.5c-0.2,0.1-0.4,0.2-0.4,0.5c-0.5-0.2-0.8,0.2-1.2,0.4c-0.7,0.3-1.4,0.7-2.1,1.1
		c-0.1,0-0.1,0.1-0.2,0.2c0.4-0.2,0.7-0.3,1.2-0.5c-0.1,0.5-0.5,0.5-0.7,0.7c-0.2,0.2-0.5,0.3-0.8,0.5c0,0,0,0.1,0,0.1
		c0.3,0,0.5,0,0.8,0c0.9,0,1.8-0.1,2.8,0c1.4,0.1,2.7,0.4,3.9,0.9c1.1,0.4,2.1,0.9,3.1,1.4c1.7,0.9,3.3,1.8,5,2.7
		c0.9,0.5,1.7,1,2.6,1.6c1.3,0.8,2.6,1.6,3.8,2.4c1.1,0.7,2.3,1.5,3.4,2.2c0.7,0.5,1.5,1,2.1,1.5c1.1,0.8,2,1.8,2.7,3
		c0.4,0.6,0.6,1.3,0.9,2c0.1,0.3,0.2,0.7,0.3,1c0.1,0.5,0.2,0.9,0.1,1.4c0,0.1,0,0.2,0,0.3L72,57.6l-0.7,1.2l-0.7,0.5l-0.9,0.1
		c-0.5,0.1-1.1,0.2-1.6,0.3c-0.7,0-1.4,0-2-0.1c-0.5,0-1-0.1-1.4-0.2c-0.2,0-0.5-0.1-0.7-0.2c-0.5-0.1-1-0.3-1.5-0.5
		c-0.4-0.1-0.9-0.2-1.3-0.3c-0.2-0.1-0.4-0.2-0.6-0.3c-0.5-0.2-1-0.4-1.5-0.6c-0.3-0.1-0.5-0.2-0.8-0.3c-0.3-0.1-0.5-0.3-0.8-0.4
		c-0.4-0.2-0.7-0.4-1-0.6c-0.2-0.1-0.5,0-0.7,0.2c0,0-0.1,0.1-0.1,0.1l0,0c0,0,0,0,0,0c0,0,0,0,0,0l0,0c0,0-0.1,0.1-0.1,0.1
		c-0.2,0.1-0.4,0.4-0.2,0.7c0.2,0.4,0.4,0.7,0.6,1c0.1,0.3,0.3,0.5,0.4,0.8c0.1,0.2,0.2,0.5,0.3,0.8c0.2,0.5,0.4,1,0.6,1.5
		c0.1,0.2,0.2,0.4,0.3,0.6c0.1,0.4,0.2,0.9,0.3,1.3c0.1,0.5,0.3,1,0.5,1.5c0.1,0.2,0.1,0.5,0.2,0.7c0.1,0.5,0.1,1,0.2,1.4
		c0,0.7,0.1,1.4,0.1,2c0,0.5-0.2,1.1-0.3,1.6l-0.1,0.9l-0.5,0.7l-1.2,0.7l-1.8,0.1c-0.1,0-0.2,0-0.3,0c-0.5,0.1-0.9,0-1.4-0.1
		c-0.3-0.1-0.7-0.2-1-0.3c-0.7-0.3-1.4-0.5-2-0.9c-1.1-0.7-2.1-1.6-3-2.7c-0.5-0.7-1-1.4-1.5-2.1c-0.8-1.1-1.5-2.3-2.2-3.4
		c-0.8-1.3-1.6-2.6-2.4-3.8c-0.5-0.9-1.1-1.7-1.6-2.6c-0.9-1.6-1.8-3.3-2.7-5c-0.5-1-1-2.1-1.4-3.1c-0.5-1.3-0.8-2.6-0.9-3.9
		c0-0.9,0-1.8,0-2.8c0-0.3,0-0.5,0-0.8c0,0-0.1,0-0.1,0c-0.2,0.3-0.3,0.5-0.5,0.8c-0.2,0.2-0.2,0.6-0.7,0.7c0.2-0.4,0.4-0.8,0.5-1.2
		c-0.1,0-0.1,0.1-0.2,0.2c-0.4,0.7-0.8,1.4-1.1,2.1c-0.2,0.4-0.6,0.7-0.4,1.2c-0.3,0-0.4,0.2-0.5,0.4c-0.1,0.3-0.3,0.6-0.5,0.8
		c-0.4,0.3-0.8,0.5-1.3,0.7c-0.4,0.2-0.8,0.3-1.3,0.5c0-0.2-0.1-0.4-0.2-0.6c0.7,0,1.2-0.2,1.7-0.4c0.5-0.2,0.8-0.6,1-1.1
		c0.2-0.4,0.3-0.8,0.5-1.2c0.4-0.9,0.9-1.7,1.3-2.6c0.3-0.5,0.6-1,1.3-1.1c0.1,0,0.2-0.1,0.1-0.2c-0.1-0.3-0.1-0.7-0.2-1
		c-0.2-0.5-0.2-1.1-0.1-1.7c-2-0.2-4-0.3-6.1,0c-0.2-0.1-0.2-0.3,0-0.6c0.2,0,0.3,0.1,0.5,0.1c1.1,0,2.2-0.1,3.3-0.2
		c0.1,0,0.2-0.1,0.2-0.1c0.3-0.1,0.5-0.2,0.8-0.3c0.1,0,0.3-0.1,0.5-0.1c-0.4-0.4-0.8-0.8-1.2-1.2c-0.3-0.3-0.6-0.5-0.6-1
		c-0.2,0.1-0.4,0.1-0.6,0.2c-0.4,0.1-0.8-0.1-1-0.5c-0.1-0.3-0.2-0.5,0-0.8c-8.7-7-20.1-11.2-24.6-12.6C2,26.8,0,33.8,0,41.2
		c0,22.7,18.4,41.2,41.2,41.2s41.2-18.4,41.2-41.2S63.9,0,41.2,0z"/>
</g>
</svg>
