<?xml-stylesheet type="text/css" href="/CMS_Themes/Default/Css/pest-icons.css" ?>
<svg version="1.1" id="Layer_1" xmlns="http://www.w3.org/2000/svg" viewBox="0 0 82.3 82.3" width="100%" height="100%">
<path fill="#102e52" class="pest-search__item-icon" d="M41.2,0C18.4,0,0,18.4,0,41.2s18.4,41.2,41.2,41.2c22.7,0,41.2-18.4,41.2-41.2S63.9,0,41.2,0z M34.2,13.1
	C34.2,13.1,34.2,13.1,34.2,13.1C34.2,13.1,34.2,13.1,34.2,13.1C34.2,13.1,34.2,13.1,34.2,13.1C34.2,13.1,34.2,13.1,34.2,13.1z
	 M64.9,43.8C64.8,43.8,64.8,43.8,64.9,43.8c-0.2-0.1-0.4-0.2-0.6-0.4c-0.1-0.1-0.2-0.1-0.3-0.1c-0.2-0.1-0.4-0.2-0.6-0.3
	c-0.5-0.3-0.9-0.8-1.3-1.2c-0.2-0.2-0.4-0.5-0.7-0.7c-0.3-0.2-0.5-0.5-0.8-0.6c-0.2-0.1-0.3-0.4-0.5-0.5c-0.3-0.3-0.6-0.5-0.9-0.8
	c-0.1-0.1-0.2,0-0.3,0.2c0-0.1-0.1-0.1-0.1-0.1c-0.5-0.5-0.9-1-1.4-1.5c-0.2-0.2-0.4-0.4-0.5-0.6c-0.1-0.1-0.1-0.3-0.3-0.3
	c0,0,0,0,0-0.1c-0.2-0.3-0.4-0.6-0.6-0.8c-0.2-0.2-0.3-0.4-0.6-0.6c-0.4-0.3-0.6-0.6-0.9-0.9c-0.3-0.3-0.6-0.6-0.9-1
	c-0.2-0.2-0.3-0.4-0.6-0.4c0,0.4-0.3,0.6-0.6,0.4c-0.4-0.1-0.8-0.1-1.2-0.2c-0.2,0-0.2,0.1-0.2,0.2c0.1,0.5,0.2,1.1,0.2,1.6
	c0,0.6,0.1,1.2,0.1,1.8c0,0.9,0,1.7,0,2.6c0,0.9,0.1,1.7,0.2,2.6c0,0.4,0.1,0.8,0.1,1.2c0,1.1,0.1,2.3,0.1,3.4c0,0.4,0,0.8,0,1.2
	c0,0.4,0,0.7,0,1.1c0,0.2,0.1,0.5,0.3,0.6c0.4,0.5,0.7,1.1,0.7,1.8c0,0.1,0,0.1,0,0.2c0.1,0.5,0.3,0.9,0.4,1.4
	c0.1,0.3,0.1,0.5,0.2,0.8c0.1,0.3,0.1,0.7,0.1,1c0,0.3,0.1,0.6,0.2,0.9c0,0.1,0,0.1,0,0.2c0,0.3,0,0.5,0.1,0.8
	c0.1,0.2,0.1,0.5,0.1,0.7c0,0-0.1,0.1-0.1,0.1c0.1,0.3,0.2,0.6,0.2,0.9c0,0.2,0,0.4,0.1,0.6c0,0.2,0,0.3,0.1,0.5
	c0,0.3,0.1,0.6,0.1,0.9c0,0,0,0.1,0,0.1c-0.2,0.3,0,0.5,0.1,0.7c0,0.1,0,0.2,0,0.3c0.1,0.2,0.2,0.5,0.2,0.7c0,0,0,0.1,0,0.1
	c-0.2,0.2,0,0.3,0,0.5c0.2,0.6,0.7,0.8,1,1.2c0.1,0.1,0.1,0.2,0.1,0.3c0.2,0.2,0.5,0.5,0.6,0.7c0.1,0.4,0.5,0.5,0.7,0.8
	c0.1,0.2,0.4,0.4,0.6,0.6c0.4,0.5,0.8,0.9,1.2,1.4c0.2,0.3,0.3,0.5,0.6,0.7c-0.3,0-0.4-0.4-0.7-0.3c0.1,0.3,0.3,0.6,0.1,0.9
	c-0.1-0.2-0.1-0.4-0.2-0.6c0-0.1-0.1-0.1-0.1-0.1c-0.4-0.1-0.6-0.5-0.8-0.7c-0.3-0.3-0.5-0.7-0.8-1c-0.1-0.1-0.2-0.2-0.3-0.4
	c0,0.1-0.1,0.1-0.1,0.2c-0.2-0.3-0.4-0.5-0.5-0.8c0,0-0.1,0.1-0.2,0.1c-0.2-0.4-0.4-0.7-0.6-1.1c-0.1,0.1-0.1,0.2-0.2,0.3
	c-0.3-0.5-0.5-1-0.8-1.5c0,0.1-0.1,0.2-0.1,0.3c-0.2-0.3-0.3-0.5-0.4-0.7c-0.1-0.2-0.2-0.4-0.3-0.5c0,0-0.2,0-0.2,0
	c-0.1,0.1-0.2,0.2-0.3,0.3c0-0.1-0.1-0.2-0.1-0.2c-0.1-0.5-0.1-1-0.2-1.5c0-0.2,0-0.4-0.1-0.5c0,0,0-0.1,0-0.2
	c0-0.1-0.1-0.3-0.1-0.4c0-0.1,0-0.2,0-0.3c0-0.2,0.1-0.4,0-0.5c-0.2-0.2,0-0.5-0.1-0.7c-0.1-0.3,0-0.6-0.1-0.8c-0.2-0.3,0-0.7-0.1-1
	c-0.1-0.5-0.1-1.1-0.1-1.6c0-0.9,0-1.8-0.1-2.7c0-0.1-0.1-0.2-0.1-0.4c0,0-0.1,0-0.1,0c0,0.1-0.1,0.3-0.1,0.4
	c-0.1,1-0.2,1.9-0.4,2.9c-0.1,0.6-0.2,1.2-0.4,1.8c-0.2,0.6-0.3,1.2-0.5,1.8c-0.2,0.6-0.4,1.2-0.7,1.7c-0.3,0.6-0.6,1.2-1,1.8
	c-0.1,0.2-0.2,0.4-0.4,0.6c-0.5,0.7-1,1.3-1.6,2c-0.4,0.4-0.9,0.8-1.3,1.2c-0.3,0.2-0.5,0.5-0.8,0.7c-0.6,0.4-1.2,0.8-1.9,1.1
	c-0.5,0.2-1,0.1-1.5,0.1c-0.1,0-0.2,0-0.3-0.1c-0.1,0-0.2,0.1-0.3,0.1c-0.5,0-1,0-1.5-0.1c-0.7-0.2-1.3-0.7-1.9-1.1
	c-0.3-0.2-0.5-0.4-0.8-0.7c-0.4-0.4-0.9-0.8-1.3-1.2c-0.6-0.6-1.1-1.3-1.6-2c-0.2-0.2-0.3-0.4-0.4-0.6c-0.3-0.6-0.7-1.2-1-1.8
	c-0.3-0.6-0.5-1.2-0.7-1.7c-0.2-0.6-0.4-1.2-0.5-1.8c-0.1-0.6-0.3-1.2-0.4-1.8c-0.1-1-0.2-1.9-0.4-2.9c0-0.2-0.1-0.3-0.1-0.4
	c0,0-0.1,0-0.1,0c0,0.1-0.1,0.2-0.1,0.4c0,0.9,0,1.8-0.1,2.7c0,0.5,0,1.1-0.1,1.6c-0.1,0.3,0,0.7-0.1,1c-0.1,0.2,0,0.6-0.1,0.8
	c-0.1,0.2,0.1,0.5-0.1,0.7c-0.1,0.1,0,0.3,0,0.5c0,0.1,0,0.2,0,0.3c0,0.1,0,0.3-0.1,0.4c0,0.1,0,0.2,0,0.2c-0.2,0.1-0.1,0.3-0.1,0.5
	c-0.1,0.5-0.1,1-0.2,1.5c0,0.1,0,0.1-0.1,0.2c-0.1-0.1-0.2-0.2-0.3-0.3c0,0-0.2,0-0.2,0c-0.1,0.2-0.2,0.4-0.3,0.5
	c-0.1,0.2-0.3,0.4-0.4,0.7c0-0.1-0.1-0.2-0.1-0.3c-0.3,0.5-0.5,1-0.8,1.5c-0.1-0.1-0.1-0.2-0.2-0.3c-0.2,0.4-0.4,0.7-0.6,1.1
	c-0.1-0.1-0.1-0.1-0.2-0.1c-0.2,0.3-0.4,0.5-0.5,0.8c0-0.1-0.1-0.1-0.1-0.2c-0.1,0.2-0.2,0.3-0.3,0.4c-0.3,0.3-0.5,0.7-0.8,1
	c-0.3,0.3-0.4,0.6-0.8,0.7c0,0-0.1,0.1-0.1,0.1c-0.1,0.2-0.1,0.4-0.2,0.6c-0.2-0.3,0-0.6,0.1-0.9c-0.3-0.1-0.4,0.3-0.7,0.3
	c0.2-0.3,0.4-0.5,0.6-0.7c0.3-0.5,0.8-0.9,1.2-1.4c0.2-0.2,0.5-0.4,0.6-0.6c0.2-0.3,0.5-0.5,0.7-0.8c0.1-0.3,0.4-0.5,0.6-0.7
	c0.1-0.1,0.1-0.2,0.1-0.3c0.3-0.4,0.9-0.7,1-1.2c0-0.2,0.2-0.3,0-0.5c0,0,0-0.1,0-0.1c0.1-0.2,0.2-0.4,0.2-0.7c0-0.1,0-0.2,0-0.3
	c0.1-0.2,0.3-0.4,0.1-0.7c0,0,0-0.1,0-0.1c0-0.3,0.1-0.6,0.1-0.9c0-0.2,0-0.3,0.1-0.5c0-0.2,0.1-0.4,0.1-0.6c0-0.3,0.1-0.6,0.2-0.9
	c0,0-0.1,0-0.1-0.1c0-0.2,0-0.5,0.1-0.7c0.1-0.3,0.1-0.5,0.1-0.8c0-0.1,0-0.1,0-0.2c0.1-0.3,0.1-0.6,0.2-0.9c0.1-0.3,0.1-0.7,0.1-1
	c0-0.3,0.1-0.5,0.2-0.8c0.1-0.5,0.3-0.9,0.4-1.4c0-0.1,0-0.1,0-0.2c-0.1-0.7,0.2-1.3,0.7-1.8c0.1-0.2,0.2-0.4,0.3-0.6
	c0-0.4,0-0.7,0-1.1c0-0.4,0-0.8,0-1.2c0-1.1,0.1-2.3,0.1-3.4c0-0.4,0.1-0.8,0.1-1.2c0.1-0.9,0.1-1.7,0.2-2.6c0-0.8,0-1.7,0-2.6
	c0-0.6,0-1.2,0.1-1.8c0-0.6,0.1-1.1,0.2-1.6c0-0.2,0-0.2-0.2-0.2c-0.4,0.1-0.8,0.1-1.2,0.2c-0.4,0.1-0.7,0-0.6-0.4
	c-0.3,0-0.4,0.2-0.6,0.4c-0.3,0.3-0.6,0.7-0.9,1c-0.3,0.3-0.6,0.6-0.9,0.9c-0.2,0.2-0.4,0.4-0.6,0.6c-0.2,0.3-0.4,0.6-0.6,0.8
	c0,0,0,0.1,0,0.1c-0.2,0-0.2,0.2-0.3,0.3c-0.2,0.2-0.4,0.4-0.5,0.6c-0.5,0.5-0.9,1-1.4,1.5c0,0-0.1,0.1-0.1,0.1
	c0-0.2-0.1-0.3-0.3-0.2c-0.3,0.2-0.6,0.5-0.9,0.8c-0.2,0.2-0.3,0.4-0.5,0.5c-0.3,0.2-0.5,0.5-0.8,0.6c-0.3,0.1-0.5,0.4-0.7,0.7
	c-0.4,0.4-0.8,0.9-1.3,1.2c-0.2,0.1-0.4,0.2-0.6,0.3c-0.1,0-0.2,0.1-0.3,0.1c-0.2,0.1-0.4,0.3-0.6,0.4c0,0,0,0,0-0.1
	c0.2-0.2,0.4-0.4,0.6-0.6c-0.4,0-0.8,0.2-1.1,0c0.3,0,0.5-0.1,0.7-0.1c0.2,0,0.3-0.1,0.3-0.3c0-0.1,0.2-0.2,0.3-0.3
	c0.2-0.2,0.5-0.3,0.7-0.4c0.4-0.3,0.9-0.6,1.2-1.1c0.1-0.1,0.3-0.2,0.3-0.3c0.1-0.3,0.3-0.4,0.5-0.5c0.1,0,0.1-0.1,0.2-0.1
	c0,0-0.1-0.1-0.1-0.1c0,0-0.1,0-0.2,0c0.4-0.3,0.7-0.5,1.1-0.8c-0.1,0-0.1,0-0.2,0c0.2-0.2,0.4-0.5,0.7-0.7
	c-0.1-0.1-0.2-0.1-0.2-0.1c-0.1-0.3,0-0.4,0.3-0.5c0.3-0.1,0.3-0.4,0.6-0.5c0.1,0,0.2-0.2,0.3-0.3c0.1-0.2,0.3-0.5,0.6-0.6
	c0,0,0.1,0,0.1-0.1c0.1-0.2,0.3-0.4,0.4-0.5c0.1-0.2,0.3-0.3,0.5-0.5c0.1-0.1,0.2-0.3,0.4-0.4c0,0,0.1,0,0.1,0
	c0-0.1,0.1-0.1,0.1-0.1c0.1-0.1,0.3-0.2,0.4-0.3c0.2-0.2,0.4-0.5,0.7-0.7c0.1-0.1,0.3-0.2,0.4-0.3c0.3-0.3,0.7-0.4,1-0.7
	c0.4-0.3,0.9-0.4,1.2-0.9c0,0,0.1,0,0.1-0.1c0.7-0.4,1.4-0.6,2.1-0.7c0.2,0,0.4-0.1,0.5-0.3c0.2-0.4,0.3-0.8,0.1-1.3
	c0-0.1,0-0.1,0-0.2c-0.1-0.6,0-1.1,0-1.7c0-0.4,0-0.8,0-1.2c0-0.1-0.1-0.2-0.1-0.2c-0.2-0.2-0.4-0.4-0.5-0.6
	c-0.1-0.2-0.1-0.5-0.3-0.7c-0.3-0.4-0.4-0.8-0.5-1.3c-0.1-0.4-0.2-0.7-0.2-1.1c0-0.5-0.1-0.9-0.4-1.3c-0.1-0.2-0.1-0.5,0.1-0.7
	c0.2-0.2,0.2-0.4,0-0.7c0-0.1-0.1-0.2-0.1-0.2c0.1-0.2,0-0.3-0.1-0.5c0-0.1-0.1-0.2-0.1-0.2c0.1-0.2,0.1-0.3,0-0.4
	c0-0.1,0-0.1,0-0.2c0-0.1,0-0.3,0-0.4c-0.1-0.4-0.3-0.8-0.5-1.2c-0.1-0.2-0.1-0.3-0.1-0.5c0-0.2-0.1-0.4-0.3-0.6
	c-0.1-0.1-0.3-0.2-0.4-0.3c0,0,0,0,0-0.1c0.2,0.1,0.4,0.2,0.7,0.3c0,0,0,0,0,0c-0.1-0.1-0.2-0.3-0.3-0.4c0.1,0,0.2,0,0.2,0.1
	c0.1,0.2,0.2,0.3,0.4,0.5c0.1,0.1,0.1,0.2,0.2,0.2c0.1,0.1,0.2,0.2,0.3,0.3c0.2,0.4,0.3,0.7,0.4,1.1c0.2,0.8,0.2,1.6,0.5,2.3
	c0.1,0.3,0.2,0.5,0.5,0.6c0-0.1-0.1-0.2-0.1-0.3c0.1,0,0.2,0,0.2,0.1c0.1,0.2,0.3,0.3,0.4,0.5c0.2,0.3,0.3,0.6,0.3,1
	c-0.1,0.6-0.1,1.2-0.2,1.8c0,0.3,0,0.7,0,1c0.1,0,0.1-0.1,0.2-0.1c0.2,0,0.3,0,0.3-0.2c0-0.1,0.1-0.2,0.1-0.3c0.3-1,1-1.8,1.7-2.5
	c0.4-0.4,1-0.8,1.5-1.1c0.3-0.2,0.6-0.4,0.7-0.8c0.1-0.2,0.2-0.4,0.4-0.6c0.1-0.1,0.2-0.2,0.3-0.4c-0.3,0-0.5,0.1-0.6,0
	c-0.3-0.2-0.6,0.1-0.9,0.2c-0.4,0.1-0.7,0.3-1.1,0.4c-0.1,0-0.1,0-0.2,0c-0.1,0-0.2,0-0.3-0.1c-0.1,0-0.3-0.1-0.3-0.1
	c0-0.1-0.1-0.1-0.2-0.1c-0.2,0-0.4-0.2-0.4-0.3c-0.3-0.2-0.6-0.3-0.6-0.7c0,0-0.1-0.1-0.1-0.1c-0.3-0.2-0.5-0.5-0.5-0.9
	c0-0.1,0-0.1-0.1-0.2C31,16.1,31,15.8,31,15.5c0-0.2,0.1-0.5,0.2-0.7c0.1-0.1,0.2-0.3,0.3-0.2c0.3,0.1,0.6,0.2,0.7,0.5
	c0,0.1,0.1,0.2,0.1,0.2c0.4,0.1,0.6,0.4,0.6,0.8c0,0.1,0.1,0.1,0.1,0.1c0.3,0,0.3,0.2,0.4,0.4c0.2,0.3,0.1,0.7,0.1,1.1
	c0,0.1,0,0.2,0.1,0.3c0.1,0.2,0.6,0.1,0.8-0.1c0.1-0.1,0.2-0.1,0.3-0.1c0.1,0,0.1,0,0.2-0.1c0.1,0,0.2-0.1,0.4-0.1
	c0.1,0,0.2,0,0.3-0.1c0.1,0,0.1-0.2,0.2-0.3c0.1,0.1,0.2,0.2,0.4,0.3c0.1-0.5,0.2-0.6,0.7-0.6c0.1,0,0.3,0,0.4,0
	c0.2,0,0.4,0.1,0.5,0c0.5-0.2,1-0.4,1.6-0.5c0.4-0.1,0.8-0.1,1.2-0.2v0c0,0,0.1,0,0.1,0s0.1,0,0.1,0v0c0.4,0,0.8,0.1,1.2,0.2
	c0.5,0.1,1.1,0.3,1.6,0.5c0.1,0.1,0.3,0,0.5,0c0.1,0,0.3,0,0.4,0c0.4,0,0.6,0.2,0.7,0.6c0.1-0.1,0.3-0.2,0.4-0.3
	c0.1,0.1,0.1,0.2,0.2,0.3c0.1,0.1,0.2,0,0.3,0.1c0.1,0,0.2,0.1,0.4,0.1c0.1,0,0.1,0,0.2,0.1c0.1,0,0.2,0.1,0.3,0.1
	c0.2,0.2,0.7,0.3,0.8,0.1c0.1-0.1,0.1-0.2,0.1-0.3c0-0.4-0.1-0.7,0.1-1.1c0.1-0.2,0.2-0.4,0.4-0.4c0,0,0.1-0.1,0.1-0.1
	c0.1-0.4,0.2-0.7,0.6-0.8c0.1,0,0.1-0.1,0.1-0.2c0.1-0.3,0.4-0.4,0.7-0.5c0.2,0,0.3,0.1,0.3,0.2c0.1,0.2,0.2,0.4,0.2,0.7
	c0.1,0.3,0,0.6-0.2,0.8c0,0-0.1,0.1-0.1,0.2c0,0.4-0.2,0.7-0.5,0.9c0,0-0.1,0.1-0.1,0.1c0,0.4-0.3,0.5-0.6,0.7
	c0,0.2-0.1,0.3-0.4,0.3c-0.1,0-0.2,0-0.2,0.1c0,0.1-0.2,0.1-0.3,0.1c-0.1,0-0.2,0.1-0.3,0.1c-0.1,0-0.1,0-0.2,0
	c-0.4-0.1-0.7-0.3-1.1-0.4c-0.3-0.1-0.5-0.3-0.9-0.2c-0.1,0.1-0.3,0-0.6,0c0.1,0.2,0.2,0.3,0.3,0.4c0.1,0.2,0.3,0.4,0.4,0.6
	c0.1,0.4,0.4,0.6,0.7,0.8c0.5,0.4,1,0.7,1.5,1.1c0.7,0.7,1.4,1.5,1.7,2.5c0,0.1,0.1,0.2,0.1,0.3c0.1,0.1,0.1,0.2,0.3,0.2
	c0.1,0,0.1,0,0.2,0.1c0-0.3,0-0.7,0-1c-0.1-0.6-0.1-1.2-0.2-1.8c0-0.4,0.1-0.7,0.3-1c0.1-0.2,0.3-0.3,0.4-0.5c0,0,0.1,0,0.2-0.1
	c-0.1,0.1-0.1,0.2-0.1,0.3c0.2-0.1,0.4-0.3,0.5-0.6c0.3-0.8,0.4-1.6,0.5-2.3c0.1-0.4,0.3-0.8,0.4-1.1c0-0.1,0.2-0.2,0.3-0.3
	c0.1-0.1,0.1-0.1,0.2-0.2c0.1-0.2,0.2-0.4,0.4-0.5c0-0.1,0.1-0.1,0.2-0.1c-0.1,0.1-0.2,0.3-0.3,0.4c0,0,0,0,0,0
	c0.2-0.1,0.4-0.2,0.7-0.3c0,0,0,0,0,0.1c-0.1,0.1-0.3,0.2-0.4,0.3c-0.2,0.1-0.3,0.3-0.3,0.6c0,0.2-0.1,0.3-0.1,0.5
	c-0.1,0.4-0.3,0.8-0.5,1.2c0,0.1,0,0.3,0,0.4c0,0.1,0,0.1,0,0.2c0,0.1-0.1,0.3,0,0.4c0,0,0,0.2-0.1,0.2c-0.1,0.2-0.2,0.3-0.1,0.5
	c0,0.1,0,0.1-0.1,0.2c-0.2,0.3-0.2,0.4,0,0.7c0.2,0.2,0.2,0.4,0.1,0.7c-0.3,0.4-0.3,0.9-0.4,1.3c0,0.4-0.1,0.8-0.2,1.1
	c-0.1,0.4-0.2,0.9-0.5,1.3c-0.2,0.2-0.2,0.5-0.3,0.7c-0.1,0.2-0.3,0.4-0.5,0.6c-0.1,0.1-0.1,0.2-0.1,0.2c0,0.4,0,0.8,0,1.2
	c0,0.6,0.1,1.1,0,1.7c0,0.1,0,0.1,0,0.2c-0.2,0.4-0.1,0.9,0.1,1.3c0.1,0.2,0.3,0.2,0.5,0.3c0.7,0.1,1.5,0.3,2.1,0.7
	c0,0,0.1,0,0.1,0.1c0.2,0.5,0.8,0.6,1.2,0.9c0.3,0.2,0.7,0.4,1,0.7c0.1,0.1,0.3,0.2,0.4,0.3c0.3,0.2,0.5,0.5,0.7,0.7
	c0.1,0.1,0.3,0.2,0.4,0.3c0,0,0.1,0.1,0.1,0.1c0.1,0,0.1,0,0.1,0c0.1,0.2,0.3,0.3,0.4,0.4c0.2,0.2,0.3,0.3,0.5,0.5
	c0.1,0.2,0.3,0.3,0.4,0.5c0,0,0.1,0,0.1,0.1c0.3,0.1,0.4,0.3,0.6,0.6c0.1,0.1,0.2,0.2,0.3,0.3c0.3,0.1,0.3,0.4,0.6,0.5
	c0.3,0.1,0.3,0.2,0.3,0.5c0,0-0.1,0.1-0.2,0.1c0.2,0.2,0.4,0.4,0.7,0.7c0,0-0.1,0-0.2,0c0.4,0.3,0.7,0.5,1.1,0.8c-0.1,0-0.1,0-0.2,0
	c0,0-0.1,0.1-0.1,0.1c0.1,0,0.2,0.1,0.2,0.1c0.2,0.1,0.4,0.3,0.5,0.5c0,0.1,0.3,0.2,0.3,0.3c0.3,0.5,0.8,0.7,1.2,1.1
	c0.2,0.2,0.4,0.3,0.7,0.4c0.1,0.1,0.2,0.2,0.3,0.3c0.1,0.2,0.2,0.3,0.3,0.3c0.2,0,0.4,0.1,0.7,0.1c-0.4,0.3-0.7,0-1.1,0
	C64.5,43.5,64.7,43.6,64.9,43.8z"/>
</svg>
