<svg xmlns="http://www.w3.org/2000/svg" width="1920" height="701" viewBox="0 0 1920 701">
  <path fill="#102e52" id=" fill="#102e52"_742" data-name=" fill="#102e52" 742" d="M-923.794,542.373l10.663,14.343h4.741L-920.7,540.159l31.217-22.239q16.335,19.581,32.331,38.8H-842.3c-12.549-15.081-25.211-30.278-37.862-45.439l38.126-27.164c1.181,22.208,2.482,47.178,3.76,72.6h11.439c-.37-7.359-.741-14.683-1.11-21.914v0l67.644-15.951,16.967,37.867h4.16l-17.36-38.755,38.1-8.986c11.022,16.245,22.76,32.551,34.775,47.741h14.693q-14-17.039-26.745-35.055l130.1-7.221c4.757,13.776,9.594,27.743,14.424,41.634l-1.971.642h14.291c-4.806-13.819-9.633-27.75-14.392-41.525q7.242,3.689,14.325,7.293h0c15.052,7.659,29.362,14.942,42.533,21.615L-503,556.716h4.3l5.688-10.894c7.66,3.878,14.887,7.524,21.608,10.894h25.652c-11.473-5.629-25.767-12.8-41.98-21.012l55.03-105.4,28.939,83.725-62.6,13.628a1.9,1.9,0,0,0-1.491,2.236,1.9,1.9,0,0,0,1.891,1.527,1.867,1.867,0,0,0,.408-.042l63.325-13.792a1.831,1.831,0,0,0,1.234.533,1.9,1.9,0,0,0,.625-.1,1.858,1.858,0,0,0,1.116-1.078l57.722-12.569c-.609,17.645-1.168,35.186-1.7,52.34h14.806l98.458-14.308q2.493,7.165,4.989,14.308h12.105c-8.688-24.851-17.578-50.494-25.414-73.516h-.009l88.147-16.835a622.9,622.9,0,0,0,7.611,90.351h11.587a611,611,0,0,1-7.521-79.789l51.116,16.918a1.858,1.858,0,0,0,1.546.83,1.789,1.789,0,0,0,.472-.16l39.8,13.175-43.13,49.026h5.037l42.007-47.735,1.341.442,37.719,11.022-13.027,34.992a2.1,2.1,0,0,0-.107.461l-.088.818h3.832l.019-.172L1.108,521.522l72.508,21.192c3.163,4.589,6.384,9.271,9.637,14H97.126l-.254-.369c-4.224-6.14-8.4-12.215-12.5-18.156l8.1-21.266,118.072,33.613-1.958,6.178h4l1.627-5.133,18.131,5.133h14l-30.978-8.769,20.967-66.174,100.875,36.263-54.252,35.315-16.111-31.6a1.905,1.905,0,0,0-3.394,1.733L280.4,556.716h4.363L341.7,519.648l16.949,6.094-10.463,30.974h4.021l10.029-29.685,82.581,29.685H456.07l-4.557-1.638L480.7,494.945l58.48,7.5a1.88,1.88,0,0,0,1.379,1.2,2.3,2.3,0,0,0,.37.03,1.886,1.886,0,0,0,1.531-.807l54.123,6.94c-9.97,4.217-19.907,8.395-29.726,12.524l0,0c-28.218,11.863-55.319,23.277-79.874,34.382h28.18q8.045-3.5,16.343-7.037l-1.9,7.037h3.945l2.41-8.928q17.271-7.347,35.326-14.919,6.8-2.856,13.67-5.748l-17.88,29.6h4.46l19.4-32.112c11.51-4.856,23.1-9.777,34.66-14.771l-2.072,10.642-2.953,36.241h3.8l2.91-35.733,2.525-12.988q5.992-2.6,11.967-5.226l42.479,8.113-8.559,45.834h3.877l8.429-45.117,25.58,4.887a2.15,2.15,0,0,0,.358.03,1.84,1.84,0,0,0,.484-.061l27.991-7.374L785.157,528a1.9,1.9,0,0,0,2.509-.962c.021-.048.04-.1.058-.146l1.482-4.209c8.1,13.243,15.21,24.792,20.91,34.03h15.651v-10.6c-.705.563-1.659,1.31-2.906,2.252-8.132-13.171-17.318-28.124-27.134-44.208l14.15-40.19,15.89,5.26v-4.008l-16.423-5.438h-.022L759.861,443.41c28.524-17.512,51.732-35.782,65.906-54.883V365.97c-.024.053-.052.1-.075.156-9.861,23.557-36.614,46.261-72.314,68.036l-.053-.092,15.886-86.711,56.556,6.114v-3.836L695.421,335.554c-24.536-42.841-43.961-78.8-50.729-96.18,58.219-9.443,119.262-16.007,181.075-17.548V206.579c-22.951.571-45.779,1.846-68.406,3.67l-.724-7.678,69.13-28.071v-4.114l-69.5,28.224-4.723-50.188,23.279,3.512a2.215,2.215,0,0,0,.282.019h.1l50.565-2.71v-3.816l-50.57,2.709-12.241-1.843,20.861-40.385,41.95,16.467v-4.089l-40.658-15.96,2.872-8.056,37.786,11.305V101.6L789.261,90.678l11.118-31.16a1.948,1.948,0,0,0,.11-.571l.754-20.263,24.524-7.242V27.471l-24.376,7.2.777-20.982,23.6-2.717V7.138l-23.455,2.7,1.242-33.43,22.213-1.576v-3.817l-22.073,1.564,1.668-44.883c7.755-.746,14.647-1.512,20.405-2.283V-86.122c-3.074.426-6.535.852-10.314,1.274l-8.247-59.436h-3.835l4.658,33.577-87.476-6.521-.942-27.056H715.8l.948,27.215a1.88,1.88,0,0,0-.83,1.4,1.9,1.9,0,0,0,.937,1.763l1.257,36.084c-25.5,1.294-51.64,2.3-74.958,2.878.364-24.082.7-47.422.954-69.345h-19.6l-49.474,25.363,3.538-21.984.422-3.379h-3.839l-.354,2.833-3.889,24.174-67.225,6.212-15.042-33.219h-4.166L500.8-108.239l.038.08,4.011,8.859c-22.983-9.975-48.056-21.668-70.464-32.256h0l42.121-10.2a1.9,1.9,0,0,0,1.4-2.3,2.01,2.01,0,0,0-.081-.229h-7.059l-41.86,10.129c-4.536-2.148-8.954-4.243-13.182-6.25l-8.176-3.879h-26.8c8.892,4.144,19.165,9.019,30.09,14.2,2.514,1.192,5.085,2.411,7.675,3.641l31.727,76.522a1.9,1.9,0,0,0,1.76,1.173,1.932,1.932,0,0,0,.442-.049L518-64.51l17.448,49.934-72.969,2.129L447.569-28.7l-.011-.011-.015-.015-.023-.015a1.9,1.9,0,0,0-.906-.507c-.069-.015-.126-.038-.194-.05a1.215,1.215,0,0,0-.168-.042,1.8,1.8,0,0,0-.887.175h-.042l-26.73,12.756.065-.75a1.9,1.9,0,0,0-.092-.773l-31.171-91.849c-.008-.031-.034-.05-.046-.076s-.008-.065-.019-.1a2.432,2.432,0,0,0-.217-.3,1.191,1.191,0,0,0-.6-.541,1.7,1.7,0,0,0-.24-.16l-.046-.008-.038-.023-86.162-28.315h-.008l-15.144-4.977H272.65l24.593,8.082-9.834,37.863-30.082-6.844-2.942-39.1H250.57l2.874,38.208-32.775-7.458,5.747-30.75h-3.869l-3.5,18.745L173.39-144.284H163.365l25.623,10.522L183.721-97.48l-35.33-12.855,10.876-33.949h-4.011L144.2-109.754a1.905,1.905,0,0,0,1.162,2.369l66.021,24.022L210.353-48.3l-67.6-34.511a1.936,1.936,0,0,0-1.5-.1,1.9,1.9,0,0,0-1.1,1.025L106.815-6.528a1.9,1.9,0,0,0,.613,2.3l43.546,31.975a1.875,1.875,0,0,0,1.127.37,1.9,1.9,0,0,0,1.127-3.436L110.916-6.391l31.9-72.116,67.419,34.416-1.493,51.1L198.534,9.98,146.281,2.553a1.9,1.9,0,1,0-.537,3.771l49.484,7.035L177.1,37.72a1.9,1.9,0,0,0,0,2.278L197.14,66.812a1.9,1.9,0,1,0,3.051-2.281l-19.182-25.67,18.812-25.283,10.436-3.039,48.652,34.449-17.631,22.5-22.144-8.349a1.906,1.906,0,0,0-1.348,3.565l23.455,8.84a1.9,1.9,0,0,0,2.175-.606l19.726-25.172a1.9,1.9,0,0,0-.316-2.668q-.042-.033-.084-.063L219.348,12.309l53.635,11.674,6.665,21.577V88.813a1.9,1.9,0,0,0,1.185,1.763L320.791,106.9a1.905,1.905,0,0,0,2.354-.785l8.493-14.146,54.138-5.348a1.9,1.9,0,0,0,1.558-1.12L415.1,23.132a1.991,1.991,0,0,0,.156-.613l2.959-34.531,25.839-12.327-4.167,71.761a1.874,1.874,0,0,0-.236,2.224c.026.046.072.069.1.11L437.344,91.2l-39.067,48.116a1.866,1.866,0,0,0-.43,1.2v41.836l-58.84,5.944a1.9,1.9,0,0,0-.434.1l-53.38,18.553,18.317-57.307,18.61,8.021a1.866,1.866,0,0,0,.754.156,1.9,1.9,0,0,0,.754-3.653l-76.8-33.1,3.519-19.417,79.341,37.2A1.905,1.905,0,1,0,331.3,135.4L173.151,61.244a2.047,2.047,0,0,0-.518-.16L146.307,57a1.907,1.907,0,0,0-1.493.408l-8.288,6.761-31.5-42.929a1.877,1.877,0,0,0-.7-.587L75.718,6.754a1.9,1.9,0,0,0-1.482-.076L49.308,15.743,59.47-9.806A1.9,1.9,0,0,0,58.4-12.279a1.9,1.9,0,0,0-2.473,1.068L44.9,16.513l-71-27.968,9.061-15a1.753,1.753,0,0,0,.179-.4L-4.209-66.207,27.027-78.178l-.64,4.826a1.915,1.915,0,0,0,.583,1.638L49.423-50.625a1.891,1.891,0,0,0,.811.453L101.26-36.411a1.96,1.96,0,0,0,.5.065A1.9,1.9,0,0,0,103.7-38.2a1.9,1.9,0,0,0-1.444-1.889L51.685-53.739l-21.394-20.1,2.327-17.57,35.608,3.538a1.928,1.928,0,0,0,.449-.008l26.863-3.676,30.95,7.359a1.9,1.9,0,0,0,2.293-1.413,1.905,1.905,0,0,0-1.413-2.293l-31.3-7.438a1.8,1.8,0,0,0-.7-.034L68.375-91.683l-35.262-3.5,1.665-12.573,56.793-26.121a1.9,1.9,0,0,0,.926-.918l4.485-9.489H4.792C-26.282-127.972-55.081-60.115-76.683-9.2c-4.232,9.968-8.17,19.25-11.67,27.039C-89.358-6.933-88.246-49.142-72.4-78.39c7.676-14.174,18.283-38.675,29.323-65.894h-12.37c-.929,2.279-1.856,4.542-2.775,6.768l0,.005h0l0-.006-1.957-6.768h-3.972l3.589,12.407c-7.465,17.9-14.42,33.582-19.989,44.418l-30.166-33.8,12.144-23.025h-4.3l-11.864,22.491-8.1,15.365-9.438-37.856h-11.781l11.334,45.468-56.059-45.468h-6.054l16.072,13.036L-189-121.094l-30.35-23.19h-6.264l33.883,25.89L-231.568-78.9l-15.307-15.75a14.535,14.535,0,0,0-2.049-1.973l1.484-47.662h-3.808l-1.42,45.393a16.048,16.048,0,0,0-4.986-1.329c-5.835-.594-11.986,1.919-18.3,7.389C-288.569-81.915-288.112-72.705-286.6-68l-13.258-.442,42.56-75.84h-4.374l-42.48,75.7-8.212-.274,37.678-75.423h-4.258l-20.206,40.455-59.566-39.779.139-.676h-11.671L-396.567-16.725c-7.039-7.957-16.644-16.26-27.309-25.424-9.133-7.85-19-16.347-28.269-25.557L-437.71-92.52a1.9,1.9,0,0,0-.625-2.567l-37.6-23.862,23.863-25.335h-5.24l-33.482,35.552c-6.212-5.869-13.525-12.607-21.714-20.027l12.425-15.525h-4.836L-515.31-131.3c-4.034-3.641-8.288-7.454-12.706-11.4l1.312-1.587h-20.138c8.5,7.508,16.435,14.589,23.69,21.137h0l-71.27,62.582-31.208-26.521,50.04-57.2h-5.059l-47.885,54.731-26.584-22.586,18.884-32.145h-4.407l-17.414,29.645-34.092-28.973.62-.672h-7.3l1.186,1.008-28.813,31.224-36.463-32.232h-5.756l39.636,35.027L-756.11-79.914l-45.281-40.89q8.19-11.62,16.244-23.48h-13.821q-15.144,22.006-30.685,43.206l-70.208-43.206h-7.273l75.214,46.29c-21.549,29.187-43.606,56.9-65.963,82.335a280.431,280.431,0,0,0-58.785-19.992l-39.151-36.488,63.886-72.145h-5.088l-61.586,69.545L-1057.78-129.9l11.425-14.388h-4.854l-43.024,54.176v8.549l53.779,19.216,15.81,17-1.535,1.737a384.386,384.386,0,0,0-68.054,5.024V-27a368.323,368.323,0,0,1,59.878-5.264l15.372,11.141-75.25,67.165v5.1l78.406-69.985,51.347,37.2c-48.281,22.729-102.493,46.876-129.753,58.916V89.766q3.467-1.527,7.692-3.4l46.406,58.3-54.1,37.038v4.622l56.48-38.671,11.437,14.362,46.037,66.022,26.745,31.963-.846.762-87.125,11.285-52.728-39.563v4.762l47.316,35.5-29.838,3.862c-6.975-8.295-12.861-15.29-17.478-20.777v17.743q7.674,9.119,15.676,18.636c-6.063-1.934-11.335-3.611-15.676-4.991v11.989c7.709,2.454,17.726,5.649,29.468,9.409q9.57,11.382,19.5,23.207l-48.968-22.411v4.191l37,16.936-37,60.673v7.312l40.487-66.39,14.2,6.5q8.3,9.885,16.789,20l-71.476,59.688v4.961l62.878-52.505-54.3,66.334q-4.689.7-8.578,1.268v15.4c23.962-3.508,75.292-11.228,133.432-21.216q4.622,5.526,9.263,11.068L-989.611,463.1a1.907,1.907,0,0,0-.831,2.564,1.906,1.906,0,0,0,2.564.83l38.846-19.859,19.253,23.024-56.583,29.812a1.905,1.905,0,0,0-.8,2.573,1.9,1.9,0,0,0,2.573.8l57.3-30.2q9.174,10.974,18.328,21.938l-40.979,28.779a1.906,1.906,0,0,0-.467,2.653,1.9,1.9,0,0,0,2.653.466l41.245-28.958q7.307,8.752,14.58,17.471l-32.592,23.218-25.974,18.505h6.569ZM300.874-135.016l26.92,8.853L310.963-92.989,291.131-97.5Zm-80.911,25.235,68.346,15.542,23.249,5.29a1.943,1.943,0,0,0,.423.046,1.907,1.907,0,0,0,1.7-1.044l17.768-35.018,49.442,16.252L311.074-69.339,279.4-82.864a1.9,1.9,0,0,0-.644-.149L215.6-86.46Zm161.646,5.042L363.834-63.526l-45.283-2.628-3.062-1.306ZM187.38-96.153l5.241-36.118,25.709,10.558-1.71,9.16-.023.049v.08l-4.7,25.191ZM283.37,44.706,276.289,21.8a1.9,1.9,0,0,0-1.413-1.3L212.557,6.929,214-42.871,288.37-26.12a1.906,1.906,0,0,0,2.249-1.485,1.906,1.906,0,0,0-1.407-2.232l-75.1-16.915,1.043-35.924,63.051,3.447L317.36-62.516a1.987,1.987,0,0,0,.636.148l45.317,2.628,2.487,25.5L329.552,10.738a1.951,1.951,0,0,0-.419,1.326l4.007,59.425-13.327,8.478L283.454,71V45.27A2.032,2.032,0,0,0,283.37,44.706ZM411.485,21.879,384.3,82.945l-53.993,5.336a1.892,1.892,0,0,0-1.447.914l-8.143,13.567L283.458,87.538V74.916l36.237,8.939a1.852,1.852,0,0,0,.457.057,1.9,1.9,0,0,0,1.021-.3l14.568-9.27,35.307-2.681a1.9,1.9,0,0,0,1.76-1.9V9.661l41.424-19.768Zm3.126-36.387L370.083,6.741A1.9,1.9,0,0,0,369,8.459V68l-32.108,2.445-3.9-57.893,36.271-45a1.888,1.888,0,0,0,.415-1.379L367-61.237l18.385-42.628,29.445,86.778ZM-834.681,408.707c14.135-3,27.816-6.066,40.716-9.146l.008,0c4.178,1.584,8.021,3.073,11.495,4.464,3.325,6.037,7.816,14.062,13.266,23.519l-62.049,44.212C-832.8,442.621-834.075,419.578-834.681,408.707ZM-936.329,40.467l35.5,28.455.076.986a2,2,0,0,0,.091.453l36.153,108.79-15.349,13.94-.861.785a1.916,1.916,0,0,0-.282-.537l-34.946-43.211,2.956-2.64a1.9,1.9,0,0,0,.154-2.682c-.032-.037-.066-.072-.1-.106l-22.4-21.657a1.9,1.9,0,0,0-2.693.042,1.9,1.9,0,0,0,.042,2.693l20.929,20.232-9.971,8.913-16.633-16.363a1.9,1.9,0,0,0-2.693.023,1.9,1.9,0,0,0,.023,2.693l16.446,16.2-8.745,7.812-19.048-20.5a1.9,1.9,0,0,0-2.689-.1,1.9,1.9,0,0,0-.1,2.689l20.316,21.874a1.906,1.906,0,0,0,2.666.126l1.4-1.253,41.188,38.636-18.7,16.973-114.588-82.541c-.023-.019-.053-.019-.076-.034l11.552-7.911a1.824,1.824,0,0,0,.362-.324Zm-.477-5.264-13.563-10.87c14.249-6.764,27.751-13.312,39.68-19.307Zm1047,86.334L86.686,81.606,130.106,101,111.77,153.082,57.055,120.461,43.385,113.3,65.663,72.219l15.028,6.709,26.227,44.544a1.9,1.9,0,0,0,3.279-1.935ZM512.383,47.889l-4.7-10.3,40.445-12.531-8.877,72.874-35.06-2.769,8.333-46.147A1.948,1.948,0,0,0,512.383,47.889ZM575.11-63.694l51.8,53.563q-.063,4.131-.13,8.246L548.35,54.786l3.923-32.18,14.055-87.392c1.831.356,3.542.634,5.069.786v.006C572.517-63.884,573.774-63.781,575.11-63.694Zm5.6.311c11.445.51,27.884.552,47.023.24-.171,11.426-.35,22.913-.533,34.359v0q-.1,6.651-.209,13.258Zm44.582,262.169c.065,3.447.137,6.73.229,9.769l-34.5,2.3,7.739-20.894ZM600.084,186.4l4.022-10.855,20.979,8.051q.051,5.85.133,11.16Zm25.207-78.268-74.317-48.25L626.057,46.01c-.312,21.751-.579,42.642-.766,62.12Zm.342,104.242c.2,5.8.457,10.707.773,14.622q-22.524,3.885-44.421,8.252l-.008,0,7.606-20.537a1.516,1.516,0,0,0,.24.046h.129Zm.476-170.25L553.9,55.47,626.7,2.863C626.495,16.161,626.3,29.285,626.109,42.124ZM549.7,14.628l-8.939-25.553,13.11-.385Zm-2.245,47.513,77.794,50.512c-.232,25.224-.323,47.908-.194,66.846v.006l-87.8-33.689ZM600.55,174.179l-22.959,61.973q-21.8,4.41-42.8,9.209l-8.84-6.837,10.825-88.813ZM501.2,416.912l8.04-71.186,6.787,4.381L642.831,406.85l1.786,31.864-88.756-13.491Zm52.049,11.765L544.456,473.7l-53.814-15.426,9.846-37.619ZM505.287,346.8,331.576,399.483,306.6,326.37C337.339,316.113,374.684,304,417.03,291.7l18.652,65.2a1.9,1.9,0,0,0,1.455,1.344,1.736,1.736,0,0,0,.373.038,1.912,1.912,0,0,0,1.485-.712l30.23-37.638,36.443,23.5ZM14.755,439.166C-1.6,411.691-22.3,373.042-41.4,336.26L53.33,395.037,41.816,408.41,34.8,416.389l-.008.008Zm16.629-13.141-8.764,26q-2.789-4.422-5.811-9.437h0v0h0ZM-63.091,403.1l-.009,0a1.879,1.879,0,0,0-2.3,1.323l-.013.052-3.108,12.287-14.763-5.306,10.364-25.268a1.906,1.906,0,0,0-1.042-2.485,1.906,1.906,0,0,0-2.485,1.042l-10.425,25.424-48.135-17.3a650.459,650.459,0,0,1,17.791-95.021L-59.76,325.7c20.685,40.2,44.475,85.111,63.329,116.975l-68.494-24.623,3.2-12.641A1.9,1.9,0,0,0-63.091,403.1Zm-264.647,40.243c2.83-65.293,6.738-127.324,12.839-171.281,2.262,7.668,4.49,15.217,6.665,22.6,18.061,61.249,33.658,114.153,40.625,136.32.96,3.051,2.011,6.349,3.146,9.857Zm64.5,1.258c4.738,14.538,10.726,32.317,17.292,51.51l-83.957,2.933c.609-17.319,1.268-34.7,2-51.884Zm-338.818,33.025c-9.427-4.761-18.865-9.51-28.238-14.211l42.212-14.3q3.885,11.342,8.006,23.336Zm23.226-1.565q2.738,7.971,5.553,16.142-11.673-5.925-23.5-11.906Zm-56.251-15.046c-33.959-17-66.8-33.144-94.538-46.117l46.985-18.606a1.9,1.9,0,0,0,1.072-2.463l0-.007h0a1.9,1.9,0,0,0-2.463-1.073l-.009,0-50.337,19.931c-15.285-7.1-28.867-13.14-40.03-17.719l-.118-.217c23.2-5.888,53.327-13.914,87.183-23.211l17.833,66.943a1.908,1.908,0,0,0,1.84,1.413,2.036,2.036,0,0,0,.526-.073l69.118-19.756c2.754,8.059,5.664,16.568,8.707,25.443ZM-841.346,274.1h0a1.912,1.912,0,0,0-2.6-.7l-20.943,12.054a1.985,1.985,0,0,0-.507.446l-45.493-59.486,32.078-29.133,55.022,64.639a1.907,1.907,0,0,0,2.567.3l40.346-29.225.011-.008,38.584,53.276-30.7,12.592a1.956,1.956,0,0,0-.229.126l-.05.019-.023.019-.057.03-53.7,37.006-28.01-36.629-8.117-10.619c.057-.027.126-.015.183-.046l20.948-12.055A1.914,1.914,0,0,0-841.346,274.1Zm-50.731-69.917-41.163-38.61,14.433-12.893,34.831,43.066a1.882,1.882,0,0,0,.64.5Zm185.38,11.841c10.467,15.506,20.194,30.2,29.027,43.736l-24.811,10.177-24.479-38.046Zm-22.335,12.652-25.751-40.026,18.674-15.46c9.541,13.651,18.644,26.917,27.275,39.672Zm53.476,34.333c23.352,35.886,40.213,63.287,48,76.107q-10.931,3.091-21.643,6.094h0l-35.7-78.37Zm-12.881,5.28,35.517,77.962q-8.113,2.268-16.065,4.475L-681.779,322.5a1.9,1.9,0,0,0-1.737-1.12h-14.2l-16.713-42.43Zm15.737,83.465q-5.941,1.651-11.769,3.253l-11.742-29.819h11.468Zm-28.064-27.733,12.6,32c-14.207,3.9-27.873,7.61-40.784,11.068l-40.518-65.56,51.521-21.134Zm-72.066-20.7,40.042,64.791c-19.8,5.286-37.756,9.952-53.022,13.769-2.1.522-4.224,1.047-6.372,1.569l-32.58-44.346Zm106.5,132.3-17.341-65.1c19.927-5.478,41.073-11.382,62.8-17.533h0c3.7,10.9,11.5,33.864,21.611,63.466Zm1.756-176.694,38.762-13.1,27.667,84.9q-9.039,2.6-18.016,5.146C-622.95,324.649-640.1,296.613-664.576,258.932ZM-492.845,244l-36.618-30.748,41.025-13.868.015-.008,28.547-9.651a1.891,1.891,0,0,0,.72-.442l11.88-11.575,20.845,47.865Zm18.425-1.157,5.21,21L-489.3,246.971Zm25.99,43.416c-14.972,4.643-30.623,9.415-46.711,14.256l-21.6-71.617ZM-464.251,268l-6.5-26.178,45.86-12.726,19.036,43.717c-12.032,3.881-24.841,7.93-38.252,12.1Zm19.891-93.14,10.739-10.46,10.147-9.888,34.157,112.919c-4.178,1.375-8.49,2.78-12.9,4.209Zm-17.147,11.391-26.884,9.092-29.33-36.957,44.452-34.016,35.693,38.56Zm-30.716,10.384-40.533,13.7-36.82-37.25-29.815-30.159,31.9-41.157,45.568,57.433Zm-44.537,15.057-39.345,13.3-.012.011h-.008l-12.15,4.11-11.563-23.927,28.871-28.094Zm-65.331-71.5-37.9-38.347L-605.9,65.006l35.844,33.86Zm-17.671-65.82-68.589-47.4,21.859-19.2,57.821,54.618Zm-2.613,2.821-20.3,21.939-59.406-60.105,10.782-9.47ZM-645.26,101.93l-37.977,41.047-47.53-74.241a1.919,1.919,0,0,0-.385-.434l-2.179-1.824,28.387-24.929Zm2.686,2.709,37.741,38.188L-658.7,181.288l-22.407-35Zm40.451,40.932,28.482,28.813-29.83,29.031a1.913,1.913,0,0,0-.388,2.194l11.952,24.738-31.476,10.642L-626.314,232a1.934,1.934,0,0,0-.209-.438L-656.65,184.5ZM-622.2,244.606l45.434-15.361,27.515,87.324c-15.033,4.4-30.169,8.791-45.225,13.114Zm49.044-16.577,39.485-13.355,11.6,9.747,23.31,77.177c-15.327,4.6-31.011,9.255-46.84,13.9Zm80.169,87.71,54.774,102.753-110.264-86.321C-529.764,326.7-511.139,321.194-492.991,315.739Zm3.692-1.107c11.349-3.417,22.5-6.8,33.356-10.144h0l19.592,109.457Zm37.024-11.271c37.825-11.655,71.91-22.636,98.184-31.853l-27.339,52.359-63.611,19.916Zm66.573-37.128-34.7-114.717,11.973-11.666,71.068,109.457C-350.061,254.14-366.532,259.88-385.7,266.233Zm-19.961-129.072,39.227-38.225c13.132,43.313,28.562,95.311,43.145,144.707q-4.571,1.977-10.444,4.262Zm97.2,116.343c1.79-.906,3.317-1.748,4.54-2.518,12.421-7.819,23.226-17.9,32.954-27.69l53.837,26.1L-235.1,272.467l-61.752,20.4-.427-1.443Q-302.977,272.074-308.463,253.5Zm12.689,43.018,61.5-20.315,16.055,11.554-36.4,37.818-26.364,21.074C-285.581,331.075-290.572,314.172-295.774,296.522Zm64.546-22.816,17.6-22.6,20.937,10.146L-215.555,285ZM-47.941,159.371l-32.828-22.8,11.986-20.457,36.225,22.209L-47.435,159.9a1.925,1.925,0,0,0-.507-.538Zm18.633-19.057,44.045,27.008a1.908,1.908,0,0,0,2-3.249l-43.877-26.9,8.341-12.1L88.959,190.759l-5.188,16.709L46.666,192.781a1.9,1.9,0,1,0-1.4,3.542l37.372,14.79-24.433,78.72c-10.508-4.247-21.15-8.623-31.818-13.072L45,233.345a1.9,1.9,0,0,0-.99-2.5l-.012-.005v0a1.9,1.9,0,0,0-2.5.993l0,.007L22.869,275.3Q12.8,271.087,2.747,266.816l14.79-42.053a1.908,1.908,0,0,0-3.6-1.265L-.772,265.326q-10-4.255-19.882-8.509l-31.415-83.481ZM268.2,387.028l8.833-29.206,31.236-11.545a1.83,1.83,0,0,0,.865-.708l10.509,30.763Zm52.684-7.066,7.042,20.621L257.657,421.9l9.29-30.722Zm-59.926,17.854-18.473-50.04c7.206-2.3,15.673-5.115,25.4-8.387l5.6,17.006Zm-2.156,5.155a1.85,1.85,0,0,0,.43.552l-5.961,19.707-11.155,3.386L215.442,353.9a41.556,41.556,0,0,0,9.922-1.044c3.74-.967,8.284-2.308,13.491-3.934Zm-39.667-27.94-56.961-14.317V343.685c20.133,5.907,36.823,9.492,49.179,10.131ZM-.486,281.936l-23.721,60.522-20.607-12.787c-17.936-34.683-34.1-66.958-43.4-85.682C-58.075,257.221-28.6,270.03-.486,281.936ZM-84.934,228.8-44.2,205.05l18.693,49.678C-46.222,245.8-66.317,236.994-84.934,228.8Zm87.96,54.616c39.748,16.793,76.72,31.742,108.954,43.5L98.481,342.6l-118.948.754Zm104.823-59.477,24.266,9.724-28.253,74.05q-6.783-2.559-13.743-5.25L110.347,247.1a1.9,1.9,0,1,0-3.576-1.306l-20.2,55.3q-12.214-4.752-24.822-9.827l30.562-98.461,19.446,11.855-5.024,16.968A1.9,1.9,0,0,0,107.849,223.937Zm-.43,85.118h0l28.231-73.978L166.1,247.288l-35.147,70.333Q119.567,313.605,107.419,309.055Zm27.16,9.827h0L169.958,248.1a1.7,1.7,0,0,0,.99-1.984l15.121-30.253,22.636,18.77V338.6c-16.663-1.421-42.879-8.835-74.126-19.714v0Zm74.13-118.328-35.958-7.861a1.826,1.826,0,0,0-1.028.107l2.335-21.946h34.651Zm-36.774-4.148,36.766,8.04.008,25.23-37.6-31.163.251-2.358A1.834,1.834,0,0,0,171.935,196.406Zm11.13,16.962-15.251,30.508-32.561-13.057h-.016l-24.357-9.766,4.948-16.7a1.9,1.9,0,0,0-.83-2.167L93.478,189.06,104.6,153.231l21.116,12.581ZM90.116,187.007-16.637,121.926,1.474,95.649l38.4,20.122h.015l15.3,8.018,46.037,27.423ZM-45.562,201.435l-43.256,25.214,34.119-49.5ZM-62.651,320.074l-53.582-25.98q6.719-24.864,15.437-49.746C-93.156,259.789-79.036,288.13-62.651,320.074Zm-64.026-31.046h0l-57.89-28.067,75-26.372.126.057Q-119.237,261.841-126.677,289.028Zm-62.714-30.405-10.775-5.226,31.1-44.894c16.721,7.221,35.65,15.567,54.408,23.843Zm.3,4.372,61.385,29.762q-4.571,17.078-8.189,34.142l-76.468-39.738Zm53.646,133.763,48.916,17.579,17.056,6.128-6.471,25.561L-138,430.426Q-137.177,413.608-135.445,396.758Zm118.784-49.625,111.849-.708-39.341,45.69Zm115.467.922,28.166,66.078L59.259,393.981Zm2.767-3.217,3.828-4.445,34.515,25.149v32.819l-10.089,12.765ZM143.32,400.2a1.889,1.889,0,0,0,.411-1.177V364.573a1.914,1.914,0,0,0-.781-1.539L107.9,337.492l7.918-9.194c15.38,5.553,29.636,10.352,42.552,14.245V362.2a1.912,1.912,0,0,0,1.44,1.847l60.922,15.315,13.057,35.593-73.06-17.783a1.907,1.907,0,0,0-2.262,1.257l-7.446,22.86L131.3,415.417Zm18.219,1.09,73.826,17.97,3.1,8.456-3.908,1.185a1.905,1.905,0,0,0,.556,3.729,1.944,1.944,0,0,0,.552-.08l93.494-28.353,18.027,52.767L242.4,447.115a1.814,1.814,0,0,0-2.543-.337c-.037.028-.073.058-.108.089l-4.094-.385-80.986-24.106Zm171.273,1.8,74.957-22.731-26.948,79.768-29.472-2.769ZM412.25,379l14.085-4.27,1.443-.438,32.813,110.6-76.023-23.961Zm8.436-88.378c.724-.209,1.421-.415,2.144-.625l43.176,27.846L438.328,352.3ZM468.4,314.867l-40.7-26.253c26.768-7.64,55.383-15.288,85.484-22.552l-4.167,29.731-22.1-2.571a1.859,1.859,0,0,0-1.7.7Zm-12.547-49.883h0l-30.5-45.854,50.2-14.759,54.424,42.08C504.229,252.377,479.438,258.627,455.854,264.984Zm66.593-29.173-45.329-35.05c-.046-.038-.107-.038-.152-.072a2.284,2.284,0,0,0-.206-.148l-44.365-20.712,1.661-16.747,95.037,18.183ZM470.58,201.864l-47.435,13.948-20.061-30.158,26.951-2.72Zm-18.6,64.163q-18.585,5.047-36.088,10.124h0l-18.518-48.79,24.159-7.1Zm-39.76,11.194c-6.916,2.011-13.719,4.018-20.361,6.014h0l-13.087-50.4,14.934-4.392Zm-24.017,7.1c-31.644,9.552-59.974,18.777-84.323,26.89h0L301.5,255.545,375.112,233.9Zm-85.21,43.248,5.168,15.129a1.838,1.838,0,0,0-1.212.007h0l-30.268,11.186L271.5,338.169c2.521-.849,5.089-1.714,7.774-2.62C286.619,333.069,294.576,330.388,302.989,327.573Zm-28.582-6.459c-23.534,7.941-42.118,14.21-52.851,16.983l0,0a33.3,33.3,0,0,1-9.042.739V245.4L297.7,255.835l2.415,56.637C290.96,315.53,282.325,318.44,274.407,321.114Zm-61.888-79.551,0-7.834V205.281L284.5,221.027l12.1,30.836Zm0-40.178V170.846h28.036a1.9,1.9,0,0,0,1.859-1.5L246,152.728l14.153,6.227,22.677,57.81Zm26.5-34.351-66.668.011a1.907,1.907,0,0,0-1.893,1.7L167.594,195.6l-32.809-27.195,12.264-28.84,24.609,9.541a1.905,1.905,0,0,0,1.375-3.554l-26.326-10.2a1.9,1.9,0,0,0-2.441,1.028l-12.54,29.48-3.824-3.169-12.794-7.625L133.6,102.551l108.848,48.6Zm-199-55.5L11.691,96.7,29.2,38.577,35.127,44.2l.011.008L62.462,70.138ZM8.256,94.9,2.714,92a1.668,1.668,0,0,0-.2-.286,1.576,1.576,0,0,0-.118-.175L-39.291,50.522l-3.279-34.74,3.007-4.97L25.944,36.205Zm-38.647,40.268-36.461-22.358,23.744-40.522L-1.92,93.866Zm-39.71-24.35L-94.222,96.034a1.907,1.907,0,0,0-2.621.629,1.905,1.905,0,0,0,.629,2.62l24.186,14.831L-84.94,136.155a1.9,1.9,0,0,0,.556,2.529L-50.109,162.5a1.832,1.832,0,0,0,.731.228l-43.215,62.7-14.531-6.4c-30.2-13.323-53.727-23.668-71.571-31.224l15.566-64.448c28.89-28.28,59.151-59.169,71.864-76.279l44.776,23.455ZM-182.256,186.3c-15.588-6.555-26.458-10.767-33.291-12.752h0c11.232-10.55,28.707-27.1,47.29-45.2Zm9.623,20.667-31,44.749-64.506-31.274q2.4-2.451,4.719-4.837c15.178-15.6,28.3-29.069,40.533-28.215C-218.331,187.757-198.449,195.855-172.633,206.965Zm-101.711-1.985h0c-11.56,11.891-23.512,24.182-37.7,33.114-.248.156-.556.324-.83.487-6.029-20.4-11.834-40.007-17.357-58.587l28.791-27.419,23.66,23.2a2.041,2.041,0,0,0,1.383.548,1.911,1.911,0,0,0,1.352-.617l21.5-23.31,14.854,9.6.514,13.171C-250.5,180.478-261.82,192.106-274.344,204.98Zm21.518-56.656a1.9,1.9,0,0,0-2.434.312l-21.251,23.048-23.572-23.123a1.908,1.908,0,0,0-2.647-.019l-28.714,27.351q-4.924-16.567-9.537-32.013l39.8-4.875a1.9,1.9,0,0,0,1.112-.537l42.11-41.931,17.468,19.569,1.615,41.238ZM-302.3,135.306l-39.1,4.791,31.3-27.545a1.9,1.9,0,0,0,.173-2.687,1.9,1.9,0,0,0-2.687-.173l-30.558,26.886c-1.733-5.786-3.439-11.48-5.1-16.987L-300.146,76.2a1.9,1.9,0,0,0,.137-2.689,1.9,1.9,0,0,0-2.689-.137l-46.778,42.19q-4.039-13.4-7.743-25.61l54.858-53.46,9.187,20.491a1.781,1.781,0,0,0,.316.487L-260.5,93.694Zm-.083-108.164a1.919,1.919,0,0,0-.537-.7L-329.427,4.987V-10.3l3.636-15.339,14.729,5.447a1.914,1.914,0,0,0,1.725-.206l16.88-11.354L-269.991-.367l-31.125,30.328Zm-3.287,1.975,1.645,3.675L-358.47,85.845c-5.066-16.637-9.613-31.381-13.582-43.957l11.906-1.127a1.889,1.889,0,0,0,1.249-.64l27.786-31.6Zm-62.015,65.709L-408,134.117l-17.817-19.9,50.108-45.645C-373.168,76.826-370.483,85.616-367.683,94.826Zm-9.271-30.28-51.407,46.837-28.707-32.055,70.641-44.982c2.817,8.795,6.005,18.968,9.475,30.2Zm-53,50.733c.023.027.027.061.053.088s.05.031.072.053l19.113,21.341-24.129,23.512L-530.637,56.8l20.659-30.866Zm-45.911,6.283L-520.091,155.4l-44.986-56.682,32.1-38.861ZM-567.681,95.9-663.624,5.261l33.437-29.372L-535.7,57.195Zm-98.71-93.266-36.115-34.119,21.038-35.814,48.364,40.7Zm-2.874,2.523-35.566,31.231L-736.5,8.272l8.638-10c.019-.019.05-.027.069-.049s.027-.057.046-.084L-704.8-28.41Zm-38.452,33.764L-736.283,64.01l-28.09-23.481,25.382-29.374Zm-28.507,30.1,2.406,2.015,72.005,112.47-17.536,12.519a1.905,1.905,0,0,0-.444,2.657,1.905,1.905,0,0,0,2.657.443l17.379-12.409,29.9,46.7,2.864,8.8-39.728,13.424c-27.976-42.956-65.024-97.692-106.753-153.905ZM-738.3,170.061l-18.557,15.36L-797.023,123l15-13.62C-766.742,129.979-752.1,150.373-738.3,170.061ZM-706.063,271.4l-32.6,13.369-93.828-129.563,32.618-29.625Zm-77.028-41.5-.015.008-38.918,28.189-53.967-63.391,14.923-13.554.011-.008,25.732-23.371Zm-78.344-53.555L-895.791,72.968l9.05,7.256,49.221,74.412Zm2.252,123.945-11.716,9.427-13.327-14.386a1.9,1.9,0,0,0-2.691-.1,1.9,1.9,0,0,0-.1,2.691l13.144,14.188-18.582,14.953-55.818-66.7,34.561-31.392Zm-10.007,60.51c-13.453-4.574-27.473-9.289-41.687-14.028l17.9-14.4Zm-20.823-30.817,33.14-26.665,27.888,36.469,32.79,44.628q-1.708.411-3.443.823c-17.4-6.423-38.981-13.994-62.6-22.065h0Zm61.875,200.944c-.994-19.33-1.973-37.917-2.868-54.675l39.136-27.885,29.99,66.936Zm107.409-25.325,0-.006-37.387,8.812-30.6-68.3,21.432-15.269c12.031,20.746,28.224,47.516,46.555,74.757h0Zm-22.358-56.332,23.374-9.526a1.9,1.9,0,0,0,1.045-2.481,1.9,1.9,0,0,0-2.481-1.046l-23.934,9.754c-7.968-13.232-14.858-25.153-20.293-34.774,36.594,15.971,90.9,42.734,146.025,70.5h0v0l0,0-89.487,21.1C-721.411,484.282-733.047,465.847-743.087,449.279Zm44.768,68.713q-4.166-5.889-8.235-11.815l92.489-21.8c15.491,7.81,30.989,15.667,46.137,23.368h-.005l1.021,2.952Zm207.191,15.977c-13.19-6.684-27.541-13.986-42.636-21.668-8.124-4.136-16.439-8.368-24.871-12.653-23.394-67.859-44.2-129.07-51.228-149.778h0c17.858-5.084,36.033-10.313,54.169-15.6l93.536,144.216Zm31-59.361L-550.3,335.584l115.532,90.443Zm15.767-127.047,60.439-18.921-47.534,91.041Zm102.968,152.882-58.62,12.767-28.452-82.25,16.618,13.011,70.5,55.189Zm.211-5.988-65.1-50.962,67.747-14.5C-339.534,450.54-340.4,472.532-341.181,494.455Zm-69-54.023-19.737-15.452,81.1-155.338c9.153-3.26,17.231-6.273,24.045-9-6.41,41.021-10.569,100.533-13.575,164.414Zm178.943,98.308-100.449,14.6c.51-16.568,1.055-33.479,1.645-50.47l85.382-2.987C-240.355,512.452-235.823,525.565-231.241,538.74Zm81.094-76.245-30.444,5.809-4.491-30.676,18.834-1.737a1.9,1.9,0,0,0,1.723-2.07,1.905,1.905,0,0,0-2.07-1.724l-19.04,1.756-1.535-10.486a1.9,1.9,0,0,0-2.16-1.607,1.9,1.9,0,0,0-1.607,2.159l1.5,10.284-20.5,1.889a1.9,1.9,0,0,0-1.815,1.986,1.9,1.9,0,0,0,1.986,1.814,1.282,1.282,0,0,0,.175-.008l20.7-1.908,4.544,31.042-55.173,10.543c-6.936-20.427-12.969-38.591-17.189-52.009-1.261-4.014-2.815-9.073-4.612-14.991l88.573-29.213,26.254,9.435A624.154,624.154,0,0,0-150.147,462.495Zm4.074-73.609-26-9.347a1.9,1.9,0,0,0-1.242-.015l-89.106,29.388c-4.57-15.093-10.536-35.146-17.388-58.318h0l22.365-17.894,113.528,39.253Q-145.113,380.419-146.073,388.886Zm2.733-20.768v0l-110.589-38.234,1.874-1.5L-215.1,290l.034.027,78.343,40.733q-3.87,18.687-6.619,37.355h0Zm56.29,121.819-51.533-17.059q-.411-19.258.4-38.568l61.314,15.414Zm44.25,14.645-40.628-13.448,17.562-69.37L6.642,447.827l.2.332L-8.525,465.622l-42.822-4.144a2,2,0,0,0-2.08,1.714,1.907,1.907,0,0,0,1.714,2.08l40.084,3.881Zm41.567,12.3L-38.881,505.87l47.79-54.309c3.173,5.188,6.17,9.937,8.932,14.081Zm3.67,1.071L20.472,469.5c2.5,3.607,4.8,6.726,6.814,9.137,9.766,11.686,25.336,33.723,42.894,59.113ZM81.745,534.39c-18.6-26.936-35.243-50.577-45.69-63.085A164.269,164.269,0,0,1,25.25,456.142L37.9,418.618l6.787-7.713,11.923-13.844.084.053a1.8,1.8,0,0,0,.461.206l69,20.522ZM211.7,546.906,93.83,513.354l14.485-38.019,113.239,40.457Zm21.572-68.065-10.56,33.32L109.676,471.78,129.8,418.937l21.79,6.483c.027.008.046.031.072.038a1.191,1.191,0,0,0,.133.023l83.138,24.727,3.656.347Zm126.6,43.3L237.281,478.071l5.111-27.156,137.175,12.924Zm88.067,31.649-84.481-30.366,19.9-58.884,56.233,17.707-7.724,20.179L405.97,492a1.9,1.9,0,1,0-1.421,3.534l27.716,11.156,12.021,4.841a1.9,1.9,0,0,0,1.42-3.535l-10.314-4.152,7.827-20.457,33.734,10.623Zm30.383-63.317-13.342-4.2L431.423,373.18l73.4-22.262-7.564,67.111L487,457.271a1.868,1.868,0,0,0-2.122,1.325,1.888,1.888,0,0,0,1.177,2.289Zm61.268,8.2L482,491.3l7.675-29.343,54.047,15.49Zm88.638-2.437q-12.32,5.359-24.7,10.616l-.008,0-60.144-7.694,13.643-69.91,87.019,13.228-10.947,28.8Zm4.216-1.849,4.293-22.073,11.689-30.7a1.069,1.069,0,0,0,.027-.16,2.211,2.211,0,0,0,.08-.229c0-.071,0-.142-.011-.213a1.4,1.4,0,0,0,.03-.183l-1.809-32.238,11.7,5.233,41.371,13.7L692.454,466.9C673.2,476.258,652.954,485.422,632.439,494.384Zm107.054-53.721c.252.416.5.823.74,1.231l-.009,0c-13.586,7.766-28.208,15.41-43.5,22.925l6.738-36.081Zm-35.33-15.7,6.22-33.316c8.638,14.687,17.429,29.5,26.117,44.018Zm-19.22,82.174-37.034-7.078c14.24-6.308,28.3-12.729,41.953-19.263l0-.008.009,0-.011.005Zm55.95-1.6-27.032,7.118-25.168-4.807,5.426-29.113c18.29-8.84,35.795-17.882,51.933-27.145q1.628,2.709,3.241,5.389Zm65.37-42.777-13.1,37.193c-10.028-16.45-20.666-34-31.464-51.944ZM786.63,518.5l-1.828,5.191-40.114-17.756,7.606-43.961C764.615,482.409,776.335,501.671,786.63,518.5ZM765.409,346.945l-15.052,82.167c-18.206-30.436-36.427-61.329-52.6-89.476ZM753.56,210.561q-33.726,2.823-66.7,7.21v-79.1l60.792,9.164Zm5.412-64.867L711.909,138.6a1.867,1.867,0,0,0,.716-1.238l6.17-48.227h22.3l39.17,15.38Zm-58.2-77.43h.042a1.837,1.837,0,0,0,.541-.076l32.549-9.614,5.237,26.753h-79.74L666.882,73.5a2.119,2.119,0,0,0,.172-.339l2.106-5.549Zm-30.163-4.422L678,44.4l84.647-25.817,5.968,25.778-68.029,20.1Zm110.964,37.095L743.124,85.843l-5.553-28.349,32.074-9.472,15.14,43.915ZM796.7,58.515l-9.861,27.678-13.54-39.25,24.094-7.119Zm.842-22.7-25.283,7.469-5.889-25.469,31.979-3.679Zm.948-25.53L763.81,14.277c-.053.008-.1.042-.156.053a1.531,1.531,0,0,0-.179.019L679.7,39.9,692.571,5.992,782.443-22.09l17.292-1.227ZM694.291,1.461l17.589-46.3,63.946,20.83Zm114.276-108.3,3.108,22.407c-22.566,2.367-55.366,4.637-89.758,6.419v0h0l-1.23-35.381Zm-88.509,40.44c30.009-1.531,59.017-3.458,81.481-5.534l-1.664,44.785L782.32-25.9,713.229-48.4ZM642.43-28.551c.187-11.713.37-23.375.549-34.9v0c20.636-.5,43.42-1.329,66.067-2.407l-66.852,52.3Q642.314-21.063,642.43-28.551Zm-.3,19.9L715.65-66.171l.263-.015L663.58,71.638,640.537,108.08C640.888,72.255,641.493,31.923,642.129-8.655Zm-1.68,123.962L657,89.137h57.947l-6.1,47.743a1.851,1.851,0,0,0,.335,1.31l-24.121-3.634-44.734-2.323Q640.371,123.983,640.449,115.307Zm-.152,20.738h.012l42.738,2.212v80q-21.008,2.84-41.6,6.193c-1.138-15.4-1.385-47.56-1.138-88.4Zm67.154,250.606.01.007-6.928,37.109-40.7-13.472-13.319-5.957L639.7,282.961l-1.242-20.712C652.809,291.828,679.071,338.272,707.451,386.651Zm-64.86,15.933L517.838,346.761l-8.128-5.245,2.891-25.6H637.735Zm-8.5-149.648,1.8,30.239,1.622,28.935H510.9a1.9,1.9,0,0,0-1.893,1.691l-2.864,25.416-34.527-22.278,15.913-19.817,22.9,2.666a1.913,1.913,0,0,0,2.106-1.63l4.632-33.049c35.639-8.52,73.285-16.462,112.329-23.184C630.648,245.052,632.2,248.754,634.088,252.936Zm-59.81-367.2,54.569-28.006c-.255,21.611-.583,44.426-.937,67.655-24.95.438-45.19.267-55.374-.75v0c-1.31-.133-2.8-.381-4.4-.7Zm-3.99.873-5.873,36.5c-12.915-3.2-32.489-10.769-54.385-20.161h0l-4.681-10.333Zm-96.594,12.741-4.9,1.158-5.21-5.793Q468.645-102.952,473.694-100.654ZM423.632-124c10.054,4.761,20.551,9.713,31.159,14.641v0L464.565-98.5l-27.656,6.519Zm29.5,71.131-14.74-35.547L466.9-95.139l12.672,35.928ZM483.3-60.1,470.633-96.019l8.741-2.061c10.889,4.917,21.588,9.625,31.735,13.9l5.618,16.065Zm38.375-5.368a1.879,1.879,0,0,0,.9-2.5A1.88,1.88,0,0,0,520.442-69l-4.62-13.213c18.6,7.717,35.041,13.776,46.776,16.61l-8.117,50.471-15.045.438ZM447.789-22.847,460.266-9.238a1.968,1.968,0,0,0,1.459.617l75.048-2.19,11.164,31.933L506.1,34.083l-8.528-18.716a1.916,1.916,0,0,0-2.708-.846l-51.011,30.4Zm-4.2,72.367,51.4-30.638,7.446,16.336-59.078,18.3Zm-.474,8.073,60.906-18.872,4.651,10.2-8.3,45.934-59.15-4.674ZM440.92,93.972l59.28,4.689a1.874,1.874,0,0,0,1.261.868,1.645,1.645,0,0,0,.343.03,1.881,1.881,0,0,0,1.405-.663l35.578,2.815-9.232,75.766-95.121-18.2Zm-39.266,47.222,35.037-43.142-8.063,81.205-26.974,2.719Zm-2.855,44.9,20.522,30.847-41.512,12.207L367.453,189.25Zm-59.19,5.972,24.007-2.422,10.535,40.579-73.475,21.6-15.967-40.679ZM146.568,60.89,171.786,64.8l75,35.166-3.542,19.543L132.968,71.977ZM47.418,20.475l27.355-9.949,27.458,13.342L133.57,66.58l-5.439,4.43a1.9,1.9,0,0,0,.449,3.222l114.481,49.347a1.906,1.906,0,0,0,1.23.8,1.97,1.97,0,0,0,.343.03,1.771,1.771,0,0,0,.248-.046l55.113,23.755L282.037,204.3l-18.628-47.472a1.908,1.908,0,0,0-1.006-1.047l-17-7.477L65.909,68.161,38.718,42.353Zm-3.93-.435L35.741,39.526l-6.155-5.843-.053-.034a1.94,1.94,0,0,0-.29-.183,2.309,2.309,0,0,0-.278-.179L-37.563,7.5-28.1-8.16ZM16.624-136.386c12.523-1.634,40.853-4.563,76.088-7.758l-3.355,7.1L32.24-110.771a1.907,1.907,0,0,0-1.092,1.477l-3.554,26.81L-6.422-69.447a1.889,1.889,0,0,0-1.131,1.2L-20.412-28.239-40.7,5.328-61.2-16.413C-40.618-64.564-9.672-132.958,16.624-136.386ZM-87.661,41.875c5.429-8.759,12.521-25.46,21.49-46.607,1.074-2.529,2.194-5.165,3.34-7.857l20.084,21.3-3.4,5.637a1.889,1.889,0,0,0-.267,1.162l3.4,36.062a1.916,1.916,0,0,0,.564,1.177L-8.583,86.08-89.036,43.936C-88.556,43.236-88.057,42.512-87.661,41.875Zm-24.95-159.541,30.169,33.8-.015.031c-11.4,21.051-15.81,47.511-17.17,70.542l-21.836-87.594Zm-68.627-5.763c11.118,8.1,36.305,28.2,38.023,37.73,1.508,8.349-5.218,11.274-16.469,15.094-2.171.739-4.353,1.482-6.433,2.3l-.046.019-20.428-49.837ZM-156.6,62.943l-2.289-2.373L-144.533,44.1a1.908,1.908,0,0,0-.1-2.6L-182.251,4.219l13.243-13.312,39.775,40.922.846,2.068Zm31.453-26.917,6.605,6.8L-147.8,72.061l-6.159-6.38ZM-187.641,4.239l-13,13.072-28.7-29.743,12.41-12.344Zm-26.588-31.7,13.92-13.836,28.646,29.472L-184.955,1.541Zm29.292,34.383,36.359,36.02-12.969,14.881L-198,20.053Zm17.3-20.063-.011-.015-.019-.011-29.945-30.809,4.132-4.11c.156-.11,14.264-9.956,25.275-15.144l35.1,85.611Zm-21.881-102.077,19.866,48.459c-11.3,5.287-25.382,15.117-26.261,15.765l-4.338,4.308-28.661-29.484Zm-13.43,71.209-29.034,28.84-28.589-29.622L-231.609-73.5Zm-70.516-45.95c5.016-4.342,9.785-6.536,14.2-6.536.4,0,.792.015,1.188.053a12.781,12.781,0,0,1,8.337,4.289l15.479,15.924-28.951,28.7-18.88-19.562C-282.361-67.489-288.505-76.935-273.464-89.957Zm-11.027,25.831L-265.9-44.861l-7.2,7.134-24.822-26.848Zm-18.784-.628L-275.6-34.821a1.865,1.865,0,0,0,1.313,2.289,1.826,1.826,0,0,0,.5.065,2.061,2.061,0,0,0,.3-.057l21.223,22.952a1.9,1.9,0,0,0,2.691.109,1.9,1.9,0,0,0,.109-2.691L-270.52-34.931l7.256-7.191,28.585,29.628-27.48,27.305a1.9,1.9,0,0,0-.018,2.687l.037.036,91.232,88.032a1.9,1.9,0,0,0,2.692-.049,1.9,1.9,0,0,0-.049-2.693l-89.826-86.683L-248.7,6.81l86.57,86.467a1.906,1.906,0,0,0,2.7,0,1.908,1.908,0,0,0,0-2.7L-246,4.121-232.03-9.762l82.839,85.868a1.92,1.92,0,0,0,1.356.583h.015a1.9,1.9,0,0,0,1.348-.56l31.952-31.937a1.912,1.912,0,0,0,.019-2.677l-11.49-11.808-8.231-20.08,10.238-3.371a1.9,1.9,0,0,0,1.272-2.167l-6.079-31.89a1.907,1.907,0,0,0-2.261-1.468,1.907,1.907,0,0,0-1.483,2.18l5.774,30.25-8.9,2.929-29.05-70.855c2.022-.8,4.148-1.516,6.258-2.236,9.929-3.375,21.188-7.2,18.994-19.379-2.171-12.036-30.916-33.826-39.032-39.771l2.712-2.689,44.6,36.168L-98.66,37.794C-118.153,66.382-211.16,153.828-231.7,173.009c-.914.213-1.817.476-2.719.762l-2.289-58.5a1.893,1.893,0,0,0-.48-1.192l-52.634-58.926-9.632-21.492,33.293-32.443a1.9,1.9,0,0,0,.221-2.472L-290.4-35.439l-21.181-29.6Zm-56.272-74.827,58.678,39.189-9.038,18.1a1.85,1.85,0,0,0-.369-.381l-53.415-36.813Zm-4.981,24.142,52.093,35.9a1.885,1.885,0,0,0,1,.312l-5.656,11.315-.008.031a1.869,1.869,0,0,0-.19.758c0,.042.019.08.019.122a1.754,1.754,0,0,0,.042.251,1.887,1.887,0,0,0,.236.651c.027.046.023.1.053.145l22.258,31.1-15.978,10.748-15.832-5.855a1.9,1.9,0,0,0-2.445,1.116,1.817,1.817,0,0,0-.069.228l-3.516,14.843-45.936-34.165Zm-14.778,71.613,46.071,34.264V5.171l-28.021,31.868-11.967,1.135c-6.764-21.341-11.685-35.844-14.359-41.912Zm-52.017,10.342C-416.533-20.774-403.762-9.8-398.578-.3h0a67.355,67.355,0,0,1,3.1,7.595l-60.674,40.565a1.906,1.906,0,0,0-.524,2.642,1.9,1.9,0,0,0,2.642.523L-394.156,11c1.794,5.127,4,11.742,6.528,19.6l-72.016,45.858-23.889-26.673,60.811-42.327a1.9,1.9,0,0,0,.474-2.649,1.9,1.9,0,0,0-2.649-.474l-61.194,42.592-21.474-23.976,65.6-65.652C-438.358-39.54-434.785-36.459-431.323-33.484Zm-13.5-11.75-65.267,65.366-32.5-36.3,61.15-67.286c1.393,1.527,2.535,2.852,3.385,3.946h-.005C-468.2-66.833-456.408-55.525-444.822-45.234ZM-478.6-116.125l36.675,23.275-12.992,22.327a190.462,190.462,0,0,1-14.123-16c-3.047-3.919-9.636-10.657-18.994-19.585Zm-41.734-4.465c16.2,14.675,28.764,26.521,36.271,34.351l-61.26,67.4-46.185-39.25Zm-74.048,65.043,47.814,40.627,33.99,37.951-20.853,31.11-93.863-80.788Zm-62.7-53.27,26.04,22.124L-649.81-65.239a1.909,1.909,0,0,0,.183,2.689,1.9,1.9,0,0,0,2.681-.178l0-.005,18.808-21.5,30.832,26.2-32.912,28.9-49.3-41.489Zm-37.652-32,34.723,29.508L-682.42-73.145l-41.171-36.394Zm-31.45,34.078L-684.385-69.8l-20.967,35.7-47.926-43.268Zm-29.686,32.174,48.287,43.591L-729.409-5.729l-49.7-43.645Zm-47.749-43.109h.005l0,0,44.919,40.55-23.28,25.233-42.342-37.185q10.437-14.081,20.7-28.6ZM-826.579-86l42.026,36.907-.807.872a1.9,1.9,0,0,0,.109,2.691,1.9,1.9,0,0,0,2.691-.109l.868-.941L-731.9-2.851-768.518,39.5a1.907,1.907,0,0,0,.2,2.689l.023.019,29.118,24.342-36.568,32.108c-10.5-14.1-21.272-28.276-32.279-42.369a246.054,246.054,0,0,0-79.3-66.669C-866.769-33.9-846.461-59.3-826.579-86ZM-896.486-2.248a235.1,235.1,0,0,1,79.455,65.58c11.164,14.294,22.083,28.676,32.721,42.974l-14.981,13.609L-899.175-.839C-898.253-1.319-897.381-1.78-896.486-2.248Zm94.38,124.719-32.561,29.575-49.061-74.172a1.833,1.833,0,0,0-.4-.434l-13.045-10.459-5.1-65.583Zm-99.13-58.755-32.6-26.128,28.045-32.4ZM-998.344-69.291l34.443,32.1a343.3,343.3,0,0,0-53.719-6.2l-1.878-2.019Zm-39.634,4.011a1.89,1.89,0,0,0-.754-.5l-54.5-19.474,33.079-41.657,59.021,55.014-20.975,23.688Zm21.9,41.55-11.777-8.535c6.57.072,13.4.324,20.438.807Zm3.157,2.291,10.771-9.617c29.046,2.434,61.211,8.89,92.664,22.666-14.679,7.5-32.329,16.054-51.064,24.906Zm-70.021,106.218c10.813-4.788,24.575-10.913,39.905-17.806l-31.355,28.543Zm29.6,37.194,80.316-77.76a1.9,1.9,0,0,0,.042-2.693,1.9,1.9,0,0,0-2.693-.042l-80.049,77.5-16.3-20.476,40.183-36.576c24.59-11.1,52.116-23.71,77.642-35.78l14.889,11.937-79.761,92.161-17.917,12.268Zm30.071,37.774L-1034.6,145.5l3.458-2.369a1.886,1.886,0,0,0,.731,1.15l113.933,82.07-20.826,18.91a2.132,2.132,0,0,0-.141-.2l-77.981-74.078Zm46.006,65.985-27.328-39.2L-940.1,247.8l-10.623,9.648Zm25.161,38.109,1.009-.914,55.666,66.534-19.749,15.89c-25.462-8.475-51.411-16.983-75.681-24.879Zm26.341,90.028-51.422,41.375c-12.36-14.751-24.22-28.9-35.406-42.232l15.083-22.689c22.936,7.454,47.473,15.491,71.742,23.546Zm-31.761-88.849L-989.191,311.3l-47.945-35.974Zm-100.636,33.724-15.688-18.662,31.289-4.053,51.2,38.423-3.279,4.792C-1018.207,311.581-1040.054,304.544-1058.154,298.744Zm13.8,16.433c13.21,4.249,27.76,8.946,43.086,13.924h0l-13.872,20.876C-1025.538,337.583-1035.332,325.917-1044.351,315.177Zm-35.7,121.107,60.463-73.868c15.479,18.45,31.373,37.41,47.473,56.636C-1015.609,426.442-1054.591,432.471-1080.054,436.284Zm120.951-19.46-15.63-18.663,53.276-42.864c36.869,12.257,72.832,24.467,101.317,34.656C-863.659,399.642-913.3,408.913-959.1,416.824Zm11.294,13.495h0c33.491-5.847,68.672-12.379,101.809-19.242.693,12.463,2.076,37.539,3.725,68.532l-40.331,28.737C-904.72,481.837-926.712,455.526-947.809,430.319Z" transform="translate(1094.233 144.284)" fill="#2b3a57" opacity="0.15"/>
</svg>
