<?xml-stylesheet type="text/css" href="/CMS_Themes/Default/Css/pest-icons.css" ?>
<svg version="1.1" id="Layer_1" xmlns="http://www.w3.org/2000/svg" xmlns:xlink="http://www.w3.org/1999/xlink" x="0px" y="0px" viewBox="0 0 82.3 82.3" width="100%" height="100%">
<path fill="#102e52" class="pest-search__item-icon" d="M41.2,0C18.4,0,0,18.4,0,41.2c0,22.7,18.4,41.2,41.2,41.2c22.7,0,41.2-18.4,41.2-41.2C82.3,18.4,63.9,0,41.2,0z
	 M68,54c-3.4,2.6-7.3,3.1-11.5,2.6c-2.1-0.3-4.2,0-6.3,0.1c-0.6,0.1-1.2,0.8-1.8,1.2c-0.1-0.3-0.2-0.6-0.3-1
	c-0.6,0.2-1.1,0.5-1.9,0.8c0.2-1.4,0.4-2.7,0.6-4.1c-0.8,0-1.7,0-2.6,0c-0.9,0-1.9,0.1-2.7-0.2c-3.1-1.1-5.9-0.1-8.8,0.7
	c-1.6,0.4-3.2,0.5-4.2,2.4c-0.3-0.7-0.4-1-0.7-1.9c-0.4,0.7-0.7,1.1-1.1,1.8c-0.3-1.1-0.5-1.9-0.7-2.7c-0.3,0.2-0.6,0.4-1.1,0.6
	c-0.1-0.4-0.2-0.6-0.1-0.8c0.5-1.9-0.6-2.5-2.2-2.9c-1.7-0.4-3.2-1.1-4.9-1.6c-0.8-0.2-1.6-0.3-2.4-0.4c-2.3-0.2-4.7-0.2-7-0.5
	c-0.6-0.1-1.2-0.6-1.5-1.1c-0.2-0.2,0.1-1.1,0.5-1.4c1.5-1.1,3.2-2,4.7-3c0.4-0.3,0.6-0.8,0.9-1.2c5-7.4,12-10.1,20.7-8.8
	c0.9,0.1,1.9,0,2.7-0.4c5.2-2.7,10.6-4.6,16.6-4c1.7,0.2,3.4,0.5,4.9,1.3c2.7,1.3,5.4,2.8,7.8,4.6c4.7,3.4,6.1,8.3,5.2,13.9
	c-0.1,0.5-0.2,1-0.3,1.5c2.8,0.2,5.5,0.4,8.2,0.6c0,0.2,0,0.4,0.1,0.5c-1.9,1-4,1.7-6.2,1.7C70.7,52.5,69.3,52.9,68,54z"/>
</svg>
