<?xml-stylesheet type="text/css" href="/CMS_Themes/Default/Css/pest-icons.css" ?>
<svg version="1.1" id="Layer_1" xmlns="http://www.w3.org/2000/svg" viewBox="0 0 82.3 82.3" width="100%" height="100%">
<path fill="#102e52" class="pest-search__item-icon" d="M41.2,0C18.4,0,0,18.4,0,41.2s18.4,41.2,41.2,41.2c22.7,0,41.2-18.4,41.2-41.2S63.9,0,41.2,0z M79.5,51
	c0,0-0.1-0.1-0.1-0.1c0.1,0,0.2-0.1,0.3-0.1c0,0,0.1,0.1,0.1,0.2C79.7,50.9,79.6,51,79.5,51z M80,48.2c-0.1,0.1-0.2,0.2-0.4,0.3
	c-0.3,0.3-0.7,0.6-1,0.9c-0.4,0.3-0.7,0.6-1.1,0.8c-0.5,0.4-1.1,0.9-1.7,1.2c-0.2,0.1-0.4,0.3-0.6,0.5c-0.4,0.2-0.8,0.4-1.1,0.7
	c-0.1,0-0.2,0-0.2,0c-0.2,0.1-0.4,0.2-0.5,0.3C73.2,52.9,73.1,53,73,53c-0.1,0.1-0.2,0.1-0.3,0.2c-0.3,0.1-0.6,0.3-0.9,0.4
	c-0.2,0.1-0.3,0.2-0.5,0.3C71,54,70.8,54,70.6,54.1c-0.2,0-0.4,0.1-0.6,0.1c0,0-0.1,0.1-0.1,0.2c0,0.1,0.1,0.2,0.1,0.3
	c-0.1-0.1-0.3-0.2-0.4-0.2c-0.2,0-0.3,0.1-0.5,0.2c-0.7,0.3-1.4,0.6-2.1,0.8c-0.4,0.2-0.9,0.3-1.3,0.5c-0.5,0.3-1.1,0.5-1.7,0.5
	c-0.3,0-0.6-0.1-0.9-0.3c-0.5-0.3-1.1-0.5-1.6-0.7c-0.1,0-0.2-0.1-0.3-0.1c-0.1,0-0.3,0-0.3,0.1c-0.1,0.1-0.1,0.2,0.1,0.3
	c0.1,0.1,0.3,0.2,0.3,0.3c0.2,0.5,0.4,1,0.5,1.5c0.1,0.3,0.1,0.6,0,0.9c-0.1,0.4-0.2,0.6-0.4,0.9c-0.1,0.1-0.2,0.2-0.3,0.3
	c-0.7,0.3-1.5,0.5-2.2,0.7c-0.3,0.1-0.7,0.1-1.1,0.1c-0.3,0-0.5,0-0.7,0.1c-0.5,0.2-1.1,0.2-1.6,0.2c-0.6,0-1.2,0.1-1.8,0.1
	c-0.8,0-1.7-0.1-2.5-0.3c-0.7-0.1-1.4-0.2-2.1-0.2c-0.9,0-1.7,0-2.5-0.4c-0.4-0.2-0.8-0.4-1.1-0.6c-0.3-0.3-0.6-0.6-0.8-1
	c-0.2-0.2-0.3-0.6-0.5-0.7c-0.4-0.2-0.4-0.6-0.7-0.9c-0.2-0.2-0.3-0.6-0.4-0.8c-0.2-0.5-0.4-1-0.5-1.6c0-0.1,0-0.2,0-0.4
	c0-0.4,0-0.7,0-1.1c-0.2,0.1-0.2,0.1-0.3,0.1c-0.3,0-0.4,0.2-0.4,0.4c0,0.5-0.2,0.8-0.5,1.2c-0.3,0.4-0.5,0.9-0.7,1.3
	c-0.2,0.4-0.5,0.8-0.7,1.3c-0.2,0.5-0.6,0.8-1,1.2c-0.2,0.3-0.4,0.6-0.6,0.9C38.2,60,38,60.6,37.5,61c-0.4,0.3-0.5,0.8-0.8,1.2
	c-0.2,0.3-0.4,0.5-0.7,0.8c-0.3,0.4-0.6,0.7-0.9,1.1c-0.3,0.4-0.6,0.7-0.9,1.1c-0.2,0.2-0.4,0.5-0.6,0.7c-0.1,0.1-0.1,0.3-0.1,0.4
	c-0.2,0.1-0.4,0.3-0.6,0.4c-0.1,0.1-0.3,0.2-0.4,0.3c-0.3,0.2-0.6,0.5-1,0.7c-0.2,0.1-0.4,0.3-0.6,0.4c-0.2-0.1-0.3-0.3-0.3-0.6
	c0-0.6,0-1.3-0.1-1.9c-0.1-0.7,0.1-1.4,0.1-2.1c0-0.7,0.3-1.3,0.3-2c0-0.1,0-0.2,0-0.2c-0.2-0.4-0.1-0.8,0-1.2
	c0.1-0.3,0.2-0.6,0.2-1c0-0.2,0.1-0.5,0.2-0.7c-0.1,0.1-0.2,0.1-0.3,0.2c0,0,0,0-0.1-0.1c0.1-0.2,0.1-0.3,0.2-0.5
	c0.4-0.3,0.4-0.8,0.5-1.2c0.1-0.4,0.1-0.7,0-1.1c0-0.3,0.2-0.6,0.2-0.9c0-0.1,0-0.3,0.1-0.4c0-0.2,0.1-0.3,0.1-0.5
	c0,0-0.1-0.1-0.1-0.1c0-0.2,0-0.3,0-0.4c0-0.1,0-0.2,0-0.2c0.3-0.2,0.1-0.6,0.3-0.9c0-0.1,0-0.2,0-0.3c0-0.1,0.1-0.3,0.2-0.5
	c0.1-0.2,0.2-0.3,0.4-0.4c-0.1,0-0.1,0-0.2,0c0,0,0-0.1,0-0.1c0.1,0,0.2-0.1,0.3-0.1c0.3,0,0.5-0.2,0.5-0.5c0.1-0.3,0.1-0.7,0.5-0.8
	c0-0.1-0.1-0.1-0.1-0.2c0.5-0.1,0.3-0.6,0.4-0.8c0.1-0.3,0.2-0.6,0.3-0.9c-0.1,0-0.1-0.1-0.2-0.1c0,0.1,0,0.2-0.1,0.2
	c-0.4,0.8-1,1.3-1.6,2c-0.1,0.2-0.3,0.3-0.5,0.4c-0.1,0.1-0.2,0.1-0.3,0.1c0,0-0.1,0-0.1,0c-0.3,0.2-0.5,0.4-0.8,0.5
	c0,0-0.1,0.1-0.2,0.1C30.7,51,30.7,51,30.7,51c-0.2,0-0.5,0-0.7,0c-0.3,0-0.6,0-0.9,0.3c-0.1,0.1-0.3,0.2-0.5,0.2
	c-0.3-0.1-0.7,0.1-1,0c-0.1,0-0.2,0-0.4,0c-0.2,0-0.4,0.2-0.6-0.1c0,0-0.1,0-0.1,0c-0.4,0.1-0.8-0.1-1.1-0.2
	c-0.3-0.1-0.5-0.2-0.8-0.3c-0.2-0.1-0.4-0.3-0.6-0.4c-0.1-0.1-0.2-0.3-0.4-0.2c0,0,0-0.1-0.1-0.2c-0.2,0-0.4-0.1-0.4-0.4
	c0-0.1-0.2-0.1-0.2-0.2c-0.2-0.3-0.5-0.4-0.8-0.5c-0.1,0-0.1,0-0.2-0.1c-0.3-0.4-0.8-0.6-1.2-0.9c-0.3-0.2-0.6-0.4-0.8-0.7
	c-0.1-0.1-0.3-0.2-0.4-0.4c-0.2-0.3-0.4-0.6-0.7-0.9c-0.4-0.5-0.8-1-1.2-1.6c-0.1-0.2-0.3-0.4-0.4-0.6c-0.2-0.3-0.4-0.5-0.6-0.8
	c0,0-0.1,0-0.2-0.1c0-0.1,0-0.1,0-0.2c-0.1-0.2-0.3-0.3-0.4-0.4C16,42,15.6,41.6,15.6,41c0-0.8,0.2-1.4,0.9-1.9
	c0.2-0.1,0.3-0.3,0.5-0.5c0.5-0.6,1.2-0.8,1.9-0.9c0.1,0,0.2-0.1,0.3-0.1c-0.1-0.1-0.2-0.2-0.3-0.2c-0.6-0.1-1.1-0.4-1.6-0.8
	c-0.1-0.1-0.3-0.1-0.4-0.2c-0.4-0.2-0.6-0.6-0.8-0.9c-0.3-0.5-0.6-1.1-0.9-1.6c-0.4-0.7-0.7-1.4-1.1-2.1c-0.2-0.4-0.4-0.7-0.6-1.1
	c-0.2-0.3-0.3-0.7-0.4-1c-0.2-0.5-0.4-1.1-0.6-1.6c-0.1-0.3-0.2-0.6-0.3-0.9c-0.1-0.4-0.3-0.7-0.4-1.1c-0.2-0.6-0.3-1.2-0.4-1.8
	c-0.2-1.1-0.3-2.3-0.5-3.4c-0.1-0.4-0.1-0.9-0.2-1.3c0-0.1-0.1-0.1-0.1-0.2c-0.2-0.3-0.3-0.6-0.3-0.9c0-0.2,0.1-0.2,0.2-0.3
	c1.3-0.3,2.6-0.3,3.9-0.1c0.5,0.1,0.9,0.3,1.4,0.4c0.7,0.3,1.4,0.5,2.2,0.8c0.5,0.2,1.1,0.6,1.6,0.9c0.7,0.3,1.2,0.8,1.8,1.3
	c0.2,0.1,0.4,0.3,0.5,0.4c0.1,0.1,0.3,0.1,0.4,0.1c-0.1,0.1-0.1,0.1-0.2,0.2c0.7,0.5,1.3,1.3,2.1,1.7c0,0.1,0,0.3,0.1,0.3
	c0.5,0.6,1.1,1.1,1.7,1.7c0.4,0.4,0.7,0.8,1.1,1.3c0.3,0.4,0.6,0.7,1,1c0.5,0.6,1,1.1,1.5,1.7c0.5,0.6,1,1.2,1.6,1.8
	c0.1,0.1,0.2,0.1,0.2,0.2c0.2,0.3,0.4,0.6,0.7,0.9c0.1,0.2,0.3,0.3,0.4,0.5c0.6,0.6,1.1,1.2,1.7,1.9c0.4,0.4,0.8,0.8,1.1,1.2
	c0.4,0.4,0.7,0.9,1.1,1.3c0.5,0.7,1,1.4,1.1,2.3c0,0.3,0.2,0.4,0.5,0.3c0.4-0.1,0.8-0.2,1-0.5c0.3-0.1,0.4-0.1,0.6-0.2
	c0.4-0.1,0.8-0.2,0.9-0.8c0-0.1,0.1-0.1,0.1-0.2c0.3-0.5,0.4-0.5,0-1c-0.4-0.7-0.9-1.4-1.3-2.2c-0.1-0.1-0.1-0.2-0.1-0.3
	c-0.1-0.1-0.2-0.2-0.3-0.3c-0.2-0.1-0.3-0.2-0.5-0.4c-0.7-0.6-1.4-1-2.2-1.5c-0.6-0.3-1.1-0.6-1.6-0.9c0,0,0,0,0,0
	c-0.6-0.1-0.9-0.6-1.3-0.9c-0.1,0-0.1,0-0.3-0.1c0-0.3-0.4-0.4-0.6-0.6c-0.1-0.2-0.3-0.3-0.5-0.5c-0.2-0.1-0.4-0.3-0.6-0.4
	c0.1,0,0.2,0,0.2,0c0.2,0,0.4,0,0.5,0c0.1,0,0.1,0,0.2,0c0.2,0.3,0.5,0.3,0.8,0.5c0.1,0.1,0.1,0.2,0.2,0.3c0.4,0.3,0.9,0.6,1.3,0.9
	c0.2,0.1,0.4,0.3,0.6,0.4c0,0,0.1,0.1,0.1,0.1c0.2-0.1,0.3,0.1,0.5,0.2c0.7,0.4,1.4,0.9,2.1,1.3c0.2,0.1,0.4,0.3,0.6,0.4
	c0,0,0.1,0.1,0.1,0.1c0.5,0.1,0.7,0.7,1.1,1c0.2,0.2,0.5,0.4,0.7,0.7c0.2,0.3,0.4,0.6,0.6,0.9c0.2,0.2,0.3,0.5,0.4,0.8
	c0.1,0.1,0.3,0.3,0.4,0.2c0.1,0,0.2-0.2,0.3-0.4c0,0,0,0,0,0c0.2-0.1,0.4-0.3,0.6-0.4c0.3-0.1,0.5-0.2,0.8-0.4
	c0.1,0,0.1-0.1,0.1-0.2c0.3,0.1,0.5,0.1,0.8,0.2c0.2,0.1,0.4,0.2,0.6,0.4c0.2,0.2,0.3,0.5,0.4,0.7c0.1,0.1,0.1,0.2,0.2,0.3
	c-0.1,0.3-0.2,0.6-0.3,1c0.2,0,0.5,0,0.7-0.1c0.5-0.2,0.9-0.5,1.4-0.6c0.8-0.1,1.7-0.2,2.6-0.1c0.3,0.1,0.6,0.1,1,0.1
	c0.1,0,0.3,0.1,0.4,0.1c0.2,0.1,0.4,0.2,0.7,0.1c0,0,0.1,0,0.1,0c0.5,0.3,1.1,0.3,1.7,0.5c1.1,0.3,2.2,0.4,3.3,0.6
	c0.1,0,0.3,0.1,0.2,0.3c-0.1-0.1-0.3-0.1-0.4-0.2c0,0,0,0.1,0,0.1c-0.1,0.1-0.1,0.1-0.2,0.1C55.9,40,55,40.2,54,40
	c-0.5-0.1-1-0.1-1.5-0.2c-0.2,0-0.4-0.1-0.6-0.2c-0.2,0-0.5,0-0.7-0.1c-0.1,0-0.3-0.1-0.4-0.2c-0.3-0.1-0.6-0.1-0.9-0.1
	c-0.5,0-1.1-0.1-1.6-0.1c-0.6,0-1.3,0.1-1.9,0.5c-0.1,0-0.1,0.1-0.2,0.2c-0.2-0.1-0.3-0.1-0.4,0.1c-0.1,0.2-0.2,0.4-0.3,0.6
	c0,0.1,0,0.2-0.1,0.3c-0.4,0.4-0.2,0.8,0.1,1.3c0.3,0.6,0.4,1.2,0.4,1.8c0,0.1,0,0.1,0,0.2c0.1,0,0.2,0,0.3,0
	c0.7-0.2,1.4-0.4,2.1-0.6c0.5-0.1,1-0.3,1.5-0.4c0.3-0.1,0.5-0.1,0.8-0.1c0.2,0,0.4-0.1,0.6-0.2c0.2,0,0.5-0.1,0.7-0.1
	c0.8-0.1,1.6-0.2,2.4-0.3c0.6-0.1,1.3-0.1,1.9-0.2c1-0.1,2-0.2,3-0.2c1.2-0.1,2.5-0.2,3.7-0.3c0.6,0,1.2-0.1,1.7,0
	c0.5,0.1,0.9,0.1,1.4,0.1c0.8,0.1,1.6,0.1,2.3,0.1c0.3,0,0.5,0,0.8-0.1c0,0,0-0.1,0-0.2c0.1,0,0.1,0,0.1,0.1
	c0.1,0.2,0.2,0.2,0.4,0.2c0.6,0,1.1,0.1,1.6,0.1c0.4,0,0.8,0,1.2,0.1c0.3,0.1,0.6,0.2,1,0.3c0.4,0.1,0.7,0.2,1.1,0.3
	c0.5,0.2,1,0.4,1.4,0.6c0.5,0.2,1.1,0.4,1.6,0.7c0.2,0.1,0.3,0.2,0.4,0.3c0.3,0.2,0.6,0.4,0.8,0.7c0.1,0.1,0.2,0.2,0.3,0.3
	c0.3,0.3,0.6,0.6,0.8,0.9c0.2,0.3,0.4,0.6,0.5,1C80.5,47.6,80.3,48,80,48.2z"/>
</svg>
