 <svg id="Group_326" data-name="Group 326" xmlns="http://www.w3.org/2000/svg"
     viewBox="0 0 493.254 72.333">
     <defs>
         <lineargradient id="linear-gradient" x1="0.97" y1="0.5" x2="0.02" y2="0.5"
             gradientUnits="objectBoundingBox">
             <stop offset="0" stop-color="#f62f56" />
             <stop offset="1" stop-color="#c53267" />
         </lineargradient>
         <clipPath id="clip-path">
             <rect id="Rectangle_217" data-name="Rectangle 217" width="493.254" height="72.333" fill="none" />
         </clipPath>
     </defs>
     <path id="Path_584" data-name="Path 584" d="M534.458,26.271,521.986,79.324H780.257l12.472-53.053Z"
         transform="translate(-300.475 -15.072)" fill="url(#linear-gradient)" />
     <g id="Group_325" data-name="Group 325">
         <g id="Group_324" data-name="Group 324" clip-path="url(#clip-path)">
             <path id="Path_585" data-name="Path 585"
                 d="M126.079,26.271a28.324,28.324,0,0,1-5.455,6.711c-.164.208-.333.413-.508.616a12.338,12.338,0,0,1,3.424.838,8.677,8.677,0,0,1,5.387,6.541,20.647,20.647,0,0,1,5.167,13.707c0,7.853-6.133,17.685-11.36,24.641H291.116l12.472-53.054Z"
                 transform="translate(-68.913 -15.072)" fill="#b7d8ff" />
             <path id="Path_586" data-name="Path 586"
                 d="M44.617,142.6c.826.887,12.367,8.364,26.023,3.972,0-6.942-4.519-14.731-4.519-14.731s-22.33,9.872-21.5,10.759"
                 transform="translate(-25.585 -75.64)" fill="#112e51" />
             <path id="Path_587" data-name="Path 587"
                 d="M91.151,61.66s5.394-14.584,15.321-10.642c4.741,1.883,4.322,8.476,1.584,5.909a5.207,5.207,0,0,0-5.537-1.307s-4-.442-6.372,5.541"
                 transform="translate(-52.295 -28.883)" fill="#112e51" />
             <path id="Path_588" data-name="Path 588"
                 d="M68.917,90.364c2.05,11.021-4.644,17.087-14.412,17.087s-17.273-3.809-17.273-15.019c0-5.747,5.5-14.176,3.922-17.771,2.449-4.841,6.008-8.018,10.576-6.934,9.5,2.256,15.01,10.937,17.187,22.637"
                 transform="translate(-21.361 -38.734)" fill="#112e51" />
             <path id="Path_589" data-name="Path 589"
                 d="M68.761,0l6.386,2.652s2.068,6.528.315,7.93-4.8.314-7.009-2.26C64.99,4.288,68.761,0,68.761,0"
                 transform="translate(-38.433)" fill="#112e51" />
             <path id="Path_590" data-name="Path 590"
                 d="M85.7,2.956c-.867-1.341-10.8-4.168-18.945.246A31.544,31.544,0,0,0,63.828,5a17.324,17.324,0,0,0-4.95,4.267,9.138,9.138,0,0,0,3.975,1.895,10.846,10.846,0,0,1-4.875-.8A47.657,47.657,0,0,0,50.346,25.9c-5.224,17.011,8.263,25.225,8.263,25.225l18.72-2.612s-10.767-19.478.026-30.981a14.93,14.93,0,0,0,.981-1.155C84.148,10.89,86.459,4.134,85.7,2.956"
                 transform="translate(-28.195 -0.472)" fill="#112e51" />
             <path id="Path_591" data-name="Path 591"
                 d="M39.714,61.342c-2.364-4.549-1.257-15.541,17.3-17.007,8.864-.7,13.883,5.182,7.943,4.264A15.023,15.023,0,0,0,55.1,50.215s-6.848,1.619-7.428,8.167"
                 transform="translate(-22.262 -25.402)" fill="#fff" />
             <path id="Path_592" data-name="Path 592"
                 d="M44.727,73.626C33.571,77.615,16.64,72.483,9.173,65.862a36.243,36.243,0,0,1-3.918-4A22.855,22.855,0,0,1,.839,53.284c-2.151-7.6-.032-15.341,4.828-21.363,3.889-5.3,9.464-9.973,10.773-16.562.752-3.8-1.521-8.259-5.769-8.188C6.335,7.1,3.2,10.921,2.326,14.948a.937.937,0,0,1-1.834-.382A12.809,12.809,0,0,1,5.149,6.627a9.319,9.319,0,0,1,9.441-1.11c3.742,1.816,5.425,6.327,4.885,10.261-.657,5.022-3.628,9.138-6.512,12.991C7.247,36.046,2.521,42.257,5.493,51.922a18.33,18.33,0,0,0,4.814,7.687c3.686,3.849,7.537,5.707,6.639,3.248"
                 transform="translate(0 -2.695)" fill="#112e51" />
             <path id="Path_593" data-name="Path 593" d="M53.732,143.3h22.2l-8.326-13.768Z"
                 transform="translate(-30.828 -74.317)" fill="#112e51" />
             <path id="Path_594" data-name="Path 594"
                 d="M81.748,51.184A17.793,17.793,0,0,0,63.955,68.977c0,12.364,17.793,31.321,17.793,31.321S99.54,81.341,99.54,68.977A17.793,17.793,0,0,0,81.748,51.184m0,26.136a8.343,8.343,0,1,1,8.344-8.344,8.353,8.353,0,0,1-8.344,8.344"
                 transform="translate(-36.692 -29.365)" fill="#f62f56" />
             <path id="Path_595" data-name="Path 595"
                 d="M45.408,61.416c-2.221-4.426-.518-14.5,17.943-16.888,8.818-1.139,11.57,8.005,6.229,5.246-4.9-2.53-9.748,1.216-9.748,1.216s-6.894,1.792-7.149,8.361"
                 transform="translate(-25.615 -25.49)" fill="#112e51" />
             <path id="Path_596" data-name="Path 596" d="M71.145,0,85.5,5.962l-9.287.487Z"
                 transform="translate(-40.817 0)" fill="#112e51" />
             <path id="Path_597" data-name="Path 597"
                 d="M106.559,9.029a1.5,1.5,0,1,1-1.009-1.862,1.5,1.5,0,0,1,1.009,1.862"
                 transform="translate(-59.453 -4.076)" fill="#fff" />
             <path id="Path_598" data-name="Path 598"
                 d="M96.788,50.824c.682.535,1.165,1.147,1.923,3.682.759,2.438-2,2.478-3.753.377-.785-.846-1.508-2.306-3.55-2.485a10.171,10.171,0,0,1-2.89-.781s7.109-1.7,8.271-.793"
                 transform="translate(-50.784 -29.005)" fill="#112e51" />
             <path id="Path_599" data-name="Path 599"
                 d="M199.063,71.142a5.118,5.118,0,0,1,1.694,2.295,9.056,9.056,0,0,1,.562,3.3,13.04,13.04,0,0,1-.6,4.02A9.889,9.889,0,0,1,199.11,83.9a7.476,7.476,0,0,1-2.349,1.991,6.318,6.318,0,0,1-6.213-.2l-.109.016-.843,6.9h-5.464l2.7-21.98H192.3l-.266,2.092h.063a6.365,6.365,0,0,1,1.9-1.772,4.56,4.56,0,0,1,2.381-.648,4.354,4.354,0,0,1,2.693.851m-4.964,10.2a2.984,2.984,0,0,0,1.015-1.1,6.2,6.2,0,0,0,.741-2.927,2.743,2.743,0,0,0-.413-1.584,1.226,1.226,0,0,0-1.038-.6,2.85,2.85,0,0,0-2.232,1.553A9.8,9.8,0,0,0,190.8,81v-.016l-.015.11a1.962,1.962,0,0,0,.812.546,3.625,3.625,0,0,0,1.046.125,2.619,2.619,0,0,0,1.46-.422"
                 transform="translate(-105.64 -40.328)" fill="#112e51" />
             <path id="Path_600" data-name="Path 600"
                 d="M237.264,80.734l3.965,2.139a7.654,7.654,0,0,1-6.962,3.715,6.6,6.6,0,0,1-4.91-1.772,6.779,6.779,0,0,1-1.756-4.987,11.239,11.239,0,0,1,.382-2.935,9.438,9.438,0,0,1,1.139-2.615,9.068,9.068,0,0,1,1.811-2.084,7.959,7.959,0,0,1,2.459-1.4,8.8,8.8,0,0,1,3.013-.507,7.41,7.41,0,0,1,1.561.164,6.065,6.065,0,0,1,1.475.523,5.168,5.168,0,0,1,1.249.874,3.724,3.724,0,0,1,.859,1.288,4.38,4.38,0,0,1,.32,1.694,3.834,3.834,0,0,1-.492,1.9,5.119,5.119,0,0,1-1.311,1.53,9.715,9.715,0,0,1-1.975,1.179,15.553,15.553,0,0,1-2.42.874,26.752,26.752,0,0,1-2.7.578l-.015.031a2.044,2.044,0,0,0,.765,1,1.875,1.875,0,0,0,1.046.328,2.957,2.957,0,0,0,2.5-1.515m-3.13-5.19a5.022,5.022,0,0,0-1.163,2.255q3.778-.764,3.778-2.388a.68.68,0,0,0-.219-.507.8.8,0,0,0-.577-.211,2.447,2.447,0,0,0-1.819.851"
                 transform="translate(-130.58 -40.328)" fill="#112e51" />
             <path id="Path_601" data-name="Path 601"
                 d="M265.414,82.17a4.247,4.247,0,0,0,1.9.515,2.184,2.184,0,0,0,.39-.031.85.85,0,0,0,.289-.1.55.55,0,0,0,.179-.163.386.386,0,0,0,.062-.219.679.679,0,0,0-.367-.53q-.367-.25-1.85-1.046a9.554,9.554,0,0,1-2.888-2.131,4.085,4.085,0,0,1-.906-2.709,5.216,5.216,0,0,1,2.951-4.792,6.734,6.734,0,0,1,3.028-.671,7.663,7.663,0,0,1,3.2.679,6.75,6.75,0,0,1,2.53,1.975L270.761,75.9a3.653,3.653,0,0,0-1.226-1.21,2.728,2.728,0,0,0-1.225-.382,1.143,1.143,0,0,0-.671.172.582.582,0,0,0-.3.515c0,.167.159.362.477.586a13.72,13.72,0,0,0,1.553.882q.874.437,1.483.819a9.179,9.179,0,0,1,1.124.827,3.933,3.933,0,0,1,.812.937,4.276,4.276,0,0,1,.46,1.093,5.053,5.053,0,0,1,.164,1.335,4.6,4.6,0,0,1-1.7,3.692,6.911,6.911,0,0,1-4.589,1.428,9.275,9.275,0,0,1-3.49-.7,7.053,7.053,0,0,1-2.817-1.983l2.872-3.059a5.552,5.552,0,0,0,1.725,1.327"
                 transform="translate(-149.637 -40.328)" fill="#112e51" />
             <path id="Path_602" data-name="Path 602"
                 d="M303.828,78.489a9.14,9.14,0,0,1-4.355,1.124,5.8,5.8,0,0,1-1.116-.1,4.129,4.129,0,0,1-1.023-.343,2.665,2.665,0,0,1-.85-.64,3.952,3.952,0,0,1-.617-.976,3.861,3.861,0,0,1-.32-1.35,11.138,11.138,0,0,1,.039-1.787l.765-6.432h-1.515l.531-4.34h1.53l.562-4.418,5.573-1.093-.687,5.51H305.3l-.531,4.34h-2.95l-.687,5.791a1.226,1.226,0,0,0,.086.749.493.493,0,0,0,.461.266,3.045,3.045,0,0,0,1.233-.344Z"
                 transform="translate(-169.154 -33.352)" fill="#112e51" />
             <path id="Path_603" data-name="Path 603"
                 d="M326.094,82.17a4.245,4.245,0,0,0,1.9.515,2.19,2.19,0,0,0,.391-.031.851.851,0,0,0,.289-.1.549.549,0,0,0,.179-.163.386.386,0,0,0,.062-.219.679.679,0,0,0-.367-.53q-.367-.25-1.85-1.046a9.557,9.557,0,0,1-2.888-2.131,4.084,4.084,0,0,1-.9-2.709,5.215,5.215,0,0,1,2.95-4.792,6.734,6.734,0,0,1,3.028-.671,7.665,7.665,0,0,1,3.2.679,6.747,6.747,0,0,1,2.529,1.975L331.441,75.9a3.653,3.653,0,0,0-1.226-1.21,2.729,2.729,0,0,0-1.226-.382,1.142,1.142,0,0,0-.671.172.581.581,0,0,0-.3.515q0,.25.476.586a13.782,13.782,0,0,0,1.553.882q.874.437,1.483.819a9.179,9.179,0,0,1,1.124.827,3.932,3.932,0,0,1,.812.937,4.275,4.275,0,0,1,.46,1.093,5.053,5.053,0,0,1,.164,1.335,4.6,4.6,0,0,1-1.7,3.692,6.913,6.913,0,0,1-4.59,1.428,9.273,9.273,0,0,1-3.489-.7A7.06,7.06,0,0,1,321.5,83.9l2.872-3.059a5.563,5.563,0,0,0,1.725,1.327"
                 transform="translate(-184.45 -40.328)" fill="#112e51" />
             <path id="Path_604" data-name="Path 604"
                 d="M359.9,95.317a2.912,2.912,0,0,1,.8,2.131,3.074,3.074,0,0,1-.835,2.225,3.029,3.029,0,0,1-2.287.866,2.922,2.922,0,0,1-2.209-.835,3.3,3.3,0,0,1,.031-4.356,3.06,3.06,0,0,1,2.287-.851,2.953,2.953,0,0,1,2.209.82"
                 transform="translate(-203.423 -54.215)" fill="#112e51" />
             <path id="Path_605" data-name="Path 605"
                 d="M387.519,72.122a6.739,6.739,0,0,1,1.811,5.011,13,13,0,0,1-.312,2.888,9.3,9.3,0,0,1-1.007,2.584A8.072,8.072,0,0,1,386.3,84.7a7.5,7.5,0,0,1-2.514,1.4,10.235,10.235,0,0,1-3.34.515,6.516,6.516,0,0,1-4.808-1.8,6.726,6.726,0,0,1-1.811-4.988,11.644,11.644,0,0,1,.359-2.911,9.22,9.22,0,0,1,1.1-2.591,9,9,0,0,1,1.772-2.084,7.594,7.594,0,0,1,2.466-1.4,9.267,9.267,0,0,1,3.107-.507,6.634,6.634,0,0,1,4.886,1.8m-6.572,3.442a3.106,3.106,0,0,0-.9,1.038,5.68,5.68,0,0,0-.538,1.428,6.9,6.9,0,0,0-.188,1.6,2.922,2.922,0,0,0,.172,1.054,1.635,1.635,0,0,0,.437.671,1.882,1.882,0,0,0,.523.328,1.377,1.377,0,0,0,.507.1,2.139,2.139,0,0,0,1.514-.64,4.033,4.033,0,0,0,1.015-1.624,6.254,6.254,0,0,0,.343-2.076,3.445,3.445,0,0,0-.172-1.155,1.586,1.586,0,0,0-.445-.711,1.809,1.809,0,0,0-.539-.32,1.59,1.59,0,0,0-.531-.093,1.994,1.994,0,0,0-1.2.4"
                 transform="translate(-214.474 -40.348)" fill="#112e51" />
             <path id="Path_606" data-name="Path 606"
                 d="M424.44,70.327l-.765,5.964a2.671,2.671,0,0,0-1.163-.3,2.087,2.087,0,0,0-1.085.289,3.273,3.273,0,0,0-.945.851,5.269,5.269,0,0,0-.749,1.444,9.429,9.429,0,0,0-.46,2.03l-.7,5.7h-5.448l1.92-15.658h5.448l-.218,1.8h.046a5.22,5.22,0,0,1,4.121-2.108"
                 transform="translate(-237.018 -40.348)" fill="#112e51" />
             <path id="Path_607" data-name="Path 607"
                 d="M455.011,70.618l-1.67,13.6q-1.061,8.695-9.195,8.695a11.159,11.159,0,0,1-5.9-1.514l1.671-4.09a7.374,7.374,0,0,0,3.871,1.124,6.365,6.365,0,0,0,1.217-.1,3.181,3.181,0,0,0,1.015-.4,2.716,2.716,0,0,0,.851-.8,5.422,5.422,0,0,0,.632-1.343,10.87,10.87,0,0,0,.437-2.006h-.046a5.034,5.034,0,0,1-4.184,2.342,4.622,4.622,0,0,1-2.123-.483,4.393,4.393,0,0,1-1.561-1.3,6.147,6.147,0,0,1-.937-1.9,7.784,7.784,0,0,1-.328-2.279,13.19,13.19,0,0,1,.594-4.02A9.876,9.876,0,0,1,440.945,73a7.537,7.537,0,0,1,2.31-1.99,5.586,5.586,0,0,1,2.717-.718,4.5,4.5,0,0,1,3.4,1.249h.078l.109-.921Zm-7.243,9.257A8.852,8.852,0,0,0,449.11,76.1l.016-.11a2.847,2.847,0,0,0-.905-.655,2.76,2.76,0,0,0-1.108-.2,2.07,2.07,0,0,0-1.53.726,4.643,4.643,0,0,0-1.022,1.694,5.693,5.693,0,0,0-.336,1.873,2.1,2.1,0,0,0,.4,1.389,1.313,1.313,0,0,0,1.054.468,2.682,2.682,0,0,0,2.092-1.405"
                 transform="translate(-251.431 -40.328)" fill="#112e51" />
             <path id="Path_608" data-name="Path 608"
                 d="M594.381,71.892a4.133,4.133,0,0,1,1.017,3,5.573,5.573,0,0,1-1.537,4.156,5.934,5.934,0,0,1-4.351,1.515h-2.641l-.736,6.028h-1.894l1.926-15.748h5.087a4.191,4.191,0,0,1,3.128,1.044m-1.927,5.915a4.109,4.109,0,0,0,.974-2.922,2.145,2.145,0,0,0-.7-1.726,2.8,2.8,0,0,0-1.883-.6h-2.987l-.779,6.288h2.695a3.5,3.5,0,0,0,2.684-1.039"
                 transform="translate(-335.191 -40.647)" fill="#fff" />
             <path id="Path_609" data-name="Path 609"
                 d="M618.877,91.269a4.623,4.623,0,0,0,1.31-1.012l1.375,1a6.673,6.673,0,0,1-1.9,1.483,5.186,5.186,0,0,1-2.333.487,4.16,4.16,0,0,1-3.134-1.2,4.515,4.515,0,0,1-1.163-3.279,7.923,7.923,0,0,1,.4-2.511,6.8,6.8,0,0,1,1.109-2.094,5.214,5.214,0,0,1,4.124-1.964,4.544,4.544,0,0,1,.931.1,3.688,3.688,0,0,1,.9.319,3.221,3.221,0,0,1,.769.536,2.385,2.385,0,0,1,.535.785A2.525,2.525,0,0,1,622,84.932a2.806,2.806,0,0,1-.287,1.261,3.122,3.122,0,0,1-.812,1.017,6.538,6.538,0,0,1-1.2.785,8.792,8.792,0,0,1-1.5.6A16.419,16.419,0,0,1,616.56,89q-.822.157-1.732.254l-.022.022a2.645,2.645,0,0,0,.861,1.716,2.552,2.552,0,0,0,1.726.611,3.316,3.316,0,0,0,1.483-.33m-1.3-7.322a3.348,3.348,0,0,0-.942.487,4.08,4.08,0,0,0-.807.79,4.519,4.519,0,0,0-.617,1.1,6.012,6.012,0,0,0-.362,1.369l.021.022q.8-.087,1.521-.222a12.352,12.352,0,0,0,1.44-.362,6.861,6.861,0,0,0,1.239-.514,2.68,2.68,0,0,0,.839-.7,1.434,1.434,0,0,0,.319-.9,1.052,1.052,0,0,0-.26-.726,1.331,1.331,0,0,0-.611-.4,2.628,2.628,0,0,0-.774-.108,3.224,3.224,0,0,0-1.006.162"
                 transform="translate(-351.711 -47.144)" fill="#fff" />
             <path id="Path_610" data-name="Path 610"
                 d="M640.034,91.661a3.158,3.158,0,0,0,1.093-.179,1.787,1.787,0,0,0,.78-.53,1.241,1.241,0,0,0,.292-.817,1.161,1.161,0,0,0-.06-.379.887.887,0,0,0-.211-.33q-.152-.157-.281-.271a1.988,1.988,0,0,0-.417-.254l-.465-.227q-.178-.087-.558-.249c-.13-.058-.231-.1-.3-.13a8.794,8.794,0,0,1-1.017-.525,4.948,4.948,0,0,1-.817-.628,2.443,2.443,0,0,1-.584-.838,2.649,2.649,0,0,1-.2-1.039,2.837,2.837,0,0,1,.492-1.64,3.177,3.177,0,0,1,1.3-1.1,4.121,4.121,0,0,1,1.764-.379,5.467,5.467,0,0,1,1.25.141,4.369,4.369,0,0,1,1.185.476,4.161,4.161,0,0,1,1.039.844l-1.169,1.2a2.939,2.939,0,0,0-2.348-1.126,2.082,2.082,0,0,0-.877.179,1.5,1.5,0,0,0-.622.514,1.333,1.333,0,0,0-.233.779,1.012,1.012,0,0,0,.1.449,1.479,1.479,0,0,0,.266.379,2.571,2.571,0,0,0,.433.346q.27.178.514.309t.612.3c.029.014.076.036.141.065q.292.13.444.2t.433.211a4.457,4.457,0,0,1,.439.243q.157.1.4.265a2.412,2.412,0,0,1,.373.3q.135.141.3.341a1.739,1.739,0,0,1,.249.4,2.78,2.78,0,0,1,.146.444,2.189,2.189,0,0,1,.059.515,3.053,3.053,0,0,1-.509,1.813,3.09,3.09,0,0,1-1.4,1.115,5.306,5.306,0,0,1-2.029.362,5.231,5.231,0,0,1-2.192-.46,4.169,4.169,0,0,1-1.629-1.272l1.169-1.169a3.312,3.312,0,0,0,2.652,1.342"
                 transform="translate(-365.01 -47.13)" fill="#fff" />
             <path id="Path_611" data-name="Path 611"
                 d="M664.851,87.421a4.605,4.605,0,0,1-2.576.757,1.958,1.958,0,0,1-1.8-.822,3.428,3.428,0,0,1-.346-2.262l.779-6.321H659.7l.184-1.526H661.1l.444-3.539,1.8-.346-.476,3.886h3.063l-.184,1.526h-3.063l-.736,6.039a2.317,2.317,0,0,0,.108,1.25.8.8,0,0,0,.79.417,3.428,3.428,0,0,0,1.764-.639Z"
                 transform="translate(-378.484 -42.089)" fill="#fff" />
             <path id="Path_612" data-name="Path 612"
                 d="M698.04,75.98a5.228,5.228,0,0,1,.357,3.339l-.877,6.5h-1.753l.855-6.364a5.225,5.225,0,0,0,.022-1.7,1.574,1.574,0,0,0-.487-.947,1.494,1.494,0,0,0-.974-.292,2.658,2.658,0,0,0-1.3.39,5.46,5.46,0,0,0-1.293,1.039,6.406,6.406,0,0,0-1.061,1.586,6.475,6.475,0,0,0-.6,1.943l-.53,4.351h-1.753l2-16.322H692.4l-.942,7.663h.043a6.442,6.442,0,0,1,1.986-1.688,4.71,4.71,0,0,1,2.235-.584,2.487,2.487,0,0,1,2.316,1.088"
                 transform="translate(-395.091 -39.875)" fill="#fff" />
             <path id="Path_613" data-name="Path 613"
                 d="M722.978,91.269a4.623,4.623,0,0,0,1.31-1.012l1.375,1a6.672,6.672,0,0,1-1.9,1.483,5.186,5.186,0,0,1-2.333.487,4.161,4.161,0,0,1-3.134-1.2,4.515,4.515,0,0,1-1.163-3.279,7.923,7.923,0,0,1,.4-2.511,6.794,6.794,0,0,1,1.109-2.094,5.214,5.214,0,0,1,4.124-1.964,4.544,4.544,0,0,1,.931.1,3.687,3.687,0,0,1,.9.319,3.22,3.22,0,0,1,.769.536,2.385,2.385,0,0,1,.535.785,2.523,2.523,0,0,1,.206,1.023,2.806,2.806,0,0,1-.287,1.261,3.122,3.122,0,0,1-.812,1.017,6.534,6.534,0,0,1-1.2.785,8.79,8.79,0,0,1-1.5.6,16.42,16.42,0,0,1-1.651.406q-.822.157-1.732.254l-.022.022a2.645,2.645,0,0,0,.861,1.716,2.552,2.552,0,0,0,1.726.611,3.316,3.316,0,0,0,1.483-.33m-1.3-7.322a3.347,3.347,0,0,0-.942.487,4.077,4.077,0,0,0-.807.79,4.517,4.517,0,0,0-.617,1.1,6.015,6.015,0,0,0-.362,1.369l.021.022q.8-.087,1.521-.222a12.352,12.352,0,0,0,1.44-.362,6.858,6.858,0,0,0,1.239-.514,2.679,2.679,0,0,0,.839-.7,1.434,1.434,0,0,0,.319-.9,1.052,1.052,0,0,0-.26-.726,1.331,1.331,0,0,0-.611-.4,2.628,2.628,0,0,0-.774-.108,3.225,3.225,0,0,0-1.006.162"
                 transform="translate(-411.436 -47.144)" fill="#fff" />
             <path id="Path_614" data-name="Path 614" d="M746.152,69.5l-2,16.322H742.4l2-16.322Z"
                 transform="translate(-425.93 -39.875)" fill="#fff" />
             <path id="Path_615" data-name="Path 615"
                 d="M762.222,82.518a3.034,3.034,0,0,1,1.125.947,4.588,4.588,0,0,1,.666,1.38,5.8,5.8,0,0,1,.233,1.667,8.469,8.469,0,0,1-.244,2.03,7.314,7.314,0,0,1-.72,1.84,6.588,6.588,0,0,1-1.126,1.488,4.8,4.8,0,0,1-3.366,1.364,4.186,4.186,0,0,1-3.1-1.1h-.043l-.66,5.347h-1.754L755.1,82.3h1.764l-.3,2.4h.032a5.933,5.933,0,0,1,1.792-1.867,4.14,4.14,0,0,1,2.289-.666,3.411,3.411,0,0,1,1.548.347M760.614,90.9A4.5,4.5,0,0,0,761.989,89a6.99,6.99,0,0,0,.471-2.6,3.56,3.56,0,0,0-.227-1.3,2.119,2.119,0,0,0-.736-.958,1.992,1.992,0,0,0-1.212-.373,3.061,3.061,0,0,0-1.921.72,5.659,5.659,0,0,0-1.542,2A8.888,8.888,0,0,0,756,89.326v-.011l-.13,1.018a2.181,2.181,0,0,0,1.1.963,3.984,3.984,0,0,0,1.6.324,3.2,3.2,0,0,0,2.051-.72"
                 transform="translate(-432.15 -47.143)" fill="#fff" />
             <path id="Path_616" data-name="Path 616"
                 d="M804.3,82.476l-1.158,9.405a11.488,11.488,0,0,1-.362,1.846,7.615,7.615,0,0,1-.563,1.44,5.221,5.221,0,0,1-.741,1.066,4.507,4.507,0,0,1-.871.758,4.451,4.451,0,0,1-.985.476,5.583,5.583,0,0,1-1.05.254,8.114,8.114,0,0,1-1.1.07,6.871,6.871,0,0,1-3.583-.974l.574-1.559a5.79,5.79,0,0,0,3.02.909,5.366,5.366,0,0,0,1.1-.1,3.172,3.172,0,0,0,.974-.4,2.758,2.758,0,0,0,.833-.779,5.124,5.124,0,0,0,.622-1.283,9.035,9.035,0,0,0,.406-1.867l.108-.909h-.054a5.85,5.85,0,0,1-1.71,1.883,3.864,3.864,0,0,1-2.241.693,2.734,2.734,0,0,1-2.414-1.039,4.834,4.834,0,0,1-.444-3.312l.812-6.581h1.753l-.779,6.44a8.474,8.474,0,0,0-.032,1.385,1.784,1.784,0,0,0,.27.882,1.268,1.268,0,0,0,.547.465,2.016,2.016,0,0,0,.784.135,2.507,2.507,0,0,0,1.229-.363,4.859,4.859,0,0,0,1.2-.974,6.037,6.037,0,0,0,.974-1.488,6.424,6.424,0,0,0,.557-1.818l.574-4.665Z"
                 transform="translate(-455.472 -47.318)" fill="#fff" />
             <path id="Path_617" data-name="Path 617"
                 d="M831.729,83.33a4.316,4.316,0,0,1,1.207,3.269,8.509,8.509,0,0,1-.384,2.592,6.528,6.528,0,0,1-1.1,2.1,5.035,5.035,0,0,1-1.8,1.418,5.512,5.512,0,0,1-2.408.52,4.415,4.415,0,0,1-3.258-1.2,4.487,4.487,0,0,1-1.2-3.328,8.087,8.087,0,0,1,.249-2.013,6.614,6.614,0,0,1,.741-1.791,6.274,6.274,0,0,1,1.169-1.428,4.981,4.981,0,0,1,1.586-.958,5.392,5.392,0,0,1,1.938-.346,4.515,4.515,0,0,1,3.263,1.158m-5.347,1.115a4.243,4.243,0,0,0-1.353,1.737,5.761,5.761,0,0,0-.471,2.333,3.336,3.336,0,0,0,.725,2.251,2.487,2.487,0,0,0,1.992.844,3.381,3.381,0,0,0,2.013-.633,4.113,4.113,0,0,0,1.375-1.743,6.14,6.14,0,0,0,.487-2.495,3.744,3.744,0,0,0-.233-1.38,2.261,2.261,0,0,0-.633-.925,2.639,2.639,0,0,0-.876-.493,3.311,3.311,0,0,0-1.039-.157,3.234,3.234,0,0,0-1.986.66"
                 transform="translate(-472.05 -47.144)" fill="#fff" />
             <path id="Path_618" data-name="Path 618"
                 d="M861.415,82.476l-1.331,10.791h-1.753l.26-2.143h-.032a5.707,5.707,0,0,1-1.732,1.678,4.049,4.049,0,0,1-2.143.606,2.734,2.734,0,0,1-2.414-1.039,4.83,4.83,0,0,1-.444-3.312l.812-6.581h1.753l-.779,6.44a7.875,7.875,0,0,0-.043,1.385,1.779,1.779,0,0,0,.271.882,1.265,1.265,0,0,0,.547.465,2.048,2.048,0,0,0,.8.135,2.385,2.385,0,0,0,1.207-.373,4.953,4.953,0,0,0,1.185-1,6.216,6.216,0,0,0,.969-1.521,6.461,6.461,0,0,0,.546-1.862l.563-4.556Z"
                 transform="translate(-488.667 -47.318)" fill="#fff" />
             <path id="Path_619" data-name="Path 619"
                 d="M893.338,93.093a4.354,4.354,0,0,1-1.029-.379,3.506,3.506,0,0,1-.861-.633,3.985,3.985,0,0,1-.659-.877,4.227,4.227,0,0,1-.423-1.125,6.1,6.1,0,0,1-.146-1.369,7.867,7.867,0,0,1,.395-2.506,6.747,6.747,0,0,1,1.11-2.084,5.1,5.1,0,0,1,1.8-1.423,5.421,5.421,0,0,1,2.387-.525,5.257,5.257,0,0,1,2.187.449,3.621,3.621,0,0,1,1.569,1.315l-1.385,1.049a2.5,2.5,0,0,0-1.029-.9,3.188,3.188,0,0,0-1.385-.3,3.355,3.355,0,0,0-2.035.65,4.138,4.138,0,0,0-1.359,1.737,5.981,5.981,0,0,0-.471,2.4,3.968,3.968,0,0,0,.206,1.32,2.563,2.563,0,0,0,.563.953,2.47,2.47,0,0,0,.817.563,2.51,2.51,0,0,0,.99.195,3.758,3.758,0,0,0,2.922-1.342l1.385,1a6.064,6.064,0,0,1-1.948,1.477,5.744,5.744,0,0,1-2.446.493,5.038,5.038,0,0,1-1.158-.13"
                 transform="translate(-510.74 -47.144)" fill="#fff" />
             <path id="Path_620" data-name="Path 620"
                 d="M926.013,82.3l-1.331,10.791h-1.753l.3-2.478h-.043a6.205,6.205,0,0,1-1.748,1.916,3.668,3.668,0,0,1-2.127.7,3.85,3.85,0,0,1-1.331-.222,3.214,3.214,0,0,1-1.044-.612,3.447,3.447,0,0,1-.736-.936,4.609,4.609,0,0,1-.444-1.2,6.316,6.316,0,0,1-.146-1.385,8.466,8.466,0,0,1,.243-2.03,7.222,7.222,0,0,1,.72-1.835,6.762,6.762,0,0,1,1.12-1.483,4.71,4.71,0,0,1,1.5-1,4.647,4.647,0,0,1,1.824-.363,4.994,4.994,0,0,1,1.7.287,3.534,3.534,0,0,1,1.347.85h.054l.119-1.006ZM921.4,90.987a5.542,5.542,0,0,0,1.483-1.856,8.713,8.713,0,0,0,.86-2.663l.184-1.493a3.211,3.211,0,0,0-.855-.671,4.19,4.19,0,0,0-1-.406,3.836,3.836,0,0,0-.936-.124,2.926,2.926,0,0,0-1.558.438,3.725,3.725,0,0,0-1.185,1.164,5.992,5.992,0,0,0-.73,1.645,6.927,6.927,0,0,0-.26,1.894,3.145,3.145,0,0,0,.584,1.992,1.969,1.969,0,0,0,1.645.747,2.865,2.865,0,0,0,1.769-.666"
                 transform="translate(-525.308 -47.143)" fill="#fff" />
             <path id="Path_621" data-name="Path 621"
                 d="M954.13,83.234a5.228,5.228,0,0,1,.357,3.339l-.877,6.5h-1.753l.855-6.364a7.633,7.633,0,0,0,.065-1.347,2.232,2.232,0,0,0-.222-.915,1.19,1.19,0,0,0-.5-.519,1.685,1.685,0,0,0-.779-.162,2.688,2.688,0,0,0-1.3.384,5.245,5.245,0,0,0-1.288,1.034,6.81,6.81,0,0,0-1.651,3.528l-.541,4.362h-1.753l1.321-10.791h1.764l-.26,2.11h.054a6.448,6.448,0,0,1,1.98-1.672,4.693,4.693,0,0,1,2.219-.579,2.487,2.487,0,0,1,2.316,1.088"
                 transform="translate(-542.016 -47.129)" fill="#fff" />
             <path id="Path_622" data-name="Path 622"
                 d="M989.8,87.421a4.605,4.605,0,0,1-2.576.757,1.958,1.958,0,0,1-1.8-.822,3.425,3.425,0,0,1-.346-2.262l.779-6.321h-1.212l.184-1.526h1.212l.444-3.539,1.8-.346-.476,3.886h3.063l-.184,1.526h-3.063l-.736,6.039a2.32,2.32,0,0,0,.108,1.25.8.8,0,0,0,.79.417,3.428,3.428,0,0,0,1.764-.639Z"
                 transform="translate(-564.916 -42.089)" fill="#fff" />
             <path id="Path_623" data-name="Path 623"
                 d="M1008.651,82.172l-.238,2.046a3.076,3.076,0,0,0-1.9.525,4.069,4.069,0,0,0-1.348,1.58,7.692,7.692,0,0,0-.7,2.376l-.541,4.394h-1.753l1.321-10.791h1.764l-.292,2.338h.054a4.854,4.854,0,0,1,3.637-2.468"
                 transform="translate(-574.967 -47.144)" fill="#fff" />
             <path id="Path_624" data-name="Path 624"
                 d="M1029.451,82.476l-1.331,10.791h-1.753l.26-2.143h-.032a5.7,5.7,0,0,1-1.732,1.678,4.049,4.049,0,0,1-2.143.606,2.734,2.734,0,0,1-2.414-1.039,4.832,4.832,0,0,1-.444-3.312l.812-6.581h1.753l-.779,6.44a7.863,7.863,0,0,0-.043,1.385,1.779,1.779,0,0,0,.271.882,1.265,1.265,0,0,0,.547.465,2.049,2.049,0,0,0,.8.135,2.385,2.385,0,0,0,1.207-.373,4.949,4.949,0,0,0,1.185-1,6.216,6.216,0,0,0,.969-1.521,6.459,6.459,0,0,0,.546-1.862l.563-4.556Z"
                 transform="translate(-585.073 -47.318)" fill="#fff" />
             <path id="Path_625" data-name="Path 625"
                 d="M1049.28,91.661a3.159,3.159,0,0,0,1.093-.179,1.787,1.787,0,0,0,.78-.53,1.241,1.241,0,0,0,.292-.817,1.161,1.161,0,0,0-.06-.379.886.886,0,0,0-.211-.33q-.151-.157-.281-.271a1.99,1.99,0,0,0-.417-.254l-.466-.227q-.178-.087-.557-.249c-.13-.058-.231-.1-.3-.13a8.789,8.789,0,0,1-1.017-.525,4.948,4.948,0,0,1-.817-.628,2.443,2.443,0,0,1-.584-.838,2.65,2.65,0,0,1-.2-1.039,2.838,2.838,0,0,1,.492-1.64,3.178,3.178,0,0,1,1.3-1.1,4.121,4.121,0,0,1,1.764-.379,5.467,5.467,0,0,1,1.25.141,4.369,4.369,0,0,1,1.185.476,4.16,4.16,0,0,1,1.039.844l-1.169,1.2a2.939,2.939,0,0,0-2.348-1.126,2.082,2.082,0,0,0-.877.179,1.5,1.5,0,0,0-.622.514,1.333,1.333,0,0,0-.233.779,1.012,1.012,0,0,0,.1.449,1.482,1.482,0,0,0,.266.379,2.578,2.578,0,0,0,.433.346q.27.178.514.309t.612.3c.029.014.076.036.141.065q.292.13.444.2t.433.211a4.447,4.447,0,0,1,.439.243q.157.1.4.265a2.418,2.418,0,0,1,.373.3q.135.141.3.341a1.735,1.735,0,0,1,.249.4,2.792,2.792,0,0,1,.146.444,2.2,2.2,0,0,1,.059.515,3.054,3.054,0,0,1-.509,1.813,3.09,3.09,0,0,1-1.4,1.115,5.306,5.306,0,0,1-2.03.362,5.231,5.231,0,0,1-2.192-.46,4.169,4.169,0,0,1-1.629-1.272l1.169-1.169a3.312,3.312,0,0,0,2.652,1.342"
                 transform="translate(-599.804 -47.13)" fill="#fff" />
             <path id="Path_626" data-name="Path 626"
                 d="M1074.1,87.421a4.6,4.6,0,0,1-2.576.757,1.958,1.958,0,0,1-1.8-.822,3.425,3.425,0,0,1-.346-2.262l.779-6.321h-1.212l.184-1.526h1.212l.444-3.539,1.8-.346-.476,3.886h3.063l-.184,1.526h-3.063l-.736,6.039a2.322,2.322,0,0,0,.108,1.25.8.8,0,0,0,.79.417,3.428,3.428,0,0,0,1.764-.639Z"
                 transform="translate(-613.278 -42.089)" fill="#fff" />
         </g>
     </g>
 </svg>
