<?xml version="1.0" encoding="utf-8"?>
<!-- Generator: Adobe Illustrator 27.4.1, SVG Export Plug-In . SVG Version: 6.00 Build 0)  -->
<svg version="1.1" id="Layer_1" xmlns="http://www.w3.org/2000/svg" xmlns:xlink="http://www.w3.org/1999/xlink" x="0px" y="0px"
	 viewBox="0 0 282 72.2" style="enable-background:new 0 0 282 72.2;" xml:space="preserve">
<style type="text/css">
	.st0{fill:none;}
	.st1{fill:#112E51;}
	.st2{fill:#F62F56;}
	.st3{fill:#B7D8FF;}
	.st4{fill:#FFFFFF;}
</style>
<g>
	<g>
		<path class="st0" d="M45.2,6c0.8,0.2,1.6-0.2,1.9-1c0.2-0.8-0.2-1.6-1-1.9c-0.8-0.2-1.6,0.2-1.9,1C43.9,4.9,44.4,5.7,45.2,6z"/>
		<path class="st0" d="M53.3,39.5c0-4.6-3.7-8.3-8.3-8.3c-0.2,0-0.4,0-0.7,0c0.3,7,3.1,13.5,4.3,15.8C51.4,45.7,53.3,42.8,53.3,39.5
			z"/>
		<path class="st1" d="M34.7,19.5c0.3-0.1,0.6-0.1,0.9-0.2C35.3,19.4,35,19.4,34.7,19.5z"/>
		<path class="st1" d="M33.3,19.8c0.3-0.1,0.5-0.1,0.8-0.2C33.9,19.7,33.6,19.7,33.3,19.8z"/>
		<path class="st1" d="M36.1,19.2c0.5-0.1,1-0.2,1.5-0.2C37.1,19.1,36.6,19.1,36.1,19.2z"/>
		<path class="st1" d="M32,20.1c0.2-0.1,0.5-0.1,0.7-0.2C32.5,20,32.3,20,32,20.1z"/>
		<path class="st1" d="M26.9,22c0.1,0,0.1-0.1,0.2-0.1C27,21.9,26.9,22,26.9,22z"/>
		<path class="st1" d="M28.7,21.2c0.2-0.1,0.3-0.1,0.5-0.2C29,21.1,28.8,21.1,28.7,21.2z"/>
		<path class="st1" d="M30.8,20.4c0.2-0.1,0.4-0.1,0.6-0.2C31.2,20.3,31,20.4,30.8,20.4z"/>
		<path class="st1" d="M29.7,20.8c0.2-0.1,0.4-0.1,0.5-0.2C30.1,20.7,29.9,20.7,29.7,20.8z"/>
		<path class="st1" d="M36.7,39.5c0,4.6,3.7,8.3,8.3,8.3c1.3,0,2.5-0.3,3.6-0.8c-1.1-2.3-4-8.8-4.3-15.8
			C40,31.6,36.7,35.2,36.7,39.5z"/>
		<path class="st1" d="M27.7,21.6c0.1-0.1,0.2-0.1,0.4-0.2C27.9,21.5,27.8,21.6,27.7,21.6z"/>
		<path class="st2" d="M57.7,27.1c-2.6-2.7-6.1-4.5-9.9-5.1c-0.6-0.1-1.2-0.2-1.8-0.2c0.2,0.2,0.5,0.4,0.7,0.7
			c0.4,0.5,0.7,1.4,1.2,2.9c0.8,2.4-2,2.5-3.7,0.4c-0.8-0.8-1.4-2.2-3.3-2.4c-3.3-0.2-6,1.6-6.6,2c-4.3,3.2-7,8.4-7,14.2
			C27.2,51.9,45,70.8,45,70.8l0,0c0,0,17.8-18.9,17.8-31.3C62.7,34.7,60.8,30.3,57.7,27.1z M48.6,47c-1.1,0.5-2.3,0.8-3.6,0.8
			c-4.6,0-8.3-3.7-8.3-8.3c0-4.4,3.4-7.9,7.7-8.3c0.2,0,0.4,0,0.7,0c4.6,0,8.3,3.7,8.3,8.3C53.3,42.8,51.4,45.7,48.6,47z"/>
		<path class="st1" d="M28.1,21.4c0.2-0.1,0.4-0.2,0.6-0.2C28.5,21.3,28.3,21.4,28.1,21.4z"/>
		<path class="st1" d="M30.2,20.6c0.2-0.1,0.4-0.1,0.6-0.2C30.6,20.5,30.4,20.6,30.2,20.6z"/>
		<path class="st1" d="M29.1,21c0.2-0.1,0.4-0.1,0.6-0.2C29.5,20.9,29.3,21,29.1,21z"/>
		<path class="st1" d="M34.1,19.6c0.2,0,0.4-0.1,0.6-0.1C34.5,19.5,34.3,19.6,34.1,19.6z"/>
		<path class="st1" d="M27.1,21.9c0.2-0.1,0.4-0.2,0.6-0.3C27.5,21.7,27.3,21.8,27.1,21.9z"/>
		<path class="st1" d="M35.6,19.3c0.2,0,0.3-0.1,0.5-0.1C36,19.3,35.8,19.3,35.6,19.3z"/>
		<path class="st1" d="M32.7,19.9c0.2,0,0.4-0.1,0.6-0.1C33.1,19.8,32.9,19.9,32.7,19.9z"/>
		<path class="st1" d="M31.5,20.3c0.2-0.1,0.4-0.1,0.6-0.2C31.8,20.1,31.6,20.2,31.5,20.3z"/>
		<path class="st1" d="M46,21.8C45.9,21.8,45.9,21.8,46,21.8C45.9,21.8,45.9,21.8,46,21.8C45.9,21.8,45.9,21.8,46,21.8z"/>
		<g>
			<path class="st1" d="M54.1,22.1c-2.4-0.9-4.5-0.8-6.3-0.1c3.9,0.6,7.3,2.5,9.9,5.1C57.7,25.6,56.7,23.1,54.1,22.1z"/>
			<path class="st1" d="M46.6,22.5c-0.2-0.3-0.4-0.5-0.7-0.7c0,0,0,0,0,0c0,0,0,0,0,0c0.7-1.7,1.8-3.3,3.1-4.8
				c0.4-0.4,0.7-0.8,1-1.2c5.8-5.5,8.1-12.2,7.3-13.4c-0.9-1.3-10.8-4.2-18.9,0.2C38.3,2.9,38,3,37.8,3.1l-1.1-0.5L30.3,0
				c0,0-3.8,4.3-0.3,8.3c0.9,1,1.9,1.8,3,2.3c-1.3-0.1-2.3-0.4-3.2-0.8c-2.1,2.6-4.4,6.5-6.4,11.9c2.7-1.4,6.4-2.5,11.4-2.9
				c1.2-0.1,2.4-0.1,3.5,0.1c-0.2,0-0.3,0-0.5,0c-0.5,0.1-1,0.1-1.5,0.2c-0.2,0-0.3,0.1-0.5,0.1c-0.3,0.1-0.6,0.1-0.9,0.2
				c-0.2,0-0.4,0.1-0.6,0.1c-0.3,0.1-0.5,0.1-0.8,0.2c-0.2,0-0.4,0.1-0.6,0.1C32.5,20,32.3,20,32,20.1c-0.2,0.1-0.4,0.1-0.6,0.2
				c-0.2,0.1-0.4,0.1-0.6,0.2c-0.2,0.1-0.4,0.1-0.6,0.2c-0.2,0.1-0.4,0.1-0.5,0.2c-0.2,0.1-0.4,0.1-0.6,0.2
				c-0.2,0.1-0.3,0.1-0.5,0.2c-0.2,0.1-0.4,0.2-0.6,0.2c-0.1,0.1-0.2,0.1-0.4,0.2c-0.2,0.1-0.4,0.2-0.6,0.3c-0.1,0-0.1,0.1-0.2,0.1
				c-0.2,0.1-0.5,0.2-0.7,0.4c0,0-0.1,0.1-0.1,0.1c-0.2,0.1-0.4,0.2-0.5,0.3c-0.1,0-0.1,0.1-0.2,0.1C25.1,23,25,23,24.8,23.1
				c-0.1,0.1-0.2,0.1-0.2,0.2c-0.1,0.1-0.2,0.2-0.3,0.2c-0.1,0.1-0.2,0.1-0.3,0.2c-0.1,0.1-0.2,0.1-0.3,0.2
				c-0.1,0.1-0.2,0.1-0.3,0.2c-0.1,0.1-0.2,0.1-0.2,0.2c-0.1,0.1-0.2,0.2-0.3,0.2c-0.1,0.1-0.1,0.1-0.2,0.2
				c-0.1,0.1-0.2,0.2-0.3,0.2c-0.1,0.1-0.1,0.1-0.2,0.2c0,0-0.1,0.1-0.1,0.1c0,0,0,0,0,0c-3.3,3.4-3.6,7.2-2.7,9.8
				c0.1,0.3,0.2,0.5,0.3,0.7h0c1.6,3.6-3.9,12-3.9,17.7c0,2.5,0.4,4.6,1.1,6.5l0,0c0.9,2.5-2.9,0.6-6.6-3.2
				c-2.2-2.1-3.9-4.7-4.8-7.7c-3-9.6,1.8-15.8,7.5-23.1c2.9-3.8,5.8-8,6.5-13c0.5-3.9-1.1-8.4-4.9-10.2c-3-1.5-6.8-0.9-9.4,1.1
				C2.6,5.8,1,8.9,0.5,11.9c-0.1,0.5,0.2,1,0.7,1.1c0.5,0.1,1-0.2,1.1-0.7c0.9-4,4-7.8,8.3-7.8c4.2-0.1,6.5,4.4,5.8,8.2
				c-1.3,6.6-6.9,11.2-10.8,16.5c-4.9,6-7,13.7-4.8,21.3c0.8,3.1,2.3,6.1,4.4,8.6c1.2,1.4,2.5,2.8,3.9,4c6.2,5.5,18.9,9.9,29.4,9
				c0.1,0,0.3,0,0.4,0c0.1,0,0.2,0,0.3,0c1.8-0.2,3.8-0.6,5.7-1.2c0,0,0,0,0,0c0,0-17.8-18.9-17.8-31.3c0-5.8,2.8-10.9,7-14.2
				c0.5-0.4,3.3-2.2,6.6-2c1.8,0.3,2.5,1.6,3.3,2.4c1.8,2.1,4.5,2.1,3.7-0.4C47.4,23.9,47,23.1,46.6,22.5z M45.2,6
				c-0.8-0.2-1.2-1.1-1-1.9c0.2-0.8,1.1-1.2,1.9-1c0.8,0.2,1.2,1.1,1,1.9C46.8,5.7,46,6.2,45.2,6z"/>
		</g>
	</g>
	<path class="st3" d="M59.6,3c-0.7,8.2-6.4,13.4-8,14.9c-0.2,0.2-0.3,0.4-0.5,0.6c1.1,0.1,2.3,0.4,3.4,0.8c3.2,1.3,5,4.1,5.4,6.5
		c3.3,3.8,5.2,8.6,5.2,13.7c0,12.2-14.8,29.1-18,32.7h218.6L282,3H59.6z"/>
	<path class="st2" d="M64.3,44.6c-3,11.4-14.5,24.5-17.2,27.6H219l7.5-27.6H64.3z"/>
	<g>
		<path class="st1" d="M86.7,18.6c0.6,0.5,1.1,1.1,1.4,1.9c0.3,0.8,0.5,1.7,0.5,2.7c0,1.2-0.2,2.3-0.5,3.3c-0.3,1-0.8,1.9-1.3,2.6
			c-0.6,0.7-1.2,1.2-1.9,1.6c-0.7,0.4-1.5,0.6-2.3,0.6c-1.1,0-2.1-0.3-2.8-0.8l-0.1,0l-0.7,5.7h-4.5l2.2-18.1h4.5l-0.2,1.7H81
			c0.4-0.6,1-1.1,1.6-1.5c0.6-0.4,1.3-0.5,2-0.5C85.3,17.9,86.1,18.1,86.7,18.6z M82.6,27c0.4-0.2,0.6-0.5,0.8-0.9
			c0.2-0.4,0.4-0.8,0.5-1.2s0.2-0.8,0.2-1.2c0-0.5-0.1-1-0.3-1.3c-0.2-0.3-0.5-0.5-0.9-0.5c-0.7,0-1.3,0.4-1.8,1.3
			c-0.6,0.9-1,2-1.1,3.6v0l0,0.1c0.2,0.2,0.4,0.4,0.7,0.5c0.2,0.1,0.5,0.1,0.9,0.1C81.9,27.3,82.3,27.2,82.6,27z"/>
		<path class="st1" d="M97.7,26.5l3.3,1.8c-1.3,2-3.2,3.1-5.7,3.1c-1.7,0-3.1-0.5-4.1-1.5c-1-1-1.4-2.3-1.4-4.1
			c0-0.8,0.1-1.6,0.3-2.4c0.2-0.8,0.5-1.5,0.9-2.2c0.4-0.7,0.9-1.2,1.5-1.7c0.6-0.5,1.3-0.9,2-1.2c0.8-0.3,1.6-0.4,2.5-0.4
			c0.4,0,0.9,0,1.3,0.1c0.4,0.1,0.8,0.2,1.2,0.4c0.4,0.2,0.7,0.4,1,0.7c0.3,0.3,0.5,0.6,0.7,1.1c0.2,0.4,0.3,0.9,0.3,1.4
			c0,0.6-0.1,1.1-0.4,1.6c-0.3,0.5-0.6,0.9-1.1,1.3c-0.5,0.4-1,0.7-1.6,1c-0.6,0.3-1.3,0.5-2,0.7c-0.7,0.2-1.4,0.3-2.2,0.5l0,0
			c0.1,0.4,0.4,0.6,0.6,0.8c0.3,0.2,0.6,0.3,0.9,0.3C96.4,27.7,97.1,27.3,97.7,26.5z M95.1,22.2c-0.4,0.5-0.8,1.1-1,1.9
			c2.1-0.4,3.1-1.1,3.1-2c0-0.2-0.1-0.3-0.2-0.4c-0.1-0.1-0.3-0.2-0.5-0.2C96,21.5,95.5,21.7,95.1,22.2z"/>
		<path class="st1" d="M105.2,27.7c0.6,0.3,1.1,0.4,1.6,0.4c0.1,0,0.2,0,0.3,0c0.1,0,0.2,0,0.2-0.1c0.1,0,0.1-0.1,0.1-0.1
			c0-0.1,0.1-0.1,0.1-0.2c0-0.2-0.1-0.3-0.3-0.4c-0.2-0.1-0.7-0.4-1.5-0.9c-1.1-0.6-1.9-1.2-2.4-1.8c-0.5-0.6-0.7-1.3-0.7-2.2
			c0-0.9,0.2-1.7,0.7-2.4c0.4-0.7,1-1.2,1.8-1.6c0.7-0.4,1.6-0.6,2.5-0.6c0.9,0,1.8,0.2,2.6,0.6s1.5,0.9,2.1,1.6l-2.6,2.4
			c-0.3-0.5-0.6-0.8-1-1c-0.4-0.2-0.7-0.3-1-0.3c-0.2,0-0.4,0-0.6,0.1c-0.2,0.1-0.2,0.2-0.2,0.4c0,0.1,0.1,0.3,0.4,0.5
			c0.3,0.2,0.7,0.4,1.3,0.7c0.5,0.2,0.9,0.5,1.2,0.7c0.3,0.2,0.6,0.4,0.9,0.7s0.5,0.5,0.7,0.8c0.2,0.3,0.3,0.6,0.4,0.9
			c0.1,0.3,0.1,0.7,0.1,1.1c0,1.2-0.5,2.3-1.4,3c-0.9,0.8-2.2,1.2-3.8,1.2c-1,0-1.9-0.2-2.9-0.6c-1-0.4-1.7-0.9-2.3-1.6l2.4-2.5
			C104.1,27,104.6,27.4,105.2,27.7z"/>
		<path class="st1" d="M120.8,30.4c-1.2,0.6-2.4,0.9-3.6,0.9c-0.3,0-0.6,0-0.9-0.1c-0.3-0.1-0.6-0.2-0.8-0.3
			c-0.3-0.1-0.5-0.3-0.7-0.5c-0.2-0.2-0.4-0.5-0.5-0.8c-0.1-0.3-0.2-0.7-0.3-1.1c0-0.4,0-0.9,0-1.5l0.6-5.3h-1.2l0.4-3.6h1.3
			l0.5-3.6l4.6-0.9l-0.6,4.5h2.4l-0.4,3.6h-2.4l-0.6,4.8c0,0.3,0,0.5,0.1,0.6c0.1,0.1,0.2,0.2,0.4,0.2c0.3,0,0.6-0.1,1-0.3
			L120.8,30.4z"/>
		<path class="st1" d="M126.5,27.7c0.6,0.3,1.1,0.4,1.6,0.4c0.1,0,0.2,0,0.3,0c0.1,0,0.2,0,0.2-0.1c0.1,0,0.1-0.1,0.1-0.1
			c0-0.1,0.1-0.1,0.1-0.2c0-0.2-0.1-0.3-0.3-0.4c-0.2-0.1-0.7-0.4-1.5-0.9c-1.1-0.6-1.9-1.2-2.4-1.8c-0.5-0.6-0.7-1.3-0.7-2.2
			c0-0.9,0.2-1.7,0.7-2.4c0.4-0.7,1-1.2,1.8-1.6c0.7-0.4,1.6-0.6,2.5-0.6c0.9,0,1.8,0.2,2.6,0.6s1.5,0.9,2.1,1.6l-2.6,2.4
			c-0.3-0.5-0.6-0.8-1-1c-0.4-0.2-0.7-0.3-1-0.3c-0.2,0-0.4,0-0.6,0.1c-0.2,0.1-0.2,0.2-0.2,0.4c0,0.1,0.1,0.3,0.4,0.5
			c0.3,0.2,0.7,0.4,1.3,0.7c0.5,0.2,0.9,0.5,1.2,0.7c0.3,0.2,0.6,0.4,0.9,0.7c0.3,0.2,0.5,0.5,0.7,0.8c0.2,0.3,0.3,0.6,0.4,0.9
			c0.1,0.3,0.1,0.7,0.1,1.1c0,1.2-0.5,2.3-1.4,3c-0.9,0.8-2.2,1.2-3.8,1.2c-1,0-1.9-0.2-2.9-0.6c-1-0.4-1.7-0.9-2.3-1.6l2.4-2.5
			C125.5,27,125.9,27.4,126.5,27.7z"/>
		<path class="st1" d="M138.7,27c0.4,0.5,0.7,1,0.7,1.8c0,0.7-0.2,1.4-0.7,1.8c-0.5,0.5-1.1,0.7-1.9,0.7c-0.8,0-1.4-0.2-1.8-0.7
			c-0.4-0.5-0.7-1.1-0.7-1.8c0-0.7,0.2-1.3,0.7-1.8c0.5-0.5,1.1-0.7,1.9-0.7C137.7,26.4,138.3,26.6,138.7,27z"/>
		<path class="st1" d="M152.4,19.3c1,1,1.5,2.4,1.5,4.1c0,0.8-0.1,1.6-0.3,2.4c-0.2,0.8-0.4,1.5-0.8,2.1c-0.4,0.7-0.9,1.2-1.4,1.7
			c-0.6,0.5-1.3,0.9-2.1,1.2c-0.8,0.3-1.7,0.4-2.8,0.4c-1.6,0-3-0.5-4-1.5c-1-1-1.5-2.4-1.5-4.1c0-0.8,0.1-1.6,0.3-2.4
			c0.2-0.8,0.5-1.5,0.9-2.1c0.4-0.7,0.9-1.2,1.5-1.7c0.6-0.5,1.2-0.9,2-1.2c0.8-0.3,1.6-0.4,2.6-0.4
			C150.1,17.9,151.4,18.4,152.4,19.3z M147,22.2c-0.3,0.2-0.5,0.5-0.7,0.9c-0.2,0.4-0.3,0.7-0.4,1.2c-0.1,0.4-0.2,0.9-0.2,1.3
			c0,0.3,0,0.6,0.1,0.9c0.1,0.2,0.2,0.4,0.4,0.6c0.1,0.1,0.3,0.2,0.4,0.3c0.1,0.1,0.3,0.1,0.4,0.1c0.5,0,0.9-0.2,1.2-0.5
			c0.4-0.4,0.6-0.8,0.8-1.3c0.2-0.5,0.3-1.1,0.3-1.7c0-0.4,0-0.7-0.1-1c-0.1-0.3-0.2-0.5-0.4-0.6c-0.2-0.1-0.3-0.2-0.4-0.3
			c-0.1-0.1-0.3-0.1-0.4-0.1C147.6,21.9,147.3,22,147,22.2z"/>
		<path class="st1" d="M164.3,17.9l-0.6,4.9c-0.3-0.2-0.6-0.2-1-0.3c-0.3,0-0.6,0.1-0.9,0.2c-0.3,0.2-0.5,0.4-0.8,0.7
			c-0.2,0.3-0.4,0.7-0.6,1.2c-0.2,0.5-0.3,1-0.4,1.7l-0.6,4.7h-4.5l1.6-12.9h4.5l-0.2,1.5h0C161.8,18.4,163,17.9,164.3,17.9z"/>
		<path class="st1" d="M177.6,18.1l-1.4,11.2c-0.6,4.8-3.1,7.2-7.6,7.2c-1.9,0-3.5-0.4-4.9-1.2l1.4-3.4c1,0.6,2.1,0.9,3.2,0.9
			c0.4,0,0.7,0,1-0.1c0.3-0.1,0.6-0.2,0.8-0.3c0.3-0.2,0.5-0.4,0.7-0.7c0.2-0.3,0.4-0.6,0.5-1.1c0.2-0.5,0.3-1,0.4-1.7h0
			c-0.9,1.3-2.1,1.9-3.5,1.9c-0.6,0-1.2-0.1-1.8-0.4c-0.5-0.3-1-0.6-1.3-1.1c-0.3-0.5-0.6-1-0.8-1.6s-0.3-1.2-0.3-1.9
			c0-1.2,0.2-2.3,0.5-3.3c0.3-1,0.8-1.9,1.3-2.6c0.6-0.7,1.2-1.2,1.9-1.6c0.7-0.4,1.5-0.6,2.2-0.6c1.2,0,2.1,0.3,2.8,1h0.1l0.1-0.8
			H177.6z M171.6,25.8c0.5-0.8,0.9-1.8,1.1-3.1l0-0.1c-0.2-0.2-0.5-0.4-0.7-0.5c-0.3-0.1-0.6-0.2-0.9-0.2c-0.5,0-0.9,0.2-1.3,0.6
			c-0.4,0.4-0.7,0.9-0.8,1.4c-0.2,0.5-0.3,1-0.3,1.5c0,0.5,0.1,0.9,0.3,1.1c0.2,0.3,0.5,0.4,0.9,0.4
			C170.5,26.9,171.1,26.5,171.6,25.8z"/>
		<path class="st1" d="M182.8,27c0.4,0.5,0.7,1,0.7,1.8c0,0.7-0.2,1.4-0.7,1.8c-0.5,0.5-1.1,0.7-1.9,0.7c-0.8,0-1.4-0.2-1.8-0.7
			c-0.4-0.5-0.7-1.1-0.7-1.8c0-0.7,0.2-1.3,0.7-1.8c0.5-0.5,1.1-0.7,1.9-0.7C181.8,26.4,182.4,26.6,182.8,27z"/>
		<path class="st1" d="M198.4,18.1L196.8,31h-4.5l0.2-1.6h-0.1c-1,1.3-2.2,1.9-3.6,1.9c-0.5,0-0.9-0.1-1.3-0.2
			c-0.4-0.1-0.7-0.3-1-0.5c-0.3-0.2-0.5-0.6-0.7-1c-0.2-0.4-0.3-0.9-0.3-1.4c-0.1-0.6,0-1.2,0.1-2l1-8.1h4.5l-0.8,6.4
			c0,0.4-0.1,0.7-0.1,0.9c0,0.2,0,0.5,0,0.7c0,0.2,0,0.4,0,0.5c0,0.1,0.1,0.2,0.1,0.3c0.1,0.1,0.1,0.2,0.2,0.2
			c0.1,0,0.2,0.1,0.3,0.1c0.3,0,0.6-0.2,1-0.5c0.3-0.3,0.6-0.7,0.9-1.2c0.2-0.5,0.4-0.9,0.4-1.3l0.8-6.2H198.4z"/>
		<path class="st1" d="M209.1,26.3c0.1,0.3,0.3,0.5,0.4,0.6c0.1,0.2,0.3,0.3,0.5,0.4c0.2,0.1,0.4,0.1,0.6,0.2c0.2,0,0.4,0,0.7,0.1
			l-0.9,3.7c-0.3,0-0.8,0-1.4,0c-1,0-1.7-0.3-2.3-1c-0.6-0.6-1.1-1.5-1.4-2.6l-0.2-0.6h-0.1c-0.4,0.2-0.7,0.3-0.9,0.4l-0.4,3.5h-4.5
			l2.4-19.4h4.5l-1.3,10.9h0c0.8-0.6,1.4-1.2,1.8-1.9c0.4-0.7,0.7-1.5,0.9-2.5h4.7c-0.5,2.6-1.6,4.7-3.5,6.5l0.2,0.8
			C208.9,25.8,209,26.1,209.1,26.3z"/>
	</g>
	<g>
		<path class="st4" d="M78.2,52.3c0.4,0.5,0.7,1.1,0.7,2c0,1.1-0.3,2.1-1,2.7c-0.7,0.7-1.6,1-2.8,1h-1.7l-0.5,3.9h-1.2l1.3-10.3h3.3
			C77.1,51.6,77.8,51.8,78.2,52.3z M77,56.1c0.4-0.5,0.6-1.1,0.6-1.9c0-0.5-0.2-0.9-0.5-1.1c-0.3-0.3-0.7-0.4-1.2-0.4H74l-0.5,4.1
			h1.8C76,56.8,76.6,56.6,77,56.1z"/>
		<path class="st4" d="M83.4,60.7c0.3-0.1,0.6-0.4,0.9-0.7l0.9,0.6c-0.4,0.4-0.8,0.8-1.2,1C83.5,61.9,83,62,82.4,62
			c-0.9,0-1.5-0.3-2-0.8c-0.5-0.5-0.8-1.2-0.8-2.1c0-0.6,0.1-1.1,0.3-1.6c0.2-0.5,0.4-1,0.7-1.4c0.3-0.4,0.7-0.7,1.2-0.9
			c0.5-0.2,1-0.3,1.5-0.3c0.2,0,0.4,0,0.6,0.1s0.4,0.1,0.6,0.2c0.2,0.1,0.4,0.2,0.5,0.3c0.1,0.1,0.3,0.3,0.3,0.5s0.1,0.4,0.1,0.7
			c0,0.3-0.1,0.6-0.2,0.8c-0.1,0.3-0.3,0.5-0.5,0.7c-0.2,0.2-0.5,0.4-0.8,0.5c-0.3,0.2-0.6,0.3-1,0.4c-0.4,0.1-0.7,0.2-1.1,0.3
			c-0.4,0.1-0.7,0.1-1.1,0.2l0,0c0.1,0.5,0.3,0.9,0.6,1.1c0.3,0.3,0.7,0.4,1.1,0.4C82.8,60.9,83.2,60.8,83.4,60.7z M82.6,55.9
			c-0.2,0.1-0.4,0.2-0.6,0.3s-0.4,0.3-0.5,0.5c-0.2,0.2-0.3,0.4-0.4,0.7c-0.1,0.3-0.2,0.6-0.2,0.9l0,0c0.3,0,0.7-0.1,1-0.1
			c0.3-0.1,0.6-0.1,0.9-0.2c0.3-0.1,0.6-0.2,0.8-0.3c0.2-0.1,0.4-0.3,0.5-0.5c0.1-0.2,0.2-0.4,0.2-0.6c0-0.2-0.1-0.3-0.2-0.5
			s-0.2-0.2-0.4-0.3c-0.2,0-0.3-0.1-0.5-0.1C83,55.8,82.8,55.8,82.6,55.9z"/>
		<path class="st4" d="M88.6,61c0.3,0,0.5,0,0.7-0.1s0.4-0.2,0.5-0.3c0.1-0.2,0.2-0.3,0.2-0.5c0-0.1,0-0.2,0-0.2
			c0-0.1-0.1-0.1-0.1-0.2c-0.1-0.1-0.1-0.1-0.2-0.2s-0.1-0.1-0.3-0.2c-0.1-0.1-0.2-0.1-0.3-0.1c-0.1,0-0.2-0.1-0.4-0.2
			c-0.1,0-0.2-0.1-0.2-0.1c-0.3-0.1-0.5-0.2-0.7-0.3c-0.2-0.1-0.4-0.3-0.5-0.4c-0.2-0.2-0.3-0.3-0.4-0.5c-0.1-0.2-0.1-0.4-0.1-0.7
			c0-0.4,0.1-0.8,0.3-1.1c0.2-0.3,0.5-0.6,0.9-0.7c0.4-0.2,0.7-0.2,1.2-0.2c0.3,0,0.6,0,0.8,0.1c0.3,0.1,0.5,0.2,0.8,0.3
			c0.3,0.1,0.5,0.3,0.7,0.6l-0.8,0.8c-0.4-0.5-0.9-0.7-1.5-0.7c-0.2,0-0.4,0-0.6,0.1s-0.3,0.2-0.4,0.3c-0.1,0.1-0.2,0.3-0.2,0.5
			c0,0.1,0,0.2,0.1,0.3c0,0.1,0.1,0.2,0.2,0.2c0.1,0.1,0.2,0.1,0.3,0.2s0.2,0.1,0.3,0.2c0.1,0.1,0.2,0.1,0.4,0.2c0,0,0,0,0.1,0
			c0.1,0.1,0.2,0.1,0.3,0.1c0.1,0,0.2,0.1,0.3,0.1c0.1,0.1,0.2,0.1,0.3,0.2c0.1,0,0.2,0.1,0.3,0.2c0.1,0.1,0.2,0.1,0.2,0.2
			c0.1,0.1,0.1,0.1,0.2,0.2c0.1,0.1,0.1,0.2,0.2,0.3c0,0.1,0.1,0.2,0.1,0.3c0,0.1,0,0.2,0,0.3c0,0.5-0.1,0.9-0.3,1.2
			c-0.2,0.3-0.5,0.6-0.9,0.7c-0.4,0.2-0.8,0.2-1.3,0.2c-0.5,0-1-0.1-1.4-0.3c-0.4-0.2-0.8-0.5-1.1-0.8l0.8-0.8
			C87.3,60.7,87.9,61,88.6,61z"/>
		<path class="st4" d="M96,61.5c-0.5,0.3-1.1,0.5-1.7,0.5c-0.6,0-0.9-0.2-1.2-0.5c-0.2-0.4-0.3-0.9-0.2-1.5l0.5-4.1h-0.8l0.1-1h0.8
			l0.3-2.3l1.2-0.2l-0.3,2.5h2l-0.1,1h-2l-0.5,3.9c0,0.4,0,0.6,0.1,0.8c0.1,0.2,0.3,0.3,0.5,0.3c0.3,0,0.7-0.1,1.2-0.4L96,61.5z"/>
		<path class="st4" d="M106.8,55.5c0.3,0.5,0.4,1.2,0.2,2.2l-0.6,4.2h-1.1l0.6-4.2c0.1-0.5,0.1-0.8,0-1.1c-0.1-0.3-0.2-0.5-0.3-0.6
			s-0.4-0.2-0.6-0.2s-0.6,0.1-0.9,0.3c-0.3,0.2-0.6,0.4-0.8,0.7s-0.5,0.6-0.7,1c-0.2,0.4-0.3,0.8-0.4,1.3l-0.3,2.8h-1.1l1.3-10.7
			h1.1l-0.6,5h0c0.4-0.5,0.8-0.8,1.3-1.1c0.5-0.3,1-0.4,1.5-0.4C106,54.7,106.5,55,106.8,55.5z"/>
		<path class="st4" d="M112.4,60.7c0.3-0.1,0.6-0.4,0.9-0.7l0.9,0.6c-0.4,0.4-0.8,0.8-1.2,1c-0.4,0.2-0.9,0.3-1.5,0.3
			c-0.9,0-1.5-0.3-2-0.8c-0.5-0.5-0.8-1.2-0.8-2.1c0-0.6,0.1-1.1,0.3-1.6c0.2-0.5,0.4-1,0.7-1.4c0.3-0.4,0.7-0.7,1.2-0.9
			c0.5-0.2,1-0.3,1.5-0.3c0.2,0,0.4,0,0.6,0.1c0.2,0,0.4,0.1,0.6,0.2c0.2,0.1,0.4,0.2,0.5,0.3c0.1,0.1,0.3,0.3,0.3,0.5
			s0.1,0.4,0.1,0.7c0,0.3-0.1,0.6-0.2,0.8c-0.1,0.3-0.3,0.5-0.5,0.7c-0.2,0.2-0.5,0.4-0.8,0.5c-0.3,0.2-0.6,0.3-1,0.4
			c-0.4,0.1-0.7,0.2-1.1,0.3c-0.4,0.1-0.7,0.1-1.1,0.2l0,0c0.1,0.5,0.3,0.9,0.6,1.1c0.3,0.3,0.7,0.4,1.1,0.4
			C111.8,60.9,112.1,60.8,112.4,60.7z M111.6,55.9c-0.2,0.1-0.4,0.2-0.6,0.3c-0.2,0.1-0.4,0.3-0.5,0.5c-0.2,0.2-0.3,0.4-0.4,0.7
			c-0.1,0.3-0.2,0.6-0.2,0.9l0,0c0.3,0,0.7-0.1,1-0.1c0.3-0.1,0.6-0.1,0.9-0.2c0.3-0.1,0.6-0.2,0.8-0.3c0.2-0.1,0.4-0.3,0.5-0.5
			c0.1-0.2,0.2-0.4,0.2-0.6c0-0.2-0.1-0.3-0.2-0.5s-0.2-0.2-0.4-0.3c-0.2,0-0.3-0.1-0.5-0.1C112,55.8,111.8,55.8,111.6,55.9z"/>
		<path class="st4" d="M118.1,51.2l-1.3,10.7h-1.1l1.3-10.7H118.1z"/>
		<path class="st4" d="M124.5,55c0.3,0.2,0.5,0.4,0.7,0.6s0.3,0.6,0.4,0.9c0.1,0.3,0.2,0.7,0.2,1.1c0,0.5-0.1,0.9-0.2,1.3
			c-0.1,0.4-0.3,0.8-0.5,1.2c-0.2,0.4-0.5,0.7-0.7,1c-0.3,0.3-0.6,0.5-1,0.7c-0.4,0.2-0.8,0.2-1.2,0.2c-0.9,0-1.5-0.2-2-0.7h0
			l-0.4,3.5h-1.1l1.2-9.9h1.2l-0.2,1.6h0c0.3-0.5,0.7-0.9,1.2-1.2c0.5-0.3,0.9-0.4,1.5-0.4C123.9,54.8,124.2,54.8,124.5,55z
			 M123.5,60.5c0.4-0.3,0.7-0.7,0.9-1.2c0.2-0.5,0.3-1.1,0.3-1.7c0-0.3,0-0.6-0.1-0.8s-0.3-0.5-0.5-0.6s-0.5-0.2-0.8-0.2
			c-0.4,0-0.9,0.2-1.3,0.5c-0.4,0.3-0.7,0.7-1,1.3c-0.3,0.6-0.5,1.2-0.5,1.9v0l-0.1,0.7c0.2,0.3,0.4,0.5,0.7,0.6
			c0.3,0.1,0.7,0.2,1,0.2C122.6,60.9,123.1,60.8,123.5,60.5z"/>
		<path class="st4" d="M136.7,54.8L136,61c-0.1,0.4-0.1,0.8-0.2,1.2c-0.1,0.4-0.2,0.7-0.4,0.9c-0.1,0.3-0.3,0.5-0.5,0.7
			c-0.2,0.2-0.4,0.4-0.6,0.5c-0.2,0.1-0.4,0.2-0.6,0.3c-0.2,0.1-0.5,0.1-0.7,0.2c-0.2,0-0.5,0-0.7,0c-0.8,0-1.6-0.2-2.3-0.6l0.4-1
			c0.7,0.4,1.3,0.6,2,0.6c0.3,0,0.5,0,0.7-0.1c0.2,0,0.4-0.1,0.6-0.3c0.2-0.1,0.4-0.3,0.5-0.5c0.2-0.2,0.3-0.5,0.4-0.8
			c0.1-0.3,0.2-0.8,0.3-1.2l0.1-0.6h0c-0.3,0.5-0.7,0.9-1.1,1.2c-0.4,0.3-0.9,0.5-1.5,0.5c-0.7,0-1.3-0.2-1.6-0.7
			c-0.3-0.5-0.4-1.2-0.3-2.2l0.5-4.3h1.1l-0.5,4.2c0,0.4,0,0.7,0,0.9c0,0.2,0.1,0.4,0.2,0.6c0.1,0.1,0.2,0.2,0.4,0.3
			c0.1,0.1,0.3,0.1,0.5,0.1c0.3,0,0.5-0.1,0.8-0.2c0.3-0.2,0.5-0.4,0.8-0.6c0.2-0.3,0.5-0.6,0.6-1c0.2-0.4,0.3-0.8,0.4-1.2l0.4-3
			H136.7z"/>
		<path class="st4" d="M143.8,55.5c0.5,0.5,0.8,1.2,0.8,2.1c0,0.6-0.1,1.2-0.3,1.7c-0.2,0.5-0.4,1-0.7,1.4c-0.3,0.4-0.7,0.7-1.2,0.9
			c-0.5,0.2-1,0.3-1.6,0.3c-0.9,0-1.6-0.3-2.1-0.8c-0.5-0.5-0.8-1.2-0.8-2.2c0-0.5,0.1-0.9,0.2-1.3c0.1-0.4,0.3-0.8,0.5-1.2
			c0.2-0.4,0.5-0.7,0.8-0.9c0.3-0.3,0.6-0.5,1-0.6c0.4-0.2,0.8-0.2,1.3-0.2C142.6,54.8,143.3,55,143.8,55.5z M140.3,56.2
			c-0.4,0.3-0.7,0.7-0.9,1.1c-0.2,0.5-0.3,1-0.3,1.5c0,0.6,0.2,1.1,0.5,1.5c0.3,0.4,0.7,0.6,1.3,0.6c0.5,0,0.9-0.1,1.3-0.4
			c0.4-0.3,0.7-0.7,0.9-1.1c0.2-0.5,0.3-1,0.3-1.6c0-0.3-0.1-0.6-0.2-0.9c-0.1-0.3-0.2-0.5-0.4-0.6c-0.2-0.1-0.4-0.3-0.6-0.3
			c-0.2-0.1-0.4-0.1-0.7-0.1C141.2,55.8,140.7,56,140.3,56.2z"/>
		<path class="st4" d="M152.4,54.8l-0.9,7h-1.1l0.2-1.4h0c-0.3,0.5-0.7,0.8-1.1,1.1c-0.4,0.3-0.9,0.4-1.4,0.4
			c-0.7,0-1.3-0.2-1.6-0.7c-0.3-0.5-0.4-1.2-0.3-2.2l0.5-4.3h1.1l-0.5,4.2c0,0.4,0,0.7,0,0.9c0,0.2,0.1,0.4,0.2,0.6
			c0.1,0.1,0.2,0.2,0.4,0.3c0.1,0.1,0.3,0.1,0.5,0.1c0.2,0,0.5-0.1,0.8-0.2c0.3-0.2,0.5-0.4,0.8-0.6c0.2-0.3,0.5-0.6,0.6-1
			c0.2-0.4,0.3-0.8,0.4-1.2l0.4-3H152.4z"/>
		<path class="st4" d="M158.8,61.9c-0.2-0.1-0.5-0.1-0.7-0.2c-0.2-0.1-0.4-0.2-0.6-0.4c-0.2-0.2-0.3-0.4-0.4-0.6
			c-0.1-0.2-0.2-0.5-0.3-0.7c-0.1-0.3-0.1-0.6-0.1-0.9c0-0.6,0.1-1.1,0.3-1.6c0.2-0.5,0.4-1,0.7-1.4c0.3-0.4,0.7-0.7,1.2-0.9
			c0.5-0.2,1-0.3,1.6-0.3c0.5,0,1,0.1,1.4,0.3c0.4,0.2,0.8,0.5,1,0.9l-0.9,0.7c-0.2-0.3-0.4-0.5-0.7-0.6c-0.3-0.1-0.6-0.2-0.9-0.2
			c-0.5,0-0.9,0.1-1.3,0.4c-0.4,0.3-0.7,0.7-0.9,1.1c-0.2,0.5-0.3,1-0.3,1.6c0,0.3,0,0.6,0.1,0.9s0.2,0.5,0.4,0.6
			c0.2,0.2,0.3,0.3,0.5,0.4c0.2,0.1,0.4,0.1,0.6,0.1c0.8,0,1.4-0.3,1.9-0.9l0.9,0.6c-0.4,0.4-0.8,0.8-1.3,1c-0.5,0.2-1,0.3-1.6,0.3
			C159.3,62,159,61.9,158.8,61.9z"/>
		<path class="st4" d="M170.6,54.8l-0.9,7h-1.1l0.2-1.6h0c-0.3,0.5-0.7,0.9-1.1,1.3c-0.4,0.3-0.9,0.5-1.4,0.5c-0.3,0-0.6,0-0.9-0.1
			c-0.3-0.1-0.5-0.2-0.7-0.4c-0.2-0.2-0.4-0.4-0.5-0.6c-0.1-0.2-0.2-0.5-0.3-0.8c-0.1-0.3-0.1-0.6-0.1-0.9c0-0.5,0.1-0.9,0.2-1.3
			c0.1-0.4,0.3-0.8,0.5-1.2c0.2-0.4,0.5-0.7,0.7-1c0.3-0.3,0.6-0.5,1-0.7c0.4-0.2,0.8-0.2,1.2-0.2c0.4,0,0.8,0.1,1.1,0.2
			c0.3,0.1,0.6,0.3,0.9,0.6h0l0.1-0.7H170.6z M167.6,60.5c0.4-0.3,0.7-0.7,1-1.2c0.3-0.5,0.5-1.1,0.6-1.7l0.1-1
			c-0.2-0.2-0.3-0.3-0.6-0.4c-0.2-0.1-0.4-0.2-0.7-0.3c-0.2-0.1-0.4-0.1-0.6-0.1c-0.4,0-0.7,0.1-1,0.3s-0.6,0.4-0.8,0.8
			c-0.2,0.3-0.4,0.7-0.5,1.1c-0.1,0.4-0.2,0.8-0.2,1.2c0,0.5,0.1,1,0.4,1.3s0.6,0.5,1.1,0.5C166.8,60.9,167.2,60.8,167.6,60.5z"/>
		<path class="st4" d="M178.1,55.5c0.3,0.5,0.4,1.2,0.2,2.2l-0.6,4.2h-1.1l0.6-4.2c0-0.3,0.1-0.6,0-0.9c0-0.2-0.1-0.4-0.1-0.6
			c-0.1-0.2-0.2-0.3-0.3-0.3c-0.1-0.1-0.3-0.1-0.5-0.1c-0.3,0-0.6,0.1-0.9,0.3c-0.3,0.2-0.6,0.4-0.8,0.7c-0.3,0.3-0.5,0.6-0.7,1
			c-0.2,0.4-0.3,0.8-0.4,1.3l-0.4,2.8h-1.1l0.9-7h1.2l-0.2,1.4h0c0.4-0.5,0.8-0.8,1.3-1.1c0.5-0.3,1-0.4,1.4-0.4
			C177.3,54.7,177.8,55,178.1,55.5z"/>
		<path class="st4" d="M186.4,61.5c-0.5,0.3-1.1,0.5-1.7,0.5c-0.6,0-0.9-0.2-1.2-0.5c-0.2-0.4-0.3-0.9-0.2-1.5l0.5-4.1H183l0.1-1
			h0.8l0.3-2.3l1.2-0.2l-0.3,2.5h2l-0.1,1h-2l-0.5,3.9c0,0.4,0,0.6,0.1,0.8c0.1,0.2,0.3,0.3,0.5,0.3c0.3,0,0.7-0.1,1.2-0.4
			L186.4,61.5z"/>
		<path class="st4" d="M192.1,54.8l-0.2,1.3c-0.5,0-0.9,0.1-1.2,0.3c-0.4,0.2-0.7,0.6-0.9,1c-0.2,0.4-0.4,1-0.5,1.6l-0.4,2.9h-1.1
			l0.9-7h1.2l-0.2,1.5h0C190.4,55.4,191.2,54.8,192.1,54.8z"/>
		<path class="st4" d="M199.1,54.8l-0.9,7h-1.1l0.2-1.4h0c-0.3,0.5-0.7,0.8-1.1,1.1c-0.4,0.3-0.9,0.4-1.4,0.4
			c-0.7,0-1.3-0.2-1.6-0.7s-0.4-1.2-0.3-2.2l0.5-4.3h1.1L194,59c0,0.4,0,0.7,0,0.9s0.1,0.4,0.2,0.6c0.1,0.1,0.2,0.2,0.4,0.3
			c0.1,0.1,0.3,0.1,0.5,0.1c0.2,0,0.5-0.1,0.8-0.2c0.3-0.2,0.5-0.4,0.8-0.6c0.2-0.3,0.5-0.6,0.6-1c0.2-0.4,0.3-0.8,0.4-1.2l0.4-3
			H199.1z"/>
		<path class="st4" d="M202.4,61c0.3,0,0.5,0,0.7-0.1s0.4-0.2,0.5-0.3c0.1-0.2,0.2-0.3,0.2-0.5c0-0.1,0-0.2,0-0.2
			c0-0.1-0.1-0.1-0.1-0.2c-0.1-0.1-0.1-0.1-0.2-0.2s-0.1-0.1-0.3-0.2c-0.1-0.1-0.2-0.1-0.3-0.1c-0.1,0-0.2-0.1-0.4-0.2
			c-0.1,0-0.2-0.1-0.2-0.1c-0.3-0.1-0.5-0.2-0.7-0.3c-0.2-0.1-0.4-0.3-0.5-0.4c-0.2-0.2-0.3-0.3-0.4-0.5c-0.1-0.2-0.1-0.4-0.1-0.7
			c0-0.4,0.1-0.8,0.3-1.1c0.2-0.3,0.5-0.6,0.9-0.7c0.4-0.2,0.7-0.2,1.2-0.2c0.3,0,0.6,0,0.8,0.1c0.3,0.1,0.5,0.2,0.8,0.3
			c0.3,0.1,0.5,0.3,0.7,0.6l-0.8,0.8c-0.4-0.5-0.9-0.7-1.5-0.7c-0.2,0-0.4,0-0.6,0.1s-0.3,0.2-0.4,0.3c-0.1,0.1-0.2,0.3-0.2,0.5
			c0,0.1,0,0.2,0.1,0.3c0,0.1,0.1,0.2,0.2,0.2c0.1,0.1,0.2,0.1,0.3,0.2c0.1,0.1,0.2,0.1,0.3,0.2c0.1,0.1,0.2,0.1,0.4,0.2
			c0,0,0,0,0.1,0c0.1,0.1,0.2,0.1,0.3,0.1c0.1,0,0.2,0.1,0.3,0.1c0.1,0.1,0.2,0.1,0.3,0.2c0.1,0,0.2,0.1,0.3,0.2
			c0.1,0.1,0.2,0.1,0.2,0.2c0.1,0.1,0.1,0.1,0.2,0.2c0.1,0.1,0.1,0.2,0.2,0.3c0,0.1,0.1,0.2,0.1,0.3c0,0.1,0,0.2,0,0.3
			c0,0.5-0.1,0.9-0.3,1.2c-0.2,0.3-0.5,0.6-0.9,0.7c-0.4,0.2-0.8,0.2-1.3,0.2c-0.5,0-1-0.1-1.4-0.3c-0.4-0.2-0.8-0.5-1.1-0.8
			l0.8-0.8C201.2,60.7,201.8,61,202.4,61z"/>
		<path class="st4" d="M209.8,61.5c-0.5,0.3-1.1,0.5-1.7,0.5c-0.6,0-0.9-0.2-1.2-0.5c-0.2-0.4-0.3-0.9-0.2-1.5l0.5-4.1h-0.8l0.1-1
			h0.8l0.3-2.3l1.2-0.2l-0.3,2.5h2l-0.1,1h-2l-0.5,3.9c0,0.4,0,0.6,0.1,0.8c0.1,0.2,0.3,0.3,0.5,0.3c0.3,0,0.7-0.1,1.2-0.4
			L209.8,61.5z"/>
	</g>
</g>
</svg>
