<?xml version="1.0" encoding="utf-8"?>
<!-- Generator: Adobe Illustrator 27.4.1, SVG Export Plug-In . SVG Version: 6.00 Build 0)  -->
<svg version="1.1" id="Layer_1" xmlns="http://www.w3.org/2000/svg" xmlns:xlink="http://www.w3.org/1999/xlink" x="0px" y="0px"
	 viewBox="0 0 493 67.9" style="enable-background:new 0 0 493 67.9;" xml:space="preserve">
<g>
	<g>
		<path class="st0" fill="none" d="M42.8,5.6c0.7,0.2,1.5-0.2,1.7-0.9c0.2-0.7-0.2-1.5-0.9-1.7c-0.7-0.2-1.5,0.2-1.7,0.9
			C41.6,4.6,42,5.4,42.8,5.6z"/>
		<path class="st0" fill="none" d="M50.4,37.2c0-4.3-3.5-7.8-7.8-7.8c-0.2,0-0.4,0-0.6,0c0.3,6.6,2.9,12.7,4,14.8C48.6,43,50.4,40.3,50.4,37.2z"
			/>
		<path class="st1" fill="#112E51" d="M32.9,18.3c0.3-0.1,0.6-0.1,0.9-0.2C33.5,18.2,33.2,18.3,32.9,18.3z"/>
		<path class="st1" fill="#112E51" d="M31.7,18.6c0.2-0.1,0.5-0.1,0.7-0.2C32.2,18.5,31.9,18.5,31.7,18.6z"/>
		<path class="st1" fill="#112E51" d="M34.3,18.1c0.5-0.1,0.9-0.1,1.4-0.2C35.2,17.9,34.8,18,34.3,18.1z"/>
		<path class="st1" fill="#112E51" d="M30.5,18.9c0.2-0.1,0.4-0.1,0.7-0.2C30.9,18.8,30.7,18.8,30.5,18.9z"/>
		<path class="st1" fill="#112E51" d="M25.6,20.7c0.1,0,0.1-0.1,0.2-0.1C25.7,20.6,25.6,20.6,25.6,20.7z"/>
		<path class="st1" fill="#112E51" d="M27.3,19.9c0.1-0.1,0.3-0.1,0.4-0.2C27.5,19.8,27.4,19.9,27.3,19.9z"/>
		<path class="st1" fill="#112E51" d="M29.3,19.2c0.2-0.1,0.4-0.1,0.6-0.2C29.7,19.1,29.5,19.2,29.3,19.2z"/>
		<path class="st1" fill="#112E51" d="M28.2,19.6c0.2-0.1,0.3-0.1,0.5-0.2C28.6,19.4,28.4,19.5,28.2,19.6z"/>
		<path class="st1" fill="#112E51" d="M34.8,37.2c0,4.3,3.5,7.8,7.8,7.8c1.2,0,2.4-0.3,3.4-0.8c-1.1-2.2-3.8-8.3-4-14.8
			C38,29.7,34.8,33.1,34.8,37.2z"/>
		<path class="st1" fill="#112E51" d="M26.4,20.3c0.1-0.1,0.2-0.1,0.3-0.2C26.6,20.2,26.5,20.3,26.4,20.3z"/>
		<path class="st2" fill="#F62F56" d="M54.6,25.5c-2.5-2.5-5.7-4.3-9.3-4.8c-0.6-0.1-1.1-0.1-1.7-0.2c0.2,0.2,0.4,0.4,0.6,0.7
			c0.3,0.5,0.7,1.3,1.1,2.8c0.7,2.3-1.9,2.3-3.5,0.4c-0.7-0.8-1.4-2-3.1-2.3c-3.1-0.2-5.7,1.5-6.2,1.9c-4,3-6.6,7.9-6.6,13.3
			c0,11.6,16.7,29.4,16.7,29.4l0,0c0,0,16.7-17.8,16.7-29.4C59.3,32.6,57.5,28.5,54.6,25.5z M46,44.2c-1,0.5-2.2,0.8-3.4,0.8
			c-4.3,0-7.8-3.5-7.8-7.8c0-4.1,3.2-7.5,7.2-7.8c0.2,0,0.4,0,0.6,0c4.3,0,7.8,3.5,7.8,7.8C50.4,40.3,48.6,43,46,44.2z"/>
		<path class="st1" fill="#112E51" d="M26.7,20.2c0.2-0.1,0.4-0.2,0.6-0.2C27.1,20,26.9,20.1,26.7,20.2z"/>
		<path class="st1" fill="#112E51" d="M28.8,19.4c0.2-0.1,0.4-0.1,0.6-0.2C29.1,19.3,28.9,19.3,28.8,19.4z"/>
		<path class="st1" fill="#112E51" d="M27.7,19.8c0.2-0.1,0.4-0.1,0.6-0.2C28.1,19.6,27.9,19.7,27.7,19.8z"/>
		<path class="st1" fill="#112E51" d="M32.4,18.4c0.2,0,0.4-0.1,0.5-0.1C32.8,18.4,32.6,18.4,32.4,18.4z"/>
		<path class="st1" fill="#112E51" d="M25.8,20.6c0.2-0.1,0.4-0.2,0.6-0.3C26.2,20.4,26,20.5,25.8,20.6z"/>
		<path class="st1" fill="#112E51" d="M33.8,18.2c0.2,0,0.3-0.1,0.5-0.1C34.1,18.1,34,18.1,33.8,18.2z"/>
		<path class="st1" fill="#112E51" d="M31.1,18.7c0.2,0,0.4-0.1,0.6-0.1C31.5,18.6,31.3,18.7,31.1,18.7z"/>
		<path class="st1" fill="#112E51" d="M29.9,19c0.2-0.1,0.4-0.1,0.6-0.2C30.3,18.9,30.1,19,29.9,19z"/>
		<path class="st1" fill="#112E51" d="M43.5,20.5C43.5,20.5,43.5,20.5,43.5,20.5C43.5,20.5,43.5,20.5,43.5,20.5C43.5,20.5,43.5,20.5,43.5,20.5z"/>
		<g>
			<path class="st1" fill="#112E51" d="M51.2,20.8c-2.2-0.9-4.2-0.8-5.9-0.1c3.6,0.6,6.9,2.3,9.3,4.8C54.6,24,53.6,21.7,51.2,20.8z"/>
			<path class="st1" fill="#112E51" d="M44.2,21.2c-0.2-0.3-0.4-0.5-0.6-0.7c0,0,0,0,0,0c0,0,0,0,0,0c0.7-1.6,1.7-3.1,3-4.5
				c0.4-0.4,0.7-0.7,0.9-1.1C52.8,9.8,55,3.4,54.3,2.3c-0.8-1.3-10.1-3.9-17.8,0.2c-0.2,0.1-0.4,0.2-0.7,0.4l-1.1-0.4l-6-2.5
				c0,0-3.5,4-0.3,7.8c0.8,1,1.8,1.7,2.8,2.2c-1.2-0.1-2.2-0.4-3-0.7c-1.9,2.5-4.1,6.1-6,11.2c2.6-1.4,6-2.4,10.7-2.7
				c1.2-0.1,2.2-0.1,3.3,0.1c-0.1,0-0.3,0-0.4,0c-0.5,0.1-1,0.1-1.4,0.2c-0.2,0-0.3,0.1-0.5,0.1c-0.3,0.1-0.6,0.1-0.9,0.2
				c-0.2,0-0.4,0.1-0.5,0.1c-0.3,0.1-0.5,0.1-0.7,0.2c-0.2,0-0.4,0.1-0.6,0.1c-0.2,0.1-0.4,0.1-0.7,0.2c-0.2,0.1-0.4,0.1-0.6,0.2
				c-0.2,0.1-0.4,0.1-0.6,0.2c-0.2,0.1-0.4,0.1-0.6,0.2c-0.2,0.1-0.3,0.1-0.5,0.2c-0.2,0.1-0.4,0.1-0.6,0.2
				c-0.1,0.1-0.3,0.1-0.4,0.2c-0.2,0.1-0.4,0.2-0.6,0.2c-0.1,0-0.2,0.1-0.3,0.2c-0.2,0.1-0.4,0.2-0.6,0.3c-0.1,0-0.1,0.1-0.2,0.1
				c-0.2,0.1-0.5,0.2-0.7,0.3c0,0-0.1,0.1-0.1,0.1c-0.2,0.1-0.3,0.2-0.5,0.3c-0.1,0-0.1,0.1-0.2,0.1c-0.1,0.1-0.3,0.2-0.4,0.2
				c-0.1,0.1-0.2,0.1-0.2,0.2c-0.1,0.1-0.2,0.1-0.3,0.2c-0.1,0.1-0.2,0.1-0.3,0.2c-0.1,0.1-0.2,0.1-0.3,0.2
				c-0.1,0.1-0.2,0.1-0.3,0.2c-0.1,0.1-0.2,0.1-0.2,0.2C22,23,21.9,23,21.8,23.1c-0.1,0.1-0.1,0.1-0.2,0.2c-0.1,0.1-0.2,0.2-0.2,0.2
				c-0.1,0.1-0.1,0.1-0.2,0.2c0,0-0.1,0.1-0.1,0.1c0,0,0,0,0,0C18,27,17.7,30.6,18.6,33c0.1,0.2,0.2,0.5,0.3,0.7h0
				c1.5,3.4-3.7,11.3-3.7,16.7c0,2.4,0.4,4.4,1,6.1l0,0c0.8,2.3-2.8,0.6-6.2-3c-2.1-2-3.7-4.4-4.5-7.2c-2.8-9.1,1.6-14.9,7-21.7
				c2.7-3.6,5.5-7.5,6.1-12.2c0.5-3.7-1.1-7.9-4.6-9.6c-2.8-1.4-6.4-0.8-8.9,1c-2.4,1.8-3.9,4.6-4.4,7.5c-0.1,0.5,0.2,0.9,0.7,1
				c0.5,0.1,0.9-0.2,1.1-0.7c0.8-3.8,3.8-7.4,7.8-7.3c4-0.1,6.1,4.1,5.4,7.7c-1.2,6.2-6.5,10.6-10.1,15.5
				c-4.6,5.7-6.6,12.9-4.5,20.1c0.8,2.9,2.2,5.7,4.1,8c1.1,1.3,2.3,2.6,3.7,3.8c5.8,5.2,17.7,9.3,27.6,8.5c0.1,0,0.3,0,0.4,0
				c0.1,0,0.2,0,0.3,0c1.7-0.2,3.5-0.5,5.4-1.1c0,0,0,0,0,0c0,0-16.7-17.8-16.7-29.4c0-5.4,2.6-10.3,6.6-13.3
				c0.5-0.3,3.1-2.1,6.2-1.9c1.7,0.3,2.4,1.5,3.1,2.3c1.6,2,4.2,1.9,3.5-0.4C44.9,22.5,44.5,21.7,44.2,21.2z M42.8,5.6
				c-0.7-0.2-1.2-1-0.9-1.7c0.2-0.7,1-1.2,1.7-0.9c0.7,0.2,1.2,1,0.9,1.7C44.3,5.4,43.5,5.8,42.8,5.6z"/>
		</g>
	</g>
	<g>
		<polygon class="st0" fill="none" points="250.6,10.7 238.9,60.5 239.2,60.5 250.9,10.7 		"/>
		<polygon class="st2" fill="#F62F56" points="250.9,10.7 239.2,60.5 481.6,60.5 493.3,10.7 		"/>
		<path class="st3" fill="#B7D8FF" d="M54,10.7c-1.9,3.3-4.2,5.4-5.1,6.3c-0.2,0.2-0.3,0.4-0.5,0.6c1.1,0.1,2.1,0.4,3.2,0.8c3,1.2,4.7,3.8,5.1,6.1
			c3.1,3.6,4.8,8.1,4.8,12.9c0,7.4-5.8,16.6-10.7,23.1h188.1l11.7-49.8H54z"/>
	</g>
	<g>
		<path class="st1" fill="#112E51" d="M88,29.1c0.7,0.5,1.2,1.3,1.6,2.2c0.4,0.9,0.5,1.9,0.5,3.1c0,1.3-0.2,2.6-0.6,3.8c-0.4,1.2-0.9,2.1-1.5,2.9
			c-0.6,0.8-1.4,1.4-2.2,1.9s-1.7,0.7-2.6,0.7c-1.3,0-2.4-0.3-3.2-0.9l-0.1,0l-0.8,6.5H74l2.5-20.6h5.1l-0.2,2h0.1
			c0.5-0.7,1.1-1.3,1.8-1.7c0.7-0.4,1.4-0.6,2.2-0.6C86.5,28.3,87.3,28.6,88,29.1z M83.3,38.7c0.4-0.3,0.7-0.6,1-1
			c0.2-0.4,0.4-0.9,0.5-1.3c0.1-0.5,0.2-0.9,0.2-1.4c0-0.6-0.1-1.1-0.4-1.5c-0.3-0.4-0.6-0.6-1-0.6c-0.7,0-1.4,0.5-2.1,1.5
			c-0.7,1-1.1,2.3-1.3,4.1v0l0,0.1c0.3,0.3,0.5,0.4,0.8,0.5c0.3,0.1,0.6,0.1,1,0.1C82.5,39.1,82.9,39,83.3,38.7z"/>
		<path class="st1" fill="#112E51" d="M100.5,38.1l3.7,2c-1.4,2.3-3.6,3.5-6.5,3.5c-2,0-3.5-0.6-4.6-1.7c-1.1-1.1-1.6-2.7-1.6-4.7
			c0-0.9,0.1-1.9,0.4-2.8c0.2-0.9,0.6-1.7,1.1-2.5c0.5-0.7,1-1.4,1.7-2c0.7-0.6,1.4-1,2.3-1.3c0.9-0.3,1.8-0.5,2.8-0.5
			c0.5,0,1,0.1,1.5,0.2c0.5,0.1,0.9,0.3,1.4,0.5c0.4,0.2,0.8,0.5,1.2,0.8c0.3,0.3,0.6,0.7,0.8,1.2c0.2,0.5,0.3,1,0.3,1.6
			c0,0.6-0.2,1.2-0.5,1.8c-0.3,0.6-0.7,1-1.2,1.4c-0.5,0.4-1.1,0.8-1.9,1.1s-1.5,0.6-2.3,0.8c-0.8,0.2-1.6,0.4-2.5,0.5l0,0
			c0.2,0.4,0.4,0.7,0.7,0.9c0.3,0.2,0.6,0.3,1,0.3C99,39.6,99.8,39.1,100.5,38.1z M97.5,33.3c-0.5,0.5-0.9,1.2-1.1,2.1
			c2.4-0.5,3.5-1.2,3.5-2.2c0-0.2-0.1-0.3-0.2-0.5c-0.1-0.1-0.3-0.2-0.5-0.2C98.6,32.5,98,32.7,97.5,33.3z"/>
		<path class="st1" fill="#112E51" d="M109,39.5c0.6,0.3,1.2,0.5,1.8,0.5c0.1,0,0.3,0,0.4,0s0.2-0.1,0.3-0.1c0.1,0,0.1-0.1,0.2-0.2
			c0-0.1,0.1-0.1,0.1-0.2c0-0.2-0.1-0.3-0.3-0.5c-0.2-0.2-0.8-0.5-1.7-1c-1.2-0.7-2.1-1.3-2.7-2c-0.6-0.7-0.9-1.5-0.9-2.5
			c0-1,0.2-1.9,0.7-2.7c0.5-0.8,1.2-1.4,2-1.8c0.8-0.4,1.8-0.6,2.8-0.6c1.1,0,2.1,0.2,3,0.6c0.9,0.4,1.7,1,2.4,1.9l-3,2.8
			c-0.4-0.5-0.7-0.9-1.2-1.1c-0.4-0.2-0.8-0.3-1.1-0.4c-0.2,0-0.4,0-0.6,0.2c-0.2,0.1-0.3,0.3-0.3,0.5c0,0.2,0.1,0.3,0.4,0.5
			c0.3,0.2,0.8,0.5,1.5,0.8c0.5,0.3,1,0.5,1.4,0.8c0.4,0.2,0.7,0.5,1.1,0.8c0.3,0.3,0.6,0.6,0.8,0.9c0.2,0.3,0.3,0.6,0.4,1
			c0.1,0.4,0.2,0.8,0.2,1.3c0,1.4-0.5,2.6-1.6,3.5c-1.1,0.9-2.5,1.3-4.3,1.3c-1.1,0-2.2-0.2-3.3-0.7c-1.1-0.4-2-1.1-2.6-1.9l2.7-2.9
			C107.8,38.8,108.3,39.2,109,39.5z"/>
		<path class="st1" fill="#112E51" d="M126.7,42.6c-1.3,0.7-2.7,1.1-4.1,1.1c-0.4,0-0.7,0-1-0.1c-0.3-0.1-0.6-0.2-1-0.3c-0.3-0.2-0.6-0.4-0.8-0.6
			c-0.2-0.2-0.4-0.6-0.6-0.9c-0.2-0.4-0.3-0.8-0.3-1.3c0-0.5,0-1,0-1.7l0.7-6h-1.4l0.5-4.1h1.4l0.5-4.1l5.2-1l-0.6,5.2h2.8l-0.5,4.1
			h-2.8l-0.6,5.4c0,0.3,0,0.5,0.1,0.7c0.1,0.2,0.2,0.2,0.4,0.2c0.3,0,0.7-0.1,1.2-0.3L126.7,42.6z"/>
		<path class="st1" fill="#112E51" d="M133.3,39.5c0.6,0.3,1.2,0.5,1.8,0.5c0.1,0,0.3,0,0.4,0c0.1,0,0.2-0.1,0.3-0.1c0.1,0,0.1-0.1,0.2-0.2
			c0-0.1,0.1-0.1,0.1-0.2c0-0.2-0.1-0.3-0.3-0.5c-0.2-0.2-0.8-0.5-1.7-1c-1.2-0.7-2.1-1.3-2.7-2c-0.6-0.7-0.8-1.5-0.8-2.5
			c0-1,0.2-1.9,0.7-2.7c0.5-0.8,1.2-1.4,2-1.8c0.8-0.4,1.8-0.6,2.8-0.6c1.1,0,2.1,0.2,3,0.6c0.9,0.4,1.7,1,2.4,1.9l-3,2.8
			c-0.4-0.5-0.7-0.9-1.2-1.1c-0.4-0.2-0.8-0.3-1.2-0.4c-0.2,0-0.4,0-0.6,0.2c-0.2,0.1-0.3,0.3-0.3,0.5c0,0.2,0.1,0.3,0.4,0.5
			c0.3,0.2,0.8,0.5,1.5,0.8c0.5,0.3,1,0.5,1.4,0.8c0.4,0.2,0.7,0.5,1.1,0.8c0.3,0.3,0.6,0.6,0.8,0.9c0.2,0.3,0.3,0.6,0.4,1
			c0.1,0.4,0.2,0.8,0.2,1.3c0,1.4-0.5,2.6-1.6,3.5c-1.1,0.9-2.5,1.3-4.3,1.3c-1.1,0-2.2-0.2-3.3-0.7c-1.1-0.4-2-1.1-2.6-1.9l2.7-2.9
			C132.1,38.8,132.6,39.2,133.3,39.5z"/>
		<path class="st1" fill="#112E51" d="M147.2,38.8c0.5,0.5,0.8,1.2,0.8,2c0,0.8-0.3,1.5-0.8,2.1c-0.5,0.5-1.2,0.8-2.1,0.8c-0.9,0-1.6-0.3-2.1-0.8
			c-0.5-0.5-0.8-1.2-0.8-2c0-0.8,0.3-1.5,0.8-2.1c0.5-0.5,1.2-0.8,2.1-0.8C146,38,146.7,38.3,147.2,38.8z"/>
		<path class="st1" fill="#112E51" d="M162.7,30c1.1,1.1,1.7,2.7,1.7,4.7c0,0.9-0.1,1.9-0.3,2.7s-0.5,1.7-0.9,2.4c-0.4,0.8-1,1.4-1.6,2
			c-0.6,0.6-1.4,1-2.4,1.3c-0.9,0.3-2,0.5-3.1,0.5c-1.9,0-3.4-0.6-4.5-1.7c-1.1-1.1-1.7-2.7-1.7-4.7c0-0.9,0.1-1.9,0.3-2.7
			c0.2-0.9,0.6-1.7,1-2.4c0.5-0.7,1-1.4,1.7-2c0.6-0.6,1.4-1,2.3-1.3c0.9-0.3,1.9-0.5,2.9-0.5C160.1,28.4,161.6,28.9,162.7,30z
			 M156.6,33.3c-0.3,0.2-0.6,0.6-0.8,1c-0.2,0.4-0.4,0.8-0.5,1.3c-0.1,0.5-0.2,1-0.2,1.5c0,0.4,0.1,0.7,0.2,1
			c0.1,0.3,0.2,0.5,0.4,0.6c0.2,0.1,0.3,0.2,0.5,0.3c0.2,0.1,0.3,0.1,0.5,0.1c0.5,0,1-0.2,1.4-0.6c0.4-0.4,0.7-0.9,1-1.5
			s0.3-1.3,0.3-1.9c0-0.4-0.1-0.8-0.2-1.1c-0.1-0.3-0.2-0.5-0.4-0.7c-0.2-0.1-0.3-0.2-0.5-0.3c-0.2-0.1-0.3-0.1-0.5-0.1
			C157.3,32.9,156.9,33,156.6,33.3z"/>
		<path class="st1" fill="#112E51" d="M176.2,28.4l-0.7,5.6c-0.4-0.2-0.7-0.3-1.1-0.3c-0.4,0-0.7,0.1-1,0.3c-0.3,0.2-0.6,0.5-0.9,0.8
			c-0.3,0.3-0.5,0.8-0.7,1.4c-0.2,0.6-0.3,1.2-0.4,1.9l-0.7,5.3h-5.1l1.8-14.7h5.1l-0.2,1.7h0C173.5,29,174.7,28.4,176.2,28.4z"/>
		<path class="st1" fill="#112E51" d="M191.4,28.7l-1.6,12.8c-0.7,5.4-3.5,8.2-8.6,8.2c-2.1,0-4-0.5-5.5-1.4l1.6-3.8c1.2,0.7,2.4,1.1,3.6,1.1
			c0.4,0,0.8,0,1.1-0.1c0.3-0.1,0.6-0.2,1-0.4s0.6-0.4,0.8-0.8c0.2-0.3,0.4-0.7,0.6-1.3c0.2-0.5,0.3-1.2,0.4-1.9h0
			c-1.1,1.5-2.4,2.2-3.9,2.2c-0.7,0-1.4-0.2-2-0.5c-0.6-0.3-1.1-0.7-1.5-1.2c-0.4-0.5-0.7-1.1-0.9-1.8c-0.2-0.7-0.3-1.4-0.3-2.1
			c0-1.3,0.2-2.6,0.6-3.8c0.4-1.2,0.9-2.1,1.5-2.9c0.6-0.8,1.3-1.4,2.2-1.9s1.7-0.7,2.5-0.7c1.4,0,2.4,0.4,3.2,1.2h0.1l0.1-0.9
			H191.4z M184.6,37.3c0.6-0.9,1-2.1,1.3-3.5l0-0.1c-0.3-0.3-0.6-0.5-0.8-0.6c-0.3-0.1-0.6-0.2-1-0.2c-0.5,0-1,0.2-1.4,0.7
			c-0.4,0.5-0.7,1-1,1.6c-0.2,0.6-0.3,1.2-0.3,1.8c0,0.6,0.1,1,0.4,1.3c0.2,0.3,0.6,0.4,1,0.4C183.3,38.7,184,38.2,184.6,37.3z"/>
		<path class="st1" fill="#112E51" d="M197.3,38.8c0.5,0.5,0.8,1.2,0.8,2c0,0.8-0.3,1.5-0.8,2.1c-0.5,0.5-1.2,0.8-2.1,0.8c-0.9,0-1.6-0.3-2.1-0.8
			c-0.5-0.5-0.8-1.2-0.8-2c0-0.8,0.3-1.5,0.8-2.1c0.5-0.5,1.2-0.8,2.1-0.8C196.1,38,196.8,38.3,197.3,38.8z"/>
		<path class="st1" fill="#112E51" d="M215,28.7l-1.8,14.7h-5.1l0.2-1.9h-0.1c-1.1,1.4-2.4,2.2-4.1,2.2c-0.5,0-1-0.1-1.4-0.2
			c-0.4-0.1-0.8-0.3-1.1-0.6c-0.3-0.3-0.6-0.6-0.8-1.1c-0.2-0.4-0.3-1-0.4-1.6c-0.1-0.6-0.1-1.4,0.1-2.3l1.1-9.2h5.1l-0.9,7.3
			c0,0.4-0.1,0.8-0.1,1.1c0,0.3,0,0.5-0.1,0.8c0,0.3,0,0.5,0,0.6c0,0.1,0.1,0.3,0.1,0.4c0.1,0.1,0.2,0.2,0.3,0.2
			c0.1,0,0.2,0.1,0.4,0.1c0.3,0,0.7-0.2,1.1-0.5c0.4-0.4,0.7-0.8,1-1.3c0.3-0.5,0.4-1,0.5-1.5l0.9-7H215z"/>
		<path class="st1" fill="#112E51" d="M227.2,38c0.1,0.3,0.3,0.5,0.4,0.7c0.2,0.2,0.3,0.3,0.5,0.4c0.2,0.1,0.4,0.2,0.6,0.2c0.2,0,0.5,0.1,0.8,0.1
			l-1.1,4.2c-0.4,0-0.9,0-1.6,0c-1.1,0-2-0.4-2.7-1.1c-0.7-0.7-1.2-1.7-1.6-3l-0.2-0.7h-0.1c-0.4,0.2-0.8,0.4-1,0.5l-0.5,4h-5.1
			l2.7-22.1h5.1l-1.5,12.4h0c0.9-0.6,1.5-1.4,2-2.2c0.5-0.8,0.8-1.8,1-2.9h5.3c-0.5,2.9-1.9,5.4-4,7.4l0.2,0.9
			C227,37.3,227.1,37.7,227.2,38z"/>
	</g>
	<g>
		<path class="st4" fill="#FFFFFF" d="M272.4,29.5c0.6,0.7,1,1.6,1,2.8c0,1.7-0.5,3-1.4,3.9c-1,0.9-2.3,1.4-4.1,1.4h-2.5l-0.7,5.7h-1.8l1.8-14.8
			h4.8C270.8,28.6,271.8,28.9,272.4,29.5z M270.6,35.1c0.6-0.7,0.9-1.6,0.9-2.7c0-0.7-0.2-1.2-0.7-1.6c-0.4-0.4-1-0.6-1.8-0.6h-2.8
			l-0.7,5.9h2.5C269.2,36.1,270,35.8,270.6,35.1z"/>
		<path class="st4" fill="#FFFFFF" d="M279.9,41.6c0.4-0.2,0.8-0.5,1.2-0.9l1.3,0.9c-0.6,0.6-1.2,1.1-1.8,1.4c-0.6,0.3-1.3,0.5-2.2,0.5
			c-1.2,0-2.2-0.4-2.9-1.1s-1.1-1.8-1.1-3.1c0-0.8,0.1-1.6,0.4-2.4c0.2-0.7,0.6-1.4,1-2c0.4-0.6,1-1,1.7-1.3
			c0.7-0.3,1.4-0.5,2.2-0.5c0.3,0,0.6,0,0.9,0.1c0.3,0.1,0.6,0.2,0.8,0.3c0.3,0.1,0.5,0.3,0.7,0.5s0.4,0.4,0.5,0.7
			c0.1,0.3,0.2,0.6,0.2,1c0,0.4-0.1,0.8-0.3,1.2c-0.2,0.4-0.4,0.7-0.8,1c-0.3,0.3-0.7,0.5-1.1,0.7s-0.9,0.4-1.4,0.6s-1,0.3-1.5,0.4
			c-0.5,0.1-1.1,0.2-1.6,0.2l0,0c0.1,0.7,0.4,1.2,0.8,1.6c0.4,0.4,1,0.6,1.6,0.6C279,41.9,279.5,41.8,279.9,41.6z M278.7,34.8
			c-0.3,0.1-0.6,0.3-0.9,0.5s-0.5,0.5-0.8,0.7c-0.2,0.3-0.4,0.6-0.6,1c-0.2,0.4-0.3,0.8-0.3,1.3l0,0c0.5-0.1,1-0.1,1.4-0.2
			c0.5-0.1,0.9-0.2,1.4-0.3s0.8-0.3,1.2-0.5s0.6-0.4,0.8-0.7c0.2-0.3,0.3-0.5,0.3-0.8c0-0.3-0.1-0.5-0.2-0.7s-0.4-0.3-0.6-0.4
			c-0.2-0.1-0.5-0.1-0.7-0.1C279.3,34.6,279,34.7,278.7,34.8z"/>
		<path class="st4" fill="#FFFFFF" d="M287.3,42c0.4,0,0.7-0.1,1-0.2c0.3-0.1,0.5-0.3,0.7-0.5c0.2-0.2,0.3-0.5,0.3-0.8c0-0.1,0-0.2-0.1-0.4
			c0-0.1-0.1-0.2-0.2-0.3c-0.1-0.1-0.2-0.2-0.3-0.3s-0.2-0.2-0.4-0.2c-0.2-0.1-0.3-0.2-0.4-0.2c-0.1-0.1-0.3-0.1-0.5-0.2
			c-0.1-0.1-0.2-0.1-0.3-0.1c-0.4-0.2-0.7-0.3-1-0.5c-0.3-0.2-0.5-0.4-0.8-0.6s-0.4-0.5-0.5-0.8c-0.1-0.3-0.2-0.6-0.2-1
			c0-0.6,0.2-1.1,0.5-1.5c0.3-0.5,0.7-0.8,1.2-1s1.1-0.4,1.7-0.4c0.4,0,0.8,0,1.2,0.1s0.7,0.2,1.1,0.4c0.4,0.2,0.7,0.5,1,0.8
			l-1.1,1.1c-0.6-0.7-1.3-1.1-2.2-1.1c-0.3,0-0.6,0.1-0.8,0.2s-0.4,0.3-0.6,0.5c-0.1,0.2-0.2,0.5-0.2,0.7c0,0.1,0,0.3,0.1,0.4
			c0.1,0.1,0.1,0.3,0.2,0.4s0.2,0.2,0.4,0.3s0.3,0.2,0.5,0.3c0.2,0.1,0.3,0.2,0.6,0.3c0,0,0.1,0,0.1,0.1c0.2,0.1,0.3,0.1,0.4,0.2
			c0.1,0,0.2,0.1,0.4,0.2c0.2,0.1,0.3,0.2,0.4,0.2s0.2,0.1,0.4,0.2s0.3,0.2,0.4,0.3c0.1,0.1,0.2,0.2,0.3,0.3
			c0.1,0.1,0.2,0.3,0.2,0.4c0.1,0.1,0.1,0.3,0.1,0.4c0,0.2,0.1,0.3,0.1,0.5c0,0.7-0.2,1.2-0.5,1.7c-0.3,0.5-0.8,0.8-1.3,1
			c-0.6,0.2-1.2,0.3-1.9,0.3c-0.7,0-1.4-0.1-2.1-0.4c-0.6-0.3-1.1-0.7-1.5-1.2l1.1-1.1C285.5,41.6,286.3,42,287.3,42z"/>
		<path class="st4" fill="#FFFFFF" d="M297.9,42.8c-0.7,0.5-1.5,0.7-2.4,0.7c-0.8,0-1.4-0.3-1.7-0.8c-0.3-0.5-0.4-1.2-0.3-2.1l0.7-5.9h-1.1l0.2-1.4
			h1.1l0.4-3.3l1.7-0.3l-0.4,3.6h2.9l-0.2,1.4h-2.9l-0.7,5.7c-0.1,0.5,0,0.9,0.1,1.2c0.1,0.3,0.4,0.4,0.7,0.4c0.5,0,1-0.2,1.7-0.6
			L297.9,42.8z"/>
		<path class="st4" fill="#FFFFFF" d="M313.5,34.1c0.4,0.7,0.5,1.7,0.3,3.1l-0.8,6.1h-1.6l0.8-6c0.1-0.7,0.1-1.2,0-1.6c-0.1-0.4-0.2-0.7-0.5-0.9
			s-0.5-0.3-0.9-0.3s-0.8,0.1-1.2,0.4s-0.8,0.6-1.2,1c-0.4,0.4-0.7,0.9-1,1.5c-0.3,0.6-0.5,1.2-0.6,1.8l-0.5,4.1h-1.6l1.9-15.3h1.6
			l-0.9,7.2h0c0.6-0.7,1.2-1.2,1.9-1.6c0.7-0.4,1.4-0.5,2.1-0.5C312.4,33.1,313.1,33.4,313.5,34.1z"/>
		<path class="st4" fill="#FFFFFF" d="M321.6,41.6c0.4-0.2,0.8-0.5,1.2-0.9l1.3,0.9c-0.6,0.6-1.2,1.1-1.8,1.4s-1.3,0.5-2.2,0.5
			c-1.2,0-2.2-0.4-2.9-1.1s-1.1-1.8-1.1-3.1c0-0.8,0.1-1.6,0.4-2.4c0.2-0.7,0.6-1.4,1-2c0.4-0.6,1-1,1.7-1.3
			c0.7-0.3,1.4-0.5,2.2-0.5c0.3,0,0.6,0,0.9,0.1s0.6,0.2,0.8,0.3c0.3,0.1,0.5,0.3,0.7,0.5c0.2,0.2,0.4,0.4,0.5,0.7
			c0.1,0.3,0.2,0.6,0.2,1c0,0.4-0.1,0.8-0.3,1.2c-0.2,0.4-0.4,0.7-0.8,1c-0.3,0.3-0.7,0.5-1.1,0.7s-0.9,0.4-1.4,0.6
			c-0.5,0.2-1,0.3-1.5,0.4c-0.5,0.1-1.1,0.2-1.6,0.2l0,0c0.1,0.7,0.4,1.2,0.8,1.6c0.4,0.4,1,0.6,1.6,0.6
			C320.7,41.9,321.1,41.8,321.6,41.6z M320.3,34.8c-0.3,0.1-0.6,0.3-0.9,0.5s-0.5,0.5-0.8,0.7c-0.2,0.3-0.4,0.6-0.6,1
			c-0.2,0.4-0.3,0.8-0.3,1.3l0,0c0.5-0.1,1-0.1,1.4-0.2s0.9-0.2,1.4-0.3c0.5-0.1,0.8-0.3,1.2-0.5s0.6-0.4,0.8-0.7s0.3-0.5,0.3-0.8
			c0-0.3-0.1-0.5-0.2-0.7s-0.4-0.3-0.6-0.4c-0.2-0.1-0.5-0.1-0.7-0.1C321,34.6,320.7,34.7,320.3,34.8z"/>
		<path class="st4" fill="#FFFFFF" d="M329.7,28l-1.9,15.3h-1.6l1.9-15.3H329.7z"/>
		<path class="st4" fill="#FFFFFF" d="M339,33.4c0.4,0.2,0.8,0.5,1.1,0.9c0.3,0.4,0.5,0.8,0.6,1.3c0.1,0.5,0.2,1,0.2,1.6c0,0.7-0.1,1.3-0.2,1.9
			s-0.4,1.2-0.7,1.7c-0.3,0.5-0.7,1-1.1,1.4s-0.9,0.7-1.4,0.9s-1.1,0.3-1.7,0.3c-1.2,0-2.2-0.3-2.9-1h0l-0.6,5h-1.6l1.7-14.2h1.7
			l-0.3,2.3h0c0.5-0.8,1-1.3,1.7-1.8c0.6-0.4,1.4-0.6,2.1-0.6C338,33.1,338.5,33.2,339,33.4z M337.5,41.3c0.6-0.5,1-1,1.3-1.8
			c0.3-0.7,0.4-1.6,0.4-2.4c0-0.4-0.1-0.9-0.2-1.2c-0.1-0.4-0.4-0.7-0.7-0.9c-0.3-0.2-0.7-0.4-1.1-0.4c-0.6,0-1.2,0.2-1.8,0.7
			c-0.6,0.5-1.1,1.1-1.4,1.9c-0.4,0.8-0.7,1.7-0.8,2.7v0l-0.1,1c0.2,0.4,0.6,0.7,1,0.9c0.5,0.2,1,0.3,1.5,0.3
			C336.2,42,336.9,41.7,337.5,41.3z"/>
		<path class="st4" fill="#FFFFFF" d="M356.6,33.2l-1.1,8.8c-0.1,0.6-0.2,1.2-0.3,1.7c-0.2,0.5-0.3,1-0.5,1.4c-0.2,0.4-0.4,0.7-0.7,1
			c-0.3,0.3-0.5,0.5-0.8,0.7c-0.3,0.2-0.6,0.3-0.9,0.4c-0.3,0.1-0.7,0.2-1,0.2c-0.3,0-0.7,0.1-1,0.1c-1.2,0-2.3-0.3-3.4-0.9l0.5-1.5
			c0.9,0.6,1.9,0.9,2.8,0.9c0.4,0,0.7,0,1-0.1c0.3-0.1,0.6-0.2,0.9-0.4c0.3-0.2,0.6-0.4,0.8-0.7c0.2-0.3,0.4-0.7,0.6-1.2
			c0.2-0.5,0.3-1.1,0.4-1.8l0.1-0.9h-0.1c-0.4,0.7-1,1.3-1.6,1.8c-0.6,0.4-1.3,0.7-2.1,0.7c-1.1,0-1.8-0.3-2.3-1
			c-0.5-0.7-0.6-1.7-0.4-3.1l0.8-6.2h1.6l-0.7,6c0,0.5-0.1,1,0,1.3c0,0.3,0.1,0.6,0.3,0.8c0.1,0.2,0.3,0.4,0.5,0.4
			c0.2,0.1,0.4,0.1,0.7,0.1c0.4,0,0.8-0.1,1.2-0.3c0.4-0.2,0.8-0.5,1.1-0.9s0.7-0.8,0.9-1.4c0.3-0.5,0.4-1.1,0.5-1.7l0.5-4.4H356.6z
			"/>
		<path class="st4" fill="#FFFFFF" d="M366.7,34.2c0.8,0.7,1.1,1.7,1.1,3.1c0,0.9-0.1,1.7-0.4,2.4c-0.2,0.8-0.6,1.4-1,2c-0.4,0.6-1,1-1.7,1.3
			s-1.4,0.5-2.3,0.5c-1.3,0-2.3-0.4-3.1-1.1s-1.1-1.8-1.1-3.1c0-0.7,0.1-1.3,0.2-1.9c0.2-0.6,0.4-1.2,0.7-1.7c0.3-0.5,0.7-1,1.1-1.3
			c0.4-0.4,0.9-0.7,1.5-0.9s1.2-0.3,1.8-0.3C365,33.1,366,33.5,366.7,34.2z M361.7,35.2c-0.6,0.4-1,1-1.3,1.6
			c-0.3,0.7-0.4,1.4-0.4,2.2c0,0.9,0.2,1.6,0.7,2.1s1.1,0.8,1.9,0.8c0.7,0,1.3-0.2,1.9-0.6c0.6-0.4,1-0.9,1.3-1.6
			c0.3-0.7,0.5-1.5,0.5-2.3c0-0.5-0.1-0.9-0.2-1.3c-0.1-0.4-0.3-0.7-0.6-0.9c-0.3-0.2-0.5-0.4-0.8-0.5c-0.3-0.1-0.6-0.1-1-0.1
			C362.9,34.6,362.3,34.8,361.7,35.2z"/>
		<path class="st4" fill="#FFFFFF" d="M379,33.2l-1.2,10.1h-1.6l0.2-2h0c-0.5,0.7-1,1.2-1.6,1.6s-1.3,0.6-2,0.6c-1.1,0-1.8-0.3-2.3-1
			c-0.5-0.7-0.6-1.7-0.4-3.1l0.8-6.2h1.6l-0.7,6c-0.1,0.5-0.1,1,0,1.3c0,0.3,0.1,0.6,0.3,0.8s0.3,0.4,0.5,0.4s0.4,0.1,0.7,0.1
			c0.4,0,0.7-0.1,1.1-0.4c0.4-0.2,0.8-0.5,1.1-0.9c0.3-0.4,0.6-0.9,0.9-1.4c0.3-0.6,0.4-1.1,0.5-1.7l0.5-4.3H379z"/>
		<path class="st4" fill="#FFFFFF" d="M388.3,43.3c-0.3-0.1-0.7-0.2-1-0.4c-0.3-0.2-0.6-0.4-0.8-0.6c-0.2-0.2-0.4-0.5-0.6-0.8
			c-0.2-0.3-0.3-0.7-0.4-1.1c-0.1-0.4-0.1-0.8-0.1-1.3c0-0.8,0.1-1.6,0.4-2.4c0.2-0.7,0.6-1.4,1-2c0.4-0.6,1-1,1.7-1.3
			c0.7-0.3,1.4-0.5,2.2-0.5c0.7,0,1.4,0.1,2.1,0.4c0.6,0.3,1.1,0.7,1.5,1.2l-1.3,1c-0.3-0.4-0.6-0.7-1-0.8s-0.8-0.3-1.3-0.3
			c-0.7,0-1.4,0.2-1.9,0.6c-0.6,0.4-1,0.9-1.3,1.6c-0.3,0.7-0.4,1.4-0.4,2.3c0,0.5,0.1,0.9,0.2,1.2s0.3,0.7,0.5,0.9
			c0.2,0.2,0.5,0.4,0.8,0.5c0.3,0.1,0.6,0.2,0.9,0.2c1.1,0,2-0.4,2.7-1.3l1.3,0.9c-0.6,0.6-1.2,1.1-1.8,1.4
			c-0.7,0.3-1.4,0.5-2.3,0.5C389,43.5,388.6,43.4,388.3,43.3z"/>
		<path class="st4" fill="#FFFFFF" d="M405.3,33.2L404,43.3h-1.6l0.3-2.3h0c-0.5,0.8-1,1.4-1.6,1.8s-1.3,0.7-2,0.7c-0.5,0-0.9-0.1-1.2-0.2
			s-0.7-0.3-1-0.6c-0.3-0.2-0.5-0.5-0.7-0.9c-0.2-0.3-0.3-0.7-0.4-1.1c-0.1-0.4-0.1-0.8-0.1-1.3c0-0.7,0.1-1.3,0.2-1.9
			c0.2-0.6,0.4-1.2,0.7-1.7c0.3-0.5,0.6-1,1.1-1.4c0.4-0.4,0.9-0.7,1.4-0.9c0.5-0.2,1.1-0.3,1.7-0.3c0.6,0,1.1,0.1,1.6,0.3
			c0.5,0.2,0.9,0.4,1.3,0.8h0.1l0.1-0.9H405.3z M400.9,41.4c0.5-0.4,1-1,1.4-1.7c0.4-0.7,0.7-1.6,0.8-2.5l0.2-1.4
			c-0.2-0.2-0.5-0.5-0.8-0.6c-0.3-0.2-0.6-0.3-0.9-0.4c-0.3-0.1-0.6-0.1-0.9-0.1c-0.5,0-1,0.1-1.5,0.4c-0.4,0.3-0.8,0.6-1.1,1.1
			c-0.3,0.5-0.5,1-0.7,1.5s-0.2,1.2-0.2,1.8c0,0.8,0.2,1.4,0.5,1.9c0.4,0.5,0.9,0.7,1.5,0.7C399.8,42,400.4,41.8,400.9,41.4z"/>
		<path class="st4" fill="#FFFFFF" d="M416,34.1c0.4,0.7,0.5,1.7,0.3,3.1l-0.8,6.1h-1.6l0.8-6c0.1-0.5,0.1-0.9,0.1-1.3c0-0.3-0.1-0.6-0.2-0.9
			c-0.1-0.2-0.3-0.4-0.5-0.5s-0.4-0.2-0.7-0.2c-0.4,0-0.8,0.1-1.2,0.4c-0.4,0.2-0.8,0.6-1.2,1c-0.4,0.4-0.7,0.9-1,1.5
			c-0.3,0.6-0.5,1.2-0.6,1.8l-0.5,4.1h-1.6l1.2-10.1h1.7l-0.2,2h0.1c0.6-0.7,1.2-1.2,1.9-1.6s1.4-0.5,2.1-0.5
			C414.8,33.1,415.5,33.4,416,34.1z"/>
		<path class="st4" fill="#FFFFFF" d="M427.9,42.8c-0.7,0.5-1.5,0.7-2.4,0.7c-0.8,0-1.4-0.3-1.7-0.8s-0.4-1.2-0.3-2.1l0.7-5.9h-1.1l0.2-1.4h1.1
			l0.4-3.3l1.7-0.3l-0.4,3.6h2.9l-0.2,1.4h-2.9l-0.7,5.7c-0.1,0.5,0,0.9,0.1,1.2c0.1,0.3,0.4,0.4,0.7,0.4c0.5,0,1-0.2,1.7-0.6
			L427.9,42.8z"/>
		<path class="st4" fill="#FFFFFF" d="M436.2,33.1L436,35c-0.7,0-1.3,0.1-1.8,0.5c-0.5,0.4-0.9,0.8-1.3,1.5c-0.3,0.6-0.5,1.4-0.7,2.2l-0.5,4.1h-1.6
			l1.2-10.1h1.7l-0.3,2.2h0.1C433.7,34,434.8,33.2,436.2,33.1z"/>
		<path class="st4" fill="#FFFFFF" d="M446.2,33.2L445,43.3h-1.6l0.2-2h0c-0.5,0.7-1,1.2-1.6,1.6s-1.3,0.6-2,0.6c-1.1,0-1.8-0.3-2.3-1
			c-0.5-0.7-0.6-1.7-0.4-3.1l0.8-6.2h1.6l-0.7,6c-0.1,0.5-0.1,1,0,1.3c0,0.3,0.1,0.6,0.3,0.8s0.3,0.4,0.5,0.4
			c0.2,0.1,0.4,0.1,0.7,0.1c0.4,0,0.7-0.1,1.1-0.4c0.4-0.2,0.8-0.5,1.1-0.9c0.3-0.4,0.6-0.9,0.9-1.4c0.3-0.6,0.4-1.1,0.5-1.7
			l0.5-4.3H446.2z"/>
		<path class="st4" fill="#FFFFFF" d="M451,42c0.4,0,0.7-0.1,1-0.2s0.5-0.3,0.7-0.5c0.2-0.2,0.3-0.5,0.3-0.8c0-0.1,0-0.2-0.1-0.4s-0.1-0.2-0.2-0.3
			s-0.2-0.2-0.3-0.3s-0.2-0.2-0.4-0.2c-0.2-0.1-0.3-0.2-0.4-0.2c-0.1-0.1-0.3-0.1-0.5-0.2c-0.1-0.1-0.2-0.1-0.3-0.1
			c-0.4-0.2-0.7-0.3-1-0.5c-0.3-0.2-0.5-0.4-0.8-0.6c-0.2-0.2-0.4-0.5-0.5-0.8s-0.2-0.6-0.2-1c0-0.6,0.2-1.1,0.5-1.5
			c0.3-0.5,0.7-0.8,1.2-1c0.5-0.2,1.1-0.4,1.7-0.4c0.4,0,0.8,0,1.2,0.1c0.4,0.1,0.7,0.2,1.1,0.4c0.4,0.2,0.7,0.5,1,0.8l-1.1,1.1
			c-0.6-0.7-1.3-1.1-2.2-1.1c-0.3,0-0.6,0.1-0.8,0.2s-0.4,0.3-0.6,0.5c-0.1,0.2-0.2,0.5-0.2,0.7c0,0.1,0,0.3,0.1,0.4
			c0.1,0.1,0.1,0.3,0.2,0.4c0.1,0.1,0.2,0.2,0.4,0.3c0.2,0.1,0.3,0.2,0.5,0.3s0.3,0.2,0.6,0.3c0,0,0.1,0,0.1,0.1
			c0.2,0.1,0.3,0.1,0.4,0.2s0.2,0.1,0.4,0.2c0.2,0.1,0.3,0.2,0.4,0.2c0.1,0.1,0.2,0.1,0.4,0.2s0.3,0.2,0.4,0.3
			c0.1,0.1,0.2,0.2,0.3,0.3c0.1,0.1,0.2,0.3,0.2,0.4c0.1,0.1,0.1,0.3,0.1,0.4c0,0.2,0.1,0.3,0.1,0.5c0,0.7-0.2,1.2-0.5,1.7
			c-0.3,0.5-0.8,0.8-1.3,1c-0.6,0.2-1.2,0.3-1.9,0.3c-0.7,0-1.4-0.1-2.1-0.4c-0.6-0.3-1.1-0.7-1.5-1.2l1.1-1.1
			C449.2,41.6,450.1,42,451,42z"/>
		<path class="st4" fill="#FFFFFF" d="M461.7,42.8c-0.7,0.5-1.5,0.7-2.4,0.7c-0.8,0-1.4-0.3-1.7-0.8s-0.4-1.2-0.3-2.1l0.7-5.9h-1.1l0.2-1.4h1.1
			l0.4-3.3l1.7-0.3l-0.4,3.6h2.9l-0.2,1.4h-2.9l-0.7,5.7c-0.1,0.5,0,0.9,0.1,1.2c0.1,0.3,0.4,0.4,0.7,0.4c0.5,0,1-0.2,1.7-0.6
			L461.7,42.8z"/>
	</g>
</g>
</svg>
