<?xml-stylesheet type="text/css" href="/CMS_Themes/Default/Css/pest-icons.css" ?>
<svg version="1.1" id="Layer_1" xmlns="http://www.w3.org/2000/svg" viewBox="0 0 82.3 82.3" width="100%" height="100%">
<path fill="#102e52" class="pest-search__item-icon" d="M41.2,0C18.4,0,0,18.4,0,41.2s18.4,41.2,41.2,41.2c22.7,0,41.2-18.4,41.2-41.2S63.9,0,41.2,0z M69.9,51.6
	l-2.6-0.1l-1.5,0.7l-1.7,0l-1.5-0.5l-0.9,0.1l-1.2-1.9l-3.2-5.5l-0.8-0.1L56,44.7c0.7,0.9,1.4,1.9,1.9,2.7l1,1.5
	c1,1.5,2.1,3.3,2.4,4c0.3,0.7,0.7,2.2,0.9,3.3s0.1,2.8-0.1,3.6s-0.6,2.1-1,2.8c-0.2,0.5-1,0.3-1.9-0.3c0.6,0.9,0.8,1.7,0.3,1.9
	c-0.6,0.3-1.9,0.8-2.8,1s-2.5,0.2-3.6,0.1c-1.1-0.1-2.6-0.5-3.3-0.9c-0.7-0.3-2.5-1.4-4-2.4l-1.5-1c-0.8-0.5-1.7-1.2-2.7-1.9
	l-0.4,0.5l0.1,0.8l5.5,3.2l1.9,1.2l-0.1,0.9l0.5,1.5l0,1.7l-0.7,1.5l0.1,2.6l-1,0.1l-0.1-2.3L48,69l-0.5-1.9l-1.2-1.3L42,62.1
	l-1.4-1.1l-0.2-1.2l-0.5,0l-0.7-0.9l0.3-1.5L39,57.4l-0.1-0.7l-3.1-2.9c-1.3-1.3-3.5-3.3-4.8-4.6l-0.7-0.7c-0.1-0.1-0.2-0.2-0.3-0.3
	l-0.7,0.5L29,48.7l0,0.5l3.6,3.7l0.8,0.9l-0.3,0.7l0,1.3l-0.5,1.3l-0.8,1l-0.6,2.1L30.4,60l0.5-1.9l0.9-1.2l0.3-1.2l-0.5-1.3
	L29,50.6l-0.6-1.2l0.1-0.8l-0.7-0.1l0.4-2.3c-0.4-0.4-0.7-0.7-0.8-0.9c-0.4-0.5-0.3-1.7,0.1-2.8c0.4-0.9,0.6-1.9,0.6-2.2l-0.4-0.1
	c-0.2,0.1-0.4,0.2-0.6,0.4c-0.5,0.4-1.2,1-1.7,1.3s-1.1,0.5-1.5,0.4S23,42.2,23,42c0-0.2,0-0.6,0-1c0-0.4,0-0.9-0.1-1.2c0,0,0,0,0,0
	l-2.1,0.5l-1.2,0.2l-0.4-0.6L18,39.2l-0.9-1.1l-0.5-1.2l-1.5-1.6l0.5-0.5l1.3,1.4l0.6,1.4l0.9,0.9l1.3,0.3l2.1-0.2c0,0,0,0,0,0
	c-0.4-0.4-1-1.2-1.3-1.8c-0.3-0.6-0.6-1.5-0.8-2c-0.2-0.5-0.1-1.7,0.3-2.6c0.3-0.9,0.3-1.7-0.1-1.9c-0.4-0.2-0.9-0.9-1.2-1.6
	c-0.1-0.3-0.3-0.7-0.3-1.1c0,0-0.1,0.1-0.2,0.1c-0.3,0.1-1,0.3-1.7,0.4c-0.6,0.1-1.5,0.3-2,0.3c-0.4,0-1.6-0.2-2.6-0.4
	c-1-0.2-1.7-0.7-1.6-1c0.1-0.4,1.3-0.4,2.7,0c1.3,0.4,2.9,0.6,3.4,0.4c0.5-0.2,1.2-0.4,1.4-0.5c0.1-0.1,0.3-0.1,0.4,0
	c0-0.1,0-0.2,0-0.3c0.1-0.5,0.6-1.4,1-2.1c0.2-0.3,0.4-0.6,0.6-0.8c0,0,0-0.1,0-0.1c0,0,0.1-0.1,0.2-0.2c0.1-0.1,0.2-0.2,0.2-0.2
	c0,0,0,0,0.1,0c0.2-0.2,0.5-0.4,0.8-0.6c0.6-0.4,1.5-0.9,2.1-1c0.1,0,0.2,0,0.3,0c0-0.1,0-0.2,0-0.4c0.1-0.3,0.3-0.9,0.5-1.4
	c0.2-0.5,0-2.1-0.4-3.4s-0.4-2.5,0-2.7c0.4-0.1,0.9,0.6,1,1.6s0.4,2.2,0.4,2.6c0,0.4-0.1,1.3-0.3,2c-0.1,0.6-0.4,1.4-0.4,1.7
	c0,0.1,0,0.1-0.1,0.2c0.4,0.1,0.8,0.2,1.1,0.3c0.7,0.3,1.4,0.9,1.6,1.2c0.2,0.4,1,0.4,1.9,0.1c0.9-0.3,2-0.4,2.6-0.3s1.4,0.5,2,0.8
	s1.4,0.9,1.8,1.3c0,0,0,0,0,0l0.2-2.1l-0.3-1.3l-0.9-0.9l-1.4-0.6l-1.4-1.3l0.5-0.5l1.6,1.5l1.2,0.5l1.1,0.9l0.7,1.1l0.6,0.4
	l-0.2,1.2L36.7,26c0,0,0,0,0,0c0.3,0.1,0.9,0.2,1.2,0.1c0.4,0,0.8-0.1,1,0s0.3,0.4,0.4,0.8s-0.2,1.1-0.4,1.5
	c-0.3,0.4-0.8,1.2-1.3,1.7c-0.2,0.2-0.4,0.5-0.4,0.6l0.1,0.4c0.3,0,1.3-0.3,2.2-0.6c1.1-0.4,2.3-0.5,2.8-0.1
	c0.2,0.1,0.5,0.4,0.9,0.8l2.3-0.4l0.1,0.7l0.8-0.1l1.2,0.6l3.8,2.7l1.3,0.5l1.2-0.3l1.2-0.9l1.9-0.5l0.1,0.7L55,34.8l-1,0.8
	l-1.3,0.5l-1.3,0l-0.7,0.3l-0.9-0.8l-3.7-3.6l-0.5,0l-0.1,0.4L45,33.1c0.1,0.1,0.2,0.2,0.3,0.3l0.7,0.7c1.3,1.3,3.4,3.4,4.6,4.8
	l2.9,3.1l0.7,0.1l-0.1,0.5l1.5-0.3l0.9,0.7l0,0.5l1.2,0.2L59,45l3.7,4.4l1.3,1.2l1.9,0.5l1.8-0.6l2.3,0.1L69.9,51.6z"/>
</svg>
