<?xml-stylesheet type="text/css" href="/CMS_Themes/Default/Css/pest-icons.css" ?>
<svg version="1.1" id="Layer_1" xmlns="http://www.w3.org/2000/svg" viewBox="0 0 82.3 82.3" width="100%" height="100%">
<path fill="#102e52" class="pest-search__item-icon" d="M41.2,0C18.4,0,0,18.4,0,41.2c0,22.7,18.4,41.2,41.2,41.2c22.7,0,41.2-18.4,41.2-41.2C82.3,18.4,63.9,0,41.2,0z
	 M66.8,39.2c-1.6,0-3.2,0-4.8-0.1c-0.3,0-0.6,0-0.9,0c-2.2,0.4-4.4,0.7-6.6,1.1c-0.3,0-0.5,0.1-0.9,0.1c0.2,0.9,0.2,1.7,0.5,2.5
	c0.7,1.9,0.1,3.7-0.6,5.4c-0.5,1.4-1.9,2-3.1,2.6c-0.4,0.2-0.7,0.3-1.1,0.4c0.1,1.1,0.3,2,1.5,2.2c0.2,0.1,0.6,0.3,0.6,0.5
	c0.2,1,1.2,0.9,1.8,1.4c1.4,1,3.1,1.1,4.7,1.7c0.5,0.2,1,0,1.5,0.1c0.3,0.1,0.7,0.3,1,0.5c-0.3,0.2-0.5,0.4-0.8,0.5
	c-2.3,0.8-4.3-0.3-6.4-0.8c-1-0.3-2-1.1-2.8-1.9c-1-1-2-2-2.8-3.2c-0.6-0.9-1.3-0.2-2-0.3c0,0-0.3,0.7-0.2,1
	c0.1,1.4,0.6,2.7,0.5,4.1c-0.1,1.2,0.6,2.1,0.8,3.1c0.2,1.6,1.6,2.4,2.1,3.6c0.8,2,2.9,2.7,4,4.4c0.4,0.6,1.4,0.8,2.1,1.3
	c0.6,0.4,1.1,0.9,1.6,1.4c0.1,0.1,0.2,0.5,0.1,0.6c-0.1,0.1-0.4,0.2-0.6,0.2c-0.4-0.1-0.7-0.2-1-0.4c-2.2-1.4-4.3-3.1-6.2-4.9
	c-1.5-1.4-2.7-3.1-3.5-4.9c-0.8-1.8-1.9-3.6-1.2-5.8c0.4-1.1-0.4-1.6-1-2.2c-0.1,0.9-0.2,1.8-0.5,2.6c-0.1,0.4-0.6,0.7-0.9,1
	c-0.2-0.3-0.5-0.7-0.6-1c-0.1-0.7-0.1-1.4-0.2-2c-0.1,0-0.2,0-0.3,0c-0.1,0.7,0,1.4-0.2,2c-0.1,0.4-0.4,0.7-0.6,1.1
	c-0.3-0.3-0.7-0.6-0.9-0.9c-0.3-0.9-0.4-1.8-0.5-2.7c-0.9,0.7-1.3,1.5-0.9,2.7c0.3,0.8,0.2,1.7-0.3,2.4c0,0.1-0.1,0.1-0.1,0.2
	c-0.3,2-1.3,3.7-2.4,5.3c-0.3,0.5-0.8,1-1.2,1.4c-0.7,0.7-1.6,1.3-2.2,2.1c-1.4,1.7-3.5,2.5-5.2,3.8c-0.3,0.2-0.7,0.1-1.1,0.1
	c0.1-0.4,0.1-0.8,0.4-1.1c0.3-0.4,0.7-0.7,1.2-0.9c2.2-1,3.5-3.1,5.5-4.3c0.4-1.5,2.2-2.3,2.4-3.6c0.2-1.5,1.6-2.5,1.2-4.3
	c-0.3-1.3,0.3-2.8,0.5-4.2c0-0.4-0.2-1.1-0.2-1.1c-0.6,0.1-1.4-0.6-1.9,0.3c-1.3,2.2-3.3,3.9-5.6,5c-1.6,0.8-3.5,1.5-5.5,1
	c-0.4-0.1-0.9-0.1-1.3-0.2c-0.2-0.1-0.4-0.3-0.6-0.5c0.2-0.2,0.4-0.4,0.7-0.5c0.8-0.2,1.7-0.4,2.5-0.4c1.9,0,3.5-1.1,5-1.9
	c0.9-0.5,1.7-1.5,2.6-2.1c0.3-0.2,0.3-0.8,0.4-1.2c-1-0.6-1.9-1.3-3-1.8c-1.4-0.6-1.4-1.9-1.8-3.1c-0.6-1.9,0-3.8,0.3-5.7
	c0-0.2,0-0.4,0-0.7c-0.6-0.1-1.2-0.1-1.7-0.2c-2-0.3-3.9-0.8-5.9-1c-1.6-0.2-3.3,0-4.9,0c-0.3,0-0.5,0.1-0.8,0
	c-0.2,0-0.3-0.2-0.4-0.3c0.1-0.1,0.2-0.4,0.4-0.4c1.5-0.2,3-0.5,4.6-0.7c0.7-0.1,1.3-0.1,2-0.1c0.3,0,0.5,0,0.8,0
	c1.4,0.3,2.7,0.6,4.1,0.9c0.7,0.1,1.4,0,2.5,0c0.1-1.5,0.1-3,0.2-4.6c0-0.1-0.1-0.2-0.2-0.3c-2.3-2.3-3.5-5.4-4.6-8.4
	c-1.1-3.3-2.9-6.3-4.2-9.4c-0.1-0.2-0.2-0.5-0.2-0.8c0.1-0.1,0.2-0.1,0.3-0.2c0.6,1,1.2,2.1,1.9,3c1.2,1.7,1.9,3.6,2.8,5.3
	c0.7,1.2,1,2.5,1.6,3.7c0.8,1.6,1.7,3.2,2.7,4.9c0.6-1.7,0.9-3.2,1.7-4.4c1.5-2.1,2.6-4.4,5-5.7c1.4-0.7,2.7-0.8,4.1-0.1
	c0.9,0.5,1.6,0.5,2.4,0.1c2.6-1.2,4.4-0.5,6.4,1.6c1.4,1.4,2.4,3.2,3.4,4.9c0.6,1,0.7,2.2,1.1,3.4c0.4-0.4,0.8-0.6,1-1.1
	c0.9-1.9,1.6-3.9,2.4-5.8c0.1-0.1,0-0.3,0.1-0.4c1.4-1.4,1.6-3.3,2.5-4.9c0.9-1.5,1.8-2.9,2.8-4.3c0.1-0.1,0.2-0.2,0.4-0.3
	c0.1,0.1,0.2,0.1,0.3,0.2c-0.2,0.4-0.3,0.8-0.5,1.2c-1.1,2.2-2.2,4.3-3.2,6.5c-0.8,1.9-1.5,3.8-2.2,5.7c-0.3,0.8-0.8,1.5-1.3,2.3
	c-0.6,0.9-1.2,1.8-1.8,2.7c-0.2,0.2-0.4,0.5-0.4,0.8c0,1.4,0.2,2.9,0.3,4.5c2.3-0.4,4.4-1,6.6-1.1c1.9-0.1,3.9,0.2,5.9,0.4
	c0.4,0,0.9,0.1,1.3,0.2c0.2,0.1,0.3,0.3,0.5,0.5C67.2,39,67,39.2,66.8,39.2z"/>
</svg>
