<?xml-stylesheet type="text/css" href="/CMS_Themes/Default/Css/pest-icons.css" ?>
<svg version="1.1" id="Layer_1" xmlns="http://www.w3.org/2000/svg" viewBox="0 0 82.3 82.3" width="100%" height="100%">
<path fill="#102e52" class="pest-search__item-icon" d="M41.2,0C18.4,0,0,18.4,0,41.2s18.4,41.2,41.2,41.2c22.7,0,41.2-18.4,41.2-41.2S63.9,0,41.2,0z M62.4,32.2
	c-1.5,0.9-2.5,2.4-3.9,3.5c-0.9,0.7-2,1-3,1.5c-0.3,0.2-0.5,0.5-0.9,0.8c-0.1-0.2-0.1-0.5-0.2-0.7c-0.1,0-0.3,0-0.3,0.1
	c-0.3,1.3-1.7,1.6-2.2,2.8c-0.3,0.9-1.3,1.6-1.9,2.5c-0.2,0.4-0.3,0.9-0.4,1.3c-0.6,1.7-0.6,2,1.1,2.3c1,0.2,1.4,1,2.1,1.4
	c1.2,0.7,2.5,1.4,3.7,2.2c1.2,0.8,2.3,1.7,3.5,2.6c-0.3,0.3-0.5,0.6-0.8,0.8c-2.9-2.9-6.2-5.1-10.4-5.9c-0.1,0.5-0.1,1-0.2,1.5
	c-1.1,6-2.5,12-5.2,17.5c-0.7,1.4-2,2.6-3,3.9c-0.2,0.2-0.4,0.3-0.6,0.5c-2.1,1.4-3.5,1-4.6-1.2c-0.6-1.1-1-2.4-1.7-3.9
	c-0.4,1.3-0.8,2.3-1.1,3.5c-0.4-0.1-0.8-0.2-1.2-0.3c0.6-1.4,1.3-2.8,1.8-4.1c0.1-0.3,0.1-0.8,0.1-1.2c-0.1-2.1-0.2-4.2-0.2-6.2
	c0-0.7-0.5-1.1-1.2-0.9c-0.1,0-0.3,0-0.5,0c-0.4,0-0.9,0-1.4,0c0-0.1,0-0.3-0.1-0.8c-0.5,0.9-1,0.9-1.6,0.5
	c-0.1-0.1-0.4,0.1-0.4,0.1c-0.9-0.5-1.6-0.9-2.3-1.3c-0.3-0.8-0.7-1.6-1.1-2.5c0.6-1,0.6-1.4-0.2-1.7c0.2-0.2,0.4-0.4,0.6-0.6
	c-0.1,0-0.2,0-0.3-0.1c0-0.5,0.1-1,0.1-1.4c0-0.7-0.5-0.6-1-0.7c-1.3,0-2.6,0-3.9,0c-0.2,0-0.3,0-0.5,0c-2.8-0.9-4.7,0.8-6.8,2.1
	c-0.1-0.3-0.3-0.7-0.5-1.1c1.1-0.5,2.3-0.9,3.4-1.4c0-0.1,0-0.2,0-0.3c-0.9-0.3-1.9-0.6-2.8-0.9c-3.3-1.1-3.9-3.3-1.7-5.9
	c1.9-2.3,4.5-3.4,7.2-4.4c2.5-0.9,5.1-1.7,7.7-2.4c2.6-0.7,5.2-1.1,7.9-1.7c-0.7-4.1-3.2-7.3-5.7-10.5c0.3-0.2,0.6-0.4,0.9-0.5
	c1.3,1.9,2.7,3.6,3.8,5.6c1,1.7,2.5,3.2,2.6,5.5c0.7-0.2,1.3-0.4,1.8-0.6c0.5-0.2,1.3-0.2,1.2-1.2c0-0.1,0.3-0.3,0.4-0.3
	c0.9-0.4,1.8-0.7,2.7-1.1c0.2-0.1,0.4-0.2,0.6-0.4c0.6-0.7,1.2-1.1,2.2-0.8c0.1,0,0.3-0.2,0.6-0.4c-0.7-0.1-1.2-0.2-1.8-0.3
	c1-0.4,0.9-1.3,1.2-2.1c0.2-0.5,0.5-1,0.9-1.4c1.1-1.3,2.3-2.5,3.5-3.8c0.1-0.1,0.3-0.2,0.4-0.4c1.5-2.7,3-5.3,4.5-8
	c0.1-0.2,0.1-0.6,0.1-1c0.4,0.1,0.8,0.2,1.3,0.4c-1.5,2.7-3.1,5.2-4.5,7.8c-1,1.9-2.4,3.3-3.9,4.7c-1.4,1.4-1.3,2.1,0.5,3
	c0.2,0.1,0.5,0.2,0.6,0.3c0-0.5-0.2-1.2,0-1.7c0.2-0.6,0.7-1.1,1.1-1.5c1-0.8,2-0.7,3.4,0.2c0.6,0.4,1.4,0.6,2.1,0.8
	c0.6,0.2,1-0.2,1.2-0.8c0.1-0.6,0.2-1.2,0.6-1.9c0,0.4,0,0.7,0,1.1c0,0.4-0.1,0.8-0.1,1.5c0.5-0.3,0.9-0.4,1.2-0.6
	c0.5-0.5,0.9-1.1,1.5-1.6c0.2-0.2,0.6-0.1,0.9-0.1c0,0.3,0,0.6-0.1,0.8c-0.5,0.5-1.2,1-1.7,1.5c-0.2,0.2-0.3,0.6-0.4,0.9
	c0.3,0.1,0.6,0.2,0.9,0.2c0.5,0,1-0.1,1.4-0.1c0,0.1,0,0.2,0,0.3c-0.6,0.1-1.2,0.2-1.8,0.3c-0.9,0.2-1.2,0.5-0.9,1.5
	c0.2,0.7,0.5,1.5,0.8,2.1c1.1,2.3-0.2,4.4-2.7,4.4c0.4,0.7,0.2,1.8,1.4,1.8c0.5,0,1-0.2,1.3-0.4c0.6-0.4,1.2-0.9,1.7-1.4
	c2.3-2.5,5.5-3.7,8.4-5.3c0.9-0.5,1.8-0.9,2.9-1.5c0.1,0.3,0.3,0.7,0.3,0.8C67.9,29.1,65,30.5,62.4,32.2z"/>
</svg>
