<?xml-stylesheet type="text/css" href="/CMS_Themes/Default/Css/pest-icons.css" ?>
<svg version="1.1" id="Layer_1" xmlns="http://www.w3.org/2000/svg" viewBox="0 0 82.3 82.3" width="100%" height="100%">
<g>
	<path fill="#102e52" class="pest-search__item-icon" d="M53.5,62c0,0,0-0.1,0-0.1c-0.1,0-0.3,0-0.4,0c0,0,0,0.1,0,0.1C53.2,62.1,53.3,62,53.5,62z"/>
	<path fill="#102e52" class="pest-search__item-icon" d="M52.6,61.4c-0.1-0.1-0.2-0.2-0.4-0.3c0,0-0.2,0.2-0.2,0.3c0,0.1,0.1,0.2,0.2,0.3
		C52.3,61.6,52.4,61.5,52.6,61.4z"/>
	<path fill="#102e52" class="pest-search__item-icon" d="M41.2,0C18.4,0,0,18.4,0,41.2s18.4,41.2,41.2,41.2c22.7,0,41.2-18.4,41.2-41.2S63.9,0,41.2,0z M67.5,25.8
		c-0.6,0.1-1.3,0.3-1.9,0.5c-0.2,0.1-0.4,0.2-0.6,0.3c0,0.3,0,0.7,0,1c-0.2-0.1-0.3-0.2-0.5-0.3c0,0.3,0.1,0.6,0.1,0.8
		c-0.1,0.1-0.2,0.2-0.3,0.3c0-0.1-0.1-0.1-0.1-0.2c0,0,0,0-0.1,0c0,0.2,0.1,0.3,0.1,0.5c-0.1,0-0.2-0.1-0.3-0.1
		c-0.1,0.3-0.2,0.6-0.4,0.9c-0.1,0.3-0.1,0.7,0,1c0.1,0.2,0.1,0.4,0.1,0.6c0,0.2,0,0.4-0.2,0.3c-0.1,0.5-0.2,1-0.3,1.5
		c0-0.2-0.1-0.3-0.1-0.4c0,0,0,0,0,0c0,0.5,0,1,0,1.6c0.1,0.7,0,1.4-0.1,2.1c-0.1,0.5-0.2,1-0.4,1.5c-0.1,0.5-0.3,1.1-0.5,1.6
		c-0.2,0.6-0.5,1.2-0.8,1.7c-0.4,0.7-0.8,1.4-1.2,2c-0.1,0.1-0.1,0.2-0.2,0.3c-0.3,0.4-0.6,0.9-0.8,1.4c-0.1,0.3-0.4,0.5-0.6,0.8
		c-0.3,0.5-0.8,0.9-1.2,1.2c-0.6,0.5-1.1,0.9-1.7,1.4c-0.4,0.3-0.8,0.7-1.2,1.1c-0.2,0.1-0.3,0.2-0.5,0.3c-1,0.7-2,1.5-3,2.2
		c-0.7,0.5-1.4,0.9-2.1,1.3c-0.3,0.2-0.6,0.4-0.9,0.6c-0.1,0.1-0.3,0-0.5,0.1c-0.6,0.3-1.3,0.6-1.9,1c-0.4,0.2-0.8,0.4-1.2,0.6
		c-0.3,0.1-0.3,0.3,0,0.4c0.4,0.2,0.6,0.7,1.1,0.8c0.2,0,0.2,0.3,0.4,0.4c0.6,0.5,1.2,1,1.8,1.5c0.2,0.1,0.3,0.3,0.5,0.4
		c0.2,0.1,0.5,0.1,0.7,0.1c0,0-0.1,0.1-0.3,0.1c0.1,0.1,0.2,0.1,0.3,0.2c0.2,0.1,0.3,0.2,0.5,0.3c0.2,0.1,0.4,0.2,0.6,0c0,0,0,0,0,0
		c0.4,0.2,0.6-0.2,0.9-0.3c0.1,0,0.3-0.2,0.4-0.3c0.2-0.1,0.4-0.2,0.6-0.2c0.2-0.1,0.4-0.1,0.6,0.2c0.1,0.2,0.1,0.5-0.1,0.7
		c-0.1-0.2-0.2-0.3-0.2-0.4c0,0-0.1,0-0.1,0c0.1,0.7-0.5,0.5-0.8,0.8c0.2,0.1,0.3,0.2,0.5,0.2c0.9,0.1,1.9,0.1,2.8-0.1
		c0.7-0.2,1.5-0.2,2.2,0.1c0,0,0,0,0.1,0c0.3,0.4,0.7,0.6,0.7,1.2c0,0,0,0,0,0.1c-0.1-0.1-0.3-0.2-0.4-0.4c0-0.2-0.8-0.4-1-0.4
		c-0.1,0-0.1,0.1-0.2,0.1c-0.3,0.5-0.6,0.5-1.1,0.4c-0.5-0.2-1.1-0.2-1.6,0.1c-0.1,0-0.1,0.1-0.2,0.2c0.1,0,0.1,0.1,0.2,0.1
		c0.5,0.1,0.5,0.1,0.6,0.6c0,0.1,0.1,0.2,0.1,0.2c0.4,0,0.7,0,1.1,0c0.2,0,0.4,0,0.5,0c0.5-0.1,0.9-0.2,1.4-0.2c0.7,0,1.5-0.1,2,0.5
		c0.2,0.3,0.4,0.5,0.5,1c-0.5-0.6-1.1-0.9-1.8-0.8c-0.1,0.6-0.6,0.8-1,0.5c-0.1,0-0.1-0.1-0.2-0.1c-0.4,0-0.7,0-1.1,0.1
		c-0.2,0-0.3,0.2-0.2,0.4c0.1,0.2,0.2,0.5,0,0.8c-0.1-0.1-0.2-0.2-0.2-0.3c-0.1-0.1-0.1-0.2-0.2-0.3c-0.2-0.3-0.4-0.3-0.6,0
		c-0.3,0.4-0.5,0.5-0.9,0.2c-0.1-0.1-0.2-0.1-0.3-0.1c-0.4,0-0.8-0.1-1.2,0c-0.6,0-1.1-0.1-1.6-0.3c-0.3-0.1-0.6-0.5-0.8-0.7
		c-0.1-0.1-0.1-0.2-0.3-0.1c-0.1,0-0.2,0.1-0.3,0c-0.5-0.3-0.9,0-1.3,0.1c-0.5,0.1-1,0.1-1.5-0.1c-0.2-0.1-0.6,0-0.9,0
		c-0.4,0-0.8-0.1-1.2-0.2c-0.3-0.1-0.5-0.4-0.4-0.7c0-0.4-0.1-0.6-0.5-0.7c-0.4-0.1-0.7-0.1-1.1,0.1c-0.4,0.2-0.8,0.4-1.2,0.6
		c0,0,0-0.1,0-0.2c0.4-0.7,0.9-1.2,1.8-1.3c0.1,0,0.2,0,0.3-0.1c0.1-0.1,0.4-0.3,0.3-0.5c0-0.2-0.3-0.4-0.5-0.4
		c-0.4,0-0.8,0.1-1.1,0.3c-0.3,0.1-0.6,0.3-0.9,0.5c0.1-0.2,0.1-0.3,0.1-0.4c0.6-1,1.8-1.4,2.8-0.9c0.4,0.2,0.9,0.4,1.3,0.6
		c0.1,0.1,0.3,0,0.5,0c-0.3-0.3-0.5-0.5-0.7-0.8c-0.5-0.5-1.1-0.9-1.6-1.3c-0.4-0.3-0.8-0.6-1.2-0.9c-0.1-0.1-0.3-0.1-0.4,0
		c-0.5,0.2-1,0.4-1.5,0.5c-0.1,0-0.2,0.1-0.3,0.1c-0.1-0.3,0.1-0.4,0.3-0.5c0.4-0.2,0.8-0.5,1.2-0.7c0,0,0.1-0.1,0.1-0.1
		c0,0,0-0.1,0-0.1c-0.5,0.1-0.9,0.2-1.4,0.4c-0.6,0.3-1.2,0.6-1.8,0.9c-0.1,0.1-0.8-0.1-0.9-0.3c0-0.2,0-0.4,0.1-0.5
		c0.1-0.1,0.2-0.2,0.3-0.3c0.2-0.2,0.4-0.4,0.5-0.7c-0.4,0-0.7,0.1-1.1,0.1c-0.2,0-0.4-0.1-0.6-0.1c-0.3-0.1-0.5-0.1-0.8-0.2
		c-0.1,0-0.2,0-0.3-0.1c-0.2-0.1-0.3-0.3-0.1-0.4c0.2-0.2,0.5-0.4,0.7-0.6c0.1-0.1,0.1-0.1,0.1-0.2c-0.2-0.1-0.4-0.3-0.5-0.4
		c-0.2-0.2-0.3-0.1-0.5,0c-0.1,0.1-0.2,0.2-0.2,0.3c-0.2,0.2-0.3,0.2-0.4,0c0-0.1-0.1-0.1-0.2-0.1c-0.5,0-1,0.1-1.5,0.1
		c0,0,0,0.1-0.1,0.1c-0.2,0-0.5,0-0.8,0c0,0,0,0,0-0.1c0.3-0.2,0.7-0.4,1-0.6c0,0,0,0,0-0.1c-0.5,0.2-0.9,0.3-1.4,0.5
		c-0.4,0.1-0.7,0.2-1.1,0.1c-0.1,0-0.2,0-0.3,0c-0.7,0.1-1.3,0.1-2,0.2c-0.8,0.1-1.5,0.1-2.3,0.2c-0.2,0-0.5,0.2-0.7,0.3
		c-1.1,0.5-2.2,1-3.3,1.5c-1.6,0.8-3.3,1.5-4.9,2.3c-0.6,0.3-1.2,0.6-1.8,0.9c-0.5,0.2-1,0.3-1.4,0.5c-0.6,0.3-1.3,0.3-1.9,0.2
		c-0.5,0-0.9-0.3-1.4-0.5c-0.1,0-0.1-0.1-0.1-0.2c0-0.5-0.2-1,0.1-1.5c0-0.1,0-0.1,0.1-0.2c0.1-0.4,0.1-0.4,0.4-0.5
		c-0.6-0.3-1.2-0.7-1.8-1c-0.3-0.1-0.7-0.1-1.1-0.2c-0.1,0-0.2,0-0.2,0c0-0.1,0.1-0.2,0.1-0.4c0,0,0,0,0-0.1
		c0.3-0.2,0.3-0.6,0.7-0.7c0.1,0,0.1-0.1,0.2-0.1c0.8-0.7,1.9-1,2.9-1.1c0.4,0,0.8-0.2,1.2-0.3c-0.2-0.3,0-0.4,0.2-0.5
		c0.3-0.1,0.6-0.3,0.9-0.6c0.1-0.1,0.3-0.1,0.4-0.1c0.2,0,0.4-0.1,0.5-0.3c0.2-0.3,0.4-0.4,0.7-0.5c0.3-0.1,0.5-0.3,0.8-0.5
		c0.4-0.3,0.8-0.5,1.2-0.8c0.8-0.5,1.5-1,2.3-1.5c0,0,0.1,0,0.1-0.1c0.2-0.4,0.7-0.4,1-0.7c0.2-0.2,0.4-0.4,0.7-0.6
		c0.1-0.1,0.3-0.2,0.5-0.3c0.2-0.1,0.4-0.2,0.6-0.3c0.4-0.3,0.9-0.6,1.3-0.9c0.1-0.1,0.2-0.2,0.3-0.3c0.2-0.2,0.4-0.5,0.7-0.6
		c0.4-0.2,0.8-0.4,1.1-0.8c0.2-0.2,0.6-0.4,0.8-0.7c0.3-0.4,0.7-0.6,1.1-0.9c0.4-0.3,0.8-0.7,1.2-1c0.5-0.4,0.9-0.8,1.4-1.2
		c0.3-0.3,0.7-0.4,0.9-0.7c0.3-0.4,0.7-0.5,1-0.8c0.3-0.3,0.7-0.5,1.1-0.7c0,0,0.1-0.1,0.2-0.1c-0.1-0.1-0.1-0.1-0.2-0.2
		c0.3-0.1,0.5-0.2,0.8-0.3c0.3-0.2,0.6-0.3,0.8-0.6c0.1-0.2,0.4-0.3,0.6-0.4c0.1-0.1,0.1-0.2,0.1-0.3c0.6-0.3,1.2-0.6,1.8-0.9
		c0.8-0.4,1.4-0.8,2-1.5c0.2-0.2,0.5-0.4,0.7-0.6c0.6-0.4,1.1-0.8,1.7-1.2c0.5-0.3,1.1-0.7,1.6-1c0.8-0.4,1.6-0.9,2.5-1.3
		c0.4-0.2,0.8-0.3,1.2-0.5c0.6-0.3,1.1-0.6,1.7-0.9c0.6-0.3,0.8-0.9,1.1-1.4c0.2-0.4,0.5-0.7,0.8-1.1c0.6-0.6,1.2-1.1,1.8-1.7
		c0.4-0.3,0.8-0.6,1.1-0.8c0.4-0.3,0.9-0.5,1.4-0.8c0.6-0.3,1.2-0.4,1.8-0.6c0.6-0.2,1.3-0.3,1.9-0.5c0.1,0,0.2-0.1,0.4-0.1
		c1.1,0,2.2,0.1,3.2,0.6c1,0.5,1.9,0.9,2.9,1.4c0.4,0.2,0.9,0.4,1.4,0.2c0.3-0.1,0.6,0,0.9,0.1c0.8,0.3,1.6,0.4,2.4,0.4
		c1.2,0.1,2.3,0.2,3.4,0.6c0.2,0.1,0.3,0.2,0.5,0.3c-0.9,0.2-1.7,0.3-2.6,0.5C69.7,25.3,68.6,25.5,67.5,25.8z"/>
	<path fill="#102e52" class="pest-search__item-icon" d="M44.2,60.7c0.4,0.2,0.8,0.4,1.1,0.5c0.6,0.1,1.3,0,1.9,0c0.1,0,0.1,0,0.2,0c-0.3-0.5-0.7-0.6-1.2-0.5
		c-0.3,0.1-0.7,0.1-0.9,0C44.8,60.4,44.6,60.5,44.2,60.7z"/>
</g>
</svg>
