<?xml-stylesheet type="text/css" href="/CMS_Themes/Default/Css/pest-icons.css" ?>
<svg version="1.1" id="Layer_1" xmlns="http://www.w3.org/2000/svg" viewBox="0 0 82.3 82.3" width="100%" height="100%">
<path fill="#102e52" class="pest-search__item-icon" d="M41.2,0C18.4,0,0,18.4,0,41.2c0,22.7,18.4,41.2,41.2,41.2s41.2-18.4,41.2-41.2C82.3,18.4,63.9,0,41.2,0z
	 M72.7,45.1c-1.8,1-3.6,1.3-5.6,0.9c-2.4-0.4-4.9-0.6-7.4-0.9c-0.9-0.1-1.8-0.2-2.6-0.3c-0.1,0.1-0.1,0.2-0.2,0.3
	c1.6,1.3,3.3,2.7,4.9,4c0.5,0.4,1.1,0.7,1.6,1.2c0.1,0.1,0.1,0.4,0.2,0.8c-3-1.5-5.2-3.6-7.4-5.7c-0.7-0.6-1.3-1.1-2.2-1.1
	c-0.5,0-1.1-0.1-1.5-0.2c1.7,4.6,3.6,9.1,7.4,12.5c-0.1,0.1-0.2,0.2-0.2,0.3c-0.2-0.1-0.4,0-0.6-0.2c-3.2-3.2-5.8-6.8-7.2-11.2
	c-0.1-0.2-0.1-0.3-0.2-0.5c-0.3,0.6-0.4,1.2-0.7,1.7c-0.5,0.8-1.1,0.8-1.5-0.1c-0.4-1-0.6-2-0.9-3c-0.4,0-0.9,0.1-1.5,0.2
	c-0.8,2.7,0.4,5.9-1.5,8.4c-0.6-0.7-0.6-0.8-0.2-2c0.3-0.8,0.4-1.7,0.7-2.6c-0.9,0.1-1.5,0.2-2.2,0.3c-0.3,2.8,0.5,5.8-1.5,8.8
	c-0.1-0.7-0.4-1.3-0.2-1.7c1.1-2.6,0.6-5.2,0.3-7.9c0-0.1-0.1-0.2,0-0.3c0.1-0.5,0.3-1.1,0.5-1.6c0.5,0.1,0.9,0.3,1.4,0.5
	c0.2,0.1,0.3,0.2,0.5,0.3c-0.2-1.3-0.5-2.4-0.7-3.7c-1.4-0.6-1.9-0.6-3,0.4c-1.6,1.5-3.3,2.8-5.5,3.6c-1.5,0.6-2.7,2-4.1,3
	c-0.9,0.7-1.8,1.6-2.8,2.3c-0.6,0.4-1.4,0.5-2.1,0.8c-0.8,0.3-1.5,0.5-2.3,0.8c0-0.1-0.1-0.3-0.3-0.8c0.6-0.2,1.2-0.6,1.8-0.7
	c1-0.2,1.8-0.6,2.5-1.3c2.9-2.7,5.9-5.2,8.8-8c-0.8,0.4-1.7,0.6-2.3,1.1c-1.5,1.1-2.9,2.4-4.4,3.6c-0.8,0.6-1.6,1.2-2.7,1.2
	c-0.5,0-1.1,0.4-1.7,0.7c-0.3-0.3-0.4-0.9,0.4-1c2.8-0.4,4.2-2.8,6.2-4.3c1.6-1.2,3.1-2.6,4.7-3.9c-0.3-0.1-0.6-0.3-0.9-0.4
	c-0.1,0.1-0.2,0.1-0.3,0.1c-1.6,3.2-4.7,4-7.6,4.8c-2.3,0.6-4.8,0.7-7.1,1.3c-1,0.2-2,0.8-2.9,1.4c-2.2,1.4-4.3,2.8-6.4,4.2
	c-0.5,0.4-1.1,0.7-1.8,1.2c-0.1-1.3,0.7-1.7,1.4-2.1c1.3-0.8,2.6-1.6,3.8-2.4c1.2-0.8,2.4-1.7,3.7-2.6c0-0.1-0.1-0.2-0.1-0.3
	c-0.6,0.1-1.1,0.2-1.7,0.4c-2.5,0.8-5,1-7.6,0.3c-0.6-0.2-1.2-0.5-1.7-0.9c2.3,0.3,4.5,0.3,6.6-0.8c-1.1,0.1-2.3,0.2-3.4,0.2
	c0-0.1,0-0.2,0-0.3c1.4-0.2,2.9-0.4,4.3-0.6c0,0,0-0.1,0-0.1c-0.4,0-0.7,0-1.1,0c-0.3,0-0.6-0.1-0.9-0.2c0.1-0.3,0.3-0.6,0.4-1
	c-1.2-0.1-2.4-0.3-3.6-0.4c0-0.1,0-0.2,0-0.3c1,0.1,1.9,0.1,2.9,0.2c0-0.1,0-0.2,0-0.3c-1.8,0-3.6,0-5.3,0c0-0.1-0.1-0.2-0.1-0.3
	c0.8-0.3,1.6-0.8,2.5-0.9c1.6-0.2,3.2-0.3,4.8-0.4c1.6-0.1,2.5-1,3.5-2.2c-2.5-2.2-5-4.4-7.5-6.7c0.9-0.6,1.4,0,1.9,0.4
	c1.6,1.4,3.2,2.8,4.8,4.2c0.5,0.4,1,0.8,1.4,1.1c1.9-1.4,3.6-2.9,5.6-4c3-1.8,6.1-2.6,9.6-1.2c0.7,0.3,3.4,0.4,4.1,0.3
	c1.9-0.4,3.6-0.3,5.1,1c0.3,0.2,0.7,0.2,1.1,0.2C45.8,32.2,47,32,48,33c0.1,0.1,0.2,0.1,0.3,0.1c1.3-0.5,2.5-0.1,3.8,0.2
	c1.4,0.4,2.8,0.6,4.2,0.9c0.3,0.1,0.6,0.1,0.9,0.1c0.8,0.1,1.7,0.3,2.5,0.3c0.5,0.1,1.1,0,1.6,0c2,0.3,4,0.5,5.9,1
	c1.6,0.4,3.1,1,4.6,1.9c1.4,0.8,2.2,2.3,2.6,3.9C74.7,43,74.1,44.3,72.7,45.1z"/>
</svg>
