<?xml-stylesheet type="text/css" href="/CMS_Themes/Default/Css/pest-icons.css" ?>
<svg version="1.1" id="Layer_1" xmlns="http://www.w3.org/2000/svg" viewBox="0 0 82.3 82.3" width="100%" height="100%">
<g>
	<path fill="#102e52" class="pest-search__item-icon" d="M41.2,0c-9,0-17.3,2.9-24.1,7.8c7.6,6.2,15.1,12.5,22.7,18.7c0.7,0.6,1.9,0.8,2.9,0.9c1.3,0.1,2.7-0.1,4,0
		c2.7,0.2,5.1,1,6.7,3.7c2.2-1.2,4.1-1.1,5.9,0.6c0.3,0.3,1,0.3,1.4,0.2c3.3-0.4,6.5-0.9,9.8-1.1c1.4-0.1,3,0,3.9,1.8
		c-1.7-0.3-3.2-0.5-5.3-0.9c2.8,2.4,2.8,2.4,2.8,4.1c-2.1-2.9-5.1-2.7-7.9-3.1c-2.4-0.4-3.5,1-2.8,3.4c1,3.4,0.2,7.9-1.8,10.1
		c-0.6-0.9-1.2-1.7-1.9-2.7c-0.2,0.5-0.3,0.7-0.4,1c0-2.2-2.1-4-3.6-3.2c2.6,5.1,5.1,10.2,7.7,15.3c-0.1,0.1-0.3,0.1-0.4,0.2
		c-2.7-4.6-5.5-9.2-8.3-14.1c-1.2,2.1-2.9,2.9-4.9,2.2c-0.7-0.2-0.9-1.6-1.3-2.4c-1,0.3-2.3,0.6-3.7,0.9c-1,0.3-2,1.9-1.6,2.9
		c0.8,2,0.9,3.8,0.2,6c-0.8,2.4-1,5-1.2,7.5c-0.2,2.4,1.9,3.2,3.4,4.4c0.4,0.4,1.1,0.5,1.6,0.8c-0.5,2.9-5,2.1-4.8,6
		c-0.5-0.7-0.8-1-1-1.3c-5.1,0.8-9.6-0.5-13.3-4.1c-7.2-7-7.3-15.5-5-24.5c0.2-0.6,0.4-1.1,0.7-1.7c1.5-2.9,2.5-3.3,5.5-2.2
		c1.8,0.7,3.6,1.5,5.8,2.5c0.7-3.1,1.3-5.9,1.9-8.7c0.1-0.3-0.3-0.8-0.5-1c-2.5-2.1-4.9-4.2-7.4-6.2c-2.3-1.9-4.8-3.7-6.9-5.8
		c-0.9-0.9-1.1-2.4-1.6-3.6c-0.1-0.3-0.1-0.7-0.3-0.9c-1.1-1.2-2.3-2.4-3.4-3.6C5.6,17.5,0,28.7,0,41.2c0,22.7,18.4,41.2,41.2,41.2
		s41.2-18.4,41.2-41.2C82.3,18.4,63.9,0,41.2,0z"/>
	<path fill="#102e52" class="pest-search__item-icon" d="M33.3,45.1c0.1,0.6,0.3,1.1,0.3,1.5c3.2,0.4,4.6-1.3,5.3-4.2c-0.5-0.1-1-0.2-1.6-0.3
		C37.1,44.7,35.1,44.8,33.3,45.1z"/>
	<path fill="#102e52" class="pest-search__item-icon" d="M39.2,47.3c-1.4,0.3-2.8,0.6-4.4,1c-0.5,4.5,1,8.4,4.3,11.7C38.2,55.6,41.8,51.3,39.2,47.3z"/>
</g>
</svg>
