<?xml-stylesheet type="text/css" href="/CMS_Themes/Default/Css/pest-icons.css" ?>
<svg version="1.1" id="Layer_1" xmlns="http://www.w3.org/2000/svg" viewBox="0 0 82.3 82.3" width="100%" height="100%">
<path fill="#102e52" class="pest-search__item-icon" d="M41.2,0C18.4,0,0,18.4,0,41.2c0,22.7,18.4,41.2,41.2,41.2c22.7,0,41.2-18.4,41.2-41.2C82.3,18.4,63.9,0,41.2,0z
	 M60.9,40.1c-0.1,0.6-0.1,1.2-0.3,1.8c-0.1,0.4-0.1,0.8-0.3,1.1c-0.6,0.7-0.6,1.6-0.8,2.4c-0.1,0.4-0.3,0.7-0.5,1.1
	C59,46.7,59,46.9,58.9,47c-0.6,1.4-1.1,2.9-1.9,4.2c-0.4,0.7-0.7,1.5-1.1,2.2c-0.2,0.3-0.4,0.6-0.6,0.9c-0.7,1.1-1.4,2.2-2.1,3.3
	c-0.3,0.5-0.7,0.9-1.1,1.3c-0.3,0.4-0.6,0.7-0.9,1.1c-0.9,0.9-1.8,1.8-2.6,2.8c-0.3,0.3-0.6,0.7-0.9,1c-0.6,0.5-1.3,1-1.9,1.4
	c-0.1,0.1-0.4,0-0.5,0c-0.2,0.2-0.3,0.5-0.5,0.7c-0.7,0.4-1.5,0.8-2.3,1.2c-0.5,0.3-1,0.6-1.6,0.8c-0.5,0.2-1,0.4-1.6,0.6
	c-0.8,0.2-1.6,0.5-2.3,0.7c-0.6,0.2-1.2,0.4-1.8,0.5c-0.8,0.1-1.5,0.5-2.3,0.4c-0.6-0.1-1.3,0.2-2,0.3c-0.5,0-0.9-0.1-1.4-0.1
	c-0.6,0-1.2,0-1.8,0c-0.7,0-1.4,0.3-2,0.2c-1-0.1-2-0.4-3-0.6c-0.4-0.1-0.9-0.3-1.3-0.4c-0.2,0-0.4,0-0.6,0c0.1-0.3,0.4-0.5,0.4-0.8
	c0-0.2-0.3-0.4-0.5-0.6c1-0.9,2.1-1.9,3.2-2.8c0.4-0.3,0.9-0.7,1.4-0.4c1.4-1.2,2.9-2.1,4.5-2.7c0.8-0.3,1.5-0.6,2.2-0.9
	c1.3-0.6,2.7-1.2,4.1-1.7c0.1,0,0.2-0.1,0.3-0.2c0.6-0.9,1.6-1.2,2.5-1.7c0.2-0.1,0.5-0.1,0.7-0.2c1.3-0.6,2.2-1.7,3.3-2.6
	c0.6-0.5,1.2-1,1.7-1.6c0.2-0.2,0.3-0.4,0.5-0.7c0.1-0.1,0.1-0.3,0.2-0.4c0.8-1.2,1.6-2.4,2.5-3.7c0.4-0.6,0.8-1,0.9-1.8
	c0.1-0.7,0.6-1.2,0.9-1.9c0.3-0.8,0.5-1.5,0.8-2.3c0-0.1,0-0.2,0.1-0.3c0.9-0.6,0.7-1.5,0.8-2.3c0.1-0.8,0.3-1.6,0.4-2.4
	c0-0.1,0.2-0.2,0.4-0.3c0-0.1-0.1-0.3-0.1-0.5c0-0.2-0.1-0.5,0-0.6c0.6-0.5,0.1-1,0-1.5c-0.2-0.9-0.3-1.8-0.3-2.8
	c0-1.5-0.6-2.8-0.9-4.2c-0.1-0.4-0.5-0.7-0.8-1.1c0.4-0.2,0.2-0.5-0.1-0.9c-0.4-0.5-0.6-1.1-1-1.6c-0.2-0.3-0.4-0.6-0.7-0.9
	c-0.2-0.3-0.4-0.5-0.6-0.7c-0.2-0.2-0.3-0.5-0.5-0.6c-0.8-0.5-1.5-1.3-2.7-1.2c0.2-0.7,0.8-0.8,1.3-1.1c-0.2-0.3-0.4-0.7-0.7-0.9
	c-0.9-0.4-1.3-1.2-1.7-1.9c-0.2-0.4-0.5-0.7-0.7-1c0.2-0.4,0.4-0.9,0.5-1.4c0.4-1.3,1.2-2.3,2.5-2.7c0.2-0.1,0.3-0.1,0.4-0.2
	c0.3-0.2,0.5-0.4,0.2-0.7c-0.1-0.1-0.1-0.2-0.1-0.4c0,0,0.1-0.1,0.1-0.1c0.1,0.1,0.3,0.2,0.3,0.4c0.2,0.4,0.5,0.5,0.9,0.6
	c0.8,0.2,1.7,0.5,2.5,0.7c0.1,0,0.2,0.1,0.3,0.2c0.3,0.7,1,1,1.6,1.4c0.8,0.5,1.5,1.2,2.3,1.8c0,0,0.1-0.1,0.2-0.2
	c0.1,0.1,0.1,0.1,0.1,0.1c0.1,0.3,0.2,0.6,0.4,0.8c0.6,0.6,1.2,1.1,1.3,2c0,0,0,0.1,0.1,0.1c0.6,0.6,1.1,1.3,1.7,1.9
	c0.1,0.1,0.4,0.1,0.6,0.1c0.5-0.2,0.9-0.4,1.4-0.6c0,0,0,0.1,0.1,0.1c-0.5,0.3-0.9,0.6-1.5,1c0.1,0.2,0.2,0.6,0.3,0.9
	c0.6,1.5,1.3,3.1,1.8,4.6c0.2,0.6,0.1,1.2,0.2,1.9c0,0.1,0,0.2,0,0.3c0.7,1.2,0.5,2.6,0.6,3.9c0.1,0.7,0.1,1.4,0.1,2.1
	c0,0.4-0.2,0.7-0.3,1.1c0,0.1-0.1,0.2-0.1,0.3C61.6,37.3,61.1,38.7,60.9,40.1z"/>
</svg>
