<?xml-stylesheet type="text/css" href="/CMS_Themes/Default/Css/pest-icons.css" ?>
<svg version="1.1" id="Layer_1" xmlns="http://www.w3.org/2000/svg" viewBox="0 0 82.3 82.3" width="100%" height="100%">
<g>
	<path fill="#102e52" class="pest-search__item-icon" d="M20,48.3c-0.2,0.2-0.3,0.5-0.5,0.7c0.2-0.1,0.4-0.2,0.6-0.3c0.1-0.1,0.2-0.2,0.2-0.3c0-0.1-0.1-0.1-0.1-0.2
		C20.2,48.2,20.1,48.2,20,48.3z"/>
	<path fill="#102e52" class="pest-search__item-icon" d="M35.7,33c-0.4,0.4-0.7,0.9-0.8,1.5c0,0.1,0,0.2,0,0.3c0,0,0,0,0.1,0c0,0,0.1-0.1,0.1-0.1
		c0.1-0.5,0.4-0.8,0.8-1.1c0.1-0.1,0.1-0.1,0.2-0.2c0.1-0.1,0.1-0.4,0-0.5C35.8,32.7,35.7,32.9,35.7,33z"/>
	<path fill="#102e52" class="pest-search__item-icon" d="M29.6,35.4c0-0.2,0.1-0.4,0.2-0.6c0.1-0.3,0.1-0.4-0.1-0.6C29.4,34.5,29.4,35.3,29.6,35.4z"/>
	<path fill="#102e52" class="pest-search__item-icon" d="M58.7,37.3c0.5-0.4,1-0.8,1.7-1c0,0,0,0,0.1-0.1c0.1-0.1,0.1-0.2,0.2-0.4C59.9,36.2,59.2,36.6,58.7,37.3z"/>
	<path fill="#102e52" class="pest-search__item-icon" d="M41.2,0C18.4,0,0,18.4,0,41.2s18.4,41.2,41.2,41.2c22.7,0,41.2-18.4,41.2-41.2S63.9,0,41.2,0z M77.2,46.5
		c-0.7,0.1-1.3,0.3-2,0.4c-1.3,0.1-2.5,0.3-3.8,0.4c-1.4,0.1-2.8,0.1-4.1-0.1c-0.4-0.1-0.7-0.2-1.1-0.3c-0.2,0-0.3-0.1-0.5-0.1
		c0,0.1,0,0.1,0,0.1c0,0.6,0,0.6-0.5,0.7c-0.6,0.1-1.1,0.1-1.7-0.1c-0.2,0-0.5,0-0.7,0c0,0,0,0,0,0.1c0.1,0.1,0.1,0.1,0.2,0.2
		c0.3,0.1,0.6,0.3,1,0.4c0.3,0.1,0.7,0.3,1,0.4c0.3,0.1,0.3,0.3,0,0.5c-0.3,0.2-0.7,0.4-1.1,0.6c-0.7,0.3-1.3,0.3-2,0
		c-0.4-0.2-0.8-0.4-1.2-0.5c0.1,0.1,0.2,0.1,0.2,0.2c0.6,0.4,1.2,0.7,1.9,1.1c0.1,0.1,0.2,0.2,0.2,0.3c0,0.1-0.2,0.2-0.3,0.3
		c-0.5,0.2-0.9,0.3-1.4,0.4c-0.8,0.1-1.5-0.3-2.1-0.7c-0.1,0-0.1-0.1-0.2-0.1c0,0,0,0-0.1,0c0.3,0.3,0.5,0.5,0.8,0.7
		c0.3,0.2,0.6,0.4,0.9,0.6c0.1,0.1,0.1,0.2,0,0.3c-0.1,0.1-0.2,0.1-0.3,0.2c-0.1,0.1-0.1,0.2,0,0.3c0.4,0.4,0.8,0.7,1.1,1.1
		c0.2,0.2,0.3,0.3,0.5,0.5c0.1,0.2,0.1,0.3,0,0.5c-0.2,0.1-0.3,0.1-0.5-0.1c-0.4-0.4-0.8-0.8-1.2-1.3c-0.4-0.3-0.8-0.7-1.2-1
		c0,0-0.1,0-0.2-0.1c0,0.1-0.1,0.2-0.1,0.3c0,0,0,0-0.1,0c-0.1-0.3-0.4-0.5-0.7-0.5c0.1,0.1,0.2,0.2,0.3,0.2
		c0.2,0.2,0.2,0.3-0.1,0.4c-0.3,0.1-0.6,0.3-0.9,0.3c-0.8,0.2-1.7,0.4-2.6,0.5c-0.1,0-0.1,0-0.2,0.1c0.1,0.2,0.2,0.4,0,0.6
		c-0.2,0.2-0.5,0.1-0.6-0.1c-0.6-0.5-1.3-0.5-1.9-0.7c0,0,0,0,0,0.1c0.1,0.1,0.2,0.2,0.3,0.3c0.1,0.1,0.1,0.2,0.2,0.3
		c-0.1,0.1-0.2,0.2-0.3,0.2c-0.7,0.1-1.4,0.2-2.2,0.2c-0.9,0.1-1.8,0-2.7-0.1c-0.5-0.1-1-0.3-1.4-0.6c-0.1,0-0.1-0.1-0.2-0.1
		c0,0.3,0,0.3,0.4,0.6c-0.1,0-0.2-0.1-0.3-0.1c-0.1,0-0.1,0-0.2,0c0,0.1,0,0.1,0.1,0.2c0.1,0.1,0.1,0.1,0.2,0.3
		c-0.1,0-0.1,0-0.3-0.1c0.1,0.3,0.2,0.6,0.3,0.9c0.2,0.4,0.3,0.9,0.5,1.3c0.1,0.2-0.1,0.2-0.2,0.2c-0.1,0-0.3,0-0.4-0.1
		c-0.1-0.1-0.1-0.3-0.2-0.4c-0.2-0.5-0.4-1.1-0.6-1.6c0-0.1-0.1-0.1-0.2-0.1c0,0-0.1,0.1-0.1,0.1c0,0.1,0,0.3-0.1,0.4
		c-0.1-0.3-0.1-0.6-0.2-0.9c-0.1,0-0.1,0-0.1,0c-0.1,0.3-0.3,0.3-0.6,0.3c-0.4-0.1-0.7,0-1.1-0.1c-0.5-0.1-0.9-0.3-1.4-0.5
		c-0.1,0-0.1-0.1-0.2-0.1c0,0,0,0,0,0.1c0.1,0.1,0.2,0.2,0.3,0.3c0.1,0.1,0.2,0.2,0.3,0.3C41.1,54.9,41,55,40.8,55
		c-0.3,0-0.6,0-0.9-0.1c-0.3,0-0.3,0.1-0.2,0.3c0.1,0.4,0.2,0.7,0.4,1.1c0.1,0.2,0.2,0.3,0.3,0.4c0,0.2-0.2,0.3-0.3,0.3
		c-0.2,0-0.3-0.2-0.4-0.3c-0.2-0.2-0.3-0.5-0.4-0.8c-0.1-0.3-0.2-0.6-0.4-0.9c0-0.1-0.2-0.2-0.3-0.2c-1.2-0.1-2.1-0.6-2.9-1.4
		c0,0,0,0-0.1,0c0.1,0.2,0.3,0.4,0.4,0.6c0.1,0.2,0.3,0.3,0.4,0.5c0.2,0.2,0.1,0.4-0.1,0.4c-0.4,0-0.7,0-1.1,0
		c-0.7-0.1-1.5-0.1-2.2-0.2c-0.9-0.1-1.6-0.6-2.2-1.2c-0.1-0.1-0.2-0.1-0.2-0.2c0,0,0,0-0.1,0.1c0,0.1,0.1,0.2,0.1,0.2
		c0.2,0.2,0.4,0.5,0.6,0.7c0.2,0.2,0.2,0.4-0.1,0.4c-0.3,0-0.5,0.1-0.8,0.1c-0.8,0-1.6-0.1-2.4-0.2c-0.8-0.1-1.6-0.5-2.2-1.1
		c0,0,0,0-0.1-0.1c0,0,0,0,0,0c0.1,0.1,0.1,0.3,0.2,0.4c0.1,0.2,0,0.4-0.2,0.4c-0.4,0-0.8,0-1.2-0.1c-0.9-0.2-1.7-0.4-2.6-0.7
		c-1.4-0.5-2.7-1.1-3.7-2.2c-0.2-0.2-0.4-0.5-0.6-0.7c-0.2-0.3-0.1-0.5,0.2-0.7c0.3-0.1,0.5-0.2,0.8-0.3c0.2-0.1,0.4-0.1,0.6-0.2
		c0,0,0,0,0-0.1c-0.1,0-0.3,0-0.4,0c-0.3,0.2-0.6,0.2-0.9,0.1c-0.2-0.1-0.4-0.1-0.5,0c-0.4,0.2-0.8,0.3-1.2,0
		c-0.5-0.3-0.8-0.7-0.9-1.2c0-0.1,0-0.3,0-0.4c0-0.1,0-0.2-0.1-0.2c-0.5,0-1-0.2-1.5-0.1c0,0-0.1,0-0.2,0.1c0.1,0.1,0.1,0.1,0.2,0.2
		c0.4,0.4,0.7,0.9,0.8,1.5c0.1,0.3,0,0.3-0.3,0.3c0,0.1,0,0.1,0,0.2c0.2,0.6,0.4,1.2,0.6,1.7c0.4,1.1,0.8,2.2,1.3,3.2
		c0.1,0.3,0.2,0.5-0.2,0.7c0,0,0,0,0,0c0.1,0,0.2,0,0.3,0c0.9-0.2,1.8-0.2,2.7-0.1c1.2,0.1,2.4,0.3,3.5,0.5c0.9,0.2,1.8,0.5,2.8,0.8
		c0.2,0.1,0.4,0.2,0.4,0.4c0,0,0,0.1,0.1,0.1c0.7,0.6,1.3,1.3,2,1.9c0.7,0.6,1.4,1.1,2.1,1.7c0.1,0.1,0.2,0.1,0.2,0.2
		c0,0.1,0.1,0.2,0,0.2c0,0.1-0.2,0.1-0.2,0.1c-0.2-0.1-0.5-0.2-0.7-0.3c-0.4-0.2-0.7-0.5-1.1-0.7c0,0-0.1-0.1-0.1-0.1
		c-0.5,0-0.8-0.5-1.1-0.8c-0.5-0.4-1-0.9-1.4-1.5c-0.1-0.1-0.2-0.1-0.3-0.1c-0.2,0.1-0.4,0-0.5,0c-1-0.4-2.1-0.7-3.2-0.9
		c-1.4-0.3-2.9-0.5-4.3-0.5c-0.4,0-0.8,0-1.2,0c-0.2,0-0.5-0.1-0.7-0.2c-0.1,0-0.2-0.1-0.3-0.1c-0.2,0-0.4-0.1-0.4-0.3
		c-0.3-1-0.6-2-0.9-3.1c-0.2-0.6-0.2-1.3-0.4-2c0-0.2-0.1-0.2-0.3-0.1c0,0-0.2,0-0.2,0c-0.1-0.1-0.1-0.2-0.2-0.3
		c-0.2-0.5-0.3-0.9-0.5-1.4c-0.2-0.6-0.3-1.1-0.3-1.7c0-0.3,0-0.6,0-0.8c0-0.3,0.2-0.5,0.6-0.6c0.6-0.2,1.2-0.4,1.9-0.6
		c0.1,0,0.1,0,0.2-0.1c0.7-0.2,1,0.1,0.9,0.8c0,0.1,0,0.2,0.1,0.4c0,0,0.2,0,0.2,0c0.2-0.1,0.2-0.2,0.1-0.4
		c-0.2-0.2-0.3-0.5-0.4-0.7c0-0.1-0.1-0.2,0-0.2c0-0.2,0.1-0.5,0-0.7c0,0,0-0.1,0-0.2c0-0.1,0-0.2-0.1-0.2c0,0-0.1,0-0.2,0
		c-0.2,0.3-0.5,0.3-0.8,0.2c-0.5-0.2-1-0.4-1.5-0.7c-0.2-0.1-0.4-0.2-0.7-0.3c-0.3-0.1-0.4-0.3-0.4-0.5c-0.1-0.8-0.2-1.7,0.2-2.5
		c0.2-0.5,0.4-1,0.5-1.5c0-0.1,0.1-0.2,0.1-0.3c0,0,0.2-0.1,0.2,0c0.2,0.1,0.3,0.1,0.3-0.1c0-0.8,0.3-1.7,0.5-2.5
		c0.1-0.2,0.1-0.4,0.2-0.6c0-0.1,0-0.2,0-0.3c0-0.2,0-0.3,0.1-0.5c0,0.1,0,0.3,0,0.4c0,0,0.1,0,0.1,0c0-0.2,0-0.4,0.1-0.6
		c0.1-0.2,0.2-0.5,0.2-0.7c0.1-0.3,0.3-0.6,0.6-0.7c0.1,0,0.2,0,0.2-0.1c0.4-0.2,0.8-0.2,1.2-0.2c0.6,0,1.2,0,1.8,0
		c1.1-0.1,2.1-0.2,3.2-0.4c1-0.2,2.1-0.4,3.1-0.9c0.2-0.1,0.5-0.2,0.8,0c0,0,0.2-0.1,0.2-0.1c0.3-0.3,0.5-0.7,0.8-0.9
		c0.4-0.4,0.8-0.9,1.3-1.1c0.4-0.2,0.8-0.5,1.2-0.7c0.3-0.2,0.6-0.4,1-0.5c0.1-0.1,0.3-0.2,0.4,0c0.1,0.2-0.1,0.3-0.2,0.4
		c-0.4,0.4-0.9,0.7-1.4,1c-0.4,0.3-0.7,0.6-1.1,0.9c-0.6,0.5-1.2,1.1-1.8,1.7c0,0-0.1,0.1-0.1,0.1c0,0.3-0.2,0.4-0.4,0.5
		c-1.3,0.4-2.5,0.8-3.8,1c-0.5,0.1-1,0.2-1.6,0.2c-1.2,0.1-2.4,0.2-3.5-0.1c-0.1,0-0.2,0-0.3,0c0.1,0.2,0.1,0.3,0.2,0.5
		c0,0.1,0.1,0.1,0.2,0.2c0,0,0.1,0.1,0.1,0.1c-0.1,0-0.2-0.1-0.3-0.1c0,0-0.1,0.1,0,0.1c0.1,0,0.1,0.1,0.2,0.1
		c-0.2,0-0.3,0.1-0.4,0.3c-0.2,0.7-0.5,1.4-0.8,2c-0.2,0.6-0.4,1.3-0.7,1.9c-0.1,0.2-0.2,0.4-0.3,0.6c0.3,0,0.4,0.1,0.2,0.4
		c-0.2,0.5-0.5,0.9-0.8,1.4c0,0.1-0.1,0.1-0.2,0.2c0.5,0.3,1,0.1,1.6,0c-0.1-0.4-0.1-0.7,0.1-1c0.2-0.3,0.4-0.5,0.6-0.7
		c0.3-0.3,0.7-0.3,1.1-0.1c0.3,0.1,0.5,0.1,0.7,0c0.2-0.1,0.4,0,0.7,0c0.1,0,0.1,0,0.2,0c0.5-0.1,0.8,0.2,1.1,0.6
		c0.1,0.1,0.1,0.2,0.2,0.3c0.3-0.1,0.3-0.3,0.2-0.5c-0.2-0.4-0.6-0.5-0.9-0.6c-0.4-0.1-0.7-0.2-1.1-0.3c-0.2,0-0.4-0.1-0.5-0.2
		c-0.3-0.2-0.4-0.4-0.3-0.7c0.2-0.5,0.5-0.9,0.8-1.2c0.9-1,2-1.7,3.3-2.2c0.9-0.3,1.8-0.6,2.6-0.9c0.2-0.1,0.5-0.1,0.7-0.1
		c0.3,0,0.4,0.1,0.3,0.4c-0.2,0.4-0.3,0.8-0.5,1.2c0,0.1,0,0.2-0.1,0.3c0,0,0,0,0.1,0c0.1-0.1,0.2-0.2,0.3-0.4
		c0.6-1.2,1.6-1.8,2.8-2c0.7-0.1,1.5-0.2,2.2-0.4c0,0,0.1,0,0.1,0c0.2,0.1,0.4,0.1,0.5,0.2c-0.1,0.1-0.1,0.3-0.2,0.4
		c-0.1,0.2-0.1,0.5,0.1,0.6c0,0,0.2,0,0.3,0c0.3-0.2,0.5-0.4,0.8-0.6c0.6-0.4,1.2-0.6,1.9-0.7c0.8-0.1,1.6-0.1,2.4-0.2
		c0.1,0,0.2,0,0.3,0c0.3,0,0.4,0,0.6-0.3c0.3-0.5,0.7-1.1,1.1-1.6c0.1-0.1,0.2-0.2,0.3-0.3c0.3-0.2,0.9,0.1,0.9,0.5
		c-0.1,0-0.3-0.1-0.4-0.1c-0.2,0.3-0.4,0.7-0.6,1c0,0.1-0.1,0.1-0.1,0.2c-0.1,0.1-0.2,0.2,0,0.3c0,0,0,0.2,0,0.3
		c0.3,0,0.6-0.1,0.8-0.1c0.8-0.1,1.5-0.1,2.3-0.2c0.1,0,0.2,0,0.3,0c0.1,0,0.2,0.1,0.2,0.1c0,0.1-0.1,0.2-0.1,0.2
		c-0.1,0.1-0.2,0.1-0.3,0.2c0.2,0.1,0.4,0,0.5-0.1c0.3-0.4,0.8-0.4,1.2-0.5c0.4-0.1,0.7-0.1,1.1-0.1c0.3,0,0.4-0.1,0.4-0.4
		c0-0.5,0.1-1,0.2-1.5c0-0.3,0.1-0.3,0.4-0.3c0.1,0,0.2,0,0.3-0.1c0.5-0.7,1.2-1.3,1.8-1.8c0.2-0.2,0.4-0.1,0.6,0
		c0.1,0,0.1,0.2,0.1,0.3c0,0.1,0.1,0.3,0.1,0.4c-0.3-0.2-0.2-0.2-0.5,0.1c-0.2,0.2-0.5,0.4-0.7,0.7c-0.1,0.2-0.3,0.3-0.4,0.5
		c0,0-0.1,0.1-0.1,0.1c-0.1,0.1-0.3,0.3-0.4,0.4c0,0,0,0,0,0.1c0.1-0.1,0.3-0.1,0.4-0.1c-0.1,0.4-0.3,0.9-0.4,1.4
		c-0.1,0.2,0,0.3,0.2,0.3c0.1,0,0.3,0,0.4,0.1c0.1,0,0.2,0.1,0.2,0.2c0,0.1,0,0.2-0.1,0.2c-0.2,0.2-0.4,0.3-0.5,0.5c0,0,0,0,0,0.1
		c0.1,0,0.1,0,0.2-0.1c0.9-0.5,1.8-0.7,2.9-0.8c0.9,0,1.8,0,2.6,0.2c0.2,0,0.3,0,0.4-0.2c0,0,0,0,0,0c0.1,0.1,0.1,0.2,0.2,0.3
		c0.1-0.1,0.2-0.1,0.3-0.2c0.2-0.3,0.4-0.7,0.7-1c0.1-0.2,0.3-0.4,0.4-0.6c0.1-0.2,0.3-0.1,0.4,0c0.1,0.1,0.3,0.2,0.2,0.4
		c-0.1,0.2-0.2,0.5-0.4,0.7c-0.3,0.4-0.6,0.9-0.9,1.3c0,0,0,0.1-0.1,0.1c0.1,0,0.2,0,0.3,0c1.5-0.1,2.9,0.1,4.3,0.5
		c0.4,0.1,0.8,0.3,1.2,0.5c0.3,0.1,0.3,0.3,0.1,0.5c-0.1,0.1-0.3,0.3-0.4,0.4c0.5-0.1,0.9-0.2,1.3-0.2c0.1,0,0.2-0.1,0.3-0.2
		c0.1-0.1,0.2-0.2,0.3-0.3c0,0.2-0.1,0.3-0.1,0.6c0.2-0.1,0.3-0.2,0.4-0.3c0.5-0.4,1.1-0.9,1.6-1.3c0.2-0.2,0.3-0.4,0.5-0.5
		c0.1-0.1,0.3-0.1,0.4,0c0.1,0.2,0.1,0.3,0,0.5c-0.4,0.4-0.8,0.8-1.2,1.2c-0.2,0.2-0.4,0.3-0.6,0.5c-0.1,0.1-0.1,0.2,0,0.3
		c0.3,0.1,0.3,0.2,0.2,0.4c0.1,0,0.2,0,0.2,0c-0.3,0.1-0.5,0.2-0.6,0.5c0.1,0,0.2,0,0.2-0.1c0.1-0.1,0.3-0.1,0.4-0.2
		C61.1,36,61,36,60.9,36.1c0.3,0,0.6,0,0.9,0c-0.1-0.2-0.2-0.3-0.3-0.5c0.1,0.1,0.2,0.2,0.2,0.3c0.2,0.2,0.4,0.4,0.7,0.3
		c0.2,0.1,0.4,0.2,0.6,0.3c0.2,0.1,0.3,0.2,0.4,0.4c-0.1,0.1-0.3,0.3-0.4,0.3c-0.4,0.2-0.7,0.3-1.1,0.5c-0.1,0-0.1,0.1-0.1,0.1
		c0.2-0.1,0.4-0.1,0.6-0.2c0.5-0.1,1-0.1,1.5,0.1c0.5,0.2,0.9,0.5,1.3,0.8c0.2,0.2,0.2,0.4-0.1,0.5c-0.4,0.2-0.8,0.3-1.3,0.4
		c-0.4,0.1-0.8,0.2-1.1,0.6c0.2,0,0.4,0.1,0.6,0.1c0.4,0,0.8-0.1,1.2-0.1c0.4,0,0.7,0.1,1.1,0.2c0.1,0,0.1,0.2,0.2,0.3
		c0,0.1,0,0.2,0,0.4c0.3-0.1,0.6-0.1,0.9-0.1c0.8-0.1,1.6-0.2,2.3-0.2c1.3,0,2.5,0.2,3.8,0.4c1.3,0.3,2.5,0.5,3.8,0.8
		c0.3,0.1,0.6,0.2,0.9,0.4c0.3,0.2,0.3,0.4,0,0.5c-0.3,0.2-0.6,0.3-0.9,0.3c-0.4,0.1-0.8,0.1-1.3,0.1c-1.3,0-2.7,0.1-4,0.1
		c-1.7,0-3.3-0.1-5-0.1c-0.1,0-0.2,0-0.2,0c0.1,0.1,0.2,0.2,0.2,0.4c0.1,0.2,0,0.3-0.1,0.5c-0.2,0.2-0.1,0.3,0.1,0.4
		c0.3,0,0.6,0.1,0.8,0.1c0.1,0,0.1-0.1,0.2-0.1c0,0,0-0.1,0-0.2c0-0.5,0-0.5,0.5-0.5c0.4,0,0.8,0,1.2,0c0.2,0,0.3,0.1,0.3,0.3
		c0,0.1,0,0.3,0,0.4c0,0.2,0.1,0.2,0.2,0.2c0.4,0,0.8,0,1.2,0c1.1,0,2.3,0.2,3.4,0.3c0.8,0.1,1.5,0.2,2.3,0.3
		c0.3,0.1,0.6,0.2,0.9,0.3c0.2,0.1,0.5,0.2,0.4,0.5C77.7,46.4,77.4,46.4,77.2,46.5z"/>
</g>
</svg>
