<?xml-stylesheet type="text/css" href="/CMS_Themes/Default/Css/pest-icons.css" ?>
<svg version="1.1" id="Layer_1" xmlns="http://www.w3.org/2000/svg" viewBox="0 0 82.3 82.3" width="100%" height="100%">
<path fill="#102e52" class="pest-search__item-icon" d="M41.2,0C18.4,0,0,18.4,0,41.2c0,22.7,18.4,41.2,41.2,41.2c22.7,0,41.2-18.4,41.2-41.2C82.3,18.4,63.9,0,41.2,0z
	 M73.2,49.1c-0.6,0.4-0.9-0.3-1.3-0.1c0.2,0.5,0.5,1,0.7,1.5c0,0-0.1,0.1-0.1,0.1c-0.2-0.2-0.4-0.4-0.7-0.6c-0.3,0.5-0.3,1.1-1,1.1
	c0,0.1,0,0.2,0,0.3c0.6,0.8,1,1.7,0.6,2.8c-0.1,0.5-0.5,0.9-0.9,1.2c0-0.2,0-0.4,0-0.7c0-0.5,0-1-0.1-1.4c-0.1-0.2-0.6-0.5-0.9-0.5
	c-0.7-0.1-1.3,0-2,0c-1.3,0.1-1.9,0.7-2.1,2.2c0,0,0,0.1,0,0.1c0,0,0-0.1,0-0.1c-0.3-0.7-0.6-1.3-0.9-2c-0.1,0.1-0.3,0.3-0.5,0.6
	c0-0.5-0.1-0.8-0.1-1.2c-0.2,0.3-0.3,0.6-0.6,1c0.1-0.4,0.1-0.6,0.1-0.9c-0.2,0-0.6,0.1-0.7,0c-0.2-0.2-0.2-0.5-0.3-0.8
	c-0.4,0.1-0.7,0.3-1.1,0.4c0-0.3-0.1-0.6-0.1-0.9c-0.4,0.1-1,0.4-0.9-0.4c-0.6,0-1.1,0-1.7,0c0-0.2,0-0.4,0-0.6c-0.2,0-0.5,0-0.7,0
	c-0.2,0-0.4,0-0.6,0c0-0.2,0.1-0.4,0.1-0.7c-0.3,0.1-0.6,0.3-1.1,0.5c0-0.4,0.1-0.6,0.1-0.8c-0.5,0.2-1,0.4-1.7,0.6
	c0.1-0.5,0.1-0.7,0.2-0.9c-0.5,0.2-0.9,0.5-1.2,0.6c-0.1-0.3-0.2-0.8-0.4-0.8c-0.5,0-1,0.1-1.6,0.2c0,0-0.1-0.2-0.2-0.5
	c-0.3,0.3-0.5,0.6-0.7,0.8c0-0.3,0-0.7,0-1.3c-0.6,0.3-1,0.5-1.5,0.8c0.1-0.2,0.2-0.4,0.2-0.6c-0.7,0.8-1.5,1-2.4,0.6
	c-0.2-0.1-0.4-0.3-0.5-0.3c-1.4-0.5-2.7,0.6-4.1,0.1c-0.1-0.1-0.4,0.2-0.6,0.2c-0.3,0-0.6,0-0.9,0c-0.6,0-1.2-0.1-1.8,0.1
	c-0.8,0.2-1.6,0.6-2.5,0.3c-0.6-0.2-1.3,0.1-1.9,0.2c0-0.1,0-0.3,0-0.4c-1.7,0.5-3.3,1-5,1.4c0.1-0.2,0.2-0.3,0.3-0.6
	c-0.4,0.2-0.7,0.4-1,0.6c-0.5-0.9-1.1-0.3-1.7-0.3c-0.2,0-0.4,0.2-0.5,0.1c-0.6-0.7-1.1-0.3-1.8,0.1c0.1-0.3,0.1-0.4,0.2-0.6
	c-0.3,0.1-0.5,0.2-0.8,0.4c0-0.2,0.1-0.3,0.1-0.5c-0.6-0.4-1.5,0.8-2.1-0.4c-0.6,0.3-1.2,0.6-1.7,1c0-0.6-0.4-0.8-0.8-0.7
	c-0.5,0.1-1,0.3-1.5,0.5c0.1-0.4,0.2-0.6,0.3-1c-0.8,0.3-1.4,0.6-1.9,0.8c0-0.1,0-0.3,0-0.4l-3.4,0.9c0.1-0.1,0.1-0.1,0.2-0.2
	c-0.8-0.1-1.5-0.1-2.2-0.2c-0.1,0.1-0.3,0.2-0.4,0.3c-0.3,0.3-0.5,0.6-1,0.4c-0.2-0.1-0.6,0.2-0.9,0.4C9,51.1,9,51.1,9,51
	c0.6-0.4,1.1-0.8,1.7-1.2c0,0-0.1-0.1-0.1-0.1c-0.3,0.1-0.6,0.3-0.8,0.4c0.5-0.8,1.5-1.3,1.8-2.3c-1.3,0.9-2.5,2-4.1,2.3
	c0.8-0.5,1.6-1.1,2.5-1.6c0-0.1-0.1-0.1-0.1-0.2c-0.3,0.1-0.6,0.2-0.9,0.3c0.2-0.4,0.2-0.4,1-0.9c0.4-0.2,0.9-0.4,0.8-1
	c-0.6,0.2-1.1,0.5-1.7,0.7c-0.2,0.1-0.5,0-0.6-0.1c-0.2-0.2-0.2-0.5,0.1-0.7c0.4-0.3,0.4-0.6,0-0.9c0.5-0.2,0.9-0.4,1.3-0.6
	c0-0.1,0-0.1-0.1-0.2c-1.2,0.2-2.4,0.6-3.6,1.2c0-0.1,0-0.1-0.1-0.2c0.1-0.1,0.1-0.3,0.2-0.4c-0.2,0-0.5-0.1-0.8-0.1
	c1.2-0.6,2.5-0.2,3.6-1.1c-0.7-0.1-1.2,0.1-1.7,0.2c-0.2,0.1-0.5,0.2-0.6,0.2c-0.8-0.5-1.7-0.1-2.6-0.1c-0.3,0-0.6,0-1,0
	c0.3-0.4,0.6-0.3,1-0.3c1.3,0,2.5-0.2,3.8-0.7c-0.4-0.1-0.6-0.1-0.9-0.2c0.2-0.1,0.4-0.1,0.5-0.2c0,0,0-0.1,0-0.1
	c-2.1,0.1-4.2,0.1-6.2,0.2c2.4-0.4,4.8-0.3,7.2-0.9c-1.3-0.2-2.5-0.4-3.8-0.7c0.7-0.4,1.3,0.3,2.1-0.2c-1.4-0.9-3-0.8-4.3-1.7
	c1-0.1,1.9,0.9,2.9,0.2c0-0.3-0.7-0.2-0.4-0.6c-0.3-0.1-0.6-0.3-0.9-0.4c0,0,0-0.1,0-0.1c0.9,0.1,1.7,0.3,2.7,0.4
	c0,0,0.1-0.2,0.2-0.3c-1.4-0.2-2.8-0.5-4.1-0.7c0,0,0-0.1,0-0.1c0.7,0.1,1.4,0.1,2.1,0.2c0.7,0.1,1.4,0.1,2.3,0.2
	c-0.2-0.3-0.3-0.4-0.4-0.5c0.4-0.2,0.9-0.3,1.4-0.6c-1.4-0.7-3-0.6-4.3-1.1c0-0.1,0-0.1,0-0.2c0.8,0.1,1.7,0.3,2.6,0.4
	c-0.2-0.4-0.3-0.6-0.4-0.9c0.7,0.4,1.2,0.8,1.8,1c0.6,0.2,1.3,0.3,2,0.4c-0.7-0.8-1.7-0.9-2.7-1.5c1.2-0.2,2.2,0.4,3.4,0.2
	c-1.3-0.6-2.5-1.2-3.7-1.8c0,0,0-0.1,0-0.1c0.5,0.1,1,0.3,1.5,0.4c0,0,0-0.1,0.1-0.1c-0.1-0.1-0.2-0.2-0.4-0.5
	c1,0.2,1.8,0.3,2.7,0.5C10.5,33,9.5,32.7,8.7,32c1.4-0.4,2.2,0.5,3.3,0.8c-0.1-0.6-0.6-0.8-0.9-1.1c-0.4-0.3-0.9-0.6-1.3-0.9
	c-0.4-0.3-0.5-0.6-0.2-1.1c-0.3-0.2-0.5-0.4-0.9-0.6c1.1-0.2,1.9,0.5,2.9,1c-0.1-0.3-0.2-0.6-0.3-0.8c0,0,0.1-0.1,0.1-0.1
	c0.2,0.1,0.4,0.3,0.6,0.4c0.2,0.1,0.4,0.3,0.6,0.1c0.1,0,0.2,0,0.3,0c0.2,0,0.5,0,0.7,0c0.2,0,0.4-0.1,0.6-0.1c0.5-0.1,0-0.3,0-0.6
	c0.5,0.2,1,0.5,1.4,0.7c0.2,0.1,0.4,0.2,0.5,0.1c0.1-0.1,0.2-0.4,0.2-0.5c0.1-0.6-0.5-0.8-0.8-1.3c0.6,0.3,1.1,0.5,1.8,0.8
	c0.1-0.7-0.1-1.1-0.7-1.5c-0.3-0.2-0.6-0.6-0.9-0.9c0-0.1,0.1-0.1,0.1-0.2c0.3,0.2,0.6,0.4,0.8,0.7c0.5,0.6,1,0.9,1.8,0.6
	c0.2-0.1,0.4,0,0.5,0.1c0.3,0.2,0.5,0.5,0.8,0.7c0.4,0.2,0.7,0.4,1.1,0.6c0.4,0.2,0.7,0.4,1.2,0.4c-0.1-0.3-0.2-0.5-0.3-0.8
	c0.1,0,0.2-0.1,0.3-0.1c-0.2-0.7-0.8-1.2-1.4-1.5c0.2-0.4,0.5-0.3,0.7-0.2c0.4,0.2,0.8,0.5,1.1,0.7c0.1,0.1,0.2,0.2,0.2,0.2
	c0.5,0.1,1,0.3,1.6,0.4c0.1-0.1,0.3-0.2,0.4-0.3c-0.2-0.3-0.5-0.6-0.7-0.9c0-0.1,0.1-0.1,0.1-0.2c0.2,0.1,0.3,0.1,0.4,0.2
	c0.6,0.5,1.4,0.6,2.1,0.8c0.3,0.1,0.8-0.1,1.2-0.1c0.2-1-1-1.3-1.1-2.2c0.6,0.2,1.1,0.2,1.4,0.8c0.2,0.3,0.6,0.5,1,0.8
	c0.1-0.5-0.1-0.7-0.4-0.9c-0.2-0.2-0.4-0.3-0.7-0.5c1.1,0,1.9,0.4,2.5,1.1c0.8-0.3,0.1-0.6,0.1-1.1c1,0.8,1.8,1.5,2.7,2.2
	c0.3-0.8-1.1-1-0.6-1.8c0.1,0.1,0.3,0.3,0.7,0.6c-0.1-0.4-0.2-0.7-0.4-1.2c1.2,1.6,1.2,1.6,1.7,1.3c0.1,0.3,0.2,0.5,0.3,0.8
	c0.1,0,0.1,0,0.2,0c0-0.5,0-1.1,0-1.8c0.4,0.6,0.7,1,1,1.4c0.1,0,0.1,0,0.2,0c-0.1-0.6,0.5-0.9,0.5-1.6c0.4,0.7,0.6,1.2,1,1.8
	c0.1-0.1,0.2-0.2,0.3-0.4c0.2,0.1,0.5,0.2,0.8,0.4c-0.1-0.3-0.1-0.6-0.2-0.9c0.3,0.2,0.5,0.3,0.8,0.6c0-0.5,0-0.9,0-1.5
	c0.6,0.6,0.1,1.8,1.2,1.9c0-0.5,0-1.1,0-1.7c0.7,0.3,0.3,1.1,0.6,1.6c0.2-0.1,0.5-0.1,0.7-0.2c0.6-0.4,0.9,0,1.3,0.4
	c0.3,0.3,0.5,0.7,0.9,0.9c-0.2-0.4-0.3-0.8-0.5-1.2c0,0,0.1,0,0.1-0.1c0.1,0.1,0.2,0.2,0.3,0.4c0.1,0.1,0.1,0.3,0.2,0.3
	c1-0.1,1,0.8,1.4,1.3c0,0,0.1,0,0.1,0c0.6-0.4,0.1-1.1,0.4-1.6c0.1,0.1,0.2,0.2,0.2,0.4c0.6,0,0.2-0.5,0.3-0.8c0.1,0,0.1,0,0.2,0
	c0,0.9,0.1,1.8,0.1,2.7c0.3-1.1,0.6-2.2,1-3.5c0.1,0.4,0.1,0.6,0.1,0.9c0.2-0.3,0.3-0.5,0.5-0.9c0.5,0.8,0.9,1.5,1.4,2.4
	c0.1-0.4,0.1-0.8,0.2-1.3c0.1,0.5,0.2,0.8,0.4,1.3c0.1-0.3,0.1-0.4,0.1-0.7c0.1,0.2,0.2,0.4,0.3,0.6c0,0,0.1,0,0.1,0
	c-0.1-0.6-0.2-1.2-0.3-1.8c0.6,0.8,0.5,1.7,0.9,2.5c0-0.3-0.1-0.6-0.1-0.9c-0.1-0.6-0.1-1.1,0.2-1.7c0.5,1.1,0.5,2.2,0.9,3.3
	c0-0.5-0.1-1-0.1-1.5c0.1,0,0.1,0,0.2,0c0.1,0.3,0.2,0.6,0.3,1c0.1-0.9-0.1-1.8,0.3-2.8c0.4,0.8,0.5,1.5,0.6,2.2
	c0,0.2,0.1,0.5,0.3,0.7c0-0.3,0-0.6,0.1-0.8c0.1-0.2,0.3-0.4,0.5-0.6c0,0.2,0.1,0.4,0.2,0.7c0.1,0.2,0.2,0.4,0.3,0.4
	c0.7-0.1,0.7,0.6,1.1,0.9c0.2,0,0.4-0.1,0.6-0.1c0.1-0.3,0.1-0.6,0.2-0.9c0.4,0.3,0.3,0.6,0.3,0.9c0,0.4,0.4,0.3,0.7,0.5
	c0-0.5,0-0.9,0-1.3c0,0,0.1,0,0.1,0c0.1,0.3,0.1,0.6,0.2,0.9c0,0,0.1,0,0.1,0c0-0.6,0-1.1,0-1.7c0.6,0.8,0.2,1.8,0.6,2.6
	c0.3-0.2,0.3-0.2,0.5-0.7c0.1,0.3,0.3,0.5,0.4,0.8c0-0.2,0.1-0.5,0.1-0.7c0.2,0,0.3,0,0.5,0c0.1,0.6,0.2,1.2,0.3,1.9
	c0.4-0.5,0.8-0.9,1.2-1.3c0.1,0,0.1,0,0.2,0.1c-0.4,0.6,0.7,1.1,0,1.7c0.1,0,0.1,0,0.2,0.1c0.5-0.8,1-1.6,1.4-2.5c0,0,0.1,0,0.1,0.1
	c-0.2,0.6-0.5,1.1-0.7,1.7c0,0,0.1,0,0.1,0.1c0.3-0.3,0.5-0.7,0.8-1c0.3,0.3,0.3,0.5,0,0.8c-0.2,0.2-0.4,0.4-0.2,0.8
	c0.1,0.3-0.2,0.8-0.3,1.3c-0.1-0.1-0.2-0.2-0.5-0.4c0.1,0.9,0.2,1.6,0.3,2.3c0,0,0.1,0,0.1,0c0.1-0.3,0.3-0.7,0.4-1
	c0.1-0.3,0.1-0.7,0.1-1.2c0.2,0.3,0.3,0.4,0.4,0.6c0-0.3,0.1-0.5,0.1-0.8c0.1,0.1,0.2,0.2,0.2,0.2c0,0.3,0,0.5-0.1,1
	c0.6-1,1.1-1.8,1.6-2.6c0.1,1.2-0.5,2.2-0.5,3.3c0,0,0.1,0,0.1,0c0.1-0.2,0.2-0.3,0.3-0.5c0,0.1,0.1,0.1,0.1,0.1
	c0.2-0.2,0.3-0.5,0.4-0.7c0.3-0.7,0.7-1,1.6-0.9c-0.3,0.6-0.6,1.2-1,1.8c0.1,0,0.1,0.1,0.2,0.1c0.5-0.3,1-0.7,1.6-1.1
	c-0.3,0.5-0.5,0.8-0.7,1.1c0,0,0.1,0.1,0.1,0.1c0.5-0.4,1-0.7,1.5-1.1c-0.2,0.7-0.5,1.2-1.2,1.5c-0.4,0.2-0.6,0.5-0.9,0.7
	c0,0-0.1,0.1-0.1,0.1c0,0,0.1,0,0.1,0c0.2,0.4,0.2,0.8-0.2,1.1c0.1,0.3,0.1,0.7,0.2,1.1c0.2-0.5,0.4-1.1,0.6-1.7
	c0.1,0.1,0.1,0.1,0.3,0.2c0.3-0.5,0.6-1,1.3-1.4c-0.1,0.3-0.1,0.5-0.2,0.6c-0.1,0.3-0.5,0.6,0,0.9c0.1,0,0,0.3-0.1,0.5
	c-0.2,0.5-0.4,1-0.6,1.4c0.8-0.1,0.8-0.1,1.4-0.9c0.4-0.4,0.7-0.9,1.2-1.3c-0.4,0.7-0.8,1.5-1.1,2.2c0,0,0.1,0.1,0.1,0.1
	c0.2-0.1,0.4-0.1,0.6-0.2c-0.1,0.3-0.1,0.5-0.3,0.8c0.4-0.2,0.8-0.3,1.3-0.6c-0.2,0.3-0.3,0.5-0.5,0.7c0.2,0.1,0.3,0.2,0.5,0.3
	c0.2,0.3-0.1,0.9-0.5,1.1c-0.4,0.2-0.6,0.2-0.8,0.4c0.2,0,0.3,0,0.5,0c0,0,0,0.1,0,0.1c-0.3,0.1-0.6,0.2-1,0.3c0,0-0.1,0.1-0.1,0.1
	c1.1-0.2,2.1-0.3,3.1-0.4c-0.2,0.4-0.9,0.1-0.5,0.7c-0.4,0.1-0.8,0.1-1.1,0.2c0,0,0,0.1,0,0.1c0.6,0.2,1.2,0.4,1.8,0.6
	c-0.3,0.1-0.7,0.2-0.9,0.4c-0.2,0.2-0.2,0.6-0.3,1c-0.2,0-0.6,0.1-1.1,0.1c0.4,0.1,0.8,0.2,1.1,0.4c0,0,0,0.1,0,0.1
	c-0.3,0-0.6,0.1-0.9,0.1c0,0,0,0.1,0,0.1c0.3,0.1,0.6,0.2,0.9,0.3c0,0,0,0.1,0,0.1c-0.4-0.1-0.8-0.1-1.4-0.2
	c0.5,0.6,1.5,0.6,1.6,1.5c-0.2,0-0.4-0.1-0.7-0.1c0.1,0.6,0.9,0.2,1.1,0.7c-0.5,0-0.9,0.1-1.3,0.1C72.7,48.7,72.9,48.9,73.2,49.1z"
	/>
</svg>
