<?xml-stylesheet type="text/css" href="/CMS_Themes/Default/Css/pest-icons.css" ?>
<svg version="1.1" id="Layer_1" xmlns="http://www.w3.org/2000/svg" viewBox="0 0 82.4 82.4" width="100%" height="100%">

<path fill="#102e52" class="pest-search__item-icon" d="M80.5,40.3C79,41,77.8,42,76.9,43.4c-0.2,0.3-0.8,0.6-1.2,0.6c-2,0-3.9-0.1-5.9,0c-3.6,0.1-6.8,1.2-9.5,3.6
	c-0.8,0.7-1.4,1.6-2.2,2.6c-1-0.5-2-2.2-3.3-1.4c-1.6,1-2.9,2.4-4.1,3.9c-1.2,1.4-2,3-3.1,4.6c0.2,0.1,0.4,0.4,0.9,0.8
	c-1.2,0.4-2.3,0.8-3.6,1.2c0.2-0.6,0.3-0.9,0.4-1.3c-3.1,2.9-6.1,5.7-9.1,8.6c-0.5-1.7-1.7-3.2-3-4.7c-1.1-1.2-1.5-3-2.3-4.6
	c-0.2-0.5-0.5-1-0.9-1.7c-0.4,0.6-0.6,0.9-0.8,1.2c-0.6-0.1-1.4,0.1-1.8-0.2s-0.3-1-0.5-1.7c0.6,0.1,1,0.1,1.6,0.2
	c-0.1-0.6-0.2-1.2-0.4-1.7c-0.7-2.2-1.5-4.5-2.2-6.7c-0.5-1.7-1.1-2.1-2.8-1.5c-0.4,0.1-0.8,0.3-1.2,0.5c-0.1-0.3-0.2-0.5-0.2-0.8
	c-0.1-3.3-1.8-5.7-4.6-7.1c-2.2-1.2-4.7-1.8-7.1-2.7c-0.5-0.2-0.9-0.6-1.2-1.1c-1-1.9-1.8-4-3.8-5.2c-0.6-0.3-1.2-0.5-2.1-0.9
	c0.3-0.5,0.6-1.1,1-1.4c3.2-1.9,6.4-3.6,10.4-3.3c5.7,0.5,11.3,1.4,16.6,3.5c0.4,0.1,0.8,0.1,1.1,0.2c1,3.8,2,7.7,3.2,11.5
	c0.4,1.4,1.4,2.6,2.3,3.8c0.2,0.3,1,0.4,1.7,0.6c-0.2-0.9-0.2-1.6-0.4-2.1c-0.8-1.5-1-3-0.7-4.7c0.1-0.3-0.3-0.6-0.4-1
	c-0.1-0.5-0.1-0.9-0.2-1.4c0.5,0.1,1.2-0.1,1.6,0.2c2.1,1.5,3.8,3.4,5,5.7c0.4,0.7,0.7,1.5,1,2.1c2.7-2.5,5.4-5.1,8.1-7.6
	c0.1,0,0.1,0,0.2,0.1c-1.4,2.6-2.7,5.1-4.1,7.7c0.1,0.1,0.2,0.1,0.3,0.2c0.2-0.3,0.5-0.6,0.7-0.9c2.2-3.5,4.4-7,6.6-10.5
	c0.3-0.4,0.9-0.6,1.2-1c0.3-0.3,0.5-0.8,0.6-1c0.7,0.3,1.4,0.6,2.2,0.8c4.8,1.2,9.6,2.1,14.3,3.5c2.8,0.8,5,2.7,7,4.9
	C80.5,16.6,62.8,0,41.2,0C18.5,0,0,18.4,0,41.2s18.4,41.2,41.2,41.2S82.4,64,82.4,41.2c0-0.3,0-0.7,0-1C81.6,39.9,81,40,80.5,40.3z"
	/>
</svg>
