<?xml-stylesheet type="text/css" href="/CMS_Themes/Default/Css/pest-icons.css" ?>
<svg version="1.1" id="Layer_1" xmlns="http://www.w3.org/2000/svg" viewBox="0 0 82.4 82.4" width="100%" height="100%">
<path fill="#102e52" class="pest-search__item-icon" d="M41.2,0C18.5,0,0,18.4,0,41.2s18.4,41.2,41.2,41.2S82.4,64,82.4,41.2S64,0,41.2,0z M62.4,25.1
	c-0.5,0.1-1,0.2-1.6,0.3C61.2,24.7,61.8,24.6,62.4,25.1z M72.7,41c-0.5,0.2-1,0.6-1.5,0.7c-1.3,0.3-2.4,0.6-3.4,1.6
	c-1,1.1-2.6,1.4-4,1.6c-2.4,0.4-4.8,0.4-7.3,0c-0.6-0.1-1.2-0.3-1.9-0.5c1.1,2.4,2.1,4.8,3.1,7.3c-1,0.2-1.1,0.3-0.8,1.1
	c0.2,0.8,0.4,1.6,0.5,2.4c0,0.3-0.3,0.7-0.4,1c-0.1,0.2,0,0.4,0,0.6c0,0.4,0.7,0.9,0,1.4c0,0,0.1,0.3,0.1,0.5c0,0.3,0,0.6-0.1,0.9
	c-0.1,0-0.1,0-0.2,0c0.1,0.4,0.2,0.8,0.3,1.2c-0.2,0-0.4,0-0.6,0c0.2,1-0.1,1.8-1.1,2.5c0.3-0.5,0.4-0.8,0.7-1.3
	c-0.4,0.1-0.6,0.2-0.7,0.3c0.2-0.4,0.5-0.8,0.6-1.3c0.1-0.4,0.1-0.9,0.2-1.4c0-0.1-0.2-0.2-0.3-0.4c0.2-0.3,0.3-0.7,0.5-1.1
	c-0.2,0-0.3-0.1-0.5-0.1c0.1-0.3,0.1-0.6,0.2-0.9c0.1-0.5,0.3-1-0.4-1.2c-0.1,0-0.2-0.3-0.2-0.4c-0.2-1-0.5-2.1-0.2-3.2
	c0-0.1,0-0.1-0.1-0.2c-0.2,0.1-0.3,0.3-0.6,0.4c-0.1-0.9-0.2-1.7-0.3-2.5c-0.1-0.5-0.2-1.1-0.3-1.6c-0.1-0.5,0-1.2-0.3-1.5
	c-0.5-0.6-0.4-1.3-0.7-1.9c-0.4-0.8-1-1.1-1.7-1c-1,0.1-2,0.3-3.1,0.5c0.3,1.6,0.6,3.2,0.9,4.8c0.7,0,1.4,0,2.3,0
	c-0.2,0.1-0.3,0.1-0.5,0.2c0.4,0,0.6,0.1,0.9,0.1c1.3,0.2,1.4,1.3,1.5,2.2c0.2,1.1,0.1,2.3,0.1,3.4c0,0.5-0.3,1.2-0.1,1.5
	c0.6,0.8-0.1,1.3-0.1,2c0,1.5-0.1,3-0.8,4.5c-0.3,0.6-0.2,1.4-0.4,2c-0.1,0.4-0.3,0.9-0.6,1.2c-0.3,0.5-0.6,1.1-1.5,0.5
	c0,0.4,0.1,0.7,0.1,0.9c-0.7,0-0.7,0.2-0.4,1.2c-0.7,0.2-0.6,0.7-0.4,1c-0.1,0.3-0.3,0.5-0.3,0.7c-0.2,0.7-0.3,1.4-0.5,2.1
	c0,0.2-0.4,0.2-0.6,0.2c0.3-0.4,0.5-0.7,0.8-1.1l-0.1-0.1c-0.4,0.3-0.8,0.5-1.1,0.8c0-0.1-0.1-0.1-0.1-0.2c0.2-0.1,0.3-0.2,0.5-0.3
	c0.7-0.5,0.8-0.9,0.5-1.7c-0.1-0.2,0-0.5,0.1-0.7c0.1-0.3,0.6-0.5,0.2-0.9v-0.1c0.3-0.5,0.5-1.1,0.8-1.6c0.1-0.2,0.1-0.4,0.1-0.5
	c0.1-0.8,0.2-1.5,0.3-2.3c0.1-0.7,0.2-1.5,0.5-2.1c0.7-1.4,0.6-3,1-4.4c0.4-1.5,0.7-3,1-4.5c0.1-0.6,0-1.3,0-1.9
	c-1.1-0.5-2-0.8-3.1-0.2c1,4.3,0.9,8.5-1.1,12.7c0-0.1,0-0.2-0.1-0.4c-0.4,1.1-1.4,1.7-1.3,2.9c0,0.1-0.2,0.3-0.5,0.4
	c0-0.2,0.1-0.3,0.1-0.7c-0.3,0.5-0.5,0.8-0.7,1.1c-0.3,0.3-0.5,0.7-0.9,0.9c-0.6,0.3-0.9,0.7-0.9,1.4c0-0.2-0.1-0.4-0.1-0.6
	c-0.6,0.6-1.3,1.1-1.8,1.6c-0.6-0.3-1.2-0.7-1.8-1c-0.1,0-0.2,0.2-0.4,0.3c0-0.1,0-0.2-0.1-0.3c-0.5-0.4-1-0.9-1.5-1.3
	c-0.1-0.1-0.3,0-0.4,0s-0.3,0-0.3-0.1c-0.6-0.9-1.1-1.9-1.8-2.7c-0.5-0.5-0.3-1.3-0.8-1.7c-0.8-0.8-0.3-2-0.9-2.8v-0.1
	c0.1-2.4-1-4.8-0.4-7.2c0.1-0.4-0.1-0.9-0.2-1.4c0-0.2,0.1-0.4,0.1-0.7c-0.8,0-1.5,0-2.4,0c-0.3,1.3-0.2,2.6,0.2,3.9
	c0.4,1.6,1.1,3.2,1.2,5c0.1,1.6,0.4,3.1,0.6,4.7c0,0.4-0.2,0.9-0.3,1.3c0,0.3-0.1,0.6,0,0.9c0.2,0.6,0.8,1.2,0.8,1.9
	c0.1,0.5,0.6,1,0.3,1.6c-0.1,0.2,0.2,0.6,0.4,0.8c0.3,0.5,0.4,1.1,0.1,1.6c-0.1-0.4-0.1-0.9-0.2-1.3c-0.1,0-0.2,0-0.2,0
	c-0.2,0.4-0.4,0.8-0.6,1.4c0.1-0.7,0.3-1.2,0.2-1.7c-0.1-0.5-0.4-1.1-0.6-1.5c-0.2-0.5-0.1-1.1-0.3-1.6c-0.1,0-0.3,0.1-0.5,0.1
	c0-0.3,0.1-0.6,0-0.9c-0.1-0.5-0.1-0.9-0.8-0.8c-0.4,0.1-0.9-0.1-0.9-0.8c0-1.4-0.1-2.8-0.2-4.2c0-0.4-0.4-0.8-0.5-1.3
	s-0.1-1-0.2-1.5c-0.1-0.9-0.2-1.9-0.1-2.8c0.1-1.6,0.2-3.1,0.5-4.7c0.1-0.9,0.6-1.7,1.8-1.7c0.7,0,1.4-0.4,2.1-0.6
	c0.2-0.1,0.3-0.4,0.4-0.6c0.2-1.2,0.3-2.4,0.4-3.8c-1.2-0.2-2.4-0.5-3.6-0.7c-0.6-0.1-1.1,0.2-1.2,0.9c-0.3,1.1-0.6,2.3-0.9,3.4
	c-0.3,0.9-0.5,1.8-0.4,2.7c0,0.1,0,0.2-0.1,0.2c-1.1,1-0.8,2.4-1.1,3.6c0,0.1,0,0.2-0.1,0.3c-0.5,0.8-0.4,1.7,0,2.6
	c-0.1,0-0.2,0-0.4,0c0,0.1,0,0.3,0.1,0.4c0.1,0.3,0.7,0.6,0.1,1.1c-0.1,0,0.2,0.6,0.4,0.9c0.1,0.2,0.4,0.3,0.5,0.6
	c-0.2-0.1-0.5-0.2-0.7-0.3l-0.1,0.1c0.2,0.2,0.5,0.4,0.8,0.6c-1.2,0-1.6-0.7-1.3-2.2c-0.5-0.2-0.6-0.5-0.2-1.5c-0.1,0-0.2,0-0.4,0
	c0.1-0.2,0.3-0.4,0.3-0.5c0-0.2-0.1-0.4-0.1-0.6c0-0.3,0.1-0.6,0.1-0.9c-0.4-1.3-0.9-2.6-0.2-4.1c0.3-0.5,0.3-1.2,0.4-1.8
	c0.2-1.8,1.1-3.2,2-4.6c0.1-0.2,0.3-0.4,0.4-0.6c0,0,0,0,0-0.2c-0.9,0.2-1.8,0.3-2.6,0.5c-2.6,0.5-5.2,0.8-7.8,0
	c-1.9-0.5-3.6-1.5-5.2-2.7c-1.1-0.8-2.4-1.4-3.6-2.1c-1.3-0.8-2.5-1.6-3.3-2.9c-0.8-1.2-0.4-2.2,0.8-2.9c1.5-0.9,3.1-0.8,4.7-0.9
	c3.3-0.2,6.6,0.3,9.8,0.9c3.3,0.7,6.6,1.5,9.8,2.2c0.4,0.1,0.8,0.2,1.2,0.3c0-0.1,0.1-0.1,0.1-0.2c-0.5-0.3-0.9-0.5-1.4-0.8
	c-0.2-0.1-0.4-0.3-0.5-0.5c-0.1-0.1-0.2-0.3-0.4-0.4c-1.1-0.7-2.3-1.3-3.4-1.9c-0.3-0.2-0.6-0.5-1-0.8c0.3,0,0.6,0,0.8,0V32
	c-0.2-0.1-0.4-0.2-0.6-0.3c-0.7-0.4-1.4-0.8-1.8-1.6c-0.3-0.5-1-0.8-1.5-1.2c-0.2-0.1-0.4-0.3-0.5-0.5c-0.2-0.3-0.8,0.1-0.9-0.6
	c-0.3-0.1-0.6-0.2-1-0.3c0-0.1,0-0.2,0-0.2c0.4,0.1,0.8,0.1,1.2,0.2c0-0.1,0-0.3,0-0.4c0.5,0.3,0.9,0.5,1.4,0.8
	c0-0.1,0.1-0.1,0.1-0.2c0.2,0.4,0.4,0.8,0.7,1.3c0.1-0.3,0.2-0.4,0.3-0.7c0.1,0.2,0.3,0.3,0.3,0.5c0,0.8,0.5,0.8,1,1.1
	c0.6,0.3,1.1,0.8,1.6,1.3c0.1,0.1,0.2,0.2,0.3,0.4c0.1-0.2,0.2-0.4,0.3-0.6c0.1,0.1,0.2,0.1,0.3,0.2c0.7,0.8,1.5,1.7,2.2,2.5
	c0.4,0.5,1.1,0.6,1.7,0.8c0.9,0.4,1.8,0.9,2.7,1.4c0.4,0.2,0.7,0.4,1.2,0.6c0-0.3,0.1-0.6,0-0.8c-0.1-0.5,0.1-0.9,0.5-1.2
	c0.6-0.6,0.6-1,0-1.7c-0.4-0.5-0.7-1-1-1.6c-0.5-1.2,0.9-2.9,2.1-2.3c0.3-0.2,0.4-0.5,0.7-0.6c0.5-0.3,0.4-0.5,0.1-0.8
	c-1.5-1.5-3.1-2.9-4.5-4.5c-1.1-1.3-2-2.8-2.5-4.5c-0.1-0.4-0.3-0.9-0.5-1.3c-0.1-0.3-0.1-0.6-0.1-0.9c0.9-0.1,0.9,0.7,1,1
	c0.7,2.4,1.9,4.5,3.6,6.2c0.7,0.7,1.4,1.4,2.1,2.1l0.1,0.1c1-0.1,1.1,1,1.7,1.5c0.4,0.3,0.7,0.7,1.1,1c0,0,0.1-0.1,0.1-0.3
	c0.1,0.1,0.2,0.2,0.3,0.4c0.1-0.3,0.1-0.5,0.1-0.5c0.5,0.1,0.9,0.1,1.4,0.2c-0.3-0.3,1.1-0.4,0.1-0.8c0.5-0.1,0.5-0.1,1,0.8
	c0.4-0.6,0.7-1.2,1.1-1.7c0.3-0.3,0.7-0.5,1-0.8c1.2-1.3,2.4-2.6,3.5-4.1c1-1.5,1.9-3.1,2.8-4.6c0.1-0.2,0.3-0.3,0.4-0.5
	c0.6,0.2,0.6,0.5,0.3,0.9c-1.2,1.8-2.3,3.7-3.6,5.6c-0.6,0.9-1.4,1.6-2.1,2.3c-0.8,0.9-1.6,1.7-2.4,2.6c-0.1,0.2-0.1,0.5-0.2,0.7
	c0.5,0,0.9,0,1.3,0.1c0,0.1,0,0.1,0,0.2c0.1-0.2,0.3-0.3,0.3-0.4c0.4,0.3,0.7,0.6,1,0.9c0.8,0.4,0.9,1.2,0.8,1.9
	c0,0.7-0.3,1.4-1,1.8C46.4,33,46.2,33,46,33.1c0.3,0.5,0.6,1,0.9,1.4c0.2,0.4,0.5,0.8,0.6,1.3c0,0.1,0.3,0.3,0.5,0.3
	c0.9-0.3,1.7-0.9,2.6-1.1c1.3-0.3,1.9-1.1,2.7-2c0.4-0.4,0.9-0.6,1.3-1s0.7-0.8,1.1-1.2c0.1,0.2,0.1,0.4,0.2,0.8
	c0.2-0.3,0.4-0.5,0.5-0.7c0.4-0.7,1-1.2,1.7-1.6c0.3-0.2,0.3-0.6,0.4-1c0.1-0.4,0.2-0.8,0.8-0.6c0.1-0.3,0.1-0.6,0.2-1
	c0.2,0.1,0.3,0.2,0.4,0.2c0.1-0.4,0.1-0.8,0.2-1.3c0.2,0.3,0.4,0.5,0.6,0.8c0,0,0.1,0,0.3-0.1c-0.7,0.4-0.4,1.6-1.5,1.6
	c0,0.2,0.1,0.5,0.1,0.5c-0.9,0.6-1.1,1.6-1.8,2.4c-0.4,0.4-0.8,0.8-1.2,1.1c-0.1,0.1-0.2,0.2-0.4,0.4c0.2,0.1,0.3,0.2,0.6,0.4
	c-2.4,1.5-4.8,3.1-7.3,4.7c1.9-0.6,3.5-1.1,5.2-1.5c2.7-0.7,5.4-1.3,8.2-1.7c2.3-0.4,4.7-0.5,7.1-0.5c2,0,4,0.5,6,0.9
	c0.8,0.1,1.4,1.3,1,2.2C76.4,38.4,75,40.1,72.7,41z"/>
</svg>
