<?xml-stylesheet type="text/css" href="/CMS_Themes/Default/Css/pest-icons.css" ?>
<svg version="1.1" id="Layer_1" xmlns="http://www.w3.org/2000/svg" viewBox="0 0 82.3 82.3" width="100%" height="100%">
<path fill="#102e52" class="pest-search__item-icon" d="M41.2,0C18.4,0,0,18.4,0,41.2s18.4,41.2,41.2,41.2s41.2-18.4,41.2-41.2S63.9,0,41.2,0z M60.6,43.4
	c-0.8-0.2-1.5-0.4-2.3-0.6c-0.7-0.1-1.4-0.3-2.1-0.1c-1.1,0.2-2-0.2-2.9-0.8c-0.8-0.6-1.7-1.2-2.6-1.9c0,0.4,0,0.8,0.1,1.1
	c0.1,2.9,0.2,5.9,0.3,8.8c0,0.4,0.1,0.9,0.4,1.2c0.8,1.2,1.1,2.5,1.3,3.8c0.1,0.6,0.3,0.7,0.9,0.7c1.3,0.1,2.6-0.1,3.9,0.5
	c0.2,0.1,0.5,0.2,0.7,0.4c0.1,0.1,0,0.3,0.1,0.5c-0.2,0-0.4,0.1-0.5,0c-1-0.6-2-0.7-3.1-0.7c-0.5,0-1-0.1-1.4-0.1
	c-0.9,0-1.5-0.3-1.7-1.3c0-0.2-0.3-0.4-0.5-0.6c-0.1,1-0.1,1.9-0.2,2.9c-0.4,2.4-1.1,4.6-2.2,6.7c-1.5,2.7-3.9,4-6.9,4.5
	c-0.4,0.1-0.8,0.1-1.2,0.1v0c0,0-0.1,0-0.1,0c0,0-0.1,0-0.1,0v0c-0.4,0-0.8-0.1-1.2-0.1c-2.9-0.5-5.4-1.8-6.9-4.5
	c-1.1-2.1-1.8-4.4-2.2-6.7c-0.1-0.9-0.2-1.8-0.2-2.9c-0.2,0.2-0.4,0.4-0.5,0.6c-0.2,0.9-0.8,1.2-1.7,1.3c-0.5,0-1,0.1-1.4,0.1
	c-1.1,0-2.1,0.1-3.1,0.7c-0.1,0.1-0.3,0-0.5,0c0-0.2,0-0.4,0.1-0.5c0.2-0.2,0.4-0.3,0.7-0.4c1.2-0.6,2.6-0.4,3.9-0.5
	c0.5,0,0.8-0.2,0.9-0.7c0.2-1.3,0.5-2.7,1.3-3.8c0.2-0.3,0.4-0.8,0.4-1.2c0.1-2.9,0.2-5.9,0.3-8.8c0-0.4,0-0.7,0.1-1.1
	c-0.9,0.7-1.8,1.3-2.6,1.9c-0.9,0.6-1.7,1-2.9,0.8c-0.6-0.1-1.4,0-2.1,0.1c-0.8,0.1-1.5,0.4-2.3,0.6c-0.3-0.7-0.3-0.8,0.5-0.9
	c0.3,0,0.6-0.1,0.9-0.1c1-0.3,2.1-0.6,3.2-0.3c0.2,0,0.4-0.1,0.6-0.2c1.4-1.1,3-2,4.7-2.7c0.2-0.1,0.5-0.1,0.5-0.3
	c0.2-0.9,1.4-1.1,1.4-2.1c0-0.1,0.2-0.1,0.3-0.2c-0.9-0.2-1.8-0.3-2.6-0.6c-1.2-0.3-2.3-0.8-3.5-1.2c-0.4-0.1-0.8-0.2-1.1-0.2
	c-1.3,0-2.7,0-4-0.5c0.4-0.5,0.6-0.5,1.4-0.4c1,0.1,2.1,0.2,3.1,0.1c0.7-0.1,1.3,0,1.9,0.3c0.8,0.4,1.7,0.8,2.5,1.2
	c0.4,0.2,0.6,0.1,0.6-0.4c0-0.5,0-1,0.2-1.4c0.4-0.8,0.8-1.5,1.3-2.2c1.1-1.6,2.1-3.2,3.8-4.3c0.3-0.2,0.6-0.4,0.9-0.6
	c-0.1-0.1-0.1-0.2-0.2-0.2c-1.3-0.5-2.1-1.6-2.9-2.6c-1-1.3-1.8-2.7-2.7-4c-0.5-0.8-0.6-1.7-0.7-2.6c-0.1-0.4,0-0.8,0.1-1.2
	c0.1-0.2,0.3-0.4,0.4-0.6c0.1,0.2,0.4,0.4,0.4,0.6c0,0.5,0,1.1,0,1.6c0,0.2,0,0.5,0.1,0.5c0.8,0.5,0.7,1.2,0.7,2
	c0,0.2,0.1,0.5,0.2,0.5c1.1,0.1,1.2,1,1.4,1.8c0.1,0.3,0.2,0.7,0.4,0.9c0.8,0.8,1.5,1.8,2.7,2c0.2,0,0.5,0.2,0.6,0.4
	c0.2,0.4,0.5,0.4,0.9,0.3c0.7-0.1,1.4-0.2,2-0.2v0c0,0,0.1,0,0.1,0c0,0,0.1,0,0.1,0v0c0.7,0,1.4,0.1,2,0.2c0.4,0.1,0.7,0.1,0.9-0.3
	c0.1-0.2,0.4-0.4,0.6-0.4c1.2-0.3,1.9-1.2,2.7-2c0.2-0.2,0.3-0.6,0.4-0.9c0.2-0.8,0.3-1.7,1.4-1.8c0.1,0,0.2-0.3,0.2-0.5
	c0-0.8-0.1-1.5,0.7-2c0.1-0.1,0.1-0.3,0.1-0.5c0-0.5-0.1-1.1,0-1.6c0-0.2,0.3-0.4,0.4-0.6c0.1,0.2,0.4,0.4,0.4,0.6
	c0.1,0.4,0.2,0.8,0.1,1.2c-0.1,0.9-0.2,1.8-0.7,2.6c-0.9,1.3-1.7,2.8-2.7,4c-0.8,1-1.6,2.2-2.9,2.6c-0.1,0-0.1,0.1-0.2,0.2
	c0.3,0.2,0.6,0.4,0.9,0.6c1.7,1.1,2.7,2.8,3.8,4.3c0.5,0.7,0.9,1.4,1.3,2.2c0.2,0.4,0.2,1,0.2,1.4c0,0.5,0.1,0.6,0.6,0.4
	c0.8-0.4,1.7-0.8,2.5-1.2c0.6-0.3,1.2-0.4,1.9-0.3c1,0.1,2.1,0,3.1-0.1c0.9-0.1,1-0.1,1.4,0.4c-1.3,0.5-2.6,0.5-4,0.5
	c-0.4,0-0.8,0.1-1.1,0.2c-1.2,0.4-2.3,0.8-3.5,1.2c-0.9,0.2-1.7,0.4-2.6,0.6c0.1,0.1,0.3,0.1,0.3,0.2c0,1,1.2,1.2,1.4,2.1
	c0,0.1,0.3,0.2,0.5,0.3c1.7,0.7,3.2,1.5,4.7,2.7c0.2,0.1,0.4,0.3,0.6,0.2c1.1-0.2,2.1,0,3.2,0.3c0.3,0.1,0.6,0.1,0.9,0.1
	C60.8,42.6,60.9,42.7,60.6,43.4z"/>
</svg>
