<?xml-stylesheet type="text/css" href="/CMS_Themes/Default/Css/pest-icons.css" ?>
<svg version="1.1" id="Layer_1" xmlns="http://www.w3.org/2000/svg" viewBox="0 0 82.4 82.4" width="100%" height="100%">
<path fill="#102e52" class="pest-search__item-icon" d="M41.2,0C18.5,0,0,18.4,0,41.2s18.4,41.2,41.2,41.2S82.4,64,82.4,41.2S63.9,0,41.2,0z M71.7,59.2
	c-0.5,1.2-1.4,2.2-2.5,2.8c-1.2,0.6-2.5,0.9-3.8,1.1c-1.4,0.2-2.9,0.3-4.3,0.2c-1.5,0-2.9-0.2-4.4-0.5c-0.9-0.1-1.8-0.2-2.7-0.3
	c-1.5-0.1-3.1-0.1-4.6-0.1c-1,0-2.1,0.2-3.1,0.2c-0.4,0-0.9,0-1.3-0.1c-0.1,0-0.2-0.1-0.3-0.1v-0.1c0.1-0.1,0.3-0.1,0.4-0.2
	c1.5-0.5,3.1-0.9,4.7-0.9c2-0.1,4-0.1,6,0c1,0,2,0.2,3,0.3c1.9,0.3,3.8,0.4,5.8,0.2c1.4-0.2,2.6-0.7,3.7-1.5
	c0.7-0.5,1.3-1.1,1.7-1.8c0.5-1.1,0.7-2.2,0.5-3.4c-0.2-1.3-0.7-2.5-1.4-3.6c-0.6-1-1.3-2-1.9-2.9c-0.4-0.5-0.8-1-1.3-1.6
	c-0.1,0.1-0.2,0.2-0.3,0.3c-0.1,0-0.2,0-0.3,0c0,0.1,0,0.2,0,0.4c-0.1,0-0.2,0-0.3,0c0,0.1,0,0.3,0,0.5c-0.1,0-0.1,0-0.2,0
	c0,0.1,0,0.1,0,0.2c-0.1-0.1-0.2-0.1-0.3-0.2c0,0.2,0,0.3,0,0.5c-0.1,0-0.2-0.1-0.3-0.1c0,0.1-0.1,0.1-0.1,0.2
	c-0.1-0.1-0.1-0.1-0.2-0.2c0.1,0.4-0.6,0.3-0.4,0.6c-0.4,0.2-0.8,0.5-1.2,0.9c-0.1-0.1-0.1-0.2-0.2-0.3c0,0.2-0.1,0.3-0.1,0.5
	c-0.1,0-0.1-0.1-0.2-0.1c0,0.1-0.1,0.3-0.1,0.3c-0.1,0.1-0.2,0.1-0.2,0.2c-0.1,0.1-0.2,0.1-0.3,0.1c-0.2,0.1-0.4,0.2-0.6,0.3
	c-0.1,0-0.2,0.1-0.3,0.1c0,0.1,0.1,0.2,0.1,0.3c0.2,0.5,0,0.8-0.5,1.1c-0.7,0.3-1.3,0.7-2,1c-0.8,0.3-1.6,0.5-2.4,0.6
	c-0.6,0-1.2,0.1-1.8,0.3c-0.4,0.1-0.8,0.3-1.2,0.4c-0.2,0.1-0.5,0-0.8,0c-0.1,0-0.3,0-0.4-0.1c0.2-0.1,0.3-0.3,0.6-0.4
	c-0.4,0-0.7-0.3-1.1-0.1c-0.7,0.3-1.3,0.3-1.8-0.3c0,0,0,0-0.1,0c0,0,0,0-0.1-0.1c0.3-0.1,0.5-0.2,0.7-0.3c0.4-0.1,0.8-0.2,1.2-0.3
	c0.5-0.2,1-0.1,1.6-0.1c0.6,0.1,1.3,0,1.9,0c0.1,0,0.2-0.1,0.4-0.2c-0.4-0.1-0.8-0.2-1.1-0.3c-0.3,0.3-0.6,0.3-1.1,0.1
	c-0.3-0.1-0.4-0.2-0.7,0c0-0.1-0.1-0.1-0.1-0.3c-0.4,0.2-0.7,0.3-1.1,0.5c-0.1,0-0.3,0-0.4,0c-0.3-0.1-0.5-0.3-0.8-0.4
	c0.8-0.4,1.7-0.6,2.6-0.8c-0.2-0.3-0.3-0.6-0.5-0.8c0,0,0,0-0.1,0c0,0.1,0,0.2,0,0.4c-0.3-0.4-0.6-0.8-0.9-1.2c0,0.1,0,0.2-0.1,0.4
	c-0.2-0.2-0.3-0.4-0.5-0.5l-0.1,0.1c-0.3-0.3-0.5-0.6-0.8-0.9c-0.1,0.1-0.1,0.1-0.2,0.2c-0.1-0.1-0.2-0.2-0.4-0.3
	c-0.1,0.2-0.2,0.4-0.3,0.6c0-0.2-0.1-0.3-0.1-0.5c-0.2,0-0.4,0-0.6,0c0,0.1,0,0.2,0,0.3c-0.1-0.1-0.1-0.1-0.2-0.2
	c-0.1,0.1-0.1,0.2-0.2,0.3c-0.1-0.2-0.1-0.3-0.2-0.5c0,0.1-0.1,0.2-0.1,0.4c-0.1-0.1-0.1-0.3-0.2-0.4c-0.1,0-0.1,0.1-0.2,0.1
	s-0.3,0-0.3-0.1c-0.1-0.3-0.4-0.3-0.6-0.2C45,49,44.8,49,44.7,48.7c0,0.1,0,0.2,0,0.3c-0.1-0.1-0.2-0.2-0.4-0.3
	c-0.3,0.2-0.3,0.2-0.6,0c-0.1-0.1-0.2-0.1-0.2-0.1c-0.3,0.1-0.5,0.1-0.6-0.2c0,0,0,0-0.1,0l0,0c0,0.1-0.1,0.3-0.2,0.5
	c-0.1-0.1-0.2-0.2-0.3-0.3c0,0.1-0.1,0.2-0.1,0.3c-0.1-0.2-0.2-0.5-0.3-0.7l0,0c0,0.2,0,0.4,0,0.6c0,0,0,0-0.1,0
	c-0.1-0.2-0.2-0.4-0.3-0.7c-0.1,0.2-0.2,0.4-0.3,0.7c-0.1-0.3-0.2-0.5-0.3-0.7l0,0c0,0.2,0,0.4,0,0.7c-0.5-0.4-0.8-0.2-1,0.2
	c-0.2-0.1-0.3-0.2-0.5-0.2c-0.1,0-0.3,0-0.4,0s-0.2,0.1-0.3,0.1c-0.4-0.2-0.7,0-1,0.1c-0.1,0-0.1,0-0.2,0c-0.4-0.3-0.8-0.1-1.2-0.1
	c0,0.1-0.1,0.2-0.1,0.4c0,0-0.1,0-0.1,0.1c0-0.1-0.1-0.2-0.1-0.3c0,0-0.1,0-0.1,0.1s0,0.2,0,0.4c-0.1-0.2-0.2-0.3-0.2-0.4
	c0,0.2,0,0.4,0,0.6c-0.1-0.1-0.2-0.2-0.3-0.3c-0.1,0.1-0.2,0.2-0.2,0.3c-0.1-0.1-0.2-0.2-0.3-0.3c-0.1,0.2-0.2,0.3-0.2,0.5
	c-0.1,0-0.2-0.1-0.3-0.1c0,0.1,0,0.2,0,0.3c-0.5,0.1-0.5,0.1-0.5,0.7c0,0.3,0,0.6,0,0.9c0,0.7-0.3,1.3-0.8,1.7
	c-0.2,0.2-0.4,0.3-0.7,0.5c-0.1,0-0.2,0.1-0.3,0.1c0-0.1,0.1-0.2,0.1-0.4c-0.3,0-0.5,0.1-0.7,0.1c-0.3,0-0.5,0-0.8,0
	c-0.2,0-0.5,0.1-0.7,0.1c-0.1,0-0.2,0.1-0.3,0.1c-0.2,0.1-0.5,0.2-0.7,0c-0.1-0.1-0.3-0.2-0.5,0c-0.1-0.1-0.2-0.3-0.3-0.4
	c0.3-0.1,0.7-0.3,1.1-0.5c0,0,0-0.1-0.1-0.1c0.2-0.2,0.4-0.2,0.6-0.1c0.5,0.1,1,0.1,1.5-0.1c0.3-0.2,0.4-0.4,0.3-0.7
	c-0.1-0.2-0.2-0.4-0.3-0.6c-0.1-0.1-0.2-0.2-0.2-0.2c0,0.2-0.1,0.3-0.1,0.5c-0.1-0.2-0.1-0.3-0.2-0.4c-0.1,0.3-0.2,0.5-0.2,0.8
	c-0.1-0.1-0.1-0.2-0.1-0.3c-0.2,0.1-0.2,0.5-0.5,0.3c-0.2,0.5-0.2,0.5-0.7,0.3c-0.1,0.1-0.1,0.2-0.2,0.3c0-0.1-0.1-0.1-0.1-0.2
	c0,0.1-0.1,0.1-0.1,0.1c-0.1,0.2-0.1,0.4-0.4,0.3c0,0-0.1,0-0.1,0.1c-0.2,0.2-0.4,0.3-0.6,0.5c-0.1,0-0.2,0.1-0.2,0.1
	c-0.1,0-0.1,0-0.2,0.1c-0.2,0.1-0.5,0.2-0.7,0.4c-0.1,0.1-0.2,0.2-0.2,0.3c0,0.3-0.2,0.5-0.4,0.5c-0.5,0.1-0.9,0.2-1.4,0.4
	c-0.2,0.1-0.4,0.2-0.5,0.4c-0.3,0.2-0.5,0.3-0.9,0.2c0.1-0.3,0.2-0.5,0.4-0.8c-0.4-0.2-0.8,0-1.1,0.2c-0.3,0.2-0.6,0.2-0.9,0
	c-0.2-0.1-0.4-0.1-0.6-0.2c0,0,0-0.1,0.1-0.2c-0.1,0-0.2,0-0.4-0.1c0.4-0.2,0.7-0.4,1-0.6c0.4-0.3,0.9-0.4,1.4-0.3
	c0.3,0.1,0.7,0,1,0c0.4,0,0.8-0.4,1-0.7c0.2-0.4,0.4-0.8,0.5-1.2c0.2-0.5,0.4-1,0.6-1.6c0.1-0.2,0.1-0.4-0.1-0.6
	c-0.1-0.1,0-0.4,0-0.5c0,0,0-0.1,0-0.2c-0.1,0.1-0.2,0.2-0.2,0.3c0-0.4,0-0.7,0-1.1c-0.1,0.1-0.2,0.2-0.3,0.4c0-0.3,0-0.6,0-0.8
	c0-0.1,0-0.2-0.2-0.3c-0.1,0-0.1-0.1-0.1-0.2c0-0.2,0-0.4,0-0.7c0,0-0.1,0-0.2,0c0-0.1,0-0.2,0-0.4c-0.1,0-0.2,0-0.3,0.1
	c0-0.2,0-0.4,0-0.6c0-0.1,0.1-0.3-0.2-0.4c-0.1,0,0-0.3-0.1-0.5c-0.1,0-0.1,0-0.2,0c-0.1-0.6-0.2-1.2-0.3-1.7H24
	c0,0.1-0.1,0.2-0.1,0.3c-0.1-0.1-0.1-0.2-0.2-0.3s-0.2-0.2-0.3-0.3l-0.1-0.1c-0.1-0.2-0.1-0.5-0.2-0.7c-0.1,0-0.2,0.1-0.2,0.1l0,0
	c-0.4-0.7-1-1.2-1.7-1.4c-0.4-0.1-0.8-0.4-1.2-0.6c-0.1-0.1-0.2-0.2-0.3-0.3c-0.2-0.3-0.5-0.4-0.8-0.4c-0.8,0-1.5-0.2-2.2-0.4
	c-0.3-0.1-0.6-0.1-1-0.2c0.8,1.6,1.6,3.2,2.5,4.8c0,0,0,0-0.1,0c-0.1-0.2-0.3-0.5-0.4-0.7c-0.6-1.1-1.2-2.2-1.8-3.3
	c-0.1-0.2-0.3-0.5-0.4-0.7s-0.3-0.3-0.5-0.2c0.6,1.5,1.1,3,1.7,4.5h-0.1c-0.1-0.3-0.2-0.5-0.3-0.8c-0.4-1.1-0.9-2.1-1.3-3.2v-0.1
	c-0.1-0.3-0.3-0.6-0.7-0.6c0.4,1.5,0.8,3,1.2,4.5h-0.1c-0.5-1.4-0.9-2.7-1.4-4.1c0,1.3,0.1,2.7,0.1,4c0,0,0,0-0.1,0
	c-0.1-0.9-0.1-1.7-0.2-2.6c0-0.6-0.1-1.2-0.1-1.8c0-0.2-0.1-0.2-0.3-0.2c-0.2,2.3-0.3,4.6-0.8,6.9c0,0,0,0-0.1,0
	c0.1-0.6,0.1-1.1,0.2-1.7c0.1-0.6,0.1-1.1,0.2-1.7c0.1-1.1,0.2-2.2,0.2-3.2c0-0.2,0-0.4-0.3-0.4c-0.2,0.8-0.4,1.7-0.7,2.6
	c0,0,0,0-0.1,0c0.1-0.4,0.2-0.7,0.3-1.1c0.1-0.4,0.2-0.8,0.3-1.2c0.1-0.2,0-0.4-0.3-0.5c-0.5,1.2-1,2.5-1.8,3.5
	c0.5-1.2,1.2-2.3,1.5-3.5c-0.4-0.3-0.7-0.6-1.1-0.9c-0.5-0.3-0.6-0.9-0.8-1.3c-0.1-0.2-0.2-0.4-0.5-0.5c-0.5-0.2-0.6-0.6-0.3-1
	c0.2-0.3,0.4-0.6,0.6-0.8c-0.2-0.2-0.5-0.4-0.7-0.6c0,0,0,0,0-0.1c0.2,0.1,0.4,0.2,0.5,0.4c0.2,0.2,0.4,0.1,0.6-0.1
	c-0.2-0.2-0.3-0.4-0.5-0.6c0.2,0.2,0.4,0.4,0.6,0.6c0.1-0.1,0.2-0.1,0.2-0.1c-0.3-0.6-0.7-1.2-0.9-1.9c0.3,0.5,0.5,1,0.8,1.4
	c0,0,0,0.1,0.1,0.1c0.2,0.3,0.5,0.4,0.8,0.2c0.1,0,0.1-0.2,0.1-0.2c-0.1-0.5-0.3-1-0.5-1.5c-0.2-0.7-0.5-1.4-0.7-2.1
	c0.6,1.2,1,2.4,1.4,3.6c0.5-0.1,0.5-0.2,0.4-0.7c-0.2-0.9-0.4-1.8-0.6-2.7c0-0.1,0-0.1,0-0.2h0.1c0.3,1.1,0.5,2.1,0.8,3.2
	c0.3-0.1,0.4-0.3,0.4-0.6c0-1.3-0.1-2.6,0-3.9c0.1,1.3,0.1,2.7,0.2,4c0.5-0.3,0.9-0.5,1.3-0.8c1-0.5,2-0.9,3.1-1.2
	c0.9-0.2,1.8-0.4,2.7-0.6c0.8-0.2,1.4-0.6,2-1.2c0.5-0.5,0.9-1.1,1.4-1.6c0.4-0.4,0.8-0.8,1.4-1c0.1,0,0.1,0,0.3-0.1
	c-0.5,0.9-0.3,1.9-0.4,2.8c0.1,0,0.1,0,0.1,0c0.5,0.1,0.9,0.3,1.3,0.7c0.1,0.1,0.2,0.1,0.2,0.1c0.7,0,1.2,0.3,1.5,0.9L28,30
	c0.2-0.1,0.4-0.3,0.7-0.4l0,0c-0.1,0.1-0.1,0.2-0.2,0.3l0,0c0.2-0.1,0.4-0.2,0.7-0.3l0,0c-0.1,0.1-0.1,0.2-0.3,0.3
	c0.4-0.2,0.7-0.3,1-0.5c0,0,0,0,0,0.1c-0.2,0.2-0.4,0.4-0.6,0.5c0,0,0,0,0,0.1c0.4-0.1,0.7-0.3,1.1-0.4c0,0,0,0,0,0.1
	c-0.2,0.1-0.3,0.3-0.5,0.4l0,0c0.3-0.2,0.6-0.3,1-0.5c-0.1,0.1-0.1,0.2-0.2,0.4c0.3-0.1,0.6-0.3,1-0.4c-0.1,0.2-0.2,0.4-0.3,0.6l0,0
	c0.3-0.2,0.7-0.4,1-0.7l0,0c-0.1,0.1-0.2,0.2-0.3,0.3l0,0c0.2-0.1,0.3-0.3,0.6-0.4c0,0.1,0,0.2,0,0.3c0.2-0.2,0.3-0.3,0.5-0.4
	c0,0.1,0,0.2,0,0.3c0.2-0.1,0.3-0.2,0.5-0.4c0,0.1,0,0.2,0,0.4c0.2-0.1,0.4-0.3,0.6-0.4c0,0.1,0,0.2-0.1,0.4
	c0.3-0.3,0.5-0.6,0.8-0.9c-0.1,0.2-0.1,0.4-0.1,0.5l0,0c0.2-0.2,0.4-0.4,0.6-0.6c0,0.2-0.1,0.4-0.1,0.5c0,0,0,0,0.1,0
	c0.2-0.2,0.4-0.5,0.6-0.7l0,0C36,28.7,36,28.8,35.9,29l0,0c0.3-0.2,0.6-0.4,0.9-0.7l0,0c-0.1,0.1-0.2,0.2-0.3,0.4
	c0.3-0.2,0.5-0.3,0.8-0.4l0,0c-0.1,0.1-0.2,0.2-0.3,0.3l0,0c0.3-0.2,0.6-0.3,0.9-0.5l0,0c-0.1,0.2-0.3,0.3-0.4,0.5l0,0
	c0.3-0.2,0.6-0.4,0.9-0.6v0.1c0.2-0.1,0.4-0.2,0.6-0.4c0,0,0,0,0.1,0.1C39,27.9,39,28,38.9,28.1l0,0c0.4-0.2,0.7-0.4,1.1-0.5l0,0
	c-0.1,0.1-0.1,0.2-0.2,0.2l0,0c0.3-0.2,0.6-0.3,1-0.5l0,0c-0.1,0.1-0.3,0.2-0.4,0.4l0,0c0.5-0.3,1-0.6,1.5-0.9c0,0,0,0,0,0.1
	c-0.2,0.2-0.5,0.4-0.7,0.6l0,0c0.5-0.3,1-0.5,1.6-0.8c0,0,0,0,0,0.1c-0.2,0.1-0.3,0.2-0.5,0.3l0,0c0.4-0.2,0.8-0.4,1.2-0.5
	c0,0,0,0,0,0.1c-0.2,0.2-0.4,0.3-0.6,0.5c0,0,0,0,0,0.1c0.4-0.2,0.8-0.4,1.2-0.6l0,0c-0.2,0.2-0.4,0.4-0.6,0.6l0,0
	c0.5-0.2,1-0.4,1.5-0.6c0,0,0,0,0,0.1c-0.2,0.1-0.3,0.2-0.5,0.3c0.5-0.1,1-0.2,1.5-0.3c0,0,0,0,0,0.1c-0.2,0.1-0.5,0.2-0.7,0.3v0.1
	c0.6-0.2,1.2-0.3,1.9-0.5c-0.2,0.2-0.4,0.3-0.6,0.4c0,0,0,0,0,0.1c0.3-0.1,0.6-0.1,1-0.2c-0.1,0.1-0.2,0.2-0.3,0.3l0,0
	c0.4-0.1,0.9-0.3,1.3-0.4l0,0c-0.1,0.1-0.3,0.2-0.4,0.3v0.1c0.3-0.1,0.7-0.1,1.1-0.2c-0.1,0.1-0.3,0.2-0.4,0.3c0,0,0,0,0,0.1
	c0.4,0,0.8-0.1,1.3-0.1c-0.2,0.1-0.3,0.2-0.4,0.4c0.3,0,0.5-0.1,0.8-0.1c-0.1,0.1-0.3,0.2-0.4,0.4c0.6,0,1.2,0.1,1.8,0.1
	c0,0,0,0,0,0.1c0,0-0.1,0.1-0.2,0.1c0.7,0.1,1.3,0.2,2,0.3c-0.1,0-0.1,0.1-0.2,0.1c0.3,0,0.6,0,0.8,0l0,0C54.3,29,54.2,29,54,29.1
	c0.4,0,0.7,0,1,0c0,0,0,0,0,0.1c-0.2,0.1-0.4,0.1-0.7,0.2c0.6,0.2,1.1,0.3,1.6,0.5c0,0,0,0,0,0.1c-0.4,0-0.8-0.1-1.1-0.1
	c0,0,0,0,0,0.1c0.4,0.2,0.9,0.3,1.4,0.5c-0.1,0-0.2,0.1-0.4,0.1c0.3,0.1,0.5,0.2,0.7,0.2c0.1,0.4,0.5,0.3,0.7,0.5
	c0,0-0.1,0.1-0.2,0.1c0.3,0.1,0.7,0.1,1,0.2c-0.1,0-0.2,0.1-0.3,0.1c0.4,0.1,0.7,0.2,1,0.3c0,0,0,0,0,0.1c-0.2,0-0.3,0-0.5,0l0,0
	c0.4,0.1,0.7,0.2,1.1,0.2l0,0c-0.2,0-0.5,0-0.7,0.1c0.4,0.1,0.7,0.2,1,0.4l0,0c-0.2,0-0.4,0.1-0.7,0.1c0,0,0,0,0,0.1
	c0.4,0.1,0.8,0.3,1.3,0.4c-0.2,0.1-0.3,0.1-0.5,0.1c0.3,0.1,0.6,0.2,0.9,0.4C60.5,34,60.4,34,60.3,34c0.5,0.3,1,0.7,1.5,1
	c-0.2,0-0.4,0-0.6,0c0.4,0.3,0.8,0.5,1.1,0.7c0,0,0,0,0,0.1c-0.2,0-0.5,0-0.7-0.1c0,0,0,0,0,0.1c0.3,0.2,0.7,0.3,1,0.5
	c-0.1,0.1-0.1,0.1-0.2,0.2c0.4,0.1,0.7,0.2,1.1,0.2c-0.1,0.1-0.2,0.1-0.2,0.2c0.2,0.2,0.4,0.3,0.6,0.5l0,0c-0.1,0-0.3-0.1-0.4-0.1
	l0,0c0.1,0.1,0.2,0.2,0.3,0.3c-0.1,0-0.1,0-0.3,0c0.3,0.2,0.5,0.3,0.8,0.5l0,0c-0.2,0-0.3,0-0.5-0.1l0,0c0.3,0.2,0.5,0.5,0.8,0.7
	c-0.1,0-0.2,0.1-0.3,0.2c0.3,0.1,0.7,0.2,1,0.3c0,0,0,0,0,0.1c-0.1,0-0.3,0-0.5,0.1c0.2,0.1,0.4,0.2,0.6,0.2
	c-0.1,0.1-0.1,0.1-0.2,0.2c0.2,0.1,0.3,0.2,0.5,0.4c-0.2,0-0.3,0-0.5,0c0.2,0.2,0.4,0.3,0.7,0.5c-0.2,0.1-0.4,0.1-0.5,0.2
	c0.5,0.4,1,0.7,1.6,1.1c-0.2,0-0.3,0-0.4,0c0,0,0,0,0,0.1c0.3,0.3,0.7,0.6,1,0.9c0,0,0,0.1-0.1,0.1c-0.3,0-0.5,0-0.8,0.1l0,0
	c0.3,0.1,0.7,0.3,1,0.4c-0.1,0.1-0.2,0.1-0.3,0.1c0.2,0.1,0.4,0.1,0.6,0.2c-0.1,0.1-0.2,0.1-0.3,0.2c0.3,0.1,0.5,0.2,0.7,0.4
	c0,0,0,0,0,0.1c-0.2,0-0.4,0-0.6,0.1l0,0c0.3,0.1,0.5,0.1,0.9,0.2c-0.2,0.1-0.3,0.1-0.5,0.2c0.2,0.1,0.4,0.2,0.6,0.4
	c-0.2,0-0.3,0-0.5,0c0.1,0.2,0.2,0.4,0.3,0.6c-0.1,0-0.2,0-0.4-0.1c0.2,0.3,0.3,0.5,0.4,0.7c0.7,1,1.4,2,2.1,3
	c0.7,0.9,1.2,1.9,1.6,3c0.4,1.1,0.5,2.3,0.4,3.4C72.4,57.1,72.2,58.2,71.7,59.2z"/>
</svg>
