<?xml-stylesheet type="text/css" href="/CMS_Themes/Default/Css/pest-icons.css" ?>
<svg version="1.1" id="Layer_1" xmlns="http://www.w3.org/2000/svg" viewBox="0 0 82.4 82.4" width="100%" height="100%">
<path fill="#102e52" class="pest-search__item-icon" d="M41.2,0C18.5,0,0,18.4,0,41.2C0,64,18.4,82.4,41.2,82.4S82.4,64,82.4,41.2S63.9,0,41.2,0z M68.6,29.4
	c-0.3,1.1-1,1.9-1.7,2.7c-0.4,0.5-0.8,1.1-1.2,1.7c-0.5,0.7-1,1.4-1.5,2c-0.7,0.9-1.5,1.7-2.2,2.6c-0.3,0.3-0.7,0.6-1,0.9
	c-0.1,0.1-0.3,0.3-0.4,0.4c-0.3,0.3-0.5,0.6-0.8,0.9c-0.7,0.7-1.5,1.3-2.2,2c-0.5,0.5-1.2,0.8-1.8,1.2c-0.1,0-0.8,0.1-1.6,0.1
	c0.2,0.2,0.5,0.4,0.7,0.5c0,0-0.1,0-0.2,0c0.1,0.1,0.1,0.1,0.1,0.1c0.3,0.3,0.7,0.6,1,0.9c0.3,0.3,0.6,0.6,0.9,0.9
	c0.1,0.1,0.3,0.2,0.2,0.4c0,0,0,0.1,0.1,0.1c0.3,0.3,0.6,0.6,0.8,0.9c0.2,0.3,0.5,0.6,0.8,0.9c-0.2-0.1-0.3-0.2-0.4-0.3l0,0
	c0.3,0.3,0.6,0.7,0.9,1c0.2,0.2,0.5,0.2,0.8,0.2c0.4,0.1,0.8,0.2,1.2,0.3c-0.7-0.1-1.4-0.1-2.2-0.2c0.1,0.2,0.2,0.3,0.3,0.5
	c-0.1,0-0.1,0-0.2,0c0,0.4,0.3,0.6,0.6,0.7c0.6,0.2,1.2,0.5,1.9,0.8c-0.8-0.2-1.5-0.7-2.4-0.7c0,0.1,0.1,0.2,0.1,0.3
	c-0.2,0-0.3,0-0.5,0l0.1,0.1c-0.1,0.1-0.2,0.2-0.3,0.2c0.1,0.1,0.1,0.3,0.2,0.5c-0.1,0-0.2-0.1-0.2-0.1V52c0.3,0.1,0.5,0.2,0.8,0.3
	c0,0.1-0.1,0.1-0.1,0.2c0.3,0.2,0.6,0.4,0.8,0.6c0,0,0,0,0,0.1c-0.3-0.1-0.5-0.2-0.8-0.3c0.1,0,0.2,0,0.2,0v-0.1
	c-0.4-0.1-0.7-0.6-1.3-0.4c0,0,0,0,0,0.1c-0.1,0-0.1,0-0.2,0.1c0.1,0.3,0.3,0.2,0.5,0.3c-0.1,0-0.2,0-0.4,0.1
	c0.1,0.3,0.5,0.2,0.7,0.4c-0.2,0-0.3,0-0.5-0.1v0.1c0.3,0.1,0.7,0.2,1,0.3c0,0,0,0,0,0.1c-0.4-0.1-0.8-0.2-1.1-0.2
	c0.3,0.4,0.7,0.4,1.2,0.6c-0.5,0-0.9-0.4-1.3-0.1c0,0.3,0.2,0.3,0.4,0.4c0.4,0.1,0.7,0.2,1.1,0.3v0.1c-0.5-0.1-1-0.2-1.5-0.3
	c0,0,0,0.1-0.1,0.1c0.1,0.1,0.3,0.2,0.4,0.3c-0.1,0-0.3,0.1-0.5,0.2c0.2,0.4,0.4,0.7,0.5,1.1l0,0c-0.1-0.1-0.2-0.1-0.4-0.2
	c0,0.2,0,0.3,0,0.5c-0.1,0-0.2-0.1-0.4-0.1c0,0.1-0.1,0.1-0.1,0.2c0-0.1-0.1-0.2-0.1-0.2c-0.3-0.1-0.6-0.3-0.9-0.4
	c-0.2-0.2-0.3-0.4-0.5-0.5c-0.3,0.3,0.1,0.5,0.1,0.8c-0.2-0.2-0.3-0.4-0.4-0.5c-0.2,0.1-0.4,0.1-0.3,0.4c-0.1-0.1-0.1-0.3-0.2-0.4
	c-0.1,0-0.2,0-0.4,0l0,0c0.1,0,0.2-0.1,0.3-0.1c-0.1-0.4-0.2-0.7-0.6-0.8c0,0.4,0,0.9,0,1.4c-0.3-0.4,0-0.8-0.3-1.1
	c-0.2-0.2-0.3-0.6-0.5-0.9c0.1-0.3,0.1-0.5-0.3-0.6c-0.1,0-0.1-0.1-0.2-0.2s-0.1-0.3-0.2-0.5c-0.1,0.2-0.1,0.3-0.1,0.4
	c-0.1-0.2-0.1-0.5-0.2-0.7h-0.1c0,0.1-0.1,0.2-0.1,0.4l0,0c0-0.1,0-0.3,0-0.4l0,0v0.1c0-0.1-0.1-0.3-0.1-0.4c0,0,0,0-0.1,0
	c0,0.1,0,0.3-0.1,0.5c-0.1-0.3-0.2-0.6-0.2-0.8h-0.1c0,0.1-0.1,0.2-0.1,0.4c0-0.4-0.2-0.5-0.5-0.6c-0.4-0.2-0.8-0.5-1.2-0.7
	c-0.2-0.1-0.4-0.2-0.6-0.2C49,51,48.6,51,48.2,51c-0.2,0-0.4,0-0.6,0.1s-0.6,0-0.8-0.1c-0.4,0-0.8-0.1-1.1-0.1
	c-0.2,0-0.5,0.3-0.7,0.4c0.2,0,0.3,0,0.5,0.1c-0.4,0.2-0.8,0.1-1.2,0.1c-0.1,0-0.2,0-0.3,0.1c-0.2-0.1-0.3-0.1-0.5,0
	s-0.4-0.1-0.7-0.2c-0.1,0-0.3,0-0.5-0.1c0.1,0.2,0.2,0.3,0.2,0.4c0,0,0,0-0.1,0.1c-0.4-0.6-1.1-0.6-1.7-0.8c-0.3-0.1-0.8,0-1-0.5
	c0,0-0.2,0-0.4,0c0-0.1,0.1-0.2,0.1-0.4c-0.2-0.1-0.3-0.3-0.5-0.4c-0.1,0-0.3,0-0.3,0c-0.1,0.2-0.2,0.3-0.1,0.5s0.2,0.5,0.3,0.7
	c0.1,0.2,0.1,0.3,0.1,0.5c0,0.1,0,0.2,0,0.4c0,0.1,0,0.2-0.2,0.4s0,0.4,0.1,0.5c0.1-0.2,0.2-0.3,0.3-0.4c0,0.1,0.1,0.1,0.1,0.3
	c0.1-0.2,0.1-0.4,0.1-0.6l0,0c0,0.2,0,0.3,0,0.5l0,0c0-0.1,0-0.2,0.1-0.3c0.1,0.1,0.1,0.2,0.1,0.3c0-0.2,0.1-0.4,0.1-0.6l0,0
	c0,0.1,0,0.3,0,0.4h0.1c0-0.1,0.1-0.2,0.1-0.4c0,0.1,0.1,0.2,0.1,0.4c0-0.2,0.1-0.3,0.1-0.3c0.1,0.1,0.1,0.2,0.2,0.3
	c0.1-0.2,0.1-0.3,0.1-0.4c0,0,0,0,0.1,0c0,0.1,0,0.2,0,0.2c0.4,0,0.8,0.1,1.1,0.1c0.5,0,1.1,0,1.6,0c0.9,0,1.8-0.1,2.7,0.2
	c0.4,0.1,0.7,0.2,1.1,0.3c0.2,0,0.4-0.1,0.6,0c-0.1,0-0.2,0.1-0.3,0.1c0.4,0.1,0.5,0.3,0.8,0.6c0.5,0.5,0.6,1.2,0.9,1.8
	c0.2,0.3,0.2,0.6,0.3,1c0.1,0.3,0.1,0.5,0.3,0.6c0.1,0.1,0.1,0.1,0.1,0.2c-0.1-0.1-0.2-0.1-0.3-0.2c0.1,0.4,0.2,0.7,0.3,1
	c0.1,0.4,0.2,0.9,0.3,1.3c0,0.2,0.1,0.4,0.3,0.6c0.2,0.1,0.3,0.3,0.5,0.4c0,0,0,0,0,0.1c-0.2-0.2-0.5-0.3-0.7-0.5
	c0.1,0.2-0.1,0.5,0.2,0.6c-0.2,0.3,0,0.5,0.2,0.7c-0.1,0-0.1,0-0.2-0.1c0.1,0.3,0.2,0.6,0.4,0.9h-0.1l0,0c0.1,0.1,0.2,0.2,0.3,0.3
	c-0.1,0-0.1,0-0.2,0c0.1,0.2,0.2,0.4,0.3,0.6l0,0c0,0.1,0,0.2,0.1,0.2c0.2,0.3,0.4,0.5,0.6,0.8c-0.2-0.1-0.4-0.2-0.6-0.3
	c0,0,0,0.1-0.1,0.1c0.1,0.1,0.3,0.2,0.4,0.3c0.1,0.1,0.2,0.2,0.3-0.1c0.1,0.1,0.2,0.2,0.4,0.2c0.6,0.2,1.2,0.3,1.8,0.4
	c0.4,0.1,0.7,0.2,1.1,0.3c0.6,0.2,1.2,0.4,1.8,0.6c0.4,0.2,0.8,0.4,1.1,0.6c0.2,0.1,0.5,0.2,0.8,0.3c0.3,0.1,0.5,0.3,0.8,0.4
	c0.1,0.1,0.3,0.1,0.4,0.1c0.2,0.1,0.4,0.2,0.4,0.5c-0.1-0.1-0.2-0.3-0.3-0.3c-0.1,0-0.2,0-0.4,0c0.1,0.2,0.1,0.2,0.1,0.3l0,0
	c-0.1,0-0.1-0.1-0.2-0.1c-0.1-0.2-0.2-0.1-0.3,0c-0.1,0.3-0.2,0.2-0.4,0c-0.1-0.1-0.2-0.2-0.2-0.3c-0.1,0.1-0.1,0.1-0.2,0.2l0,0
	c0.1-0.1,0.1-0.3,0.2-0.4c-0.4-0.1-0.7-0.2-1.1-0.3c-0.1,0-0.1-0.1-0.2-0.2s-0.3-0.2-0.4-0.2c-0.4-0.1-0.8-0.2-1.2-0.3
	c-0.4-0.1-0.9-0.2-1.3-0.3c-0.4-0.1-0.8-0.2-1.1-0.2c-0.2,0-0.3,0-0.5,0c-0.3,0-0.6-0.1-0.8-0.1c-0.2-0.1-0.5-0.1-0.7-0.2
	c-0.3-0.2-0.6-0.5-0.8-0.7c0,0.1,0,0.2-0.1,0.3c-0.1-0.1-0.2-0.1-0.3-0.2c0-0.1,0-0.2,0-0.3c-0.1-0.6-0.3-1.2-0.5-1.8
	c-0.1-0.4-0.2-0.9-0.3-1.4c-0.1,0.2-0.2,0.5-0.3,0.7c0.1-0.6,0.2-1.2,0.3-1.8h-0.1L49,59.6c-0.1-0.7-0.2-1.4-0.3-2
	c-0.1-0.6-0.2-1.1-0.3-1.6c0-0.3-0.1-0.6-0.1-0.8c-0.1-0.3-0.2-0.5-0.3-0.8h-0.1v0.1c-1.2-0.1-2.3,0.2-3.5,0.6
	c0.1,0.1,0.1,0.2,0.2,0.2c-0.3,0-0.7-0.1-1-0.1s-0.6,0-0.8,0.4c0-0.1,0.1-0.2,0.1-0.3c-0.3,0-0.6,0-0.9-0.1c0.2,0.3,0.4,0.6,0.6,0.9
	c0,0,0,0-0.1,0c-0.3-0.3-0.5-0.7-0.8-1h-0.1c0,0.1,0.1,0.2,0.1,0.3c-0.3-0.2-0.5-0.3-0.8-0.5c0,0.1-0.1,0.2-0.1,0.2
	c-0.3-0.1-0.6-0.3-1-0.4c0,0.2,0,0.2,0,0.2c-0.4-0.1-0.7-0.3-1.1-0.4c0,0.2,0.1,0.3,0.1,0.5h-0.1c-0.2-0.2-0.4-0.3-0.6-0.5
	c-0.2-0.4-0.4-0.8-0.6-1.2c0,0,0,0-0.1,0c0,0.4,0.3,0.7,0.6,1c0,0-0.1,0-0.2,0c0.1,0.3,0.2,0.5,0.3,0.7c0,0,0,0-0.1,0
	c-0.2-0.4-0.4-0.8-0.6-1.1c0,0,0,0-0.1,0c0.1,0.2,0.2,0.5,0.3,0.8c-0.1-0.1-0.2-0.1-0.3-0.2c-0.1,0.6-0.5,0.7-0.9,1l-0.1-0.1
	c0,0.1-0.1,0.1-0.1,0.2c0-0.1-0.1-0.1-0.1-0.2c-0.2,0.1-0.5,0.3-0.7,0.4v-0.1c-0.2,0.4-0.4,0.8-0.6,1.2c0,0,0,0-0.1,0
	c0.2-0.4,0.3-0.8,0.5-1.2c-0.2,0-0.4,0-0.6,0.1c0,0.1,0,0.2,0.1,0.4c-0.3-0.5-0.5-0.4-1-0.2c-0.1-0.1-0.2-0.2-0.3-0.2
	c-0.5-0.2-1.1-0.4-1.7-0.4c-0.1,0-0.1,0-0.3-0.1c0,0.2-0.1,0.5-0.1,0.7c-0.1,1.1-0.1,2.2-0.2,3.3c0,0.4-0.1,0.8-0.1,1.2
	c0,0.2,0.1,0.5,0.1,0.8c-0.1-0.1-0.1-0.2-0.2-0.4c-0.1,1.2-0.1,2.3-0.4,3.3c0-0.1,0-0.2-0.1-0.3c-0.1,0.1-0.1,0.2-0.2,0.3
	c-0.3,0.4-0.7,0.7-1.3,0.7c-0.4,0-0.7,0.2-1.1,0.4c-0.4,0.2-0.8,0.3-1.2,0.5c-0.3,0.2-0.6,0.4-0.8,0.6c-0.1,0.1-0.2,0.3-0.3,0.5
	c0,0,0,0-0.1,0.1c-0.1,0-0.3-0.1-0.4-0.1c0.1-0.2,0-0.3-0.3-0.2c1.6-1.3,3.1-2.5,5.1-2.9c0-0.1,0-0.2,0-0.3
	c-0.1,0.1-0.2,0.2-0.3,0.2c0.6-1.1,0.5-2.3,0.7-3.5h-0.1c0.1-0.4,0.1-0.9,0.2-1.3c0-0.4,0.2-0.8,0.1-1.3c0.1-0.5,0.1-1,0.2-1.4
	c0.1-0.6,0.3-1.2,0.5-1.8c0-0.1,0.2-0.3,0.3-0.4c0,0,0-0.1,0-0.2c0.1,0,0.2,0,0.2,0c0-0.3,0-0.7,0-1c0-0.1-0.1-0.1-0.2-0.2h-0.1
	c0,0.3,0.1,0.5,0.1,0.8l0,0c-0.2-0.5-0.3-1-0.5-1.4c-0.1,0.1-0.1,0.1-0.1,1c0-0.1-0.1-0.3-0.1-0.4c-0.2,0.6-0.7,0.2-1,0.3
	c-0.2,0-0.3,0-0.3,0.1s-0.2,0.1-0.3,0.2c-0.1-0.2-0.2-0.3-0.4-0.1c-0.1,0.1-0.3,0.1-0.5,0.2c0.3,0.3,0.5,0.6,0.8,0.9l0,0
	c-0.2-0.2-0.4-0.3-0.6-0.5s-0.3-0.4-0.5-0.6c-0.2,0.2-0.2,0.3,0,0.5c0.3,0.4,0.7,0.8,0.9,1.1c-0.1-0.1-0.3-0.2-0.4-0.3
	c-0.5-0.4-0.8-0.9-1-1.6c0-0.1-0.1-0.1-0.2-0.2c-0.2,0.6,0,1,0.2,1.4c0.2,0.5,0.5,0.8,1,1c-0.4-0.1-0.7-0.3-1.1-1
	c-0.2-0.5-0.4-1-0.5-1.4c-0.3,0.4-0.2,0.8,0.1,1.3c0,0,0,0-0.1,0c-0.1-0.2-0.2-0.3-0.2-0.5c-0.1,0-0.1,0-0.1,0c0-0.2,0-0.4,0-0.6
	s-0.1-0.4-0.1-0.6h-0.1c0,0.2-0.1,0.4-0.1,0.6c0,0,0,0-0.1,0c0-0.2,0-0.4,0-0.6c0-0.1,0-0.2-0.1-0.3c-0.1,0.1-0.2,0.1-0.2,0.2
	c-0.1,0.2-0.2,0.4-0.2,0.6h-0.1c0.1-0.3,0.2-0.6,0.3-0.9h-0.1c-0.4,0.5-0.6,1-0.6,1.7H25c0-0.4,0-0.9-0.1-1.4
	c-0.1,0.1-0.2,0.2-0.3,0.4c0.1-0.4,0.6-0.7,0.4-1.3c-0.3,0.4-0.6,0.7-0.9,1.1c0,0,0,0-0.1,0c0.2-0.3,0.4-0.6,0.7-0.9
	c0.2-0.2,0.1-0.3-0.1-0.4c-0.1,0.2-0.2,0.3-0.3,0.5c0-0.3,0.4-0.6,0-0.9c-0.2,0.2-0.3,0.4-0.5,0.5c0,0,0,0-0.1,0
	c0.1-0.2,0.3-0.4,0.4-0.6c-0.1-0.1-0.1-0.1-0.3-0.2c-0.1,0.2-0.2,0.3-0.4,0.5c0,0-0.1,0-0.1-0.1c0.1-0.1,0.1-0.2,0.2-0.2
	c0-0.1,0-0.2,0.1-0.3c-0.1,0-0.2,0-0.3,0c0,0-0.1,0-0.1,0.1c0-0.2,0.4-0.2,0.1-0.5c-0.2,0.1-0.4,0.2-0.6,0.3l0,0
	c0.2-0.1,0.3-0.2,0.5-0.3c-0.1-0.4-0.6-0.1-0.7-0.5c-0.1,0.4-0.3,0.6-0.2,0.9c0.1,0.5,0.1,1.1,0.1,1.6c-0.1-0.4-0.2-0.9-0.4-1.3
	c0-0.1-0.1-0.2-0.1-0.2c-0.1,0-0.2,0.1-0.3,0.2c0,0,0,0.2,0.1,0.2c0.2,0.2,0.1,0.5,0.1,0.8c0-0.2,0-0.4-0.1-0.7
	c-0.1,0.1-0.1,0.1-0.2,0.2c-0.1-0.1-0.1-0.1-0.2-0.2c0,0.4,0,0.7-0.1,0.9c-0.1-0.1-0.2-0.2-0.2-0.3c-0.2,0.3-0.4,0.5-0.6,0.8
	c-0.2,0.4-0.5,0.8-0.7,1.3c0,0.1-0.1,0.2-0.2,0.2c-0.1,0.2-0.3,0.4-0.2,0.7c0,0.4,0,0.9,0,1.3h-0.1c0-0.5-0.1-1-0.1-1.5H19
	c-0.6,1-1.2,2.1-1.8,3.1c-0.2-0.2-0.6-0.1-0.8,0.2c-0.3,0.4-0.7,0.6-1.2,0.7c-0.2,0-0.5,0.2-0.7,0.3c-0.6,0.2-1.1,0.5-1.6,0.8
	l-0.1,0.1c-0.2,0.4-0.7,0.4-0.9,0.8c0,0.1,0.1,0.1,0.1,0.2c-0.1,0.1-0.2,0.2-0.3,0.3c-0.1,0-0.3-0.1-0.4-0.1c0,0-0.1-0.1-0.1-0.2
	c-0.1,0.1-0.2,0.2-0.4,0.3c0.1-0.2,0.1-0.3,0.2-0.4c0.4-0.3,0.8-0.6,1.1-1c0.3-0.2,0.5-0.5,0.7-0.7c0.1-0.1,0.3-0.2,0.4-0.3
	c0.9-0.6,1.7-1.2,2.8-1.5c0.1,0,0.3-0.2,0.4-0.3c0,0,0-0.1-0.1-0.1c-0.2,0.1-0.3,0.2-0.5,0.3l0,0c0.2-0.1,0.3-0.3,0.5-0.4
	c0,0,0-0.1-0.1-0.1c-0.2,0.1-0.4,0.3-0.7,0.4c0,0,0,0-0.1-0.1c0.7-0.4,1.2-1,1.7-1.7C17,54.9,16.8,55,16.7,55l0,0
	c0.3-0.3,0.6-0.6,0.9-0.9c0,0,0,0,0-0.1h-0.1c-0.1,0-0.3,0.1-0.4,0.1c-0.1-0.1-0.2-0.3-0.2-0.5c0-0.3,0.1-0.7,0.2-1
	c0.1-0.2,0.2-0.4,0.3-0.7c-0.2,0-0.4,0-0.6,0s-0.4,0.1-0.5-0.1h-0.2c-0.1,0.1-0.2,0.1-0.4,0.2c0.1-0.1,0.2-0.2,0.3-0.3
	c0,0,0-0.1-0.1-0.1c-0.4,0.2-0.7,0.4-1,0.8c0-0.1,0.1-0.2,0.1-0.3c0.1-0.1,0.1-0.2,0.3-0.3c-0.3,0.1-0.6-0.3-0.9,0.1
	c0-0.3,0.1-0.6,0.1-0.9c-0.1,0-0.1,0-0.3,0c0.1-0.1,0.2-0.2,0.3-0.4c-0.4,0-0.8,0.1-1.1,0.1c-0.4,0-0.7-0.2-1.1-0.2v-0.1
	c0.3-0.1,0.6-0.2,0.9-0.2c0.2,0,0.3-0.1,0.5-0.1c0.3-0.1,0.5-0.2,0.5-0.6v-0.1c0.1-0.2,0.3-0.4,0.2-0.7c-0.1-0.2-0.1-0.5-0.2-0.7
	c0,0.3,0,0.7-0.1,1c-0.1,0.2-0.3,0.4-0.5,0.6c-0.3,0.2-0.5,0-0.5-0.3c-0.1-0.4-0.1-0.7-0.2-1.1c0.1,0.4,0.1,0.7,0.2,1.1
	c-0.3,0-0.4-0.2-0.4-0.4c-0.1-0.8-0.2-1.5-0.3-2.3c-0.2,0.5-0.3,0.9-0.5,1.3h-0.1c0.1-0.6,0.3-1.2,0.4-1.9c-0.5,0.3-0.5,0.9-0.9,1.3
	c0.1-0.2,0.1-0.3,0.2-0.5c0.1-0.3,0.2-0.6,0.3-0.9c0.1-0.2,0.2-0.3,0.3-0.4c0.2-0.2,0.2-0.4,0.1-0.7c-0.1-0.2-0.1-0.3-0.2-0.5
	c0.2,0,0.5-0.3,0.5-0.6s-0.1-0.6-0.1-0.9c0-0.1-0.2-0.2-0.3-0.3c-0.1-0.1-0.2-0.1-0.4-0.2c0.1-0.1,0.1-0.1,0.2-0.1
	c0.1,0.3,0.3,0.2,0.5,0.3c0.1-0.3,0.2-0.6,0.3-0.9c-0.2,0.1-0.3,0.1-0.4,0.2v-0.1c0.5-0.5,0.9-1,1.4-1.5c0.1-0.1,0.2-0.2,0.3-0.2
	c0.3-0.2,0.4-0.3,0.2-0.6c-0.1-0.1-0.2-0.3-0.3-0.4c0-0.1,0-0.2,0-0.2c0-0.1,0-0.2,0-0.2c0,0.1,0.1,0.1,0.1,0.2
	c0,0.2,0.1,0.3,0.4,0.2c0.1,0,0.2,0,0.3,0c-0.1-0.2-0.1-0.3,0.1-0.5c0.3-0.2,0-0.3-0.1-0.5c0.2,0,0.3,0.1,0.5,0.1s0.3,0.1,0.5,0
	c0.1,0,0.3-0.2,0.3-0.2c0.5-0.1,1,0,1.4-0.3c0.1,0.4,0.4,0.2,0.6,0.4c0,0,0,0,0.1-0.1C18,37.8,18,37.6,18,37.5
	c0.1-0.2,0.1-0.3,0.2-0.5c0,0,0,0,0.1,0c0.1,0.3,0.1,0.7,0.2,1.1c0.1-0.1,0.2-0.2,0.3-0.3c-0.1,0.4-0.1,0.5-0.5,0.3
	c-0.2-0.1-0.5-0.2-0.7-0.2c-0.3-0.1-0.7,0.2-0.9,0.6c0.3-0.1,0.4-0.2,0.6-0.3c0.3-0.2,0.6-0.1,0.8,0c0.3,0.1,0.5,0.2,0.8,0.4
	c0.1-0.1,0.2-0.2,0.3-0.3c0,0.2,0,0.4-0.1,0.6c0,0,0,0,0.1,0c0.1-0.1,0.1-0.3,0.2-0.4c0,0,0,0,0.1,0c-0.1,0.3-0.1,0.5-0.2,0.8
	c0.1,0,0.2-0.1,0.3-0.1c0,0.1,0,0.2,0,0.4l0,0c0.1,0,0.2,0,0.4,0c0,0.1,0,0.2,0,0.3c0.1-0.2,0.1-0.3,0.2-0.4c0.2,0.3,0,0.5-0.1,0.9
	c0.2-0.1,0.4-0.2,0.6-0.3c-0.1,0.3-0.1,0.7-0.2,1.1c0.1-0.2,0.3-0.4,0.4-0.5c0,0.3,0,0.5,0,0.7c0.3-0.1,0.3-0.3,0.3-0.5
	c0-0.6,0.2-1.1,0.5-1.6c0.1-0.1,0.1-0.2,0.1-0.3c0.1-0.2,0.1-0.3,0.2-0.5c-0.4,0-0.9,0-1.4,0v-0.1c0.6,0,1.1,0,1.7,0
	c0.4-0.7,0.3-1.5,0.9-2.1c-0.2,0.4-0.3,0.7-0.4,1l0,0c0.1-0.1,0.2-0.2,0.3-0.3c0,0.3-0.4,0.6-0.1,1c0.2-0.3,0.4-0.6,0.5-1
	c0,0,0,0,0.1,0c0,0.1-0.1,0.2-0.1,0.3c0,0,0,0,0.1,0c0.1-0.2,0.3-0.4,0.4-0.7c0.2,0.1,0.3,0.1,0.4-0.2s0.3-0.5,0.6-0.6
	c0.1,0,0.1-0.1,0.2-0.1c0.1-0.1,0.2-0.3,0.4-0.1c0,0,0.1,0,0.2-0.1s0.2-0.2,0.3-0.3c0.1,0.1,0.2,0.3,0.3,0.4
	c0.1-0.1,0.2-0.2,0.3-0.2c-0.1-0.1-0.2-0.1-0.3-0.2c0.2-0.1,0.3-0.2,0.5-0.2c0,0.1,0,0.2,0,0.3c0.6-0.3,1.2-0.5,1.8-0.8
	c0.2-0.1,0.4-0.2,0.6-0.3c0.1-0.1,0.3-0.1,0.4,0c0.2,0.1,0.4,0.1,0.6,0s0.4-0.1,0.6,0.1c0.2,0.3,0.5,0.4,0.9,0.3
	c-0.1-0.4-0.4-0.2-0.6-0.3c0.3,0.1,0.5-0.3,0.9-0.1c0.1,0,0.2-0.1,0.3-0.1c0.2,0,0.4,0,0.6,0c0.6,0.2,1.3,0.2,1.9,0.5
	c0.3,0.1,0.6,0.2,0.9,0.3c0,0,0,0,0.1,0c0.3-0.1,0.6-0.3,0.9-0.4c0.3-0.2,0.6-0.4,0.9-0.7c0.2-0.1,0.3-0.4,0.5-0.5v0.1
	c0.6-0.5,1.1-1.1,1.7-1.6c0.6-0.6,1.3-1.1,1.9-1.6s1.1-1,1.7-1.4c0.2-0.2,0.5-0.4,0.8-0.4c0,0,0.1,0,0.1-0.1c0.4-0.6,1-0.9,1.5-1.3
	c0.7-0.6,1.5-1.2,2.2-1.8c0.8-0.6,1.7-1.3,2.6-1.9c0.6-0.4,1.1-0.8,1.7-1.2c0.4-0.2,0.8-0.5,1.2-0.7l0.3-0.3
	c0.2-0.1,0.5-0.3,0.7-0.4h0.1c0.4,0,0.6-0.2,0.8-0.5c0.1,0,0.2,0.1,0.3,0c0.2-0.1,0.4-0.2,0.6-0.3l0.1-0.1c0.5-0.1,0.9-0.2,1.4-0.4
	c0.2-0.1,0.4-0.1,0.7-0.2c0.1,0,0.3-0.1,0.4-0.1c0.4-0.1,0.9,0,1.3-0.2c0.4-0.1,0.8-0.1,1.2-0.1c0.6,0,1.1,0.2,1.7,0.3
	c0.2,0,0.5,0,0.7,0.2h0.2c0.2,0.2,0.4,0.3,0.6,0.5c0.3,0.2,0.5,0.5,0.7,0.7c0.2,0.3,0.1,0.6-0.2,1c-0.2,0.3-0.4,0.6-0.6,1
	c-0.2,0.5-0.5,0.9-0.8,1.3c-0.2,0.3-0.4,0.5-0.6,0.9c0.2,0,0.4,0,0.5,0c0.7-0.1,1.4,0,2.1,0.1c0.3,0,0.5,0,0.8,0.1
	c0.2,0,0.4,0.1,0.6,0.2c0.1,0,0.2,0.1,0.4,0.1c0.2,0.1,0.5,0.1,0.6,0.3c0,0,0,0.1,0.1,0.1c0.5,0,0.6,0.5,1,0.8
	c0.5,0.3,0.6,0.9,0.6,1.5C68.9,28.3,68.7,28.8,68.6,29.4z"/>
</svg>
