<?xml-stylesheet type="text/css" href="/CMS_Themes/Default/Css/pest-icons.css" ?>
<svg version="1.1" id="Layer_1" xmlns="http://www.w3.org/2000/svg" viewBox="0 0 82.3 82.3" width="100%" height="100%">
<path fill="#102e52" class="pest-search__item-icon" d="M41.2,0C18.4,0,0,18.4,0,41.2s18.4,41.2,41.2,41.2s41.2-18.4,41.2-41.2S63.9,0,41.2,0z M76.1,34.5
	c-0.2,0.1-0.4,0.2-0.4,0.4c-0.2,0.9-0.9,1.3-1.7,1.6c-1.7,0.5-3.4,0.9-5,1.4c-1.2,0.3-2.5,0.5-3.7,0.8c-2.7,0.7-4.3,2.8-5.6,5
	c-0.5,0.9-0.7,2-1,3c-0.1,0.3-0.1,0.6,0,0.9c0.6,2.3,1.6,4.4,3.6,5.9c0.4,0.3,1,0.4,1.5,0.4c1.3,0.1,2.4,0.7,3.5,1.2
	c0,0.1-0.1,0.2-0.1,0.3c-0.6-0.1-1.3-0.2-2-0.3c0.5,0.3,0.9,0.6,1.3,0.9c0,0.1-0.1,0.2-0.1,0.3c-0.8-0.2-1.5-0.5-2.3-0.7
	c0.4,0.4,0.8,0.8,1.2,1.4c-0.3,0-0.5,0.1-0.6,0.1c-2.1-1-4.4-1.7-6.3-3.1c-2.3-1.7-4.9-3.1-7.4-4.5c-1.5-0.8-3.1-0.6-4.7-0.1
	c-1.9,0.6-3.7,1.5-5.2,2.9c-1.3,1.2-2.6,2.4-4.5,2.7c0.6,0.3,1,0.5,1.4,0.7c0,0.1-0.1,0.2-0.1,0.3c-0.6-0.2-1.2-0.3-1.8-0.5
	c0,0,0,0.1,0,0.1c0.5,0.3,0.9,0.5,1.4,0.8c0,0.1,0,0.1,0,0.2c-0.7-0.2-1.3-0.3-2-0.5c-0.1,0.1-0.1,0.1-0.2,0.2
	c0.4,0.3,0.8,0.5,1.2,0.8c-0.1,0.1-0.1,0.2-0.2,0.3c-1-0.3-2-0.7-3-1c0.1,0.4,0.1,0.6,0.2,1c-0.3-0.1-0.5-0.1-0.6-0.2
	c-2.5-2-5.4-2.9-8.4-3.5c-1.3-0.3-2.6-0.5-3.7-1.6c-0.5-0.5-1.7-0.4-2.5-0.2c-1.1,0.2-2.2,0.7-3.2,1.3c-2.4,1.3-2.9,3.5-1.3,5.8
	c1.2,1.7,3,2.2,5,2.3c3,0.2,5.8-0.6,8.6-1.4c5.3-1.4,10.5-1.3,15.8-0.1c0.3,0.1,0.5,0.2,0.7,0.3c0,0,0,0.1,0,0.1
	c-1.3-0.2-2.6-0.4-3.9-0.5c-4.9-0.4-9.7,0.3-14.4,1.9c-2.5,0.9-5.1,1.4-7.9,1.2c-3.6-0.2-6.3-2.6-6.8-6.2c-0.2-1.7,0.3-3.1,1.6-4.1
	c1.3-1,2.9-1.7,4.4-2.6c0.2-0.1,0.3-0.1,0.5-0.2c2-0.8,2.1-0.9,1.9-3c-0.6-5.5,1.9-9.6,6.1-12.8c5.7-4.3,12-6.6,19.2-6.3
	c1.9,0.1,3.9,0.6,5.7,1.2c2.5,0.7,5,1.2,7.6,1.1c0.2,0,0.5-0.1,0.7-0.1c-0.5-1.3-0.4-2.2,0.3-2.7c0.7-0.5,1.2-0.4,2.5,0.7
	c0.1-0.4,0-0.8,0.2-1c0.3-0.4,0.8-1,1.2-1c0.4,0,1.2,0.5,1.3,0.9c0.2,1.6,1.3,1.7,2.5,2.1c2,0.7,4,1.6,6,2.4
	c1.3,0.5,2.5,1.2,3.7,1.8C76.9,33.5,76.9,34,76.1,34.5z"/>
</svg>
