<?xml-stylesheet type="text/css" href="/CMS_Themes/Default/Css/pest-icons.css" ?>
<svg version="1.1" id="Layer_1" xmlns="http://www.w3.org/2000/svg" viewBox="0 0 82.3 82.3" width="100%" height="100%">
<path fill="#102e52" class="pest-search__item-icon" d="M41.2,0C18.4,0,0,18.4,0,41.2s18.4,41.2,41.2,41.2s41.2-18.4,41.2-41.2S63.9,0,41.2,0z M25.4,34.5
	C25.4,34.5,25.4,34.5,25.4,34.5L25.4,34.5C25.4,34.5,25.4,34.5,25.4,34.5z M65.5,46.1c-0.9-0.3-1.7-0.5-2.6-0.8
	c-0.8-0.2-1.5-0.6-2.4-0.6c-0.2,0-0.6-0.3-0.7-0.6c-0.9-1.2-1.7-2.3-2.5-3.5c-0.1-0.1-0.2-0.2-0.4-0.3c0.2,0.2,0.3,0.5,0.5,0.7
	c1,1.8,2.1,3.6,2.3,5.7c0.1,1.2,0.2,2.4,0.2,3.5c-0.1,1.8-1,3.4-2.1,4.8c-0.3,0.3-0.6,0.6-0.9,0.9c-0.1,0.1-0.3,0.2-0.4,0.2
	c-0.3,0-0.5,0.1-0.6,0.3l0,0c0,0,0,0,0,0c0,0,0,0,0,0l0,0c-0.2,0.1-0.3,0.3-0.3,0.6c0,0.1-0.1,0.3-0.2,0.4c-0.3,0.3-0.6,0.6-0.9,0.9
	c-1.4,1.1-3,2-4.8,2.1c-1.2,0.1-2.4,0-3.5-0.2c-2.1-0.2-3.9-1.2-5.7-2.3c-0.2-0.1-0.5-0.3-0.7-0.5c0.1,0.2,0.2,0.3,0.3,0.4
	c1.2,0.8,2.4,1.7,3.5,2.5c0.3,0.2,0.6,0.5,0.6,0.7c0,0.9,0.3,1.6,0.6,2.4c0.3,0.9,0.5,1.7,0.8,2.6c-0.2,0-0.5,0-0.7,0.1
	c-0.1-0.4-0.1-0.8-0.2-1.2c-0.3-0.9-0.6-1.7-1-2.6c-0.1-0.2-0.2-0.3-0.4-0.4c-2-1.2-3.8-2.7-5-4.7c-0.6-0.9-1.2-1.7-2-2.5
	c-1.2-1.1-2.6-2.1-3.5-3.5c-0.1-0.2-0.3-0.3-0.4-0.5c0.2,0.4,0.4,0.8,0.6,1.2c0.6,0.8,1.3,1.6,1.9,2.4c0.2,0.2,0.2,0.5,0.3,0.8
	c0,0.5,0,0.9,0,1.4c0.1,1.1,0.1,2.1,0.2,3.2c-0.2,0-0.4,0-0.5,0c0-0.8-0.1-1.5-0.1-2.3c-0.1-0.9-0.2-1.8-1-2.4
	c-0.1-0.1-0.2-0.3-0.3-0.4c-0.8-1.4-1.7-2.8-2.5-4.3c-0.5-0.8-0.8-1.7-0.7-2.7c0-0.2-0.1-0.4-0.2-0.6c-0.5-1.1-1.1-2.2-1.5-3.4
	c-0.2-0.5-0.3-1-0.7-1.4c-0.9-1-1.8-2-2.5-3.2c-0.4-0.7-0.8-1.4-1.1-2.1c-0.3-0.6-0.4-1.2-0.7-1.8c-0.1-0.2-0.3-0.5-0.5-0.6
	c-1-0.4-2-0.7-3-1.1c0.1-0.2,0.1-0.3,0.2-0.5c0.2,0.1,0.4,0.2,0.6,0.3c0.8,0.3,1.6,0.5,2.4,0.7c0.2,0.1,0.5,0.1,0.8,0.1
	c0.6,0,0.9,0.3,1,0.8c0.1,0.4,0.1,0.7,0.3,1c0.3,0.8,0.5,1.6,0.9,2.4c0.3,0.6,0.6,1.1,1,1.7c0.1,0.1,0.2,0.1,0.4,0.2
	c0-0.1,0-0.2,0-0.4c0-0.1,0-0.1,0-0.2c0.2-0.5,0.4-1,0.5-1.5c0.4-1.1,0.7-2.2,1-3.4c0.1-0.2,0-0.5-0.1-0.6C28.5,34.3,28,34,27.5,34
	c-0.8,0-1.2-0.5-1.6-1.1c-0.2-0.3-0.1-0.6,0.3-0.7c0.6-0.2,1.3-0.2,1.8,0.3c0.2,0.2,0.5,0.4,0.8,0.6c0.4,0.2,0.7,0.2,0.8-0.3
	c0.2-0.6,0.6-1,1-1.4c0.4-0.4,0.9-0.8,1.4-1c0.5-0.2,0.5-0.5,0.3-0.8c-0.2-0.3-0.4-0.6-0.6-0.8c-0.5-0.5-0.5-1.1-0.3-1.8
	c0.1-0.4,0.4-0.5,0.7-0.3c0.6,0.4,1,0.8,1.1,1.6c0,0.5,0.4,1,0.6,1.4c0.1,0.1,0.4,0.1,0.6,0.1c1.1-0.3,2.2-0.7,3.4-1
	c0.5-0.2,1-0.3,1.5-0.5c0.1,0,0.1,0,0.2,0c0.1,0,0.2,0,0.4,0c-0.1-0.1-0.1-0.3-0.2-0.4c-0.6-0.4-1.1-0.7-1.7-1
	c-0.8-0.3-1.6-0.6-2.4-0.9c-0.3-0.1-0.7-0.2-1-0.3c-0.6-0.1-0.9-0.4-0.8-1c0-0.3,0-0.5-0.1-0.8c-0.2-0.8-0.5-1.6-0.7-2.4
	c-0.1-0.2-0.2-0.4-0.3-0.6c0.2-0.1,0.4-0.2,0.5-0.2c0.4,1,0.7,2,1.1,3c0.1,0.2,0.4,0.4,0.6,0.5c0.6,0.3,1.2,0.4,1.8,0.7
	c0.7,0.3,1.4,0.7,2.1,1.1c1.2,0.6,2.2,1.5,3.2,2.5c0.4,0.4,0.9,0.5,1.4,0.7c1.1,0.4,2.2,1,3.4,1.5c0.2,0.1,0.4,0.2,0.6,0.2
	c1-0.1,1.9,0.2,2.7,0.7c1.4,0.8,2.9,1.7,4.3,2.5c0.1,0.1,0.3,0.2,0.4,0.3c0.6,0.9,1.5,1,2.4,1c0.7,0.1,1.5,0.1,2.3,0.1
	c0,0.1,0,0.3,0,0.5c-1.1-0.1-2.2-0.2-3.2-0.2c-0.5,0-0.9,0.1-1.4,0c-0.3,0-0.6-0.1-0.8-0.3c-0.8-0.6-1.6-1.3-2.4-1.9
	c-0.3-0.3-0.7-0.5-1.2-0.6c0.2,0.1,0.3,0.3,0.5,0.4c1.4,1,2.4,2.3,3.5,3.5c0.7,0.8,1.6,1.4,2.5,2c2,1.3,3.5,3,4.7,5
	c0.1,0.2,0.3,0.3,0.4,0.4c0.9,0.3,1.7,0.7,2.6,1c0.4,0.1,0.8,0.1,1.2,0.2C65.6,45.7,65.6,45.9,65.5,46.1z"/>
</svg>
