<?xml-stylesheet type="text/css" href="/CMS_Themes/Default/Css/pest-icons.css" ?>
<svg version="1.1" id="Layer_1" xmlns="http://www.w3.org/2000/svg" viewBox="0 0 82.3 82.3" width="100%" height="100%">
<path class="pest-search__item-icon" d="M41.2,0C18.4,0,0,18.4,0,41.2c0,22.7,18.4,41.2,41.2,41.2s41.2-18.4,41.2-41.2C82.3,18.4,63.9,0,41.2,0z M70,41
	c-0.6,1.6-2,1.9-3.5,2.1c-3.2,0.3-6.5,0.6-9.7,0.8c-3.2,0.2-3.2,0.7-4.4,3.7c-0.6,1.5-1.2,3.2-2,4.6l0,0c0,0,0,0,0,0c0,0,0,0,0,0
	l0,0c-1.5,0.8-3.1,1.4-4.6,2c-3,1.2-3.5,1.2-3.7,4.4c-0.2,3.3-0.5,6.5-0.8,9.7c-0.1,1.5-0.4,2.9-2.1,3.5c-1.7,0.6-3.3,0.1-4.3-1.1
	c-1.4-1.7-2.7-3.6-3.5-5.7c-1-2.4-1.4-5.1-1.9-7.6c-0.9-4.5-1.6-9-2.5-13.5c-0.2-1.1-0.4-2.5-1.2-3.2c-1.5-1.5-3.1-2.9-3-5.3
	c0-0.3-0.5-0.6-0.6-0.9c-0.3-0.6-0.7-1.2-0.8-1.8c-0.2-2.2-1.6-3.3-3.8-3.1c-0.7,0.1-1.4,0.2-2.1,0.3c0-0.3-0.1-0.6-0.1-0.8
	c2-1.2,4.2-0.4,5.7-0.2c0.8-1.3,1.5-2.5,2.2-3.6l0,0c0,0,0,0,0,0c0,0,0,0,0,0l0,0c1.2-0.7,2.3-1.4,3.6-2.2c-0.2-1.5-0.9-3.8,0.2-5.7
	c0.3,0,0.6,0.1,0.8,0.1c-0.1,0.7-0.3,1.4-0.3,2.1c-0.3,2.2,0.9,3.6,3.1,3.8c0.6,0.1,1.2,0.5,1.8,0.8c0.3,0.2,0.6,0.6,0.9,0.6
	c2.4-0.1,3.8,1.5,5.3,3c0.8,0.7,2.1,1,3.2,1.2c4.5,0.9,9,1.6,13.5,2.5c2.6,0.5,5.2,1,7.6,1.9c2.1,0.8,4,2.1,5.7,3.5
	C70.2,37.7,70.7,39.3,70,41z"/>
</svg>
