<?xml-stylesheet type="text/css" href="/CMS_Themes/Default/Css/pest-icons.css" ?>
<svg version="1.1" id="Layer_1" xmlns="http://www.w3.org/2000/svg" viewBox="0 0 82.3 82.3" width="100%" height="100%">
<g>
	<path class="pest-search__item-icon" d="M12,66.6c4.4-4.3,7.4-9.7,10.5-14.9c1.9-3.1,3.7-6.1,5.7-9.1c0.3-0.5,1-0.8,1.5-0.9c2.3-0.4,4.7-0.8,7-1
		c1.3-0.2,1.5-0.3,0.9-1.5c-0.8-1.6-1.3-1.7-2.8-0.7c-0.3,0.2-0.4,0.5-0.7,0.6c-0.2,0.1-0.5,0.2-0.7,0.2c-0.1,0-0.3-0.3-0.3-0.4
		c0.1-0.2,0.3-0.5,0.5-0.6c0.9-0.4,1.8-0.7,2.7-1.1c-0.3-1.9-1.4-2.4-2.4-1c-2.8,3.8-7.1,4.2-11.1,5.3c-3.4,0.9-6.9,1.4-10.3,2
		c-0.4,0.1-0.7,0.1-1.1,0.1c-0.9-0.1-1.1-0.7-0.5-1.3c0.8-0.7,1.7-1.2,2.6-1.7c4.5-2.2,9.4-3.3,14.3-4.5c2.4-0.6,4.7-1.2,7.3-1.9
		c-0.4-0.9-0.7-1.5-1-2.2c-1.1-2-2.2-4-3.4-5.9c-0.3-0.6-0.7-0.9-1.4-0.4c-2.3,1.7-4.6,3.4-7,5c-0.5,0.3-1.1,0.6-1.7,0.6
		C15.8,31,10.9,30.4,6.1,29c-1.3-0.4-2.8-0.5-4-0.7c0.5-0.5,1.1-0.6,2.5-0.3c2.3,0.6,4.6,1.3,6.9,1.7c2.7,0.5,5.5,0.8,8.2,1
		c0.9,0.1,2-0.3,2.7-0.8c2.3-1.5,4.5-3.2,6.7-4.8c1.2-0.9,1.7-0.9,2.5,0.5c1.3,2.3,2.5,4.6,3.8,7c0.2,0.4,0.6,0.8,0.8,1.2
		c0.1-0.1,0.2-0.1,0.3-0.2c0-0.3,0-0.6-0.1-0.9c-1.4-3.8-2.6-7.6-4.1-11.3c-0.4-1-1.6-1.6-2.4-2.5c-1.5-1.7-2.8-3.4-4.3-5.1
		c0.1-0.1,0.2-0.2,0.3-0.2c0.2,0.2,0.4,0.5,0.6,0.7c1.7,1.8,3.4,3.7,5.3,5.5c1.1,1,1.9,2.2,2.3,3.6c0.8,2.7,1.7,5.4,2.6,8
		c0.2,0.5,0.4,1,0.7,1.9c0.3-0.8,0.5-1.2,0.6-1.7c0.1-0.2,0-0.4,0.1-0.5c2-1.8,0.5-3.6,0.2-5.5c0-0.2-0.1-0.3,0.1-0.6
		c0.4,1.1,0.9,2.2,1.3,3.3c0.1,0,0.2,0,0.4,0c0.2-0.8,0.5-1.7,0.6-2.1c0.3,2.1,0.7,4.6,1.1,7.1c0.2,0,0.4,0,0.5,0
		c1.4-4.8,2.8-9.5,4.1-14.3c1.2-4.8,2.3-9.6,3.6-14.4c-0.1,0.9-0.2,1.8-0.4,2.8c-0.9,4.6-1.7,9.3-2.8,13.9
		c-0.9,3.8-2.3,7.6-3.5,11.3c-0.2,0.5-0.7,1.1,0.2,1.5c0.8,0.3,1.2,0.1,1.7-0.5c1.9-2.4,3.8-4.6,5.7-7c0.7-0.9,1.5-0.9,2.3-0.2
		c2.4,1.7,5,3.4,7.4,5.2c1.1,0.8,2.2,1,3.4,0.9c5.6-0.5,11.1-1.6,16.6-3C75.5,12.4,59.8,0,41.2,0C18.4,0,0,18.4,0,41.2
		C0,51.6,3.9,61,10.2,68.3C10.8,67.7,11.4,67.2,12,66.6z"/>
	<path class="pest-search__item-icon" d="M61.2,73.2c-5-7.1-8.6-14.9-11.7-22.9c-0.8-2.1-1.8-4.1-2.5-6.2c-0.5-1.6-1.6-2.2-3.1-2.4
		c-0.5-0.1-1.1-0.1-1.9-0.2c-0.2,2.4-0.3,4.8-0.6,7.2c-0.4,3.7-0.8,7.3-1.4,10.9c-0.3,1.7-0.8,3.4-1.3,5c-0.2,0.8-0.7,1.4-1.1,2.1
		c-0.2,0-0.4-0.1-0.6-0.1c-0.2-8.3-0.3-16.7,0.8-25.4c-2.1,0.3-4,0.5-5.9,0.7c-2.1,0.2-3.5,1.2-4.6,3.1c-3.4,5.7-6.8,11.3-10.5,16.7
		c-1.7,2.5-3.9,4.7-6.1,6.8c7.5,8.3,18.4,13.6,30.5,13.6c8.1,0,15.6-2.3,22-6.4C62.5,75,61.9,74.1,61.2,73.2z"/>
	<path class="pest-search__item-icon" d="M63.1,32.9c-0.8,0-1.8-0.3-2.5-0.7c-2.6-1.7-5.2-3.5-7.8-5.3c-0.2-0.2-0.8-0.2-0.9,0c-2.2,2.5-4.3,5-6.6,7.8
		c2.2,0.6,3.9,1,5.6,1.6c3.9,1.2,7.7,2.3,11.6,3.6c1.1,0.4,2.1,1.1,3.1,1.8c0.4,0.3,0.5,1,0.7,1.5c-0.5,0.2-1.1,0.6-1.5,0.6
		c-2.3-0.3-4.7-0.6-7-1.2c-2.5-0.6-5-1.3-7.5-2.1c-1.2-0.4-2.5-0.9-3.6-1.7c-0.8-0.6-1.3-1.7-2.1-2.7c-0.4,0.5-0.7,0.9-1.1,1.4
		c0.5,0.3,1,0.5,1.4,0.8c0.3,0.2,0.6,0.5,0.9,0.8c0,0-0.2,0.4-0.2,0.4c-0.4-0.1-0.7-0.3-1-0.5c-0.1,0-0.1-0.2-0.2-0.2
		c-0.4-0.2-1.1-0.6-1.3-0.4c-0.5,0.4-0.9,1-1.2,1.6c-0.1,0.1,0.4,0.5,0.6,0.7c0.1,0.1,0.4,0,0.5,0c2.3,0.1,3.8,1,4.7,3.4
		c2.4,6.2,5,12.2,7.7,18.2c2.2,4.8,5,9.3,8.1,13.5c11.2-7.3,18.7-20,18.7-34.5c0-3.9-0.6-7.7-1.6-11.3C75,31.3,69.1,32.6,63.1,32.9z
		"/>
</g>
</svg>
