<?xml-stylesheet type="text/css" href="/CMS_Themes/Default/Css/pest-icons.css" ?>
<svg version="1.1" id="Layer_1" xmlns="http://www.w3.org/2000/svg" viewBox="0 0 82.3 82.3" width="100%" height="100%">
<g>
	<path class="pest-search__item-icon" d="M41.6,14.9c0.1,0.2,0.1,0.3,0.2,0.4c0,0.1,0.2,0.2,0.2,0.2c0.1-0.1,0.2-0.1,0.2-0.2c0-0.1-0.1-0.2-0.1-0.2
		C41.9,14.9,41.8,14.9,41.6,14.9z"/>
	<path class="pest-search__item-icon" d="M38.5,15.2c0,0.1,0.1,0.2,0.2,0.2c0,0,0.1-0.1,0.2-0.2c0.1-0.1,0.1-0.2,0.2-0.4c-0.2,0.1-0.3,0.1-0.4,0.1
		C38.6,15,38.5,15.1,38.5,15.2z"/>
	<path class="pest-search__item-icon" d="M41.2,0C18.4,0,0,18.4,0,41.2s18.4,41.2,41.2,41.2s41.2-18.4,41.2-41.2S63.9,0,41.2,0z M59.4,16.4
		c-0.3-0.3-0.6-0.5-0.8-0.8c-0.1-0.1-0.2-0.2-0.3-0.2c-0.4-0.2-0.7-0.5-1.1-0.7c-0.1-0.1-0.2-0.1-0.4-0.2c-0.4-0.2-0.8-0.4-1.2-0.6
		c-0.1-0.1-0.3-0.1-0.4-0.1c-0.2-0.1-0.4-0.1-0.5-0.1c-0.3-0.1-0.7-0.3-1-0.4c0,0-0.1,0-0.1,0c-0.6,0.1-1.1-0.1-1.7-0.3
		c-0.1,0-0.2-0.1-0.2,0c-0.6,0.2-1.1,0-1.7-0.1c0,0-0.1,0-0.1,0c-0.6,0.2-1.2,0.1-1.7,0c0,0-0.1,0-0.1,0C47.5,13.1,47,13,46.5,13
		c-0.1,0-0.1,0-0.2,0c-0.2,0.1-0.4,0.2-0.7,0.3c-0.4,0.2-0.7,0.3-1.1,0.5c-0.1,0-0.2,0.1-0.3,0.1c-0.5,0.1-0.9,0.3-1.1,0.8
		c-0.2,0.4-0.5,0.8-0.6,1.3c0,0.3,0,0.4,0.3,0.6c0.6,0.3,0.8,0.7,0.7,1.4c0,0.3,0,0.5,0.1,0.8c0,0.6-0.1,1.1-0.4,1.5
		c-0.2,0.2-0.5,0.4-0.7,0.5c-0.1,0.1-0.3,0-0.5,0c0,0,0,0.1,0,0.1c0.1,0,0.2,0.1,0.2,0.1c0.1,0,0.3,0,0.4-0.1c0.4,0,0.6,0.1,0.7,0.5
		c0.1,0.3,0.1,0.6,0.2,0.9c0,0.1,0,0.2,0,0.3c0.3-0.2,0.6-0.5,0.8-0.7c0.6-0.4,1.2-0.9,1.8-1.3c0.1-0.1,0.2-0.1,0.3-0.1
		c0.4-0.1,0.5-0.2,0.4-0.6c-0.1-0.5-0.4-1-0.5-1.4c-0.2-0.5-0.3-0.9-0.4-1.4c-0.1-0.3,0.2-0.6,0.5-0.7c0.5-0.1,0.9-0.3,1.4-0.5
		c0.2-0.1,0.4-0.1,0.6-0.1c0.1-0.1,0.3-0.3,0.5-0.4c0.1-0.1,0.3-0.1,0.4,0c0.1,0.1,0.3,0.1,0.4,0c0.3-0.1,0.7-0.2,1-0.3
		c0.1,0,0.1-0.1,0.2-0.2c0.1-0.1,0.2-0.2,0.3-0.3c0,0,0,0,0.1,0c-0.1,0.2-0.2,0.5-0.2,0.6c0.1,0.2,0.3,0.3,0.6,0.4
		c-0.2,0.1-0.4,0.1-0.5-0.1c-0.1-0.1-0.2-0.1-0.4,0c-0.4,0.1-0.7,0.2-1.1,0.3c0,0,0,0-0.1,0c-0.3,0.4-0.8,0.4-1.2,0.6
		c-0.3,0.2-0.7,0.3-1.2,0.3c-0.1,0-0.2,0-0.3,0c-0.2,0-0.2,0.1-0.1,0.3c0.3,0.7,0.6,1.4,0.8,2.1c0.2,1,0,1.9-0.6,2.7
		c-0.5,0.7-1.1,1.4-1.9,1.9c-0.3,0.2-0.7,0.3-1,0.5c0.2,0.4,0.4,0.9,0.5,1.4c0.1,0.5,0.1,0.5,0.6,0.5c0.9-0.1,1.7,0,2.6,0.2
		c0.1,0,0.1,0,0.2,0c1.4,0.1,2.2,1.1,2.6,2.4c0.2,0.5,0.3,1.1,0.5,1.6c0,0.1,0.2,0.2,0.3,0.3c0.4,0.2,0.9,0.4,1.3,0.6
		c0.1,0.1,0.2,0.2,0.3,0.3c0.1,0.1,0.2,0.2,0.3,0.3c0.2,0.2,0.4,0.5,0.6,0.7c0.4,0.4,0.8,0.9,1,1.4c0,0.1,0.2,0.2,0.2,0.3
		c0.1,0.1,0.1,0.2,0.1,0.4c0,0,0,0-0.1,0c-0.1-0.1-0.1-0.2-0.2-0.4c-0.1,0-0.1,0.1-0.2,0.1c0,0.2-0.1,0.4-0.1,0.5c0,0,0,0-0.1,0
		c-0.1-0.4,0-0.8-0.3-1.1c-0.2-0.3-0.4-0.7-0.6-1c-0.4,0.2-0.7,0.1-0.8-0.3c0-0.2-0.2-0.3-0.3-0.4c-0.3-0.2-0.6-0.4-0.9-0.6
		c-0.1-0.1-0.3-0.1-0.4-0.2l0,0l-1.2-0.3L50,29.8c0,0,0,0,0,0c0,0,0,0,0,0l-0.1-0.6l0,0c0-0.1,0-0.2-0.1-0.5
		c-0.1-0.3-0.2-0.5-0.3-0.7c-0.1-0.2-0.3-0.2-0.5-0.2c-0.4,0.1-0.8,0-1.2,0c-0.9-0.2-1.7-0.1-2.6-0.1c-0.2,0-0.3,0.2-0.3,0.4
		c0,1.1,0,2.1,0.1,3.2c0,0.6,0.1,1.1,0,1.7c0,0.1,0.1,0.3,0.2,0.3c1.2,0.2,2.2,0.9,3,1.7c0.6,0.6,1.3,1.3,1.9,2
		c0.1,0.1,0.1,0.3,0.2,0.4c0.1,0.2,0.1,0.3,0.2,0.5c0.3,0.6,0.4,1.3,0.4,1.9c0,0.7,0,1.5,0,2.2c0,0.1,0,0.2-0.1,0.3
		c-0.2,0.3-0.1,0.5,0.1,0.7c0.4,0.7,0.8,1.4,1.2,2.2c0,0,0.1,0.1,0.1,0.2c-0.1,0.3,0.2,0.5,0.2,0.7c0.2,0.8,0.6,1.6,0.5,2.5
		c0,0.3-0.2,0.6-0.4,0.8c-0.1,0.1-0.3,0.1-0.5,0.2c0,0,0-0.1-0.1-0.1c0.1-0.1,0.3-0.3,0.4-0.4c0.1-0.1,0.1-0.2,0.1-0.4
		c0-0.5,0-1-0.1-1.5c-0.4,0-0.6-0.3-0.6-0.7c0-0.3,0-0.4-0.2-0.7c-0.4-0.7-0.7-1.4-1.1-2.1c-0.1-0.1-0.2-0.3-0.3-0.4
		c0-0.1-0.1-0.1-0.1-0.2c-0.1-0.5-0.3-0.9-0.3-1.4c0.1-0.9,0.1-1.8,0.1-2.7c0-0.5-0.2-0.9-0.7-1c-0.1,0-0.2-0.1-0.3-0.2
		c-0.5-0.6-1.2-1.1-1.9-1.6c-0.8-0.6-1.7-1-2.5-1.6c0,0.1,0,0.2,0,0.2c0.1,0.6,0.3,1.1,0.4,1.7c0.3,1.5,0.6,3,0.8,4.6
		c0.1,0.4,0,0.9,0.1,1.4c0,0.3,0.1,0.7,0.1,1c0,0.4,0,0.9,0,1.3c0,0.2-0.1,0.3-0.1,0.5c0,0.3,0,0.6,0,1c0,0.3,0,0.7,0,1
		c0,0,0,0.1,0,0.1c-0.3,0.6,0,1.3-0.1,1.9c0,0.3-0.1,0.6-0.2,0.9c0,0.1,0,0.2,0,0.3c0,0.5-0.1,1-0.1,1.5c0,0.1,0,0.2,0,0.4
		c0,0.6,0,1.2-0.2,1.7c0,0.1,0,0.2,0,0.3c0.1,0.9,0.2,1.8,0.3,2.7c0,0.3-0.1,0.5-0.3,0.7c-0.5,0.4-0.6,1.1-0.7,1.7
		c-0.2,1.5,0,2.9,0.3,4.3c0.4,1.5,0.8,2.9,1.1,4.4c0.3,1.6,0.4,3.3,0.1,4.9c-0.2,1.2-0.5,2.4-1.1,3.5c-0.4,0.8-1,1.4-1.7,2
		c-0.4,0.3-0.8,0.5-1.3,0.5c-0.1,0-0.2,0-0.3-0.1c0-0.1,0.1-0.2,0.1-0.3c0.5-0.6,1-1.1,1.4-1.8c0.8-1.2,1.2-2.6,1.4-4
		c0.2-1,0.3-2,0.1-3c-0.1-0.7-0.4-1.4-0.6-2.1c-0.2-0.6-0.4-1.3-0.7-1.9c-0.1-0.2-0.1-0.3-0.2-0.5c-0.2-0.3-0.4-0.4-0.8-0.2
		c0,0-0.1,0-0.1,0c-0.1,0-0.3,0-0.4,0c0-0.1,0-0.3,0-0.4c0.1-0.3,0.2-0.6,0.3-0.9c0-0.3,0.1-0.5,0-0.8c-0.2-0.5-0.5-1.1-0.8-1.6
		c-0.1-0.2-0.4-0.4-0.6-0.5c-0.2-0.1-0.3-0.2-0.2-0.4c0-0.1,0-0.1,0-0.2c-0.2-0.4-0.1-0.8-0.1-1.2c0-0.1,0-0.3,0.1-0.5
		c-0.1,0-0.2,0-0.4,0c0,0,0,0,0,0c-0.1,0-0.2,0-0.4,0c0,0.2,0.1,0.3,0.1,0.5c0,0.4,0.1,0.8-0.1,1.2c0,0.1,0,0.1,0,0.2
		c0.1,0.2,0,0.3-0.2,0.4c-0.2,0.2-0.4,0.3-0.6,0.5c-0.3,0.5-0.6,1-0.8,1.6c-0.1,0.2-0.1,0.5,0,0.8c0.1,0.3,0.2,0.6,0.3,0.9
		c0,0.1,0,0.3,0,0.4c-0.1,0-0.3,0-0.4,0c0,0-0.1,0-0.1,0c-0.3-0.1-0.6-0.1-0.8,0.2c-0.1,0.2-0.2,0.3-0.2,0.5
		c-0.2,0.6-0.5,1.3-0.7,1.9c-0.2,0.7-0.5,1.4-0.6,2.1c-0.2,1-0.1,2,0.1,3c0.2,1.4,0.6,2.8,1.4,4c0.4,0.6,1,1.2,1.4,1.8
		c0.1,0.1,0.1,0.2,0.1,0.3c-0.1,0-0.2,0.1-0.3,0.1c-0.5-0.1-0.9-0.2-1.3-0.5c-0.7-0.5-1.2-1.2-1.7-2c-0.6-1.1-0.9-2.2-1.1-3.5
		c-0.3-1.7-0.2-3.3,0.1-4.9c0.3-1.5,0.7-3,1.1-4.4c0.4-1.4,0.6-2.9,0.3-4.3c-0.1-0.6-0.2-1.2-0.7-1.7c-0.2-0.2-0.3-0.4-0.3-0.7
		c0.1-0.9,0.2-1.8,0.3-2.7c0-0.1,0-0.2,0-0.3c-0.2-0.6-0.2-1.1-0.2-1.7c0-0.1,0-0.2,0-0.4c0-0.5-0.1-1-0.1-1.5c0-0.1,0-0.2,0-0.3
		c-0.1-0.3-0.1-0.6-0.2-0.9c-0.1-0.6,0.2-1.3-0.1-1.9c0,0,0-0.1,0-0.1c0-0.3,0-0.7,0-1c0-0.3,0-0.6,0-1c0-0.2-0.1-0.3-0.1-0.5
		c0-0.4,0-0.9,0-1.3c0-0.3,0.1-0.7,0.1-1c0-0.5,0-0.9,0.1-1.4c0.3-1.5,0.6-3,0.8-4.6c0.1-0.6,0.3-1.1,0.4-1.7c0-0.1,0-0.1,0-0.2
		c-0.9,0.5-1.7,1-2.5,1.6c-0.7,0.5-1.3,1-1.9,1.6c-0.1,0.1-0.2,0.2-0.3,0.2c-0.5,0.2-0.7,0.6-0.7,1c0,0.9,0,1.8,0.1,2.7
		c0,0.5-0.2,0.9-0.3,1.4c0,0.1-0.1,0.1-0.1,0.2c-0.1,0.1-0.2,0.3-0.3,0.4c-0.4,0.7-0.7,1.4-1.1,2.1c-0.1,0.2-0.2,0.4-0.2,0.7
		c0,0.5-0.2,0.7-0.6,0.7c0,0.5-0.1,1-0.1,1.5c0,0.1,0,0.3,0.1,0.4c0.1,0.2,0.3,0.3,0.4,0.4c0,0,0,0.1-0.1,0.1c-0.2,0-0.4,0-0.5-0.2
		c-0.2-0.2-0.4-0.5-0.4-0.8c-0.1-0.9,0.2-1.7,0.5-2.5c0.1-0.2,0.3-0.4,0.2-0.7c0,0,0-0.1,0.1-0.2c0.4-0.7,0.8-1.4,1.2-2.2
		c0.1-0.2,0.3-0.4,0.1-0.7c-0.1-0.1-0.1-0.2-0.1-0.3c0-0.7-0.1-1.5,0-2.2c0-0.7,0.1-1.3,0.4-1.9c0.1-0.2,0.1-0.3,0.2-0.5
		c0.1-0.1,0.1-0.3,0.2-0.4c0.6-0.7,1.2-1.3,1.9-2c0.9-0.8,1.8-1.5,3-1.7c0.1,0,0.2-0.2,0.2-0.3c-0.2-0.6,0-1.1,0-1.7
		c0.1-1.1,0-2.1,0.1-3.2c0-0.2-0.1-0.4-0.3-0.4c-0.9,0-1.7-0.1-2.6,0.1c-0.4,0.1-0.8,0.1-1.2,0c-0.2,0-0.4,0-0.5,0.2
		c-0.1,0.2-0.2,0.5-0.3,0.7c-0.1,0.3-0.1,0.4-0.1,0.5l0,0l-0.1,0.6c0,0,0,0,0,0c0,0,0,0,0,0l-0.2,0.9L29.2,31l0,0
		c-0.1,0.1-0.3,0.1-0.4,0.2c-0.3,0.2-0.6,0.4-0.9,0.6c-0.2,0.1-0.3,0.2-0.3,0.4c-0.1,0.4-0.4,0.6-0.8,0.3c-0.2,0.3-0.4,0.7-0.6,1
		c-0.3,0.3-0.2,0.8-0.3,1.1c0,0,0,0-0.1,0c0-0.2-0.1-0.4-0.1-0.5c-0.1,0-0.1-0.1-0.2-0.1c-0.1,0.1-0.1,0.2-0.2,0.4c0,0,0,0-0.1,0
		c0-0.1,0.1-0.3,0.1-0.4c0.1-0.1,0.2-0.2,0.2-0.3c0.2-0.6,0.6-1,1-1.4c0.2-0.2,0.4-0.5,0.6-0.7c0.1-0.1,0.2-0.2,0.3-0.3
		c0.1-0.1,0.2-0.2,0.3-0.3c0.4-0.2,0.9-0.4,1.3-0.6c0.1-0.1,0.3-0.2,0.3-0.3c0.2-0.5,0.3-1.1,0.5-1.6c0.4-1.3,1.1-2.2,2.6-2.4
		c0.1,0,0.1,0,0.2,0c0.9-0.2,1.7-0.3,2.6-0.2c0.5,0.1,0.5,0.1,0.6-0.5c0.1-0.5,0.3-0.9,0.5-1.4c-0.3-0.1-0.7-0.3-1-0.5
		c-0.8-0.5-1.4-1.2-1.9-1.9c-0.6-0.8-0.9-1.7-0.6-2.7c0.2-0.7,0.5-1.4,0.8-2.1c0.1-0.2,0-0.3-0.1-0.3c-0.1,0-0.2,0-0.3,0
		c-0.4,0-0.8,0-1.2-0.3c-0.4-0.3-0.9-0.3-1.2-0.6c0,0,0,0-0.1,0c-0.4-0.1-0.8-0.2-1.1-0.3c-0.2-0.1-0.3-0.1-0.4,0
		c-0.1,0.1-0.3,0.2-0.5,0.1c0.2-0.1,0.5-0.2,0.6-0.4c0.1-0.2-0.1-0.4-0.2-0.6c0,0,0,0,0.1,0c0.1,0.1,0.2,0.2,0.3,0.3
		c0.1,0.1,0.1,0.2,0.2,0.2c0.3,0.1,0.7,0.2,1,0.3c0.1,0,0.3,0.1,0.4,0c0.1-0.1,0.3,0,0.4,0c0.2,0.1,0.3,0.3,0.5,0.4
		c0.2,0,0.4,0.1,0.6,0.1c0.5,0.1,0.9,0.3,1.4,0.5c0.3,0.1,0.6,0.4,0.5,0.7c-0.1,0.5-0.3,0.9-0.4,1.4c-0.2,0.5-0.4,1-0.5,1.4
		c-0.1,0.3,0,0.5,0.4,0.6c0.1,0,0.2,0.1,0.3,0.1c0.6,0.4,1.2,0.9,1.8,1.3c0.3,0.2,0.5,0.4,0.8,0.7c0-0.1,0-0.2,0-0.3
		c0.1-0.3,0.1-0.6,0.2-0.9c0.1-0.4,0.3-0.5,0.7-0.5c0.1,0,0.3,0.1,0.4,0.1c0.1,0,0.2,0,0.2-0.1c0,0,0-0.1,0-0.1
		c-0.2,0-0.4,0.1-0.5,0c-0.3-0.1-0.6-0.3-0.7-0.5c-0.4-0.4-0.5-0.9-0.4-1.5c0-0.3,0.1-0.5,0.1-0.8c-0.1-0.7,0.1-1.1,0.7-1.4
		c0.3-0.1,0.3-0.3,0.3-0.6c0-0.5-0.4-0.9-0.6-1.3c-0.2-0.5-0.6-0.7-1.1-0.8c-0.1,0-0.2-0.1-0.3-0.1c-0.4-0.2-0.7-0.3-1.1-0.5
		c-0.2-0.1-0.4-0.2-0.7-0.3c0,0-0.1,0-0.2,0c-0.5,0-1,0.1-1.4-0.2c0,0-0.1,0-0.1,0c-0.6,0.1-1.2,0.2-1.7,0c0,0-0.1,0-0.1,0
		c-0.6,0.1-1.1,0.2-1.7,0.1c-0.1,0-0.1,0-0.2,0c-0.6,0.1-1.1,0.4-1.7,0.3c0,0-0.1,0-0.1,0c-0.3,0.1-0.7,0.3-1,0.4
		c-0.2,0.1-0.4,0.1-0.5,0.1c-0.1,0-0.3,0.1-0.4,0.1c-0.4,0.2-0.8,0.4-1.2,0.6c-0.1,0.1-0.3,0.1-0.4,0.2c-0.4,0.2-0.7,0.5-1.1,0.7
		c-0.1,0.1-0.2,0.1-0.3,0.2c-0.3,0.3-0.5,0.6-0.8,0.8c-0.1,0.1-0.2,0-0.3,0c0-0.1,0-0.3,0.1-0.4c0.5-0.5,1-1,1.5-1.4
		c0.4-0.3,0.8-0.5,1.2-0.7c0.6-0.3,1.3-0.6,2-0.9c0.5-0.2,1.1-0.4,1.7-0.5c0.7-0.1,1.4-0.3,2.2-0.3c0.6-0.1,1.2,0,1.8,0
		c0.6,0,1.2,0.1,1.8,0.1c0.5,0,1.1,0.2,1.6,0.3c0.3,0.1,0.7,0.3,1,0.4c0.4,0.2,0.7,0.4,1.1,0.6c0.1,0,0.2,0.1,0.3,0.1
		c0.4,0.1,0.9,0.3,1.1,0.8c0.1,0.2,0.2,0.2,0.4,0.1c0.2-0.1,0.4-0.1,0.6-0.2c0.1,0,0.3-0.1,0.4-0.1c0.1-0.1,0.3-0.2,0.4,0
		c0,0,0.1,0,0.2,0c0,0,0.1,0,0.1,0v0c0,0,0,0,0,0s0,0,0,0v0c0,0,0.1,0,0.1,0c0.1,0,0.1,0,0.2,0c0.2-0.1,0.3,0,0.4,0
		c0.1,0.1,0.3,0.1,0.4,0.1c0.2,0.1,0.4,0.1,0.6,0.2c0.2,0.1,0.3,0.1,0.4-0.1c0.2-0.5,0.6-0.6,1.1-0.8c0.1,0,0.2-0.1,0.3-0.1
		c0.4-0.2,0.7-0.4,1.1-0.6c0.3-0.2,0.6-0.3,1-0.4c0.5-0.1,1.1-0.3,1.6-0.3c0.6,0,1.2-0.1,1.8-0.1c0.6,0,1.2,0,1.8,0
		c0.7,0.1,1.5,0.2,2.2,0.3c0.6,0.1,1.1,0.3,1.7,0.5c0.7,0.3,1.3,0.6,2,0.9c0.4,0.2,0.8,0.5,1.2,0.7c0.5,0.4,1,0.9,1.5,1.4
		c0.1,0.1,0.1,0.2,0.1,0.4C59.6,16.4,59.4,16.4,59.4,16.4z"/>
</g>
</svg>
