<?xml-stylesheet type="text/css" href="/CMS_Themes/Default/Css/pest-icons.css" ?>
<svg version="1.1" id="Layer_1" xmlns="http://www.w3.org/2000/svg" viewBox="0 0 82.3 82.3" width="100%" height="100%">
<g>
	<path fill="#102e52" class="pest-search__item-icon" d="M44.1,40.3c0.8,4.9,3.3,8.2,9,8.7c-1.5-2.6-2.8-5-4.2-7.2C47.5,39.5,46.4,39.3,44.1,40.3z"/>
	<path fill="#102e52" class="pest-search__item-icon" d="M36.7,36.2c-0.7,0.7-1.1,1.7-1.5,2.6c2.7-0.2,5-0.3,7.3-0.4c-1.4-0.9-2.7-1.4-4.1-1.9
		C37.8,36.2,36.9,35.9,36.7,36.2z"/>
	<path fill="#102e52" class="pest-search__item-icon" d="M41.2,0C18.4,0,0,18.4,0,41.2s18.4,41.2,41.2,41.2s41.2-18.4,41.2-41.2S63.9,0,41.2,0z M58.2,35.4
		c-2.6,3.4-6.5,2.5-10.3,3.3c2,2.5,3.6,4.5,5.2,6.5c0.2,0.3,0.6,0.4,0.7,0.7c1.8,4.8,6.6,5.5,10.5,7.4c1.6,0.8,3.5,1,4.6,3.5
		c-5.2-2.5-10-4.7-14.9-7.1c-0.1,0.2-0.3,0.7-0.5,1.2c-2.6-1.1-5.3-2.1-7.8-3.5c-0.9-0.5-1.4-1.8-2.1-2.8c-0.1-0.2,0-0.5-0.1-0.8
		c-0.6-3.3-1-3.6-4.4-3.1c-3.6,0.5-3.7,0.5-3.2,4.2c0.5,3.9,1.2,7.9,1.8,11.8c0,0.3,0.2,0.5,0.3,0.7c0.3,0.5,0.7,1.1,1,1.6
		c-0.8,0.2-1.5,0.4-1.8,0.5c-0.6-2.7-1.3-5.1-1.8-7.5c-0.6-2.9-1.2-5.7-1.5-8.6c-0.1-1.5-0.1-2.7-1.9-2.9c-0.5-0.1-0.8-0.6-1.3-0.9
		c0.1,4,0.2,7.9,0.3,12c-0.9,0-1.5,0-2.5-0.1c2.1-2,1.2-4.2,0.9-6.3c-0.3-2.1-0.3-4.3-0.7-6.6c-0.3,2.4-2.3,2.6-3.9,3.1
		c-1.6,0.5-3.2,0.8-4.8,1.2c-1.1,0.3-1.9,0.6-1.7,2.1c0.1,1.8,0,3.5-0.2,5.3c-0.1,0.9-0.4,1.9-1,2.5c-2.1,1.9-4.3,3.6-6.5,5.3
		c-0.2,0.2-0.6,0.2-0.9,0.4c-0.1-0.2-0.2-0.3-0.3-0.5c2.1-1.9,4.2-3.8,6.4-5.6c1.2-1,1.3-2.2,0.6-3.9c-1.9,1.3-3.8,2.5-5.6,3.7
		c-0.1-0.1-0.2-0.3-0.3-0.4c0.9-0.8,1.7-1.8,2.7-2.3c3.2-1.5,2.8-4.1,2.2-7.3c2.8-0.9,5.7-1.9,8.6-2.9c-0.5-1-1-2.3-1.9-3.3
		c-0.6-0.6-1.8-1-2.3,0.5c0,0.1-0.1,0.1-0.1,0.2c-1.6,3.1-1.6,3.1-5.5,2.8c-2.4-0.2-2.5-2.3-3.5-3.8c-0.4-0.6-0.5-1.3-0.7-1.9
		c1.2-1.3,2.5-2.7,3.9-4.2c-0.3-0.5-0.6-1-1.1-1.9c2.1,0.7,3.8,2.3,5.6,0.3c0.4,0.7,0.8,1.4,1.4,2.5c1.2-1,2.3-1.9,2.9-2.4
		c1.3-0.6,2-1,3-1.5c0.1,0.5,0.2,0.8,0.2,0.9c2.1-0.8,4.1-1.5,5.8-2.2c1.1,2,2.2,0.1,3.3,0.2c1.2,0.1,2.4-0.6,3.8-0.6
		c-0.8,0.5-1.6,0.9-2.3,1.3c3.4,2.3,6.9,0.9,10.5,0.6c6.6-0.4,13.1-0.9,19.7-1.1c2.2-0.1,3.1,0.6,3.8,1.9c-4.5,3.1-9.9,2.7-15.1,3.9
		C56,33.4,59.3,33.2,58.2,35.4z"/>
</g>
</svg>
