<?xml-stylesheet type="text/css" href="/CMS_Themes/Default/Css/pest-icons.css" ?>
<svg version="1.1" id="Layer_1" xmlns="http://www.w3.org/2000/svg" viewBox="0 0 82.3 82.3" width="100%" height="100%">
<path class="pest-search__item-icon" d="M41.2,0C18.4,0,0,18.4,0,41.2s18.4,41.2,41.2,41.2s41.2-18.4,41.2-41.2S63.9,0,41.2,0z M50.5,13.5L50.5,13.5
	L50.5,13.5L50.5,13.5z M49.9,14.3C49.9,14.3,49.9,14.4,49.9,14.3c0,0.1,0,0.1-0.1,0.2c0,0,0,0-0.1-0.1
	C49.8,14.4,49.9,14.4,49.9,14.3z M48.9,15.7c0.1-0.1,0.2-0.2,0.4-0.3c0.1,0.1,0.1,0.2,0.1,0.2c-0.1,0.1-0.2,0.2-0.3,0.2
	c0,0-0.1,0-0.2,0C48.9,15.8,48.9,15.7,48.9,15.7z M25.8,23.3C25.9,23.3,25.9,23.3,25.8,23.3C25.9,23.3,25.9,23.3,25.8,23.3
	C25.8,23.3,25.8,23.3,25.8,23.3C25.8,23.3,25.8,23.3,25.8,23.3z M25.6,22.9C25.6,22.9,25.6,22.9,25.6,22.9
	C25.7,22.9,25.6,22.9,25.6,22.9C25.6,22.9,25.6,22.9,25.6,22.9C25.6,22.9,25.6,22.9,25.6,22.9z M19.2,20.6c0.1,0.1,0.3,0.1,0.4,0.2
	c-0.1,0.1-0.1,0-0.2,0C19.4,20.8,19.3,20.7,19.2,20.6C19.2,20.7,19.2,20.6,19.2,20.6z M24.8,70.4C24.8,70.4,24.8,70.5,24.8,70.4
	C24.8,70.5,24.8,70.5,24.8,70.4C24.8,70.5,24.8,70.5,24.8,70.4C24.8,70.5,24.8,70.5,24.8,70.4c-0.1,0.1-0.1,0.1-0.1,0.1
	C24.8,70.5,24.8,70.5,24.8,70.4L24.8,70.4C24.8,70.5,24.8,70.5,24.8,70.4C24.8,70.5,24.8,70.4,24.8,70.4
	C24.8,70.4,24.8,70.4,24.8,70.4C24.8,70.4,24.8,70.4,24.8,70.4z M25.7,68.4C25.7,68.4,25.7,68.4,25.7,68.4
	C25.7,68.5,25.6,68.5,25.7,68.4L25.7,68.4L25.7,68.4C25.6,68.5,25.6,68.5,25.7,68.4C25.6,68.5,25.6,68.5,25.7,68.4
	C25.6,68.5,25.6,68.5,25.7,68.4C25.7,68.4,25.7,68.4,25.7,68.4C25.7,68.4,25.7,68.4,25.7,68.4z M25.8,68C25.8,68,25.8,68,25.8,68
	C25.8,68,25.8,68,25.8,68C25.8,68,25.8,68,25.8,68C25.8,68,25.8,68,25.8,68C25.8,68,25.8,68,25.8,68c0-0.1,0.1-0.1,0.1-0.2l0,0
	C25.9,67.9,25.9,67.9,25.8,68L25.8,68C25.8,68,25.8,68,25.8,68z M25.9,67.8C25.9,67.8,25.9,67.8,25.9,67.8L25.9,67.8
	C25.9,67.8,25.9,67.8,25.9,67.8c0-0.3,0.1-0.5,0.3-0.8C26.2,67.3,26.2,67.4,25.9,67.8z M34.9,71.1C34.8,71.1,34.8,71,34.9,71.1
	c0-0.1,0-0.1,0.1-0.1c0,0,0,0,0,0.1C34.9,71,34.9,71.1,34.9,71.1z M58.2,64.8c-0.1-0.2-0.2-0.3-0.3-0.5c0.2,0,0.2,0.2,0.2,0.3
	c0,0.1,0.1,0.2,0.2,0.3C58.2,64.9,58.2,64.9,58.2,64.8z M58.8,65.8C58.8,65.7,58.8,65.7,58.8,65.8C58.8,65.7,58.8,65.7,58.8,65.8
	C58.8,65.7,58.8,65.7,58.8,65.8C58.8,65.8,58.8,65.8,58.8,65.8z M59.2,66.3C59.2,66.3,59.2,66.3,59.2,66.3c-0.1-0.1,0-0.1,0-0.1
	C59.2,66.2,59.2,66.2,59.2,66.3C59.2,66.3,59.2,66.3,59.2,66.3z M61.4,21.8c-0.2,0.1-0.4,0.2-0.6,0.3c-0.3,0.1-0.5,0.3-0.7,0.5
	c-0.1,0.1-0.2,0.2-0.3,0.3c-0.5,0.3-0.9,0.7-1.4,1.1c-0.3,0.3-0.6,0.5-0.9,0.8c-0.1,0.1-0.3,0.2-0.4,0.4c-0.4,0.5-1,1-1.5,1.4
	c-0.2,0.1-0.3,0.3-0.4,0.5c-0.1,0.3-0.3,0.6-0.4,0.9c0,0.1,0,0.1,0,0.3c0.8-0.5,1.6-0.8,2.5-1.2c0.8-0.3,1.7-0.4,2.6-0.6
	c0.1,0.1,0,0.1-0.1,0.2c-0.4,0.1-0.9,0.2-1.3,0.4c-0.1,0-0.2,0.1-0.3,0.1c-0.8,0.1-1.4,0.5-2.1,0.8c-0.8,0.5-1.6,0.9-2.2,1.7
	c-0.1,0.1-0.2,0.3-0.2,0.5c-0.1,0.3-0.1,0.6-0.2,0.9c-0.1,0.3-0.2,0.6-0.3,0.9c0,0.1-0.1,0.2-0.2,0.3c-0.4,0.4-0.7,0.8-1.1,1.2
	c0,0,0,0.1-0.1,0.1c0,0.2,0.1,0.3,0.2,0.4c0.2,0.2,0.3,0.4,0.4,0.6c0,0.1,0.1,0.2,0.3,0.3c0.3,0.1,0.6,0.1,0.8,0.1
	c1-0.2,2-0.1,3-0.1c0,0,0.1,0,0.1,0c0,0.1-0.1,0.1-0.1,0.1c-0.4,0-0.9,0-1.3,0.1c-0.7,0.1-1.4,0.2-2,0.4c-0.1,0-0.2,0-0.2,0.1
	c-0.1,0.1-0.2,0.2-0.2,0.3c0,0.1,0.1,0.2,0.2,0.2c0.2,0,0.3,0.1,0.5,0.1c0.8,0,1.5,0,2.3,0.2c0.4,0.1,0.7,0.1,1.1,0.2
	c-0.4,0.1-0.7,0-1.1,0c-0.4,0-0.8-0.1-1.1-0.1c-0.1,0-0.3,0-0.4,0c-0.2,0-0.4,0-0.5,0.1c-0.1,0-0.3,0.1-0.4,0.1
	c-0.4,0.1-0.5,0.4-0.4,0.7c0,0.2,0.1,0.5,0.1,0.7c0,0.1,0,0.2,0.1,0.2c0.6,0.9,1,1.8,1.7,2.7c0.2,0.2,0.3,0.5,0.4,0.8
	c0.1,0.1,0.1,0.2,0.2,0.3c0.2,0.2,0.3,0.5,0.5,0.8c0.1,0.1,0.1,0.3,0.2,0.4c0.1,0.1,0.2,0.3,0.2,0.4c0.1,0.2,0.2,0.4,0.4,0.6
	c0.2,0.2,0.3,0.5,0.5,0.8c0.3,0.6,0.5,1.1,0.8,1.7c0,0.1,0.1,0.1,0.1,0.2c0,0.2,0.1,0.5,0.3,0.7c0.1,0.1,0.1,0.2,0.1,0.3
	c0.1,0.3,0.2,0.6,0.3,0.9c0.1,0.2,0.2,0.4,0.4,0.5c0.1,0.1,0.3,0.2,0.5,0.3c0.3,0.1,0.6,0.3,0.8,0.4c0.3,0.1,0.5,0.3,0.7,0.5
	c0.1,0.1,0.2,0.2,0.3,0.3c-0.2,0-0.4,0-0.5-0.1c-0.4-0.3-0.8-0.4-1.3-0.5c-0.2-0.1-0.3,0.1-0.3,0.3c0.2,0.6,0.4,1.2,0.5,1.8
	c0.1,0.6,0.4,1.2,0.6,1.8c0.1,0.3,0.3,0.6,0.5,0.9c0.1,0.1,0.2,0.3,0,0.5c-0.1,0.1-0.2,0.2-0.2,0.2c-0.2,0.2-0.5,0.2-0.7,0
	c-0.2-0.2-0.4-0.4-0.5-0.7c-0.1-0.2-0.1-0.4-0.1-0.6c0-0.3-0.1-0.6-0.3-0.8c-0.2-0.3-0.3-0.6-0.5-0.9c-0.3-0.5-0.5-0.9-0.8-1.4
	c-0.2-0.3-0.3-0.5-0.5-0.8c0.1-0.1,0.2-0.1,0.2-0.2c-0.1-0.2-0.3-0.1-0.4-0.2c0-0.1-0.1-0.2-0.1-0.3c0-0.1,0-0.2-0.1-0.2
	c-0.3-0.1-0.3-0.5-0.5-0.7c-0.3-0.2-0.4-0.4-0.5-0.7c-0.1-0.2-0.2-0.3-0.3-0.4c-0.3-0.2-0.5-0.5-0.6-0.8c-0.1-0.2-0.2-0.4-0.4-0.5
	c-0.1,0-0.1-0.1-0.1-0.1c-0.3-0.4-0.5-0.7-0.8-1.1c0,0,0,0-0.1,0c0,0.2-0.1,0.4,0,0.6c0.1,0.1,0.1,0.2,0.1,0.4c-0.1,0-0.2,0-0.2,0
	c0,0.3,0,0.6,0,0.9c0,0.2,0,0.3,0.2,0.4c0.1,0.1,0.2,0.3,0.3,0.4c0.3,0.6,0.6,1.1,0.9,1.6c0.3,0.5,0.6,1.1,0.7,1.8
	c0,0.1,0,0.3,0,0.4c0,0.1,0,0.2,0,0.3c0.1,0.2,0.1,0.3,0,0.5c0,0.1,0,0.2,0.1,0.3c0.1,0.2,0.1,0.4,0.2,0.6c0,0.2,0,0.5,0.1,0.7
	c0.1,0.4,0.1,0.8,0.1,1.1c0,0.3,0,0.7,0.1,1c0.3,0.8,0.3,1.7,0.3,2.5c0,0.1,0,0.2,0,0.2c0,0.1-0.1,0.1-0.1,0.2
	c0,0.5-0.2,0.9-0.4,1.4c-0.1,0.2-0.1,0.4,0.1,0.6c0,0,0.1,0.1,0.1,0.1c0.2,0.6,0.6,1.1,1,1.6c0.3,0.4,0.5,0.7,0.7,1.2c0,0,0,0,0,0
	l0,0l0,0c0,0,0,0,0,0c0.1,0,0.2,0.1,0.2,0.2c-0.1,0-0.2-0.1-0.2-0.2c0,0,0,0,0,0c0,0,0,0,0,0c-0.1-0.1-0.2-0.2-0.3-0.3
	c-0.3-0.4-0.5-0.8-0.8-1.1c0-0.1-0.1-0.1-0.1-0.1c-0.2-0.2-0.4-0.3-0.6-0.5c0,0.1-0.1,0.2-0.1,0.4c0.1,0.1,0.1,0.1,0.2,0.2
	c0,0.4,0,0.7-0.1,1c-0.1,0.2-0.1,0.4-0.1,0.6c-0.2,0.7-0.3,1.4-0.4,2.2c0,0.1,0,0.3,0,0.4c0.1,0.2,0,0.4-0.1,0.6
	C55,67.5,55,68,55.1,68.4c0.1,0.2,0.1,0.4,0.1,0.7c0,0.1,0,0.1,0,0.2c0.1,0.3-0.1,0.5-0.3,0.7c-0.3,0.3-0.6,0.2-0.8-0.1
	C54,69.7,54,69.6,54,69.4c0-0.5-0.1-0.9,0-1.4c0-0.2,0-0.3,0-0.5c0-0.2,0-0.4,0.1-0.6c0.1-0.1,0.1-0.2,0.1-0.3c0-0.4,0-0.9,0-1.3
	c0-0.4-0.2-0.9-0.3-1.3c0-0.1-0.1-0.2-0.1-0.3c0.1-0.7,0-1.3,0.1-2c0-0.2,0.1-0.4,0-0.5c-0.1-0.5-0.1-1-0.3-1.4
	c-0.1-0.3-0.1-0.5-0.2-0.8c0-0.1-0.1-0.3-0.2-0.3c-0.2,0-0.2,0.1-0.3,0.2c-0.2,0.4-0.4,0.8-0.7,1.2c-0.1,0.2-0.2,0.5-0.3,0.8
	c-0.1,0.3-0.4,0.6-0.5,1c0,0.1-0.1,0.2-0.2,0.2c-0.2,0.2-0.3,0.4-0.4,0.6c0,0.2,0.2,0.3,0.3,0.3c0.3,0.2,0.6,0.4,0.8,0.6
	c0.1,0.1,0.2,0.2,0.3,0.3c0,0,0,0.1,0,0.1c0,0-0.1,0-0.1,0C52,64,52,64,51.9,63.9c-0.4-0.2-0.7-0.4-1.1-0.6c-0.1,0-0.2-0.1-0.3-0.1
	c-0.3,0.1-0.5,0.4-0.6,0.6c-0.1,0.2-0.2,0.3-0.4,0.5c-0.2,0.2-0.3,0.4-0.5,0.6c-0.1,0.2-0.2,0.3-0.3,0.5c0,0.2,0.2,0.4,0.1,0.6
	c-0.1-0.1-0.2-0.1-0.4-0.1c-0.1,0-0.1,0-0.1,0.1c-0.1,0.1-0.2,0.2-0.3,0.3c-0.1,0.1-0.2,0.2-0.1,0.4c0.1,0.3,0.1,0.6,0.2,0.8
	c0.1,0.2,0.1,0.4,0.2,0.6c0.1,0.6,0.3,1.1,0.3,1.7c0,0.2,0.1,0.3,0.1,0.5c0.1,0.4,0.2,0.8,0.3,1.2c0,0.1,0.1,0.2,0.1,0.4
	c0.1,0.3,0.1,0.3,0,0.8c-0.1-0.1-0.1-0.1-0.1-0.1c-0.1-0.3-0.2-0.6-0.3-1c-0.2-0.9-0.4-1.7-0.7-2.6c-0.1-0.2-0.1-0.5-0.2-0.7
	c0-0.1-0.1-0.1-0.1-0.2c-0.2,0.1-0.1,0.2-0.1,0.3c0,0.5-0.2,1-0.3,1.4c-0.2,0.5-0.3,1-0.4,1.4c-0.1,0.4-0.3,0.7-0.4,1
	c0,0.1-0.1,0.1-0.2,0.1c0-0.1-0.1-0.1,0-0.2c0.1-0.4,0.2-0.7,0.2-1.1c0-0.1,0-0.3,0.1-0.4c0.1-0.7,0.2-1.3,0.3-2
	c0.1-0.4,0.1-0.8,0.1-1.2c0-0.3-0.1-0.6-0.1-0.9c0,0-0.1-0.1-0.1-0.1c-0.1,0-0.2,0-0.3,0c-0.1,0-0.3,0-0.4,0.1
	C45,67,43.8,67.1,42.6,67c-0.2,0-0.4,0-0.6,0c-0.6,0.1-1.2,0-1.8,0c-0.5,0-0.9-0.1-1.4-0.1c-0.3,0-0.6-0.1-0.9-0.1
	c-0.2,0-0.3,0-0.5,0c-0.2,0-0.3,0-0.5,0c-0.2,0.2-0.2,0.4-0.2,0.6c-0.1,1.1-0.1,2.1-0.2,3.2c0,0.2,0,0.4,0,0.6c0,0.2,0,0.4-0.2,0.6
	c0-0.1-0.1-0.1-0.1-0.2c0-0.4,0-0.7,0-1.1c0-0.5,0-1,0.1-1.4c0,0,0-0.1,0-0.1c-0.1-0.4-0.1-0.7-0.1-1.1c0-0.2,0-0.4,0-0.6
	c-0.1,0-0.1,0.1-0.2,0.1c-0.4,0.8-0.7,1.7-0.9,2.6c0,0.1-0.1,0.3-0.1,0.4c0,0.1-0.1,0.1-0.1,0.1c-0.1,0-0.2-0.1-0.1-0.2
	c0-0.1,0.1-0.3,0.1-0.4c0.3-0.9,0.5-1.9,0.9-2.8c0.1-0.2,0.1-0.3,0.2-0.5c-0.3-0.2-0.5-0.5-0.8-0.7C35.2,65.9,35.1,66,35,66
	c-0.1,0-0.2,0.1-0.2,0c0-0.1,0-0.2,0-0.2c0-0.1,0.1-0.2,0.2-0.3c-0.1-0.1-0.1-0.2-0.2-0.3c-0.1-0.2-0.3-0.3-0.4-0.4
	c-0.4-0.5-0.8-1-1.2-1.5c-0.1-0.1-0.2-0.3-0.3-0.4c-0.1-0.1-0.2-0.1-0.3,0c-0.2,0.2-0.4,0.4-0.5,0.6c-0.1,0.3-0.3,0.6-0.5,0.9
	c-0.1,0.1-0.1,0.2-0.3,0.2c0-0.2,0-0.4,0.1-0.6c0.3-0.4,0.5-0.9,0.8-1.3c0.1-0.2,0.1-0.4,0-0.7c-0.3-0.6-0.6-1.3-1-1.9
	c-0.1-0.3-0.3-0.6-0.4-0.9c-0.2-0.4-0.4-0.8-0.6-1.2c0,0-0.1-0.1-0.1-0.1c0,0-0.1,0.1-0.1,0.1c0,0.1,0,0.3,0,0.4
	c0,0.4,0.1,0.8,0.1,1.2c0.1,0.9,0.1,1.7,0,2.6c-0.1,0.5-0.1,1.1-0.2,1.6c0,0.2,0,0.3,0,0.5c0,0.1,0.1,0.2,0.1,0.3
	c0.1,0.5,0.1,0.9,0.2,1.4c0.1,0.9,0.1,1.8,0.2,2.6c0,0.5,0.1,1,0.3,1.5c0.1,0.3,0.1,0.7,0.1,1c0,0.1,0,0.2-0.1,0.3
	c-0.2,0-0.4,0.1-0.6,0.1c-0.2,0-0.4,0-0.5-0.1c-0.1-0.1-0.2-0.1-0.2-0.2c-0.1-0.4-0.2-0.7-0.1-1.1c0-0.2,0.1-0.4,0.3-0.4
	c0.1-0.1,0.3-0.2,0.4-0.2c-0.1-0.2-0.1-0.4-0.2-0.5c0-0.2-0.1-0.3-0.1-0.5c0-0.2-0.1-0.3-0.1-0.4c0.1-0.3,0.1-0.5,0.1-0.8
	c-0.1-0.4-0.1-0.9-0.3-1.3c0-0.1,0-0.2,0-0.2c0-0.1,0-0.2,0-0.3c-0.2-0.4-0.2-0.9-0.2-1.3c-0.4-0.2-0.5-0.2-0.8,0
	c0.1,0.1,0.2,0.1,0.3,0.2c0,0.1,0,0.1-0.1,0.2c-0.1,0.1-0.1,0.2,0,0.4c0,0,0,0,0,0c0.1,0.3,0.2,0.5,0,0.8c0.1,0.1,0.2,0.2,0.3,0.4
	c0,0,0,0.1,0,0.1c0,0-0.1,0-0.2,0c-0.2-0.1-0.2-0.2-0.3-0.4c-0.1-0.2-0.1-0.5-0.2-0.7c-0.1-0.4-0.2-0.8-0.4-1.1
	c-0.2,0-0.3,0.1-0.3,0.2c-0.2,0.3-0.3,0.6-0.4,0.9c-0.1,0.3-0.3,0.6-0.4,1c-0.1,0.1-0.1,0.2-0.1,0.4c-0.1,0.1-0.1,0.3-0.2,0.4
	c-0.1-0.1-0.1-0.1-0.1-0.2c0.2-0.8,0.5-1.5,0.9-2.2c0.1-0.4,0.4-0.7,0.6-1.1c0.1-0.2,0.2-0.4,0.1-0.6c-0.2-0.4-0.2-0.9-0.4-1.3
	c-0.1-0.3-0.2-0.7-0.1-1.1c0-0.3,0-0.7,0-1c0-0.1,0-0.2,0-0.2c0.1-0.3,0.1-0.5,0-0.8c-0.2-0.5-0.2-1.1-0.3-1.7c0-0.2,0-0.5,0-0.7
	c0.1-0.5,0.1-1.1,0.2-1.6c0,0,0-0.1,0-0.1c-0.1-0.5,0-0.9,0.1-1.4c0.2-0.8,0.5-1.6,0.8-2.4c0.2-0.4,0.4-0.9,0.5-1.3
	c0.1-0.3,0.2-0.6,0.3-0.9c0.1-0.3,0.1-0.7,0.1-1c0-0.2-0.2-0.3-0.4-0.2c-0.2,0.1-0.2,0.3-0.3,0.4c-0.1,0.6-0.4,1.2-0.6,1.8
	c-0.1,0.2-0.3,0.4-0.4,0.7c-0.1,0.1-0.2,0.3-0.3,0.5c-0.2,0.3-0.3,0.5-0.4,0.8c-0.1,0.2-0.2,0.3-0.2,0.5c-0.1,0.3-0.3,0.5-0.4,0.8
	c-0.1,0.1-0.1,0.2-0.2,0.3c-0.2,0.7-0.6,1.3-0.9,2c-0.1,0.1-0.1,0.2-0.2,0.3c-0.3,0.3-0.4,0.7-0.5,1.1c-0.1,0.4-0.2,0.8-0.3,1.2
	c0,0.2,0,0.4,0,0.5c0.1,0.2,0,0.4,0,0.6c-0.1,0.3-0.3,0.5-0.6,0.4c-0.3,0-0.6-0.4-0.5-0.7c0-0.1,0-0.2,0-0.3
	c0.1-0.4,0.2-0.8,0.2-1.2c0-0.2,0.1-0.4,0.1-0.6c0.1-0.5,0.3-1.1,0.4-1.6c0.2-0.6,0.4-1.1,0.6-1.7c0-0.1,0-0.2,0.1-0.3
	c-0.3,0-0.5,0-0.7,0.2c-0.2,0.2-0.5,0.4-0.7,0.5c-0.1,0.1-0.2,0.1-0.2,0.1c0,0-0.1,0-0.1,0c0,0,0-0.1,0-0.1c0.1-0.1,0.2-0.2,0.3-0.3
	c-0.1-0.1-0.1-0.1-0.2,0c-0.1,0.1-0.2,0.1-0.3,0.2c-0.3,0.2-0.6,0.4-0.9,0.6c-0.4,0.3-0.8,0.5-1.2,0.9c-0.1,0.1-0.3,0.2-0.5,0.2
	c0-0.3,0.2-0.5,0.4-0.7c0.2-0.2,0.4-0.3,0.6-0.5c0.5-0.4,1-0.8,1.6-1.2c0.5-0.3,1-0.6,1.5-0.8c0.2-0.1,0.4-0.1,0.6-0.1
	c0.2,0,0.3-0.1,0.4-0.2c0.1-0.2,0.2-0.3,0.2-0.5c0-0.2,0-0.4,0.1-0.6c0.1-0.2,0.1-0.4,0.1-0.7c0.1-0.8,0.2-1.5,0.5-2.3
	c0.1-0.3,0.2-0.7,0.3-1c0.3-0.8,0.6-1.7,0.9-2.5c0.2-0.5,0.4-0.9,0.6-1.4c0-0.1,0.1-0.1,0.1-0.2c0.2-0.8,0.4-1.6,0.5-2.3
	c0-0.1,0-0.2,0.1-0.3c0-0.2-0.1-0.3-0.3-0.3c-0.1,0-0.2,0-0.3,0.1c-0.2,0.1-0.5,0.1-0.7,0.2c0,0,0,0,0,0c0,0,0,0,0,0
	c0.2-0.1,0.5-0.2,0.7-0.3c0.8-0.3,0.6-0.4,0.5-1c-0.1-0.3-0.2-0.4-0.5-0.4c-0.1,0-0.3,0-0.4,0C26.6,38,26.2,38,25.8,38
	c-0.1,0-0.2,0-0.3,0c0.4-0.1,0.8-0.3,1.2-0.3c0.3,0,0.6-0.1,0.9-0.1c0.3,0,0.5-0.2,0.6-0.5c0.1-0.2,0.1-0.5,0.2-0.7
	c0.1-0.2,0.1-0.4-0.1-0.6c-0.2-0.3-0.4-0.6-0.5-1c-0.1-0.3-0.3-0.6-0.5-0.8c-0.3-0.2-0.5-0.5-0.7-0.8c-0.4-0.5-0.6-1-0.7-1.7
	c0-0.1,0-0.2-0.1-0.2c-0.1-0.3-0.3-0.5-0.6-0.6c-0.1,0-0.2-0.1-0.3-0.1c0.1-0.2,0.2-0.4,0.3-0.7c-0.3-0.4-0.5-0.9-0.7-1.4
	c0-0.1-0.1-0.2-0.2-0.2c-0.3-0.2-0.6-0.4-0.9-0.5c-0.1-0.1-0.3-0.1-0.4-0.2c-0.2-0.1-0.4-0.2-0.6-0.3c0-0.2,0.1-0.1,0.2-0.1
	c0.3,0.1,0.5,0.2,0.8,0.3c0.3,0.1,0.6,0.2,0.9,0.3c0.1-0.1,0.1-0.3,0-0.4c-0.2-0.4-0.3-0.7-0.6-1c-0.2-0.3-0.4-0.6-0.6-1
	c-0.1-0.2-0.2-0.3-0.4-0.3c-0.6,0-1.1-0.2-1.6-0.4c-0.4-0.1-0.7-0.2-1.1-0.2c-0.2,0-0.4,0.1-0.6,0.1c-0.5,0.1-1,0-1.4-0.1
	c-0.1,0-0.2-0.1-0.3-0.3c-0.1-0.2-0.2-0.3-0.4-0.4c0-0.2,0.1-0.3,0.2-0.4c0.7,0.1,1.4,0.1,2.2,0c0.8-0.1,1.7-0.2,2.5-0.5
	c-0.1-0.4-0.2-0.5-0.5-0.8c-0.3-0.3-0.6-0.5-0.9-0.8c0-0.1,0.1-0.1,0.1,0c0.2,0.2,0.5,0.4,0.8,0.5c0.1,0,0.2,0.1,0.3,0.2
	c0.2,0.2,0.4,0.3,0.6,0.5c0.1,0.1,0.2,0.1,0.3,0.2c0.3,0.4,0.6,0.6,1,0.8c0.2,0.1,0.3,0.2,0.4,0.4c0.3,0.1,0.6,0.2,0.9,0.4
	c0.2,0.2,0.6,0.2,0.7,0.6c0.2-0.5,0-0.9,0.1-1.3c0.1,0,0.1,0.1,0.2,0.2c0.2,0.4,0.3,0.9,0.5,1.3c0.1,0.3,0.3,0.6,0.6,0.9
	c0.1,0.1,0.1,0.3,0.1,0.5c0.3,0.1,0.5,0.4,0.7,0.7c0.2,0.4,0.4,0.8,0.6,1.1c0.1,0.1,0.1,0.2,0.2,0.2c0.4,0.4,0.6,0.8,0.8,1.3
	c0,0.1,0.1,0.2,0.1,0.3c0.2,0.4,0.4,0.7,0.8,0.8c0.1,0,0.2,0.1,0.3,0.2c0.1,0,0.2,0.1,0.2,0.1c0.2,0.1,0.3,0.1,0.5-0.1
	c0.1-0.1,0.1-0.1,0.2-0.2c0.1-0.2,0.1-0.3-0.1-0.4c-0.3-0.1-0.5-0.3-0.7-0.5c-0.4-0.4-0.5-0.9-0.5-1.5c0-0.3,0-0.7-0.2-1
	c-0.2-0.4-0.3-0.9-0.3-1.4c0-0.4,0.1-0.8,0.1-1.2c0-0.2,0-0.3-0.1-0.5c-0.1-0.2-0.3-0.4-0.4-0.5c0.2-0.1,0.2,0.1,0.3,0.1
	c0.1,0.1,0.2,0.2,0.4,0.1c0.2-0.1,0.3-0.2,0.3-0.4c0-0.1,0-0.1,0-0.2c-0.1-0.3-0.1-0.7-0.1-1c0.1-0.5,0.1-1.1,0.2-1.6
	c0-0.2,0-0.3-0.1-0.5c-0.2-0.3-0.2-0.7-0.2-1.1c0-0.2,0-0.3,0-0.5c0-0.1,0-0.3,0-0.4c0-0.2,0-0.3-0.2-0.4c-0.2-0.2-0.4-0.4-0.7-0.5
	c-0.1-0.1-0.3-0.3-0.4-0.4c-0.1-0.2-0.2-0.3-0.4-0.4c-0.4-0.4-0.8-0.7-1.1-1.1c-0.2-0.2-0.4-0.5-0.5-0.8c-0.2-0.4-0.3-0.7-0.5-1.1
	c-0.3-0.6-0.5-1.1-0.6-1.7c0.1-0.1,0.2,0,0.2,0c0.1,0.2,0.2,0.3,0.2,0.5c0.3,0.9,0.8,1.7,1.2,2.5c0.1,0.1,0.1,0.2,0.2,0.3
	c0.3,0.3,0.5,0.5,0.8,0.8c0.4,0.4,0.9,0.8,1.4,1.1c0,0,0,0,0,0c0.3,0.2,0.4,0.1,0.5-0.2c0-0.1,0-0.3,0-0.4c-0.1-1-0.1-2-0.3-3
	C30,13.4,30,13,29.9,12.6c0-0.3-0.1-0.5-0.3-0.7c-0.2-0.1-0.1-0.6,0.1-0.7c0,0,0.1,0,0.1,0c0.1,0,0.2,0,0.4,0
	c-0.1,0.1-0.1,0.2-0.2,0.3c-0.2,0.3-0.2,0.3,0.1,0.6c0.2-0.2,0.4-0.4,0.5-0.6c0-0.1,0-0.2,0-0.3c0.3,0,0.4,0,0.4,0.3
	c0,0.1,0,0.3,0,0.4c0,0.3,0,0.5,0,0.8c0.1,0.3,0.2,0.6,0.2,0.9c0,0.1,0,0.3,0.1,0.4c0.3,1,0.6,2.1,1.1,3.1c0.1,0.2,0.2,0.4,0.2,0.6
	c0,0.3,0.1,0.4,0.3,0.6c0.2,0.2,0.3,0.4,0.4,0.7c0.2,0.3,0.2,0.6,0.2,0.9c0,0.2,0,0.4,0.1,0.5c0.1,0.2,0.1,0.4,0.1,0.6
	c0,0.6,0.1,1.2-0.1,1.8c-0.1,0.2,0,0.5,0.1,0.7c0.2,0.4,0.3,0.8,0.4,1.2c0,0.1,0,0.2,0.1,0.3c0.3,0.3,0.5,0.6,0.9,0.7
	c0.2-0.1,0.3-0.3,0.4-0.5c0.2-0.3,0.4-0.6,0.7-0.8c0.3-0.3,0.5-0.6,0.4-1c-0.1-0.5,0-1,0.1-1.5c0.1-0.7,0.4-1.4,0.7-2
	c0-0.1,0.1-0.1,0.1-0.2c0.2-0.4,0.3-0.8,0.2-1.2c-0.1-0.3-0.1-0.7,0-1.1c0-0.2,0.2-0.4,0.3-0.6c0.2-0.2,0.4-0.2,0.5,0.1
	c0.2,0.3,0.3,0.5,0.4,0.9c0.1,0.3,0.2,0.6,0.3,1c0.2,0.5,0.3,1,0.5,1.5c0,0,0,0.1,0.1,0.1c0.1,0,0.1-0.1,0.2-0.1
	c0.1-0.4,0.2-0.7,0.2-1.1c0-0.7,0.2-1.4,0.4-2.1c0,0,0-0.1,0.1-0.1c0.3,0.1,0.4,0.2,0.3,0.4c-0.1,0.3-0.2,0.6-0.2,1
	c-0.1,0.7-0.1,1.3-0.2,2c0,0.4-0.1,0.8-0.1,1.2c0,0.4,0,0.7,0.1,1.1c0.2-0.6,0.2-1.2,0.3-1.8c0.1-0.6,0.2-1.2,0.3-1.8
	c0.1-0.6,0.2-1.2,0.2-1.8c0.1,0,0.1,0,0.2,0.1c0.1,0.2,0.1,0.4,0.1,0.7c0,0.2,0.1,0.4,0.3,0.5c0.3,0.2,0.4,0.6,0.5,0.9
	c0.1,0.3,0.2,0.6,0.4,0.8c0.3,0.5,0.4,1,0.5,1.6c0.1,0.3,0.1,0.7,0.1,1c0,0.5,0.2,0.9,0.6,1.2c0.2,0.2,0.3,0.3,0.5,0.5
	c0.1,0.1,0.3,0.2,0.4,0.2c0.2-0.1,0.2-0.3,0.2-0.4c0.1-0.5,0.1-0.9,0.2-1.4c0.1-0.4,0.1-0.8,0.1-1.2c0-0.7,0.1-1.3,0.1-2
	c0-0.2,0-0.4,0-0.6c0-0.3-0.1-0.6-0.1-0.9c0-0.3,0-0.5,0.1-0.8c0.1-0.2,0.1-0.3,0.1-0.5c0-0.2,0-0.4,0.1-0.6
	c0.1-0.3,0.1-0.6,0.2-0.8c0.1-0.2,0.1-0.5,0.3-0.7c0.1-0.1,0.1-0.3,0.1-0.5c0-0.4,0.1-0.7,0.2-1.1c0.1-0.1,0.1-0.3,0.1-0.5
	c0-0.2,0-0.4,0-0.5c0-0.2,0-0.3,0-0.6c0.1-0.1,0.3-0.2,0.3-0.3c0.1-0.1,0.2-0.2,0.3-0.1c0,0,0,0.1,0,0.2c0,0.1-0.1,0.2-0.1,0.3
	c0,0.3,0,0.6-0.1,1c0,0.1,0,0.1,0,0.2c0.1-0.1,0.1-0.2,0.1-0.3c0-0.1,0.1-0.2,0.1-0.3s0.1-0.2,0.1-0.3c0-0.1,0-0.2,0.1-0.3
	c0-0.1,0.1-0.2,0.1-0.3c0.1-0.1,0.2-0.2,0.3-0.1c0.1,0.1,0.1,0.2,0.1,0.3c0,0.2-0.1,0.3-0.2,0.5c-0.1,0.2-0.1,0.4-0.1,0.6
	c0,0.7,0,1.4,0.1,2.1c0.1,0.6,0.2,1.1,0.4,1.7c0,0,0.1,0.1,0.1,0.1c0.1,0,0.2-0.1,0.3-0.1c0,0,0,0.1,0,0.1c0,0.2-0.3,0.3-0.3,0.6
	c0,0.2-0.2,0.4-0.3,0.5c-0.1,0.1-0.1,0.3-0.1,0.4c0,0,0,0.1,0,0.1c0.3,0.6,0.3,1.2,0.3,1.9c0.4,0.5,0.4,1.1,0.5,1.7
	c0,0.4,0.1,0.9,0.3,1.2c0.1,0.2,0.2,0.5,0.3,0.8c0.1,0.2,0.2,0.2,0.3,0.1c0.3-0.2,0.6-0.5,1-0.7c0.2-0.2,0.4-0.3,0.6-0.4
	c0.2-0.1,0.3-0.2,0.5-0.3c0.2-0.1,0.3-0.2,0.4-0.4c0.3-0.2,0.6-0.2,1-0.2c-0.2,0.1-0.3,0.2-0.3,0.2c-0.3,0.1-0.5,0.3-0.8,0.4
	c-0.3,0.3-0.7,0.5-1,0.7c-0.4,0.3-0.8,0.5-1.1,0.9c-0.1,0.1-0.2,0.2-0.2,0.3c-0.2,0.2-0.3,0.5-0.2,0.8c0.1,0.3,0.1,0.6,0.1,0.9
	c0,0.3-0.1,0.5-0.2,0.8c-0.2,0.3-0.2,0.6-0.2,1c0.1,0.3,0,0.5,0,0.8C49,28.7,49,29,48.9,29.3c0,0,0,0.1,0,0.1c0.1,0.1,0.2,0,0.3-0.1
	c0.2-0.2,0.5-0.4,0.8-0.5c0.1,0,0.1-0.1,0.2-0.1c0.3,0,0.4-0.2,0.6-0.4c0.2-0.3,0.3-0.5,0.6-0.7c0.2-0.1,0.3-0.3,0.2-0.5
	c0-0.1,0-0.2,0.1-0.3c0.2-0.4,0.4-0.9,0.7-1.3c0.2-0.3,0.5-0.6,0.8-0.9c0.3-0.2,0.5-0.3,0.9-0.4c0.3-0.1,0.5-0.1,0.8-0.2
	c0.5-0.1,1-0.3,1.4-0.6c0.2-0.1,0.5-0.2,0.7-0.4c0.1-0.1,0.2-0.2,0.3-0.3c0.2-0.3,0.4-0.5,0.7-0.7c0.1,0.1,0,0.2,0,0.3
	c0,0.1,0.1,0.2,0.2,0.2c0.1,0,0.1,0,0.2-0.1c0.3-0.2,0.5-0.4,0.8-0.6c0.4-0.2,0.7-0.4,1.1-0.7c0,0,0.1,0,0.1,0c0,0,0,0.1,0,0.1
	c0,0-0.1,0.1-0.1,0.1c-0.4,0.2-0.7,0.5-1.1,0.9c-0.1,0.1-0.2,0.3-0.2,0.5c0.1-0.1,0.3-0.1,0.4-0.2c0.5-0.3,0.9-0.6,1.4-0.9
	c0.1-0.1,0.2-0.2,0.4-0.3c-0.1-0.1-0.2-0.2-0.3-0.3c0.2,0,0.3,0,0.4,0c0.1,0,0.2,0.1,0.2,0.2c0.1,0.1,0.1,0.3,0.2,0.4
	C61.6,21.7,61.5,21.8,61.4,21.8z M58.5,36.5c-0.2,0.1-0.3,0.1-0.4,0C58.2,36.4,58.3,36.4,58.5,36.5z M57.6,36.4
	c-0.1,0-0.2,0-0.4-0.1C57.4,36.3,57.5,36.3,57.6,36.4z M54.3,46.5c0,0-0.1,0-0.1,0c-0.1,0-0.1-0.1-0.1-0.1c0,0,0,0,0.1,0
	c0,0,0.1,0,0.1,0C54.3,46.4,54.3,46.4,54.3,46.5z M29.1,67.1c0.1,0,0.1-0.1,0.1-0.1c0.1,0,0.2,0,0.2,0.1c0,0.2,0,0.3,0.1,0.5
	c0,0-0.1,0.1-0.1,0.1c0,0-0.1,0-0.1-0.1C29.2,67.4,29.2,67.2,29.1,67.1z M21.4,29.2C21.4,29.2,21.5,29.2,21.4,29.2
	c0.1,0,0.1,0,0.1,0C21.5,29.3,21.5,29.3,21.4,29.2C21.5,29.3,21.4,29.2,21.4,29.2z M24.3,40.5C24.3,40.5,24.3,40.5,24.3,40.5
	C24.3,40.5,24.3,40.5,24.3,40.5C24.3,40.4,24.3,40.4,24.3,40.5C24.3,40.5,24.3,40.5,24.3,40.5z M24.3,30.2
	C24.3,30.2,24.3,30.1,24.3,30.2C24.3,30.1,24.3,30.1,24.3,30.2C24.4,30.2,24.3,30.2,24.3,30.2C24.3,30.2,24.3,30.2,24.3,30.2z
	 M24.7,30.4L24.7,30.4L24.7,30.4L24.7,30.4z M28.5,23.1C28.5,23.1,28.5,23.1,28.5,23.1C28.6,23.1,28.6,23.1,28.5,23.1
	C28.6,23.1,28.6,23.1,28.5,23.1L28.5,23.1C28.5,23.1,28.5,23.1,28.5,23.1z M29.1,23.8C29.1,23.7,29.1,23.7,29.1,23.8
	c0.1-0.1,0.2-0.1,0.2,0c0,0,0.1,0.1,0.1,0.1c0,0-0.1,0.1-0.1,0.1C29.2,23.9,29.1,23.9,29.1,23.8z M62.9,52.3L62.9,52.3L62.9,52.3
	L62.9,52.3z"/>
</svg>
