<?xml-stylesheet type="text/css" href="/CMS_Themes/Default/Css/pest-icons.css" ?>
<svg version="1.1" id="Layer_1" xmlns="http://www.w3.org/2000/svg" viewBox="0 0 82.3 82.3" width="100%" height="100%">
<g>
	<path class="pest-search__item-icon" d="M44.5,49.9l-0.2,0.2C44.4,50.1,44.5,50.1,44.5,49.9z"/>
	<path class="pest-search__item-icon" d="M45.2,49.3c0.2-0.2,0.3-0.4,0.5-0.6l-0.9,0.9C45,49.5,45.1,49.4,45.2,49.3z"/>
	<path class="pest-search__item-icon" d="M41.2,0C18.4,0,0,18.4,0,41.2s18.4,41.2,41.2,41.2s41.2-18.4,41.2-41.2S63.9,0,41.2,0z M65.9,22.2
		c-0.1,0.2-0.2,0.5-0.3,0.7c-0.3,0.3-0.5,0.7-0.9,1c-0.4,0.2-0.7,0.6-1.1,0.9c0,0,0,0,0,0c-0.5,0.4-1,0.8-1.5,1.2
		c-0.2,0.1-0.3,0.3-0.5,0.4c-0.2,0.1-0.4,0.2-0.5,0.3c-0.5,0.3-1,0.6-1.5,0.9c-0.3,0.2-0.6,0.4-0.9,0.6c0.3,0.1,0.5,0.2,0.8,0.3
		c0,0,0,0.1,0,0.1c-0.1,0-0.3,0-0.4-0.1c-0.2-0.1-0.3,0-0.4,0.2c-0.1,0.2-0.2,0.4-0.4,0.6c-0.1,0.2-0.3,0.4-0.4,0.6
		c-0.3,0.6-0.6,1.2-1.4,1.2c0,0,0,0-0.1,0c-0.6-0.3-0.6,0.4-0.8,0.6c-0.1,0.1-0.3,0.3-0.4,0.3c-0.2,0.1-0.3,0.2-0.1,0.4
		c0.3,0.4,0.8,0.6,1.3,0.9c0.2,0.1,0.4,0.3,0.4,0.5c0.2,0.9,0.1,1.8-0.2,2.7c-0.5,1.7-1.6,3-3,4.1c-0.2,0.2-0.3,0.4-0.2,0.6
		c0.1,0.2,0,0.4,0.1,0.6c0.1,0.3,0.1,0.6,0.3,0.9c0.2,0.2,0.5,0.1,0.8-0.1c0.8-0.5,1.4-1,2.1-1.7c0.6-0.6,1.1-1.4,1.3-2.2
		c0.1-0.3,0-0.7,0-1c0-0.1,0.1-0.2,0.1-0.2c0.3-0.1,0.6-0.1,0.8,0.1c0.1,0.1,0.2,0.2,0.4,0.2c0.5,0,1,0.1,1.5,0.1
		c0.6,0,1.2,0.1,1.8-0.2c0.1,0,0.1,0,0.2,0c0.1,0,0.2,0,0.3,0c0,0,0-0.1,0-0.1c0,0.1,0.1,0.2,0.2,0.4c-0.6,0-1.1,0.1-1.6,0.1
		c-0.7,0-1.4,0-2.2,0.1c-0.1,0-0.3,0-0.3,0.2c0.1,0.7-0.2,1.3-0.6,1.9c-0.9,1.4-2.1,2.3-3.4,3.1c-0.5,0.3-1,0.4-1.5,0.5
		c-0.3,0.1-0.6,0.2-1,0.3c-0.6,0.2-1.2,0.1-1.7-0.3c-0.5-0.4-0.9-0.8-1.4-1.3c-0.1-0.1-0.2-0.3-0.3-0.5c-0.2-0.2-0.3-0.4-0.5-0.6
		c-0.1-0.1-0.2-0.2-0.3-0.3c-0.1-0.1-0.1-0.1-0.2-0.1c0,0-0.1,0.1-0.1,0.1c0,0.1,0,0.2,0.1,0.2c0.3,0.3,0.3,0.3,0,0.6
		c0.1,0.3,0.1,0.3-0.2,0.6c0.1,0.4,0.2,0.7,0.3,1.1c0.1,0.3,0.1,0.6,0,0.9c-0.1,0.3-0.1,0.6,0.2,0.9c0.6,0.7,0.8,1.5,1.2,2.3
		c0.2,0.4,0.4,0.9,0.5,1.3c0.1,0.1,0.1,0.3,0.1,0.4c0,0.4,0,0.8,0.3,1.1c0,0.1,0,0.1,0,0.2c0.1,0.1,0.1,0.2,0.2,0.3
		c0.3,0.7,0.6,1.4,0.9,2.1c0.1,0.3,0.1,0.5,0.2,0.8c0.2-0.2,0.2,0,0.2,0.1c0.2,0.6,0.4,1.2,0.7,1.8c0.2,0.4,0.4,0.7,0.7,1
		c0.6,0.6,1.2,1.2,1.9,1.8c0.1,0.1,0.3,0.2,0.5,0.3c0.3,0.1,0.6,0.2,0.9,0.3c-0.1,0.2-0.2,0.4-0.3,0.7c-0.3-0.2-0.5-0.4-0.7-0.5
		c-0.4-0.3-0.7-0.5-1.1-0.7c-0.1-0.1-0.2-0.1-0.3-0.2c-0.5-0.5-1.1-1-1.6-1.5c-0.1-0.1-0.2-0.3-0.3-0.4c-0.1-0.1-0.2-0.2-0.3-0.3
		c-0.3-0.1-0.3-0.3-0.3-0.6c0,0.1,0,0.1,0,0.2c0,0-0.1,0-0.1,0c0-0.1-0.1-0.3-0.1-0.4c0-1.1-0.5-2-1-2.9c-0.3-0.5-0.5-1.2-0.7-1.7
		c-0.2-0.2-0.3-0.4-0.6-0.5c-0.3-0.1-0.6-0.5-0.8-0.8c-0.4-0.7-0.8-1.5-1.2-2.2c-0.1-0.1-0.2-0.2-0.3-0.4c0,0-0.1,0.1-0.1,0.1l0,0
		l-0.1,0.1c-0.2,0.2-0.3,0.4-0.5,0.7c-0.8,0.9-1.7,1.9-2.5,2.8c-0.1,0.1-0.1,0.1-0.2,0.2c0-0.1,0.1-0.2,0.1-0.3
		c0.1-0.2,0.4-0.3,0.4-0.6l-0.6,0.6l0.1,0.1L42.6,52c0.3-0.3,0.6-0.5,0.8-0.8c0.1-0.1,0.2-0.1,0.3-0.1c-0.4,0.4-0.7,0.7-1.1,1.1
		c-1.2,1.2-2.5,2.4-3.7,3.6c-0.2,0.2-0.3,0.5-0.4,0.8c-0.1,1.1-0.4,2.1-0.7,3.1c-0.1,0.4-0.3,0.8-0.4,1.1c-0.1,0.2-0.3,0.4-0.4,0.6
		c-0.1,0.1-0.2,0.2-0.2,0.3c-0.2,1.2-1,2.1-1.6,3.1c-0.5,0.7-1.1,1.4-1.6,2.2c-0.1,0.1-0.2,0.2-0.3,0.2c0,0.1-0.1,0.2-0.1,0.3
		c-0.6,0.7-1.2,1.4-1.9,2.1c-0.1,0.1-0.3,0.2-0.5,0.3c-0.1,0.1-0.3,0.3-0.4,0.5c-0.3,0.8-0.4,1.6-0.7,2.3c-0.3,0.7-0.3,1.3-0.5,2
		c0,0,0,0.1,0,0.1c-0.5,0-0.6-0.1-0.4-0.6c0.2-0.5,0.3-1,0.5-1.5c0.1-0.4,0.2-0.8,0.4-1.2c0-0.1,0-0.2,0-0.2
		c0.1-0.3,0.2-0.5,0.2-0.8c0.1-0.3,0.1-0.7,0.1-0.9c-0.1-0.5-0.1-0.6,0.3-1c0.5-0.4,1.1-0.8,1.6-1.2c0.1-0.1,0.2-0.1,0.3-0.1
		c0-0.1,0-0.2,0.1-0.2c0.7-0.9,1.5-1.7,2.2-2.6c0.4-0.5,0.8-1.1,1.3-1.7c0.3-0.3,0.1-0.7,0.1-1.1c0,0,0,0,0,0
		c-0.6-0.4-0.5-1.1-0.5-1.7c0,0,0-0.1,0-0.2c-0.1,0.1-0.2,0.1-0.2,0.2c-1.2,1-2.3,2-3.5,2.9c-0.9,0.7-1.8,1.4-2.9,1.8
		c-2.7,1.8-6.9,1-10-2.1c-3.1-3.1-3.8-7.3-2-10c0.5-1,1.1-1.9,1.8-2.8c0.9-1.2,1.9-2.3,2.9-3.5c0.1-0.1,0.1-0.1,0.2-0.2
		c-0.1,0-0.1,0-0.2,0c-0.6-0.1-1.2,0-1.7-0.5c0,0,0,0,0,0c-0.4,0-0.7-0.1-1.1,0.1c-0.6,0.4-1.1,0.8-1.7,1.3
		c-0.9,0.7-1.7,1.5-2.6,2.2c-0.1,0.1-0.2,0.1-0.2,0.1c0,0.1,0,0.3-0.1,0.3c-0.4,0.5-0.8,1.1-1.2,1.6c-0.3,0.4-0.5,0.4-1,0.3
		c-0.3-0.1-0.6,0-0.9,0.1c-0.3,0-0.5,0.1-0.8,0.2c-0.1,0-0.2,0-0.2,0c-0.4,0.1-0.8,0.2-1.2,0.4c-0.5,0.2-1,0.3-1.5,0.5
		c-0.5,0.2-0.6,0.1-0.6-0.4c0,0,0.1,0,0.1,0c0.7-0.2,1.3-0.2,2-0.5c0.7-0.3,1.5-0.5,2.3-0.7c0.2-0.1,0.3-0.2,0.5-0.4
		c0.1-0.1,0.2-0.4,0.3-0.5c0.7-0.6,1.4-1.3,2.1-1.9c0.1-0.1,0.2-0.1,0.3-0.1c0.1-0.1,0.1-0.2,0.2-0.3c0.7-0.5,1.4-1.1,2.2-1.6
		c1-0.7,1.9-1.4,3.1-1.6c0.1,0,0.2-0.2,0.3-0.2c0.2-0.1,0.4-0.3,0.6-0.4c0.4-0.2,0.7-0.3,1.1-0.4c1-0.4,2-0.6,3.1-0.7
		c0.1,0,0.2,0,0.3-0.1l5.2-5.2l0.1,0.1c0,0,0-0.1,0.1-0.1c0.9-0.8,1.9-1.7,2.8-2.5c0.3-0.2,0.6-0.5,0.9-0.7
		c-0.2-0.1-0.3-0.2-0.4-0.3c-0.7-0.4-1.5-0.8-2.2-1.2c-0.3-0.2-0.6-0.5-0.8-0.8c-0.1-0.3-0.3-0.4-0.5-0.6c-0.6-0.2-1.2-0.4-1.7-0.7
		c-0.9-0.5-1.8-1-2.9-1c-0.1,0-0.3-0.1-0.4-0.1c0,0,0-0.1,0-0.1c0.1,0,0.1,0,0.2,0c-0.2,0-0.5,0-0.6-0.3c0-0.1-0.2-0.2-0.3-0.3
		c-0.1-0.1-0.3-0.2-0.4-0.3c-0.5-0.5-1-1.1-1.5-1.6c-0.1-0.1-0.1-0.2-0.2-0.3c-0.2-0.4-0.5-0.7-0.7-1.1c-0.2-0.2-0.3-0.4-0.5-0.7
		c0.2-0.1,0.4-0.2,0.7-0.3c0.1,0.3,0.2,0.6,0.3,0.9c0.1,0.2,0.1,0.4,0.3,0.5c0.6,0.6,1.2,1.3,1.8,1.9c0.3,0.3,0.6,0.5,1,0.7
		c0.6,0.3,1.2,0.4,1.8,0.7c0.1,0,0.3,0,0.1,0.2c0.3,0.1,0.6,0.1,0.8,0.2c0.7,0.3,1.4,0.6,2.1,0.9c0.1,0,0.2,0.1,0.3,0.2
		c0.1,0,0.2,0,0.2,0c0.3,0.3,0.7,0.2,1.1,0.3c0.1,0,0.3,0.1,0.4,0.1c0.4,0.2,0.9,0.3,1.3,0.5c0.8,0.3,1.6,0.6,2.3,1.2
		c0.3,0.2,0.5,0.3,0.9,0.2c0.3-0.1,0.6,0,0.9,0c0.4,0.1,0.7,0.2,1.1,0.3c0.3-0.3,0.3-0.3,0.6-0.2c0.3-0.3,0.3-0.3,0.6,0
		c0.1,0.1,0.2,0.1,0.2,0.1c0.1,0,0.2-0.1,0.1-0.1c0-0.1-0.1-0.2-0.1-0.2c-0.1-0.1-0.2-0.2-0.3-0.3c-0.2-0.2-0.4-0.3-0.6-0.5
		c-0.2-0.1-0.4-0.2-0.5-0.3c-0.4-0.4-0.9-0.9-1.3-1.4c-0.4-0.5-0.6-1.1-0.3-1.7c0.1-0.3,0.2-0.6,0.3-1c0.1-0.5,0.2-1.1,0.5-1.5
		c0.8-1.3,1.7-2.6,3.1-3.4c0.6-0.4,1.2-0.6,1.9-0.6c0.2,0,0.2-0.1,0.2-0.3c0-0.7,0-1.4,0.1-2.2c0-0.5,0.1-1,0.1-1.6
		c0.2,0.1,0.3,0.1,0.4,0.2c0,0-0.1,0-0.1,0c0,0.1,0,0.2,0,0.3c0,0.1,0,0.1,0,0.2c-0.2,0.6-0.2,1.2-0.2,1.8c0,0.5,0,1,0.1,1.5
		c0,0.1,0.1,0.3,0.2,0.4c0.2,0.3,0.2,0.6,0.1,0.8c0,0.1-0.1,0.1-0.2,0.1c-0.3,0-0.7,0-1,0c-0.9,0.2-1.6,0.7-2.2,1.3
		c-0.6,0.6-1.2,1.3-1.7,2.1c-0.2,0.2-0.3,0.6-0.1,0.8c0.2,0.2,0.6,0.2,0.9,0.3c0.2,0,0.4,0,0.6,0.1c0.3,0.1,0.5,0,0.6-0.2
		c1.1-1.4,2.4-2.5,4.1-3c0.9-0.3,1.8-0.4,2.7-0.2c0.2,0.1,0.4,0.2,0.5,0.4c0.3,0.4,0.4,0.9,0.9,1.3c0.2,0.2,0.3,0.1,0.4-0.1
		c0.1-0.2,0.2-0.3,0.3-0.4c0.2-0.3,0.8-0.2,0.6-0.8c0,0,0,0,0-0.1c0.1-0.8,0.6-1.1,1.2-1.4c0.2-0.1,0.4-0.2,0.6-0.4
		c0.2-0.1,0.4-0.3,0.6-0.4c0.2-0.1,0.3-0.2,0.2-0.4c0-0.1,0-0.3-0.1-0.4c0,0,0.1,0,0.1,0c0.1,0.3,0.2,0.5,0.3,0.8
		c0.2-0.3,0.4-0.6,0.6-0.9c0.3-0.5,0.6-1,0.9-1.5c0.1-0.2,0.2-0.4,0.3-0.5c0.1-0.2,0.3-0.3,0.4-0.5c0.4-0.5,0.8-1,1.2-1.5
		c0,0,0,0,0,0c0.3-0.4,0.7-0.7,0.9-1.1c0.2-0.4,0.6-0.6,1-0.9c0.2-0.2,0.5-0.2,0.7-0.3c0.3-0.1,0.4,0,0.4,0.3c0,0.1,0,0.2,0,0.2
		c0.2,0.2,0.1,0.3-0.1,0.4c-0.1-0.1-0.3-0.2-0.4-0.3c-0.3,0.3-0.7,0.5-1,0.8c-0.2,0.2-0.4,0.5-0.5,0.7c-0.4,0.4-0.7,0.8-1.1,1.2
		c-0.1,0.1-0.1,0.1-0.1,0.2c-0.4,0.6-0.8,1.1-1.2,1.7c-0.3,0.5-0.7,1-1,1.5c0,0,0,0.1,0,0.1c0,0,0,0.1,0,0.1c0.6,0,1.8,0.7,2.9,1.8
		c1.2,1.2,2,2.5,1.8,3.1c0.1,0,0.3,0.1,0.4,0.1c0,0,0.1,0,0.1,0c0.5-0.3,1-0.7,1.5-1c0.6-0.4,1.1-0.8,1.7-1.2c0.1,0,0.1-0.1,0.2-0.1
		c0.4-0.4,0.8-0.7,1.2-1.1c0.2-0.2,0.5-0.3,0.7-0.5c0.3-0.3,0.5-0.6,0.8-1c-0.1-0.1-0.2-0.3-0.3-0.4c0.1-0.1,0.2-0.3,0.4-0.1
		c0,0,0.1,0,0.2,0C65.9,21.8,66,21.9,65.9,22.2z"/>
</g>
</svg>
