<?xml-stylesheet type="text/css" href="/CMS_Themes/Default/Css/pest-icons.css" ?>
<svg version="1.1" id="Layer_1" xmlns="http://www.w3.org/2000/svg" viewBox="0 0 82.3 82.3" width="100%" height="100%">
<g>
	<path fill="#102e52" class="pest-search__item-icon" d="M68.7,71c-0.2-0.1-0.3-0.2-0.5-0.3c-1-0.2-2-0.4-2.9-0.6c-0.2,0-0.4,0-0.6-0.1c-0.5-0.1-0.9-0.3-1.4-0.3
		c-0.8-0.1-1.7-0.2-2.5-0.3c-0.6-0.1-1.2-0.2-1.8-0.2c-0.8-0.1-1.6-0.3-2.5-0.4c-0.5,0-1,0-1.4,0c-0.7,0-1.3,0.1-2,0.1
		c-1.7,0-3.5,0.1-5.2,0.1c-0.8,0-1.5,0.1-2.3,0.1c-0.2,0-0.4,0-0.5,0.1c-0.4,0.2-0.7,0.1-1,0c-0.5-0.2-1.1-0.2-1.6,0.1
		c-0.1,0-0.2,0-0.3,0c0,0-0.1-0.1-0.1-0.1c-0.5-0.1-0.5-0.5-0.4-0.8c0-0.5,0-0.5-0.4-0.5c-0.5,0-1-0.1-1.5-0.1c-0.1,0-0.2,0-0.3,0
		c-0.3,0-0.4,0-0.5-0.3c-0.1-0.3-0.3-0.4-0.6-0.4c-0.2,0-0.5,0-0.7,0.1c-0.1,0-0.2,0.1-0.2,0.2c0,0.1,0,0.2,0,0.3
		c-0.1,0-0.2,0-0.2-0.1c0,0.1,0,0.1-0.1,0.2c0,0-0.1,0-0.1,0c-0.1-0.2-0.2-0.3-0.2-0.5c-0.1-0.3-0.1-0.6-0.1-0.8
		c-0.1-0.6,0.3-1.3,0.9-1.4c0.1,0,0.3-0.1,0.4-0.1c0.1-0.1,0.3-0.2,0.3-0.3c0-0.2-0.1-0.4-0.3-0.4c-0.4-0.2-0.7-0.6-0.9-1
		c0-0.1-0.2-0.1-0.2-0.1c-0.1-0.3-0.3-0.5-0.4-0.7c-0.1-0.1-0.1-0.3-0.1-0.5c0,0,0-0.1,0-0.1c0-0.1-0.1-0.3-0.1-0.4
		c-0.1,0.1-0.1,0.2-0.2,0.2c-0.4,0.3-0.4,0.8-0.5,1.3c-0.1,0.3-0.2,0.6-0.3,1c0,0.1-0.1,0.2,0,0.2c0.1,0.4-0.1,0.6-0.3,0.9
		c-0.5,0.6-0.8,1.2-1,2c-0.2,0.6-0.5,1.2-0.7,1.9c0,0.1,0,0.1-0.1,0.2c0,0.5-0.4,0.6-0.7,0.6c-1.2,0-2.4,0-3.6,0c-0.2,0-0.4,0-0.6,0
		c-0.2,0-0.3-0.1-0.5-0.2c0.1-0.2,0.1-0.4,0.2-0.5c-0.1,0-0.2,0-0.3,0c0.4-0.4,0.7-0.9,1.1-1.2c0.4-0.3,0.9-0.8,1.5-0.8
		c0.1,0,0.1,0,0.2,0c0.4,0,0.4,0,0.6-0.4c0.1-0.3,0.2-0.6,0.4-0.9c0.2-0.6,0.5-1.2,0.7-1.8c0.1-0.2,0.1-0.5,0.1-0.8
		c0.1-1.5,0.4-3,0.7-4.5c0.1-0.7,0.2-1.5,0.3-2.2c0.1-0.7,0.1-1.5,0.1-2.2c0-0.3,0-0.6,0-0.8c0-0.1-0.1-0.2-0.2-0.2
		c0,0.1-0.1,0.1-0.1,0.2c-0.1,0.2-0.2,0.5-0.3,0.7c-0.3,0.9-0.6,1.8-0.9,2.7c-0.1,0.4-0.3,0.7-0.4,1.1c-0.1,0.3-0.2,0.7-0.3,1
		c-0.2,0.6-0.4,1.1-0.6,1.7c-0.3,1-0.5,2.1-0.9,3.1c-0.2,0.6-0.3,1.3-0.7,1.9c-0.3,0.4-0.3,0.8-0.3,1.2c0,0.4-0.2,0.7-0.5,1.1
		c-0.3,0.4-0.5,0.8-0.8,1.2c-0.1,0.1-0.1,0.3-0.1,0.5c-0.7,0.1-1.4,0.2-2.2,0.2c-0.9,0-1.8-0.1-2.7-0.1c-0.4,0-0.5-0.2-0.4-0.6
		c-0.1,0-0.1,0-0.2,0c0-0.1,0.1-0.1,0.1-0.2c0,0-0.1,0-0.1,0c0,0,0-0.1,0-0.1c0.3-0.3,0.5-0.6,0.8-0.9c0,0,0-0.1,0-0.1
		c0.2-0.1,0.4-0.2,0.6-0.4c0.4-0.4,0.8-0.4,1.3-0.2c0.4,0.1,0.4,0.1,0.5-0.3c0.1-0.4,0.3-0.7,0.5-1.1c0.6-1,1.1-2,1.2-3.2
		c0.2-1.1,0.3-2.1,0.6-3.2c0.3-1.2,0.5-2.4,0.5-3.6c0-0.6,0.1-1.2,0.1-1.8c0-0.7,0.1-1.5,0.1-2.2c0-0.3-0.1-0.7-0.1-1
		c0-0.1-0.1-0.1-0.1-0.1c-0.1-0.1-0.1-0.3-0.2-0.4c0-0.1-0.1-0.2-0.1-0.3c0-0.1-0.1-0.1-0.1-0.2c-0.1-0.2-0.2-0.3-0.3-0.5
		c0-0.1-0.1-0.2-0.1-0.3c-0.1-0.2-0.2-0.4-0.3-0.6c-0.1-0.1-0.1-0.2-0.2-0.3c-0.1-0.1-0.1-0.3-0.2-0.4c-0.1-0.1-0.1-0.3-0.2-0.5
		c-0.2-0.3-0.2-0.7-0.5-1c-0.1-0.1-0.1-0.2-0.1-0.3c0.1-0.3,0-0.5-0.2-0.7c0.1-0.1,0.1-0.2,0.2-0.4c-0.2-0.1-0.3-0.2-0.1-0.5
		c0,0-0.1-0.2-0.1-0.3c0-0.1-0.1-0.2-0.1-0.3c0,0,0,0,0.1,0c-0.1,0-0.1-0.1-0.2-0.1c0.1-0.1,0.2-0.2,0.3-0.4c0,0-0.1,0-0.1,0
		c0-0.1,0-0.3-0.1-0.4c-0.1-0.1,0-0.3-0.2-0.4c0,0-0.1-0.1,0-0.2c0-0.1,0.1-0.3,0-0.4c-0.2-0.2,0.1-0.4,0.1-0.6c0,0-0.1,0-0.2-0.1
		c0-0.1-0.1-0.3,0-0.3c0.2-0.3,0-0.6-0.1-0.9c0-0.1,0-0.1,0-0.2c0-0.1,0.1-0.2,0-0.3c-0.1-0.1,0-0.2,0.1-0.3
		c0.2-0.2,0.1-0.5-0.1-0.6c-0.1,0-0.1,0-0.2,0c0.1-0.1,0.2-0.2,0.3-0.3c0,0,0,0-0.1,0c0-0.2,0-0.4-0.1-0.5c0-0.3-0.2-0.7-0.1-1
		c0-0.1-0.1-0.2-0.1-0.3c0-0.2,0.1-0.3,0-0.5c0-0.1-0.1-0.2-0.1-0.4c0-0.1,0.1-0.2,0-0.3c-0.2-0.3-0.1-0.6-0.3-0.9
		c0-0.1,0.1-0.3,0.1-0.4c0-0.3-0.1-0.5-0.1-0.8c0,0-0.1-0.1-0.1-0.1c0,0,0.1-0.1,0.2-0.1c-0.3-0.1-0.3-0.3-0.2-0.6
		c-0.1,0-0.1-0.1-0.2-0.1c0,0,0-0.1,0-0.1c0.1-0.1,0.2-0.2,0-0.3c-0.3-0.1-0.2-0.3,0-0.4c-0.3,0-0.3-0.2-0.2-0.4
		c0-0.2,0-0.3-0.1-0.5c0.1-0.1,0.2-0.2,0.1-0.4c-0.1-0.1,0-0.4,0-0.5c0.1-0.2,0-0.4-0.2-0.4c-0.6-0.1-1.2-0.1-1.8,0.1
		c-0.1,0-0.3,0-0.4,0c-0.5-0.2-1-0.2-1.5-0.2c-0.7,0-1.3,0-2-0.2c-0.5-0.1-0.8-0.5-1.1-0.9c-0.1-0.2-0.1-0.4,0.1-0.5
		c0.1-0.1,0.1-0.2,0.1-0.3c0.1,0,0.1,0,0.2,0c0.1-0.3-0.1-0.4-0.3-0.4c-0.6-0.2-1-0.7-1.3-1.2c-0.1-0.1-0.1-0.3-0.1-0.5
		c0-0.1,0-0.3-0.1-0.4c-0.2-0.5,0-0.8,0.5-0.9c1.4-0.3,2.7-0.9,4-1.3c0.4-0.1,0.7-0.4,0.9-0.7c0.1-0.2,0.3-0.3,0.1-0.6
		c-0.1-0.2,0.1-0.6,0.3-0.7c0.5-0.3,1-0.6,1.5-1c0.2-0.1,0.3-0.3,0.4-0.5c0.1-0.1,0.3-0.1,0.4-0.2c0.1-0.1,0.3-0.3,0.3-0.5
		c-0.1-1.1-0.5-2.1-0.8-3.2c-0.2-0.8-0.4-1.6-0.5-2.3c-0.1-0.8,0.4-1.1,1.1-0.7c0.5,0.2,0.8,0.6,1.2,1c0.5,0.6,1.1,1.2,1.6,1.8
		c0.4,0.5,0.8,1,1.2,1.5c0.3,0.3,0.6,0.7,0.9,1c0.2-0.3,0.4-0.6,0.6-0.9c0.6-0.8,1.1-1.5,1.7-2.2c0.2-0.2,0.4-0.4,0.7-0.4
		c0.5-0.2,0.9,0,1.2,0.4c0.3,0.4,0.4,0.9,0.6,1.4c0.1,0.5,0.3,0.9,0.5,1.4c0.2,0.4,0.3,0.8,0.4,1.2c0,0,0,0.1,0,0.1
		c-0.1,0.1,0,0.2,0.1,0.3c0.1,0.1,0.1,0.3,0.1,0.4c0,0.2,0,0.4,0,0.6c0.1,0.6,0.2,1.2,0.3,1.8c0.1,0.3,0.1,0.5,0.2,0.8
		c0.2,0.1,0.3,0.1,0.5,0.2c-0.1,0.1-0.2,0.1-0.3,0.2c0.1,0.1,0.2,0.1,0.3,0.1c0,0.1-0.1,0.3-0.1,0.5c0.1,0,0.2,0,0.3,0c0,0,0,0,0,0
		c-0.1,0.1-0.2,0.1-0.3,0.2c0.2,0.1,0.1,0.3,0,0.4c0.2,0,0.3,0,0.4,0c0,0,0,0,0,0c-0.1,0-0.1,0-0.3,0.1c0.1,0.1,0.2,0.2,0.2,0.3
		c-0.1,0.1-0.2,0.2-0.4,0.2c0.1,0,0.2,0.1,0.2,0.1c-0.1,0.1-0.1,0.1-0.2,0.2c-0.1,0.1,0,0.3,0.2,0.4c0,0,0.1,0,0.2,0.1
		c-0.1,0.1-0.1,0.1-0.2,0.2c0.1,0.1,0.3,0.2,0.4,0.3c-0.2,0-0.2,0-0.4,0c0,0.3,0.1,0.6,0.1,0.9c0,0,0.1,0.1,0.2,0.1c0,0,0,0,0,0
		c-0.4,0.1,0.2,0.6-0.3,0.7c0,0,0,0.2,0.1,0.2c0.1,0.1,0.2,0.2,0.3,0.4c-0.1,0-0.2,0-0.3,0c0.2,0.2,0.3,0.3,0.5,0.5
		c-0.1,0.1-0.1,0.1-0.2,0.1c0.2,0.2,0.4,0.4,0.5,0.6c0,0,0,0,0,0.1c-0.1,0-0.2,0-0.3,0c0,0,0,0,0,0c0.1,0.1,0.2,0.1,0.3,0.2
		c-0.1,0.1-0.2,0.2-0.3,0.3c0.3,0.2,0.5,0.4,0.8,0.6c-0.1,0.2-0.2,0.3-0.5,0.2c-0.1-0.1-0.3-0.1-0.4-0.2c0,0,0,0,0,0.1
		c0.6,0.3,0.9,0.9,1.6,1.1c0.3,0.1,0.6,0.3,0.9,0.5c0,0.1-0.1,0.2-0.2,0.3c0.1,0,0.3,0,0.4,0c0,0.1-0.1,0.2-0.1,0.3
		c0.1,0.1,0.2,0.1,0.3,0.2c-0.1,0.2-0.1,0.2,0.5,0.3c-0.2,0.1-0.3,0.1-0.5,0.2c0.2,0.1,0.4,0.1,0.7,0.2c-0.1,0-0.2,0.1-0.3,0.1
		c0.2,0,0.4,0,0.6,0c0,0,0,0.1,0,0.1c-0.1,0.1-0.3,0.2-0.4,0.3c0.1,0,0.2,0.1,0.4,0.1c-0.2,0.2-0.1,0.3,0.1,0.4
		c0.1,0.1,0.2,0.2,0.3,0.3c0.1,0.1,0.2,0.1,0.3,0.2c0,0,0,0-0.1,0c0.1,0.2,0.2,0.3,0.4,0.5c0,0,0,0-0.1,0c0.1,0.2,0.2,0.4,0.3,0.5
		c0.1,0.3,0.4,0.5,0.4,0.8c0,0.1,0.2,0.2,0.3,0.3c0.5,0.4,0.9,0.7,1.4,1.1c0.5,0.4,1,0.7,1.6,1c0.3,0.2,0.7,0.3,1,0.6
		c0.3,0.2,0.5,0.5,0.7,0.7c0.1,0.1,0.3,0.2,0.5,0.4c0.4,0.3,0.7,0.7,0.9,1.1c0,0.1,0.2,0.2,0.3,0.2c0.4,0.2,0.6,0.6,0.9,0.9
		c0.2,0.2,0.3,0.5,0.5,0.7c0.1,0.2,0.1,0.4,0.3,0.6c0.2,0.2,0.4,0.4,0.5,0.6c0.1,0.2,0.2,0.4,0.3,0.6c0.2,0.4,0.4,0.8,0.6,1.2
		c0.1,0.2,0.1,0.4,0.2,0.6c0.2,0.4,0.4,0.9,0.7,1.3c0.2,0.3,0.3,0.6,0.4,1c0.1,0.4,0.3,0.8,0.5,1.3c0.1,0.3,0.1,0.6,0.2,0.9
		c0.2,0.6,0.3,1.2,0.5,1.8c0.2,0.5,0.2,1,0.3,1.6c0.1,0.5,0.3,1,0.4,1.5c0.2,0.5,0.3,1.1,0.5,1.6c0.1,0.3,0.3,0.6,0.4,1
		c0.2,0.8,0.5,1.6,0.7,2.4c0.2,0.6,0.6,1,1.1,1.3c0.4,0.3,0.8,0.5,1.3,0.7c0.3,0.1,0.6,0.1,0.9,0.2c0.5,0.2,1,0.1,1.4-0.2
		c0.5-0.3,1-0.6,1.5-0.8c0.1,0,0.1-0.1,0.2-0.1c0.7,0,1.4,0.3,2-0.3c0.1,0,0.2,0.1,0.2,0.1c0.3-0.1,0.5-0.2,0.8-0.1
		c0,0.1-0.1,0.1-0.2,0.2c0.2,0,0.4-0.1,0.6-0.1c0,0.1,0.1,0.2,0.1,0.3c0,0,0,0.1,0,0.1c0.2-0.1,0.4,0.1,0.5,0
		c0.2-0.1,0.3-0.3,0.5-0.4c0.2,0.3,0.3,0.3,0.6,0.1c0,0,0,0.1,0,0.1c0,0,0,0.1,0,0.1c0.1,0,0.2-0.1,0.3-0.1c0,0.1,0,0.2,0,0.3
		c0.2-0.1,0.4-0.2,0.6-0.3c0,0,0,0.1,0.1,0.2c0.1-0.1,0.3-0.2,0.4-0.3c0.1-0.1,0.3-0.1,0.3-0.1c0.1,0.1,0.1,0.2,0.2,0.4
		c0,0.1,0.1,0.3,0.1,0.4C69.9,63,70,63,70,62.9c0.2,0,0.4-0.3,0.6-0.1c0.1,0.1,0.2,0,0.3,0c0,0.1,0,0.2,0,0.3c0.2,0,0.3-0.1,0.5-0.1
		c0.1,0,0.3,0.1,0.4,0.2c-0.1,0.1-0.2,0.2-0.3,0.2c0.3-0.2,0.6-0.1,0.9,0c-0.1,0.1-0.2,0.2-0.2,0.4c0.2,0,0.3,0,0.5,0
		c0,0,0,0.1,0,0.1c0,0,0.1,0,0.1,0c0.2-0.1,0.4-0.2,0.6,0c0.1,0.1,0.2,0,0.4,0c-0.1,0.1-0.1,0.1-0.2,0.2c0.3,0.1,0.5,0.1,0.8,0.2
		c-0.1,0.2-0.1,0.4,0.2,0.3c0,0,0.1,0,0.1,0c0,0,0.1,0,0.1,0c4.7-6.7,7.4-14.8,7.4-23.5C82.3,18.4,63.9,0,41.2,0S0,18.4,0,41.2
		c0,22.7,18.4,41.2,41.2,41.2c10.8,0,20.7-4.2,28-11C69,71.2,68.9,71.1,68.7,71z"/>
	<path fill="#102e52" class="pest-search__item-icon" d="M37.5,55.8c-0.1,0.6-0.2,1.2-0.3,1.8c0.2,0.1,0.4,0,0.4-0.2c0-0.2,0.1-0.2,0.2-0.3c0.1,0,0.1-0.1,0.2-0.1
		c0.1-0.2,0.3-0.3,0.4-0.5c-0.2-0.3-0.3-0.5-0.5-0.8c0-0.1-0.1-0.1-0.2-0.2C37.6,55.7,37.5,55.8,37.5,55.8z"/>
</g>
</svg>
