<?xml-stylesheet type="text/css" href="/CMS_Themes/Default/Css/pest-icons.css" ?>
<svg xmlns="http://www.w3.org/2000/svg" viewBox="0 0 80 80" width="100%" height="100%">
  <path class="pest-search__item-icon" d="M40 0C17.9 0 0 17.9 0 40s17.9 40 40 40 40-17.9 40-40S62.1 0 40 0zM66 35.5c-3.8 2.5-7.7 5-11.5 7.5 -0.7 0.4-0.9 0.9-0.4 1.6 0.3 0.4 0.4 0.9 0.6 1.3 0.5 0.8 0.1 1.3-0.5 1.7 -1 0.7-2.1 1.4-3.2 2.2 1.1 1.3 2.1 2.5 3.3 3.9 -1.5 0.7-2.9 1.3-4.6 2.1 0.9 0.7 1.5 1.2 2.2 1.7 0 0.1-0.1 0.2-0.1 0.4 -0.7 0.2-1.4 0.4-2.1 0.6 -0.1 1-0.3 2-0.4 3 -0.1 0.4-0.2 0.9-0.4 1.1 -0.7 0.7-0.5 1.5-0.3 2.3 0.1 0.6 0.2 1.3 0.3 2.1 -1.1 0-2 0-2.9 0 -0.2 0-0.4-0.2-0.5-0.4 -0.2-0.5-0.4-1-0.6-1.7 -2.2 0-4.3-0.8-6.5-1.5 -2.1-0.7-4-0.1-5.7 1.2 0 0.8 0 1.6 0 2.4 -0.7 0-1.5 0.1-2.2 0 -0.2 0-0.6-0.4-0.6-0.7 -0.2-0.9-0.6-1.3-1.5-1.6 -2.6-1-3.8-3-4-5.8 -0.1-2-0.6-3.9-1-5.9 0-0.2-0.4-0.5-0.6-0.5 -2.7-0.4-5.4-0.8-8-1.1 -0.4-0.1-0.9 0-1.1 0 -0.3-0.5-0.5-0.9-0.8-1.4 0.1-0.1 0.3-0.5 0.5-0.9 -0.2-0.1-0.4-0.2-0.7-0.3 0.5-0.6 0.8-1 1.2-1.4 2.2-0.7 4.4-1.4 6.6-2 -0.9-0.9-1.9-1.7-2.7-2.7 -1.8-2.4-1.6-4.9-0.1-7.3 0.6-1 1.5-1.8 2.2-2.7 0.2-0.2 0.2-0.6 0.2-0.8 -0.5-4.5 0.4-8.7 2.8-12.6 0.1-0.2 0.3-0.3 0.4-0.5 0.6 0 1.2 0 1.8 0 0.2 1 0.4 1.9 0.5 2.9 0.1 2.7-0.2 5.4-0.8 8 0.8-0.1 1.5-0.2 2.3-0.2 1.7 0 3.6-0.2 5.2 0.5 1.3 0.6 2.2 0.3 3.4-0.5 3.8-2.4 7.9-4.1 12.5-4.7 1.6-0.2 3.2-0.3 4.8-0.5 0.3 0 0.7 0.2 1 0.2 -0.1 0.4-0.1 0.8-0.4 1.1 -1.5 2-3.6 3.3-5.7 4.5 -3.1 1.7-6.4 3-9.7 3.8 1.1 2.6 2 5.3 3.2 7.9 0.9 1.9 2 3.6 3.1 5.4 1.2 2 2.6 3.9 3.8 5.9 0.3 0.4 0.5 0.5 0.9 0.3 0.4-0.2 0.8-0.5 1.3-0.8 -1.1-1.1-2.1-2.2-3.1-3.2 -0.7-0.7-0.7-0.7 0-1.3 1.2-1 2.5-2 3.8-3 -0.8-1.7-1.5-3.3-2.4-4.8 -1.2-2-0.9-2.1 0.4-3.6 2.4-2.7 4.9-5.3 7.5-7.8 2.2-2.1 4.5-4 6.8-5.9 0.3-0.3 0.7-0.4 1.2-0.7 0.5 1.5 1 2.9 1.3 4.4 0.5 2.2 0.9 4.5 1.3 6.7C67.3 34.5 67.1 34.8 66 35.5z"/>
</svg>