<?xml-stylesheet type="text/css" href="/CMS_Themes/Default/Css/pest-icons.css" ?>
<svg version="1.1" id="Layer_1" xmlns="http://www.w3.org/2000/svg" viewBox="0 0 82.3 82.3" width="100%" height="100%">
<path class="pest-search__item-icon" d="M41.2,0C18.4,0,0,18.4,0,41.2s18.4,41.2,41.2,41.2s41.2-18.4,41.2-41.2S63.9,0,41.2,0z M55.6,22.2
	c-0.5,1.5-1.7,2.3-3.1,2.4c-1.5,0.1-2.8-0.5-3.5-1.8c-0.7-1.2-1.4-1.2-2.4-0.4c0.2,0.3,0.2,0.5,0.4,0.6c0.9,0.5,2,0.9,2.8,1.6
	c0.6,0.5,0.9,1.3,1.4,2c-0.6,0.3-1.2,0.8-1.9,0.9c-0.7,0.1-1.5-0.1-2.6-0.2c1.2,2.6-0.1,5.3,1.7,7.5c0.2,0.3,0.4,0.8,0.3,1.1
	c-0.4,1.5,0.7,2.3,1.4,3.2c0.6,0.9,0.7,1.5,0.1,2.3c-0.2,0.3-0.2,0.9-0.1,1.2c0.2,0.7,0.5,1.4,0.7,1.8c0.4,0.3,1,0.5,1.1,0.8
	c0.5,1.6-0.5,2.6-1.9,3.1c0.7,1,1.3,1.9,1.8,2.8c1.1,1.8,0.1,4-1.9,4.4c-0.2,0-0.5,0.2-0.9,0.5c2.5,1.8,2.4,4.1,1.8,6.5
	c-0.3,1.2-1.1,1.8-2.4,1.8c-1.9,0-2.2,0.4-1.4,2.3c0.6,1.5,0.2,2.6-0.9,3.8c-0.8,0.9-1.5,1.9-2.1,3c-0.7,1.3-1.1,2.9-2.8,2.7
	c-1.6,0.1-2.1-1.4-2.8-2.7c-0.6-1.1-1.3-2.1-2.1-3c-1.1-1.2-1.4-2.3-0.9-3.8c0.7-1.9,0.5-2.2-1.4-2.3c-1.3,0-2.1-0.6-2.4-1.8
	c-0.5-2.4-0.7-4.8,1.8-6.5c-0.4-0.2-0.7-0.4-0.9-0.5c-2-0.4-3-2.6-1.9-4.4c0.6-0.9,1.2-1.8,1.8-2.8c-1.4-0.6-2.4-1.5-1.9-3.1
	c0.1-0.3,0.6-0.5,1.1-0.8c0.2-0.5,0.5-1.1,0.7-1.8c0.1-0.4,0.1-0.9-0.1-1.2C32,40.6,32,40,32.6,39.1c0.7-0.9,1.8-1.8,1.4-3.2
	c-0.1-0.3,0.1-0.8,0.3-1.1c1.8-2.2,0.6-4.9,1.7-7.5c-1.1,0.1-1.9,0.3-2.6,0.2c-0.7-0.1-1.3-0.6-1.9-0.9c0.4-0.7,0.8-1.5,1.4-2
	c0.8-0.7,1.9-1.1,2.8-1.6c0.2-0.1,0.2-0.4,0.4-0.6c-1-0.8-1.7-0.8-2.4,0.4c-0.7,1.3-2.1,1.9-3.5,1.8c-1.4-0.1-2.6-0.9-3.1-2.4
	c-0.6-1.7,0.2-3.2,2.7-4.1c-0.6,0.7-1,1.2-1.4,1.6c0.5,0.7,1,1.4,1.5,2.1c3.3-0.8,5.8-3.8,9.6-3.1c0-0.2,0.1-0.4,0.1-0.4
	c-1.7-1-2.2-2.3-1.5-4.3c0.4-1.1-0.7-1.9-1.5-2.7c-0.7-0.7-1.3-1.5-1.9-2.3c-0.2-0.2-0.1-0.6-0.1-0.9c1.6,1.4,3.1,2.7,4.3,3.7
	c1-1.1,1.7-2.4,2.6-2.6v0c0,0,0,0,0,0c0,0,0,0,0,0c0,0,0,0,0,0c0,0,0,0,0,0v0c0.9,0.2,1.6,1.6,2.6,2.6c1.2-1,2.7-2.3,4.3-3.7
	c0,0.3,0.1,0.7-0.1,0.9c-0.6,0.8-1.2,1.6-1.9,2.3c-0.8,0.8-1.9,1.5-1.5,2.7c0.7,2,0.2,3.3-1.5,4.3c0,0,0,0.2,0.1,0.4
	c3.7-0.8,6.3,2.3,9.6,3.1c0.5-0.7,1-1.4,1.5-2.1c-0.4-0.5-0.9-1-1.4-1.6C55.4,19,56.2,20.5,55.6,22.2z"/>
</svg>
