<?xml-stylesheet type="text/css" href="/CMS_Themes/Default/Css/pest-icons.css" ?>
<svg version="1.1" id="Layer_1" xmlns="http://www.w3.org/2000/svg" viewBox="0 0 82.3 82.3" width="100%" height="100%">
<g>
	<path class="pest-search__item-icon" d="M27.2,51.2c0.1,0.2,0.3,0.3,0.3,0.5c0,0.2-0.1,0.3-0.2,0.5c0,0.1,0,0.2,0,0.3c0,0,0.1,0,0.1,0
		c0.1-0.2,0.1-0.5,0.2-0.7C27.7,51.5,27.6,51.3,27.2,51.2z"/>
	<path class="pest-search__item-icon" d="M26.8,53.2c-0.2,0.3-0.3,0.7-0.1,1C27.1,53.7,27.2,53.3,26.8,53.2z"/>
	<path class="pest-search__item-icon" d="M26.6,52.2c-0.1,0-0.2,0-0.3,0.1c-0.3,0.3-0.1,0.6,0,0.9c0.4-0.1,0.3-0.4,0.4-0.7
		C26.8,52.4,26.7,52.2,26.6,52.2z"/>
	<path class="pest-search__item-icon" d="M31.6,50.2c-0.1,0-0.1-0.1-0.2-0.1c-0.1-0.1-0.3-0.1-0.4-0.2c-1,0-1.3,0.2-1.5,1.1c0,0.1-0.1,0.1,0,0.2
		c0,0.1,0.1,0.3,0.2,0.4c0.5,0.4,1,0.7,1.5,1.1c0.2,0.1,0.3,0.1,0.4-0.1c0.2-0.5,0.3-0.9,0.4-1.4c0.1-0.2,0.2-0.4,0.1-0.6
		C32,50.4,31.7,50.3,31.6,50.2z"/>
	<path class="pest-search__item-icon" d="M41.2,0C18.4,0,0,18.4,0,41.2s18.4,41.2,41.2,41.2s41.2-18.4,41.2-41.2S63.9,0,41.2,0z M72.1,27.2l-17.3,6.2
		c0,0,0,0,0,0c0,0,0.1,0,0.1,0l4.8-0.5l-0.4,2.2l-3,2.4l-3,0.8l-5.7-0.7c-0.4,0-0.8,0-1.2,0c-0.7,0-1.3,0-2,0c-1-0.1-2,0.3-3,0.4
		c-0.3,0-0.3,0.3-0.3,0.5c0,0.2,0.1,0.3,0.3,0.4c1,0.4,2.1,0.2,3.2,0.3c0.9,0.1,1.8,0.2,2.7,0.3c0.3,0,0.7,0,1,0.1
		c1,0.2,1.9,0.4,2.9,0.6c0.4,0.1,0.9,0.2,1.3,0.3c0.9,0.2,1.7,0.4,2.6,0.7c0.6,0.2,1.2,0.4,1.9,0.6c0.8,0.2,1.6,0.4,2.4,0.6
		c0.7,0.2,1.3,0.4,2,0.7c0.1,0,0.1,0.1,0.1,0.2c-0.1,0-0.2,0-0.4,0c-0.3,0-0.6-0.1-0.8,0.2c0,0.1-0.3,0-0.4,0c-0.2,0-0.3,0-0.5,0
		c-0.3,0-0.6,0-0.9-0.1c-0.5-0.2-1.1-0.4-1.6-0.6c-0.2-0.1-0.5-0.2-0.7-0.2c-0.4-0.1-0.8-0.1-1.2-0.2c-0.5,0-1,0-1.5-0.1
		c-0.1,0-0.2,0-0.4,0c0.1,0.1,0.2,0.2,0.3,0.4c-0.2-0.1-0.3-0.2-0.5-0.3c0,0.4,0.2,0.5,0.4,0.7c0.3,0.2,0.6,0.4,0.9,0.7
		c0.9,0.7,1.5,1.5,2.2,2.3c0.5,0.6,0.9,1.2,1.2,2c0.2,0.5,0.6,0.9,1,1.4c0.7,1,1.3,2.1,1.7,3.3c0,0.1,0.1,0.3,0.1,0.4
		c0,0.7,0.4,1.3,0.6,2c0.3,1.1,0.7,2.1,0.6,3.2c0,0.4,0.1,0.9,0.2,1.3c0.1,0.8,0.1,1.6-0.1,2.5c0,0.1,0,0.2-0.1,0.2
		c-0.5,0.6-0.4,1.4-0.7,2c-0.3,0.7-0.6,1.5-0.9,2.2c-0.2,0.4-0.5,0.7-0.8,1c-0.3,0.3-0.5,0.3-0.7-0.2c-0.2-0.6-0.7-1-1.2-1.4
		c-0.6-0.5-1.2-1-1.8-1.4c-0.1,0-0.1-0.1-0.2-0.1c-0.6-0.1-0.9-0.6-1.2-1.1c-0.3-0.5-0.6-1-1-1.4c-1-0.9-1.7-2-2.5-3.1
		c0-0.1-0.1-0.1-0.1-0.1c-0.3-0.3-0.6-0.5-0.8-0.8c-0.3-0.4-0.6-0.8-0.9-1.2c-0.5-0.7-0.9-1.3-1.4-2c-0.2,0.1-0.3,0.2-0.5,0.4
		c-0.1,0.1-0.1,0.2-0.1,0.3c0.3,0.9,0,1.7-0.1,2.6c-0.2,1.5-0.6,2.9-0.5,4.5c0,0.1,0,0.2,0,0.3c-0.3,0.4-0.2,0.8-0.2,1.2
		c0,0.4,0.1,0.8-0.1,1.1c-0.4,0.7-0.3,1.5-0.6,2.2c-0.1,0.4-0.1,0.8-0.1,1.3c0,0.4,0,0.8,0.1,1.2c0.1,0.6-0.2,1-0.6,1.4
		c-0.2,0.2-0.5,0.2-0.8,0c0.1-0.1,0.2-0.1,0.3-0.1c0,0,0-0.1,0-0.1c-0.3,0-0.5-0.1-0.8-0.1c0,0,0-0.1,0-0.1c0.4,0.1,0.7-0.2,0.9-0.5
		c0.2-0.3,0.3-0.7,0.3-1c0-0.2,0-0.5-0.4-0.6c0.1-0.4,0.2-0.7,0.3-1c0.1-0.2,0.2-0.4,0.1-0.7c-0.1-0.2,0.1-0.5,0.2-0.8
		c0.1-0.2,0.2-0.4,0.2-0.5c0-0.1,0.1-0.2,0.1-0.2c-0.1-0.5,0.1-1,0.2-1.5c0.1-0.3,0.2-0.6,0.1-0.9c-0.2-0.4,0-0.8,0-1.2
		c0.1-0.6,0.2-1.2,0.3-1.8c0.1-0.4,0.1-0.8,0.1-1.2c0-0.4,0-0.8,0-1.2c0,0,0,0-0.1,0c-0.1,0.2-0.3,0.3-0.4,0.5c0,0-0.1,0-0.1,0
		c0.4-0.9,0.4-1.9,0.2-2.8c-0.4,0.3-0.7,0.6-1.1,0.9c0,0-0.1,0-0.1-0.1c0.1-0.1,0.2-0.3,0.3-0.4c0.6-0.5,0.9-1.2,1-2
		c0-0.3,0.1-0.6,0.2-0.9c0-0.2,0-0.5-0.2-0.6c-0.3-0.3-0.4-0.5-0.4-0.9c0-0.3,0-0.7-0.1-1c0-0.2-0.1-0.4-0.2-0.7
		c-0.2,0.1-0.4,0.2-0.5,0.4c-0.4,0.5-0.9,1-1.5,1.3c-0.1,0-0.1,0.1-0.2,0.2c-0.2-0.2-0.3-0.2-0.4,0c-0.1,0.2-0.3,0.3-0.5,0.4
		c-0.1,0.1-0.2,0.2-0.2,0.3c0.2,1.1,0.5,2.3,0.6,3.4c0.1,0.4-0.1,0.7-0.2,1.1c0,0.1-0.1,0.1-0.1,0.2c-0.1,0.6-0.2,1.3-0.2,1.9
		c-0.1,0.7-0.2,1.4-0.3,2.1c-0.1,0.6,0,1.3-0.1,1.9c0,0.2-0.1,0.5-0.1,0.7c0,0.2,0,0.4,0,0.6c0,0.3,0,0.6,0,0.9c0,0,0,0.1,0,0.1
		c-0.3,0.2-0.3,0.6-0.4,1c0,0,0,0.1,0,0.1c-0.3,0.1-0.4,0.5-0.7,0.7c-0.1,0.1-0.2,0.2-0.3,0.3c-0.3,0.6-0.5,0.7-1.2,0.6
		c-0.5-0.1-1-0.8-0.9-1.3c0,0,0.1,0,0.1,0c0.2,0.6,0.4,0.7,0.9,0.3c0.5-0.4,0.9-0.8,1.2-1.3c0.3-0.5,0.5-1.2,0.5-1.8
		c-0.1-1,0.2-1.9,0.3-2.9c0-0.8,0.1-1.6,0.2-2.4c0-0.2,0.1-0.5,0.1-0.7c0-0.6,0-1.1-0.6-1.3c0.3-0.6,0.1-1.1,0.1-1.7
		c0-0.7-0.1-1.5-0.1-2.2c0-0.3,0.1-0.6,0.2-1c-0.2-0.3-0.5-0.6-0.8-1c-0.3,0.5-0.6,1-0.9,1.5c0,0,0.1,0.1,0.1,0.1
		c0.1,0,0.2-0.1,0.4-0.1c0,0.2-0.2,0.3-0.5,0.3c-0.6,0-0.8,0.2-0.7,0.8c0,0.2,0,0.5,0,0.7c0,0-0.1,0-0.1,0c-0.1-0.3-0.2-0.7-0.3-1
		c0,0-0.1,0-0.1,0c-0.1,0.2-0.2,0.4-0.3,0.6c-0.4,0.8-0.8,1.6-1.2,2.4c-0.2,0.4-0.4,0.8-0.5,1.2c-0.1,0.1-0.1,0.3-0.2,0.3
		c-0.3,0.3-0.4,0.7-0.5,1c-0.1,0.2-0.1,0.4-0.3,0.6c-0.1,0.1-0.1,0.4-0.1,0.6c0,0.2,0,0.4-0.2,0.5c-0.1,0-0.1,0.2-0.1,0.3
		c0,0.2,0,0.4-0.1,0.7c0,0-0.1,0-0.1,0c-0.1-0.1-0.1-0.2-0.2-0.3c0,0-0.1,0-0.1,0c-0.1,0.6-0.2,1.1-0.2,1.7c0.1,0,0.2,0,0.4,0
		c-0.1,0.1-0.2,0.2-0.3,0.2c-0.4-0.1-0.9,0.1-1.2-0.4c0-0.1-0.1-0.1-0.2-0.2c-0.3-0.2-0.3-0.5,0-0.6c0.5-0.2,0.6-0.7,0.9-1
		c0,0,0,0-0.1-0.1c-0.1,0-0.2,0-0.3,0.1c0,0,0,0-0.1-0.1c0.2-0.3,0.4-0.6,0.7-0.9c-0.1,0-0.1-0.1-0.2-0.2c0.2-0.3,0.4-0.5,0.6-0.8
		c0.1-0.2,0.2-0.3-0.1-0.3c0.3-0.3,0.5-0.6,0.7-1c0.1-0.1,0.2-0.3,0-0.3c0.9-1.4,1.8-2.9,2.7-4.3c0,0-0.1-0.1-0.1-0.1
		c-0.1,0.1-0.3,0.1-0.4,0.2c-0.1,0.1-0.3,0.2-0.4,0.3c0.1-0.5,0.8-0.6,0.6-1.3c-0.3,0.1-0.7,0.1-1,0.2c-0.4,0.2-0.8,0.5-1.1,0.8
		C34,53.4,34,54,33.9,54.7c0,0.1,0,0.2,0,0.3c-0.1,0.3-0.1,0.5,0.2,0.6c-0.2,0.2-0.4,0.2-0.6,0.1c-0.3-0.1-0.6-0.3-0.9-0.4
		c-0.1,0-0.2,0-0.2,0c-0.3,0.2-0.6,0.5-0.9,0.7c-0.5,0.3-1,0.5-1.5,0.8c-0.4,0.2-0.7,0.4-1.1,0.6c-0.5,0.3-1.1,0.1-1.4-0.3
		c-0.2-0.3-0.2-0.6,0.1-0.7c0.8-0.4,1.6-0.9,2.3-1.5c0.4-0.3,0.7-0.6,0.9-1c0.1-0.2,0.1-0.3-0.1-0.4c-0.2-0.1-0.4-0.2-0.6-0.3
		c-0.3-0.2-0.6-0.4-1-0.6c-0.2-0.1-0.3-0.1-0.3,0.1c-0.1,0.3-0.1,0.5-0.1,0.8c0,0.4,0,0.9,0,1.3c0,0-0.1,0-0.1,0
		c0-0.3-0.1-0.6-0.1-0.8c0-0.1,0-0.3-0.1-0.4c-0.1-0.2-0.2-0.2-0.4-0.1c-0.2,0.1-0.4,0.6-0.3,0.8c0,0.2,0.1,0.4,0.1,0.5
		c0,0.1,0,0.2,0,0.4c0,0-0.1,0-0.1,0c-0.1-0.2-0.1-0.3-0.2-0.6c-0.1,0-0.1,0.1-0.2,0.2c-0.5,0.8-0.8,1.7-1.4,2.4
		c-0.7,1.1-0.9,2.3-0.9,3.5c0,0.2,0,0.4-0.3,0.5c0,0-0.1,0.1-0.1,0.2c0.1,0.3,0.1,0.6,0.3,0.9c0.1,0.1,0.3,0.2,0.5,0.3
		c-0.1,0.2-0.3,0.2-0.5,0.1c-0.3-0.1-0.7-0.3-1-0.5c-0.3-0.1-0.3-0.4-0.3-0.7c0.1-0.6,0.2-1.2,0.3-1.7c0-0.1,0-0.2,0-0.3
		c0-0.1-0.1-0.2,0-0.2c0.4-0.5,0.1-1.3,0.7-1.8c0.1-0.1,0.1-0.2,0.1-0.3c0-0.4,0.3-0.7,0.5-1c0.2-0.3,0.4-0.6,0.6-0.9
		c0.1-0.2,0.1-0.5-0.1-0.7c-0.2-0.2-0.4-0.2-0.6-0.1c-0.2,0.1-0.4,0.1-0.6-0.1c0.1-0.1,0.2-0.1,0.3-0.2c-0.3-0.3-0.7-0.5-1-0.7
		c-0.3-0.2-0.4-0.1-0.4,0.2c0,0.2,0,0.3,0,0.5c0,0.1,0,0.3,0,0.4c0,0-0.1,0-0.1,0c0-0.2-0.1-0.3-0.1-0.5c0-0.3,0-0.6,0-0.8
		c0-0.1,0-0.2-0.1-0.2c-0.8-0.8-1.1-1.9-1.4-2.9c-0.1-0.6-0.3-1.2-0.4-1.8c0-0.6-0.3-1.1-0.5-1.6c-0.3-0.8-0.5-1.7-0.6-2.6
		c0-0.3-0.1-0.5-0.4-0.5c-0.3,0-0.5-0.1-0.8,0c-0.5,0.1-1.1,0-1.6-0.1c-0.1,0-0.2,0-0.3,0c-1.2,0.2-2.3,0.4-3.5,0.6
		c-1.1,0.2-2.2,0.4-3.3,0.6c-0.6,0.1-1.1,0.3-1.6,0.5c-0.5,0.2-1.1,0.3-1.6,0.6c-0.4,0.2-0.8,0.4-1.2,0.6c-0.5,0.3-1,0.5-1.5,0.7
		c-0.1,0-0.3,0-0.4,0c-0.1-0.1-0.1-0.3,0-0.4c0.3-0.6,0.8-1.1,1.4-1.4C6.2,45,7,44.7,7.8,44.4C8.4,44.1,9,44,9.7,43.8
		c1-0.2,2-0.4,3-0.6c0.6-0.1,1.2-0.2,1.8-0.2c1-0.1,2-0.1,3-0.2c0.4,0,0.9-0.2,1.3-0.2c0.5,0,1,0,1.6,0c0.1-0.1,0.2-0.3,0.3-0.5
		c-0.1,0-0.2-0.1-0.3-0.1c0,0,0-0.1,0-0.1c0.4,0,0.5-0.3,0.6-0.5c0.4-0.6,0.9-1.1,1.5-1.5c0.1-0.1,0.3-0.1,0.4-0.1
		c0-0.1-0.1-0.2-0.2-0.4c0.3,0.1,0.5,0.1,0.7,0.2c0-0.1,0-0.2,0-0.4c0.1,0.2,0.2,0.3,0.3,0.4c0,0,0,0,0.1,0c0-0.1-0.1-0.2-0.1-0.3
		c0.1-0.2,0.3-0.3,0.5-0.5c0.1,0.1,0.2,0.3,0.3,0.5c0,0,0,0,0.1,0c0-0.2-0.1-0.3-0.1-0.5c0,0,0,0,0.1-0.1c0.1,0.1,0.2,0.2,0.3,0.4
		c0.1-0.2,0.1-0.3,0.2-0.5c0.1,0.3,0.1,0.5,0.2,0.7c0,0,0.1,0,0.1,0c0.1-0.4,0.2-0.8,0.2-1.2c0,0.3,0.1,0.6,0.1,0.8
		c0,0.3,0.2,0.5,0.5,0.5c0.1,0,0.2,0.2,0.2,0.3c0.2,0,0.3-0.1,0.4-0.1c0-0.2,0-0.5,0.1-0.8c0,0,0.1,0,0.1,0c0,0.2,0,0.4,0,0.7
		c0.3-0.3,0.1-0.6,0.2-1c0,0.2,0.1,0.4,0.1,0.6c0,0,0.1,0,0.1,0c0-0.2,0.1-0.3,0.1-0.5c0.1-0.3,0.2-0.7,0.2-1.1
		c0,0.2,0.1,0.4,0.1,0.5c0.3-0.3,0.5-0.6,0.7-0.9c0,0,0,0,0.1,0c0-0.1,0-0.2,0-0.3c0.1-0.1,0.4,0,0.5,0.3c0-0.2,0.1-0.4,0.1-0.5
		c0,0,0.1,0.1,0.2,0.1c0-0.2,0-0.4-0.1-0.6c0.1,0.1,0.2,0.2,0.3,0.3c0.1-0.1,0.1-0.2,0.2-0.3c0.3,0.1,0.6-0.1,0.8-0.5
		c0.1,0.1,0.1,0.1,0.2,0.2c0.1-0.1,0.3-0.1,0.4-0.2c0.1-0.1,0.1-0.3,0.1-0.5c0.1,0.2,0.2,0.3,0.4,0.5c0-0.2,0-0.3,0-0.6
		c0.2,0.1,0.3,0.2,0.4,0.3c0-0.1,0.1-0.2,0.2-0.3c0.1,0.1,0.1,0.2,0.1,0.2c0.4,0,0.7-0.1,1.1-0.1c0-0.1,0-0.2,0.1-0.4
		c0.2,0.2,0.3,0.4,0.5,0.6c0-0.1,0-0.3,0.1-0.3c0.3-0.1,0.8,0.1,1-0.3c0,0.1,0.1,0.1,0.1,0.2c0.2-0.1,0.3-0.1,0.5-0.2
		c0.1,0.1,0.1,0.2,0.2,0.4c0.1-0.1,0.2-0.2,0.3-0.4c0.1,0.1,0.2,0.3,0.3,0.5c0.1-0.1,0.2-0.2,0.2-0.3c0.1,0.1,0.1,0.1,0.2,0.2
		c0-0.1,0-0.3,0-0.4c0,0,0,0,0.1,0c0,0.1,0,0.2,0.1,0.2c0.2,0.1,0.3,0.2,0.4,0.3c0-0.2,0-0.4,0-0.5c0,0,0,0,0.1,0
		c0.1,0.2,0.2,0.4,0.3,0.6c0.1-0.1,0.1-0.3,0.2-0.5c0.1,0.1,0.1,0.2,0.1,0.3c0-0.1,0-0.2,0.1-0.4c0.1,0,0.2,0,0.3,0.1
		c0,0.2,0,0.5,0.1,0.7c0,0,0.1,0,0.1,0c0.1-0.2,0.2-0.5,0.3-0.7c0,0,0,0,0,0c0,0.2,0,0.5,0,0.7c0,0.2,0.2,0.3,0.4,0.4
		c0.1-0.1,0.2-0.2,0.3-0.4c0,0.2,0,0.3,0,0.5c0.6-0.3,1.1-0.6,1.6-0.9c1.3-0.8,2.5-1.6,3.7-2.4c1.1-0.7,2.3-1.4,3.4-2.1
		c1.3-0.8,2.6-1.7,3.9-2.6c1.4-0.9,2.8-1.8,4.3-2.7c0.4-0.3,0.8-0.6,1.2-0.8c0.9-0.4,1.9-0.8,2.8-1.3c1-0.4,2-0.8,3-1
		c0.7-0.1,1.3-0.2,2-0.2l0.2,0l5.3,0.4l1.6,1.2l-0.2,2L72.1,27.2z"/>
	<path class="pest-search__item-icon" d="M42.3,43c0.2,0.5,0.4,1.1,0.6,1.6c0,0.1,0.2,0.1,0.3,0.2c0.1-0.1,0.1-0.2,0.2-0.3c0.1-0.2,0.1-0.5,0.2-0.7
		c0.1-0.2,0.2-0.3,0.2-0.5c0-0.5,0.3-0.8,0.5-1.1c0.1-0.1,0.1-0.2,0.2-0.3c-0.1,0-0.2-0.1-0.3-0.1c-0.5,0-1-0.1-1.5-0.1
		c-0.2,0-0.4,0.3-0.4,0.5C42.3,42.4,42.4,42.7,42.3,43C42.4,42.9,42.3,42.9,42.3,43z"/>
	<path class="pest-search__item-icon" d="M35.7,49.3c-0.7,0.2-1.2,0.3-1.8,0.4c-0.1,0-0.2,0.2-0.2,0.2c0.1,0.6,0,1.2-0.5,1.7c-0.1,0.1,0,0.3,0.1,0.4
		c0.1,0,0.2,0,0.3-0.1c0.3-0.2,0.5-0.5,0.8-0.7c0.1-0.1,0.2-0.2,0.3-0.4c0.2-0.5,0.5-0.7,1-0.7c0.2,0,0.3-0.1,0.3-0.3
		C35.9,49.6,36,49.3,35.7,49.3z"/>
</g>
</svg>
