<?xml-stylesheet type="text/css" href="/CMS_Themes/Default/Css/pest-icons.css" ?>
<svg version="1.1" id="Layer_1" xmlns="http://www.w3.org/2000/svg" viewBox="0 0 82.3 82.3" width="100%" height="100%">
<path class="pest-search__item-icon" d="M41.2,0C18.4,0,0,18.4,0,41.2s18.4,41.2,41.2,41.2s41.2-18.4,41.2-41.2S63.9,0,41.2,0z M67.9,42
	c-2.3,1.2-4.8,1.9-7.4,2.4c-3.2,0.7-6.5,0.9-9.7,1.7c-1,0.2-2.1,1.4-2.6,2.4C47,50.7,46,53,45.1,55.3c-0.6,1.5-1.1,3.1-1.7,4.7
	c-0.3,0.8-0.5,1.7-1,2.2c-2.3,1.9-4.2,1.6-5.4-1.1c1.1-1.1,2.2-2.1,3.8-3.7c-3.3-0.5-5.6-0.7-7.8-1.2c-1.8-0.4-3.2-0.1-5,0.8
	c-2.9,1.5-6.1,2.3-9.2,3.1c-0.9,0.2-2.1-0.5-3.1-0.7c0-0.4,0-0.8,0-1.2c3.9-1.2,7.7-2.5,11.6-3.7c0-0.4,0-0.7-0.1-1.1
	c-3.7-0.8-7.3-1.5-11-2.3c-0.8-0.2-1.6-0.8-2.4-1.3c-0.7-0.5-1.2-1.6-1.9-1.7c-2.4-0.4-2.4-2.1-2-3.7c0.6-2.1,1.4-4.2,2.3-6.2
	c1.5-3.3,3.7-6.3,2.7-10.5c-0.6-2.5,0.7-5.2,2.9-7.7c1.2,2.9,2.2,5.3,3.5,8.4c1.9-0.8,4.1-1.2,5.5-2.5c1.7-1.5,3.1-3.7,5.5-2.9
	c1.5,0.5,2.5,2.5,3.7,3.9c9.8,1.5,11.1,9.5,12.3,17.5c2.2-0.3,4.3-0.7,6.4-1c2.1-0.3,4.3-0.3,6.3-0.8c2.5-0.7,5-1.4,7.2-2.8
	c3.3-2,4.2-5.9,2.8-9.4c-1.4-3.5-4.4-5.1-8.4-4.6c-1.1,0.2-2.2,0.4-3.7,0.6c5.7-2.9,10.6-1.6,13,3.1C74.4,34.1,72.8,39.4,67.9,42z"
	/>
</svg>
