<?xml-stylesheet type="text/css" href="/CMS_Themes/Default/Css/pest-icons.css" ?>
<svg version="1.1" id="Layer_1" xmlns="http://www.w3.org/2000/svg" viewBox="0 0 82.3 82.3" width="100%" height="100%">
<path class="pest-search__item-icon" d="M41.2,0C18.4,0,0,18.4,0,41.2c0,22.7,18.4,41.2,41.2,41.2c22.7,0,41.2-18.4,41.2-41.2C82.3,18.4,63.9,0,41.2,0z
	 M69.1,24.5c-1,0.1-2,0.3-3,0.2c-1.1-0.1-2.5-0.3-3,0.8c-0.9,1.9-2.2,2.4-4.1,2c0,0-0.1,0.1-0.2,0.3c3.2,2.1,2.8,6.1,4.6,8.9
	c0.9-0.2,1.7-0.3,2.5-0.5c0-0.6,0.1-1.3,0.1-2.2c1.1,2.4,0.6,4.1-1,4.8c-1.4,0.7-2.8,0.4-3.9-0.5c-1.1-1-1.6-2.4-1.2-3.8
	c0.4-1.4-0.2-1.8-1.4-2c-0.1,0.3-0.2,0.6-0.2,0.7c0.3,1.1,0.7,2.1,0.9,3.1c0.1,0.8-0.3,1.6-0.4,2.4c-0.7-0.2-1.4-0.3-2-0.7
	c-0.6-0.4-1-1.1-1.7-2c-1,2.7-3.8,3.7-4.1,6.5c0,0.4-0.2,0.8-0.5,1c-1.3,0.8-1.1,2.1-1.3,3.2c-0.2,1-0.6,1.5-1.6,1.7
	c-0.4,0.1-0.7,0.5-0.9,0.8c-0.4,0.6-0.6,1.3-0.8,1.8c0.1,0.5,0.3,1.1,0.2,1.3c-0.8,1.5-2.2,1.5-3.5,0.9c-0.3,1.2-0.5,2.3-0.7,3.3
	c-0.5,2-2.7,2.9-4.5,1.7c-0.2-0.1-0.5-0.2-1-0.3c0.5,3-1.2,4.6-3.3,5.9c-1.1,0.7-2.1,0.5-3-0.4c-1.4-1.4-1.8-1.2-2.6,0.6
	c-0.7,1.5-1.7,2-3.3,2.1c-1.2,0.1-2.4,0.3-3.6,0.7c-1.4,0.4-2.8,1.2-3.9,0c-1.2-1.1-0.4-2.5,0-3.9c0.3-1.2,0.6-2.4,0.7-3.6
	c0.1-1.6,0.6-2.6,2.1-3.3c1.8-0.8,1.9-1.2,0.6-2.6c-0.9-0.9-1.1-1.9-0.4-3c1.3-2.1,2.9-3.8,5.9-3.3c-0.1-0.5-0.1-0.8-0.3-1
	c-1.2-1.7-0.3-4,1.7-4.5c1-0.2,2.1-0.4,3.3-0.7c-0.6-1.4-0.6-2.7,0.9-3.5c0.3-0.2,0.8,0.1,1.3,0.2c0.5-0.2,1.2-0.4,1.8-0.8
	c0.4-0.2,0.8-0.6,0.8-0.9c0.2-1,0.7-1.4,1.7-1.6c1.1-0.2,2.5,0,3.2-1.3c0.2-0.3,0.6-0.5,1-0.5c2.8-0.3,3.9-3.1,6.5-4.1
	c-0.9-0.7-1.5-1.1-2-1.7c-0.4-0.6-0.5-1.3-0.7-2c0.8-0.2,1.6-0.5,2.4-0.4c1.1,0.1,2.1,0.6,3.1,0.9c0.2,0.1,0.4-0.1,0.7-0.2
	c-0.2-1.3-0.6-1.8-2-1.4c-1.4,0.4-2.8-0.1-3.8-1.2c-0.9-1.1-1.2-2.5-0.5-3.9c0.8-1.7,2.4-2.1,4.8-1c-0.9,0.1-1.6,0.1-2.2,0.1
	c-0.2,0.9-0.3,1.7-0.5,2.5c2.9,1.7,6.8,1.4,8.9,4.6c0.2-0.1,0.3-0.2,0.3-0.2c-0.5-1.9,0.1-3.2,2-4.1c1.1-0.5,0.9-1.9,0.8-3
	c0-1,0.1-2,0.2-3c0-0.3,0.4-0.5,0.6-0.7c0.2,2.1,0.3,4.1,0.4,5.7c1.5,0,2.9-0.5,3.7,0l0,0c0,0,0,0,0,0c0,0,0,0,0,0c0,0,0,0,0,0
	c0,0,0,0,0,0l0,0c0.5,0.8,0,2.2,0,3.7c1.6,0.1,3.6,0.3,5.7,0.4C69.6,24.1,69.4,24.5,69.1,24.5z"/>
</svg>
