<?xml-stylesheet type="text/css" href="/CMS_Themes/Default/Css/pest-icons.css" ?>
<svg version="1.1" id="Layer_1" xmlns="http://www.w3.org/2000/svg" viewBox="0 0 82.3 82.3" width="100%" height="100%">
<path class="pest-search__item-icon" d="M41.2,0C18.4,0,0,18.4,0,41.2s18.4,41.2,41.2,41.2s41.2-18.4,41.2-41.2S63.9,0,41.2,0z M67.7,51.9
	c-0.7,0.1-1.2,1.2-1.9,1.7c-0.7,0.5-1.5,1.1-2.4,1.3c-3.6,0.8-7.3,1.6-11,2.3c0,0.4,0,0.7-0.1,1.1c3.9,1.2,7.7,2.5,11.6,3.7
	c0,0.4,0,0.8,0,1.2c-1,0.3-2.2,1-3.1,0.7c-3.1-0.8-6.3-1.7-9.2-3.1c-1.7-0.9-3.2-1.2-5-0.8c-2.2,0.5-4.5,0.7-7.8,1.2
	c1.7,1.6,2.7,2.6,3.8,3.7c-1.2,2.7-3.1,2.9-5.4,1.1c-0.6-0.5-0.8-1.4-1-2.2c-0.6-1.6-1-3.2-1.7-4.7c-1-2.3-1.9-4.6-3.1-6.8
	c-0.6-1-1.6-2.2-2.6-2.4c-3.2-0.8-6.5-1-9.7-1.7c-2.5-0.6-5.1-1.2-7.4-2.4C6.9,43.3,5.3,38,7.7,33.3c2.4-4.7,7.3-5.9,13-3.1
	c-1.5-0.3-2.6-0.5-3.7-0.6c-4-0.6-6.9,1-8.4,4.6c-1.5,3.6-0.5,7.4,2.8,9.4c2.2,1.3,4.7,2.1,7.2,2.8c2,0.5,4.2,0.5,6.3,0.8
	c2.1,0.3,4.2,0.6,6.4,1c1.2-8,2.5-15.9,12.3-17.5c1.2-1.3,2.2-3.4,3.7-3.9c2.4-0.8,3.8,1.4,5.5,2.9c1.4,1.3,3.6,1.6,5.5,2.5
	c1.3-3,2.3-5.5,3.5-8.4c2.2,2.5,3.5,5.1,2.9,7.7c-1,4.2,1.2,7.2,2.7,10.5c0.9,2,1.8,4.1,2.3,6.2C70.1,49.8,70.1,51.5,67.7,51.9z"/>
</svg>
