<?xml-stylesheet type="text/css" href="/CMS_Themes/Default/Css/pest-icons.css" ?>
<svg version="1.1" id="Layer_1" xmlns="http://www.w3.org/2000/svg" viewBox="0 0 82.3 82.3" width="100%" height="100%">
<path class="pest-search__item-icon" d="M41.2,0C18.4,0,0,18.4,0,41.2c0,22.7,18.4,41.2,41.2,41.2c22.7,0,41.2-18.4,41.2-41.2C82.3,18.4,63.9,0,41.2,0z
	 M64.7,59.1c-0.6-0.2-1.3-0.3-1.8-0.6c-4-1.8-7.9-3.9-11.3-6.7c-1-0.8-2.3-1.2-3.6-1.6c-0.9-0.4-1.1,0.1-1.1,1
	c0.2,3.3,0.3,6.6-1.5,9.6c-1.5,2.5-3.7,4-6.6,3.9c-3.4-0.1-6.2-1.5-7.7-4.7c-1.2-2.5-1.3-5.2-0.9-7.9c0.1-0.5,0.2-1,0.3-1.4
	c-0.1-0.1-0.2-0.2-0.4-0.3c-1.1,0.7-2.3,1.4-3.3,2.2c-3,2.6-5.8,5.3-8.7,7.9c-0.3,0.2-0.5,0.4-0.8,0.6c-0.1-0.1-0.3-0.2-0.4-0.2
	c0.5-0.8,0.9-1.7,1.5-2.5c2.7-3.4,5.4-6.7,9.2-9c0.7-0.4,1.5-0.8,2.3-1c1.9-0.5,2-0.5,2.1-2.5c0.1-0.7,0-1.5,0.2-2.2
	c0.3-1.1,0-1.8-1-2.3c-4-2-6.8-5.2-8.6-9.3c-0.2-0.4-0.2-0.9-0.1-1.5c3,3.8,6.4,7.1,10.7,9.3c0.8-0.7,1.4-1.6,0.4-2.4
	c-2.5-2.1-3.3-5.1-3.8-8.1c-0.4-1.9-0.6-3.8-0.8-5.7c0-0.4,0.1-0.8,0.4-1.2c2.4,4.5,3,9.8,6.3,13.8c0.2,0,0.3-0.1,0.5-0.1
	c-0.3-1.2-0.5-2.5-0.9-3.6c-0.6-1.9-1.5-3.7-2.1-5.6c-1.3-4.1-3.1-7.9-5.5-11.5c-0.5-0.8-0.6-1.4,0.9-1.8c1.8,3,3.9,6,5.6,9.3
	c1.2,2.3,1.8,4.8,2.7,7.2c0.5,1.2,1.1,2.4,1.9,3.5c0.1-0.9,0.3-1.8,0.5-2.6c0.2-0.8,0.4-1.6,0.8-2.3c0.1-0.3,0.6-0.4,1-0.6
	c0.1,0.3,0.1,0.6,0.2,1c0,0.3,0,0.6,0.1,0.9c0.1,0,0.3,0,0.4,0c0.1-0.4,0.1-0.7,0.3-1.1c0.1-0.3,0.3-0.5,0.5-0.7
	c0.2,0.2,0.7,0.4,0.7,0.7c0.1,1.2,0.1,2.4,0.1,3.5c0,0.6-0.1,1.3,0.1,2c0.8-1.1,1.8-2.1,2.3-3.3c1.8-4.5,4.8-8,8.3-11.1
	c0.9-0.8,1.8-1.6,2.8-2.5c0.2,0.2,0.5,0.4,0.7,0.7c0.2-0.3,0.4-0.5,0.6-0.9c0,0.2,0.1,0.3,0.1,0.4c-0.2,0.4-0.4,0.7-0.6,1
	c-1.9,2.2-3.8,4.4-5.7,6.6c-0.8,1-1.4,2.1-2.1,3.2c-1.3,2.1-2.5,4.3-3.7,6.5c-0.3,0.6-0.3,1.3-0.6,2.3c2.6-1.7,3.3-4.2,4.7-6.3
	c1.4-2.1,2.5-4.3,3.8-6.5c0.1,0.1,0.3,0.1,0.4,0.2c0,0.5,0,1-0.1,1.4c-1.3,3.4-2.6,6.8-4.1,10.1c-0.3,0.8-1.2,1.4-1.9,1.9
	c-0.9,0.7-1.4,1.5-1.3,2.7c0,0.1,0,0.2,0,0.3c0,0.6-0.3,1.6-0.1,1.7c0.7,0.3,1.5,0.4,2.2,0.4c3.3,0,6.6-0.1,9.8-1
	c0.5-0.1,0.9-0.2,1.4-0.3c0.1,0.1,0.1,0.2,0.2,0.4c-1.7,0.9-3.4,2.1-5.2,2.5c-2.3,0.5-4.8,0.4-7.1,0.6c-0.3,0-0.9,0.2-1,0.5
	c-0.2,0.4-0.2,1.1,0,1.4c0.4,0.5,1.1,1.1,1.7,1.2c2.7,0.6,4.6,2.3,6.7,3.9c2.5,1.8,5.1,3.5,7.7,5.2c0.6,0.4,1.1,0.8,1.7,1.2
	C64.8,58.9,64.7,59,64.7,59.1z"/>
</svg>
