<?xml-stylesheet type="text/css" href="/CMS_Themes/Default/Css/pest-icons.css" ?>
<svg version="1.1" id="Layer_1" xmlns="http://www.w3.org/2000/svg" viewBox="0 0 82.3 82.3" width="100%" height="100%">
<g>
	<path fill="#102e52" class="pest-search__item-icon" d="M50.1,33.1C50.1,33.1,50.1,33.1,50.1,33.1c0.1-0.4,0.2-0.9,0.3-1.4c0,0,0,0-0.1,0
		C50.2,32.2,50.1,32.7,50.1,33.1z"/>
	<path fill="#102e52" class="pest-search__item-icon" d="M49.2,22.7c0.1-0.2,0.1-0.5,0.2-0.7c-0.2,0.2-0.3,0.4-0.4,0.6C49,22.6,49.1,22.6,49.2,22.7z"/>
	<path fill="#102e52" class="pest-search__item-icon" d="M45.3,33.6c-0.3,0.4-0.2,0.6,0.1,1c0.1-0.1,0.1-0.2,0.1-0.3c0.2-0.4,0.4-0.9,0.7-1.3c0.4-0.5,0.5-1,0.5-1.7
		c-0.1,0.1-0.1,0.2-0.2,0.2C46.2,32.2,45.8,32.9,45.3,33.6z"/>
	<path fill="#102e52" class="pest-search__item-icon" d="M46.1,30.6c-0.3,0.8-0.9,1.3-1.7,1.5c0.1,0.3,0.3,0.6,0.4,0.9c0.5-0.8,0.9-1.6,1.4-2.4
		C46.1,30.7,46.1,30.7,46.1,30.6z"/>
	<path fill="#102e52" class="pest-search__item-icon" d="M42.8,25.6c-1.3-0.3-2.6-0.6-3.9-0.9c-0.2,0-0.3,0-0.4,0.1c-0.3,0.5-0.7,1-1,1.5c-0.4,0.6-0.9,1.2-1.3,1.8
		c-0.5,0.6-1,1.1-1.6,1.7c-0.2,0.2-0.4,0.4-0.7,0.6c0.6-0.1,1.3,0,1.7-0.7c0.8-0.6,1.7-0.9,2.7-0.9c0.1,0,0.2,0,0.3-0.1
		c0.3-0.1,0.5-0.3,0.7-0.4c0.1-0.1,0.2-0.2,0.3-0.4c0.3-0.4,0.5-0.9,0.8-1.3c0.1-0.2,0.4-0.3,0.6-0.1c0.3,0.2,0.5,0.4,0.7,0.7
		c0.3,0.4,0.5,0.5,1,0.3c0.2-0.1,0.5-0.2,0.7-0.3c1-0.3,2-0.3,3-0.1c0.2,0,0.3,0,0.4-0.2c0.1-0.2,0.2-0.3,0.3-0.4
		c-0.1,0-0.1,0-0.2-0.1C45.6,26.2,44.2,25.9,42.8,25.6z"/>
	<path fill="#102e52" class="pest-search__item-icon" d="M41.2,0C18.4,0,0,18.4,0,41.2s18.4,41.2,41.2,41.2c22.7,0,41.2-18.4,41.2-41.2S63.9,0,41.2,0z M76,31.8
		c-0.4,0.2-0.8,0.3-1.1,0.5c-1.2,0.5-2.4,1.1-3.6,1.6c-0.8,0.3-1.6,0.7-2.5,1c-1,0.4-2,0.8-3.1,1.2c-1,0.4-2,0.7-3,1
		c-1,0.4-2,0.7-3,1.1c-0.3,0.1-0.6,0.2-0.9,0.3c-0.3,0.1-0.4,0.3-0.4,0.6c0.4,0,0.8,0,1.2,0.1c1.3,0.1,2.6,0.3,3.9,0.4
		c1.8,0.1,3.6,0.3,5.3,0.3c1.7,0,3.4-0.1,5.1-0.1c0.3,0,0.6,0,0.9,0c0,0,0,0.1,0,0.1c-0.2,0.1-0.3,0.1-0.5,0.2c-0.5,0-1,0.1-1.5,0.1
		c-2.8,0-5.6-0.1-8.4-0.2c-1,0-2.1-0.2-3.1-0.3c-1-0.1-2-0.2-3-0.2c-0.1,0-0.3,0.1-0.5,0.3c0.2,0.1,0.3,0.2,0.3,0.3
		c0.8,0.7,1.7,1.5,2.5,2.2c0.5,0.4,1,0.9,1.5,1.3c0.6,0.6,1.3,1.2,1.9,1.7c0.9,0.7,1.9,1.4,2.9,2.1c0.6,0.4,1.3,0.7,2.1,0.4
		c0.3-0.1,0.6-0.1,0.9-0.1c0,0.3-0.3,0.5-0.7,0.6c-0.5,0.1-0.9,0.1-1.4-0.1c-0.8-0.3-1.6-0.6-2.3-1.1c-0.9-0.7-1.8-1.3-2.7-1.9
		c-0.6-0.5-1.1-1-1.7-1.4c-0.5-0.4-1.1-0.9-1.7-1.3c-0.3-0.3-0.6-0.5-1-0.8c-0.4-0.3-0.9-0.7-1.3-1c-0.2,0.9,0.2,2.1,1.7,3
		c-0.3,0-1.2-0.2-1.6-0.4c-0.2-0.1-0.4-0.3-0.6-0.4c-0.5-0.4-0.7-0.9-0.8-1.5c0-0.2-0.1-0.3-0.3-0.3c-0.4-0.2-0.7-0.4-1-0.6
		c-0.2-0.2-0.4-0.1-0.6,0c0,0-0.1,0.1-0.1,0.2c0,0.5,0.1,0.9,0.2,1.4c0,0.2,0.3,0.3,0.5,0.4c1,0.6,2,1.2,2.7,2.1
		c0.4,0.5,0.5,1.1,0.6,1.7c0.1,0.7,0.2,1.4,0.4,2.1c0.1,0.5,0.4,1,0.6,1.6c0.1,0.2,0.2,0.3,0.3,0.6c-0.5-0.1-0.8-0.4-0.9-0.8
		c-0.4-1-0.7-1.9-1.1-2.9c-0.1-0.3-0.1-0.6-0.2-0.9c-0.1-0.4-0.3-0.8-0.6-1c-0.8-0.6-1.5-1.2-2.3-1.8c0,0.6-0.1,1.1-0.1,1.6
		c0,0.1,0.1,0.1,0.1,0.2c0.5,0.9,1.1,1.8,1.6,2.7c0.3,0.6,0.6,1.2,0.9,1.8c0.5,0.9,0.9,1.8,1.4,2.7c0.4,0.8,0.8,1.7,1.3,2.5
		c0.5,0.8,1.1,1.6,1.7,2.4c0.1,0.2,0.3,0.3,0.5,0.5c0.3,0.3,0.8,0.4,1.2,0.4c0.3,0,0.5,0.1,0.8,0.2c-0.3,0.2-0.7,0.3-1,0.2
		c-0.5-0.1-0.9-0.4-1.3-0.7c-0.7-0.6-1.3-1.4-1.8-2.2c-0.5-0.7-0.9-1.4-1.3-2.1c-0.3-0.5-0.6-1-0.9-1.5c-0.4-0.7-0.8-1.4-1.2-2.1
		c-0.3-0.5-0.5-1-0.8-1.4c-0.4-0.6-0.8-1.2-1.1-1.8c-0.2-0.3-0.3-0.7-0.5-0.9c-0.5-0.7-0.5-1.5-0.5-2.3c0-0.6-0.1-1.2-0.7-1.6
		c-0.1-0.1-0.2-0.2-0.2-0.3c-0.3-0.3-0.2-0.8,0.1-1.1c0.1-0.1,0.2-0.2,0.3-0.2c0.4-0.1,0.4-0.4,0.4-0.7c0-1.1,0-2.2,0-3.3
		c0-0.7-0.2-1.4-0.6-2c-0.1,0.2-0.3,0.3-0.4,0.5c-0.6,0.9-1.3,1.6-2.2,2.3c-0.4,0.3-0.6,0.2-0.7-0.2c-0.2-0.6-0.1-1.1,0.1-1.6
		c0-0.1,0-0.1,0-0.2c-0.1,0.3-0.2,0.5-0.4,0.8c0,0.1-0.1,0.2-0.2,0.3c-0.3,0.3-0.6,0.2-0.8-0.2c-0.1-0.4-0.2-0.8-0.3-1.2
		c0-0.1,0-0.2-0.1-0.4c-0.3,0.3-0.6,0.6-0.8,0.9C47.1,35,47,35.2,47,35.3c-0.3,1.2-0.6,2.4-0.9,3.5c-0.3,1-0.5,2.1-0.8,3.1
		C45,42.7,45,43.3,45.1,44c0.1,1,0,2.1,0.1,3.1c0,1.4,0,2.7,0.1,4.1c0.1,2.7,0.2,5.5,0.2,8.2c0,1.5-0.1,3.1-0.4,4.6
		c-0.2,0.9-0.4,1.7-1,2.4c-0.3,0.4-0.7,0.5-1.1,0.5c-0.2,0-0.3-0.1-0.1-0.3c0.2-0.2,0.3-0.4,0.5-0.5c0.9-0.5,1.2-1.3,1.3-2.3
		c0.3-1.5,0.3-3.1,0.3-4.6c-0.1-2.4-0.3-4.9-0.4-7.3c-0.2-2.6-0.4-5.2-0.3-7.7c0-1.3,0.3-2.6,0.7-3.9c0.4-1.4,0.8-2.9,1.2-4.3
		c0,0,0,0,0-0.1c-0.3,0.1-0.7,0.5-1,0.2c-0.3-0.2-0.5-0.5-0.8-0.8c0,0-0.1,0.1-0.1,0.1c-0.6,0.8-1.1,1.6-1.8,2.4
		c-0.6,0.7-1.3,1.4-2,2.1c-0.4,0.4-0.9,0.6-1.5,0.7c-0.4,0.1-0.6-0.2-0.9-0.4c-0.1,0-0.1-0.2-0.1-0.2c0-0.1,0.1-0.1,0.2-0.1
		c0.4,0,0.8,0,1.2,0.1c0.1,0,0.3,0,0.4-0.1c0.8-0.5,1.5-1.3,2.1-2.1c0.6-0.8,1.1-1.6,1.7-2.4c0,0,0-0.1,0.1-0.1
		c0.4-0.3,0.3-0.7,0-1.1c-0.3-0.4-0.5-0.9-0.7-1.4c0-0.1-0.1-0.1-0.1-0.2c-0.7,0.8-1.6,0.9-2.6,0.9c-0.2,0-0.3,0.1-0.4,0.2
		c-0.3,0.2-0.7,0.4-1.1,0.6c-0.1,0.1-0.3,0.2-0.3,0.3c-0.3,0.7-0.6,1.3-0.9,2c-0.6,1.2-1.1,2.5-1.8,3.7c-0.5,1-1.1,2-1.7,3
		c-0.5,0.8-1,1.5-1.6,2.2c-0.6,0.8-1.2,1.5-1.8,2.3c-0.4,0.6-0.8,1.2-1.3,1.7c-0.6,0.8-1.2,1.5-1.9,2.3c-0.4,0.5-0.8,0.9-1.1,1.4
		c-0.2,0.2-0.2,0.6-0.4,0.8c-0.4,0.8-0.9,1.5-1.6,2.1c-0.5,0.5-0.9,1-1.4,1.5c-0.6,0.6-1.2,1.1-1.8,1.7c-0.2,0.2-0.4,0.4-0.6,0.5
		c-0.8,0.7-1.6,1.4-2.4,2.1c-0.5,0.5-1,0.9-1.6,1.4c-0.5,0.4-1,0.8-1.5,1.3c-0.5,0.5-1.1,1-1.6,1.5c-0.1,0.1-0.3,0.3-0.5,0.4
		c-0.7,0.3-1.4,0.6-2.2,0.5c-0.4-0.1-0.8-0.3-1.1-0.8c0.6-0.2,1.2-0.4,1.7-0.6c0.7-0.3,1.5-0.6,2.2-0.9c1.5-0.8,2.8-2,4.1-3.1
		c0.6-0.5,1.2-1,1.7-1.6c0.8-0.8,1.6-1.5,2.3-2.3c1.3-1.4,2.6-2.8,3.9-4.3c0.2-0.2,0.3-0.4,0.4-0.6c0.2-0.3,0.3-0.6,0.5-0.9
		c0.5-0.8,1-1.5,1.6-2.3c0.6-0.8,1.2-1.7,1.8-2.5c0.4-0.5,0.8-1,1.2-1.5c0.5-0.6,0.9-1.2,1.4-1.8c0.5-0.6,1-1.2,1.7-1.7
		c0.1-0.1,0.2-0.2,0.2-0.3c0.5-1.4,1-2.8,1.5-4.2c0.3-0.9,0.7-1.7,1-2.6c0-0.1,0.1-0.2,0.1-0.3c-0.2,0-0.3,0-0.5,0
		c-0.1,0-0.2,0.1-0.2,0.1c-0.2,0.5-0.6,0.7-1.1,0.9c-0.5,0.2-1,0.2-1.5,0.3c-0.2,0-0.3,0.1-0.4,0.3c-0.1,0.5-0.6,0.9-1.2,0.9
		c-0.2,0-0.5,0-0.7,0c-0.1,0-0.3,0-0.3,0.1c-0.7,0.6-1.4,0.9-2.3,0.7c-0.7-0.1-0.9-0.6-0.9-1.2c0-0.7,0.4-1.3,0.9-1.7
		c0.3-0.2,0.5-0.5,0.8-0.7c0.1-0.1,0.1-0.2,0.1-0.3c-0.2,0.1-0.3,0.3-0.5,0.4c-0.3,0.2-0.5,0.4-0.8,0.7c-0.1,0.1-0.3,0.2-0.4,0.4
		c-0.3,0.2-0.5,0.4-0.8,0.6c-0.2,0.2-0.4,0.4-0.6,0.6c-0.3,0.3-0.6,0.7-1,1c-0.6,0.5-1.3,1-2,1.4c-0.8,0.5-1.6,1-2.4,1.4
		c-1,0.6-1.9,1.1-2.9,1.7c-0.9,0.5-1.8,1-2.8,1.5c-0.6,0.3-1.2,0.8-1.8,1.1c-0.9,0.5-1.9,0.7-2.9,0.4c-0.2-0.1-0.5-0.2-0.7-0.3
		c0,0,0-0.1,0-0.1c0.4-0.1,0.8-0.2,1.1-0.3c1.7-0.2,3.2-0.8,4.7-1.6c0.9-0.5,1.7-1,2.6-1.5c0.9-0.5,1.8-1.1,2.6-1.6
		c1.1-0.7,2.2-1.5,3.3-2.3c0.5-0.4,1.1-0.8,1.6-1.2c0.3-0.2,0.5-0.5,0.7-0.8c0.2-0.2,0.4-0.4,0.6-0.7c0.5-0.5,1.1-1.1,1.6-1.6
		c0.6-0.5,1.2-1,1.8-1.6c0.7-0.6,1.5-1.3,2.3-1.9c0.4-0.3,0.8-0.6,1.3-0.9c0.4-0.2,0.6-0.5,0.8-0.9c0.2-0.5,0.5-1,0.7-1.4
		c0.3-0.6,0.7-1.2,1-1.8c0.1-0.2,0.2-0.4,0.3-0.6c-0.4-0.1-0.8-0.2-1.3-0.3c-0.8-0.2-1.7-0.4-2.5-0.6c-0.8-0.3-1.6-0.6-2.4-0.9
		c-1-0.4-2-0.8-2.9-1.2c-0.3-0.1-0.5-0.2-0.7-0.4c-0.9-0.5-1.9-0.9-2.8-1.6c-0.3-0.2-0.5-0.4-0.8-0.6c-0.1-0.1-0.2-0.3-0.3-0.5
		c-0.1-0.2,0.1-0.5,0.3-0.6c0.5-0.1,1-0.3,1.4-0.2c1.3,0,2.5,0.1,3.8,0.2c0.7,0.1,1.3,0.2,2,0.2c-0.3-0.2-0.6-0.4-0.9-0.6
		c-0.4-0.3-0.8-0.6-1.2-0.8c-0.3-0.2-0.6-0.4-0.9-0.7c-0.4-0.3-0.8-0.6-1.1-0.9c-0.4-0.4-0.7-0.8-1-1.2c-0.3-0.5-0.2-0.8,0.5-0.9
		c0.8-0.1,1.6,0.1,2.4,0.2c1.2,0.2,2.4,0.6,3.6,1c0.9,0.3,1.9,0.7,2.8,1.1c0.9,0.4,1.9,0.8,2.8,1.2c0.4,0.2,0.8,0.4,1.2,0.6
		c0.8,0.4,1.6,0.9,2.4,1.3c0.9,0.5,1.9,1.1,2.8,1.7c0.9,0.5,1.7,1.1,2.6,1.7c0.1,0,0.1,0.1,0.2,0.1c0.2-0.3,0.3-0.5,0.5-0.8
		c0.2-0.3,0.5-0.6,0.7-0.9c0.3-0.3,0.6-0.7,1-0.8c0.5-0.2,0.8,0,0.8,0.5c0,0.6,0,1.3-0.1,1.9c-0.1,0.7-0.2,1.4-0.2,2.1
		c0.1-0.1,0.2-0.2,0.3-0.4c0.3-0.4,0.6-0.9,1-1.3c0.4-0.5,0.7-0.4,1,0.2c0.2,0.4,0.2,0.9,0.3,1.4c0,0.6,0,1.1,0,1.7
		c0,0.2,0.1,0.4,0.3,0.5c0.1,0.1,0.2,0.2,0.3,0.3c0.2-0.2,0.3-0.5,0.5-0.7c0.3-0.5,0.6-1,1-1.5c0.2-0.2,0.5-0.4,0.7-0.5
		c0.3-0.1,0.5,0,0.6,0.3c0.1,0.4,0.2,0.7,0.2,1.1c0,1.5-0.1,3-0.1,4.5c0,0.3,0.1,0.6,0.2,0.9c0.7,1.8,0.9,3.6,0.7,5.5
		c0,0.3,0.1,0.5,0.3,0.8c0.3,0.5,0.7,1,0.8,1.6c0.4-0.1,0.7-0.3,1.1-0.4c1-0.3,2-0.7,3-1c1.6-0.5,3.2-1.1,4.7-1.6
		c1.2-0.4,2.5-0.9,3.7-1.4c1.2-0.5,2.4-1.1,3.6-1.7c0.7-0.3,1.4-0.7,2.1-1c0.1-0.1,0.3-0.1,0.5-0.1c0,0,0,0.1,0,0.1
		c0,0.1-0.1,0.1-0.2,0.2C76.7,31.4,76.3,31.6,76,31.8z"/>
	<path fill="#102e52" class="pest-search__item-icon" d="M55.5,28.1c0-0.8,0-1.6,0-2.4c-0.3,0.5-0.7,0.9-1,1.3C54.8,27.3,55.2,27.7,55.5,28.1z"/>
	<path fill="#102e52" class="pest-search__item-icon" d="M51.3,33.9c0.2-0.4,0.5-0.7,0.7-1.1c-0.2-0.1-0.3-0.3-0.5-0.5C51.3,32.9,51.3,33.4,51.3,33.9z"/>
</g>
</svg>
