<?xml-stylesheet type="text/css" href="/CMS_Themes/Default/Css/pest-icons.css" ?>
<svg version="1.1" id="Layer_1" xmlns="http://www.w3.org/2000/svg" viewBox="0 0 82.3 82.3" width="100%" height="100%">
<g>
	<path class="pest-search__item-icon" d="M55.7,37.7c-0.2,0.5-0.2,0.7,0.2,1c0.5-0.5,0.7-1,0.9-1.6C56.2,37.1,55.8,37.4,55.7,37.7z"/>
	<path class="pest-search__item-icon" d="M56,41.4c-0.6,0.2-0.7,0.3-0.3,0.9c0.1,0.2,0.2,0.2,0.3,0c0.2-0.3,0.3-0.6,0.5-0.9c0,0,0,0,0-0.1
		C56.3,41.3,56.2,41.3,56,41.4z"/>
	<path class="pest-search__item-icon" d="M38.1,26.9C38.1,26.9,38.1,27,38.1,26.9c-0.1,0.2,0,0.3,0,0.4c0.1,0.4,0.2,0.9,0.3,1.3c0,0.1,0.3,0.2,0.4,0.2
		c0,0,0.1-0.2,0.2-0.3c0.1-0.5-0.2-1-0.5-1.4C38.5,27.1,38.3,27,38.1,26.9z"/>
	<path class="pest-search__item-icon" d="M22.8,32.8c-0.1,0.1-0.1,0.3-0.1,0.4c-0.2,0.4-0.4,0.9-0.6,1.3c0,0.1,0,0.3,0,0.3c0.1,0,0.4,0.1,0.5,0
		c0.1-0.1,0.2-0.3,0.3-0.6c0.5-0.2,0.8-1.5,0.1-1.9C22.9,32.5,22.9,32.7,22.8,32.8z"/>
	<path class="pest-search__item-icon" d="M41.2,0C18.4,0,0,18.4,0,41.2s18.4,41.2,41.2,41.2s41.2-18.4,41.2-41.2S63.9,0,41.2,0z M73.7,49.6
		C73.7,49.7,73.6,49.7,73.7,49.6c0,0.4-0.2,0.7-0.3,1c-0.2,0.5-0.5,0.9-0.7,1.4c-0.1,0.3-0.2,0.6-0.3,1c-0.2,0.7-0.6,1.3-1.1,1.8
		c-0.2,0.2-0.4,0.4-0.6,0.7c-0.3,0.4-0.8,0.5-1.2,0.7c-0.4,0.2-0.7,0.3-1.1,0.5c-0.1,0.1-0.2,0.2-0.1,0.3c0.2,0.3,0.4,0.6,0.6,0.9
		c0.2,0.3,0.3,0.7,0.5,1c0.1,0.2,0.3,0.5,0.4,0.7c0.2,0.3,0.5,0.6,0.7,1c0.4,0.6,0.9,1,1.6,1c0.3,0,0.6,0.1,0.9,0.3
		c0.1,0.1,0.3,0.2,0.3,0.4c0,0.1-0.1,0.3-0.1,0.4c-0.1,0-0.2-0.1-0.3-0.1c-0.4-0.4-0.8-0.6-1.3-0.5c-0.5,0.1-0.7-0.1-1.1-0.5
		c-0.5-0.5-0.9-1.2-1.4-1.7c-0.1-0.1-0.3-0.2-0.4-0.3c-0.2-0.2-0.4-0.3-0.5-0.5c-0.2-0.3-0.3-0.4-0.7-0.3c-0.2,0-0.4,0-0.5,0
		c-0.4,0-0.9-0.1-1.3-0.1c-0.1,0-0.1,0-0.2-0.1c-0.1,0-0.2-0.1-0.2-0.2c0-0.1,0.1-0.2,0.2-0.2c0.7-0.2,1.3-0.4,2-0.1
		c0.2,0.1,0.2,0,0.2-0.1c0-0.3-0.2-0.6-0.4-0.8c-0.1-0.1-0.3-0.2-0.4-0.3c-0.1-0.1-0.3-0.1-0.5-0.1c-0.1,0-0.3,0-0.4-0.1
		c-0.2-0.4-0.4-0.7-0.6-1.1c-0.2-0.6-0.4-1.3-0.9-1.8c-0.2-0.2-0.2-0.5-0.4-0.7c-0.4-0.4-0.3-1-0.8-1.4c-0.3-0.3-0.3-0.7-0.4-1.1
		c-0.1-0.3-0.1-0.6-0.2-0.9c-0.3-0.7-0.7-1.4-0.9-2.2c-0.2-0.8-0.2-1.7-0.1-2.5c0.1-0.7,0.2-1.5,0.3-2.2c0.2-0.7,0.5-1.5,0.7-2.2
		c0.2-0.4,0.1-0.8,0-1.2c0-0.1-0.2-0.2-0.3-0.2c-0.4-0.1-0.8-0.3-1.2-0.4c-0.2-0.1-0.4-0.2-0.3-0.5c0-0.2-0.1-0.2-0.2-0.1
		c-0.1,0.1-0.3,0.2-0.4,0.3c-0.3,0.5-0.6,1.1-0.9,1.6c-0.5,0.8-1.1,1.7-1.6,2.5c-0.3,0.4-0.7,0.8-1,1.2c-0.3,0.4-0.4,0.9-0.6,1.3
		c-0.1,0.2-0.3,0.4-0.5,0.6c-0.6,0.4-1.2,0.6-1.9,0.4c-0.1,0-0.2-0.1-0.3-0.2c-0.1-0.1-0.3-0.2-0.4-0.3c-0.5-0.3-0.9-0.7-1.3-1.1
		c-0.4-0.5-0.3-1-0.2-1.5c0-0.1,0.1-0.2,0.1-0.3c0-0.2,0.2-0.4-0.1-0.6c-0.4-0.2-0.6-0.2-0.8,0.1c-0.3,0.4-0.5,0.7-0.7,1.1
		C49.9,43.6,49.5,44,49,44c0,0-0.1,0-0.1,0c-0.4-0.3-0.6,0.1-0.8,0.3c-0.3,0.4-0.6,0.5-1.1,0.3c-0.1,0-0.2-0.1-0.3-0.2
		c0,0,0,0-0.1,0l-1.8,7.2l-0.7,0.6c-0.1,0.3-0.4,0.6-0.6,0.5c-0.1,0-0.2-0.1-0.3-0.2c0-0.1,0.1-0.2,0.1-0.3c0,0,0.1,0,0.1-0.1
		l-0.1-0.1l0.9-0.8l1.7-6.9c-0.4,0-0.7-0.3-1-1c-0.2-0.4-0.3-0.7-0.7-0.9c-0.2-0.1-0.4-0.2-0.5-0.2c-0.3,0-0.4,0.3-0.5,0.5
		c-0.1,0.4-0.2,0.8-0.3,1.2c-0.2,0.6-0.4,1.2-0.6,1.8c-0.3,0.8-0.7,1.5-1,2.3c-0.2,0.4-0.5,0.8-0.8,1.2c-0.1,0.1-0.1,0.2-0.2,0.3
		c-0.2,0.3-0.3,0.6-0.6,0.7c-0.2,0.1-0.3,0.3-0.4,0.4c-0.5,1.1-1,2.3-1.5,3.4c-0.4,1-0.6,2-0.8,3c0,0.2-0.1,0.4-0.1,0.5
		c-0.1,0.2-0.1,0.4-0.4,0.3c-0.1,0-0.2,0.1-0.2,0.2c-0.2,0.4-0.4,0.8-0.6,1.2c-0.1,0.2-0.2,0.3-0.4,0.4c-0.2,0.1-0.5,0.4-0.6,0.6
		c-0.3,0.4-0.7,0.6-1.1,0.7c-0.1,0.1-0.4,0-0.5-0.1c-0.3-0.2-0.6-0.1-0.9,0c0,0,0,0,0,0c-0.3,0.1-0.5,0.1-0.6-0.1
		c-0.1-0.3,0.1-0.6,0.4-0.6c0.3,0,0.5,0,0.8,0c0.5,0.1,0.9,0,1.3-0.4c0.1-0.1,0.2-0.2,0.3-0.2c0.3-0.2,0.5-0.5,0.7-0.8
		c0.1-0.2,0.4-0.4,0.5-0.6c0.5-1,0.9-2.1,1.3-3.1c0.3-0.8,0.6-1.7,1-2.5c0.3-0.6,0.6-1.3,0.9-1.9c0-0.1,0.1-0.1,0.1-0.2
		C39,50.6,39,50.3,39,50c0-0.2,0-0.4,0.1-0.6c0.2-0.6,0.5-1.3,0.8-1.8c0.4-0.8,0.7-1.7,1.2-2.5c0.5-0.7,0.8-1.4,1.3-2.1
		c0,0,0-0.1,0.1-0.2c-0.1,0-0.2,0-0.3,0.1c-0.5,0.1-0.9,0.3-1.4,0.3c-0.4,0.1-0.8,0-1.1,0c-0.1,0-0.3,0.1-0.4,0.1
		c-0.5,0.3-0.9,0.2-1.3,0c-0.6-0.3-1.2-0.5-1.8-0.7c-0.2-0.1-0.3-0.1-0.5-0.2c-0.7-0.4-1.5-0.7-2.2-1.3c-0.1-0.1-0.3-0.2-0.4-0.3
		c-0.2-0.3-0.5-0.5-0.9-0.6c-0.2,0-0.3-0.2-0.3-0.4c0-0.3,0-0.5,0-0.8c0-0.4,0.4-0.8,0.8-0.7c1.2,0.3,2.4,0.5,3.6,0.9
		c0.7,0.2,1.4,0.6,2.2,0.8c0.9,0.3,1.9,0.6,2.8,0.9c0.3,0.1,0.5,0.1,0.8,0.1c-0.7-1.4-1.1-2.9-1.6-4.4c-0.3-0.1-0.4-0.4-0.5-0.7
		c-0.2-0.5-0.4-1-0.5-1.5c-0.1-0.2-0.1-0.3-0.1-0.5c0.7,0.2,0.6,0.8,0.9,1.3c0,0,0.1-0.1,0.1-0.1c-0.2-0.4-0.3-0.9-0.6-1.3
		c-0.2-0.2-0.5-0.3-0.8-0.5c-0.2-0.1-0.3,0-0.4,0.2c-0.2,0.4-0.4,0.8-0.7,1.2c-0.4,0.4-1,0.8-1.5,1.2c0,0-0.1,0-0.1,0
		c-0.4-0.1-0.7,0.3-1.1,0.3c-0.4,0.1-0.8,0.2-1.1,0.3c-0.7,0.2-1.5,0.3-2.2,0.5c-0.5,0.1-1.1,0.3-1.6,0.4c-0.2,0-0.4,0-0.6,0.1
		c0.1,0.1,0.1,0.2,0.2,0.3c0.6,0.8,1.3,1.5,1.8,2.4c0.4,0.8,0.7,1.6,1,2.4c0.1,0.3,0,0.7-0.2,1c-0.2,0.3-0.4,0.7-0.6,1.1
		c-0.2,0.3-0.4,0.6-0.7,0.7c-0.1,0-0.2,0.2-0.3,0.3c-0.2,0.2-0.4,0.4-0.6,0.6c0,0-0.1,0-0.1,0.1c-0.4,0.4-0.7,0.8-1.1,1.2
		c-0.4,0.4-0.8,0.8-1.2,1.3c-0.3,0.4-0.6,0.8-0.9,1.2c-0.2,0.3-0.3,0.7-0.6,0.9c-0.1,0.1-0.1,0.3-0.2,0.5c-0.1,0.4-0.2,0.8-0.5,1.1
		c-0.1,0.1-0.1,0.3-0.2,0.5c-0.1,0.3-0.1,0.7-0.2,1c0,0,0,0.1,0,0.1c-0.4,0.3-0.3,0.7-0.3,1.1c0,0.4,0,0.7-0.3,1
		c0,0-0.1,0.1-0.1,0.2c0.1,1.3-0.4,2.4-1,3.4c-0.2,0.4-0.4,0.3-0.6,0c-0.2-0.3-0.3-0.7-0.3-1.1c0-0.3,0-0.7-0.1-1
		c-0.1-0.5,0-1.1,0.3-1.5c0.1-0.1,0.1-0.2,0.1-0.4c-0.1-0.6,0.1-1.2,0.5-1.6c0.1-0.1,0.1-0.3,0.1-0.4c0-0.6,0.2-1,0.6-1.4
		c0.2-0.2,0.3-0.3,0.3-0.6c0-0.2,0.1-0.4,0.3-0.6c0.2-0.2,0.4-0.4,0.6-0.6c0.1-0.1,0.1-0.1,0.1-0.2c0.1-0.4,0.4-0.7,0.7-0.9
		c0.1-0.1,0.2-0.3,0.3-0.4c0-0.1,0.1-0.2,0.1-0.2c0.5-0.3,0.7-0.9,1.2-1.3c0.4-0.3,0.8-0.8,1.1-1.2c0.1-0.1,0.1-0.1,0.2-0.2
		c0.2-0.2,0.3-0.3,0.5-0.5c0.1-0.1,0.3-0.2,0.5-0.4c0.2-0.2,0.3-0.4,0.5-0.5c0.2-0.2,0.4-0.4,0.6-0.6c0.1-0.1,0.2-0.1,0.3-0.2
		c0.2-0.2,0.2-0.3-0.1-0.4c-0.2-0.1-0.3-0.2-0.3-0.4c-0.1-0.5-0.1-1-0.2-1.4c-0.1-0.4-0.3-0.8-0.6-1.1c-0.5-0.8-0.9-1.6-1.4-2.3
		c-0.2-0.3-0.5-0.7-0.8-0.8c-0.2-0.1-0.5-0.1-0.7,0c-0.6,0.1-1.1,0.3-1.7,0.5c-0.4,0.1-0.8,0.2-1.1,0.3c-0.1,0-0.1,0-0.2,0
		c-0.5,0-1,0-1.5,0.1c-0.4,0.1-0.6-0.1-0.9-0.2c-0.3-0.1-0.7-0.1-1,0.1c-0.2,0.1-0.3,0.1-0.3-0.1c0-0.1-0.1-0.2-0.1-0.2
		c0.2-0.1,0.3-0.3,0.5-0.4c0.1-0.1,0.2-0.1,0.3-0.1c0.2-0.1,0.3-0.2,0.2-0.4c0-0.1-0.1-0.2,0-0.2c0.2-0.5-0.1-0.9-0.1-1.3
		c0-0.3-0.1-0.5-0.1-0.8c0-0.4,0-0.8,0-1.3c0-0.6,0.4-1.1,0.7-1.6c0.3-0.5,0.7-0.9,1-1.4c0.3-0.5,0.8-0.7,1.2-1
		c0.2-0.2,0.4-0.3,0.6-0.5c0.1-0.1,0.1-0.2,0.1-0.3c0.1-0.6-0.3-0.9-0.5-1.3c-0.3-0.5-0.7-1-1-1.5c-0.5-0.8-0.9-1.7-1.4-2.5
		c-0.2-0.3-0.3-0.6-0.6-0.8c-0.1-0.1-0.3-0.2-0.5-0.1c-0.3,0.1-0.4-0.1-0.5-0.3c-0.2-0.3-0.2-0.3-0.5-0.1c-0.4,0.3-0.8,0.7-1.3,0.7
		c0,0-0.1,0-0.1,0c-0.5,0.3-1,0.5-1.6,0.8c-0.1,0-0.2,0.1-0.3,0.1c-0.2,0-0.3,0.1-0.5,0.2c-0.2,0.1-0.5,0.2-0.7,0.3
		c-0.5,0.2-1,0.5-1.6,0.7c-0.2,0.1-0.3,0.1-0.5,0.2C13.3,25,13.2,25,13,25.1c-0.3,0.2-0.6,0.4-1,0.4c-0.2,0-0.3,0.2-0.5,0.3
		c-0.2,0.2-0.4,0.3-0.6,0.5c-0.1,0.1-0.2,0.1-0.3,0.1c-0.3,0-0.5,0.1-0.7,0.4c-0.2,0.2-0.3,0.4-0.5,0.5c-0.1,0.1-0.2,0.2-0.3,0.2
		c-0.4,0-0.6,0.3-0.9,0.6c-0.2,0.2-0.5,0.4-0.7,0.5c-0.1,0.1-0.3,0.2-0.4,0.3c-0.6,0.7-1.4,1.2-2.3,1.5c-0.1,0-0.2,0-0.2,0
		c-0.3,0-0.4-0.1-0.3-0.3c0-0.2,0.1-0.5,0.2-0.7c0.3-0.6,0.7-1.2,1.2-1.6c0.5-0.4,1-0.7,1.5-1.1c0,0,0,0,0.1,0
		c0.7-0.1,1.1-0.6,1.7-0.9c0.1,0,0.2-0.1,0.3-0.1c0.3-0.1,0.6-0.3,0.9-0.4c0.2-0.1,0.4-0.2,0.7-0.3c0.4-0.2,0.7-0.3,1.1-0.5
		c0.2-0.1,0.3-0.1,0.5-0.2c0.6-0.2,1.3-0.5,1.9-0.7c0.2-0.1,0.3-0.1,0.5-0.2c0.5-0.2,1.1-0.4,1.6-0.6c0.5-0.2,1-0.4,1.5-0.6
		c0.1,0,0.3-0.1,0.3-0.2c0.4-0.4,0.9-0.5,1.3-0.7c0.1-0.1,0.3-0.1,0.4-0.3c0.4-0.3,0.9-0.4,1.4-0.1c0.7,0.3,1.1,0.9,1.5,1.5
		c0.1,0.2,0.2,0.5,0.3,0.8c0.3,1,0.7,2.1,1.3,3c0.2,0.3,0.5,0.6,0.7,0.9c0.1,0.2,0.3,0.2,0.5,0.1c0.5-0.3,1.1-0.5,1.7-0.6
		c0.1,0,0.3-0.1,0.4-0.2c0.4-0.3,0.9-0.6,1.3-0.8c0.4-0.2,0.8-0.3,1.3-0.4c0.4,0,0.9-0.1,1.3-0.2c0.7-0.2,1.4-0.3,2.1-0.3
		c0.1,0,0.1,0,0.2,0c0.6-0.2,1.2,0.1,1.8,0.3c0.1,0,0.3,0,0.4,0c0.1,0,0.2,0,0.2,0.1c0.3,0.2,0.5,0.5,0.8,0.7c0.1,0.1,0.2,0,0.4,0
		c0.2,0,0.4,0.1,0.5,0c0.4-0.1,0.7-0.1,1.1-0.3c0.5-0.2,0.9,0.1,1.2,0.4c0.4,0.4,0.6,0.9,0.7,1.4c0.2,0.5,0.3,0.6,0.7,0.3
		c0.3-0.2,0.6-0.2,1-0.2c0.4,0,0.8,0,1.2,0c0.4,0,0.8,0.1,1.1,0.3c0.2,0.1,0.4,0.2,0.6,0.3c0.3,0.2,0.6,0.3,0.9,0.5
		c0.1,0.1,0.3,0.2,0.4,0.3c0,0,0,0.1,0.1,0.1c0.3,0.2,0.7,0.5,1,0.7c0.2,0.1,0.4,0.3,0.6,0.4c0.2,0.1,0.5,0.3,0.7,0.4
		c0.7,0.2,1,0.7,1.1,1.3c0.2,0.8,0.7,0.9,1.3,1c0.2,0,0.5,0,0.7,0.1c0.2,0.1,0.4,0.2,0.6,0.3c0.3,0.2,0.5,0.5,0.7,0.7
		c0.5,0.5,1.1,1,1.9,1c0.2,0,0.4,0.1,0.7,0.1c0.1,0,0.3,0,0.4-0.1c0.6-0.5,1.2-0.4,1.9-0.3c0.1,0,0.2-0.1,0.2-0.1
		c0.1-0.3,0.2-0.7,0.3-1c0-0.1,0-0.1,0-0.2c0.3-0.7,0.6-1.5,0.9-2.2c0.1-0.3,0.3-0.6,0.5-0.9c0.4-0.6,0.9-1.2,1.3-1.8
		c0.3-0.4,0.7-0.6,1.1-0.6c0.4,0,1,0.5,1,0.9c0,0.1,0,0.1,0,0.2c0.5,0.7,0.6,1.6,0.8,2.4c0.2,0.6,0.3,1.2,0.4,1.8
		c0.1,0.6,0.1,1.2,0.3,1.7c0.1,0.3,0.2,0.8,0.7,1c0.2,0.1,0.3,0.3,0.5,0.4c0.2,0.1,0.5,0.2,0.7,0.2c0.9,0.2,1.6,0.5,2.3,1
		c0.3,0.2,0.6,0.4,0.9,0.7c0.3,0.2,0.5,0.5,0.7,0.8c0.7,0.8,1.1,1.6,1.5,2.6c0.3,0.9,0.6,1.7,0.8,2.6c0.1,0.6,0.2,1.3,0.2,1.9
		c0,0.3,0,0.5,0,0.8c0.1,0.6-0.1,1.2-0.1,1.8C73.8,49.1,73.7,49.4,73.7,49.6z M69.9,58.1c-0.2,0.2-0.3,0.2-0.4,0c0,0,0-0.1,0-0.1
		C69.7,58,69.8,58.1,69.9,58.1z"/>
	<path class="pest-search__item-icon" d="M63.4,30c-0.4,0.1-0.5,0.5-0.7,0.8c-0.2,0.5-0.3,1-0.5,1.5c-0.1,0.3-0.2,0.7-0.3,1.1c0.2,0,0.3,0,0.4,0
		c0.2,0.2,0.3,0.2,0.5,0c0.1,0.4,0.3,0.6,0.6,0.3c0.1-0.1,0.2-0.3,0.2-0.4c0-1,0-2.1,0-3.1C63.5,30.2,63.4,30.1,63.4,30z"/>
</g>
</svg>
