<?xml-stylesheet type="text/css" href="/CMS_Themes/Default/Css/pest-icons.css" ?>
<svg version="1.1" id="Layer_1" xmlns="http://www.w3.org/2000/svg" viewBox="0 0 82.3 82.3" width="100%" height="100%">
<g>
	<path class="pest-search__item-icon" d="M27.7,7.6c-0.1,2,0,4,0.4,6c0.8,4.1,1.5,8.2,2.4,12.3c0.2,1,0.5,2,1,3c0.1-0.4,0.3-0.8,0.3-1.2
		c0-1.4,0.7-2.6,1.4-3.7c0.2-0.2,0.5-0.4,0.9-0.6c0,0.3,0,0.5,0,0.6c-0.5,1.5-1.1,2.9-1.7,4.4c-0.4,1.1-0.3,1.2,0.9,1.4
		c0.4,0.1,0.8,0.2,1.2,0.3c1-1,0.8-2.3,0.7-3.4c-0.2-2.1,0.6-3.9,1.1-5.8c0-0.1,0.1-0.1,0.5-0.3c-0.1,1.6-0.2,3-0.4,4.4
		c-0.1,0.6-0.3,1.1-0.3,1.7c0,1.3,0.1,2.5,0.2,3.8c0,0.4,0.2,1,0.5,1.2c1.3,1,2.4,1.4,3.8,0.5c1.1-0.7,2.3-0.6,3.3-0.3
		c1.2,0.4,2.4,0.4,3.6,0.2c0.5-0.1,1.3,0.1,1.4,0.3c0.2,0.9-0.7,0.6-1.2,0.8c-0.4,0.2-0.9,0.3-1.4,0.3c-0.3,0-0.6,0-0.9-0.1
		c-1.1-0.2-2.1-0.6-3.1-0.7c-0.5,0-1,0.5-1.5,0.8c-0.1,0.1-0.3,0.2-0.6,0.4c0.6,0.6,1.1,1.1,1.6,1.6c0.9,0.9,1.9,1.7,2.8,2.5
		c0.3,0.2,0.7,0.5,0.9,0.4c1.9-0.9,3.7-0.2,5.4,0.6c1.3,0.6,2.5,1.4,3.8,2c0.7,0.3,1.5,0.3,2.2,0.5c0.3,0.1,0.9,0.5,0.8,0.6
		c-0.1,0.6-0.6,0.6-1.1,0.4c-1-0.3-2-0.6-2.9-1c-1.6-0.7-3.2-1.4-4.8-2.1c-0.4-0.2-0.8-0.2-1.1,0.3c-0.2,0.4-0.6,0.6-1,1
		c0.5,0.5,1,0.9,1.4,1.5c1.4,1.9,2.9,3.8,4.2,5.8c0.5,0.7,0.9,1.6,1.3,2.4c0.1,0.1,0.2,0.2,0.4,0.3c0.4,0.4,0.7,0.8,1.1,1.2
		c0.1,0,0.3,0,0.4,0c0.6,0,1.3,0.3,1.9,0.5c0.1,0.1,0.2,0.4,0.3,0.6c-0.2,0.1-0.4,0.2-0.6,0.2c-0.5-0.1-0.9-0.3-1.3-0.5
		c0.4,0.7,0.8,1.4,1,2c0.3,0.1,0.6,0.2,0.9,0.3c2.5,0.4,5,0.9,7.5,1.1c2.6,0.2,5.3,0.1,7.9,0.1c0.6,0,1.1,0.1,1.7,0.2
		c0,0.1,0,0.3,0,0.4c-0.3,0.1-0.7,0.3-1,0.2c-3.5-0.1-6.9-0.2-10.4-0.3c-1.9-0.1-3.7-0.3-5.6-0.5c-0.2,0-0.3-0.1-0.5-0.2
		c0,0.1,0,0.2,0,0.3c0.8,0.4,1.5,0.8,2.4,1.2c-0.6,0.4-0.6,0.4-2-0.1c-0.5,1-0.5,1.7,0.4,2.6c2.6,2.6,5.1,5.3,7.8,7.9
		c1.1,1.1,2.3,2,3.4,3c7.7-7.5,12.6-18,12.6-29.6C82.3,18.4,63.9,0,41.2,0C36.9,0,32.9,0.6,29,1.8C28.4,3.7,27.9,5.6,27.7,7.6z"/>
	<path class="pest-search__item-icon" d="M62.3,65.4c-1.8-1.9-3.7-3.7-5.6-5.5c-0.2-0.2-0.7-0.3-1.1-0.4c0,0-0.1,0-0.1,0c0.2,0.8,0.3,1.5,0.5,2.2
		c-0.1,0.1-0.2,0.1-0.3,0.2c-0.2-0.4-0.5-0.7-0.7-1.1c-0.2-0.4-0.3-0.8-0.5-1.1c0,0-0.1,0-0.1,0c1.3,6,1.1,11.9,0.3,17.9
		c-0.1,0-0.3,0-0.4,0c-0.1-0.3-0.2-0.6-0.1-0.9c0.7-3.6,0.2-7.2,0.1-10.8c-0.1-1.9-0.7-3.9-1.1-5.8c0-0.2-0.1-0.4-0.1-0.6
		c-0.5-0.1-1-0.4-1.5-0.6c0,0.3,0.1,0.6,0.1,1c-0.7-0.3-1.3-0.9-1.3-1.7c0,0,0,0,0,0c-0.5-0.4-1.1-0.8-1.6-1.3
		c-1.1-0.5-2.3-0.8-3.2-1.8c-0.8-0.9-2-1.5-3-2.3c-1-0.9-2-1.8-3-2.7c-0.3-0.3-0.6-0.8-1.1-0.3c-0.4,0.4-1.1,0.8-0.5,1.6
		c0.5,0.7,0.7,1.7,1,2.5c0.4,1.1,0.8,2.2,1.2,3.3c0.3,0.8,0.5,1.6,0.7,2.4c-0.6,0.1-0.9-0.3-1.1-0.8c-0.5-1.8-1.4-3.3-2.3-4.9
		c-0.3-0.4-0.4-1-0.5-1.5c-0.2-1-0.4-2-0.6-2.9c-0.1-0.3-0.2-0.7,0-0.9c0.4-0.9,0.1-1.6-0.6-2.2c-1-0.9-1.8-1.9-2.7-2.9
		c-0.2-0.3-0.5-0.5-0.8-0.8c-0.3,0.3-0.4,0.5-0.7,0.7c-0.8,0.4-0.9,1.1-0.7,1.8c0.6,1.8,0.3,3.5,0.1,5.3c-0.1,0.7-0.4,0.9-1.1,0.8
		c0.9-2.1,0.3-4.2,0.1-6.2c-0.1-1.2,0-2.3,0.7-3.3c0.1-0.2,0.2-0.5,0.1-0.6c-0.4-0.9-0.8-1.8-1.3-2.7c-0.1-0.2-0.6-0.3-0.9-0.3
		c-1.7,0-3.5,0.1-5.2,0.1c-0.3,0-0.7,0.1-1,0.2c-0.9,0.2-1.9,0.5-2.8,0.7c-0.2,0-0.4-0.1-0.7-0.2c0.2-0.2,0.3-0.5,0.5-0.5
		c1.1-0.3,2.3-0.5,3.4-1c1.1-0.5,2.2-0.5,3.4-0.2c0.7,0.2,1.5-0.2,2.4-0.4c-0.2-0.8-0.5-1.7-0.7-2.6c-2,0.5-3.8,0.9-5.7,1.4
		c0-0.1-0.1-0.3-0.1-0.4c1.7-1.2,3.7-1.5,5.8-2.3c-1.1-0.3-2-0.7-2.9-0.9c-4.1-0.7-8.2-1.6-12.3-2C8.7,29.3,5,29.5,1.4,30.4
		C0.5,33.8,0,37.4,0,41.2c0,22.7,18.4,41.2,41.2,41.2c10.8,0,20.6-4.1,27.9-10.9C66.6,69.7,64.4,67.6,62.3,65.4z"/>
	<path class="pest-search__item-icon" d="M4.2,28.6c4.2-0.7,8.3-0.3,12.5,0.3c2.6,0.4,5.2,1.2,7.9,1.8c0.4,0.1,0.9,0.2,1.3,0.3c1.1,0.4,1.9,0.4,2.5-0.9
		c0.2-0.5,0.9-0.8,1.5-1.2c-0.3-1.4-0.5-3-0.8-4.6c-0.7-3.7-1.5-7.4-1.9-11.2c-0.4-3.3-0.3-6.7,0.7-10c0.1-0.3,0.2-0.7,0.4-1
		C15.4,6.4,5.6,16.5,1.8,29.2C2.5,29,3.3,28.8,4.2,28.6z"/>
</g>
</svg>
