<?xml-stylesheet type="text/css" href="/CMS_Themes/Default/Css/pest-icons.css" ?>
<svg version="1.1" id="Layer_1" xmlns="http://www.w3.org/2000/svg" viewBox="0 0 82.3 82.3" width="100%" height="100%">
<path class="pest-search__item-icon" d="M41.2,0C18.4,0,0,18.4,0,41.2s18.4,41.2,41.2,41.2s41.2-18.4,41.2-41.2S63.9,0,41.2,0z M73.3,56.4
	c-7.5,1.9-15,2.7-22.7,2.3c-6-0.4-12.1-0.7-18.1-1.3c-2.8-0.3-5.5-1.2-8.2-1.9c-1.3-0.3-1.8-1.5-2.5-2.6c-1.4-2.6-2.9-5.1-4.6-7.6
	c-0.8-1.3-2.2-2.2-3-3.4c-0.5-0.7-0.8-1.8-0.6-2.5c0.7-2.9,1.1-5.9,2.8-8.5c0.5-0.7,0.9-1.5,1.4-2.2c1-1.2,1.1-2.5,0.6-3.9
	c-0.6-1.6-1.4-3.2-2-4.7c-0.1-0.2,0-0.5,0.1-0.7c0.3,0.1,0.7,0.1,0.8,0.3c0.9,1.7,2,3.4,2.6,5.2c0.7,2,3.1,3.4,5.5,2.4
	c2.8-1.2,5.7-2.2,8.6-3.3c0.3-0.1,0.7,0.1,1.1,0.2c-0.3,0.2-0.5,0.6-0.8,0.7c-3,0.7-7.9,3.4-9.4,5.1c0.4,0.3,0.7,0.5,1,0.7
	c0,0.1-0.1,0.2-0.1,0.3c-0.2,0-0.5,0-0.7,0.1c-0.4,0.2-0.8,0.4-1,0.7c-0.1,0.3-0.1,0.9,0.1,1.1c1.1,1.1,2.2,2.2,3.4,3.1
	c1.7,1.2,3.6,2.1,5.2,3.2c1.3,0.9,2.8,0.4,4.2,0.7c3.1,0.6,6.1,1,9.2,1.5c3.2,0.5,6.4,1.1,9.5,1.7c2,0.4,4,1.1,6,1.7
	c0.4,0.1,0.9,0.2,1.3,0.3c1.1,0.3,2.1,0.6,3.2,1.1c1.4,0.6,2.8,1.3,4.1,1.9c0.8,0.4,1.7,0.7,2.5,1.2c0.3,0.2,0.6,1,0.5,1.3
	c-0.5,1.2,0.2,1.9,0.8,2.7C75.7,55,75.4,55.9,73.3,56.4z"/>
</svg>
