<?xml-stylesheet type="text/css" href="/CMS_Themes/Default/Css/pest-icons.css" ?>
<svg version="1.1" id="Layer_1" xmlns="http://www.w3.org/2000/svg" viewBox="0 0 82.3 82.3" width="100%" height="100%">
<g>
	<path class="pest-search__item-icon" d="M45,61.8c-0.3-0.4-0.6-0.8-1-1.2c0,0-0.1,0.1-0.1,0.1C44.2,61.1,44.5,61.5,45,61.8
		C44.9,61.8,44.9,61.8,45,61.8z"/>
	<path class="pest-search__item-icon" d="M54.3,67c-0.4-0.4-0.8-0.4-1.3-0.3C53.2,67,53.8,67.1,54.3,67z"/>
	<path class="pest-search__item-icon" d="M43.8,60.5c-0.3-0.3-0.5-0.6-0.8-0.9C43.4,60.3,43.5,60.4,43.8,60.5z"/>
	<path class="pest-search__item-icon" d="M41.2,0C18.4,0,0,18.4,0,41.2s18.4,41.2,41.2,41.2s41.2-18.4,41.2-41.2S63.9,0,41.2,0z M68.4,27
		c-0.2,0-0.5,0-0.6-0.1c-0.9-0.4-1.8-0.2-2.8,0.1c-0.1,0-0.1,0.2-0.2,0.2c-0.1,0.1-0.2,0.3-0.4,0.3c-0.3,0.2-0.6,1-0.3,1.3
		c0,0,0,0,0,0c0.2,1.1,1.4,1.4,1.8,2.3c0.3,0.6,0.7,1.1,1,1.6c0,0.1,0.1,0.2,0.1,0.2c0.1,0.4,0,0.5-0.4,0.4c-0.4-0.1-0.7-0.2-1-0.3
		c-0.6-0.2-1.2-0.4-1.9-0.6c0,0-0.1,0.1-0.1,0.1c0.1,0.4,0,0.9,0.2,1.2c0.5,0.9,0.7,1.9,0.8,2.9c0.2,1.3-0.1,2.4-0.3,3.7
		c-0.1,0.3-0.1,0.5-0.1,0.8c0,0.4-0.3,0.7-0.5,1c-0.2,0.2-0.3,0.4-0.5,0.6c-0.2,0.3-0.3,0.9-0.8,0.9c-0.1,0-0.3,0.2-0.3,0.4
		c-0.1,0.2-0.2,0.4-0.3,0.6c-0.1,0.2-0.2,0.5-0.6,0.4c-0.1,0-0.3,0.2-0.4,0.3c-0.3,0.6-0.7,1-1.3,1.4c-0.9,0.6-1.8,1.3-2.7,1.9
		c-0.6,0.4-1.2,0.8-1.9,1.1c-1.7,0.7-3.4,1.5-5.3,1.7c-0.1,0-0.2,0-0.3,0.1c-1,0.4-2,0.8-3.1,0.9c-0.4,0-0.8,0.4-1.2,0.6
		c-0.1,0-0.1,0.3-0.1,0.4c0.6,1.2,1.2,2.3,1.9,3.5c0.5,0.9,1.4,1.3,2.4,1.5c0.5,0.1,0.9,0.1,1.4,0.3c0.3,0.1,0.7,0.2,1,0.4
		c0.2,0.1,0.3,0.3,0.4,0.4c0,0-0.1,0.1-0.1,0.1c-0.2-0.1-0.3-0.2-0.5-0.2c-0.1,0-0.3,0-0.5,0c0,0.1,0,0.1,0,0.2
		c0.5,0.2,1,0.3,1.5,0.5c0.3,0.1,0.6,0.1,0.9,0.2c0.5,0.2,0.7,0.7,0.5,1c-0.3-0.2-0.6-0.3-0.9-0.4c-0.2-0.1-0.3-0.1-0.4,0.2
		c-0.1,0.3-0.4,0.4-0.7,0.2c-0.4-0.2-0.8-0.4-1.3-0.6c0,0.3,0,0.6,0,0.9c-0.1,0-0.1,0-0.1,0c-0.2-0.7-0.8-0.7-1.3-0.8
		c-0.5-0.1-0.9-0.3-1.4-0.6c-0.7-0.4-1.4-0.9-1.9-1.5c-0.4-0.5-0.9-0.6-1.4-0.8c-0.4-0.2-0.8-0.5-1.1-0.8c-0.2-0.2-0.3-0.2-0.4,0.1
		c-0.3,0.6-0.3,1.2,0.2,1.7c0.8,1,1.5,2.1,2.4,3.1c0.8,0.9,1.6,1.8,2.4,2.7c0.8,1,1.9,1.2,3.1,1.3c0.6,0,1.1,0,1.7,0
		c0.8,0,1.5,0.1,2,0.8c0.1,0.1,0.3,0.1,0.5,0.2c0.6,0.1,1.2,0.1,1.8,0.3c0.6,0.1,0.8,0.6,0.9,1.2c-0.1,0-0.1,0-0.1-0.1
		c-0.4-0.7-1.1-0.8-1.9-0.8c-0.1,0-0.2,0.1-0.2,0.1c-0.2,0.5-0.4,0.6-0.9,0.5c-0.5-0.1-0.9-0.2-1.4-0.3c-0.1,0-0.2-0.1-0.5-0.1
		c0.1,0.4,0.2,0.7,0.3,1c0,0-0.1,0-0.1,0c-0.1-0.1-0.1-0.1-0.2-0.2c-0.3-0.3-0.5-0.5-1.1-0.4c-0.8,0.1-1.6-0.1-2.3-0.3
		c-0.9-0.3-1.6-0.7-2.4-1.2c0,0-0.1,0-0.1-0.1c-0.3-0.5-0.9-0.5-1.4-0.6c-0.2,0-0.4-0.2-0.6-0.2c-0.1-0.1-0.3-0.1-0.4-0.1
		c-0.1-0.1-0.3-0.1-0.4-0.2c-0.5-0.3-0.9-0.5-1.5-0.4c-0.4,0.1-0.8-0.4-0.7-0.7c0.2-0.7-0.2-1.1-0.9-0.9c-0.3,0.1-0.7,0.2-1,0.3
		c0.1-0.5,0.6-0.9,1.1-0.8c0.5,0.1,1,0.2,1.5,0.4c0.7,0.3,1.3,0.6,1.9,0.9c0.2,0.1,0.4,0.2,0.7,0.3c-0.1-0.2-0.1-0.4-0.2-0.5
		c-1-1.3-1.8-2.7-3-3.8c-0.6-0.5-1.1-1.1-1.6-1.7c-0.3-0.3-0.5-0.7-0.6-1c-0.3-0.8-0.5-1.5-0.5-2.4c0-0.5,0-0.5-0.5-0.4
		c-0.9,0.2-1.6-0.2-2.4-0.6c-0.1-0.1-0.2-0.2-0.3-0.3c-0.4-0.4-0.8-0.8-1.4-1c-0.1,0-0.3-0.1-0.4-0.2c-0.6-0.5-1.3-0.7-2-0.9
		c-0.3-0.1-0.6-0.3-0.8-0.5c-0.4-0.3-0.8-0.5-1.3-0.6c-0.1,0-0.2,0-0.3-0.1c-0.7-0.5-1.5-0.6-2.3-0.9c-0.6-0.2-1.1-0.5-1.6-0.8
		c-0.6-0.4-1.3-0.5-1.9-0.4c-1,0.1-1.9,0.4-2.9,0.3c-0.6-0.1-1.2,0.2-1.8,0.3c-2.9,0.6-5.7,1.3-8.5,2.4c-1.4,0.6-2.9,1-4.4,1.6
		c-0.3,0.1-0.5,0.2-0.9-0.1c0.3-0.1,0.5-0.3,0.8-0.4c1.4-0.5,2.8-1,4.2-1.6c1.2-0.5,2.3-1,3.5-1.5c0.3-0.1,0.6-0.3,0.6-0.7
		c-0.2,0-0.3,0-0.5,0c-1,0.2-2,0.4-2.9,0.6c-0.1,0-0.1,0.1-0.2,0c-0.5-0.2-1-0.1-1.6-0.1c-0.3,0-0.3-0.2-0.2-0.4
		c0.1-0.1,0.3-0.2,0.4-0.3c1.1-0.3,2.2-0.5,3.2-0.8c0.1,0,0.2,0,0.3-0.1c1.5-0.8,3.2-1.2,4.8-1.9c1.3-0.5,2.6-0.9,3.8-1.7
		c0,0,0.1-0.1,0.1-0.2c-0.4,0.1-0.9,0.1-1.3,0.2c0,0,0-0.1-0.1-0.1c0.1-0.1,0.3-0.2,0.4-0.3c0.4-0.2,0.8-0.4,1.2-0.5
		c2-0.8,3.8-1.9,5.5-3c0.9-0.6,1.6-1.3,2.5-1.9c1.7-1.1,3.4-2.2,5.1-3.2c0.6-0.4,1.2-0.8,1.7-1.3c0.6-0.4,1.1-0.9,1.7-1.3
		c0.5-0.4,1.1-0.8,1.6-1.2c1.9-1.4,4-2.4,6.3-3c1.5-0.4,2.6-1.3,3.4-2.7c0.5-0.8,1-1.7,1.6-2.4c1.5-1.6,3.4-2.3,5.5-2.4
		c1.4-0.1,2.8-0.1,4.1,0.5c1.3,0.5,2.4,1.2,3.2,2.5c0.3,0.4,0.6,0.7,1,1c0.8,0.6,1.6,1.2,2.4,1.9c0.1,0.1,0.2,0.2,0.3,0.3
		C68.4,27,68.4,27,68.4,27z"/>
	<path class="pest-search__item-icon" d="M44.4,56.2c-0.2-0.5-0.4-0.9-0.5-1.3C43.4,55.7,43.5,56,44.4,56.2z"/>
</g>
</svg>
