<?xml-stylesheet type="text/css" href="/CMS_Themes/Default/Css/pest-icons.css" ?>
<svg version="1.1" id="Layer_1" xmlns="http://www.w3.org/2000/svg" viewBox="0 0 82.3 82.3" width="100%" height="100%">
<path class="pest-search__item-icon" d="M41.2,0C18.4,0,0,18.4,0,41.2c0,22.7,18.4,41.2,41.2,41.2s41.2-18.4,41.2-41.2C82.3,18.4,63.9,0,41.2,0z
	 M68.2,28.4c-0.3,0.5-0.5,1.1-1.1,1.5c-0.5,0.4-1,0.9-1.6,1.2c-0.6,0.3-1.1,0.7-1.7,1c-0.4,0.2-0.8,0.5-1.1,0.8
	c-0.1,0.1-0.1,0.3-0.2,0.4c-0.1,0.2-0.2,0.4-0.3,0.6c-0.3,0.3-0.8,0.6-1.1,0.9c-0.5,0.4-1.1,0.6-1.6,0.7c-0.6,0-1,0.3-1.6,0.4
	c-0.2,0-0.5,0.1-0.3,0.5c0,0.1,0,0.2-0.1,0.2c-0.3,0.4-0.6,0.9-1,1.3c-0.5,0.5-1,1-1.6,1.4c-0.4,0.3-0.8,0.6-1.3,0.6
	c-0.4,0-0.7,0.2-1.1,0.4c-1,0.5-1.9,1.2-3.1,1.4c-1,0.2-1.9,0.5-2.9,0.8c-0.4,0.1-0.7,0.8-0.5,1.2c0.2,0.5,0.5,1,0.7,1.5
	c0,0.1,0.1,0.2,0.2,0.2c0.7,0.2,1.4,0.4,2,0.7c0.3,0.1,0.6,0.1,0.9-0.1c1-0.6,2-0.5,2.9,0.1c0.6,0.3,1,0.8,1.5,1.3
	c0.1,0.1,0.2,0.3,0.3,0.5c0.1,0.4,0.1,0.8,0.2,1.2c0.1,0.3,0.2,0.5,0.3,0.7c0.1,0.1,0.1,0.3,0.2,0.4c0.1,0.7,0.4,1.5,0.4,2.2
	c0,0.6-0.1,1.3,0.3,1.9c0,0,0,0.1,0,0.1c0,0.5,0,0.9,0.3,1.3c0.1,0.1,0.2,0.2,0.1,0.3c-0.2,0.4,0.2,0.8,0.2,1.2
	c-0.1,0.5,0.1,1,0.1,1.5c0,0.2,0,0.3,0.3,0.3c0.7-0.2,1.5,0,2.2,0c0.5,0,0.9,0,1.4,0.2c0.7,0.2,1.5,0.2,2.2,0.4
	c0.4,0.1,0.6,0.5,1,0.8c0,0,0,0.2,0,0.2c-0.4-0.1-0.2,0.2-0.3,0.3c0,0.1,0,0.1-0.1,0.2c0,0-0.1-0.1-0.1-0.1
	c-0.1-0.1-0.2-0.3-0.3-0.4c-0.5-0.1-1-0.5-1.5-0.2c0,0-0.1,0-0.2,0c-0.6,0-1.2,0-1.8,0.1c-0.2,0-0.4,0-0.6,0c-0.3,0-0.5-0.1-0.8,0.2
	c-0.1,0.1-0.2,0.1-0.4,0.1c-0.4-0.1-0.8-0.2-1.2,0.1c-0.1,0-0.2,0-0.3,0C55.6,60.3,55,60,55,59.1c0-0.2-0.1-0.4-0.1-0.6
	c-0.1-1-0.2-2.1-0.3-3.1c-0.1-1.4-0.1-2.7-0.1-4.1c0-0.5-0.2-1.1-0.3-1.6c0-0.1-0.3-0.2-0.3-0.2c-0.3,0.4-0.5,0.2-0.8,0
	c-0.1-0.1-0.2-0.1-0.3-0.1c-0.5-0.2-1-0.2-1.4-0.5c-0.6-0.4-1.1-0.9-1.6-1.4c-0.1-0.1-0.1-0.1-0.2-0.2c-0.7-0.3-1.3-0.5-2-0.8
	c-0.4-0.1-0.6,0-0.6,0.4c0,0.3,0,0.6,0,0.9c-0.1,1.2-0.1,2.4-0.6,3.6C46,52.3,45.6,53,45,53.6c-0.2,0.2-0.2,0.3,0,0.6
	c0.6,0.7,1.1,1.5,1.6,2.2c0.1,0.1,0.2,0.3,0.2,0.5c0.1,0.2,0.2,0.4,0.3,0.6c0.4,0.5,0.9,0.9,1.1,1.5c0.2,0.5,0.5,0.9,0.8,1.3
	c0,0.1,0.1,0.1,0.2,0.2c0.3,0.4,0.6,0.8,0.8,1.3c0.1,0.4,0.5,0.7,0.8,1.1c0.2,0.3,0.4,0.6,0.6,0.9c0.1,0.2,0.1,0.4,0.3,0.6
	c0.2,0.3,0.4,0.5,0.6,0.7c0.2,0.3,0.5,0.5,0.5,0.8c0,0.4,0.3,0.6,0.5,0.9c0.3,0.4,0.7,0.7,0.8,1.2c0.1,0.5,0.4,0.8,0.7,1.1
	c0.3,0.3,0.6,0.7,0.6,1.1c0.1,0.3,0.1,0.4,0.3,0.6c0.4,0.4,0.8,0.9,0.7,1.6c0,0.1,0.1,0.2,0.1,0.3c0.4,0.4,0.5,0.9,0.6,1.4
	c0,0.1,0.1,0.3,0.2,0.4c0.3,0.4,0.6,0.8,0.8,1.2c0.1,0.3,0.2,0.6,0.2,1c0,0.1-0.1,0.3-0.2,0.4c-0.1,0-0.3-0.1-0.3-0.1
	c-0.2-0.2-0.3-0.4-0.4-0.6c-1-2-2.1-4.1-3.1-6.1c-0.2-0.5-0.4-1-0.8-1.4c-0.7-0.9-1.1-1.8-1.8-2.7c-0.3-0.4-0.6-1-0.8-1.5
	c0,0-0.1-0.1-0.1-0.1c-0.2-0.2-0.3-0.3-0.5-0.5c-0.5-0.6-0.7-1.5-1.3-2.1c-0.4-0.5-0.7-1.1-1-1.7c0-0.1-0.1-0.2-0.2-0.2
	c-0.8-0.5-1.2-1.2-1.5-2c0-0.1-0.1-0.3-0.2-0.3c-0.3,0-0.4-0.2-0.5-0.4c-0.4-0.4-0.4-0.9-0.9-1.3c-0.5-0.3-1-0.8-1.5-1.2
	c-0.1-0.1-0.3-0.1-0.4-0.1c-0.5,0-1-0.1-1.6-0.1c-0.5,0-1,0.1-1.6,0.1c-0.1,0-0.3,0.1-0.4,0.1c-0.5,0.4-0.9,0.9-1.5,1.2
	c-0.5,0.3-0.5,0.9-0.9,1.3c-0.2,0.1-0.2,0.4-0.5,0.4c0,0-0.1,0.2-0.2,0.3c-0.4,0.8-0.7,1.6-1.5,2c-0.1,0-0.1,0.1-0.2,0.2
	c-0.3,0.6-0.6,1.2-1,1.7c-0.6,0.6-0.8,1.4-1.3,2.1c-0.1,0.2-0.3,0.3-0.5,0.5c0,0-0.1,0.1-0.1,0.1c-0.3,0.5-0.5,1-0.8,1.5
	c-0.7,0.9-1.1,1.9-1.8,2.7c-0.3,0.4-0.5,1-0.8,1.4c-1,2-2.1,4.1-3.1,6.1c-0.1,0.2-0.3,0.4-0.4,0.6c-0.1,0.1-0.3,0.2-0.3,0.1
	c-0.1-0.1-0.2-0.2-0.2-0.4c0-0.3,0.1-0.7,0.2-1c0.2-0.4,0.5-0.8,0.8-1.2c0.1-0.1,0.1-0.3,0.2-0.4c0.1-0.5,0.3-1,0.6-1.4
	c0.1-0.1,0.1-0.2,0.1-0.3c0-0.7,0.3-1.1,0.7-1.6c0.2-0.2,0.2-0.4,0.3-0.6c0.1-0.4,0.4-0.8,0.6-1.1c0.3-0.4,0.6-0.6,0.7-1.1
	c0.1-0.4,0.5-0.8,0.8-1.2c0.2-0.3,0.5-0.5,0.5-0.9c0-0.3,0.3-0.6,0.5-0.8c0.2-0.2,0.4-0.4,0.6-0.7c0.1-0.2,0.1-0.4,0.3-0.6
	c0.2-0.3,0.4-0.6,0.6-0.9c0.3-0.4,0.6-0.7,0.8-1.1c0.2-0.5,0.4-0.9,0.8-1.3c0.1-0.1,0.1-0.1,0.2-0.2c0.3-0.4,0.6-0.9,0.8-1.3
	c0.3-0.5,0.8-1,1.1-1.5c0.1-0.2,0.2-0.4,0.3-0.6c0.1-0.2,0.1-0.3,0.2-0.5c0.5-0.7,1.1-1.5,1.6-2.2c0.2-0.2,0.2-0.4,0-0.6
	c-0.6-0.6-1-1.3-1.3-2.1c-0.5-1.2-0.5-2.4-0.6-3.6c0-0.3,0-0.6,0-0.9c0-0.4-0.2-0.5-0.6-0.4c-0.7,0.3-1.3,0.5-2,0.8
	c-0.1,0-0.2,0.1-0.2,0.2c-0.5,0.5-1,1-1.6,1.4c-0.4,0.3-1,0.3-1.4,0.5c-0.1,0-0.2,0.1-0.3,0.1c-0.3,0.2-0.5,0.3-0.8,0
	c0,0-0.3,0.1-0.3,0.2c-0.1,0.5-0.3,1.1-0.3,1.6c0.1,1.4,0,2.7-0.1,4.1c-0.1,1-0.2,2.1-0.3,3.1c0,0.2-0.1,0.4-0.1,0.6
	c0,0.9-0.6,1.2-1.3,1.4c-0.1,0-0.2,0.1-0.3,0c-0.4-0.2-0.8-0.1-1.2-0.1c-0.1,0-0.3,0-0.4-0.1c-0.2-0.3-0.5-0.2-0.8-0.2
	c-0.2,0-0.4,0-0.6,0c-0.6,0-1.2,0-1.8-0.1c-0.1,0-0.1,0-0.2,0c-0.6-0.3-1,0.1-1.5,0.2c-0.1,0-0.2,0.2-0.3,0.4c0,0-0.1,0.1-0.1,0.1
	c0-0.1-0.1-0.1-0.1-0.2c0-0.2,0.1-0.4-0.3-0.3c0-0.1,0-0.2,0-0.2c0.3-0.3,0.6-0.7,1-0.8c0.7-0.2,1.5-0.2,2.2-0.4
	c0.5-0.1,0.9-0.2,1.4-0.2c0.7,0,1.5-0.2,2.2,0c0.2,0.1,0.3-0.1,0.3-0.3c0-0.5,0.2-1,0.1-1.5c0-0.4,0.4-0.8,0.2-1.2
	c0,0,0.1-0.2,0.1-0.3c0.3-0.4,0.3-0.8,0.3-1.3c0,0,0-0.1,0-0.1c0.4-0.6,0.3-1.3,0.3-1.9c0-0.8,0.3-1.5,0.4-2.2
	c0-0.1,0.1-0.3,0.2-0.4c0.1-0.2,0.2-0.5,0.3-0.7c0.1-0.4,0.1-0.8,0.2-1.2c0-0.2,0.1-0.4,0.3-0.5c0.5-0.4,1-0.9,1.5-1.3
	c0.9-0.6,1.9-0.7,2.9-0.1c0.3,0.2,0.6,0.2,0.9,0.1c0.7-0.2,1.4-0.4,2-0.7c0.1,0,0.2-0.1,0.2-0.2c0.3-0.5,0.5-1,0.7-1.5
	c0.2-0.4-0.1-1-0.5-1.2c-1-0.3-1.9-0.6-2.9-0.8c-1.1-0.3-2.1-0.9-3.1-1.4c-0.3-0.2-0.7-0.3-1.1-0.4c-0.5,0-0.9-0.3-1.3-0.6
	c-0.6-0.4-1.1-0.9-1.6-1.4c-0.4-0.4-0.7-0.8-1-1.3c-0.1-0.1-0.1-0.2-0.1-0.2c0.2-0.4-0.1-0.4-0.3-0.5c-0.5-0.1-1-0.4-1.6-0.4
	c-0.6,0-1.2-0.2-1.6-0.7c-0.4-0.3-0.8-0.6-1.1-0.9c-0.1-0.1-0.2-0.4-0.3-0.6C20,33.2,20,33,19.9,32.9c-0.4-0.3-0.7-0.5-1.1-0.8
	c-0.5-0.4-1.1-0.8-1.7-1c-0.7-0.3-1.1-0.8-1.6-1.2c-0.5-0.4-0.8-1-1.1-1.5c0-0.1,0-0.2,0-0.2c0,0,0.1,0.1,0.1,0.1
	c0.1,0,0.2,0.1,0.2,0.1c0.3-0.3,0.3,0,0.5,0.1c0.2,0.2,0.3,0.4,0.5,0.5c0.5,0.5,1.2,0.7,1.8,1c0.6,0.3,1.3,0.6,1.9,0.9
	c0,0,0.1,0.1,0.1,0.1c0.6-0.2,0.7,0.3,1,0.6c0.3,0.3,0.5,0.5,0.8,0.8c0.1,0.1,0.3,0.2,0.3-0.1c0-0.1,0.1-0.2,0.2-0.2
	c0.2,0,0.4,0.1,0.5,0.2c0.2,0.2,0.3,0.5,0.4,0.7c0.2,0.3,0.3,0.6,0.5,0.9c0.1,0.2,0.1,0.5,0.5,0.3c0,0,0.1,0,0.1,0.1
	c0.3,0.2,0.7,0.4,1,0.6c0.1,0.1,0.2,0.1,0.2,0.2c0.2,0.2,0.4,0.3,0.6,0.3c0.4,0,0.8,0.2,1.1,0.3c1.1,0.4,2.1,0.8,2.8,1.8
	c0.1,0.2,0.3,0.4,0.4,0.7c0.2,0.7,0.8,1.1,1.4,1.4c0.1,0.1,0.3,0.1,0.5,0.2c0.8,0.5,1.7,0.5,2.6,0.6c0.1,0,0.1,0,0.2,0
	c0-0.1,0-0.1-0.1-0.2c-0.2-0.2-0.3-0.4-0.5-0.6c-1.3-0.9-2.3-2.1-3.1-3.4c-0.3-0.4-0.7-0.8-1.1-1.2c-1.2-1.2-2.3-2.5-3.1-4
	c-0.4-0.7-0.8-1.3-1.1-2.1c-0.2-0.5-0.5-0.8-0.6-1.2c-0.2-0.5-0.4-0.9-0.6-1.4c-0.1-0.2-0.1-0.4-0.2-0.6c-0.2-0.5-0.3-1.1-0.5-1.6
	c0-0.1,0-0.2,0-0.3c0.1-0.7-0.2-1.4-1-1.2c-1.2,0.3-2.4,0.2-3.6-0.2c-0.6-0.2-0.9-0.7-1.1-1.3c0-0.1,0-0.2-0.1-0.3
	c-0.1-0.5-0.1-0.5,0.3-0.8c0.1-0.1,0.3-0.3,0.3-0.4c0-0.6,0-1.2,0-1.8c0-0.2-0.1-0.3,0.1-0.5c0.1-0.1,0.1-0.4,0.1-0.5
	c0-0.3-0.1-0.5-0.1-0.8c0-0.2,0.1-0.4,0.1-0.6c0-0.2,0-0.4,0-0.6c0-0.3-0.1-0.7-0.2-1c0-0.1-0.1-0.3-0.1-0.4c0-0.1,0-0.2,0-0.4
	c0-0.3,0-0.5,0-0.7c-0.1-0.4-0.4-0.7-0.5-1.1c0,0,0-0.1,0-0.1c0.1,0,0.1,0,0.2,0c0.4,0,0.8,0.2,0.9,0.6c0.3,0.8,0.5,1.7,0.8,2.5
	c0.5,1.3,0.1,2.6,0.1,4c0,0.1,0,0.2,0,0.3c0,0.3,0,0.7-0.1,1c0,0.2-0.1,0.3,0.1,0.4c0.3,0.1,0.4,0.4,0.5,0.7c0.1,0.4,0.2,0.9,0.8,1
	c0.5,0.1,1.1,0,1.7,0c0.5,0,1,0,1.4,0.5c0.1,0.2,0.4,0.3,0.6,0.2c0.3-0.1,0.4,0,0.6,0.2c0.1,0.2,0.3,0.3,0.5,0.5c0,0,0,0,0,0
	l1.5,4.6c0,0.1,0,0.2,0,0.3c-0.1,0.8,0.1,1.4,0.4,2.1c0.1,0.3,0.3,0.6,0.4,0.9c0.1,0.2,0.1,0.2,0.3,0c0-0.1,0.1-0.1,0.1-0.2l1.2,1.7
	l-0.5-3.2l0.2-4.3l1.7-4.5l2.3-2.1l3.3-1.5l3.4-0.6c0.1,0,0.2,0,0.3-0.1l0.8,0l0.8,0c0.1,0.1,0.2,0.1,0.3,0.1l3.4,0.6l3.3,1.5
	l2.3,2.1l1.7,4.5l0.2,4.3l-0.5,3.2l1.2-1.7c0,0.1,0.1,0.1,0.1,0.2c0.1,0.2,0.2,0.2,0.3,0c0.1-0.3,0.3-0.6,0.4-0.9
	c0.3-0.7,0.5-1.3,0.4-2.1c0-0.1,0-0.2,0-0.3l1.5-4.6c0,0,0,0,0,0c0.2-0.2,0.3-0.3,0.5-0.5c0.2-0.2,0.3-0.3,0.6-0.2
	c0.3,0.1,0.5,0,0.6-0.2c0.3-0.5,0.8-0.6,1.4-0.5c0.6,0,1.1,0.1,1.7,0c0.5-0.1,0.7-0.6,0.8-1c0.1-0.3,0.2-0.6,0.5-0.7
	c0.2-0.1,0.2-0.2,0.1-0.4c-0.1-0.3-0.1-0.7-0.1-1c0-0.1,0-0.2,0-0.3c0-1.3-0.5-2.6,0.1-4c0.3-0.8,0.5-1.7,0.8-2.5
	c0.1-0.4,0.5-0.6,0.9-0.6c0.1,0,0.1,0,0.2,0c0,0,0,0.1,0,0.1c-0.2,0.4-0.4,0.7-0.5,1.1c-0.1,0.2,0,0.5,0,0.7c0,0.1,0,0.2,0,0.4
	c0,0.1-0.1,0.3-0.1,0.4c-0.1,0.3-0.1,0.7-0.2,1c0,0.2,0,0.4,0,0.6c0,0.2,0.1,0.4,0.1,0.6c0,0.3-0.1,0.5-0.1,0.8c0,0.2,0,0.4,0.1,0.5
	c0.2,0.2,0.1,0.3,0.1,0.5c0,0.6-0.1,1.2,0,1.8c0,0.1,0.2,0.3,0.3,0.4c0.5,0.3,0.5,0.3,0.3,0.8c0,0.1,0,0.2-0.1,0.3
	c-0.2,0.6-0.5,1.1-1.1,1.3c-1.2,0.4-2.4,0.5-3.6,0.2c-0.8-0.2-1.1,0.4-1,1.2c0,0.1,0,0.2,0,0.3c-0.2,0.5-0.3,1.1-0.5,1.6
	c-0.1,0.2-0.1,0.4-0.2,0.6c-0.2,0.5-0.4,0.9-0.6,1.4c-0.2,0.4-0.5,0.8-0.6,1.2c-0.2,0.7-0.7,1.4-1.1,2.1c-0.8,1.5-1.9,2.8-3.1,4
	c-0.4,0.4-0.8,0.7-1.1,1.2c-0.8,1.3-1.8,2.5-3.1,3.4c-0.2,0.1-0.4,0.4-0.5,0.6c0,0.1-0.1,0.1-0.1,0.2c0.1,0,0.1,0,0.2,0
	c0.9,0,1.8,0,2.6-0.6c0.1-0.1,0.3-0.1,0.5-0.2c0.6-0.3,1.2-0.7,1.4-1.4c0.1-0.2,0.3-0.4,0.4-0.7c0.7-1,1.7-1.4,2.8-1.8
	c0.4-0.1,0.8-0.3,1.1-0.3c0.3,0,0.5-0.1,0.6-0.3c0.1-0.1,0.1-0.1,0.2-0.2c0.3-0.2,0.7-0.4,1-0.6c0,0,0.1-0.1,0.1-0.1
	c0.4,0.2,0.4-0.1,0.5-0.3c0.2-0.3,0.4-0.6,0.5-0.9c0.1-0.2,0.3-0.5,0.4-0.7c0.1-0.1,0.3-0.2,0.5-0.2c0,0,0.2,0.1,0.2,0.2
	c0,0.3,0.2,0.2,0.3,0.1c0.3-0.3,0.5-0.5,0.8-0.8c0.3-0.3,0.4-0.8,1-0.6c0,0,0.1,0,0.1-0.1c0.6-0.3,1.3-0.6,1.9-0.9
	c0.6-0.3,1.3-0.5,1.8-1c0.2-0.2,0.3-0.4,0.5-0.5c0.1-0.1,0.2-0.5,0.5-0.1c0,0,0.2,0,0.2-0.1c0.1,0,0.1-0.1,0.1-0.1
	C68.3,28.2,68.3,28.3,68.2,28.4z"/>
</svg>
