<?xml-stylesheet type="text/css" href="/CMS_Themes/Default/Css/pest-icons.css" ?>
<svg id="Layer_1" data-name="Layer 1" xmlns="http://www.w3.org/2000/svg" viewBox="0 0 180 180">
  <path class="pest-search__item-icon" d="M160,0a90,90,0,1,0,90,90A90,90,0,0,0,160,0Zm43.89,93.2c-1.64-.43-3.27-1-4.94-1.26a12.48,12.48,0,0,0-4.49-.29c-2.49.52-4.39-.36-6.26-1.74s-3.71-2.69-5.69-4.12c0,.91.09,1.68.12,2.45.18,6.41.33,12.82.57,19.22a5.31,5.31,0,0,0,.82,2.69c1.77,2.54,2.32,5.46,2.84,8.38.22,1.24.74,1.5,1.88,1.59,2.85.22,5.79-.24,8.5,1a4.34,4.34,0,0,1,1.43.92c.22.23.11.76.14,1.16-.39,0-.88.24-1.14.07a11.62,11.62,0,0,0-6.75-1.47c-1,0-2.1-.19-3.15-.24-1.87-.09-3.21-.76-3.63-2.79-.1-.5-.69-.9-1-1.32-.17,2.23-.19,4.26-.51,6.24a46.75,46.75,0,0,1-4.83,14.72c-3.17,5.94-8.61,8.78-15,9.91a21,21,0,0,1-2.56.31v0l-.19,0-.19,0v0a21,21,0,0,1-2.56-.31c-6.41-1.13-11.85-4-15-9.91a46.75,46.75,0,0,1-4.83-14.72c-.32-2-.34-4-.51-6.24-.34.42-.93.82-1,1.32-.42,2-1.76,2.7-3.63,2.79-1,.05-2.1.27-3.15.24a11.62,11.62,0,0,0-6.75,1.47c-.26.17-.75,0-1.14-.07,0-.4-.08-.93.14-1.16a4.34,4.34,0,0,1,1.43-.92c2.71-1.25,5.65-.79,8.5-1,1.14-.09,1.66-.35,1.88-1.59.52-2.92,1.07-5.84,2.84-8.38a5.31,5.31,0,0,0,.82-2.69c.24-6.4.39-12.81.57-19.22,0-.77.08-1.54.12-2.45-2,1.43-3.85,2.76-5.69,4.12s-3.77,2.26-6.26,1.74a12.48,12.48,0,0,0-4.49.29c-1.67.29-3.3.83-4.94,1.26-.66-1.59-.55-1.76,1-1.92a12.12,12.12,0,0,0,2-.31c2.27-.59,4.52-1.22,6.92-.69a1.86,1.86,0,0,0,1.27-.49A40.82,40.82,0,0,1,137.56,84c.4-.16,1.06-.29,1.13-.56.5-1.91,3.06-2.42,3.13-4.6,0-.14.39-.27.57-.39-2-.4-3.92-.67-5.78-1.22-2.57-.75-5.06-1.73-7.61-2.55a8,8,0,0,0-2.47-.41,22.86,22.86,0,0,1-8.64-1c1-1,1.24-1,3.14-.87a35.9,35.9,0,0,0,6.86.26,7.34,7.34,0,0,1,4.14.61c1.83.85,3.65,1.7,5.49,2.52.93.42,1.26.16,1.22-.94a7,7,0,0,1,.49-3.17,31.48,31.48,0,0,1,2.84-4.81c2.44-3.43,4.65-7.06,8.28-9.45.66-.43,1.3-.89,2-1.38-.18-.23-.27-.44-.42-.5-2.93-1-4.65-3.51-6.42-5.76-2.2-2.79-3.95-5.92-6-8.85-1.19-1.7-1.26-3.66-1.52-5.57a7.57,7.57,0,0,1,.24-2.71c.11-.47.59-.87.91-1.3.3.43.83.85.86,1.3.08,1.18-.09,2.38-.1,3.57,0,.39,0,1,.25,1.14,1.73,1,1.64,2.66,1.56,4.33,0,.38.24,1.11.4,1.12,2.52.14,2.6,2.14,3.09,3.86a5.1,5.1,0,0,0,.92,2c1.68,1.84,3.25,3.85,5.92,4.4a2.28,2.28,0,0,1,1.36,1,1.55,1.55,0,0,0,1.94.71,26.17,26.17,0,0,1,4.46-.51h.38a26.17,26.17,0,0,1,4.46.51,1.55,1.55,0,0,0,1.94-.71,2.28,2.28,0,0,1,1.36-1c2.67-.55,4.24-2.56,5.92-4.4a5.1,5.1,0,0,0,.92-2c.49-1.72.57-3.72,3.09-3.86.16,0,.41-.74.4-1.12-.08-1.67-.17-3.29,1.56-4.33.23-.14.26-.75.25-1.14,0-1.19-.18-2.39-.1-3.57,0-.45.56-.87.86-1.3.32.43.8.83.91,1.3a7.57,7.57,0,0,1,.24,2.71c-.26,1.91-.33,3.87-1.52,5.57-2,2.93-3.79,6.06-6,8.85-1.77,2.25-3.49,4.72-6.42,5.76-.15.06-.24.27-.42.5.7.49,1.34.95,2,1.38,3.63,2.39,5.84,6,8.28,9.45a31.48,31.48,0,0,1,2.84,4.81,7,7,0,0,1,.49,3.17c0,1.1.29,1.36,1.22.94,1.84-.82,3.66-1.67,5.49-2.52a7.34,7.34,0,0,1,4.14-.61,35.9,35.9,0,0,0,6.86-.26c1.9-.17,2.18-.17,3.14.87a22.86,22.86,0,0,1-8.64,1,8,8,0,0,0-2.47.41c-2.55.82-5,1.8-7.61,2.55-1.86.55-3.8.82-5.78,1.22.18.12.57.25.57.39.07,2.18,2.63,2.69,3.13,4.6.07.27.73.4,1.13.56a40.82,40.82,0,0,1,10.22,5.79,1.86,1.86,0,0,0,1.27.49c2.4-.53,4.65.1,6.92.69a12.12,12.12,0,0,0,2,.31C204.44,91.44,204.55,91.61,203.89,93.2Z" transform="translate(-70)"/>
</svg>