<?xml-stylesheet type="text/css" href="/CMS_Themes/Default/Css/pest-icons.css" ?>
<svg version="1.1" id="Layer_1" xmlns="http://www.w3.org/2000/svg" viewBox="0 0 82.3 82.3" width="100%" height="100%">
<path class="pest-search__item-icon" d="M41.2,0C18.4,0,0,18.4,0,41.2c0,22.7,18.4,41.2,41.2,41.2s41.2-18.4,41.2-41.2C82.3,18.4,63.9,0,41.2,0z
	 M45.5,39.3c0.8,0.4,1.5,0.9,2.3,1.2c1.4,0.6,2.1,1.7,2.7,3c-0.1-0.6-0.2-1.2-0.3-1.8c0.1-0.1,0.2-0.1,0.3-0.2
	c0.3,0.5,0.7,1,0.8,1.6c0.4,1.5-1.4,0.9-1.7,1.8c-0.1,0-0.2,0-0.3,0c-0.1-0.4,0-0.8-0.2-1.1c-0.2-0.5-0.4-0.9-0.8-1.2
	c-0.2-0.2-0.7,0.1-1.1,0.1c-0.7-1.8-1.1-2.2-2.9-2.7c1.1,1.9-0.8,3.6,0.1,5.4c0.2,0.4,0.3,0.9,0.4,1.1c-0.2,0.8-0.6,1.3-0.6,1.9
	c-0.2,3.9-0.2,7.7-0.4,11.6c-0.1,1.3-0.3,2.6-0.3,3.9c-0.1,2.4-0.9,4.5-1.7,6.8c-0.4,1.2-0.3,2.6-0.4,3.9c-0.1,0.7-0.1,1.4-0.3,2
	c-0.1,0.4-0.4,0.7-0.6,1c0-0.1-0.1-0.1-0.1-0.2c0,0.1-0.1,0.1-0.1,0.2c-0.2-0.3-0.5-0.7-0.6-1c-0.2-0.7-0.2-1.4-0.3-2
	c-0.1-1.3,0-2.7-0.4-3.9c-0.8-2.2-1.7-4.4-1.7-6.8c0-1.3-0.3-2.6-0.3-3.9c-0.1-3.9-0.2-7.7-0.4-11.6c0-0.6-0.3-1.1-0.6-1.9
	c0-0.1,0.2-0.6,0.4-1.1c0.8-1.8-1-3.5,0.1-5.4c-1.8,0.5-2.2,0.9-2.9,2.7c-0.4-0.1-0.9-0.3-1.1-0.1c-0.4,0.3-0.6,0.8-0.8,1.2
	c-0.1,0.3-0.1,0.8-0.2,1.1c-0.1,0-0.2,0-0.3,0c-0.3-0.9-2.1-0.3-1.7-1.8c0.1-0.6,0.5-1.1,0.8-1.6c0.1,0.1,0.2,0.1,0.3,0.2
	c-0.1,0.6-0.2,1.2-0.3,1.8c0.6-1.3,1.3-2.4,2.7-3c0.8-0.3,1.5-0.8,2.3-1.2c1.4-0.7,1.5-1,1.1-2.5c-0.2-0.6,0-1.4-0.2-2
	c-0.1-0.5-0.4-1.4-0.8-1.5c-1.2-0.4-2.5-0.5-3.7-0.7c-0.9-0.2-1.8-0.4-2.8-0.6c0-0.2,0.1-0.4,0.1-0.6c2.4-0.8,4.7,0.3,7,0.8
	c0.7-1.1-0.8-3.3,1.5-3.4c-0.4-0.7-0.6-1.6-1.2-2.1c-1.1-1-1.5-2.2-1.7-3.5c-0.1-0.6,0.1-1.8,0.4-1.9c0.7-0.2,1.6,0.1,2.4,0.2
	c0,0.1,0,0.3-0.1,0.4c-0.5,0-1,0.1-1.6,0.2c0.6,1.3,1.1,2.4,1.6,3.6c0.2,0,0.3,0,0.5,0c0.2-0.9,0.5-1.9,0.6-2.8
	c0.2-1.4,0.1-2.8,0.3-4.2c0.1-0.5,0.2-0.9,0.4-1.4c-0.2-0.8-0.6-2.3-1.3-3.7c-1.5-2.8-3.5-4.2-6.1-4.2l0-0.9c3-0.1,5.4,1.6,7,4.7
	c0.6,1.2,1,2.3,1.2,3.2c0.1,0.2,0.3,0.4,0.5,0.6c0.2-0.2,0.4-0.4,0.5-0.6c0.2-0.9,0.6-2,1.2-3.2c1.6-3.1,4-4.8,7-4.7l0,0.9
	c-2.6,0-4.7,1.4-6.1,4.2c-0.7,1.4-1.1,2.8-1.3,3.7c0.2,0.5,0.4,0.9,0.4,1.4c0.2,1.4,0.1,2.8,0.3,4.2c0.1,0.9,0.4,1.9,0.6,2.8
	c0.2,0,0.3,0,0.5,0c0.5-1.1,1-2.3,1.6-3.6c-0.6-0.1-1.1-0.1-1.6-0.2c0-0.1,0-0.3-0.1-0.4c0.8-0.1,1.7-0.4,2.4-0.2
	c0.3,0.1,0.5,1.3,0.4,1.9c-0.2,1.3-0.6,2.5-1.7,3.5c-0.6,0.5-0.8,1.4-1.2,2.1c2.3,0,0.8,2.2,1.5,3.4c2.4-0.5,4.6-1.6,7-0.8
	c0,0.2,0.1,0.4,0.1,0.6c-0.9,0.2-1.8,0.4-2.8,0.6c-1.2,0.2-2.5,0.3-3.7,0.7c-0.4,0.1-0.6,1-0.8,1.5c-0.2,0.6,0,1.4-0.2,2
	C44,38.3,44.1,38.6,45.5,39.3z"/>
</svg>
