<?xml-stylesheet type="text/css" href="/CMS_Themes/Default/Css/pest-icons.css" ?>
<svg version="1.1" id="Layer_1" xmlns="http://www.w3.org/2000/svg" viewBox="0 0 82.3 82.3" width="100%" height="100%">
<path class="pest-search__item-icon" d="M41.2,0C18.4,0,0,18.4,0,41.2C0,48.8,2.1,55.9,5.6,62c0.2-0.1,0.5-0.2,0.7-0.3c0.6-0.2,1.1-0.4,1.7-0.6
	c0.2-0.1,0.4-0.2,0.6-0.4c0.2-0.1,0.3-0.2,0.5-0.3c0.2-0.1,0.4-0.2,0.6-0.2c0.2-0.1,0.5-0.2,0.7-0.3c0.1-0.1,0.3-0.1,0.4-0.1
	c0.2-0.1,0.3-0.2,0.4-0.2c0.1-0.1,0.3,0,0.5-0.1c0.2-0.1,0.4-0.3,0.7-0.4c0.7-0.2,1.3-0.4,1.8-0.9c0.3-0.2,0.6-0.3,0.9-0.5
	c0.4-0.2,0.8-0.4,1.1-0.7c0.3-0.4,0.7-0.6,1.1-0.9c0.3-0.2,0.6-0.4,0.9-0.7c0.3-0.2,0.6-0.5,0.9-0.8c0.4-0.4,0.8-0.7,1.2-1.1
	c0.1-0.1,0.1-0.3,0.1-0.3c-0.3-0.1-0.3-0.4-0.3-0.6c0-0.2-0.2-0.3-0.1-0.5c0.1-0.5-0.1-1,0-1.4c0,0,0-0.1,0-0.1c0-0.1,0-0.2,0-0.3
	c0-0.4-0.1-0.7-0.3-1c0,0,0-0.1,0-0.1c0-0.6,0.3-1.1,0-1.7c-0.1-0.3,0-0.6,0-0.9c0-0.3,0.1-0.6,0.2-0.9c0.1-0.6,0.2-1.1,0.3-1.7
	c0-0.1,0-0.2,0-0.3c0,0-0.1,0-0.1,0c0.1-0.4,0.3-0.8,0.2-1.1c0-0.4,0-0.7,0.2-0.9c0.1-0.2,0.2-0.4,0.1-0.7c-0.2-0.4-0.2-0.8,0.2-1.1
	c0,0,0.1-0.1,0-0.2c-0.2-0.3,0.1-0.5,0.2-0.8c0.1-0.2,0.2-0.5,0.3-0.7c0-0.1,0.1-0.2,0.1-0.3c0.2-0.1,0.2-0.3,0-0.4
	c0.1-0.1,0.1-0.2,0.2-0.3c0.2-0.4,0.4-0.7,0.6-1.1c0.2-0.3,0.5-0.6,0.6-1c0.1-0.3,0.4-0.5,0.5-0.8c0-0.1,0.2-0.2,0.2-0.3
	c0-0.4,0.3-0.6,0.5-0.9c0.1-0.2,0.4-0.3,0.3-0.5c0,0,0.1-0.1,0.1-0.2c0.2-0.2,0.5-0.4,0.7-0.6c0.1-0.1,0.2-0.3,0.3-0.4
	c0.3-0.1,0.5-0.3,0.7-0.5c0.3-0.2,0.7-0.4,1.1-0.6c0,0,0-0.2,0-0.2c0.4-0.3,0.8-0.5,1.2-0.8c0.1,0,0.2-0.1,0.2-0.2
	c0-0.3,0.3-0.3,0.5-0.4c0.1,0,0.1,0,0.2-0.1c0.3-0.3,0.7-0.5,1.2-0.6c0,0,0.1,0,0.1-0.1c0.4-0.4,0.8-0.6,1.3-0.7
	c0.3-0.1,0.6-0.2,0.9-0.2c0.2-0.1,0.4-0.2,0.6-0.2c0.6-0.2,1.2-0.3,1.8-0.4c0,0,0.1,0,0.1-0.1c0.2-0.1,0.5-0.3,0.7-0.3
	c0.4,0,0.7-0.3,1.1-0.4c0.2,0,0.4,0.1,0.6,0.1c0.4,0,0.7-0.2,1.1-0.2c0.3,0,0.5,0.1,0.8,0c0.7-0.1,1.4-0.1,2-0.1c0.4,0,0.8,0,1.2,0
	c0.3,0,0.6,0.1,0.9,0.1c0.6,0,1.2,0.1,1.7,0.4c0.2,0.1,0.4,0.2,0.7,0.2c0.6,0,1.2,0.2,1.7,0.4c0.2,0.1,0.4,0.2,0.6,0.2
	c0.5,0,1,0.2,1.5,0.1c0.1,0,0.3,0.1,0.4,0.1c0.1,0,0.3,0.1,0.3,0c0.3-0.3,0.7-0.1,1-0.3c0.1-0.1,0.3,0,0.5,0c0.3,0,0.5-0.1,0.8-0.1
	c0.1,0,0.3,0,0.4,0c0.1,0,0.2-0.1,0.3-0.1c0,0,0.1,0.1,0.1,0.1c0.2-0.2,0.5-0.3,0.7-0.5c0.5,0.1,1,0.2,1.5-0.2
	c0.4-0.1,0.6,0.2,0.8,0.5c0-0.1,0.1-0.1,0.1-0.2c0-0.2,0-0.5,0.4-0.4c0.1,0,0.2-0.1,0.3-0.2c0.2-0.4,0.4-0.8,0.6-1.2
	c0.1,0.1,0.2,0.1,0.3,0.2c0-0.1,0.1-0.1,0.1-0.2c0.1,0.1,0.1,0.1,0.2,0.1c0-0.1,0-0.1,0.1-0.2c0,0,0.1,0,0.1,0
	c0.1,0.2,0.2,0.4,0.3,0.6c0,0,0.1-0.1,0.1-0.1c0.1,0.3,0.2,0.6,0.3,0.9c0,0,0,0,0.1,0c0-0.1,0-0.2,0.1-0.3c0.7,0.4,0.9,1,1.3,1.7
	c0.3,0.7,0.6,1.4,1,2c0.1,0.3,0.4,0.5,0.6,0.8c0.2,0.3,0.3,0.6,0.5,1c0-0.1,0.1-0.1,0.1-0.1c0.3,0.4,0.5,0.8,0.8,1.2
	c0-0.1,0-0.1,0.1-0.3c0.3,0.5,0.5,0.9,0.7,1.3c0.1-0.2,0.1-0.3,0.1-0.4c0.1,0.3,0.3,0.6,0.4,0.8c0,0,0.1,0,0,0
	c0.1,0.1,0.2,0.3,0.3,0.4c0.1,0.2,0.2,0.3,0.3,0.5c0,0.1,0,0.1,0.1,0.2c0.3,0.3,0.4,0.6,0.4,1c0,0.2,0,0.3,0.1,0.5
	c0,0.1,0.1,0.1,0.1,0.1c0.6,0,0.8,0.5,1,0.8c0.3,0.4,0.5,0.9,0.9,1.1c0.1,0.3,0.1,0.7,0.2,1c0,0.1,0,0.2,0,0.4c0,0.2-0.1,0.4,0,0.6
	c0.1,0.3,0.3,0.5,0.4,0.8c0.1,0.2,0.1,0.4,0.2,0.5c0.4,0.3,0.2,0.7,0.4,1c0,0,0,0.1,0,0.2c0,0.2-0.1,0.4-0.1,0.7
	c-0.1,0.6-0.1,1.1-0.2,1.7c0,0.2-0.1,0.4-0.2,0.6c-0.5,0.7-1.2,1.1-2,1.2c-0.4,0.1-0.8,0.2-1.2,0.4c-0.3,0.1-0.5,0.4-0.7,0.6
	c0-0.1,0-0.1,0-0.2c-0.1,0.2-0.2,0.4-0.4,0.1c0,0-0.2,0.1-0.2,0.1c-0.1,0-0.1,0.1-0.1,0.2c-0.1,0-0.2-0.1-0.4-0.1c0,0,0-0.1,0-0.3
	c-0.1,0.4-0.4,0.8-0.6,0.8c-0.1,0-0.2-0.1-0.3-0.2c-0.3,0-0.5,0-0.7,0c-0.1,0-0.2-0.1-0.3-0.2C62,47.9,62,48,61.9,48.1
	c0,0,0,0-0.1-0.1c0,0,0,0-0.1-0.1c-0.2,0.3-0.7,0.3-0.9,0c-0.5,0.4-1,0.8-1.5,1.2c-0.2-0.1-0.3,0.1-0.5,0.2c-0.1,0-0.1,0.1-0.2,0.1
	c-0.4,0-0.8,0.1-1.1,0.4c-0.1,0.1-0.2,0.1-0.3,0.2c-0.1,0.1-0.3,0.1-0.3,0.2c0,0.2,0.1,0.4,0.2,0.5c0.5,0.3,1,0.5,1.6,0.5
	c0.7,0,1.3,0.4,1.9,0.7c0.1,0,0.2,0.1,0.2,0.2c0,0.1,0,0.2,0,0.3c0,0-0.2,0-0.2,0c-0.1,0-0.3-0.1-0.4,0c-0.3,0.1-0.6,0.2-1,0.3
	c-0.1,0-0.4,0-0.5-0.1c-0.4-0.5-0.8-0.5-1.3-0.2c0,0-0.1,0-0.1,0c-0.3,0.1-0.7,0.1-1-0.1c-0.1,0-0.2,0-0.3,0
	c-0.1,0.1-0.3,0.2-0.4,0.3c-0.3,0.2-0.7,0.3-1,0.2c-0.1,0-0.2,0-0.4,0c-0.2-0.2-0.4-0.2-0.7,0c-0.1,0-0.1,0.1-0.2,0.1
	c-0.3,0-0.6-0.1-0.8,0.3c-0.2-0.3-0.3,0.1-0.4,0.1c-0.2-0.1-0.3-0.2-0.5-0.3c-0.3,0.4-0.5,0.5-0.6,0.3c-0.1,0.1-0.1,0.2-0.2,0.3
	c0-0.1,0-0.2,0-0.2c-0.2,0-0.4-0.1-0.5-0.1c0,0,0-0.1,0-0.1c-0.1,0.1-0.1,0.2-0.2,0.2c-0.2,0-0.4,0.1-0.7,0.1c0,0,0-0.1-0.1-0.1
	c-0.1,0.1-0.1,0.1-0.2,0.2c0,0,0-0.1,0-0.1c-0.2,0-0.3,0-0.5,0c0-0.1,0-0.2-0.1-0.3c-0.1,0.1-0.2,0.1-0.3,0.2c0-0.1-0.1-0.2-0.1-0.3
	c-0.1,0.1-0.2,0.1-0.2,0.1c0-0.1,0-0.3-0.1-0.5c-0.1,0.2-0.2,0.3-0.3,0.4c0-0.1-0.1-0.2-0.1-0.4c-0.1,0.3-0.2,0.5-0.4,0.9
	c0-0.2,0-0.3,0-0.4c-0.2,0.2-0.3,0.3-0.4,0.4c0,0,0,0-0.1,0c0-0.2,0-0.3,0.1-0.6c-0.1,0.2-0.2,0.3-0.3,0.5c0-0.1,0-0.2-0.1-0.4
	c-0.2,0.3-0.2,0-0.3-0.1c-0.2,0.2-0.4,0.4-0.7,0.2c-0.1-0.1-0.4-0.1-0.4,0.2c0,0.1-0.1,0.1-0.1,0.2c0,0-0.1,0-0.1,0
	c0-0.2,0-0.4,0-0.5c-0.1,0.1-0.3,0.1-0.4,0.2c-0.1,0.1-0.1,0.3-0.2,0.5c0,0-0.1,0-0.1,0c0-0.2,0-0.3,0-0.5c0,0-0.1,0-0.1,0
	C44,52.9,44,53,43.9,53.3c0-0.1,0-0.2,0-0.2c0-0.1-0.1-0.2-0.1-0.4c-0.1,0.1-0.2,0.2-0.2,0.3c-0.1,0.1-0.1,0.3-0.2,0.4
	c0,0,0,0-0.1,0c0-0.3,0-0.6,0-0.9c0,0,0,0-0.1,0c-0.2,0.3-0.4,0.6-0.6,0.9c0-0.2,0-0.4,0-0.7c-0.2,0.3-0.3,0.5-0.4,0.7
	c0,0-0.1,0-0.1,0c0-0.1,0-0.3-0.1-0.5c-0.1,0.2-0.2,0.4-0.3,0.6c0,0,0,0,0,0c0-0.2,0.1-0.3,0.1-0.5c0,0-0.1,0-0.1-0.1
	c-0.1,0.1-0.2,0.3-0.3,0.4c0-0.3,0-0.5,0-0.7c0,0-0.1,0-0.1,0c-0.1,0.2-0.1,0.5-0.2,0.7C41,53.1,41,53,40.9,52.9
	c0-0.1,0-0.2,0.1-0.2c-0.1,0.2-0.2,0.4-0.3,0.7c0,0.1-0.1,0.1-0.2,0.2c0-0.1-0.1-0.1-0.1-0.2c0-0.2-0.1-0.4-0.1-0.5
	c-0.1,0-0.2-0.1-0.3-0.1c-0.1,0.2-0.1,0.3-0.2,0.5c0,0-0.1,0-0.1,0c0-0.3-0.1-0.6-0.1-1c-0.1,0.2-0.2,0.4-0.3,0.6
	c0,0.1-0.1,0.2-0.2,0.3c0-0.1-0.1-0.2-0.1-0.3c-0.1,0.2-0.2,0.4-0.2,0.5c0,0,0,0,0,0c0-0.1,0-0.1,0-0.2c0,0,0,0-0.1,0
	c-0.1,0.2-0.2,0.4-0.2,0.5c0,0,0,0-0.1,0c0-0.2,0.1-0.4,0.1-0.6c-0.3,0.2-0.5,0.4-0.7,0.6c-0.3,0.4-0.7,0.6-1,0.8
	c-0.1,0.1-0.3,0.1-0.5,0.1c-0.2,0-0.5-0.1-0.7,0c-0.1,0-0.1,0-0.2,0c-0.5,0.1-0.9,0-1.3-0.1c-0.5-0.1-0.6,0.1-0.6,0.5
	c0.8,0.3,1.6,0.6,2.4,0.8c0.2,0.1,0.5,0.2,0.7,0.2c0.6,0.1,1.3,0,1.9-0.3c0.3-0.1,0.7-0.3,1-0.3c0.5-0.1,1-0.2,1.5-0.2
	c0.4,0,0.6,0.5,0.4,0.8c-0.2,0.3-0.2,0.5,0.1,0.8c0,0,0,0.1,0.1,0.2c-0.3,0-0.6-0.1-0.8,0c-0.4,0.2-0.7,0.2-1.1,0.2
	c-0.6,0.1-1.2,0.4-1.9,0.4c-0.3,0-0.6,0.1-0.9,0.1c-0.2,0-0.3,0.1-0.3,0.3c0,0.3-0.1,0.7-0.2,1c0,0.1-0.1,0.2-0.2,0.2
	c-0.1,0-0.2-0.1-0.3-0.1c-0.2-0.3-0.3-0.6-0.4-0.9c-0.1-0.1-0.1-0.3-0.2-0.3c-0.3-0.1-0.6-0.3-0.9-0.3c-0.6-0.1-1.1,0-1.7-0.2
	c-0.1,0-0.2,0-0.2,0c-0.2-0.1-0.5-0.2-0.7-0.3c-0.2-0.1-0.3-0.2-0.4-0.3c-0.2-0.1-0.3-0.2-0.5-0.4c0,0-0.1,0.1-0.2,0.1
	c-0.2-0.1-0.3-0.2-0.4-0.3c-0.2-0.2-0.3,0.1-0.5,0c-0.3-0.2-0.6-0.3-1-0.5c-0.4-0.2-0.9-0.4-1.3-0.3c-0.4,0-0.6-0.1-0.8-0.2
	c-0.3,0-0.6,0.1-0.9,0c-0.4,0-0.8-0.1-1.2-0.1c-0.3,0-0.7,0-1,0c-0.2,0-0.3,0.1-0.5,0.1c-0.1,0-0.1-0.1-0.2-0.1
	c-0.1,0.1-0.2,0.2-0.3,0.2c-0.4,0.2-0.8,0.4-1.2,0.7c-0.7,0.5-1.3,1.1-2,1.6c-0.4,0.4-0.9,0.7-1.4,1c-0.5,0.3-1,0.6-1.5,0.9
	c-0.5,0.3-0.9,0.6-1.4,0.9c-0.1,0-0.2,0.1-0.3,0.1c-0.2,0.1-0.4,0.1-0.7,0.2c-0.7,0.3-1.3,0.8-2.1,1c-0.4,0.1-0.9,0.3-1.3,0.4
	c-0.7,0.2-1.3,0.4-2,0.6c-0.6,0.2-1.1,0.5-1.7,0.7c-0.2,0.1-0.4,0.1-0.6,0.2c7.3,11.3,20.1,18.8,34.6,18.8
	c22.7,0,41.2-18.4,41.2-41.2C82.3,18.4,63.9,0,41.2,0z"/>
</svg>
