<?xml-stylesheet type="text/css" href="/CMS_Themes/Default/Css/pest-icons.css" ?>
<svg version="1.1" id="Layer_1" xmlns="http://www.w3.org/2000/svg" viewBox="0 0 82.3 82.3" width="100%" height="100%">
<path class="pest-search__item-icon" d="M41.2,0C18.4,0,0,18.4,0,41.2s18.4,41.2,41.2,41.2s41.2-18.4,41.2-41.2S63.9,0,41.2,0z M29.9,73.3
	c-0.6,1.2-1.1,2.5-1.9,3.7c-0.3,0.4-0.9,0.6-1.4,0.8c-0.1-0.1-0.1-0.2-0.2-0.3c0.9-1.5,1.8-3.1,2.7-4.6c0.1-0.1,0.4-0.2,0.6-0.2
	C29.8,72.9,30,73.2,29.9,73.3z M53.1,77.8c-0.5-0.3-1.2-0.4-1.4-0.9c-0.7-1.2-1.3-2.4-1.8-3.7c-0.1-0.1,0.1-0.4,0.2-0.6
	c0.2,0.1,0.5,0.1,0.6,0.2c0.6,1,1.2,2.1,1.8,3.1c0.3,0.5,0.6,1,1,1.5C53.3,77.6,53.2,77.7,53.1,77.8z M56.2,24.9
	c-3.7,2.4-6.7,5.4-9.2,9c-0.7,1.1-1.6,2-2.5,2.9c-0.9,0.9-1,1.4,0,2.2c1.5,1.1,1.6,2.7,1.7,4.2c0,0.9,0.3,1.4,1.2,1.5
	c2.4,0.4,3,2.1,3.3,4.2c0.3,2.4,0,5,1.5,7.2c0.7,1,1.5,1.8,2.2,2.8c0.3,0.4,0.5,1,0.8,1.5c-0.1,0.1-0.3,0.2-0.4,0.4
	c-0.4-0.4-0.9-0.7-1.3-1.1c-0.9-1.2-1.8-2.4-2.7-3.6c-0.4-0.7-0.8-1.5-0.9-2.4c-0.3-1.9-0.4-3.8-0.7-5.8c0-0.2-0.4-0.5-0.6-0.6
	c-0.3-0.1-0.7-0.1-1.1-0.3c-1-0.4-1.4,0-1.4,1c0.1,1.8,0.2,3.6,0.2,5.3c0,1.1,0.6,1.9,1.4,2.6c0.6,0.5,1.1,0.9,1.6,1.4
	c0.8,0.8,1.4,1.7,0.8,2.9c-0.2,0.4,0,0.9,0,1.3c-0.2,3.3-0.4,6.6-0.6,9.9c0,0.2-0.1,0.4-0.2,0.6c-1-0.5-1-1.3-0.9-2.2
	c0.4-2.5,0.8-5,1-7.6c0.2-1.8-0.7-2.9-3.1-4c-0.1,1.3-0.2,2.5-0.3,3.8c-0.2,2.7-0.8,5.2-2.2,7.5c-0.5,0.8-1.2,1.5-1.9,2.1
	c-0.8,0.6-1.2,0-1.5-0.7c-0.1-0.3-0.4-0.6-0.6-0.8c-0.2,0.3-0.6,0.5-0.7,0.8c-0.6,1.1-1.1,1.1-2,0.3c-2.6-2.5-3.4-5.8-3.6-9.2
	c-0.1-1.2-0.2-2.5-0.3-3.7c-2.5,0.9-3.3,2.3-2.9,4.9c0.3,2.3,0.7,4.6,0.9,6.8c0.1,0.7-0.3,1.4-0.4,2c-0.2,0-0.4,0-0.6,0
	c-0.2-1.5-0.4-3-0.5-4.5c-0.1-2.2,0-4.4-0.1-6.5c0-0.1,0-0.3,0-0.4c-0.9-2.1,0.5-3.2,1.8-4.2c1.2-1,2.1-2,2.1-3.6c0-2,0-3.9,0-6.1
	c-0.9,0.2-1.8,0.4-2.6,0.6c-0.1,0-0.3,0.3-0.3,0.4c-0.2,1.5-0.6,2.9-0.6,4.4c0,1.8-0.2,3.3-1.6,4.6c-0.8,0.8-1.4,1.9-2.1,2.8
	c-0.3,0.4-0.8,0.7-1.4,0.9c-0.1-1.4,0.7-2.2,1.5-2.9c1.4-1.4,2.1-3,2.4-4.9c0.2-1.8,0.4-3.6,0.7-5.4c0.3-1.7,1.4-2.5,3-2.7
	c1-0.1,1.3-0.6,1.3-1.6c-0.1-1.7,0.3-3.2,1.8-4.3c0.8-0.5,0.6-1.1,0.1-1.8c-1.4-1.7-2.7-3.4-4.1-5.1c-2.3-2.7-4.7-5.4-7.8-7.2
	c-0.3-0.2-0.5-0.5-0.8-0.7c0.1-0.1,0.2-0.3,0.3-0.4c1,0.5,2,1,3,1.6c0.9,0.5,1.7,1.1,2.4,1.8c1.4,1.4,2.6,2.9,3.9,4.2
	c0.9,0.9,2,1.7,3.1,2.6c0.8-0.9,1.6-1.5,0.8-2.8c-0.5-0.8-0.4-1.6,0.4-2.3c0.6-0.5,0.6-1,0-1.7c-1.7-2.2-3.3-4.5-5-6.8
	c-1.2-1.6-2.4-3.2-3.5-4.8c-0.7-1-1.2-2.1-1.9-3.1C25.2,10.8,24,9,22.8,7.2c-0.1-0.2,0-0.4,0-1c0.5,0.5,0.8,0.8,1,1.1
	c1.5,2.2,3.1,4.4,4.6,6.6c1.2,1.8,2.4,3.6,3.7,5.3c1.5,2,3,4,4.6,6c0.1,0.1,0.3,0.2,0.5,0.4c1.4-1.4-0.2-3.3,0.7-4.6
	c0.1,0,0.3,0,0.4,0c0.1,0.5,0.2,0.9,0.3,1.4c0,0.5-0.1,1-0.1,1.6c0,0.7,0.2,1.1,1,0.9c0.6-0.1,1.5,0.1,1.6-0.1
	c0.3-0.6,0.1-1.4,0.2-2.1c0-0.5,0.1-1,0.2-1.5c0.2,0,0.5,0,0.7,0c0,1.5,0,3,0,4.4c0.2,0,0.3,0.1,0.5,0.1c0.6-0.7,1.4-1.3,1.9-2.1
	c1.9-2.6,3.8-5.2,5.7-7.9c1.3-1.9,2.6-3.9,3.9-5.8c0.8-1.2,1.7-2.3,2.5-3.4c0.1,0,0.2,0.1,0.4,0.1c-0.3,0.7-0.6,1.4-1,2.1
	c-3.1,4.5-6.2,9-9.4,13.5c-1.2,1.7-2.5,3.4-3.8,5.1c-0.5,0.6-0.4,1.1,0.2,1.6c0.6,0.5,0.8,1.2,0.5,2c-0.5,1.5-0.5,1.5,0.5,2.9
	c2.4-0.8,3.5-3,5.1-4.6c1.2-1.1,2.5-2.1,3.7-3.3c1.1-1.1,2.4-1.7,4.3-2C56.7,24.4,56.5,24.7,56.2,24.9z"/>
</svg>
